<svg xmlns="http://www.w3.org/2000/svg" xmlns:xlink="http://www.w3.org/1999/xlink" width="103" height="103" viewBox="0 0 103 103">
  <defs>
    <filter id="Path_978624" x="0" y="0" width="103" height="103" filterUnits="userSpaceOnUse">
      <feOffset dy="3" input="SourceAlpha"/>
      <feGaussianBlur stdDeviation="3" result="blur"/>
      <feFlood flood-opacity="0.161"/>
      <feComposite operator="in" in2="blur"/>
      <feComposite in="SourceGraphic"/>
    </filter>
  </defs>
  <g id="Group_1203529" data-name="Group 1203529" transform="translate(-185 -5261)">
    <g id="Group_1203022" data-name="Group 1203022">
      <g id="Group_1202694" data-name="Group 1202694" transform="translate(0 2199)">
        <g id="Group_1177896" data-name="Group 1177896" transform="translate(14 196)">
          <g id="Group_1176881" data-name="Group 1176881">
            <g id="Group_1175148" data-name="Group 1175148" transform="translate(0 1580)">
              <g id="Group_1173798" data-name="Group 1173798" transform="translate(-3 -3520)">
                <g id="Group_1171925" data-name="Group 1171925" transform="translate(-22 -2246)">
                  <g id="Group_1164524" data-name="Group 1164524" transform="translate(205 7058)">
                    <g id="Group_1144123" data-name="Group 1144123">
                      <g transform="matrix(1, 0, 0, 1, -9, -6)" filter="url(#Path_978624)">
                        <g id="Path_978624-2" data-name="Path 978624" transform="translate(9 6)" fill="#fff9f4">
                          <path d="M 42.5 83.5 C 36.96437835693359 83.5 31.59512901306152 82.41617584228516 26.54141235351562 80.27863311767578 C 21.65934181213379 78.21369171142578 17.27447128295898 75.25723266601562 13.50862312316895 71.49137878417969 C 9.742764472961426 67.72553253173828 6.786305904388428 63.34066009521484 4.721364498138428 58.45858764648438 C 2.583823442459106 53.40486907958984 1.5 48.03562164306641 1.5 42.5 C 1.5 36.96437835693359 2.583823442459106 31.59512901306152 4.721364498138428 26.54141235351562 C 6.786305904388428 21.65934181213379 9.742764472961426 17.27447128295898 13.50862312316895 13.50862312316895 C 17.27447128295898 9.742764472961426 21.65934181213379 6.786305904388428 26.54141235351562 4.721364498138428 C 31.59512901306152 2.583823442459106 36.96437835693359 1.5 42.5 1.5 C 48.03562164306641 1.5 53.40486907958984 2.583823442459106 58.45858764648438 4.721364498138428 C 63.34066009521484 6.786305904388428 67.72553253173828 9.742764472961426 71.49137878417969 13.50862312316895 C 75.25723266601562 17.27447128295898 78.21369171142578 21.65934181213379 80.27863311767578 26.54141235351562 C 82.41617584228516 31.59512901306152 83.5 36.96437835693359 83.5 42.5 C 83.5 48.03562164306641 82.41617584228516 53.40486907958984 80.27863311767578 58.45858764648438 C 78.21369171142578 63.34066009521484 75.25723266601562 67.72553253173828 71.49137878417969 71.49137878417969 C 67.72553253173828 75.25723266601562 63.34066009521484 78.21369171142578 58.45858764648438 80.27863311767578 C 53.40486907958984 82.41617584228516 48.03562164306641 83.5 42.5 83.5 Z" stroke="none"/>
                          <path d="M 42.5 3 C 37.16621398925781 3 31.99356079101562 4.043960571289062 27.125732421875 6.102882385253906 C 22.42246627807617 8.092185974121094 18.19785308837891 10.94070434570312 14.56928253173828 14.56928253173828 C 10.94070434570312 18.19785308837891 8.092185974121094 22.42246627807617 6.102882385253906 27.125732421875 C 4.043960571289062 31.99356079101562 3 37.16621398925781 3 42.5 C 3 47.83378601074219 4.043960571289062 53.00643920898438 6.102882385253906 57.87425231933594 C 8.092185974121094 62.57753372192383 10.94070434570312 66.80213165283203 14.56928253173828 70.43071746826172 C 18.19786834716797 74.05929565429688 22.42246627807617 76.90781402587891 27.125732421875 78.89711761474609 C 31.99356079101562 80.95603942871094 37.16621398925781 82 42.5 82 C 47.83378601074219 82 53.00642395019531 80.95603942871094 57.87425231933594 78.89711761474609 C 62.57753372192383 76.90781402587891 66.80213165283203 74.05929565429688 70.43071746826172 70.43071746826172 C 74.05929565429688 66.80213165283203 76.90781402587891 62.57753372192383 78.89711761474609 57.87425231933594 C 80.95603942871094 53.00642395019531 82 47.83378601074219 82 42.5 C 82 37.16621398925781 80.95603942871094 31.99356079101562 78.89711761474609 27.125732421875 C 76.90781402587891 22.42246627807617 74.05929565429688 18.19786834716797 70.43071746826172 14.56928253173828 C 66.80213165283203 10.94070434570312 62.57753372192383 8.092185974121094 57.87425231933594 6.102882385253906 C 53.00643920898438 4.043960571289062 47.83378601074219 3 42.5 3 M 42.5 0 C 65.97209167480469 0 85 19.02789306640625 85 42.5 C 85 65.97209167480469 65.97209167480469 85 42.5 85 C 19.02789306640625 85 0 65.97209167480469 0 42.5 C 0 19.02789306640625 19.02789306640625 0 42.5 0 Z" stroke="none" fill="#8b7157"/>
                        </g>
                      </g>
                    </g>
                  </g>
                </g>
              </g>
            </g>
          </g>
        </g>
      </g>
      <g id="inspire-idea_14781822_5_" data-name="inspire-idea_14781822 (5)" transform="translate(205.927 5278.654)">
        <g id="Group_1203012" data-name="Group 1203012" transform="translate(7.75 7.5)">
          <path id="Path_1043286" data-name="Path 1043286" d="M118.589,344.2v-3.343a2.033,2.033,0,0,0,1.652-2v-5.748h10.5v5.748a2.033,2.033,0,0,0,1.652,2l.286,2.879Z" transform="translate(-108.399 -303.178)" fill="#ca6e59"/>
          <path id="Path_1043287" data-name="Path 1043287" d="M57.922,16.548c0,6.615-3.56,14.473-12.622,11.873l-7.562-3.439a2.986,2.986,0,0,1-.2-4.416l.763-.211.528-.525a3.155,3.155,0,0,1,.632-5.412.278.278,0,0,0,.163-.324,3,3,0,0,1-.084-.7,2.915,2.915,0,0,1,2.883-2.946,2.886,2.886,0,0,1,.561.056,1.369,1.369,0,0,1,.218-.221,1.164,1.164,0,0,0,.484-1.016,3.249,3.249,0,0,1,4.552-.321.274.274,0,0,0,.411-.066,2.852,2.852,0,0,1,4.882,0,.274.274,0,0,0,.412.066,3.239,3.239,0,0,1,.648-.43C57.922,9.521,57.922,14.162,57.922,16.548Z" transform="translate(-34.002 -7.5)" fill="#73788c"/>
          <path id="Path_1043288" data-name="Path 1043288" d="M150.869,29.224a2.964,2.964,0,0,1-1.078,2.3l-8.648,4.7h-7.731l-2.771-1.26a13.585,13.585,0,0,0,9.295-19.91,3.218,3.218,0,0,1,1.464-.35,3.262,3.262,0,0,1,2.441,1.1l.152.742.55.495a2.884,2.884,0,0,1,.56-.056,2.915,2.915,0,0,1,2.884,2.946,3.011,3.011,0,0,1-.152.942,3.152,3.152,0,0,1,.863,5.5A2.936,2.936,0,0,1,150.869,29.224Z" transform="translate(-119.342 -14.038)" fill="#5e6577"/>
          <path id="Path_1043289" data-name="Path 1043289" d="M65.372,199.439a5.033,5.033,0,0,0,3.834-4.888h0a2,2,0,0,0-2-2H65.372l-20.163,0H43.376a2,2,0,0,0-2,2h0a5.033,5.033,0,0,0,3.834,4.888Z" transform="translate(-38.284 -175.536)" fill="#ca6e59"/>
          <path id="Path_1043290" data-name="Path 1043290" d="M98.212,130.929a1.992,1.992,0,0,1,2.6.857,8,8,0,0,0,.667,1.013l.435.578c.184.537.594,3.045,1.162,3.045v7.636a6.37,6.37,0,0,1-2.176,4.795l-3.956,3.462a4.246,4.246,0,0,1-2.8,1.05H91.8a4.246,4.246,0,0,1-2.8-1.05l-3.956-3.462a6.37,6.37,0,0,1-2.176-4.795v-7.636a1.352,1.352,0,0,0,1.257-.924L85,132.1a1.991,1.991,0,0,1,2.743-1.151l.127.061,1.025.393a11.347,11.347,0,0,0,8.12,0l1.025-.393Z" transform="translate(-75.968 -119.409)" fill="#d78878"/>
          <path id="Path_1043291" data-name="Path 1043291" d="M170.409,299.764c-2.181,0-2.278-2.013-2.242-2.743a.275.275,0,0,1,.275-.261h3.926a.275.275,0,0,1,.276.267C172.663,297.763,172.518,299.764,170.409,299.764Z" transform="translate(-153.414 -270.167)" fill="#eaf6ff"/>
          <path id="Path_1043292" data-name="Path 1043292" d="M13.8,438.979l-5.771-.013a.275.275,0,0,1-.276-.276v-5.124a.276.276,0,0,1,.148-.245,8.916,8.916,0,0,1,2.4-.827l.665-.133,5.864,2.175Z" transform="translate(-7.75 -393.3)" fill="#9be69d"/>
          <path id="Path_1043293" data-name="Path 1043293" d="M296.463,434.9l-2.226,3.632-7.684.006-2.78-4.869c.03-.031,5.621-1.787,5.621-1.787l.38.073a8.919,8.919,0,0,1,2.513.884Z" transform="translate(-258.396 -392.864)" fill="#9be69d"/>
          <path id="Path_1043294" data-name="Path 1043294" d="M120.515,418.39l.84,4.218-3.035,3.674-9.216.011-3.5-3.853,1.3-4.029A9.44,9.44,0,0,0,120.515,418.39Z" transform="translate(-96.61 -380.614)" fill="#eaf6ff"/>
          <path id="Path_1043295" data-name="Path 1043295" d="M48.125,407.89l-2.51-9.027a1.01,1.01,0,0,0-1.267-.7l-5.581,1.7a.437.437,0,0,0-.273.6l1.177,2.666a.276.276,0,0,0,.191.157l2.868.658a.276.276,0,0,1,.164.427L41.337,406.6a.276.276,0,0,0-.033.251l.375,1.036Z" transform="translate(-35.633 -362.211)" fill="#bbf49b"/>
          <path id="Path_1043296" data-name="Path 1043296" d="M243.879,407.672l2.514-9.037a1.01,1.01,0,0,1,1.267-.7l5.581,1.7a.438.438,0,0,1,.273.6l-1.177,2.666a.276.276,0,0,1-.191.157l-2.868.658a.276.276,0,0,0-.165.427l1.557,2.231a.276.276,0,0,1,.033.251l-.376,1.049Z" transform="translate(-222.17 -362.003)" fill="#bbf49b"/>
          <g id="Group_1203009" data-name="Group 1203009" transform="translate(34.033 24.94)">
            <path id="Path_1043297" data-name="Path 1043297" d="M388.857,387.922v3.536a10.77,10.77,0,0,1-.242,2.143,7.528,7.528,0,0,1-.871,1.567c-.557.938-.313,1.9-.31,2.994l-.707.452H379.76V397.1a3.8,3.8,0,0,0-1-2.57,3.147,3.147,0,0,1-.827-2.124v-1.523a1.865,1.865,0,0,1,.8-1.528Z" transform="translate(-377.933 -377.887)" fill="#d78878"/>
            <g id="Group_1203008" data-name="Group 1203008" transform="translate(8.503 5.936)">
              <path id="Path_1043298" data-name="Path 1043298" d="M472.846,343.943v3.505a.735.735,0,0,1-.3.658c-.221.221-1-.117-1.332-.114l-.6-.641-.194-2.279.636-.491a1.233,1.233,0,0,1,1.2-1.231C472.667,343.5,472.846,343.709,472.846,343.943Z" transform="translate(-470.425 -343.35)" fill="#d78878"/>
              <path id="Path_1043299" data-name="Path 1043299" d="M481.364,344.572v2.77a1.234,1.234,0,0,1-2.231.724l-.079-.084a1.234,1.234,0,0,0,1.223-1.234v-2.767a1.226,1.226,0,0,0-.179-.641h.033A1.233,1.233,0,0,1,481.364,344.572Z" transform="translate(-478.261 -343.34)" fill="#ca6e59"/>
            </g>
            <path id="Path_1043300" data-name="Path 1043300" d="M476.37,386.87v3.688a6.013,6.013,0,0,1-.846,3.075,6.015,6.015,0,0,0-.845,3.1l0,.65a.276.276,0,0,1-.276.277h-.848l0-.927a6.024,6.024,0,0,1,.846-3.1,6.012,6.012,0,0,0,.846-3.075v-3.529Z" transform="translate(-464.763 -376.932)" fill="#ca6e59"/>
            <path id="Path_1043301" data-name="Path 1043301" d="M391.17,281.214v9.959c0,.715-1.17,1.3-1.886,1.3l.608-1.624-.841-.8v-8.835a1.3,1.3,0,0,1,.767-1.184A1.2,1.2,0,0,1,391.17,281.214Z" transform="translate(-388.03 -279.914)" fill="#d78878"/>
            <path id="Path_1043302" data-name="Path 1043302" d="M417.406,332.035V335.3c0,.527-.856.983-1.308,1.186a1.3,1.3,0,0,1-.77-1.186l-.317-.07v-3.085l.317-.112a1.3,1.3,0,0,1,.77-1.185C417.189,330.989,417.406,331.509,417.406,332.035Z" transform="translate(-411.602 -326.062)" fill="#d78878"/>
            <path id="Path_1043303" data-name="Path 1043303" d="M447,332.035V335.5c0,.526-.951.982-1.4,1.185a1.3,1.3,0,0,1-.769-1.185l-.31-.2v-3.127l.31-.14a1.3,1.3,0,0,1,.769-1.185C446.826,331.017,447,331.509,447,332.035Z" transform="translate(-438.393 -326.062)" fill="#d78878"/>
            <path id="Path_1043304" data-name="Path 1043304" d="M399.331,280.07V289.5a.588.588,0,0,1-1.171,0V280.07a1.3,1.3,0,0,0-.766-1.184,1.28,1.28,0,0,1,.533-.116h.1A1.3,1.3,0,0,1,399.331,280.07Z" transform="translate(-395.605 -278.77)" fill="#ca6e59"/>
            <path id="Path_1043305" data-name="Path 1043305" d="M428.769,330.9v3.267a1.3,1.3,0,0,1-1.3,1.3h-.1a1.27,1.27,0,0,1-.53-.115,1.3,1.3,0,0,0,.77-1.186V330.9a1.3,1.3,0,0,0-.77-1.185,1.27,1.27,0,0,1,.53-.115h.1A1.3,1.3,0,0,1,428.769,330.9Z" transform="translate(-422.338 -324.927)" fill="#ca6e59"/>
            <path id="Path_1043306" data-name="Path 1043306" d="M458.189,330.9v3.465a1.3,1.3,0,0,1-1.3,1.3h-.1a1.267,1.267,0,0,1-.531-.115,1.3,1.3,0,0,0,.769-1.185V330.9a1.3,1.3,0,0,0-.769-1.185,1.267,1.267,0,0,1,.531-.115h.1A1.3,1.3,0,0,1,458.189,330.9Z" transform="translate(-449.053 -324.927)" fill="#ca6e59"/>
            <path id="Path_1043307" data-name="Path 1043307" d="M398.179,366.89a2.791,2.791,0,0,1-.059.572c-.242,1.156-1.962,1.3-3.181,1.427a3.89,3.89,0,0,0-2.3-.314c-.729.225-1.187,1.4-1.2,1.388l-2.387-1.249v-1.175l2.3-1.657a2.582,2.582,0,0,1,1.475-.48l3.826-.036A1.525,1.525,0,0,1,398.179,366.89Z" transform="translate(-388.028 -357.405)" fill="#ca6e59"/>
            <path id="Path_1043308" data-name="Path 1043308" d="M390.1,380.443l1.089-1.465a.276.276,0,0,1,.188-.109l2.352-.285a1.867,1.867,0,0,0,1.287-1.791.628.628,0,0,0-.632-.614h-3.461a2.336,2.336,0,0,0-1.34.422l-2.987,2.091Z" transform="translate(-385.799 -367.224)" fill="#d78878"/>
          </g>
          <g id="Group_1203011" data-name="Group 1203011" transform="translate(25.261 1.299)">
            <path id="Path_1043309" data-name="Path 1043309" d="M300.957,29a10.71,10.71,0,0,1-10.634,10.875c-1.94,0-6.2-1.424-6.753-2.97l.1-.423a.273.273,0,0,0-.024-.192A10.039,10.039,0,0,1,299.2,24.138,9.529,9.529,0,0,1,300.957,29Z" transform="translate(-282.516 -21.635)" fill="#eaf6ff"/>
            <path id="Path_1043310" data-name="Path 1043310" d="M303.608,58.521a10.054,10.054,0,0,1-15.068,6.42.274.274,0,0,0-.195-.036l-4.14.789a.276.276,0,0,1-.32-.337l.92-3.723A10.826,10.826,0,0,0,300.43,48.865,10.014,10.014,0,0,1,303.608,58.521Z" transform="translate(-283.751 -46.362)" fill="#d8ecfe"/>
            <g id="Group_1203010" data-name="Group 1203010" transform="translate(4.858 2.501)">
              <path id="Path_1043311" data-name="Path 1043311" d="M344.535,54.7c0,2.69-2.825,5.292-5.57,5.292-.416,0-.866.283-1.594-.791a5.85,5.85,0,0,0-.719-1.265,4.983,4.983,0,0,1,2.812-8.251A4.683,4.683,0,0,1,344.535,54.7Z" transform="translate(-335.361 -49.604)" fill="#ffe177"/>
              <path id="Path_1043312" data-name="Path 1043312" d="M363.676,53.82a4.965,4.965,0,0,1-1.268,3.32,6.016,6.016,0,0,0-1.207,3.587v.311l-5.017.016V60.78a8.421,8.421,0,0,0-.617-2.741,5.045,5.045,0,0,0,1.207.145c2.745,0,5.123-1.788,5.123-4.477a4.9,4.9,0,0,0-4.085-4.792,4.987,4.987,0,0,1,5.863,4.905Z" transform="translate(-353.71 -48.837)" fill="#ffd15b"/>
              <path id="Path_1043313" data-name="Path 1043313" d="M366.333,179.51l.78,1.523c0,.827-.5,1.523-2.275,1.523h-.391a1.5,1.5,0,0,1-1.5-1.5v-1.55h3.382Z" transform="translate(-360.414 -167.496)" fill="#5e6577"/>
              <path id="Path_1043314" data-name="Path 1043314" d="M386.48,179.511v1.55a1.5,1.5,0,0,1-1.5,1.5h-1.509a1.5,1.5,0,0,0,1.5-1.5v-1.55Z" transform="translate(-379.051 -167.497)" fill="#4d5263"/>
              <path id="Path_1043315" data-name="Path 1043315" d="M353.294,160.439c0,.331.2.706,0,.924a6.025,6.025,0,0,1-2,.475h-3.68a1.158,1.158,0,0,1-1.111-1.2,1.249,1.249,0,0,1,.325-.849,1.071,1.071,0,0,1,.786-.351h3.68C351.908,159.439,353.294,159.777,353.294,160.439Z" transform="translate(-345.48 -149.271)" fill="#73788c"/>
              <path id="Path_1043316" data-name="Path 1043316" d="M401.737,160.639a1.248,1.248,0,0,1-.325.848,1.071,1.071,0,0,1-.786.351h-2.015a1.069,1.069,0,0,0,.786-.351,1.248,1.248,0,0,0,.325-.848,1.158,1.158,0,0,0-1.111-1.2h2.015A1.158,1.158,0,0,1,401.737,160.639Z" transform="translate(-392.796 -149.271)" fill="#5e6577"/>
            </g>
          </g>
        </g>
        <g id="Group_1203021" data-name="Group 1203021" transform="translate(7.75 7.5)">
          <g id="Group_1203013" data-name="Group 1203013" transform="translate(3.091 17.015)">
            <path id="Path_1043317" data-name="Path 1043317" d="M45.164,199.455a5.033,5.033,0,0,1-3.788-4.877h0a2,2,0,0,1,2-2H45.21" transform="translate(-41.376 -192.577)" fill="none" stroke="#000" stroke-linecap="round" stroke-linejoin="round" stroke-miterlimit="10" stroke-width="1"/>
            <path id="Path_1043318" data-name="Path 1043318" d="M306.561,232.041a5.042,5.042,0,0,1-3.5,3.244" transform="translate(-278.999 -228.413)" fill="none" stroke="#000" stroke-linecap="round" stroke-linejoin="round" stroke-miterlimit="10" stroke-width="1"/>
          </g>
          <path id="Path_1043319" data-name="Path 1043319" d="M209.872,132.041a11.343,11.343,0,0,0,2.466-.639l1.025-.393.17-.08a1.991,1.991,0,0,1,2.731,1.156" transform="translate(-191.29 -119.409)" fill="none" stroke="#000" stroke-linecap="round" stroke-linejoin="round" stroke-miterlimit="10" stroke-width="1"/>
          <path id="Path_1043320" data-name="Path 1043320" d="M103.076,140.267v3.926a6.37,6.37,0,0,1-2.176,4.795l-3.956,3.462a4.246,4.246,0,0,1-2.8,1.05H91.8a4.246,4.246,0,0,1-2.8-1.05l-3.956-3.462a6.37,6.37,0,0,1-2.176-4.795v-7.636a1.352,1.352,0,0,0,1.257-.924l.871-3.4a1.991,1.991,0,0,1,2.743-1.151l.127.061,1.025.393a11.341,11.341,0,0,0,2.451.637" transform="translate(-75.968 -119.543)" fill="none" stroke="#000" stroke-linecap="round" stroke-linejoin="round" stroke-miterlimit="10" stroke-width="1"/>
          <g id="Group_1203015" data-name="Group 1203015" transform="translate(11.172 16.142)">
            <g id="Group_1203014" data-name="Group 1203014">
              <path id="Path_1043321" data-name="Path 1043321" d="M184.022,262.089a2.131,2.131,0,0,1-1.933,0" transform="translate(-177.233 -254.825)" fill="none" stroke="#000" stroke-linecap="round" stroke-linejoin="round" stroke-miterlimit="10" stroke-width="1"/>
              <path id="Path_1043322" data-name="Path 1043322" d="M132.8,183.526a3.677,3.677,0,0,0-3.535,0" transform="translate(-129.266 -183.073)" fill="none" stroke="#000" stroke-linecap="round" stroke-linejoin="round" stroke-miterlimit="10" stroke-width="1"/>
              <path id="Path_1043323" data-name="Path 1043323" d="M221.021,183.526a3.677,3.677,0,0,0-3.535,0" transform="translate(-209.375 -183.073)" fill="none" stroke="#000" stroke-linecap="round" stroke-linejoin="round" stroke-miterlimit="10" stroke-width="1"/>
              <line id="Line_1138" data-name="Line 1138" y1="1.566" transform="translate(9.878 2.655)" fill="none" stroke="#000" stroke-linecap="round" stroke-linejoin="round" stroke-miterlimit="10" stroke-width="1"/>
              <line id="Line_1139" data-name="Line 1139" y1="1.566" transform="translate(1.767 2.655)" fill="none" stroke="#000" stroke-linecap="round" stroke-linejoin="round" stroke-miterlimit="10" stroke-width="1"/>
            </g>
            <path id="Path_1043324" data-name="Path 1043324" d="M170.409,299.764c-2.665,0-2.219-3-2.219-3h4.438S172.994,299.764,170.409,299.764Z" transform="translate(-164.586 -286.308)" fill="none" stroke="#000" stroke-linecap="round" stroke-linejoin="round" stroke-miterlimit="10" stroke-width="1"/>
          </g>
          <path id="Path_1043325" data-name="Path 1043325" d="M61.957,11.476A2.843,2.843,0,0,0,59.2,10.5a3.309,3.309,0,0,0-3.142-2.339A3.256,3.256,0,0,0,53.7,9.178a2.859,2.859,0,0,0-5.207,0,3.256,3.256,0,0,0-2.36-1.016A3.309,3.309,0,0,0,42.992,10.5a2.841,2.841,0,0,0-.561-.056,2.915,2.915,0,0,0-2.884,2.945,3,3,0,0,0,.152.942,3.152,3.152,0,0,0-.863,5.5,2.971,2.971,0,0,0-1.094,5.151" transform="translate(-34.006 -7.5)" fill="none" stroke="#000" stroke-linecap="round" stroke-linejoin="round" stroke-miterlimit="10" stroke-width="1"/>
          <path id="Path_1043326" data-name="Path 1043326" d="M61.628,142.168a2.886,2.886,0,0,1-1.3-.527" transform="translate(-55.493 -129.309)" fill="none" stroke="#000" stroke-linecap="round" stroke-linejoin="round" stroke-miterlimit="10" stroke-width="1"/>
          <path id="Path_1043327" data-name="Path 1043327" d="M105.6,40.2a2.736,2.736,0,0,1,1.734,1.152" transform="translate(-96.604 -37.193)" fill="none" stroke="#000" stroke-linecap="round" stroke-linejoin="round" stroke-miterlimit="10" stroke-width="1"/>
          <path id="Path_1043328" data-name="Path 1043328" d="M267.939,40.183a2.741,2.741,0,0,0-1.393,1.061" transform="translate(-242.753 -37.178)" fill="none" stroke="#000" stroke-linecap="round" stroke-linejoin="round" stroke-miterlimit="10" stroke-width="1"/>
          <path id="Path_1043329" data-name="Path 1043329" d="M299.846,31.791q-.046.291-.11.583a10.35,10.35,0,0,1-15.606,6.551l-4.8.916,1.186-4.8A10.323,10.323,0,0,1,287.9,20" transform="translate(-254.33 -18.853)" fill="none" stroke="#000" stroke-linecap="round" stroke-linejoin="round" stroke-miterlimit="10" stroke-width="1"/>
          <path id="Path_1043330" data-name="Path 1043330" d="M407.545,19.544q.371.053.743.133a10.335,10.335,0,0,1,8.02,8.48" transform="translate(-370.789 -18.437)" fill="none" stroke="#000" stroke-linecap="round" stroke-linejoin="round" stroke-miterlimit="10" stroke-width="1"/>
          <g id="Group_1203016" data-name="Group 1203016" transform="translate(30.119 3.803)">
            <path id="Path_1043331" data-name="Path 1043331" d="M337.521,58.859a5.877,5.877,0,0,0-.877-1.687,4.977,4.977,0,1,1,7.4-.025,6.139,6.139,0,0,0-.892,1.692" transform="translate(-335.355 -48.863)" fill="none" stroke="#000" stroke-linecap="round" stroke-linejoin="round" stroke-miterlimit="10" stroke-width="1"/>
            <line id="Line_1140" data-name="Line 1140" y1="3.659" transform="translate(4.977 6.317)" fill="none" stroke="#000" stroke-linecap="round" stroke-linejoin="round" stroke-miterlimit="10" stroke-width="1"/>
            <path id="Path_1043332" data-name="Path 1043332" d="M367.8,186.134v.566a1.839,1.839,0,0,1-1.839,1.839h-1.209a1.839,1.839,0,0,1-1.839-1.839v-.566" transform="translate(-360.384 -173.514)" fill="none" stroke="#000" stroke-linecap="round" stroke-linejoin="round" stroke-miterlimit="10" stroke-width="1"/>
            <path id="Path_1043333" data-name="Path 1043333" d="M355.079,160.186h-4.954a1.258,1.258,0,0,1-1.258-1.258v-.074a1.258,1.258,0,0,1,1.258-1.258h4.954a1.258,1.258,0,0,1,1.258,1.258v.074A1.258,1.258,0,0,1,355.079,160.186Z" transform="translate(-347.625 -147.599)" fill="none" stroke="#000" stroke-linecap="round" stroke-linejoin="round" stroke-miterlimit="10" stroke-width="1"/>
            <line id="Line_1141" data-name="Line 1141" x2="3.187" transform="translate(3.45 6.309)" fill="none" stroke="#000" stroke-linecap="round" stroke-linejoin="round" stroke-miterlimit="10" stroke-width="1"/>
          </g>
          <path id="Path_1043334" data-name="Path 1043334" d="M346.53,432.2l.231.044a8.9,8.9,0,0,1,2.512.884" transform="translate(-315.384 -393.15)" fill="none" stroke="#000" stroke-linecap="round" stroke-linejoin="round" stroke-miterlimit="10" stroke-width="1"/>
          <path id="Path_1043335" data-name="Path 1043335" d="M250.768,358.351v3.428a2.033,2.033,0,0,0,1.652,2" transform="translate(-228.426 -326.095)" fill="none" stroke="#000" stroke-linecap="round" stroke-linejoin="round" stroke-miterlimit="10" stroke-width="1"/>
          <path id="Path_1043336" data-name="Path 1043336" d="M118.589,417.362h0a9.442,9.442,0,0,0,13.8,0h0" transform="translate(-108.399 -379.681)" fill="none" stroke="#000" stroke-linecap="round" stroke-linejoin="round" stroke-miterlimit="10" stroke-width="1"/>
          <path id="Path_1043337" data-name="Path 1043337" d="M10.664,365.216l-.362.072a8.9,8.9,0,0,0-2.553.906m11.842-7.843v3.428a2.033,2.033,0,0,1-1.652,2l-.106.02" transform="translate(-7.75 -326.095)" fill="none" stroke="#000" stroke-linecap="round" stroke-linejoin="round" stroke-miterlimit="10" stroke-width="1"/>
          <g id="Group_1203017" data-name="Group 1203017" transform="translate(2.57 35.913)">
            <path id="Path_1043338" data-name="Path 1043338" d="M44.305,404.051l-1.443-5.187a1.01,1.01,0,0,0-1.267-.7l-5.581,1.7a.437.437,0,0,0-.273.6l1.233,2.792,3.4.78L38.5,406.72l.424,1.184" transform="translate(-35.703 -398.124)" fill="none" stroke="#000" stroke-linecap="round" stroke-linejoin="round" stroke-miterlimit="10" stroke-width="1"/>
            <line id="Line_1142" data-name="Line 1142" x1="0.209" y1="0.753" transform="translate(9.464 9.027)" fill="none" stroke="#000" stroke-linecap="round" stroke-linejoin="round" stroke-miterlimit="10" stroke-width="1"/>
            <path id="Path_1043339" data-name="Path 1043339" d="M244.868,407.9l2.515-9.04a1.01,1.01,0,0,1,1.267-.7l5.581,1.7a.438.438,0,0,1,.273.6l-1.233,2.792-3.4.78,1.872,2.683-.424,1.183" transform="translate(-225.638 -398.125)" fill="none" stroke="#000" stroke-linecap="round" stroke-linejoin="round" stroke-miterlimit="10" stroke-width="1"/>
          </g>
          <g id="Group_1203020" data-name="Group 1203020" transform="translate(34.039 24.966)">
            <g id="Group_1203018" data-name="Group 1203018" transform="translate(9.14 5.936)">
              <path id="Path_1043340" data-name="Path 1043340" d="M479.879,344.858a1.232,1.232,0,0,0-1.232-1.232h0a1.234,1.234,0,0,0-1.234,1.234v2.767a1.234,1.234,0,0,0,1.234,1.234h0a1.234,1.234,0,0,0,1.234-1.234Z" transform="translate(-477.412 -343.626)" fill="none" stroke="#000" stroke-linecap="round" stroke-linejoin="round" stroke-miterlimit="10" stroke-width="1"/>
              <path id="Path_1043341" data-name="Path 1043341" d="M490.831,400.563" transform="translate(-489.597 -395.328)" fill="none" stroke="#000" stroke-linecap="round" stroke-linejoin="round" stroke-miterlimit="10" stroke-width="1"/>
            </g>
            <g id="Group_1203019" data-name="Group 1203019" transform="translate(9.916 9.973)">
              <path id="Path_1043342" data-name="Path 1043342" d="M487.548,387.53v3.687a5.989,5.989,0,0,1-.845,3.042h0a6.018,6.018,0,0,0-.845,3.1l0,.927" transform="translate(-485.858 -387.53)" fill="none" stroke="#000" stroke-linecap="round" stroke-linejoin="round" stroke-miterlimit="10" stroke-width="1"/>
            </g>
            <path id="Path_1043343" data-name="Path 1043343" d="M433.859,414.75a5.044,5.044,0,0,1,1.077,4.612l-.038.147" transform="translate(-428.723 -402.275)" fill="none" stroke="#000" stroke-linecap="round" stroke-linejoin="round" stroke-miterlimit="10" stroke-width="1"/>
            <path id="Path_1043344" data-name="Path 1043344" d="M389.115,290.309v-9.952a1.3,1.3,0,0,1,1.3-1.3h.1a1.3,1.3,0,0,1,1.3,1.3v8.086" transform="translate(-388.093 -279.057)" fill="none" stroke="#000" stroke-linecap="round" stroke-linejoin="round" stroke-miterlimit="10" stroke-width="1"/>
            <path id="Path_1043345" data-name="Path 1043345" d="M418.532,331.193a1.3,1.3,0,0,1,1.3-1.3h.1a1.3,1.3,0,0,1,1.3,1.3v2.959" transform="translate(-414.806 -325.219)" fill="none" stroke="#000" stroke-linecap="round" stroke-linejoin="round" stroke-miterlimit="10" stroke-width="1"/>
            <path id="Path_1043346" data-name="Path 1043346" d="M447.947,334.121v-2.928a1.3,1.3,0,0,1,1.3-1.3h.1a1.3,1.3,0,0,1,1.3,1.3v1.241" transform="translate(-441.516 -325.219)" fill="none" stroke="#000" stroke-linecap="round" stroke-linejoin="round" stroke-miterlimit="10" stroke-width="1"/>
            <path id="Path_1043347" data-name="Path 1043347" d="M382.3,380.732l1.159-1.56,2.323-.3a1.867,1.867,0,0,0,1.287-1.774.632.632,0,0,0-.632-.631h-3.314a2.336,2.336,0,0,0-1.34.422l-2.987,2.091a1.866,1.866,0,0,0-.8,1.528v1.523a3.144,3.144,0,0,0,.827,2.124,3.8,3.8,0,0,1,1,2.57v1.513" transform="translate(-377.999 -367.512)" fill="none" stroke="#000" stroke-linecap="round" stroke-linejoin="round" stroke-miterlimit="10" stroke-width="1"/>
          </g>
        </g>
      </g>
    </g>
  </g>
</svg>
