<svg xmlns="http://www.w3.org/2000/svg" xmlns:xlink="http://www.w3.org/1999/xlink" width="118" height="118" viewBox="0 0 118 118">
  <defs>
    <filter id="Path_982547" x="0" y="0" width="118" height="118" filterUnits="userSpaceOnUse">
      <feOffset dy="3" input="SourceAlpha"/>
      <feGaussianBlur stdDeviation="3" result="blur"/>
      <feFlood flood-opacity="0.161"/>
      <feComposite operator="in" in2="blur"/>
      <feComposite in="SourceGraphic"/>
    </filter>
  </defs>
  <g id="Group_1204656" data-name="Group 1204656" transform="translate(-834.5 -7888.47)">
    <g id="Group_1204153" data-name="Group 1204153">
      <g id="Group_1203971" data-name="Group 1203971" transform="translate(0 3206.639)">
        <g id="Group_1203664" data-name="Group 1203664" transform="translate(843.5 4687.832)">
          <g id="Group_1178316" data-name="Group 1178316">
            <g id="Group_1173988" data-name="Group 1173988">
              <g id="Group_1172010" data-name="Group 1172010">
                <g id="Group_1171046" data-name="Group 1171046">
                  <g id="Group_1148525" data-name="Group 1148525">
                    <g transform="matrix(1, 0, 0, 1, -9, -6)" filter="url(#Path_982547)">
                      <g id="Path_982547-2" data-name="Path 982547" transform="translate(9 6)" fill="#f4f4fd">
                        <path d="M 50 98.5 C 43.45188522338867 98.5 37.10042953491211 97.21787261962891 31.12207221984863 94.68923950195312 C 25.34691429138184 92.24655914306641 20.15997123718262 88.74931335449219 15.70532894134521 84.29468536376953 C 11.2506856918335 79.84004211425781 7.753442764282227 74.65309906005859 5.310757160186768 68.8779296875 C 2.782128572463989 62.89957046508789 1.5 56.54811477661133 1.5 50 C 1.5 43.45188522338867 2.782128572463989 37.10042953491211 5.310757160186768 31.12207221984863 C 7.753442764282227 25.34691429138184 11.2506856918335 20.15997123718262 15.70532894134521 15.70532894134521 C 20.15997123718262 11.2506856918335 25.34691429138184 7.753442764282227 31.12207221984863 5.310757160186768 C 37.10042953491211 2.782128572463989 43.45188522338867 1.5 50 1.5 C 56.54811477661133 1.5 62.89957046508789 2.782128572463989 68.8779296875 5.310757160186768 C 74.65309906005859 7.753442764282227 79.84004211425781 11.2506856918335 84.29468536376953 15.70532894134521 C 88.74931335449219 20.15997123718262 92.24655914306641 25.34691429138184 94.68923950195312 31.12207221984863 C 97.21787261962891 37.10042953491211 98.5 43.45188522338867 98.5 50 C 98.5 56.54811477661133 97.21787261962891 62.89957046508789 94.68923950195312 68.8779296875 C 92.24655914306641 74.65309906005859 88.74931335449219 79.84004211425781 84.29468536376953 84.29468536376953 C 79.84004211425781 88.74931335449219 74.65309906005859 92.24655914306641 68.8779296875 94.68923950195312 C 62.89957046508789 97.21787261962891 56.54811477661133 98.5 50 98.5 Z" stroke="none"/>
                        <path d="M 50 3 C 43.65372467041016 3 37.49886322021484 4.242263793945312 31.70639801025391 6.6922607421875 C 26.11003112792969 9.059326171875 21.08335113525391 12.44861602783203 16.76598358154297 16.76598358154297 C 12.44861602783203 21.08335113525391 9.059326171875 26.11003112792969 6.6922607421875 31.70639801025391 C 4.242263793945312 37.49886322021484 3 43.65372467041016 3 50 C 3 56.34627532958984 4.242263793945312 62.50113677978516 6.6922607421875 68.29360198974609 C 9.059326171875 73.88996887207031 12.44861602783203 78.91666412353516 16.76598358154297 83.23401641845703 C 21.08335113525391 87.55138397216797 26.11003112792969 90.940673828125 31.70639801025391 93.3077392578125 C 37.49886322021484 95.75773620605469 43.65372467041016 97 50 97 C 56.34627532958984 97 62.50113677978516 95.75773620605469 68.29360198974609 93.3077392578125 C 73.88996887207031 90.940673828125 78.91666412353516 87.55138397216797 83.23401641845703 83.23401641845703 C 87.55138397216797 78.91666412353516 90.940673828125 73.88996887207031 93.3077392578125 68.29360198974609 C 95.75773620605469 62.50113677978516 97 56.34627532958984 97 50 C 97 43.65372467041016 95.75773620605469 37.49886322021484 93.3077392578125 31.70639801025391 C 90.940673828125 26.11003112792969 87.55138397216797 21.08335113525391 83.23401641845703 16.76598358154297 C 78.91666412353516 12.44861602783203 73.88996887207031 9.059326171875 68.29360198974609 6.6922607421875 C 62.50113677978516 4.242263793945312 56.34627532958984 3 50 3 M 50 0 C 77.61424255371094 0 100 22.38577270507812 100 50 C 100 77.61424255371094 77.61424255371094 100 50 100 C 22.38577270507812 100 0 77.61424255371094 0 50 C 0 22.38577270507812 22.38577270507812 0 50 0 Z" stroke="none" fill="#6f6e88"/>
                      </g>
                    </g>
                  </g>
                </g>
              </g>
            </g>
          </g>
        </g>
      </g>
      <g id="girl-patient-online-healthcare-video_call" data-name="girl-patient-online-healthcare-video call" transform="translate(861.634 7914.907)">
        <path id="Path_1045818" data-name="Path 1045818" d="M3,6.964V40.657H60.477V6.964A3.964,3.964,0,0,0,56.513,3H6.964A3.964,3.964,0,0,0,3,6.964Z" transform="translate(-0.009 -0.009)" fill="#46f8ff"/>
        <path id="Path_1045819" data-name="Path 1045819" d="M60.919,6.964V40.657H55.964V6.964A3.964,3.964,0,0,0,52,3h4.955A3.964,3.964,0,0,1,60.919,6.964Z" transform="translate(-0.451 -0.009)" fill="#00d7df"/>
        <path id="Path_1045820" data-name="Path 1045820" d="M60.477,41v1.982a3.964,3.964,0,0,1-3.964,3.964H6.964A3.964,3.964,0,0,1,3,42.982V41Z" transform="translate(-0.009 -0.352)" fill="#c6c5ca"/>
        <path id="Path_1045821" data-name="Path 1045821" d="M47.946,27.973v4.955H44.973A2.973,2.973,0,0,1,42,29.955V25h2.973a2.973,2.973,0,0,1,2.973,2.973Z" transform="translate(-0.361 -0.207)" fill="#a78966"/>
        <path id="Path_1045822" data-name="Path 1045822" d="M47.946,27.973v4.955H44.973V27.973A2.973,2.973,0,0,0,42,25h2.973a2.973,2.973,0,0,1,2.973,2.973Z" transform="translate(-0.361 -0.207)" fill="#806749"/>
        <path id="Path_1045823" data-name="Path 1045823" d="M46.729,56.91v3.964H17V56.91a1.988,1.988,0,0,1,1.982-1.982H21.4a1.974,1.974,0,0,0,1.922-1.5L24.928,47H38.8l1.605,6.431a1.974,1.974,0,0,0,1.923,1.5h2.418a1.988,1.988,0,0,1,1.982,1.982Z" transform="translate(-0.135 -0.406)" fill="#898890"/>
        <path id="Path_1045824" data-name="Path 1045824" d="M46.729,40.964H17L18.982,37H44.747Z" transform="translate(-0.135 -0.316)" fill="#ea348b"/>
        <path id="Path_1045825" data-name="Path 1045825" d="M46.946,40.964H42.982L41,37h3.964Z" transform="translate(-0.352 -0.316)" fill="#c61469"/>
        <path id="Path_1045826" data-name="Path 1045826" d="M45.092,19.872a2.973,2.973,0,0,1-2.1,5.074H42V19h.991a2.966,2.966,0,0,1,2.1.872Z" transform="translate(-0.361 -0.153)" fill="#ffc477"/>
        <path id="Path_1045827" data-name="Path 1045827" d="M41.82,18.973v4.955a8.926,8.926,0,0,1-6.936,8.7,9.271,9.271,0,0,1-1.983.218H30.919a9.272,9.272,0,0,1-1.982-.218A8.927,8.927,0,0,1,22,23.928V18.973L26.955,16v1.982h9.91V16Z" transform="translate(-0.18 -0.126)" fill="#ffc477"/>
        <path id="Path_1045828" data-name="Path 1045828" d="M41.82,15.919v2.973l-4.955-2.973V13.937h-9.91v1.982L22,18.892V15.919A8.919,8.919,0,0,1,30.919,7H32.9a8.919,8.919,0,0,1,8.919,8.919Z" transform="translate(-0.18 -0.045)" fill="#a78966"/>
        <path id="Path_1045829" data-name="Path 1045829" d="M36.91,15.982v1.982H27V14h9.91Z" transform="translate(-0.226 -0.108)" fill="#00d7df"/>
        <path id="Path_1045830" data-name="Path 1045830" d="M34.946,32.78v4.182H29V32.78A9.272,9.272,0,0,0,30.982,33h1.982A9.272,9.272,0,0,0,34.946,32.78Z" transform="translate(-0.244 -0.278)" fill="#ffc477"/>
        <path id="Path_1045831" data-name="Path 1045831" d="M21.946,25v4.955a2.973,2.973,0,0,1-2.973,2.973H16V27.973A2.973,2.973,0,0,1,18.973,25Z" transform="translate(-0.126 -0.207)" fill="#a78966"/>
        <path id="Path_1045832" data-name="Path 1045832" d="M21.964,23.955v.991h-.991a2.973,2.973,0,1,1,0-5.946h.991Z" transform="translate(-0.144 -0.153)" fill="#ffc477"/>
        <path id="Path_1045833" data-name="Path 1045833" d="M16.91,8.982v3.964a2,2,0,0,1-1.982,1.982v3.964l-3.964-3.964H8.982A1.988,1.988,0,0,1,7,12.946V8.982A1.988,1.988,0,0,1,8.982,7h5.946A1.988,1.988,0,0,1,16.91,8.982Z" transform="translate(-0.045 -0.045)" fill="#fee9ab"/>
        <path id="Path_1045834" data-name="Path 1045834" d="M16.964,8.982v3.964a2,2,0,0,1-1.982,1.982v3.964L13,16.91V14.928a2,2,0,0,0,1.982-1.982V8.982A1.988,1.988,0,0,0,13,7h1.982A1.988,1.988,0,0,1,16.964,8.982Z" transform="translate(-0.099 -0.045)" fill="#ffde55"/>
        <path id="Path_1045835" data-name="Path 1045835" d="M60.919,41v1.982a3.964,3.964,0,0,1-3.964,3.964H52a3.964,3.964,0,0,0,3.964-3.964V41Z" transform="translate(-0.451 -0.352)" fill="#898890"/>
        <path id="Path_1045836" data-name="Path 1045836" d="M46.883,56.91v3.964H41.928V56.91a1.988,1.988,0,0,0-1.982-1.982H37.528a1.974,1.974,0,0,1-1.923-1.5L34,47h4.955l1.605,6.431a1.974,1.974,0,0,0,1.923,1.5H44.9A1.988,1.988,0,0,1,46.883,56.91Z" transform="translate(-0.289 -0.406)" fill="#57565c"/>
        <path id="Path_1045837" data-name="Path 1045837" d="M41.9,18.955V23.91a8.188,8.188,0,0,1-.059.991,8.927,8.927,0,0,1-6.877,7.71,9.272,9.272,0,0,1-1.982.218H31c-.168,0-.327,0-.486-.01a10.189,10.189,0,0,0,1.477-.208,8.927,8.927,0,0,0,6.877-7.71,8.188,8.188,0,0,0,.059-.991V18.955l-1.982-1.982V14Z" transform="translate(-0.257 -0.108)" fill="#ffa733"/>
        <path id="Path_1045838" data-name="Path 1045838" d="M41.9,15.919v2.973l-2.973-2.973A8.919,8.919,0,0,0,30.5,7.01C30.659,7,30.827,7,31,7h1.982A8.919,8.919,0,0,1,41.9,15.919Z" transform="translate(-0.257 -0.045)" fill="#806749"/>
        <path id="Path_1045839" data-name="Path 1045839" d="M33,14h3.964v3.964H33Z" transform="translate(-0.28 -0.108)" fill="#009698"/>
        <path id="Path_1045840" data-name="Path 1045840" d="M56.5,2H6.955A4.955,4.955,0,0,0,2,6.955V42.63a4.955,4.955,0,0,0,4.955,4.955H23.524l-1.3,5.193a.991.991,0,0,1-.961.753H18.847A2.982,2.982,0,0,0,15.874,56.5v3.964a.991.991,0,0,0,.991.991H46.594a.991.991,0,0,0,.991-.991V56.5a2.982,2.982,0,0,0-2.973-2.973H42.194a.991.991,0,0,1-.961-.753l-1.3-5.193H56.5a4.955,4.955,0,0,0,4.955-4.955V6.955A4.955,4.955,0,0,0,56.5,2ZM42.194,55.513h2.418a.991.991,0,0,1,.991.991v2.973H17.856V56.5a.991.991,0,0,1,.991-.991h2.418a2.973,2.973,0,0,0,2.884-2.25l1.417-5.678H37.893l1.417,5.678A2.973,2.973,0,0,0,42.194,55.513ZM59.477,42.63A2.982,2.982,0,0,1,56.5,45.6H6.955A2.982,2.982,0,0,1,3.982,42.63v-.991H59.477ZM36.684,12.9h-9.91a.991.991,0,0,0-.991.991v1.417l-2.973,1.784V15.874a7.939,7.939,0,0,1,7.928-7.928H32.72a7.939,7.939,0,0,1,7.928,7.928v1.219l-2.973-1.784V13.892a.991.991,0,0,0-.991-.991Zm-.991,1.982v1.982H27.765V14.883Zm-9.91,2.745v.228a.991.991,0,0,0,.991.991h9.91a.991.991,0,0,0,.991-.991v-.228l2.973,1.784V23.8a7.939,7.939,0,0,1-7.928,7.928H30.738A7.939,7.939,0,0,1,22.811,23.8v-4.39Zm3.964,16.034c.327.03.654.05.991.05H32.72c.337,0,.664-.02.991-.05v2.032H29.747ZM44,37.675l.991,1.982H18.47l.991-1.982Zm15.479,1.982H47.208l-1.714-3.419a.979.979,0,0,0-.882-.545H35.693V33.255a9.953,9.953,0,0,0,4.955-3.538v.03a3.964,3.964,0,0,0,3.964,3.964h2.973a.991.991,0,0,0,.991-.991V27.765a3.964,3.964,0,0,0-2.666-3.726,3.9,3.9,0,0,0,.684-2.22,3.964,3.964,0,0,0-3.964-3.964V15.874a9.926,9.926,0,0,0-9.91-9.91H30.738a9.926,9.926,0,0,0-9.91,9.91v1.982a3.964,3.964,0,0,0-3.964,3.964,3.9,3.9,0,0,0,.684,2.22,3.964,3.964,0,0,0-2.666,3.726V32.72a.991.991,0,0,0,.991.991h2.973a3.964,3.964,0,0,0,3.964-3.964v-.03a9.953,9.953,0,0,0,4.955,3.538v2.438H18.847a.979.979,0,0,0-.882.545L16.25,39.657H3.982V6.955A2.982,2.982,0,0,1,6.955,3.982H56.5a2.982,2.982,0,0,1,2.973,2.973ZM44.612,25.783a1.988,1.988,0,0,1,1.982,1.982v3.964H44.612a1.988,1.988,0,0,1-1.982-1.982V25.783ZM42.63,23.8V19.838a1.982,1.982,0,1,1,0,3.964ZM18.847,21.82a1.988,1.988,0,0,1,1.982-1.982V23.8A1.988,1.988,0,0,1,18.847,21.82Zm1.982,3.964v3.964a1.988,1.988,0,0,1-1.982,1.982H16.865V27.765a1.988,1.988,0,0,1,1.982-1.982Z" transform="translate(0)"/>
        <path id="Path_1045841" data-name="Path 1045841" d="M27,54h9.91v1.982H27Z" transform="translate(-0.226 -0.469)"/>
        <path id="Path_1045842" data-name="Path 1045842" d="M27.973,21a2.973,2.973,0,0,1,2.973,2.973H28.964a.991.991,0,0,0-1.982,0H25A2.973,2.973,0,0,1,27.973,21Z" transform="translate(-0.207 -0.171)"/>
        <path id="Path_1045843" data-name="Path 1045843" d="M35.973,21a2.973,2.973,0,0,1,2.973,2.973H36.964a.991.991,0,0,0-1.982,0H33A2.973,2.973,0,0,1,35.973,21Z" transform="translate(-0.28 -0.171)"/>
        <path id="Path_1045846" data-name="Path 1045846" d="M35.588,23.588A2.588,2.588,0,0,0,38.176,21H36.451a.863.863,0,0,1-1.725,0H33A2.588,2.588,0,0,0,35.588,23.588Z" transform="translate(-3.859 5.261)"/>
        <path id="Path_1045844" data-name="Path 1045844" d="M14.919,6H8.973A2.982,2.982,0,0,0,6,8.973v3.964A2.982,2.982,0,0,0,8.973,15.91h1.576l3.667,3.677a1,1,0,0,0,.7.287.83.83,0,0,0,.377-.079.978.978,0,0,0,.614-.912V15.741a2.987,2.987,0,0,0,1.982-2.8V8.973A2.982,2.982,0,0,0,14.919,6Zm.991,6.937a.991.991,0,0,1-.991.991.991.991,0,0,0-.991.991v1.576l-2.269-2.279a1.024,1.024,0,0,0-.7-.287H8.973a.991.991,0,0,1-.991-.991V8.973a.991.991,0,0,1,.991-.991h5.946a.991.991,0,0,1,.991.991Z" transform="translate(-0.036 -0.036)"/>
        <path id="Path_1045845" data-name="Path 1045845" d="M29.422,27Z" transform="translate(-0.28 -0.283)"/>
      </g>
    </g>
  </g>
</svg>
