<svg xmlns="http://www.w3.org/2000/svg" xmlns:xlink="http://www.w3.org/1999/xlink" width="108" height="108" viewBox="0 0 108 108">
  <defs>
    <filter id="Path_904820" x="0" y="0" width="108" height="108" filterUnits="userSpaceOnUse">
      <feOffset dy="3" input="SourceAlpha"/>
      <feGaussianBlur stdDeviation="3" result="blur"/>
      <feFlood flood-opacity="0.161"/>
      <feComposite operator="in" in2="blur"/>
      <feComposite in="SourceGraphic"/>
    </filter>
  </defs>
  <g id="Group_1203554" data-name="Group 1203554" transform="translate(-622.216 -318.871)">
    <g id="Group_1203121" data-name="Group 1203121">
      <g id="Group_1202635" data-name="Group 1202635" transform="translate(631.216 324.871)">
        <g id="Group_1173585" data-name="Group 1173585" transform="translate(0 0)">
          <g id="Group_1173428" data-name="Group 1173428">
            <g id="Group_1171958" data-name="Group 1171958">
              <g id="Group_1167341" data-name="Group 1167341">
                <g id="Group_1166792" data-name="Group 1166792">
                  <g transform="matrix(1, 0, 0, 1, -9, -6)" filter="url(#Path_904820)">
                    <g id="Path_904820-2" data-name="Path 904820" transform="translate(9 6)" fill="#eff8fa">
                      <path d="M 44.99996948242188 88.49999237060547 C 39.12685775756836 88.49999237060547 33.43020629882812 87.35006713867188 28.06828117370605 85.08216857910156 C 22.88851928710938 82.89130401611328 18.23629379272461 79.75457763671875 14.24085712432861 75.75914001464844 C 10.24540710449219 71.76369476318359 7.108694553375244 67.11146545410156 4.917831897735596 61.93169403076172 C 2.649931907653809 56.56976699829102 1.500007033348083 50.87311553955078 1.500007033348083 44.99999237060547 C 1.500007033348083 39.12686920166016 2.649931907653809 33.43021774291992 4.917831897735596 28.06829261779785 C 7.108694553375244 22.88851737976074 10.24540710449219 18.23630523681641 14.24085712432861 14.24085521697998 C 18.23629379272461 10.24540519714355 22.88851928710938 7.108692169189453 28.06828117370605 4.917829990386963 C 33.43020629882812 2.649929761886597 39.12685775756836 1.500004887580872 44.99996948242188 1.500004887580872 C 50.87309265136719 1.500004887580872 56.56973266601562 2.649929761886597 61.93165588378906 4.917829990386963 C 67.11143493652344 7.108692169189453 71.76365661621094 10.24540519714355 75.75909423828125 14.24085521697998 C 79.75454711914062 18.23630523681641 82.89125823974609 22.88851737976074 85.08212280273438 28.06829261779785 C 87.35002136230469 33.43021774291992 88.49994659423828 39.12686920166016 88.49994659423828 44.99999237060547 C 88.49994659423828 50.87311553955078 87.35002136230469 56.56976699829102 85.08212280273438 61.93169403076172 C 82.89125823974609 67.11146545410156 79.75454711914062 71.76369476318359 75.75909423828125 75.75914001464844 C 71.76364135742188 79.75457763671875 67.11143493652344 82.89130401611328 61.93165588378906 85.08216857910156 C 56.56973266601562 87.35006713867188 50.87309265136719 88.49999237060547 44.99996948242188 88.49999237060547 Z" stroke="none"/>
                      <path d="M 44.99996948242188 2.999992370605469 C 39.32868194580078 2.999992370605469 33.82863998413086 4.11004638671875 28.65261077880859 6.299331665039062 C 23.65164184570312 8.414566040039062 19.15968322753906 11.44333648681641 15.301513671875 15.30150604248047 C 11.44334411621094 19.15967559814453 8.414566040039062 23.65164947509766 6.299339294433594 28.65262222290039 C 4.110054016113281 33.82864761352539 3 39.32870483398438 3 44.99999237060547 C 3 50.67127990722656 4.110054016113281 56.17132186889648 6.299339294433594 61.34736633300781 C 8.414566040039062 66.34833526611328 11.44334411621094 70.84029388427734 15.301513671875 74.69846343994141 C 19.15968322753906 78.55663299560547 23.65164184570312 81.58540344238281 28.65261077880859 83.70063781738281 C 33.82863998413086 85.88992309570312 39.32868194580078 86.99997711181641 44.99996948242188 86.99997711181641 C 50.67125701904297 86.99997711181641 56.17129898071289 85.88992309570312 61.34732818603516 83.70063781738281 C 66.34829711914062 81.58540344238281 70.84025573730469 78.55663299560547 74.69844055175781 74.69846343994141 C 78.55661010742188 70.84029388427734 81.58537292480469 66.34833526611328 83.70061492919922 61.34736633300781 C 85.88988494873047 56.17132186889648 86.99993896484375 50.67127990722656 86.99993896484375 44.99999237060547 C 86.99993896484375 39.32870483398438 85.88988494873047 33.82864761352539 83.70061492919922 28.65262222290039 C 81.58537292480469 23.65164947509766 78.55661010742188 19.15967559814453 74.69844055175781 15.30150604248047 C 70.84025573730469 11.44333648681641 66.34829711914062 8.414566040039062 61.34732818603516 6.299331665039062 C 56.17129898071289 4.11004638671875 50.67125701904297 2.999992370605469 44.99996948242188 2.999992370605469 M 44.99996948242188 -7.62939453125e-06 C 69.85276794433594 -7.62939453125e-06 89.99993896484375 20.14717864990234 89.99993896484375 44.99999237060547 C 89.99993896484375 69.85279083251953 69.85276794433594 89.99997711181641 44.99996948242188 89.99997711181641 C 20.14718627929688 89.99997711181641 0 69.85279083251953 0 44.99999237060547 C 0 20.14717864990234 20.14718627929688 -7.62939453125e-06 44.99996948242188 -7.62939453125e-06 Z" stroke="none" fill="#62797e"/>
                    </g>
                  </g>
                </g>
              </g>
            </g>
          </g>
        </g>
      </g>
      <g id="read_8357022" transform="translate(567.904 327.584)">
        <g id="Group_1203119" data-name="Group 1203119" transform="translate(86 10)">
          <g id="Group_1203118" data-name="Group 1203118" transform="translate(0 38.324)">
            <rect id="Rectangle_416944" data-name="Rectangle 416944" width="7.875" height="21.857" transform="translate(18.374 4.392)" fill="#b278d3"/>
            <path id="Path_1043749" data-name="Path 1043749" d="M93.875,416.6A4.607,4.607,0,0,0,89.281,412h-.656A2.633,2.633,0,0,0,86,414.627v3.937a2.633,2.633,0,0,0,2.625,2.625h.656A4.607,4.607,0,0,0,93.875,416.6Z" transform="translate(-86 -397.565)" fill="#ffdcd5" fill-rule="evenodd"/>
            <path id="Path_1043750" data-name="Path 1043750" d="M370.6,412a4.594,4.594,0,1,0,0,9.187h.656a2.633,2.633,0,0,0,2.625-2.625v-3.937A2.633,2.633,0,0,0,371.252,412Z" transform="translate(-329.253 -397.565)" fill="#ffdcd5" fill-rule="evenodd"/>
            <path id="Path_1043751" data-name="Path 1043751" d="M121.749,328.251V306.394l-13.124-3.66L106,302v14.437h.656a4.59,4.59,0,0,1,2.646,8.343l.156.042Z" transform="translate(-103.375 -302.002)" fill="#d1aee5" fill-rule="evenodd"/>
            <path id="Path_1043752" data-name="Path 1043752" d="M286,306.394v21.857l12.333-3.44.113-.03a4.59,4.59,0,0,1,2.647-8.342h.656V302l-2.625.732Z" transform="translate(-259.753 -302.002)" fill="#d1aee5" fill-rule="evenodd"/>
          </g>
          <path id="Path_1043753" data-name="Path 1043753" d="M136.879,80.844c3.5-.691,6.878-2.622,6.878-7.863V67.335h-3.245a8.056,8.056,0,0,0-8.033,8.033v5.843A22.984,22.984,0,0,0,136.879,80.844Z" transform="translate(-126.379 -59.81)" fill="#ffda8f" fill-rule="evenodd"/>
          <path id="Path_1043754" data-name="Path 1043754" d="M218.407,23.876H231.52a8.055,8.055,0,0,0,8.033-8.033V10a8,8,0,0,1-5.5,2.188H223.744a5.238,5.238,0,0,0-5.337,5.337v6.351Z" transform="translate(-201.029 -10)" fill="#ffc144" fill-rule="evenodd"/>
          <path id="Path_1043755" data-name="Path 1043755" d="M293.759,94.712c.291,4.711,3.518,6.5,6.857,7.158a22.973,22.973,0,0,0,4.4.367V96.394a7.981,7.981,0,0,0-1.646-4.857,8.033,8.033,0,0,1-6.387,3.175h-3.223Z" transform="translate(-266.492 -80.836)" fill="#ffda8f" fill-rule="evenodd"/>
          <path id="Path_1043756" data-name="Path 1043756" d="M167.906,118.22c-3.339-.659-6.566-2.447-6.857-7.158h-9.89v-.7c0,5.24-3.378,7.172-6.878,7.863v3.9a3.281,3.281,0,0,0,0,6.562h.909a11.919,11.919,0,0,0,6.965,6.6V139.9h7.875v-4.617a11.92,11.92,0,0,0,6.965-6.6h.91a3.281,3.281,0,0,0,0-6.562v-3.9Z" transform="translate(-133.782 -97.186)" fill="#ffdcd5" fill-rule="evenodd"/>
        </g>
        <g id="Group_1203120" data-name="Group 1203120" transform="translate(86 10)">
          <path id="Path_1043757" data-name="Path 1043757" d="M145.374,315.783V302l-15.749,4.392h-7.875L106,302v13.781" transform="translate(-103.375 -263.678)" fill="none" stroke="#000" stroke-linecap="round" stroke-linejoin="round" stroke-miterlimit="22.926" stroke-width="1" fill-rule="evenodd"/>
          <path id="Path_1043758" data-name="Path 1043758" d="M132.35,475.806l12.291,3.428h7.875l12.333-3.44" transform="translate(-126.267 -414.661)" fill="none" stroke="#000" stroke-linecap="round" stroke-linejoin="round" stroke-miterlimit="22.926" stroke-width="1" fill-rule="evenodd"/>
          <path id="Path_1043759" data-name="Path 1043759" d="M88.625,412h.656a4.607,4.607,0,0,1,4.594,4.594h0a4.607,4.607,0,0,1-4.594,4.594h-.656A2.633,2.633,0,0,1,86,418.564v-3.937A2.633,2.633,0,0,1,88.625,412Z" transform="translate(-86 -359.241)" fill="none" stroke="#000" stroke-linecap="round" stroke-linejoin="round" stroke-miterlimit="22.926" stroke-width="1" fill-rule="evenodd"/>
          <path id="Path_1043760" data-name="Path 1043760" d="M371.253,412H370.6a4.594,4.594,0,0,0,0,9.187h.656a2.633,2.633,0,0,0,2.625-2.625v-3.937A2.633,2.633,0,0,0,371.253,412Z" transform="translate(-329.254 -359.241)" fill="none" stroke="#000" stroke-linecap="round" stroke-linejoin="round" stroke-miterlimit="22.926" stroke-width="1" fill-rule="evenodd"/>
          <line id="Line_1160" data-name="Line 1160" y2="1.312" transform="translate(18.375 27.562)" fill="none" stroke="#000" stroke-linecap="round" stroke-linejoin="round" stroke-miterlimit="22.926" stroke-width="1"/>
          <line id="Line_1161" data-name="Line 1161" y2="1.312" transform="translate(26.249 27.562)" fill="none" stroke="#000" stroke-linecap="round" stroke-linejoin="round" stroke-miterlimit="22.926" stroke-width="1"/>
          <path id="Path_1043761" data-name="Path 1043761" d="M152.157,214.995v-4.417m0-11.812v-9.589a11.92,11.92,0,0,1-6.965-6.6h-.909a3.281,3.281,0,0,1,0-6.562v-3.624m23.624,0v3.623a3.281,3.281,0,0,1,0,6.562H167a11.92,11.92,0,0,1-6.965,6.6v25.818" transform="translate(-133.782 -151.078)" fill="none" stroke="#000" stroke-linecap="round" stroke-linejoin="round" stroke-miterlimit="22.926" stroke-width="1" fill-rule="evenodd"/>
          <path id="Path_1043762" data-name="Path 1043762" d="M143.872,23.876h13a8.056,8.056,0,0,0,8.033-8.033V10a8,8,0,0,1-5.5,2.188H149.095a5.238,5.238,0,0,0-5.337,5.337v5.647c0,7.537-6.987,8.23-11.277,8.23V25.558a8.056,8.056,0,0,1,8.033-8.033H143.1" transform="translate(-126.38 -10)" fill="none" stroke="#000" stroke-linecap="round" stroke-linejoin="round" stroke-miterlimit="22.926" stroke-width="1" fill-rule="evenodd"/>
          <path id="Path_1043763" data-name="Path 1043763" d="M303.481,92.054a7.98,7.98,0,0,1,1.595,4.789v5.843c-4.125,0-10.746-.641-11.247-7.394" transform="translate(-266.551 -81.285)" fill="none" stroke="#000" stroke-linecap="round" stroke-linejoin="round" stroke-miterlimit="22.926" stroke-width="1" fill-rule="evenodd"/>
          <line id="Line_1162" data-name="Line 1162" x2="0.001" transform="translate(18.373 53.594)" fill="none" stroke="#000" stroke-linecap="round" stroke-linejoin="round" stroke-miterlimit="2.613" stroke-width="1"/>
        </g>
      </g>
    </g>
  </g>
</svg>
