<svg xmlns="http://www.w3.org/2000/svg" xmlns:xlink="http://www.w3.org/1999/xlink" width="118" height="118" viewBox="0 0 118 118">
  <defs>
    <filter id="Path_982547" x="0" y="0" width="118" height="118" filterUnits="userSpaceOnUse">
      <feOffset dy="3" input="SourceAlpha"/>
      <feGaussianBlur stdDeviation="3" result="blur"/>
      <feFlood flood-opacity="0.161"/>
      <feComposite operator="in" in2="blur"/>
      <feComposite in="SourceGraphic"/>
    </filter>
  </defs>
  <g id="Group_1203534" data-name="Group 1203534" transform="translate(-1055.907 -461.718)">
    <g id="Group_1203044" data-name="Group 1203044">
      <g id="Group_1202585" data-name="Group 1202585" transform="translate(1064.907 467.718)">
        <g id="Group_1178325" data-name="Group 1178325">
          <g id="Group_1177679" data-name="Group 1177679">
            <g id="Group_1172010" data-name="Group 1172010">
              <g id="Group_1171046" data-name="Group 1171046">
                <g id="Group_1148525" data-name="Group 1148525">
                  <g transform="matrix(1, 0, 0, 1, -9, -6)" filter="url(#Path_982547)">
                    <g id="Path_982547-2" data-name="Path 982547" transform="translate(9 6)" fill="#f4f4fd">
                      <path d="M 50 98.5 C 43.45188522338867 98.5 37.10042953491211 97.21787261962891 31.12207221984863 94.68923950195312 C 25.34691429138184 92.24655914306641 20.15997123718262 88.74931335449219 15.70532894134521 84.29468536376953 C 11.2506856918335 79.84004211425781 7.753442764282227 74.65309906005859 5.310757160186768 68.8779296875 C 2.782128572463989 62.89957046508789 1.5 56.54811477661133 1.5 50 C 1.5 43.45188522338867 2.782128572463989 37.10042953491211 5.310757160186768 31.12207221984863 C 7.753442764282227 25.34691429138184 11.2506856918335 20.15997123718262 15.70532894134521 15.70532894134521 C 20.15997123718262 11.2506856918335 25.34691429138184 7.753442764282227 31.12207221984863 5.310757160186768 C 37.10042953491211 2.782128572463989 43.45188522338867 1.5 50 1.5 C 56.54811477661133 1.5 62.89957046508789 2.782128572463989 68.8779296875 5.310757160186768 C 74.65309906005859 7.753442764282227 79.84004211425781 11.2506856918335 84.29468536376953 15.70532894134521 C 88.74931335449219 20.15997123718262 92.24655914306641 25.34691429138184 94.68923950195312 31.12207221984863 C 97.21787261962891 37.10042953491211 98.5 43.45188522338867 98.5 50 C 98.5 56.54811477661133 97.21787261962891 62.89957046508789 94.68923950195312 68.8779296875 C 92.24655914306641 74.65309906005859 88.74931335449219 79.84004211425781 84.29468536376953 84.29468536376953 C 79.84004211425781 88.74931335449219 74.65309906005859 92.24655914306641 68.8779296875 94.68923950195312 C 62.89957046508789 97.21787261962891 56.54811477661133 98.5 50 98.5 Z" stroke="none"/>
                      <path d="M 50 3 C 43.65372467041016 3 37.49886322021484 4.242263793945312 31.70639801025391 6.6922607421875 C 26.11003112792969 9.059326171875 21.08335113525391 12.44861602783203 16.76598358154297 16.76598358154297 C 12.44861602783203 21.08335113525391 9.059326171875 26.11003112792969 6.6922607421875 31.70639801025391 C 4.242263793945312 37.49886322021484 3 43.65372467041016 3 50 C 3 56.34627532958984 4.242263793945312 62.50113677978516 6.6922607421875 68.29360198974609 C 9.059326171875 73.88996887207031 12.44861602783203 78.91666412353516 16.76598358154297 83.23401641845703 C 21.08335113525391 87.55138397216797 26.11003112792969 90.940673828125 31.70639801025391 93.3077392578125 C 37.49886322021484 95.75773620605469 43.65372467041016 97 50 97 C 56.34627532958984 97 62.50113677978516 95.75773620605469 68.29360198974609 93.3077392578125 C 73.88996887207031 90.940673828125 78.91666412353516 87.55138397216797 83.23401641845703 83.23401641845703 C 87.55138397216797 78.91666412353516 90.940673828125 73.88996887207031 93.3077392578125 68.29360198974609 C 95.75773620605469 62.50113677978516 97 56.34627532958984 97 50 C 97 43.65372467041016 95.75773620605469 37.49886322021484 93.3077392578125 31.70639801025391 C 90.940673828125 26.11003112792969 87.55138397216797 21.08335113525391 83.23401641845703 16.76598358154297 C 78.91666412353516 12.44861602783203 73.88996887207031 9.059326171875 68.29360198974609 6.6922607421875 C 62.50113677978516 4.242263793945312 56.34627532958984 3 50 3 M 50 0 C 77.61424255371094 0 100 22.38577270507812 100 50 C 100 77.61424255371094 77.61424255371094 100 50 100 C 22.38577270507812 100 0 77.61424255371094 0 50 C 0 22.38577270507812 22.38577270507812 0 50 0 Z" stroke="none" fill="#6f6e88"/>
                    </g>
                  </g>
                </g>
              </g>
            </g>
          </g>
        </g>
      </g>
      <g id="Layer_32" data-name="Layer 32" transform="translate(1082.915 485.428)">
        <path id="Path_1043571" data-name="Path 1043571" d="M38.113,2.634A21.1,21.1,0,0,0,32.965,2H27.64A20.64,20.64,0,0,0,7,22.64H7a5.76,5.76,0,0,0,.608,2.576h0A3.711,3.711,0,0,1,8,26.876H8a3.715,3.715,0,0,1-.623,2.058L2.365,36.453A2.172,2.172,0,0,0,2,37.658H2A2.172,2.172,0,0,0,3.2,39.6L6,41v4l2,1-1.106.553A1.617,1.617,0,0,0,6,48H6a1.617,1.617,0,0,0,.894,1.447h0A2,2,0,0,1,8,51.236V53.36A3.64,3.64,0,0,0,11.64,57h0a3.637,3.637,0,0,0,.713-.071l4.014-.8A6.457,6.457,0,0,1,17.645,56h0a6.52,6.52,0,0,1,5.3,2.73L26,63H51L46.515,49.546A10.051,10.051,0,0,1,46,46.37h0a10.041,10.041,0,0,1,1.06-4.489l1.327-2.656" fill="#d08d78"/>
        <circle id="Ellipse_12602" data-name="Ellipse 12602" cx="19" cy="19" r="19" transform="translate(24 2)" fill="#0059be"/>
        <path id="Path_1043572" data-name="Path 1043572" d="M43,2A18.987,18.987,0,0,0,28.157,32.843,18.987,18.987,0,0,0,54.843,6.157,18.9,18.9,0,0,0,43,2Z" fill="#006bdb"/>
        <path id="Path_1043573" data-name="Path 1043573" d="M43,42A20.987,20.987,0,0,1,33.721,2.183,21.226,21.226,0,0,0,30.965,2H27.64A20.64,20.64,0,0,0,7,22.64a5.76,5.76,0,0,0,.608,2.576,3.713,3.713,0,0,1-.231,3.719L2.365,36.453A2.171,2.171,0,0,0,3.2,39.6L6,41v4l2,1-1.106.553a1.618,1.618,0,0,0,0,2.894A2,2,0,0,1,8,51.236V53.36a3.638,3.638,0,0,0,4.353,3.569l4.014-.8a6.515,6.515,0,0,1,6.583,2.6L26,63h8.818a10.221,10.221,0,0,0,9.7-13.454,10.039,10.039,0,0,1,.538-7.65C44.377,41.962,43.693,42,43,42Z" fill="#f2b9a1"/>
        <path id="Path_1043574" data-name="Path 1043574" d="M40,35h6l.355-2.485a11.928,11.928,0,0,0,2.42-1l2,1.5,4.243-4.243-1.5-2a11.928,11.928,0,0,0,1-2.42L57,24V18l-2.485-.355a11.928,11.928,0,0,0-1-2.42l1.5-2L50.778,8.979l-2,1.5a11.928,11.928,0,0,0-2.42-1L46,7H40Z" fill="#f9cb5d"/>
        <path id="Path_1043575" data-name="Path 1043575" d="M53,19a13.93,13.93,0,0,0-3.4-9.134l-.82.616a11.928,11.928,0,0,0-2.42-1L46,7H40V32.95A13.992,13.992,0,0,0,53,19Z" fill="#ffe1ae"/>
        <path id="Path_1043576" data-name="Path 1043576" d="M43,32a3,3,0,0,1-6,0,1.087,1.087,0,0,1,.01-.18A2.787,2.787,0,0,1,36,32a3,3,0,0,1-3-3,2.006,2.006,0,0,1-2-2,1.944,1.944,0,0,1,.55-1.37,3,3,0,0,1-.21-5.13A3,3,0,0,1,33,15a2.715,2.715,0,0,1,.91.15A3,3,0,0,1,36,10a2.787,2.787,0,0,1,1.01.18A1.087,1.087,0,0,1,37,10a3,3,0,0,1,6,0Z" fill="#e77cac"/>
        <path id="Path_1043577" data-name="Path 1043577" d="M37,10a1.087,1.087,0,0,0,.01.18A2.787,2.787,0,0,0,36,10a3,3,0,0,0-2.09,5.15A2.715,2.715,0,0,0,33,15a3,3,0,0,0-1.66,5.5,3,3,0,0,0,.21,5.13A1.944,1.944,0,0,0,31,27a2.006,2.006,0,0,0,2,2,3,3,0,0,0,3,3,2.787,2.787,0,0,0,1.01-.18A1.087,1.087,0,0,0,37,32a2.976,2.976,0,0,0,.758,1.977c.081.007.159.023.242.023a3,3,0,0,0,3-3V9a2.981,2.981,0,0,0-.756-1.976C40.162,7.018,40.083,7,40,7a3,3,0,0,0-3,3Z" fill="#f19cc8"/>
        <path id="Path_1043578" data-name="Path 1043578" d="M37.349,32.767l-.674-1.883A2.006,2.006,0,0,0,38,29h2A4.01,4.01,0,0,1,37.349,32.767Z" fill="#e77cac"/>
        <path id="Path_1043579" data-name="Path 1043579" d="M36,17a3.978,3.978,0,0,1-2.829-1.172l1.415-1.413a2.048,2.048,0,0,0,2.747.076l1.334,1.49A3.993,3.993,0,0,1,36,17Z" fill="#e77cac"/>
        <path id="Path_1043580" data-name="Path 1043580" d="M37,23H35a2,2,0,0,0-3.1-1.667l-1.109-1.665A4,4,0,0,1,37,23Z" fill="#e77cac"/>
        <path id="Path_1043581" data-name="Path 1043581" d="M43,28a7,7,0,1,0,0-14h0" fill="#006bdb"/>
        <path id="Path_1043582" data-name="Path 1043582" d="M43,1a19.9,19.9,0,0,0-4.85.62A22.108,22.108,0,0,0,32.965,1H27.64A21.665,21.665,0,0,0,6,22.64a6.794,6.794,0,0,0,.714,3.024,2.71,2.71,0,0,1-.17,2.716L1.533,35.9a3.172,3.172,0,0,0,1.22,4.6L5,41.618V45a1,1,0,0,0,.553.9l.314.157a2.62,2.62,0,0,0,.58,4.29A.994.994,0,0,1,7,51.236V53.36a4.641,4.641,0,0,0,5.55,4.55l4.013-.8a5.588,5.588,0,0,1,5.573,2.2l3.05,4.27,1.628-1.162-3.051-4.271a7.6,7.6,0,0,0-7.592-3l-4.015.8A2.61,2.61,0,0,1,11.64,56,2.643,2.643,0,0,1,9,53.36V51.236a2.982,2.982,0,0,0-1.659-2.683.618.618,0,0,1,0-1.106l1.1-.552a1,1,0,0,0,0-1.79L7,44.382V41a1,1,0,0,0-.553-.9l-2.8-1.4A1.173,1.173,0,0,1,3.2,37l5.011-7.51A4.708,4.708,0,0,0,8.5,24.769,4.794,4.794,0,0,1,8,22.64,19.663,19.663,0,0,1,27.64,3h5.325c.43,0,.86.015,1.288.042a19.967,19.967,0,0,0,12.3,37.624l-.383.767a11.043,11.043,0,0,0-.6,8.429l4.485,13.454,1.9-.632L47.464,49.229a9.037,9.037,0,0,1,.491-6.9L49.1,40.042A20,20,0,0,0,43,1Zm0,38A18,18,0,1,1,61,21,18,18,0,0,1,43,39Z"/>
        <path id="Path_1043583" data-name="Path 1043583" d="M50.178,8.179l-1.5,1.127a12.775,12.775,0,0,0-1.42-.584L46.99,6.858A1,1,0,0,0,46,6H40a4.008,4.008,0,0,0-3.874,3A4.026,4.026,0,0,0,32,13a3.954,3.954,0,0,0,.153,1.091A4,4,0,0,0,29.876,20.5a4.01,4.01,0,0,0,.34,5.378,3,3,0,0,0,1.877,3.982A4.015,4.015,0,0,0,36.126,33,4.008,4.008,0,0,0,40,36h6a1,1,0,0,0,.99-.858l.266-1.864a12.854,12.854,0,0,0,1.42-.584l1.5,1.127a1,1,0,0,0,1.307-.093l4.243-4.243a1,1,0,0,0,.093-1.307l-1.127-1.5a12.775,12.775,0,0,0,.584-1.42l1.864-.266A1,1,0,0,0,58,24V18a1,1,0,0,0-.858-.99l-1.864-.266a12.775,12.775,0,0,0-.584-1.42l1.127-1.5a1,1,0,0,0-.093-1.307L51.485,8.272a1,1,0,0,0-1.307-.093ZM44,15.09a5.993,5.993,0,0,1,0,11.82ZM38.049,32.425A4,4,0,0,0,40,29H38a2,2,0,0,1-1.322,1.882.052.052,0,0,0-.03.006A1.8,1.8,0,0,1,36,31a2,2,0,0,1-2-2,1,1,0,0,0-1-1,1,1,0,0,1-1-1,.946.946,0,0,1,.268-.674,1,1,0,0,0-.237-1.573,2,2,0,0,1-.137-3.42h0A2,2,0,0,1,35,23h2a3.98,3.98,0,0,0-5.511-3.694A1.964,1.964,0,0,1,31,18a2,2,0,0,1,2-2,1.684,1.684,0,0,1,.472.076,3.961,3.961,0,0,0,5.2-.1l-1.334-1.49a2.048,2.048,0,0,1-2.731-.064A2,2,0,0,1,36,11a1.8,1.8,0,0,1,.648.112A1.013,1.013,0,0,0,38,10a2,2,0,0,1,4,0V32a2,2,0,0,1-3.951.425ZM52.643,15.707a11.01,11.01,0,0,1,.913,2.217,1,1,0,0,0,.818.711L56,18.867v4.266l-1.626.232a1,1,0,0,0-.818.711,11.01,11.01,0,0,1-.913,2.217,1,1,0,0,0,.076,1.082l.982,1.31L50.685,31.7l-1.31-.983a1,1,0,0,0-1.082-.076,11,11,0,0,1-2.217.914,1,1,0,0,0-.711.818L45.133,34H43.444A3.959,3.959,0,0,0,44,32V28.931a7.993,7.993,0,0,0,0-15.862V10a3.959,3.959,0,0,0-.556-2h1.689l.232,1.626a1,1,0,0,0,.711.818,11.01,11.01,0,0,1,2.217.913.994.994,0,0,0,1.082-.076l1.31-.982L53.7,13.315l-.982,1.31a1,1,0,0,0-.075,1.082Z"/>
      </g>
    </g>
  </g>
</svg>
