<svg xmlns="http://www.w3.org/2000/svg" xmlns:xlink="http://www.w3.org/1999/xlink" width="108" height="108" viewBox="0 0 108 108">
  <defs>
    <filter id="Path_982547" x="0" y="0" width="108" height="108" filterUnits="userSpaceOnUse">
      <feOffset dy="3" input="SourceAlpha"/>
      <feGaussianBlur stdDeviation="3" result="blur"/>
      <feFlood flood-opacity="0.161"/>
      <feComposite operator="in" in2="blur"/>
      <feComposite in="SourceGraphic"/>
    </filter>
  </defs>
  <g id="Group_1204645" data-name="Group 1204645" transform="translate(-617.01 -4472)">
    <g id="Group_1203965" data-name="Group 1203965" transform="translate(427 2516.532)">
      <g id="Group_1203625" data-name="Group 1203625" transform="translate(-14.49 905.468)">
        <g id="Group_1178314" data-name="Group 1178314" transform="translate(213.5 1056)">
          <g id="Group_1173988" data-name="Group 1173988">
            <g id="Group_1172010" data-name="Group 1172010">
              <g id="Group_1171046" data-name="Group 1171046">
                <g id="Group_1148525" data-name="Group 1148525">
                  <g transform="matrix(1, 0, 0, 1, -9, -6)" filter="url(#Path_982547)">
                    <g id="Path_982547-2" data-name="Path 982547" transform="translate(9 6)" fill="#f7fbfc">
                      <path d="M 45 88.5 C 39.12687683105469 88.5 33.43022537231445 87.35007476806641 28.06830024719238 85.08217620849609 C 22.88852500915527 82.89131164550781 18.23629951477051 79.75458526611328 14.2408504486084 75.75914764404297 C 10.24541282653809 71.76370239257812 7.108687400817871 67.11147308349609 4.917825222015381 61.93170166015625 C 2.649924993515015 56.56977462768555 1.5 50.87312316894531 1.5 45 C 1.5 39.12687683105469 2.649924993515015 33.43022537231445 4.917825222015381 28.06830024719238 C 7.108687400817871 22.88852500915527 10.24541282653809 18.23629951477051 14.2408504486084 14.2408504486084 C 18.23629951477051 10.24541282653809 22.88852500915527 7.108687400817871 28.06830024719238 4.917825222015381 C 33.43022537231445 2.649924993515015 39.12687683105469 1.5 45 1.5 C 50.87312316894531 1.5 56.56977462768555 2.649924993515015 61.93170166015625 4.917825222015381 C 67.11147308349609 7.108687400817871 71.76370239257812 10.24541282653809 75.75914764404297 14.2408504486084 C 79.75458526611328 18.23629951477051 82.89131164550781 22.88852500915527 85.08217620849609 28.06830024719238 C 87.35007476806641 33.43022537231445 88.5 39.12687683105469 88.5 45 C 88.5 50.87312316894531 87.35007476806641 56.56977462768555 85.08217620849609 61.93170166015625 C 82.89131164550781 67.11147308349609 79.75458526611328 71.76370239257812 75.75914764404297 75.75914764404297 C 71.76370239257812 79.75458526611328 67.11147308349609 82.89131164550781 61.93170166015625 85.08217620849609 C 56.56977462768555 87.35007476806641 50.87312316894531 88.5 45 88.5 Z" stroke="none"/>
                      <path d="M 45 3 C 39.32871246337891 3 33.82865524291992 4.110054016113281 28.65262985229492 6.299339294433594 C 23.65165710449219 8.414573669433594 19.15968322753906 11.44334411621094 15.301513671875 15.301513671875 C 11.44334411621094 19.15968322753906 8.414573669433594 23.65165710449219 6.299339294433594 28.65262985229492 C 4.110054016113281 33.82865524291992 3 39.32871246337891 3 45 C 3 50.67128753662109 4.110054016113281 56.17134475708008 6.299339294433594 61.34737396240234 C 8.414573669433594 66.34834289550781 11.44334411621094 70.84031677246094 15.301513671875 74.698486328125 C 19.15968322753906 78.55665588378906 23.65165710449219 81.58542633056641 28.65262985229492 83.70066070556641 C 33.82865524291992 85.88994598388672 39.32871246337891 87 45 87 C 50.67128753662109 87 56.17134475708008 85.88994598388672 61.34737396240234 83.70066070556641 C 66.34834289550781 81.58542633056641 70.84031677246094 78.55665588378906 74.698486328125 74.698486328125 C 78.55665588378906 70.84031677246094 81.58542633056641 66.34834289550781 83.70066070556641 61.34737396240234 C 85.88994598388672 56.17134475708008 87 50.67128753662109 87 45 C 87 39.32871246337891 85.88994598388672 33.82865524291992 83.70066070556641 28.65262985229492 C 81.58542633056641 23.65165710449219 78.55665588378906 19.15968322753906 74.698486328125 15.301513671875 C 70.84031677246094 11.44334411621094 66.34834289550781 8.414573669433594 61.34737396240234 6.299339294433594 C 56.17134475708008 4.110054016113281 50.67128753662109 3 45 3 M 45 0 C 69.85281372070312 0 90 20.14718627929688 90 45 C 90 69.85281372070312 69.85281372070312 90 45 90 C 20.14718627929688 90 0 69.85281372070312 0 45 C 0 20.14718627929688 20.14718627929688 0 45 0 Z" stroke="none" fill="#62797e"/>
                    </g>
                  </g>
                </g>
              </g>
            </g>
          </g>
        </g>
      </g>
      <g id="active_3201229" transform="translate(215.193 1976.966)">
        <g id="Group_1203802" data-name="Group 1203802" transform="translate(1.904 1.904)">
          <g id="Group_1203787" data-name="Group 1203787" transform="translate(27.129 41.553)">
            <path id="Path_1044847" data-name="Path 1044847" d="M41.947,49.8a12.117,12.117,0,0,1,5.426,5.426l4.042-7.28.515.19a10.851,10.851,0,0,1,7.2,10.219v2.3H32V53.421a6.2,6.2,0,0,0,1.709-3.256l2.812,5.064A12.117,12.117,0,0,1,41.947,49.8Z" transform="translate(-32 -47.95)" fill="#b4dd7f"/>
          </g>
          <g id="Group_1203788" data-name="Group 1203788" transform="translate(37.077 39.871)">
            <path id="Path_1044848" data-name="Path 1044848" d="M52.468,47.772l-4.042,7.28A12.117,12.117,0,0,0,43,49.626l6.185-3.536a5.222,5.222,0,0,0,1.935,1.2Z" transform="translate(-43 -46.09)" fill="#a0d468"/>
          </g>
          <g id="Group_1203789" data-name="Group 1203789" transform="translate(28.838 39.871)">
            <path id="Path_1044849" data-name="Path 1044849" d="M42.128,49.626A12.117,12.117,0,0,0,36.7,55.052L33.89,49.988a6.441,6.441,0,0,0,.1-1.112V47.3l.018-.009a5.222,5.222,0,0,0,1.935-1.2Z" transform="translate(-33.89 -46.09)" fill="#a0d468"/>
          </g>
          <g id="Group_1203790" data-name="Group 1203790" transform="translate(19.895 47.024)">
            <path id="Path_1044850" data-name="Path 1044850" d="M31.234,54v7.234H24l1.248-5L25.809,54Z" transform="translate(-24 -54)" fill="#ff826e"/>
          </g>
          <g id="Group_1203791" data-name="Group 1203791" transform="translate(1.809 37.981)">
            <path id="Path_1044851" data-name="Path 1044851" d="M13.947,60.278H4v-6.14A12.187,12.187,0,0,1,9.426,44a15.329,15.329,0,0,1,7.94,2.794c.307.217.6.443.886.678a15.375,15.375,0,0,1,5.082,7.8l-1.248,5Z" transform="translate(-4 -44)" fill="#ff826e"/>
          </g>
          <g id="Group_1203792" data-name="Group 1203792" transform="translate(0 3.617)">
            <path id="Path_1044852" data-name="Path 1044852" d="M24.345,16.788l-.642.968-.081.009a5.424,5.424,0,0,0-5.344-4.531H13.756a4.523,4.523,0,0,0-4.522,4.522v4.522H8.158a2.582,2.582,0,0,0-1.8.742,2.826,2.826,0,0,0-.434.588L3.573,21.726l-1.23-.986A.9.9,0,0,1,2,20.035V18.66A12.663,12.663,0,0,1,14.66,6h3.907a6.947,6.947,0,0,1,6.945,6.945c0,.154-.009.3-.018.443a7.315,7.315,0,0,1-1.148,3.4Z" transform="translate(-2 -6)" fill="#656d78"/>
          </g>
          <g id="Group_1203793" data-name="Group 1203793" transform="translate(0 19.343)">
            <path id="Path_1044853" data-name="Path 1044853" d="M9.234,29.367v5.426L7.8,33.355A18.96,18.96,0,0,0,2.859,29.8L2.5,29.621a.907.907,0,0,1-.5-.814A10.083,10.083,0,0,1,3.573,23.39l2.351,1.881a2.627,2.627,0,0,0-.307,1.221,2.524,2.524,0,0,0,1.917,2.451Z" transform="translate(-2 -23.39)" fill="#656d78"/>
          </g>
          <g id="Group_1203794" data-name="Group 1203794" transform="translate(23.512)">
            <path id="Path_1044854" data-name="Path 1044854" d="M49.7,15.565H37.947l-.931-1.4a2.947,2.947,0,0,0-5.4,1.637v2.478a3.62,3.62,0,0,0-2.288.814L28.1,14.154a3.458,3.458,0,0,1-.1-.814c0-.109.009-.226.018-.335a3.338,3.338,0,0,1,.968-2.044l6.041-6.041A3.778,3.778,0,0,1,37.7,3.809a3.656,3.656,0,0,1,1.772.443V4.243l1.384-1.031a6.04,6.04,0,0,1,7.9.561l7.189,7.189a3.353,3.353,0,0,1,.986,2.378,3.458,3.458,0,0,1-.1.814l-1.23,4.938a3.62,3.62,0,0,0-2.288-.814v-.154a6.169,6.169,0,0,0-.552-2.559H49.7Z" transform="translate(-28 -2)" fill="#fcd770"/>
          </g>
          <g id="Group_1203795" data-name="Group 1203795" transform="translate(30.891 33.604)">
            <path id="Path_1044855" data-name="Path 1044855" d="M37.824,39.16a8.936,8.936,0,0,0,3.617.76h3.617a9.087,9.087,0,0,0,1.809-.181V41.52a5.4,5.4,0,0,0,1.664,3.907l-6.185,3.536L36.16,45.427a5.4,5.4,0,0,0,1.664-3.907V39.169Z" transform="translate(-36.16 -39.16)" fill="#f0d0b4"/>
          </g>
          <g id="Group_1203796" data-name="Group 1203796" transform="translate(48.833 16.278)">
            <path id="Path_1044856" data-name="Path 1044856" d="M58.288,20.814A3.617,3.617,0,0,1,56,27.234V20A3.62,3.62,0,0,1,58.288,20.814Z" transform="translate(-56 -20)" fill="#f0d0b4"/>
          </g>
          <g id="Group_1203797" data-name="Group 1203797" transform="translate(23.512 16.278)">
            <path id="Path_1044857" data-name="Path 1044857" d="M31.617,20v7.234a3.617,3.617,0,1,1,0-7.234Z" transform="translate(-28 -20)" fill="#f0d0b4"/>
          </g>
          <g id="Group_1203798" data-name="Group 1203798" transform="translate(27.129 10.852)">
            <path id="Path_1044858" data-name="Path 1044858" d="M53.7,26.66v1.809a9.033,9.033,0,0,1-9.043,9.043H41.043a8.936,8.936,0,0,1-3.617-.76A9.035,9.035,0,0,1,32,28.469V16.948a2.947,2.947,0,0,1,5.4-1.637l.931,1.4H53.152a6.169,6.169,0,0,1,.552,2.559V26.66Z" transform="translate(-32 -14)" fill="#f0d0b4"/>
          </g>
          <g id="Group_1203799" data-name="Group 1203799" transform="translate(19.895 34.364)">
            <path id="Path_1044859" data-name="Path 1044859" d="M27.617,45.426V42.713a2.713,2.713,0,1,1,5.426,0v5.58a6.441,6.441,0,0,1-.1,1.112,6.2,6.2,0,0,1-1.709,3.256H25.809A6.181,6.181,0,0,1,24,48.293V45.426a1.822,1.822,0,0,1,1.809-1.809A1.814,1.814,0,0,1,27.617,45.426Z" transform="translate(-24 -40)" fill="#f0d0b4"/>
          </g>
          <g id="Group_1203800" data-name="Group 1203800" transform="translate(3.617 10.852)">
            <path id="Path_1044860" data-name="Path 1044860" d="M16.852,37.512a29.326,29.326,0,0,0,.705,6.412,15.329,15.329,0,0,0-7.94-2.794V28.469l-1.7-.425A2.524,2.524,0,0,1,6,25.593a2.627,2.627,0,0,1,.307-1.221,2.826,2.826,0,0,1,.434-.588,2.582,2.582,0,0,1,1.8-.742H9.617V18.522A4.523,4.523,0,0,1,14.139,14H18.66A5.424,5.424,0,0,1,24,18.531a4.848,4.848,0,0,1,.081.9V20.2a9.4,9.4,0,0,0,1.573,5.2A1.388,1.388,0,0,1,24.5,27.565h-.416v.9a.907.907,0,0,1-.9.9H19.709a1.049,1.049,0,0,0-.335,2.044l4.1,1.366a.917.917,0,0,1,.615.859V34.8a2.709,2.709,0,0,1-2.713,2.713Z" transform="translate(-6 -14)" fill="#f0d0b4"/>
          </g>
          <g id="Group_1203801" data-name="Group 1203801" transform="translate(37.981 27.129)">
            <path id="Path_1044861" data-name="Path 1044861" d="M46.695,32.443a1.677,1.677,0,0,1-.751,3.174h-.136A1.814,1.814,0,0,1,44,33.809L45.809,32Z" transform="translate(-44 -32)" fill="#ff826e"/>
          </g>
        </g>
        <g id="Group_1203803" data-name="Group 1203803" transform="translate(1 1)">
          <path id="Path_1044862" data-name="Path 1044862" d="M42.059,28.2A8.611,8.611,0,0,0,42.68,25H40.872a6.793,6.793,0,0,1-.714,3.022l-.5,1,2.618,1.309.809-1.618Z" transform="translate(-4.699 -3.297)"/>
          <path id="Path_1044863" data-name="Path 1044863" d="M47,31.515l-1.465-.732L43,33.318v.374a2.716,2.716,0,0,0,2.713,2.713h.132A2.581,2.581,0,0,0,47,31.515ZM45.845,34.6h-.132a.908.908,0,0,1-.847-.587l1.025-1.025.3.149a.772.772,0,0,1-.345,1.463Z" transform="translate(-5.019 -3.85)"/>
          <path id="Path_1044864" data-name="Path 1044864" d="M44.277,16.5l.287.382L46.011,15.8l-.287-.382a18.132,18.132,0,0,0-6.363-5.31l-.809,1.618A16.307,16.307,0,0,1,44.277,16.5Z" transform="translate(-4.593 -1.871)"/>
          <path id="Path_1044865" data-name="Path 1044865" d="M49.892,15.88l.757,1.009L52.1,15.8l-.757-1.009a19.873,19.873,0,0,0-4.89-4.626l-1,1.5a18.109,18.109,0,0,1,4.446,4.207Z" transform="translate(-5.253 -1.877)"/>
          <path id="Path_1044866" data-name="Path 1044866" d="M49.266,42.792l-1.857-.663a4.532,4.532,0,0,1-3-4.259V36.786a9.958,9.958,0,0,0,7.234-9.562v-1a4.506,4.506,0,0,0,2.382-7.517l1.107-4.43a4.263,4.263,0,0,0-1.122-4.055l-7.19-7.19A6.908,6.908,0,0,0,41.9,1a6.991,6.991,0,0,0-4.172,1.391l-.969.726a4.631,4.631,0,0,0-4.954,1.065l-5.87,5.87a7.856,7.856,0,0,0-7.462-5.435h-3.91A13.58,13.58,0,0,0,1,18.182v1.375a1.8,1.8,0,0,0,.679,1.413l.626.5a10.982,10.982,0,0,0-1.3,5.2,1.8,1.8,0,0,0,1,1.618l.361.181a18.056,18.056,0,0,1,4.7,3.388l1.174,1.172v6.413A13.046,13.046,0,0,0,2.809,50.023v7.044H57.067v-3.2A11.782,11.782,0,0,0,49.266,42.792ZM46.8,43.831l.343.122L44.388,48.91a13.168,13.168,0,0,0-3.6-3.589l4.276-2.443a6.238,6.238,0,0,0,1.736.953Zm-22.486,6h3.815v5.426H22.958Zm4.328-1.809H24a5.23,5.23,0,0,1-1.3-3.462V41.694a.9.9,0,1,1,1.809,0v2.713h1.809V38.981a1.809,1.809,0,0,1,3.617,0v5.581A5.23,5.23,0,0,1,28.642,48.024Zm-.513-12.66a3.621,3.621,0,0,0-3.617,3.617v.155a2.714,2.714,0,0,0-3.617,2.558v2.868c0,.172.013.342.025.511a16.358,16.358,0,0,0-3.015-2.9,28.59,28.59,0,0,1-.6-5h3.592a3.621,3.621,0,0,0,3.617-3.617V32.4a1.8,1.8,0,0,0-1.236-1.715L19.187,29.32a.147.147,0,0,1,.045-.287H22.7a1.81,1.81,0,0,0,1.809-1.809v-.052a2.3,2.3,0,0,0,1.767-1.815,4.489,4.489,0,0,0,1.85.871v1a9.952,9.952,0,0,0,5.426,8.85v1.8a4.52,4.52,0,0,1-1.809,3.608v-2.5a3.621,3.621,0,0,0-3.617-3.617ZM7.654,25.922a1.62,1.62,0,0,1-1.228-1.573A1.643,1.643,0,0,1,8.064,22.7h1.98V17.278A3.621,3.621,0,0,1,13.66,13.66h4.522A4.527,4.527,0,0,1,22.7,18.182v.777a10.256,10.256,0,0,0,1.727,5.705.484.484,0,0,1-.4.752H22.7v1.809H19.233a1.955,1.955,0,0,0-.618,3.81L22.7,32.4v1.157a1.81,1.81,0,0,1-1.809,1.809H11.852v1.809h3.643a30.291,30.291,0,0,0,.335,3.694,16.3,16.3,0,0,0-5.786-1.8V26.519ZM25,16.815c.071-.106.122-.222.187-.331l.557,2.229A4.5,4.5,0,0,0,24.693,20.6a8.469,8.469,0,0,1-.181-1.645v-.777c0-.2-.012-.392-.03-.586Zm3.126,7.531a2.7,2.7,0,0,1,0-5.093Zm3.617,20.217v-.993a6.3,6.3,0,0,0,1.154-.692l4.276,2.443a13.156,13.156,0,0,0-3.6,3.589l-1.9-3.414a7.268,7.268,0,0,0,.068-.934Zm12.025-3.03-4.79,2.737-4.79-2.737a6.321,6.321,0,0,0,1.173-3.662V36.786a9.882,9.882,0,0,0,2.713.386h3.617c.306,0,.606-.019.9-.046v.743A6.321,6.321,0,0,0,43.771,41.532Zm7.87-17.186V19.253a2.7,2.7,0,0,1,0,5.092ZM33.086,5.461a2.955,2.955,0,0,1,3.634-.36l1.76,1.173,1-1.5L38.471,4.1l.344-.258A5.173,5.173,0,0,1,41.9,2.809a5.11,5.11,0,0,1,3.637,1.507l7.19,7.19a2.443,2.443,0,0,1,.722,1.741,2.414,2.414,0,0,1-.074.6l-.943,3.772a4.458,4.458,0,0,0-.825-.249,7.029,7.029,0,0,0-2.041-4.345L48.288,14.3a5.232,5.232,0,0,1,1.545,3.728v9.2a8.148,8.148,0,0,1-8.139,8.139H38.077a8.148,8.148,0,0,1-8.139-8.139V15.7a2.041,2.041,0,0,1,3.739-1.132l.934,1.4,1.5-1-.934-1.4A3.849,3.849,0,0,0,28.129,15.7v1.668a4.5,4.5,0,0,0-.792.245l-.943-3.773a2.461,2.461,0,0,1,.647-2.336ZM2.809,18.182A11.77,11.77,0,0,1,14.565,6.426h3.91A6.014,6.014,0,0,1,23.8,15.277a6.332,6.332,0,0,0-5.618-3.426H13.66a5.431,5.431,0,0,0-5.426,5.426v3.617H8.064a3.423,3.423,0,0,0-2.377.964l-2.878-2.3Zm.361,8.665-.361-.181a9.167,9.167,0,0,1,.95-4.034l1,.8a3.376,3.376,0,0,0,2.46,4.246l1.018.255v2.546a19.8,19.8,0,0,0-5.065-3.63ZM4.617,50.023A11.256,11.256,0,0,1,9.389,40.81,14.529,14.529,0,0,1,22.11,51.191l-1.017,4.068H14.47L14.1,51.943a8.307,8.307,0,0,0-4.558-6.537l-.809,1.618A6.5,6.5,0,0,1,12.3,52.142l.346,3.116H4.617Zm50.641,5.235H29.938V49.276a7.079,7.079,0,0,0,.99-1.405l2.669,4.8.767-1.533a11.3,11.3,0,0,1,4.616-4.8,11.291,11.291,0,0,1,4.616,4.8l.767,1.533,4.5-8.1a9.968,9.968,0,0,1,6.4,9.286Z" transform="translate(-1 -1)"/>
        </g>
      </g>
    </g>
  </g>
</svg>
