<svg xmlns="http://www.w3.org/2000/svg" xmlns:xlink="http://www.w3.org/1999/xlink" width="113" height="113" viewBox="0 0 113 113">
  <defs>
    <filter id="Path_982547" x="0" y="0" width="113" height="113" filterUnits="userSpaceOnUse">
      <feOffset dy="3" input="SourceAlpha"/>
      <feGaussianBlur stdDeviation="3" result="blur"/>
      <feFlood flood-opacity="0.161"/>
      <feComposite operator="in" in2="blur"/>
      <feComposite in="SourceGraphic"/>
    </filter>
  </defs>
  <g id="Group_1203567" data-name="Group 1203567" transform="translate(-324.648 -4568.692)">
    <g id="Group_1203467" data-name="Group 1203467">
      <g id="Group_1202847" data-name="Group 1202847" transform="translate(333.648 4574.692)">
        <g id="Group_1172010" data-name="Group 1172010">
          <g id="Group_1171046" data-name="Group 1171046">
            <g id="Group_1148525" data-name="Group 1148525">
              <g transform="matrix(1, 0, 0, 1, -9, -6)" filter="url(#Path_982547)">
                <g id="Path_982547-2" data-name="Path 982547" transform="translate(9 6)" fill="#f4f4fd">
                  <path d="M 47.5 93.5 C 41.28937149047852 93.5 35.26533508300781 92.28397369384766 29.59518623352051 89.88570404052734 C 24.11771965026855 87.56893157958984 19.19813346862793 84.25196075439453 14.97309303283691 80.02691650390625 C 10.74804019927979 75.80186462402344 7.431066513061523 70.88229370117188 5.114293098449707 65.40481567382812 C 2.716026782989502 59.73468017578125 1.5 53.71062850952148 1.5 47.5 C 1.5 41.28937149047852 2.716026782989502 35.26533508300781 5.114293098449707 29.59518623352051 C 7.431066513061523 24.11771965026855 10.74804019927979 19.19813346862793 14.97309303283691 14.97309303283691 C 19.19813346862793 10.74804019927979 24.11771965026855 7.431066513061523 29.59518623352051 5.114293098449707 C 35.26533508300781 2.716026782989502 41.28937149047852 1.5 47.5 1.5 C 53.71062850952148 1.5 59.73468017578125 2.716026782989502 65.40481567382812 5.114293098449707 C 70.88229370117188 7.431066513061523 75.80186462402344 10.74804019927979 80.02691650390625 14.97309303283691 C 84.25196075439453 19.19813346862793 87.56893157958984 24.11771965026855 89.88570404052734 29.59518623352051 C 92.28397369384766 35.26533508300781 93.5 41.28937149047852 93.5 47.5 C 93.5 53.71062850952148 92.28397369384766 59.73468017578125 89.88570404052734 65.40481567382812 C 87.56893157958984 70.88229370117188 84.25196075439453 75.80186462402344 80.02691650390625 80.02691650390625 C 75.80186462402344 84.25196075439453 70.88229370117188 87.56893157958984 65.40481567382812 89.88570404052734 C 59.73468017578125 92.28397369384766 53.71062850952148 93.5 47.5 93.5 Z" stroke="none"/>
                  <path d="M 47.5 3 C 41.49121475219727 3 35.66376876831055 4.176155090332031 30.17950439453125 6.495796203613281 C 24.88084411621094 8.736953735351562 20.12152099609375 11.94598388671875 16.03375244140625 16.03375244140625 C 11.94598388671875 20.12152099609375 8.736953735351562 24.88084411621094 6.495796203613281 30.17950439453125 C 4.176155090332031 35.66376876831055 3 41.49121475219727 3 47.5 C 3 53.50878524780273 4.176155090332031 59.33623123168945 6.495796203613281 64.82049560546875 C 8.736953735351562 70.11915588378906 11.94598388671875 74.87847900390625 16.03375244140625 78.96624755859375 C 20.12152099609375 83.05401611328125 24.88084411621094 86.26304626464844 30.17950439453125 88.50419616699219 C 35.66376876831055 90.82384490966797 41.49121475219727 92 47.5 92 C 53.50878524780273 92 59.33623123168945 90.82384490966797 64.82049560546875 88.50419616699219 C 70.11915588378906 86.26304626464844 74.87847900390625 83.05401611328125 78.96624755859375 78.96624755859375 C 83.05401611328125 74.87847900390625 86.26304626464844 70.11915588378906 88.50419616699219 64.82049560546875 C 90.82384490966797 59.33623123168945 92 53.50878524780273 92 47.5 C 92 41.49121475219727 90.82384490966797 35.66376876831055 88.50419616699219 30.17950439453125 C 86.26304626464844 24.88084411621094 83.05401611328125 20.12152099609375 78.96624755859375 16.03375244140625 C 74.87847900390625 11.94598388671875 70.11915588378906 8.736953735351562 64.82049560546875 6.495796203613281 C 59.33623123168945 4.176155090332031 53.50878524780273 3 47.5 3 M 47.5 0 C 73.7335205078125 0 95 21.2664794921875 95 47.5 C 95 73.7335205078125 73.7335205078125 95 47.5 95 C 21.2664794921875 95 0 73.7335205078125 0 47.5 C 0 21.2664794921875 21.2664794921875 0 47.5 0 Z" stroke="none" fill="#6f6e88"/>
                </g>
              </g>
            </g>
          </g>
        </g>
      </g>
      <g id="_15-student" data-name="15-student" transform="translate(351.691 4588)">
        <path id="Path_1043976" data-name="Path 1043976" d="M22,45l-3,4-3-4L9.808,47.752A12.9,12.9,0,0,0,2.028,58.54Q2,58.969,2,59.4V63H36V59.4q0-.434-.028-.863a12.9,12.9,0,0,0-7.78-10.788Z" fill="#b86e27"/>
        <path id="Path_1043977" data-name="Path 1043977" d="M14,46l1,5,4-2-3-4Z" fill="#5c3714"/>
        <path id="Path_1043978" data-name="Path 1043978" d="M24,46l-1,5-4-2,3-4Z" fill="#5c3714"/>
        <path id="Path_1043979" data-name="Path 1043979" d="M42,9l-6,1,3-8L34.128,3.772a20.118,20.118,0,0,1-12.4.437h0A19.621,19.621,0,0,0,6.942,5.85l-.763.416a3.753,3.753,0,0,0-1.56,4.972h0a1.412,1.412,0,0,1-.114,1.455L3.116,14.637a6.329,6.329,0,0,0,.675,8.154l1.655,1.655A2.965,2.965,0,0,1,7,24a7.386,7.386,0,0,1,4.642-6.857,10.267,10.267,0,0,1,9.974,1.319l.646.484A10.268,10.268,0,0,0,28.423,21,2.577,2.577,0,0,1,31,23.577V24a2.978,2.978,0,0,1,2.221,1H34l3.64-4.3a4.4,4.4,0,0,0,.832-3.814,4.4,4.4,0,0,1,.607-3.506Z" fill="#4e4b49"/>
        <path id="Path_1043980" data-name="Path 1043980" d="M22,40.58V45l-3,4-3-4V40.58a10.924,10.924,0,0,0,6,0Z" fill="#f2bfb6"/>
        <path id="Path_1043981" data-name="Path 1043981" d="M22,40.58v1.74a6.958,6.958,0,0,1-6,0V40.58a10.924,10.924,0,0,0,6,0Z" fill="#e29f96"/>
        <path id="Path_1043982" data-name="Path 1043982" d="M31,23.577V24h0a3,3,0,0,1,3,3h0a3,3,0,0,1-3,3H30A11,11,0,0,1,19,41h0A11,11,0,0,1,8,30H7a3,3,0,0,1-3-3H4a3,3,0,0,1,3-3H7a7.386,7.386,0,0,1,4.642-6.857h0a10.267,10.267,0,0,1,9.974,1.319l.646.484A10.268,10.268,0,0,0,28.423,21h0A2.577,2.577,0,0,1,31,23.577Z" fill="#fbcbc1"/>
        <path id="Path_1043983" data-name="Path 1043983" d="M47,35H45a6,6,0,0,0-6,6h0a8,8,0,0,0-8,8h0a8,8,0,0,0,8,8h0a6,6,0,0,0,6,6h2Z" fill="#905b93"/>
        <path id="Path_1043984" data-name="Path 1043984" d="M47,63h2a6,6,0,0,0,6-6h0a8,8,0,0,0,8-8h0a8,8,0,0,0-8-8h0a6,6,0,0,0-6-6H47Z" fill="#a16ba9"/>
        <circle id="Ellipse_12613" data-name="Ellipse 12613" cx="1.005" cy="1.005" r="1.005" transform="translate(17.99 51.99)"/>
        <circle id="Ellipse_12614" data-name="Ellipse 12614" cx="1.005" cy="1.005" r="1.005" transform="translate(17.99 55.99)"/>
        <path id="Path_1043985" data-name="Path 1043985" d="M36,58.4a1,1,0,0,0-1,1V62H3V59.4q0-.4.026-.8a11.828,11.828,0,0,1,7.188-9.938l3.03-1.347L14.02,51.2a1,1,0,0,0,1.427.7L19,50.118,22.553,51.9a1,1,0,0,0,1.427-.7l.776-3.877,3.03,1.347a1,1,0,1,0,.813-1.828L23,44.35V41.3A12.018,12.018,0,0,0,30.958,31H31a4,4,0,0,0,3.763-5.354h0l3.658-4.321a5.429,5.429,0,0,0,1.021-4.68,3.4,3.4,0,0,1,.469-2.709l2.921-4.381a1,1,0,0,0-1-1.541l-4.29.715,2.392-6.378A1,1,0,0,0,38.658,1.06L33.786,2.832A18.994,18.994,0,0,1,22,3.247,20.514,20.514,0,0,0,6.463,4.972L5.7,5.388a4.736,4.736,0,0,0-1.975,6.3.414.414,0,0,1-.034.426L2.3,14.056A7.3,7.3,0,0,0,3.084,23.5l.9.9A3.987,3.987,0,0,0,7,31h.042A12.018,12.018,0,0,0,15,41.3v3.05L9.4,46.838A13.822,13.822,0,0,0,1.03,58.476c-.02.307-.03.617-.03.927V63a1,1,0,0,0,1,1H36a1,1,0,0,0,1-1V59.4A1,1,0,0,0,36,58.4ZM15.724,49.521l-.607-3.034.561-.25,1.8,2.4ZM17,44.667V41.823a11.388,11.388,0,0,0,4,0v2.844l-2,2.666Zm5.276,4.854-1.757-.88,1.8-2.4.561.25ZM3.93,15.219l1.388-1.945a2.407,2.407,0,0,0,.2-2.483A2.742,2.742,0,0,1,6.657,7.144l.764-.416A18.52,18.52,0,0,1,21.456,5.17,20.985,20.985,0,0,0,34.47,4.711L37.3,3.682,35.063,9.649a1,1,0,0,0,1.1,1.337l3.723-.62-1.641,2.461a5.41,5.41,0,0,0-.746,4.3,3.4,3.4,0,0,1-.625,2.925l-3.3,3.9a4,4,0,0,0-1.6-.835A3.583,3.583,0,0,0,28.422,20a9.32,9.32,0,0,1-5.56-1.854l-.646-.483a11.33,11.33,0,0,0-10.945-1.449,8.341,8.341,0,0,0-5.225,6.9c-.134.033-.259.085-.387.13L4.5,22.084a5.312,5.312,0,0,1-.57-6.865ZM9,30a1,1,0,0,0-1-1H7a2,2,0,0,1,0-4,1,1,0,0,0,1-1,6.357,6.357,0,0,1,4.014-5.929,9.323,9.323,0,0,1,9,1.192l.645.483A11.332,11.332,0,0,0,28.422,22,1.58,1.58,0,0,1,30,23.578V24a1,1,0,0,0,1,1,2,2,0,0,1,0,4H30a1,1,0,0,0-1,1A10,10,0,0,1,9,30Z"/>
        <path id="Path_1043986" data-name="Path 1043986" d="M15,24a1,1,0,0,0-1,1v1a1,1,0,0,0,2,0V25A1,1,0,0,0,15,24Z"/>
        <path id="Path_1043987" data-name="Path 1043987" d="M23,27a1,1,0,0,0,1-1V25a1,1,0,0,0-2,0v1A1,1,0,0,0,23,27Z"/>
        <path id="Path_1043988" data-name="Path 1043988" d="M55.936,40.048A7.011,7.011,0,0,0,49,34H45a7.011,7.011,0,0,0-6.936,6.048,9,9,0,0,0,0,17.9A7.011,7.011,0,0,0,45,64h4a7.011,7.011,0,0,0,6.936-6.048,9,9,0,0,0,0-17.9ZM46,53H45a1,1,0,0,0-.9.553l-.85,1.7-1.7.85a1,1,0,1,0,.894,1.79l2-1a1,1,0,0,0,.448-.448L45.618,55H46v7H45a5.006,5.006,0,0,1-5-5,1,1,0,0,0-1-1,7.007,7.007,0,0,1-6.883-5.757l3.687.737a1.011,1.011,0,0,0,.751-.148L39,49.2l2.445,1.63a1,1,0,0,0,1.11-1.664l-3-2a1,1,0,0,0-1.11,0l-2.655,1.77-3.739-.748A7.007,7.007,0,0,1,39,42a1,1,0,0,0,1-1,4.957,4.957,0,0,1,.949-2.907l.828.414-.726,2.177a1,1,0,0,0,.242,1.023l2,2a1,1,0,1,0,1.414-1.414l-1.563-1.564.8-2.413a1,1,0,0,0-.5-1.211l-.886-.443A4.942,4.942,0,0,1,45,36h1Zm9,3a1,1,0,0,0-1,1,4.957,4.957,0,0,1-.949,2.907l-.709-.354.553-1.106a1,1,0,0,0-.063-1l-2-3a1,1,0,1,0-1.664,1.11l1.678,2.517L50.1,59.555a1,1,0,0,0,.448,1.342l.886.443A4.942,4.942,0,0,1,49,62H48V40.618l.553.277A1,1,0,0,0,49,41h1.382l.723,1.447a1,1,0,1,0,1.79-.894l-1-2A1,1,0,0,0,51,39H49.236L48,38.382V36h1a5.006,5.006,0,0,1,5,5,1,1,0,0,0,1,1,6.95,6.95,0,0,1,3.322.841l-3.837,2.3a1,1,0,0,0-.38,1.3L55.59,49.41l-1.906.636a1,1,0,1,0,.632,1.9l3-1a1,1,0,0,0,.579-1.4l-1.586-3.172,3.724-2.234A6.991,6.991,0,0,1,55,56Z"/>
      </g>
    </g>
  </g>
</svg>
