<svg xmlns="http://www.w3.org/2000/svg" xmlns:xlink="http://www.w3.org/1999/xlink" width="118" height="118" viewBox="0 0 118 118">
  <defs>
    <filter id="Path_982547" x="0" y="0" width="118" height="118" filterUnits="userSpaceOnUse">
      <feOffset dy="3" input="SourceAlpha"/>
      <feGaussianBlur stdDeviation="3" result="blur"/>
      <feFlood flood-opacity="0.161"/>
      <feComposite operator="in" in2="blur"/>
      <feComposite in="SourceGraphic"/>
    </filter>
  </defs>
  <g id="Group_1203508" data-name="Group 1203508" transform="translate(-834.5 -2872.395)">
    <g id="Group_1202912" data-name="Group 1202912">
      <g id="Group_1178322" data-name="Group 1178322" transform="translate(630 -2039.15)">
        <g id="Group_1173988" data-name="Group 1173988" transform="translate(213.5 4917.545)">
          <g id="Group_1172010" data-name="Group 1172010">
            <g id="Group_1171046" data-name="Group 1171046">
              <g id="Group_1148525" data-name="Group 1148525">
                <g transform="matrix(1, 0, 0, 1, -9, -6)" filter="url(#Path_982547)">
                  <g id="Path_982547-2" data-name="Path 982547" transform="translate(9 6)" fill="#e8f5f7">
                    <path d="M 50 98.5 C 43.45188522338867 98.5 37.10042953491211 97.21787261962891 31.12207221984863 94.68923950195312 C 25.34691429138184 92.24655914306641 20.15997123718262 88.74931335449219 15.70532894134521 84.29468536376953 C 11.2506856918335 79.84004211425781 7.753442764282227 74.65309906005859 5.310757160186768 68.8779296875 C 2.782128572463989 62.89957046508789 1.5 56.54811477661133 1.5 50 C 1.5 43.45188522338867 2.782128572463989 37.10042953491211 5.310757160186768 31.12207221984863 C 7.753442764282227 25.34691429138184 11.2506856918335 20.15997123718262 15.70532894134521 15.70532894134521 C 20.15997123718262 11.2506856918335 25.34691429138184 7.753442764282227 31.12207221984863 5.310757160186768 C 37.10042953491211 2.782128572463989 43.45188522338867 1.5 50 1.5 C 56.54811477661133 1.5 62.89957046508789 2.782128572463989 68.8779296875 5.310757160186768 C 74.65309906005859 7.753442764282227 79.84004211425781 11.2506856918335 84.29468536376953 15.70532894134521 C 88.74931335449219 20.15997123718262 92.24655914306641 25.34691429138184 94.68923950195312 31.12207221984863 C 97.21787261962891 37.10042953491211 98.5 43.45188522338867 98.5 50 C 98.5 56.54811477661133 97.21787261962891 62.89957046508789 94.68923950195312 68.8779296875 C 92.24655914306641 74.65309906005859 88.74931335449219 79.84004211425781 84.29468536376953 84.29468536376953 C 79.84004211425781 88.74931335449219 74.65309906005859 92.24655914306641 68.8779296875 94.68923950195312 C 62.89957046508789 97.21787261962891 56.54811477661133 98.5 50 98.5 Z" stroke="none"/>
                    <path d="M 50 3 C 43.65372467041016 3 37.49886322021484 4.242263793945312 31.70639801025391 6.6922607421875 C 26.11003112792969 9.059326171875 21.08335113525391 12.44861602783203 16.76598358154297 16.76598358154297 C 12.44861602783203 21.08335113525391 9.059326171875 26.11003112792969 6.6922607421875 31.70639801025391 C 4.242263793945312 37.49886322021484 3 43.65372467041016 3 50 C 3 56.34627532958984 4.242263793945312 62.50113677978516 6.6922607421875 68.29360198974609 C 9.059326171875 73.88996887207031 12.44861602783203 78.91666412353516 16.76598358154297 83.23401641845703 C 21.08335113525391 87.55138397216797 26.11003112792969 90.940673828125 31.70639801025391 93.3077392578125 C 37.49886322021484 95.75773620605469 43.65372467041016 97 50 97 C 56.34627532958984 97 62.50113677978516 95.75773620605469 68.29360198974609 93.3077392578125 C 73.88996887207031 90.940673828125 78.91666412353516 87.55138397216797 83.23401641845703 83.23401641845703 C 87.55138397216797 78.91666412353516 90.940673828125 73.88996887207031 93.3077392578125 68.29360198974609 C 95.75773620605469 62.50113677978516 97 56.34627532958984 97 50 C 97 43.65372467041016 95.75773620605469 37.49886322021484 93.3077392578125 31.70639801025391 C 90.940673828125 26.11003112792969 87.55138397216797 21.08335113525391 83.23401641845703 16.76598358154297 C 78.91666412353516 12.44861602783203 73.88996887207031 9.059326171875 68.29360198974609 6.6922607421875 C 62.50113677978516 4.242263793945312 56.34627532958984 3 50 3 M 50 0 C 77.61424255371094 0 100 22.38577270507812 100 50 C 100 77.61424255371094 77.61424255371094 100 50 100 C 22.38577270507812 100 0 77.61424255371094 0 50 C 0 22.38577270507812 22.38577270507812 0 50 0 Z" stroke="none" fill="#62797e"/>
                  </g>
                </g>
              </g>
            </g>
          </g>
        </g>
      </g>
      <g id="happy_14698584" transform="translate(822.382 2884.429)">
        <g id="Group_1202910" data-name="Group 1202910" transform="translate(39.322 7.5)">
          <g id="Group_1202906" data-name="Group 1202906" transform="translate(0)">
            <g id="Group_1202903" data-name="Group 1202903">
              <ellipse id="Ellipse_12570" data-name="Ellipse 12570" cx="6.209" cy="5.49" rx="6.209" ry="5.49" transform="translate(51.174 24.894)" fill="#ffcbbe"/>
              <ellipse id="Ellipse_12571" data-name="Ellipse 12571" cx="6.209" cy="5.49" rx="6.209" ry="5.49" transform="translate(0 24.894)" fill="#ffcbbe"/>
              <path id="Path_1042588" data-name="Path 1042588" d="M135.926,359.262H126.72A21.1,21.1,0,0,0,115.5,372.81a6.123,6.123,0,0,0,5.9,7.765h10.8l3.718-3.718Z" transform="translate(-104.13 -307.643)" fill="#36d49b"/>
              <path id="Path_1042589" data-name="Path 1042589" d="M255.974,376.856l3.718,3.718H270.5a6.123,6.123,0,0,0,5.9-7.765,21.1,21.1,0,0,0-11.216-13.548h-9.206Z" transform="translate(-224.182 -307.642)" fill="#80e0b7"/>
              <path id="Path_1042590" data-name="Path 1042590" d="M201.644,89.172c0,10.059-7.391,18.591-17.633,21.582-13.891-2.149-21.833-11.522-21.833-21.582s6.51-19.127,21.833-21.582C194.253,70.581,201.644,79.112,201.644,89.172Z" transform="translate(-144.151 -58.772)" fill="#ffddcf"/>
              <path id="Path_1042591" data-name="Path 1042591" d="M114.643,104.115a28.748,28.748,0,0,1-8.065,1.142c-14.192,0-25.7-10.174-25.7-22.723s11.506-22.723,25.7-22.723a28.747,28.747,0,0,1,8.065,1.142C104.4,63.942,97.01,72.474,97.01,82.533S104.4,101.124,114.643,104.115Z" transform="translate(-74.782 -52.134)" fill="#ffcbbe"/>
              <path id="Path_1042592" data-name="Path 1042592" d="M276.618,36.371a21.056,21.056,0,0,1-4.909-.577c-1.646-4.973-6.771-10.57-13.624-11.559a11.082,11.082,0,0,1-1.56,6.41,10.092,10.092,0,0,1-3.811,3.3c-10.042-4.577-10.548-22.7-1.133-23.843C265.8,12.244,276.618,23.191,276.618,36.371Z" transform="translate(-214.681 -9.718)" fill="#e7896e"/>
              <path id="Path_1042593" data-name="Path 1042593" d="M86.979,31.724a20.745,20.745,0,0,1-7.145,2.041,1.124,1.124,0,0,1-1.193-.787,22.725,22.725,0,0,1-.955-5.007,19.165,19.165,0,0,1-7.659.591,1.126,1.126,0,0,1-.988-1.271,20.708,20.708,0,0,1,1.492-5.41c-7.551.374-13.269,6.4-15.025,11.7a18.25,18.25,0,0,1-4.907.571C50.6,19.433,64.095,7.5,80.741,7.5a34.138,34.138,0,0,1,5.105.382C79.814,11.742,79.708,26.314,86.979,31.724Z" transform="translate(-48.945 -7.5)" fill="#dd6642"/>
            </g>
            <g id="Group_1202905" data-name="Group 1202905" transform="translate(16.051 32.046)">
              <g id="Group_1202904" data-name="Group 1202904">
                <ellipse id="Ellipse_12572" data-name="Ellipse 12572" cx="4.244" cy="3.379" rx="4.244" ry="3.379" fill="#ffa1ac"/>
                <ellipse id="Ellipse_12573" data-name="Ellipse 12573" cx="4.244" cy="3.379" rx="4.244" ry="3.379" transform="translate(23.002)" fill="#ffa1ac"/>
              </g>
            </g>
          </g>
          <path id="Path_1042594" data-name="Path 1042594" d="M234.282,348.225c.006,3.777-3.723,8.187-7.653,11.078-9.328-.978-12.322-15.275-7.534-17.1a6.349,6.349,0,0,1,3.484,2.672,6.335,6.335,0,0,1,11.7,3.355Z" transform="translate(-190.792 -292.829)" fill="#ff8a98"/>
          <path id="Path_1042595" data-name="Path 1042595" d="M192,359.4a23.543,23.543,0,0,1-2.7,1.726c-.421.228-.887,1.017-1.349,1.015s-.9-.79-1.311-1.012c-4.725-2.545-10.379-8.127-10.387-12.771a6.34,6.34,0,0,1,8.209-6.062C182.031,346.491,186.076,356.432,192,359.4Z" transform="translate(-156.166 -292.923)" fill="#fd5c6f"/>
          <g id="Group_1202909" data-name="Group 1202909" transform="translate(24.688 65.496)">
            <g id="Group_1202907" data-name="Group 1202907" transform="translate(7.104)">
              <path id="Path_1042596" data-name="Path 1042596" d="M263.078,461.264h-3.386a3.718,3.718,0,1,1,0-7.436h3.386Z" transform="translate(-255.974 -453.828)" fill="#ffddcf"/>
            </g>
            <g id="Group_1202908" data-name="Group 1202908">
              <path id="Path_1042597" data-name="Path 1042597" d="M207.562,461.264h3.386a3.718,3.718,0,1,0,0-7.436h-3.386Z" transform="translate(-207.562 -453.828)" fill="#ffcbbe"/>
            </g>
          </g>
        </g>
        <g id="Group_1202911" data-name="Group 1202911" transform="translate(39.322 7.5)">
          <path id="Path_1042598" data-name="Path 1042598" d="M124.889,365.93A21.3,21.3,0,0,0,115.5,378.5a6.123,6.123,0,0,0,5.9,7.765h10.8a3.718,3.718,0,0,0,3.718-3.718,3.718,3.718,0,0,0,3.718,3.718h10.809a6.123,6.123,0,0,0,5.9-7.765,22.321,22.321,0,0,0-.729-2.173" transform="translate(-104.129 -313.333)" fill="none" stroke="#000" stroke-linecap="round" stroke-linejoin="round" stroke-miterlimit="10" stroke-width="1.5"/>
          <path id="Path_1042599" data-name="Path 1042599" d="M426.038,198.323c3.63.346,6.866-2.23,6.844-5.462a5.144,5.144,0,0,0-1.656-3.732" transform="translate(-369.29 -162.477)" fill="none" stroke="#000" stroke-linecap="round" stroke-linejoin="round" stroke-miterlimit="10" stroke-width="1.5"/>
          <path id="Path_1042600" data-name="Path 1042600" d="M40.978,189.129a5.144,5.144,0,0,0-1.656,3.732c-.022,3.232,3.214,5.808,6.844,5.462" transform="translate(-39.322 -162.476)" fill="none" stroke="#000" stroke-linecap="round" stroke-linejoin="round" stroke-miterlimit="10" stroke-width="1.5"/>
          <path id="Path_1042601" data-name="Path 1042601" d="M325.237,210.309c9.139-3.482,15.537-11.518,15.537-20.876a20.277,20.277,0,0,0-.47-4.338" transform="translate(-283.281 -159.034)" fill="none" stroke="#000" stroke-linecap="round" stroke-linejoin="round" stroke-miterlimit="10" stroke-width="1.5"/>
          <path id="Path_1042602" data-name="Path 1042602" d="M81.352,185.149a20.282,20.282,0,0,0-.468,4.33c0,9.36,6.4,17.4,15.542,20.878" transform="translate(-74.785 -159.08)" fill="none" stroke="#000" stroke-linecap="round" stroke-linejoin="round" stroke-miterlimit="10" stroke-width="1.5"/>
          <path id="Path_1042603" data-name="Path 1042603" d="M184.753,212.1a2.02,2.02,0,1,0-4.04,0" transform="translate(-159.965 -180.357)" fill="none" stroke="#000" stroke-linecap="round" stroke-linejoin="round" stroke-miterlimit="10" stroke-width="1.5"/>
          <path id="Path_1042604" data-name="Path 1042604" d="M303.757,212.1a2.02,2.02,0,1,1,4.04,0" transform="translate(-264.953 -180.357)" fill="none" stroke="#000" stroke-linecap="round" stroke-linejoin="round" stroke-miterlimit="10" stroke-width="1.5"/>
          <path id="Path_1042605" data-name="Path 1042605" d="M241.4,239.939a2.839,2.839,0,0,0,4.285,0" transform="translate(-211.746 -205.83)" fill="none" stroke="#000" stroke-linecap="round" stroke-linejoin="round" stroke-miterlimit="10" stroke-width="1.5"/>
          <path id="Path_1042606" data-name="Path 1042606" d="M193.252,358.321c3.436-2.85,6.409-6.726,6.4-10.1a6.335,6.335,0,0,0-11.7-3.355,6.335,6.335,0,0,0-11.692,3.39c0,3.367,2.979,7.226,6.415,10.064" transform="translate(-156.167 -292.826)" fill="none" stroke="#000" stroke-linecap="round" stroke-linejoin="round" stroke-miterlimit="10" stroke-width="1.5"/>
          <path id="Path_1042607" data-name="Path 1042607" d="M255.974,457.546a3.718,3.718,0,0,1,3.718-3.718h7.282" transform="translate(-224.182 -388.332)" fill="none" stroke="#000" stroke-linecap="round" stroke-linejoin="round" stroke-miterlimit="10" stroke-width="1.5"/>
          <line id="Line_1115" data-name="Line 1115" y2="7.436" transform="translate(38.896 65.496)" fill="none" stroke="#000" stroke-linecap="round" stroke-linejoin="round" stroke-miterlimit="10" stroke-width="1.5"/>
          <path id="Path_1042608" data-name="Path 1042608" d="M192.011,457.546a3.718,3.718,0,0,0-3.718-3.718h-7.282" transform="translate(-160.219 -388.332)" fill="none" stroke="#000" stroke-linecap="round" stroke-linejoin="round" stroke-miterlimit="10" stroke-width="1.5"/>
          <line id="Line_1116" data-name="Line 1116" y2="7.436" transform="translate(24.688 65.496)" fill="none" stroke="#000" stroke-linecap="round" stroke-linejoin="round" stroke-miterlimit="10" stroke-width="1.5"/>
          <path id="Path_1042609" data-name="Path 1042609" d="M337.452,371.8a20.591,20.591,0,0,0-6.233-5.867" transform="translate(-288.385 -313.338)" fill="none" stroke="#000" stroke-linecap="round" stroke-linejoin="round" stroke-miterlimit="10" stroke-width="1.5"/>
          <path id="Path_1042610" data-name="Path 1042610" d="M59.831,14.957a25.2,25.2,0,0,0-9.232,19.2,18.3,18.3,0,0,0,4.908-.57c1.757-5.305,7.474-11.326,15.024-11.7a20.576,20.576,0,0,0-1.6,6.518,19.735,19.735,0,0,0,8.76-.428,22.372,22.372,0,0,0,1.246,5.867s8.507-.318,11.859-5.411a11.083,11.083,0,0,0,1.559-6.411c6.852.99,11.977,6.587,13.624,11.559a21.035,21.035,0,0,0,4.909.577C110.881,19.433,97.387,7.5,80.74,7.5a32.851,32.851,0,0,0-16.725,4.478" transform="translate(-48.944 -7.5)" fill="none" stroke="#000" stroke-linecap="round" stroke-linejoin="round" stroke-miterlimit="10" stroke-width="1.5"/>
        </g>
      </g>
    </g>
  </g>
</svg>
