<svg xmlns="http://www.w3.org/2000/svg" xmlns:xlink="http://www.w3.org/1999/xlink" width="113" height="113" viewBox="0 0 113 113">
  <defs>
    <filter id="Path_982547" x="0" y="0" width="113" height="113" filterUnits="userSpaceOnUse">
      <feOffset dy="3" input="SourceAlpha"/>
      <feGaussianBlur stdDeviation="3" result="blur"/>
      <feFlood flood-opacity="0.161"/>
      <feComposite operator="in" in2="blur"/>
      <feComposite in="SourceGraphic"/>
    </filter>
  </defs>
  <g id="Group_1203541" data-name="Group 1203541" transform="translate(-1216.56 -2138.596)">
    <g id="Group_1203084" data-name="Group 1203084">
      <g id="Group_1202592" data-name="Group 1202592" transform="translate(1225.561 2144.596)">
        <g id="Group_1172010" data-name="Group 1172010" transform="translate(0)">
          <g id="Group_1171046" data-name="Group 1171046">
            <g id="Group_1148525" data-name="Group 1148525">
              <g transform="matrix(1, 0, 0, 1, -9, -6)" filter="url(#Path_982547)">
                <g id="Path_982547-2" data-name="Path 982547" transform="translate(9 6)" fill="#f4f4fd">
                  <path d="M 47.5 93.5 C 41.28937149047852 93.5 35.26533508300781 92.28397369384766 29.59518623352051 89.88570404052734 C 24.11771965026855 87.56893157958984 19.19813346862793 84.25196075439453 14.97309303283691 80.02691650390625 C 10.74804019927979 75.80186462402344 7.431066513061523 70.88229370117188 5.114293098449707 65.40481567382812 C 2.716026782989502 59.73468017578125 1.5 53.71062850952148 1.5 47.5 C 1.5 41.28937149047852 2.716026782989502 35.26533508300781 5.114293098449707 29.59518623352051 C 7.431066513061523 24.11771965026855 10.74804019927979 19.19813346862793 14.97309303283691 14.97309303283691 C 19.19813346862793 10.74804019927979 24.11771965026855 7.431066513061523 29.59518623352051 5.114293098449707 C 35.26533508300781 2.716026782989502 41.28937149047852 1.5 47.5 1.5 C 53.71062850952148 1.5 59.73468017578125 2.716026782989502 65.40481567382812 5.114293098449707 C 70.88229370117188 7.431066513061523 75.80186462402344 10.74804019927979 80.02691650390625 14.97309303283691 C 84.25196075439453 19.19813346862793 87.56893157958984 24.11771965026855 89.88570404052734 29.59518623352051 C 92.28397369384766 35.26533508300781 93.5 41.28937149047852 93.5 47.5 C 93.5 53.71062850952148 92.28397369384766 59.73468017578125 89.88570404052734 65.40481567382812 C 87.56893157958984 70.88229370117188 84.25196075439453 75.80186462402344 80.02691650390625 80.02691650390625 C 75.80186462402344 84.25196075439453 70.88229370117188 87.56893157958984 65.40481567382812 89.88570404052734 C 59.73468017578125 92.28397369384766 53.71062850952148 93.5 47.5 93.5 Z" stroke="none"/>
                  <path d="M 47.5 3 C 41.49121475219727 3 35.66376876831055 4.176155090332031 30.17950439453125 6.495796203613281 C 24.88084411621094 8.736953735351562 20.12152099609375 11.94598388671875 16.03375244140625 16.03375244140625 C 11.94598388671875 20.12152099609375 8.736953735351562 24.88084411621094 6.495796203613281 30.17950439453125 C 4.176155090332031 35.66376876831055 3 41.49121475219727 3 47.5 C 3 53.50878524780273 4.176155090332031 59.33623123168945 6.495796203613281 64.82049560546875 C 8.736953735351562 70.11915588378906 11.94598388671875 74.87847900390625 16.03375244140625 78.96624755859375 C 20.12152099609375 83.05401611328125 24.88084411621094 86.26304626464844 30.17950439453125 88.50419616699219 C 35.66376876831055 90.82384490966797 41.49121475219727 92 47.5 92 C 53.50878524780273 92 59.33623123168945 90.82384490966797 64.82049560546875 88.50419616699219 C 70.11915588378906 86.26304626464844 74.87847900390625 83.05401611328125 78.96624755859375 78.96624755859375 C 83.05401611328125 74.87847900390625 86.26304626464844 70.11915588378906 88.50419616699219 64.82049560546875 C 90.82384490966797 59.33623123168945 92 53.50878524780273 92 47.5 C 92 41.49121475219727 90.82384490966797 35.66376876831055 88.50419616699219 30.17950439453125 C 86.26304626464844 24.88084411621094 83.05401611328125 20.12152099609375 78.96624755859375 16.03375244140625 C 74.87847900390625 11.94598388671875 70.11915588378906 8.736953735351562 64.82049560546875 6.495796203613281 C 59.33623123168945 4.176155090332031 53.50878524780273 3 47.5 3 M 47.5 0 C 73.7335205078125 0 95 21.2664794921875 95 47.5 C 95 73.7335205078125 73.7335205078125 95 47.5 95 C 21.2664794921875 95 0 73.7335205078125 0 47.5 C 0 21.2664794921875 21.2664794921875 0 47.5 0 Z" stroke="none" fill="#6f6e88"/>
                </g>
              </g>
            </g>
          </g>
        </g>
      </g>
      <g id="adhd_10216054" transform="translate(1212.271 2152.836)">
        <g id="Group_1203082" data-name="Group 1203082" transform="translate(31.611 7.5)">
          <path id="Path_1043635" data-name="Path 1043635" d="M264.173,266.413a29.724,29.724,0,0,1,4.139,13.961h3.834l.339-6.364.254-4.776C269.69,269.789,266.141,269.247,264.173,266.413Z" transform="translate(-234.45 -233.322)" fill="#f696c3" fill-rule="evenodd"/>
          <path id="Path_1043636" data-name="Path 1043636" d="M264.173,266.413a33.409,33.409,0,0,1,2.451,5.279,12.4,12.4,0,0,0,5.949.66l.166-3.119C269.69,269.789,266.141,269.247,264.173,266.413Z" transform="translate(-234.45 -233.322)" fill="#f072ae" fill-rule="evenodd"/>
          <path id="Path_1043637" data-name="Path 1043637" d="M329.46,288.483l-.254,4.776c4.779,3.841,8.546-1.46,7.415-4.324A6.649,6.649,0,0,1,329.46,288.483Z" transform="translate(-291.172 -252.572)" fill="#f072ae" fill-rule="evenodd"/>
          <path id="Path_1043638" data-name="Path 1043638" d="M38.58,51.537V62.478H50.158V71.02H75.351V66.728c0-3.69-.008-8.454,5.228-13.443A26.714,26.714,0,0,0,88.968,33.9c0-15.764-12.818-26.4-28.07-26.4-14.761,0-25.115,12.461-25.115,26.4L31.73,48.691a2.045,2.045,0,0,0,1.952,2.846h4.9ZM61.334,40.591a6.842,6.842,0,0,1-6.012-4.106A10.521,10.521,0,0,1,47.1,34.946c-5.38-.822-5.853-5.834-3.807-8.378.127-4.66,4.037-9.072,7.295-9.761,3.054-2.93,6.54-4.514,10.542-3.287a10.573,10.573,0,0,1,9.119,1.421c3.377.742,6.485,2.083,8.164,6.009,2.626,1.3,5.108,3.294,4.341,9.452a7.96,7.96,0,0,1-3.283,10.534,4.109,4.109,0,0,1-2.407,2.928c1.131,2.864-2.636,8.164-7.415,4.324l-.339,6.364H65.473A29.726,29.726,0,0,0,61.334,40.591Z" transform="translate(-31.612 -7.5)" fill="#ffd9ab" fill-rule="evenodd"/>
          <path id="Path_1043639" data-name="Path 1043639" d="M38.579,50.579v11.9h2.876v-11.9ZM50.158,61.519v9.5h2.876v-9.5ZM62.409,7.536C48.378,8.276,38.658,20.394,38.658,33.9L34.605,48.691a2.045,2.045,0,0,0,1.952,2.846H33.682a2.045,2.045,0,0,1-1.952-2.846L35.783,33.9c0-13.939,10.354-26.4,25.114-26.4Q61.657,7.5,62.409,7.536Z" transform="translate(-31.611 -7.5)" fill="#ffaf7c" fill-rule="evenodd"/>
          <path id="Path_1043640" data-name="Path 1043640" d="M127.38,74.5a6.842,6.842,0,0,0,6.012,4.106c1.968,2.834,5.517,3.376,8.566,2.821a6.649,6.649,0,0,0,7.161.453,4.109,4.109,0,0,0,2.407-2.928,7.96,7.96,0,0,0,3.283-10.534c.767-6.159-1.716-8.151-4.341-9.452-1.679-3.925-4.787-5.267-8.164-6.009a10.573,10.573,0,0,0-9.119-1.421c-4-1.227-7.489.357-10.542,3.288-3.258.689-7.168,5.1-7.295,9.761-2.046,2.544-1.573,7.556,3.807,8.378A10.522,10.522,0,0,0,127.38,74.5Z" transform="translate(-103.67 -45.513)" fill="#f696c3" fill-rule="evenodd"/>
          <path id="Path_1043641" data-name="Path 1043641" d="M127.381,166.273a6.842,6.842,0,0,0,6.012,4.106c1.968,2.834,5.517,3.376,8.566,2.821a6.649,6.649,0,0,0,7.161.453,4.109,4.109,0,0,0,2.407-2.928c-.446.158-5.007,2.555-8.751-.6-3.7.674-5.373.983-7.77-2.469-4.4-.469-4.281-1.073-6.13-4.911l-2.4.8c-1.98.656-4.606-.471-6.27-1.557-3.057-.467-4.309-3.184-4.854-5.68,0,.017,0,.033,0,.05-2.046,2.544-1.573,7.556,3.807,8.378A10.522,10.522,0,0,0,127.381,166.273Z" transform="translate(-103.67 -137.289)" fill="#f072ae" fill-rule="evenodd"/>
          <path id="Path_1043642" data-name="Path 1043642" d="M308.7,81.971V80.054m3.834,3.834V81.971" transform="translate(-273.283 -70.781)" fill="none" stroke="#fff" stroke-miterlimit="22.926" stroke-width="1" fill-rule="evenodd"/>
        </g>
        <g id="Group_1203083" data-name="Group 1203083" transform="translate(31.611 7.5)">
          <path id="Path_1043643" data-name="Path 1043643" d="M151.526,78.949a7.96,7.96,0,0,0,3.283-10.534c.767-6.159-1.716-8.151-4.341-9.452-1.679-3.925-4.787-5.267-8.164-6.009a10.572,10.572,0,0,0-9.118-1.421c-4-1.227-7.489.357-10.542,3.288-3.258.689-7.168,5.1-7.295,9.761-2.046,2.544-1.573,7.556,3.807,8.378A10.522,10.522,0,0,0,127.38,74.5a6.842,6.842,0,0,0,6.012,4.106c1.968,2.834,5.517,3.376,8.566,2.821C145.238,84.185,151.158,82.074,151.526,78.949Z" transform="translate(-103.67 -45.513)" fill="none" stroke="#000" stroke-miterlimit="22.926" stroke-width="1" fill-rule="evenodd"/>
          <path id="Path_1043644" data-name="Path 1043644" d="M264.173,266.413a29.724,29.724,0,0,1,4.139,13.961h3.834l.593-11.141" transform="translate(-234.45 -233.322)" fill="none" stroke="#000" stroke-miterlimit="22.926" stroke-width="1" fill-rule="evenodd"/>
          <path id="Path_1043645" data-name="Path 1043645" d="M336.62,292.025c1.131,2.864-2.636,8.164-7.415,4.324" transform="translate(-291.171 -255.661)" fill="none" stroke="#000" stroke-miterlimit="22.926" stroke-width="1" fill-rule="evenodd"/>
          <path id="Path_1043646" data-name="Path 1043646" d="M314.281,213.156l3.949,6.118-.171.233-7-1.96" transform="translate(-275.34 -186.872)" fill="none" stroke="#000" stroke-linecap="square" stroke-miterlimit="10" stroke-width="1" fill-rule="evenodd"/>
          <line id="Line_1144" data-name="Line 1144" x1="2.277" y2="3.099" transform="translate(37.551 27.939)" fill="none" stroke="#000" stroke-linecap="round" stroke-linejoin="bevel" stroke-miterlimit="10" stroke-width="1"/>
          <path id="Path_1043647" data-name="Path 1043647" d="M348.1,144.652c1.305,1.3,1.624,3.072.495,4.241l-1.381,1.381-4.736-4.736,1.341-1.341C345.081,142.937,346.8,143.348,348.1,144.652Z" transform="translate(-302.748 -126.062)" fill="none" stroke="#000" stroke-linecap="square" stroke-miterlimit="10" stroke-width="1" fill-rule="evenodd"/>
          <path id="Path_1043648" data-name="Path 1043648" d="M165.6,134.452l1.972-.7a1.862,1.862,0,0,1,1.247,3.509l-2.219.789-2.312-6.5,1.889-.671a1.589,1.589,0,0,1,1.065,2.995" transform="translate(-147.336 -115.026)" fill="none" stroke="#000" stroke-linecap="square" stroke-miterlimit="10" stroke-width="1" fill-rule="evenodd"/>
          <path id="Path_1043649" data-name="Path 1043649" d="M230.973,90.145a3.451,3.451,0,1,0,4.517,4.814,2.744,2.744,0,0,0,.236-2.371" transform="translate(-203.811 -79.582)" fill="none" stroke="#000" stroke-linecap="square" stroke-miterlimit="10" stroke-width="1" fill-rule="evenodd"/>
          <path id="Path_1043650" data-name="Path 1043650" d="M252.6,171.582l-2.248-2.135-5.067,5.335,2.248,2.135" transform="translate(-217.975 -148.749)" fill="none" stroke="#000" stroke-linecap="square" stroke-miterlimit="10" stroke-width="1" fill-rule="evenodd"/>
          <line id="Line_1145" data-name="Line 1145" x1="1.776" y1="1.686" transform="translate(30.148 23.656)" fill="none" stroke="#000" stroke-linecap="square" stroke-miterlimit="10" stroke-width="1"/>
          <path id="Path_1043651" data-name="Path 1043651" d="M70.559,71.02h4.793V66.728c0-3.69-.008-8.454,5.228-13.443A26.714,26.714,0,0,0,88.968,33.9c0-15.764-12.818-26.4-28.07-26.4a24.135,24.135,0,0,0-17.342,7.187m-1.34,1.458A27.457,27.457,0,0,0,35.783,33.9L31.73,48.691a2.045,2.045,0,0,0,1.952,2.846h4.9V62.478H50.158V71.02H68.642" transform="translate(-31.612 -7.5)" fill="none" stroke="#000" stroke-miterlimit="22.926" stroke-width="1" fill-rule="evenodd"/>
        </g>
      </g>
    </g>
  </g>
</svg>
