<svg xmlns="http://www.w3.org/2000/svg" xmlns:xlink="http://www.w3.org/1999/xlink" width="113" height="113" viewBox="0 0 113 113">
  <defs>
    <filter id="Path_982547" x="0" y="0" width="113" height="113" filterUnits="userSpaceOnUse">
      <feOffset dy="3" input="SourceAlpha"/>
      <feGaussianBlur stdDeviation="3" result="blur"/>
      <feFlood flood-opacity="0.161"/>
      <feComposite operator="in" in2="blur"/>
      <feComposite in="SourceGraphic"/>
    </filter>
  </defs>
  <g id="Group_1204639" data-name="Group 1204639" transform="translate(-272 -3840.336)">
    <g id="Group_1204638" data-name="Group 1204638">
      <g id="Group_1204637" data-name="Group 1204637">
        <g id="Group_1204076" data-name="Group 1204076">
          <g id="Group_1203962" data-name="Group 1203962" transform="translate(0 1899.461)">
            <g id="Group_1203498" data-name="Group 1203498" transform="translate(0 -197.72)">
              <g id="Group_1202589" data-name="Group 1202589" transform="translate(281 2144.596)">
                <g id="Group_1172010" data-name="Group 1172010" transform="translate(0)">
                  <g id="Group_1171046" data-name="Group 1171046">
                    <g id="Group_1148525" data-name="Group 1148525">
                      <g transform="matrix(1, 0, 0, 1, -9, -6)" filter="url(#Path_982547)">
                        <g id="Path_982547-2" data-name="Path 982547" transform="translate(9 6)" fill="#ffeef4">
                          <path d="M 47.5 93.5 C 41.28937149047852 93.5 35.26533508300781 92.28397369384766 29.59518623352051 89.88570404052734 C 24.11771965026855 87.56893157958984 19.19813346862793 84.25196075439453 14.97309303283691 80.02691650390625 C 10.74804019927979 75.80186462402344 7.431066513061523 70.88229370117188 5.114293098449707 65.40481567382812 C 2.716026782989502 59.73468017578125 1.5 53.71062850952148 1.5 47.5 C 1.5 41.28937149047852 2.716026782989502 35.26533508300781 5.114293098449707 29.59518623352051 C 7.431066513061523 24.11771965026855 10.74804019927979 19.19813346862793 14.97309303283691 14.97309303283691 C 19.19813346862793 10.74804019927979 24.11771965026855 7.431066513061523 29.59518623352051 5.114293098449707 C 35.26533508300781 2.716026782989502 41.28937149047852 1.5 47.5 1.5 C 53.71062850952148 1.5 59.73468017578125 2.716026782989502 65.40481567382812 5.114293098449707 C 70.88229370117188 7.431066513061523 75.80186462402344 10.74804019927979 80.02691650390625 14.97309303283691 C 84.25196075439453 19.19813346862793 87.56893157958984 24.11771965026855 89.88570404052734 29.59518623352051 C 92.28397369384766 35.26533508300781 93.5 41.28937149047852 93.5 47.5 C 93.5 53.71062850952148 92.28397369384766 59.73468017578125 89.88570404052734 65.40481567382812 C 87.56893157958984 70.88229370117188 84.25196075439453 75.80186462402344 80.02691650390625 80.02691650390625 C 75.80186462402344 84.25196075439453 70.88229370117188 87.56893157958984 65.40481567382812 89.88570404052734 C 59.73468017578125 92.28397369384766 53.71062850952148 93.5 47.5 93.5 Z" stroke="none"/>
                          <path d="M 47.5 3 C 41.49121475219727 3 35.66376876831055 4.176155090332031 30.17950439453125 6.495796203613281 C 24.88084411621094 8.736953735351562 20.12152099609375 11.94598388671875 16.03375244140625 16.03375244140625 C 11.94598388671875 20.12152099609375 8.736953735351562 24.88084411621094 6.495796203613281 30.17950439453125 C 4.176155090332031 35.66376876831055 3 41.49121475219727 3 47.5 C 3 53.50878524780273 4.176155090332031 59.33623123168945 6.495796203613281 64.82049560546875 C 8.736953735351562 70.11915588378906 11.94598388671875 74.87847900390625 16.03375244140625 78.96624755859375 C 20.12152099609375 83.05401611328125 24.88084411621094 86.26304626464844 30.17950439453125 88.50419616699219 C 35.66376876831055 90.82384490966797 41.49121475219727 92 47.5 92 C 53.50878524780273 92 59.33623123168945 90.82384490966797 64.82049560546875 88.50419616699219 C 70.11915588378906 86.26304626464844 74.87847900390625 83.05401611328125 78.96624755859375 78.96624755859375 C 83.05401611328125 74.87847900390625 86.26304626464844 70.11915588378906 88.50419616699219 64.82049560546875 C 90.82384490966797 59.33623123168945 92 53.50878524780273 92 47.5 C 92 41.49121475219727 90.82384490966797 35.66376876831055 88.50419616699219 30.17950439453125 C 86.26304626464844 24.88084411621094 83.05401611328125 20.12152099609375 78.96624755859375 16.03375244140625 C 74.87847900390625 11.94598388671875 70.11915588378906 8.736953735351562 64.82049560546875 6.495796203613281 C 59.33623123168945 4.176155090332031 53.50878524780273 3 47.5 3 M 47.5 0 C 73.7335205078125 0 95 21.2664794921875 95 47.5 C 95 73.7335205078125 73.7335205078125 95 47.5 95 C 21.2664794921875 95 0 73.7335205078125 0 47.5 C 0 21.2664794921875 21.2664794921875 0 47.5 0 Z" stroke="none" fill="#8b5e6f"/>
                        </g>
                      </g>
                    </g>
                  </g>
                </g>
              </g>
            </g>
          </g>
          <g id="_25-herd_immunity" data-name="25-herd immunity" transform="translate(297 3862)">
            <path id="Path_1045409" data-name="Path 1045409" d="M32,58c16,0,23-14,23-20V11C41,12,32,6,32,6s-9,6-23,5V38C9,44,16,58,32,58Z" fill="#fac437"/>
            <g id="Group_1204075" data-name="Group 1204075">
              <path id="Path_1045410" data-name="Path 1045410" d="M38,23h8V45H38Z" fill="#32addb"/>
              <path id="Path_1045411" data-name="Path 1045411" d="M36,23a2,2,0,0,0-2,2v6a4,4,0,0,0,4,4V23Z" fill="#32addb"/>
              <path id="Path_1045412" data-name="Path 1045412" d="M46,23V35a4,4,0,0,0,4-4V25a2,2,0,0,0-2-2Z" fill="#32addb"/>
              <circle id="Ellipse_12734" data-name="Ellipse 12734" cx="3" cy="3" r="3" transform="translate(39 15)" fill="#32addb"/>
            </g>
            <path id="Path_1045413" data-name="Path 1045413" d="M42,45a1,1,0,0,1-1-1V39a1,1,0,0,1,2,0v5A1,1,0,0,1,42,45Z" fill="#3297c9"/>
            <path id="Path_1045414" data-name="Path 1045414" d="M38,35a1,1,0,0,1-1-1V28a1,1,0,0,1,2,0v6A1,1,0,0,1,38,35Z" fill="#3297c9"/>
            <path id="Path_1045415" data-name="Path 1045415" d="M46,35a1,1,0,0,1-1-1V28a1,1,0,0,1,2,0v6A1,1,0,0,1,46,35Z" fill="#3297c9"/>
            <path id="Path_1045416" data-name="Path 1045416" d="M18,23h8V45H18Z" fill="#32addb"/>
            <path id="Path_1045417" data-name="Path 1045417" d="M16,23a2,2,0,0,0-2,2v6a4,4,0,0,0,4,4V23Z" fill="#32addb"/>
            <path id="Path_1045418" data-name="Path 1045418" d="M26,23V35a4,4,0,0,0,4-4V25a2,2,0,0,0-2-2Z" fill="#32addb"/>
            <circle id="Ellipse_12735" data-name="Ellipse 12735" cx="3" cy="3" r="3" transform="translate(19 15)" fill="#32addb"/>
            <path id="Path_1045419" data-name="Path 1045419" d="M22,45a1,1,0,0,1-1-1V39a1,1,0,0,1,2,0v5A1,1,0,0,1,22,45Z" fill="#3297c9"/>
            <path id="Path_1045420" data-name="Path 1045420" d="M18,35a1,1,0,0,1-1-1V28a1,1,0,0,1,2,0v6A1,1,0,0,1,18,35Z" fill="#3297c9"/>
            <path id="Path_1045421" data-name="Path 1045421" d="M26,35a1,1,0,0,1-1-1V28a1,1,0,0,1,2,0v6A1,1,0,0,1,26,35Z" fill="#3297c9"/>
            <circle id="Ellipse_12736" data-name="Ellipse 12736" cx="3" cy="3" r="3" transform="translate(53 51)" fill="#e6294f"/>
            <circle id="Ellipse_12737" data-name="Ellipse 12737" cx="3" cy="3" r="3" transform="translate(47 1)" fill="#e6294f"/>
            <circle id="Ellipse_12738" data-name="Ellipse 12738" cx="3" cy="3" r="3" transform="translate(4 48)" fill="#e6294f"/>
            <path id="Path_1045422" data-name="Path 1045422" d="M28,27h8V49H28Z" fill="#71d6fc"/>
            <path id="Path_1045423" data-name="Path 1045423" d="M26,27a2,2,0,0,0-2,2v6a4,4,0,0,0,4,4V27Z" fill="#71d6fc"/>
            <path id="Path_1045424" data-name="Path 1045424" d="M36,27V39a4,4,0,0,0,4-4V29a2,2,0,0,0-2-2Z" fill="#71d6fc"/>
            <circle id="Ellipse_12739" data-name="Ellipse 12739" cx="3" cy="3" r="3" transform="translate(29 19)" fill="#71d6fc"/>
            <path id="Path_1045425" data-name="Path 1045425" d="M32,49a1,1,0,0,1-1-1V40a1,1,0,0,1,2,0v8A1,1,0,0,1,32,49Z" fill="#32addb"/>
            <path id="Path_1045426" data-name="Path 1045426" d="M28,39a1,1,0,0,1-1-1V32a1,1,0,0,1,2,0v6A1,1,0,0,1,28,39Z" fill="#32addb"/>
            <path id="Path_1045427" data-name="Path 1045427" d="M36,39a1,1,0,0,1-1-1V32a1,1,0,0,1,2,0v6A1,1,0,0,1,36,39Z" fill="#32addb"/>
            <path id="Path_1045428" data-name="Path 1045428" d="M56,38V11a1,1,0,0,0-.318-.731A.987.987,0,0,0,54.929,10c-13.464.958-22.288-4.778-22.375-4.836a1.009,1.009,0,0,0-1.108,0c-.087.059-8.911,5.8-22.374,4.836A1,1,0,0,0,8,11V38c0,5.978,7.139,21,24,21S56,43.978,56,38ZM32,57C16.545,57,10,43.408,10,38V12.062A40.565,40.565,0,0,0,32,7.176a40.644,40.644,0,0,0,22,4.886V38C54,43.408,47.456,57,32,57Z"/>
            <path id="Path_1045429" data-name="Path 1045429" d="M41,35V29a3,3,0,0,0-3-3H26a3,3,0,0,0-3,3v6a5.009,5.009,0,0,0,4,4.9V49a1,1,0,0,0,1,1h8a1,1,0,0,0,1-1V39.9A5.009,5.009,0,0,0,41,35Zm-6-4V48H33V39a1,1,0,0,0-2,0v9H29V31a1,1,0,0,0-2,0v6.816A3,3,0,0,1,25,35V29a1,1,0,0,1,1-1H38a1,1,0,0,1,1,1v6a3,3,0,0,1-2,2.816V31a1,1,0,0,0-2,0Z"/>
            <path id="Path_1045430" data-name="Path 1045430" d="M36,22a4,4,0,1,0-4,4A4,4,0,0,0,36,22Zm-4,2a2,2,0,1,1,2-2A2,2,0,0,1,32,24Z"/>
            <path id="Path_1045431" data-name="Path 1045431" d="M24,44H23V39a1,1,0,0,0-2,0v5H19V27a1,1,0,0,0-2,0v6.816A3,3,0,0,1,15,31V25a1,1,0,0,1,1-1H26a1,1,0,0,0,0-2H16a3,3,0,0,0-3,3v6a5.009,5.009,0,0,0,4,4.9V45a1,1,0,0,0,1,1h6a1,1,0,0,0,0-2Z"/>
            <path id="Path_1045432" data-name="Path 1045432" d="M26,18a4,4,0,1,0-4,4A4,4,0,0,0,26,18Zm-4,2a2,2,0,1,1,2-2A2,2,0,0,1,22,20Z"/>
            <path id="Path_1045433" data-name="Path 1045433" d="M48,22H38a1,1,0,0,0,0,2H48a1,1,0,0,1,1,1v6a3,3,0,0,1-2,2.816V27a1,1,0,0,0-2,0V44H43V39a1,1,0,0,0-2,0v5H40a1,1,0,0,0,0,2h6a1,1,0,0,0,1-1V35.9A5.009,5.009,0,0,0,51,31V25a3,3,0,0,0-3-3Z"/>
            <path id="Path_1045434" data-name="Path 1045434" d="M46,18a4,4,0,1,0-4,4A4,4,0,0,0,46,18Zm-4,2a2,2,0,1,1,2-2A2,2,0,0,1,42,20Z"/>
            <path id="Path_1045435" data-name="Path 1045435" d="M56,50a4,4,0,1,0,4,4A4,4,0,0,0,56,50Zm0,6a2,2,0,1,1,2-2A2,2,0,0,1,56,56Z"/>
            <path id="Path_1045436" data-name="Path 1045436" d="M50,8a4,4,0,1,0-4-4A4,4,0,0,0,50,8Zm0-6a2,2,0,1,1-2,2A2,2,0,0,1,50,2Z"/>
            <path id="Path_1045437" data-name="Path 1045437" d="M7,47a4,4,0,1,0,4,4A4,4,0,0,0,7,47Zm0,6a2,2,0,1,1,2-2A2,2,0,0,1,7,53Z"/>
            <path id="Path_1045438" data-name="Path 1045438" d="M63.8,62.4l-3-4a1,1,0,1,0-1.6,1.2l3,4a1,1,0,0,0,1.6-1.2Z"/>
            <path id="Path_1045439" data-name="Path 1045439" d="M4.448,56.1a1,1,0,0,0-1.342.448l-3,6a1,1,0,1,0,1.789.894l3-6a1,1,0,0,0-.447-1.342Z"/>
            <path id="Path_1045440" data-name="Path 1045440" d="M13,58h2v2H13Z"/>
            <path id="Path_1045441" data-name="Path 1045441" d="M60,31h2v2H60Z"/>
            <path id="Path_1045442" data-name="Path 1045442" d="M48,57h2v2H48Z"/>
            <path id="Path_1045443" data-name="Path 1045443" d="M40,60h2v2H40Z"/>
            <path id="Path_1045444" data-name="Path 1045444" d="M12,5h2V7H12Z"/>
            <path id="Path_1045445" data-name="Path 1045445" d="M21,2h2V4H21Z"/>
            <path id="Path_1045446" data-name="Path 1045446" d="M2,27H4v2H2Z"/>
          </g>
        </g>
      </g>
    </g>
  </g>
</svg>
