<svg xmlns="http://www.w3.org/2000/svg" xmlns:xlink="http://www.w3.org/1999/xlink" width="113" height="113" viewBox="0 0 113 113">
  <defs>
    <filter id="Path_982547" x="0" y="0" width="113" height="113" filterUnits="userSpaceOnUse">
      <feOffset dy="3" input="SourceAlpha"/>
      <feGaussianBlur stdDeviation="3" result="blur"/>
      <feFlood flood-opacity="0.161"/>
      <feComposite operator="in" in2="blur"/>
      <feComposite in="SourceGraphic"/>
    </filter>
  </defs>
  <g id="Group_1203568" data-name="Group 1203568" transform="translate(-744.148 -4568.692)">
    <g id="Group_1203480" data-name="Group 1203480">
      <g id="Group_1202848" data-name="Group 1202848" transform="translate(753.148 4574.692)">
        <g id="Group_1172010" data-name="Group 1172010">
          <g id="Group_1171046" data-name="Group 1171046">
            <g id="Group_1148525" data-name="Group 1148525">
              <g transform="matrix(1, 0, 0, 1, -9, -6)" filter="url(#Path_982547)">
                <g id="Path_982547-2" data-name="Path 982547" transform="translate(9 6)" fill="#f4f4fd">
                  <path d="M 47.5 93.5 C 41.28937149047852 93.5 35.26533508300781 92.28397369384766 29.59518623352051 89.88570404052734 C 24.11771965026855 87.56893157958984 19.19813346862793 84.25196075439453 14.97309303283691 80.02691650390625 C 10.74804019927979 75.80186462402344 7.431066513061523 70.88229370117188 5.114293098449707 65.40481567382812 C 2.716026782989502 59.73468017578125 1.5 53.71062850952148 1.5 47.5 C 1.5 41.28937149047852 2.716026782989502 35.26533508300781 5.114293098449707 29.59518623352051 C 7.431066513061523 24.11771965026855 10.74804019927979 19.19813346862793 14.97309303283691 14.97309303283691 C 19.19813346862793 10.74804019927979 24.11771965026855 7.431066513061523 29.59518623352051 5.114293098449707 C 35.26533508300781 2.716026782989502 41.28937149047852 1.5 47.5 1.5 C 53.71062850952148 1.5 59.73468017578125 2.716026782989502 65.40481567382812 5.114293098449707 C 70.88229370117188 7.431066513061523 75.80186462402344 10.74804019927979 80.02691650390625 14.97309303283691 C 84.25196075439453 19.19813346862793 87.56893157958984 24.11771965026855 89.88570404052734 29.59518623352051 C 92.28397369384766 35.26533508300781 93.5 41.28937149047852 93.5 47.5 C 93.5 53.71062850952148 92.28397369384766 59.73468017578125 89.88570404052734 65.40481567382812 C 87.56893157958984 70.88229370117188 84.25196075439453 75.80186462402344 80.02691650390625 80.02691650390625 C 75.80186462402344 84.25196075439453 70.88229370117188 87.56893157958984 65.40481567382812 89.88570404052734 C 59.73468017578125 92.28397369384766 53.71062850952148 93.5 47.5 93.5 Z" stroke="none"/>
                  <path d="M 47.5 3 C 41.49121475219727 3 35.66376876831055 4.176155090332031 30.17950439453125 6.495796203613281 C 24.88084411621094 8.736953735351562 20.12152099609375 11.94598388671875 16.03375244140625 16.03375244140625 C 11.94598388671875 20.12152099609375 8.736953735351562 24.88084411621094 6.495796203613281 30.17950439453125 C 4.176155090332031 35.66376876831055 3 41.49121475219727 3 47.5 C 3 53.50878524780273 4.176155090332031 59.33623123168945 6.495796203613281 64.82049560546875 C 8.736953735351562 70.11915588378906 11.94598388671875 74.87847900390625 16.03375244140625 78.96624755859375 C 20.12152099609375 83.05401611328125 24.88084411621094 86.26304626464844 30.17950439453125 88.50419616699219 C 35.66376876831055 90.82384490966797 41.49121475219727 92 47.5 92 C 53.50878524780273 92 59.33623123168945 90.82384490966797 64.82049560546875 88.50419616699219 C 70.11915588378906 86.26304626464844 74.87847900390625 83.05401611328125 78.96624755859375 78.96624755859375 C 83.05401611328125 74.87847900390625 86.26304626464844 70.11915588378906 88.50419616699219 64.82049560546875 C 90.82384490966797 59.33623123168945 92 53.50878524780273 92 47.5 C 92 41.49121475219727 90.82384490966797 35.66376876831055 88.50419616699219 30.17950439453125 C 86.26304626464844 24.88084411621094 83.05401611328125 20.12152099609375 78.96624755859375 16.03375244140625 C 74.87847900390625 11.94598388671875 70.11915588378906 8.736953735351562 64.82049560546875 6.495796203613281 C 59.33623123168945 4.176155090332031 53.50878524780273 3 47.5 3 M 47.5 0 C 73.7335205078125 0 95 21.2664794921875 95 47.5 C 95 73.7335205078125 73.7335205078125 95 47.5 95 C 21.2664794921875 95 0 73.7335205078125 0 47.5 C 0 21.2664794921875 21.2664794921875 0 47.5 0 Z" stroke="none" fill="#6f6e88"/>
                </g>
              </g>
            </g>
          </g>
        </g>
      </g>
      <g id="magazine_13269969" transform="translate(761.11 4572.457)">
        <g id="Group_1203474" data-name="Group 1203474" transform="translate(7.517 19.914)">
          <g id="Group_1203468" data-name="Group 1203468" transform="translate(7.573 0)">
            <path id="Path_1043989" data-name="Path 1043989" d="M274.165,25.8h-5.889v-4.64a1.249,1.249,0,0,1,1.249-1.249h3.39a1.249,1.249,0,0,1,1.249,1.249V25.8Z" transform="translate(-242.926 -19.914)" fill="#c68d7a"/>
            <path id="Path_1043990" data-name="Path 1043990" d="M220.564,432.668H201.736a.77.77,0,0,1-.77-.77v-3.03h20.367v3.03A.77.77,0,0,1,220.564,432.668Z" transform="translate(-184.118 -377.211)" fill="#aa6a51"/>
            <path id="Path_1043991" data-name="Path 1043991" d="M353.342,277.539V249.4a2.163,2.163,0,0,1,2.157-2.157h0a1.778,1.778,0,0,1,1.778,1.778v28.518a.632.632,0,0,1-.632.632h-2.672A.632.632,0,0,1,353.342,277.539Z" transform="translate(-317.247 -218.528)" fill="#bc7c63"/>
            <path id="Path_1043992" data-name="Path 1043992" d="M178.952,342.882l-2.886.253H146.931a1,1,0,0,1-1-1V338h34.018v3.886A1,1,0,0,1,178.952,342.882Z" transform="translate(-136.037 -297.819)" fill="#c68d7a"/>
            <path id="Path_1043993" data-name="Path 1043993" d="M384.491,338v5.137h3.138a1,1,0,0,0,1-1V338Z" transform="translate(-344.461 -297.82)" fill="#bc7c63"/>
            <path id="Path_1043994" data-name="Path 1043994" d="M122.5,86.643a.884.884,0,0,1-.884.884l-4.548.253H68.91c-1.918,0-1.186-.509-1.186-1.137V51.372a1.294,1.294,0,0,1,1.289-1.3h47.674l4.548.253a1.294,1.294,0,0,1,1.289,1.3Z" transform="translate(-67.587 -46.263)" fill="#eef5f6"/>
            <path id="Path_1043995" data-name="Path 1043995" d="M459.347,50.073h-5.053a1.294,1.294,0,0,1,1.289,1.3L455.558,86.9a.884.884,0,0,1-.884.884h5.053a.884.884,0,0,0,.884-.884l.025-35.524A1.294,1.294,0,0,0,459.347,50.073Z" transform="translate(-405.447 -46.263)" fill="#deecf1"/>
          </g>
          <g id="Group_1203470" data-name="Group 1203470" transform="translate(22.183 10.346)">
            <path id="Path_1043996" data-name="Path 1043996" d="M210.894,135.509V114.036a.757.757,0,0,0-.757-.757l-4.548-.253h-22.34v22.735a.757.757,0,0,0,.757.757h21.584l4.548-.253A.757.757,0,0,0,210.894,135.509Z" transform="translate(-183.249 -111.611)" fill="#ffe077"/>
            <path id="Path_1043997" data-name="Path 1043997" d="M363.163,113.027H358.11a.757.757,0,0,1,.757.757v21.978a.757.757,0,0,1-.757.757h5.053a.757.757,0,0,0,.757-.757V113.784A.757.757,0,0,0,363.163,113.027Z" transform="translate(-336.022 -111.611)" fill="#ffd05b"/>
            <path id="Path_1043998" data-name="Path 1043998" d="M255.6,102.533v11.576a.379.379,0,0,0,.574.325l4.041-2.425a.379.379,0,0,1,.39,0l.825.5,2.963,1.677a.379.379,0,0,0,.574-.325V102.785a.714.714,0,0,0-.714-.714l-3.285-.253h-4.655A.714.714,0,0,0,255.6,102.533Z" transform="translate(-246.459 -101.819)" fill="#857e87"/>
            <g id="Group_1203469" data-name="Group 1203469" transform="translate(14.255)">
              <path id="Path_1043999" data-name="Path 1043999" d="M299.892,101.819H296.1a.714.714,0,0,1,.714.714V112.5l3.216,1.93a.379.379,0,0,0,.574-.325V102.533A.714.714,0,0,0,299.892,101.819Z" transform="translate(-296.102 -101.819)" fill="#766e7a"/>
            </g>
          </g>
          <g id="Group_1203473" data-name="Group 1203473" transform="translate(0 9.476)">
            <path id="Path_1044000" data-name="Path 1044000" d="M43.729,109.827c-1.507-5.628,1.554-11.8,7.282-13.405a10.152,10.152,0,0,1,1.113-.252,19.937,19.937,0,0,1,4.827.665c5.728,1.608,7.722,7.364,6.215,12.992Z" transform="translate(-38.836 -96.013)" fill="#857e87"/>
            <path id="Path_1044001" data-name="Path 1044001" d="M124.968,108.748h-3.741c1.508-5.628-1.554-11.8-7.281-13.406a10.167,10.167,0,0,0-1.114-.252,11.152,11.152,0,0,1,4.855.252C123.414,96.951,126.476,103.12,124.968,108.748Z" transform="translate(-99.544 -94.935)" fill="#766e7a"/>
            <g id="Group_1203471" data-name="Group 1203471" transform="translate(4.323 13.305)">
              <path id="Path_1044002" data-name="Path 1044002" d="M62.054,200.266a1.479,1.479,0,0,1,1.479,1.479v.914a2.914,2.914,0,0,1-2.914,2.914H44.777a2.914,2.914,0,0,1-2.914-2.914v-.914a1.479,1.479,0,0,1,1.479-1.479Z" transform="translate(-41.863 -200.266)" fill="#ffc4c8"/>
            </g>
            <path id="Path_1044003" data-name="Path 1044003" d="M102.316,277.8a6.384,6.384,0,0,1-8.566,0,1.177,1.177,0,0,0,.505-.968v-5.27h7.552v5.271A1.173,1.173,0,0,0,102.316,277.8Z" transform="translate(-82.872 -249.249)" fill="#ffc4c8"/>
            <path id="Path_1044004" data-name="Path 1044004" d="M83.357,176.362,81.639,177.7a4.519,4.519,0,0,1-5.554,0l-1.718-1.338a6.635,6.635,0,0,1-2.558-5.234v-3.843a2.262,2.262,0,0,1,2.4-2.258l2.362.146a7.282,7.282,0,0,0,4.245-1.053l2.157-1.318a1.931,1.931,0,0,1,2.938,1.648v6.678A6.635,6.635,0,0,1,83.357,176.362Z" transform="translate(-63.704 -153.979)" fill="#ffd3d6"/>
            <g id="Group_1203472" data-name="Group 1203472" transform="translate(0 27.978)">
              <path id="Path_1044005" data-name="Path 1044005" d="M7.636,338.27V325.187a4.848,4.848,0,0,1,3.8-4.734l5.55-1.2c.685-.151.893-.794.893-1.952,0-.49.195-.876.685-.876h8.44c.49,0,.685.386.685.876,0,1.07.208,1.8.893,1.952l3.952.848,1.521.781c2.221.491,3.293,2.278,3.293,4.553l-.077,12.35a.343.343,0,0,1-.343.343l-1.966.486H33.617L32.759,338l-.858.615H13.685l-.858-.518-.858.518H7.979A.343.343,0,0,1,7.636,338.27Z" transform="translate(-7.636 -316.424)" fill="#978ecb"/>
              <path id="Path_1044006" data-name="Path 1044006" d="M210.155,350.61v13.083a.343.343,0,0,1-.343.343h-2.63v-14.1a6.165,6.165,0,0,0-2.428-4.411l1.6.353A4.849,4.849,0,0,1,210.155,350.61Z" transform="translate(-179.855 -341.846)" fill="#8379c1"/>
            </g>
          </g>
        </g>
        <g id="Group_1203479" data-name="Group 1203479" transform="translate(7.5 19.914)">
          <g id="Group_1203475" data-name="Group 1203475" transform="translate(7.727 0)">
            <line id="Line_1172" data-name="Line 1172" x2="12.724" transform="translate(22.89 51.657)" fill="none" stroke="#000" stroke-linecap="round" stroke-linejoin="round" stroke-miterlimit="10" stroke-width="1"/>
            <line id="Line_1173" data-name="Line 1173" x1="12.682" transform="translate(22.89 55.457)" fill="none" stroke="#000" stroke-linecap="round" stroke-linejoin="round" stroke-miterlimit="10" stroke-width="1"/>
            <line id="Line_1174" data-name="Line 1174" y2="13.998" transform="translate(39.893 45.644)" fill="none" stroke="#000" stroke-linecap="round" stroke-linejoin="round" stroke-miterlimit="10" stroke-width="1"/>
            <line id="Line_1175" data-name="Line 1175" y1="14.11" transform="translate(35.959 45.533)" fill="none" stroke="#000" stroke-linecap="round" stroke-linejoin="round" stroke-miterlimit="10" stroke-width="1"/>
            <path id="Path_1044007" data-name="Path 1044007" d="M177.58,50.076h40.007a1.294,1.294,0,0,1,1.288,1.3V86.646a1.137,1.137,0,0,1-1.137,1.137h-34.8" transform="translate(-163.823 -46.266)" fill="none" stroke="#000" stroke-linecap="round" stroke-linejoin="round" stroke-miterlimit="10" stroke-width="1"/>
            <path id="Path_1044008" data-name="Path 1044008" d="M68.67,58.375v-7a1.294,1.294,0,0,1,1.29-1.3h8.046" transform="translate(-68.67 -46.266)" fill="none" stroke="#000" stroke-linecap="round" stroke-linejoin="round" stroke-miterlimit="10" stroke-width="1"/>
            <line id="Line_1176" data-name="Line 1176" y1="11.959" transform="translate(0 28.22)" fill="none" stroke="#000" stroke-linecap="round" stroke-linejoin="round" stroke-miterlimit="10" stroke-width="1"/>
            <path id="Path_1044009" data-name="Path 1044009" d="M268.276,23.335V20.919a1,1,0,0,1,1-1h3.879a1,1,0,0,1,1,1v2.354" transform="translate(-243.063 -19.914)" fill="none" stroke="#000" stroke-linecap="round" stroke-linejoin="round" stroke-miterlimit="10" stroke-width="1"/>
            <line id="Line_1177" data-name="Line 1177" x1="4.818" transform="translate(22.64 45.316)" fill="none" stroke="#000" stroke-linecap="round" stroke-linejoin="round" stroke-miterlimit="10" stroke-width="1"/>
            <path id="Path_1044010" data-name="Path 1044010" d="M333.192,350.656v2.54a1,1,0,0,1-1,1H321.04" transform="translate(-289.162 -308.878)" fill="none" stroke="#000" stroke-linecap="round" stroke-linejoin="round" stroke-miterlimit="10" stroke-width="1"/>
          </g>
          <g id="Group_1203476" data-name="Group 1203476" transform="translate(22.2 10.346)">
            <line id="Line_1178" data-name="Line 1178" x1="8.938" transform="translate(0 1.416)" fill="none" stroke="#000" stroke-linecap="round" stroke-linejoin="round" stroke-miterlimit="10" stroke-width="1"/>
            <path id="Path_1044011" data-name="Path 1044011" d="M334.27,113.026h8.064a.756.756,0,0,1,.757.757V119.1" transform="translate(-315.194 -111.61)" fill="none" stroke="#000" stroke-linecap="round" stroke-linejoin="round" stroke-miterlimit="10" stroke-width="1"/>
            <path id="Path_1044012" data-name="Path 1044012" d="M211.147,196.126v12.237a.757.757,0,0,1-.757.758H184.007a.757.757,0,0,1-.757-.758v-6.277" transform="translate(-183.25 -184.214)" fill="none" stroke="#000" stroke-linecap="round" stroke-linejoin="round" stroke-miterlimit="10" stroke-width="1"/>
            <path id="Path_1044013" data-name="Path 1044013" d="M255.6,102.533v12.246l4.81-2.886,4.81,2.886V102.533a.714.714,0,0,0-.714-.714h-8.192A.714.714,0,0,0,255.6,102.533Z" transform="translate(-246.459 -101.819)" fill="none" stroke="#000" stroke-linecap="round" stroke-linejoin="round" stroke-miterlimit="10" stroke-width="1"/>
            <line id="Line_1179" data-name="Line 1179" x2="9.62" transform="translate(9.139 19.212)" fill="none" stroke="#000" stroke-linecap="round" stroke-linejoin="round" stroke-miterlimit="10" stroke-width="1"/>
          </g>
          <g id="Group_1203478" data-name="Group 1203478" transform="translate(0 9.444)">
            <path id="Path_1044014" data-name="Path 1044014" d="M43.527,108.006a10.483,10.483,0,0,1,7.293-12.933,11.546,11.546,0,0,1,5.978,0,10.483,10.483,0,0,1,7.293,12.933" transform="translate(-38.642 -94.679)" fill="none" stroke="#000" stroke-linecap="round" stroke-linejoin="round" stroke-miterlimit="10" stroke-width="1"/>
            <path id="Path_1044015" data-name="Path 1044015" d="M7.5,326.766v-2.229a4.994,4.994,0,0,1,3.916-4.876l5.524-1.243a1.4,1.4,0,0,0,1.09-1.363v-.966a.573.573,0,0,1,.572-.572h8.113a.572.572,0,0,1,.572.572v.966a1.4,1.4,0,0,0,1.091,1.363l5.634,1.268a4.849,4.849,0,0,1,3.8,4.737v13.4" transform="translate(-7.5 -287.621)" fill="none" stroke="#000" stroke-linecap="round" stroke-linejoin="round" stroke-miterlimit="10" stroke-width="1"/>
            <line id="Line_1180" data-name="Line 1180" y1="6.633" transform="translate(0 43.566)" fill="none" stroke="#000" stroke-linecap="round" stroke-linejoin="round" stroke-miterlimit="10" stroke-width="1"/>
            <line id="Line_1181" data-name="Line 1181" y2="12.455" transform="translate(5.211 37.744)" fill="none" stroke="#000" stroke-linecap="round" stroke-linejoin="round" stroke-miterlimit="10" stroke-width="1"/>
            <line id="Line_1182" data-name="Line 1182" y2="12.455" transform="translate(25.123 37.744)" fill="none" stroke="#000" stroke-linecap="round" stroke-linejoin="round" stroke-miterlimit="10" stroke-width="1"/>
            <path id="Path_1044016" data-name="Path 1044016" d="M83.218,176.234l-1.72,1.34a4.526,4.526,0,0,1-5.563,0l-1.72-1.34a6.646,6.646,0,0,1-2.562-5.243v-3.85a2.265,2.265,0,0,1,2.405-2.261l2.366.147a7.294,7.294,0,0,0,4.252-1.055l2.161-1.32A1.934,1.934,0,0,1,85.78,164.3v6.688A6.646,6.646,0,0,1,83.218,176.234Z" transform="translate(-63.549 -153.815)" fill="none" stroke="#000" stroke-linecap="round" stroke-linejoin="round" stroke-miterlimit="10" stroke-width="1"/>
            <g id="Group_1203477" data-name="Group 1203477" transform="translate(4.315 13.326)">
              <path id="Path_1044017" data-name="Path 1044017" d="M45.456,205.494h-.879a2.918,2.918,0,0,1-2.918-2.918v-.915a1.482,1.482,0,0,1,1.482-1.482h2.034" transform="translate(-41.658 -200.179)" fill="none" stroke="#000" stroke-linecap="round" stroke-linejoin="round" stroke-miterlimit="10" stroke-width="1"/>
              <path id="Path_1044018" data-name="Path 1044018" d="M183.426,205.494h.879a2.918,2.918,0,0,0,2.918-2.918v-.915a1.482,1.482,0,0,0-1.482-1.482h-2.158" transform="translate(-165.518 -200.179)" fill="none" stroke="#000" stroke-linecap="round" stroke-linejoin="round" stroke-miterlimit="10" stroke-width="1"/>
            </g>
            <path id="Path_1044019" data-name="Path 1044019" d="M113.735,246.968a3.526,3.526,0,0,0,3.494,0" transform="translate(-100.316 -227.732)" fill="none" stroke="#000" stroke-linecap="round" stroke-linejoin="round" stroke-miterlimit="10" stroke-width="1"/>
            <line id="Line_1183" data-name="Line 1183" y2="3.077" transform="translate(18.543 23.775)" fill="none" stroke="#000" stroke-linecap="round" stroke-linejoin="round" stroke-miterlimit="10" stroke-width="1"/>
            <line id="Line_1184" data-name="Line 1184" y2="3.077" transform="translate(11.789 23.775)" fill="none" stroke="#000" stroke-linecap="round" stroke-linejoin="round" stroke-miterlimit="10" stroke-width="1"/>
          </g>
        </g>
      </g>
    </g>
  </g>
</svg>
