<svg xmlns="http://www.w3.org/2000/svg" xmlns:xlink="http://www.w3.org/1999/xlink" width="113" height="113" viewBox="0 0 113 113">
  <defs>
    <filter id="Path_982547" x="0" y="0" width="113" height="113" filterUnits="userSpaceOnUse">
      <feOffset dy="3" input="SourceAlpha"/>
      <feGaussianBlur stdDeviation="3" result="blur"/>
      <feFlood flood-opacity="0.161"/>
      <feComposite operator="in" in2="blur"/>
      <feComposite in="SourceGraphic"/>
    </filter>
  </defs>
  <g id="Group_1204641" data-name="Group 1204641" transform="translate(-902 -3840)">
    <g id="Group_1204079" data-name="Group 1204079">
      <g id="Group_1203960" data-name="Group 1203960" transform="translate(0.44 1899.125)">
        <g id="Group_1203499" data-name="Group 1203499" transform="translate(0 -197.72)">
          <g id="Group_1202591" data-name="Group 1202591" transform="translate(910.561 2144.596)">
            <g id="Group_1172010" data-name="Group 1172010" transform="translate(0)">
              <g id="Group_1171046" data-name="Group 1171046">
                <g id="Group_1148525" data-name="Group 1148525">
                  <g transform="matrix(1, 0, 0, 1, -9, -6)" filter="url(#Path_982547)">
                    <g id="Path_982547-2" data-name="Path 982547" transform="translate(9 6)" fill="#ffeef4">
                      <path d="M 47.5 93.5 C 41.28937149047852 93.5 35.26533508300781 92.28397369384766 29.59518623352051 89.88570404052734 C 24.11771965026855 87.56893157958984 19.19813346862793 84.25196075439453 14.97309303283691 80.02691650390625 C 10.74804019927979 75.80186462402344 7.431066513061523 70.88229370117188 5.114293098449707 65.40481567382812 C 2.716026782989502 59.73468017578125 1.5 53.71062850952148 1.5 47.5 C 1.5 41.28937149047852 2.716026782989502 35.26533508300781 5.114293098449707 29.59518623352051 C 7.431066513061523 24.11771965026855 10.74804019927979 19.19813346862793 14.97309303283691 14.97309303283691 C 19.19813346862793 10.74804019927979 24.11771965026855 7.431066513061523 29.59518623352051 5.114293098449707 C 35.26533508300781 2.716026782989502 41.28937149047852 1.5 47.5 1.5 C 53.71062850952148 1.5 59.73468017578125 2.716026782989502 65.40481567382812 5.114293098449707 C 70.88229370117188 7.431066513061523 75.80186462402344 10.74804019927979 80.02691650390625 14.97309303283691 C 84.25196075439453 19.19813346862793 87.56893157958984 24.11771965026855 89.88570404052734 29.59518623352051 C 92.28397369384766 35.26533508300781 93.5 41.28937149047852 93.5 47.5 C 93.5 53.71062850952148 92.28397369384766 59.73468017578125 89.88570404052734 65.40481567382812 C 87.56893157958984 70.88229370117188 84.25196075439453 75.80186462402344 80.02691650390625 80.02691650390625 C 75.80186462402344 84.25196075439453 70.88229370117188 87.56893157958984 65.40481567382812 89.88570404052734 C 59.73468017578125 92.28397369384766 53.71062850952148 93.5 47.5 93.5 Z" stroke="none"/>
                      <path d="M 47.5 3 C 41.49121475219727 3 35.66376876831055 4.176155090332031 30.17950439453125 6.495796203613281 C 24.88084411621094 8.736953735351562 20.12152099609375 11.94598388671875 16.03375244140625 16.03375244140625 C 11.94598388671875 20.12152099609375 8.736953735351562 24.88084411621094 6.495796203613281 30.17950439453125 C 4.176155090332031 35.66376876831055 3 41.49121475219727 3 47.5 C 3 53.50878524780273 4.176155090332031 59.33623123168945 6.495796203613281 64.82049560546875 C 8.736953735351562 70.11915588378906 11.94598388671875 74.87847900390625 16.03375244140625 78.96624755859375 C 20.12152099609375 83.05401611328125 24.88084411621094 86.26304626464844 30.17950439453125 88.50419616699219 C 35.66376876831055 90.82384490966797 41.49121475219727 92 47.5 92 C 53.50878524780273 92 59.33623123168945 90.82384490966797 64.82049560546875 88.50419616699219 C 70.11915588378906 86.26304626464844 74.87847900390625 83.05401611328125 78.96624755859375 78.96624755859375 C 83.05401611328125 74.87847900390625 86.26304626464844 70.11915588378906 88.50419616699219 64.82049560546875 C 90.82384490966797 59.33623123168945 92 53.50878524780273 92 47.5 C 92 41.49121475219727 90.82384490966797 35.66376876831055 88.50419616699219 30.17950439453125 C 86.26304626464844 24.88084411621094 83.05401611328125 20.12152099609375 78.96624755859375 16.03375244140625 C 74.87847900390625 11.94598388671875 70.11915588378906 8.736953735351562 64.82049560546875 6.495796203613281 C 59.33623123168945 4.176155090332031 53.50878524780273 3 47.5 3 M 47.5 0 C 73.7335205078125 0 95 21.2664794921875 95 47.5 C 95 73.7335205078125 73.7335205078125 95 47.5 95 C 21.2664794921875 95 0 73.7335205078125 0 47.5 C 0 21.2664794921875 21.2664794921875 0 47.5 0 Z" stroke="none" fill="#8b5e6f"/>
                    </g>
                  </g>
                </g>
              </g>
            </g>
          </g>
        </g>
      </g>
      <g id="graph_6902588" transform="translate(928 3864.001)">
        <path id="Path_1045459" data-name="Path 1045459" d="M29.839,11.919A10.913,10.913,0,1,1,28.35,6.41,10.913,10.913,0,0,1,29.839,11.919Z" transform="translate(-0.059 -0.007)" fill="#f44335"/>
        <path id="Path_1045460" data-name="Path 1045460" d="M28.42,6.41a10.809,10.809,0,0,0-10.885-5.3,10.919,10.919,0,0,1,0,21.624A10.919,10.919,0,0,0,28.42,6.41Z" transform="translate(-0.128 -0.007)" fill="#c81e1e"/>
        <path id="Path_1045461" data-name="Path 1045461" d="M8.993,46h5.956a.993.993,0,0,1,.993.993v8.934H8V46.993A.993.993,0,0,1,8.993,46Z" transform="translate(-0.059 -0.337)" fill="#02a9f4"/>
        <path id="Path_1045462" data-name="Path 1045462" d="M14.978,46H12a.993.993,0,0,1,.993.993v8.934h2.978V46.993A.993.993,0,0,0,14.978,46Z" transform="translate(-0.088 -0.337)" fill="#0377bc"/>
        <path id="Path_1045463" data-name="Path 1045463" d="M22.993,45h5.956a.993.993,0,0,1,.993.993v9.927H22V45.993A.993.993,0,0,1,22.993,45Z" transform="translate(-0.161 -0.33)" fill="#02a9f4"/>
        <path id="Path_1045464" data-name="Path 1045464" d="M28.978,45H26a.993.993,0,0,1,.993.993v9.927h2.978V45.993A.993.993,0,0,0,28.978,45Z" transform="translate(-0.19 -0.33)" fill="#0377bc"/>
        <path id="Path_1045465" data-name="Path 1045465" d="M36.993,41h5.956a.993.993,0,0,1,.993.993v13.9H36v-13.9A.993.993,0,0,1,36.993,41Z" transform="translate(-0.264 -0.3)" fill="#02a9f4"/>
        <path id="Path_1045466" data-name="Path 1045466" d="M42.978,41H40a.993.993,0,0,1,.993.993v13.9h2.978v-13.9A.993.993,0,0,0,42.978,41Z" transform="translate(-0.293 -0.3)" fill="#0377bc"/>
        <path id="Path_1045467" data-name="Path 1045467" d="M50.993,32h5.956a.993.993,0,0,1,.993.993V55.824H50V32.993A.993.993,0,0,1,50.993,32Z" transform="translate(-0.366 -0.234)" fill="#02a9f4"/>
        <path id="Path_1045468" data-name="Path 1045468" d="M56.978,32H54a.993.993,0,0,1,.993.993V55.824h2.978V32.993A.993.993,0,0,0,56.978,32Z" transform="translate(-0.396 -0.234)" fill="#0377bc"/>
        <path id="Path_1045469" data-name="Path 1045469" d="M24.912,10.963v1.985a.993.993,0,0,1-.993.993H20.941v2.978a.993.993,0,0,1-.993.993H17.963a.993.993,0,0,1-.993-.993V13.941H13.993A.993.993,0,0,1,13,12.949V10.963a.993.993,0,0,1,.993-.993h2.978V6.993A.993.993,0,0,1,17.963,6h1.985a.993.993,0,0,1,.993.993V9.971h2.978A.993.993,0,0,1,24.912,10.963Z" transform="translate(-0.095 -0.044)" fill="#f5f5f5"/>
        <path id="Path_1045470" data-name="Path 1045470" d="M48.85,11.919A10.919,10.919,0,0,1,28.5,17.429a10.936,10.936,0,0,0,0-11.019,10.919,10.919,0,0,1,20.35,5.509Z" transform="translate(-0.209 -0.007)" fill="#ffdf00"/>
        <path id="Path_1045471" data-name="Path 1045471" d="M37.989,1a11.009,11.009,0,0,0-1.523.108,10.908,10.908,0,0,1,0,21.622A10.919,10.919,0,1,0,37.989,1Z" transform="translate(-0.267 -0.007)" fill="#fec108"/>
        <path id="Path_1045472" data-name="Path 1045472" d="M58.568,54.6V32.758a1.985,1.985,0,0,0-1.985-1.985H50.626a1.985,1.985,0,0,0-1.985,1.985V54.6H44.67v-12.9a1.985,1.985,0,0,0-1.985-1.985H36.729a1.985,1.985,0,0,0-1.985,1.985V54.6H30.773V45.663a1.985,1.985,0,0,0-1.985-1.985H22.832a1.985,1.985,0,0,0-1.985,1.985V54.6H16.875V46.656A1.985,1.985,0,0,0,14.89,44.67H8.934a1.985,1.985,0,0,0-1.985,1.985V54.6H4.963V.993a.993.993,0,0,0-1.985,0V54.6H.993a.993.993,0,0,0,0,1.985H2.978v1.985a.993.993,0,0,0,1.985,0V56.583h53.6a.993.993,0,0,0,0-1.985Zm-49.634,0V46.656H14.89V54.6Zm13.9,0V45.663h5.956V54.6Zm13.9,0v-12.9h5.956V54.6Zm13.9,0V32.758h5.956V54.6Z" transform="translate(0 0)"/>
        <path id="Path_1045473" data-name="Path 1045473" d="M23.912,8.971H21.927V6.985A1.985,1.985,0,0,0,19.941,5H17.956a1.985,1.985,0,0,0-1.985,1.985V8.971H13.985A1.985,1.985,0,0,0,12,10.956v1.985a1.985,1.985,0,0,0,1.985,1.985h1.985v1.985A1.985,1.985,0,0,0,17.956,18.9h1.985a1.985,1.985,0,0,0,1.985-1.985V14.927h1.985A1.985,1.985,0,0,0,25.9,12.941V10.956A1.985,1.985,0,0,0,23.912,8.971Zm0,3.971H20.934a.993.993,0,0,0-.993.993v2.978H17.956V13.934a.993.993,0,0,0-.993-.993H13.985V10.956h2.978a.993.993,0,0,0,.993-.993V6.985h1.985V9.963a.993.993,0,0,0,.993.993h2.978Z" transform="translate(-0.088 -0.037)"/>
        <path id="Path_1045474" data-name="Path 1045474" d="M37.773,0a11.952,11.952,0,0,0-9.44,4.649,11.912,11.912,0,1,0,0,14.527A11.912,11.912,0,1,0,37.773,0ZM18.912,21.839a9.927,9.927,0,1,1,9.927-9.927A9.927,9.927,0,0,1,18.912,21.839Zm18.861,0a9.942,9.942,0,0,1-8.278-4.482,11.813,11.813,0,0,0,0-10.89,9.919,9.919,0,1,1,8.278,15.372Z" transform="translate(-0.051 0)"/>
        <path id="Path_1045475" data-name="Path 1045475" d="M53.656,27.956a.993.993,0,0,0,.993-.993V22.993A.993.993,0,0,0,53.656,22H49.685a.993.993,0,0,0,0,1.985h1.546C30.281,44.335,8.422,39.938,8.2,39.89a.993.993,0,1,0-.42,1.942c4.063.871,10.094.541,14.529-.242,7.679-1.355,19.112-5.295,30.352-16.229v1.6A.993.993,0,0,0,53.656,27.956Z" transform="translate(-0.051 -0.161)"/>
        <path id="Path_1045476" data-name="Path 1045476" d="M37.978,10.963a.993.993,0,1,1,.861-1.489.993.993,0,0,0,1.718-.993,2.972,2.972,0,0,0-1.586-1.29v-.2a.993.993,0,0,0-1.985,0v.183a2.971,2.971,0,0,0,.993,5.773.993.993,0,1,1-.861,1.489.993.993,0,0,0-1.718.993,2.972,2.972,0,0,0,1.586,1.29v.2a.993.993,0,0,0,1.985,0v-.183a2.971,2.971,0,0,0-.993-5.773Z" transform="translate(-0.256 -0.044)"/>
      </g>
    </g>
  </g>
</svg>
