<svg xmlns="http://www.w3.org/2000/svg" xmlns:xlink="http://www.w3.org/1999/xlink" width="113" height="113" viewBox="0 0 113 113">
  <defs>
    <filter id="Path_982547" x="0" y="0" width="113" height="113" filterUnits="userSpaceOnUse">
      <feOffset dy="3" input="SourceAlpha"/>
      <feGaussianBlur stdDeviation="3" result="blur"/>
      <feFlood flood-opacity="0.161"/>
      <feComposite operator="in" in2="blur"/>
      <feComposite in="SourceGraphic"/>
    </filter>
  </defs>
  <g id="Group_1203551" data-name="Group 1203551" transform="translate(-1164.648 -4232.648)">
    <g id="Group_1203116" data-name="Group 1203116">
      <g id="Group_1202634" data-name="Group 1202634" transform="translate(1173.648 4238.648)">
        <g id="Group_1172010" data-name="Group 1172010">
          <g id="Group_1171046" data-name="Group 1171046">
            <g id="Group_1148525" data-name="Group 1148525">
              <g transform="matrix(1, 0, 0, 1, -9, -6)" filter="url(#Path_982547)">
                <g id="Path_982547-2" data-name="Path 982547" transform="translate(9 6)" fill="#f7fbfc">
                  <path d="M 47.5 93.5 C 41.28937149047852 93.5 35.26533508300781 92.28397369384766 29.59518623352051 89.88570404052734 C 24.11771965026855 87.56893157958984 19.19813346862793 84.25196075439453 14.97309303283691 80.02691650390625 C 10.74804019927979 75.80186462402344 7.431066513061523 70.88229370117188 5.114293098449707 65.40481567382812 C 2.716026782989502 59.73468017578125 1.5 53.71062850952148 1.5 47.5 C 1.5 41.28937149047852 2.716026782989502 35.26533508300781 5.114293098449707 29.59518623352051 C 7.431066513061523 24.11771965026855 10.74804019927979 19.19813346862793 14.97309303283691 14.97309303283691 C 19.19813346862793 10.74804019927979 24.11771965026855 7.431066513061523 29.59518623352051 5.114293098449707 C 35.26533508300781 2.716026782989502 41.28937149047852 1.5 47.5 1.5 C 53.71062850952148 1.5 59.73468017578125 2.716026782989502 65.40481567382812 5.114293098449707 C 70.88229370117188 7.431066513061523 75.80186462402344 10.74804019927979 80.02691650390625 14.97309303283691 C 84.25196075439453 19.19813346862793 87.56893157958984 24.11771965026855 89.88570404052734 29.59518623352051 C 92.28397369384766 35.26533508300781 93.5 41.28937149047852 93.5 47.5 C 93.5 53.71062850952148 92.28397369384766 59.73468017578125 89.88570404052734 65.40481567382812 C 87.56893157958984 70.88229370117188 84.25196075439453 75.80186462402344 80.02691650390625 80.02691650390625 C 75.80186462402344 84.25196075439453 70.88229370117188 87.56893157958984 65.40481567382812 89.88570404052734 C 59.73468017578125 92.28397369384766 53.71062850952148 93.5 47.5 93.5 Z" stroke="none"/>
                  <path d="M 47.5 3 C 41.49121475219727 3 35.66376876831055 4.176155090332031 30.17950439453125 6.495796203613281 C 24.88084411621094 8.736953735351562 20.12152099609375 11.94598388671875 16.03375244140625 16.03375244140625 C 11.94598388671875 20.12152099609375 8.736953735351562 24.88084411621094 6.495796203613281 30.17950439453125 C 4.176155090332031 35.66376876831055 3 41.49121475219727 3 47.5 C 3 53.50878524780273 4.176155090332031 59.33623123168945 6.495796203613281 64.82049560546875 C 8.736953735351562 70.11915588378906 11.94598388671875 74.87847900390625 16.03375244140625 78.96624755859375 C 20.12152099609375 83.05401611328125 24.88084411621094 86.26304626464844 30.17950439453125 88.50419616699219 C 35.66376876831055 90.82384490966797 41.49121475219727 92 47.5 92 C 53.50878524780273 92 59.33623123168945 90.82384490966797 64.82049560546875 88.50419616699219 C 70.11915588378906 86.26304626464844 74.87847900390625 83.05401611328125 78.96624755859375 78.96624755859375 C 83.05401611328125 74.87847900390625 86.26304626464844 70.11915588378906 88.50419616699219 64.82049560546875 C 90.82384490966797 59.33623123168945 92 53.50878524780273 92 47.5 C 92 41.49121475219727 90.82384490966797 35.66376876831055 88.50419616699219 30.17950439453125 C 86.26304626464844 24.88084411621094 83.05401611328125 20.12152099609375 78.96624755859375 16.03375244140625 C 74.87847900390625 11.94598388671875 70.11915588378906 8.736953735351562 64.82049560546875 6.495796203613281 C 59.33623123168945 4.176155090332031 53.50878524780273 3 47.5 3 M 47.5 0 C 73.7335205078125 0 95 21.2664794921875 95 47.5 C 95 73.7335205078125 73.7335205078125 95 47.5 95 C 21.2664794921875 95 0 73.7335205078125 0 47.5 C 0 21.2664794921875 21.2664794921875 0 47.5 0 Z" stroke="none" fill="#62797e"/>
                </g>
              </g>
            </g>
          </g>
        </g>
      </g>
      <g id="opacity_1045277" transform="translate(1191.344 4256.344)">
        <path id="Path_1043725" data-name="Path 1043725" d="M24.644,159.64a20.523,20.523,0,0,1,.22-3A20.36,20.36,0,1,0,48,179.779,20.37,20.37,0,0,1,24.644,159.64Z" transform="translate(-6.627 -138.408)" fill="#57a4ff"/>
        <path id="Path_1043726" data-name="Path 1043726" d="M197.144,27.859a20.36,20.36,0,0,0-40.5-2.995A20.37,20.37,0,0,1,179.78,48,20.363,20.363,0,0,0,197.144,27.859Z" transform="translate(-138.409 -6.627)" fill="#ffb655"/>
        <path id="Path_1043727" data-name="Path 1043727" d="M157.972,154.757a20.522,20.522,0,0,0-3,.22,20.37,20.37,0,0,0,23.134,23.134,20.37,20.37,0,0,0-20.139-23.354Z" transform="translate(-136.74 -136.74)" fill="#91dc5a"/>
        <g id="Group_1203111" data-name="Group 1203111" transform="translate(0.873 18.237)">
          <path id="Path_1043728" data-name="Path 1043728" d="M10.993,176.785A20.366,20.366,0,0,1,24.754,157.52q.046-.44.11-.874a20.36,20.36,0,0,0,2.995,40.5q.883,0,1.746-.074A20.361,20.361,0,0,1,10.993,176.785Z" transform="translate(-7.5 -156.646)" fill="#006df0"/>
          <path id="Path_1043729" data-name="Path 1043729" d="M345.818,355.567q.017-.106.033-.213-.62.092-1.252.146Q345.2,355.551,345.818,355.567Z" transform="translate(-305.352 -332.22)" fill="#006df0"/>
        </g>
        <g id="Group_1203112" data-name="Group 1203112" transform="translate(18.237 0.873)">
          <path id="Path_1043730" data-name="Path 1043730" d="M178.53,7.574q-.863-.073-1.746-.074a20.363,20.363,0,0,0-20.139,17.364,20.523,20.523,0,0,1,3-.22q.266,0,.53.007A20.368,20.368,0,0,1,178.53,7.574Z" transform="translate(-156.645 -7.5)" fill="#ff7956"/>
          <path id="Path_1043731" data-name="Path 1043731" d="M219.393,177.238a20.366,20.366,0,0,0-20.249-22.48q-.881,0-1.743.074a20.372,20.372,0,0,1,18.389,23.28A20.233,20.233,0,0,0,219.393,177.238Z" transform="translate(-192.656 -137.614)" fill="#ff7956"/>
        </g>
        <path id="Path_1043732" data-name="Path 1043732" d="M158.25,157.972a20.522,20.522,0,0,1,.22-3q.62-.092,1.252-.146-.865-.074-1.75-.074a20.522,20.522,0,0,0-3,.22,20.37,20.37,0,0,0,20.139,23.354q.881,0,1.743-.074A20.361,20.361,0,0,1,158.25,157.972Z" transform="translate(-136.74 -136.74)" fill="#64c37d"/>
        <path id="Path_1043733" data-name="Path 1043733" d="M294.4,407.111l1.374,1.078c.376-.479.732-.982,1.059-1.5l-1.474-.937C295.066,406.222,294.743,406.677,294.4,407.111Z" transform="translate(-260.128 -358.518)"/>
        <path id="Path_1043734" data-name="Path 1043734" d="M307.457,386.239l1.533.836c.292-.535.56-1.091.8-1.652l-1.609-.678A16.541,16.541,0,0,1,307.457,386.239Z" transform="translate(-271.662 -339.952)"/>
        <path id="Path_1043735" data-name="Path 1043735" d="M278.255,425.84l1.178,1.29c.45-.411.884-.848,1.29-1.3l-1.3-1.167C279.055,425.072,278.662,425.468,278.255,425.84Z" transform="translate(-245.86 -375.222)"/>
        <path id="Path_1043736" data-name="Path 1043736" d="M259.467,441.917l.948,1.466c.511-.33,1.011-.69,1.487-1.07l-1.089-1.365C260.382,441.292,259.929,441.618,259.467,441.917Z" transform="translate(-229.259 -389.612)"/>
        <g id="Group_1203113" data-name="Group 1203113" transform="translate(2.911 38.376)">
          <path id="Path_1043737" data-name="Path 1043737" d="M140.878,468.664a18.211,18.211,0,0,0,1.79.394l.289-1.722a16.5,16.5,0,0,1-1.618-.356Z" transform="translate(-127.387 -450.989)" fill="#fff"/>
          <path id="Path_1043738" data-name="Path 1043738" d="M166.659,473.033c.6.06,1.219.091,1.829.091v-1.746c-.553,0-1.11-.028-1.656-.082Z" transform="translate(-150.167 -454.802)" fill="#fff"/>
          <path id="Path_1043739" data-name="Path 1043739" d="M26.746,329.628H25a18.346,18.346,0,0,0,12.323,17.313l.573-1.65A16.6,16.6,0,0,1,26.746,329.628Z" transform="translate(-25 -329.628)" fill="#fff"/>
        </g>
        <path id="Path_1043740" data-name="Path 1043740" d="M182.2,71.034l1.636.612a16.664,16.664,0,0,1,4.652-6.7l-1.147-1.317A18.416,18.416,0,0,0,182.2,71.034Z" transform="translate(-160.99 -56.22)"/>
        <g id="Group_1203114" data-name="Group 1203114" transform="translate(38.376 2.911)">
          <path id="Path_1043741" data-name="Path 1043741" d="M376.8,33.661l-.573,1.65a16.6,16.6,0,0,1,11.15,15.664h1.746A18.347,18.347,0,0,0,376.8,33.661Z" transform="translate(-370.803 -32.653)" fill="#fff"/>
          <path id="Path_1043742" data-name="Path 1043742" d="M353.263,28.89a16.506,16.506,0,0,1,1.618.356l.461-1.684a18.213,18.213,0,0,0-1.79-.394Z" transform="translate(-350.511 -26.916)" fill="#fff"/>
          <path id="Path_1043743" data-name="Path 1043743" d="M329.629,26.746c.553,0,1.11.028,1.656.082l.173-1.738c-.6-.06-1.219-.091-1.829-.091Z" transform="translate(-329.629 -25)" fill="#fff"/>
        </g>
        <path id="Path_1043744" data-name="Path 1043744" d="M38.376,0a21.238,21.238,0,0,0-20.9,17.477A21.232,21.232,0,1,0,42.132,42.132,21.233,21.233,0,0,0,38.376,0ZM21.232,57.862A19.487,19.487,0,0,1,18.365,19.1a19.716,19.716,0,0,1,2.868-.21A19.508,19.508,0,0,1,40.718,38.376,19.474,19.474,0,0,1,21.232,57.862ZM42.377,40.306c.058-.642.087-1.288.087-1.929A21.256,21.256,0,0,0,21.232,17.144c-.642,0-1.287.029-1.929.087A19.487,19.487,0,1,1,42.377,40.306Z"/>
        <path id="Path_1043745" data-name="Path 1043745" d="M168.489,197.028A19.508,19.508,0,0,1,149,177.542c0-.193,0-.39.009-.584l-1.746-.052c-.006.212-.01.426-.01.636a21.256,21.256,0,0,0,21.232,21.232c.209,0,.423,0,.635-.009l-.052-1.746C168.878,197.025,168.681,197.028,168.489,197.028Z" transform="translate(-130.113 -156.31)"/>
        <g id="Group_1203115" data-name="Group 1203115" transform="translate(24.371 20.384)">
          <path id="Path_1043746" data-name="Path 1043746" d="M234.459,182.923a18.3,18.3,0,0,0-1.683-.729l-.613,1.635a16.529,16.529,0,0,1,1.522.659Z" transform="translate(-229.505 -181.367)" fill="#fff"/>
          <path id="Path_1043747" data-name="Path 1043747" d="M254.48,193.419l-.877,1.51A16.587,16.587,0,0,1,261.6,206.19l1.716-.324A18.332,18.332,0,0,0,254.48,193.419Z" transform="translate(-248.449 -191.285)" fill="#fff"/>
          <path id="Path_1043748" data-name="Path 1043748" d="M211.442,175.524a18.245,18.245,0,0,0-1.782-.437l-.33,1.715a16.5,16.5,0,0,1,1.611.4Z" transform="translate(-209.33 -175.087)" fill="#fff"/>
        </g>
      </g>
    </g>
  </g>
</svg>
