<svg xmlns="http://www.w3.org/2000/svg" xmlns:xlink="http://www.w3.org/1999/xlink" width="113" height="113" viewBox="0 0 113 113">
  <defs>
    <filter id="Path_982547" x="0" y="0" width="113" height="113" filterUnits="userSpaceOnUse">
      <feOffset dy="3" input="SourceAlpha"/>
      <feGaussianBlur stdDeviation="3" result="blur"/>
      <feFlood flood-opacity="0.161"/>
      <feComposite operator="in" in2="blur"/>
      <feComposite in="SourceGraphic"/>
    </filter>
  </defs>
  <g id="Group_1204662" data-name="Group 1204662" transform="translate(-1216.56 -1104.772)">
    <g id="Group_1204224" data-name="Group 1204224">
      <g id="Group_1203975" data-name="Group 1203975" transform="translate(0 -49.675)">
        <g id="Group_1203495" data-name="Group 1203495" transform="translate(0 -984.148)">
          <g id="Group_1202592" data-name="Group 1202592" transform="translate(1225.561 2144.596)">
            <g id="Group_1172010" data-name="Group 1172010" transform="translate(0)">
              <g id="Group_1171046" data-name="Group 1171046">
                <g id="Group_1148525" data-name="Group 1148525">
                  <g transform="matrix(1, 0, 0, 1, -9, -6)" filter="url(#Path_982547)">
                    <g id="Path_982547-2" data-name="Path 982547" transform="translate(9 6)" fill="#f4f4fd">
                      <path d="M 47.5 93.5 C 41.28937149047852 93.5 35.26533508300781 92.28397369384766 29.59518623352051 89.88570404052734 C 24.11771965026855 87.56893157958984 19.19813346862793 84.25196075439453 14.97309303283691 80.02691650390625 C 10.74804019927979 75.80186462402344 7.431066513061523 70.88229370117188 5.114293098449707 65.40481567382812 C 2.716026782989502 59.73468017578125 1.5 53.71062850952148 1.5 47.5 C 1.5 41.28937149047852 2.716026782989502 35.26533508300781 5.114293098449707 29.59518623352051 C 7.431066513061523 24.11771965026855 10.74804019927979 19.19813346862793 14.97309303283691 14.97309303283691 C 19.19813346862793 10.74804019927979 24.11771965026855 7.431066513061523 29.59518623352051 5.114293098449707 C 35.26533508300781 2.716026782989502 41.28937149047852 1.5 47.5 1.5 C 53.71062850952148 1.5 59.73468017578125 2.716026782989502 65.40481567382812 5.114293098449707 C 70.88229370117188 7.431066513061523 75.80186462402344 10.74804019927979 80.02691650390625 14.97309303283691 C 84.25196075439453 19.19813346862793 87.56893157958984 24.11771965026855 89.88570404052734 29.59518623352051 C 92.28397369384766 35.26533508300781 93.5 41.28937149047852 93.5 47.5 C 93.5 53.71062850952148 92.28397369384766 59.73468017578125 89.88570404052734 65.40481567382812 C 87.56893157958984 70.88229370117188 84.25196075439453 75.80186462402344 80.02691650390625 80.02691650390625 C 75.80186462402344 84.25196075439453 70.88229370117188 87.56893157958984 65.40481567382812 89.88570404052734 C 59.73468017578125 92.28397369384766 53.71062850952148 93.5 47.5 93.5 Z" stroke="none"/>
                      <path d="M 47.5 3 C 41.49121475219727 3 35.66376876831055 4.176155090332031 30.17950439453125 6.495796203613281 C 24.88084411621094 8.736953735351562 20.12152099609375 11.94598388671875 16.03375244140625 16.03375244140625 C 11.94598388671875 20.12152099609375 8.736953735351562 24.88084411621094 6.495796203613281 30.17950439453125 C 4.176155090332031 35.66376876831055 3 41.49121475219727 3 47.5 C 3 53.50878524780273 4.176155090332031 59.33623123168945 6.495796203613281 64.82049560546875 C 8.736953735351562 70.11915588378906 11.94598388671875 74.87847900390625 16.03375244140625 78.96624755859375 C 20.12152099609375 83.05401611328125 24.88084411621094 86.26304626464844 30.17950439453125 88.50419616699219 C 35.66376876831055 90.82384490966797 41.49121475219727 92 47.5 92 C 53.50878524780273 92 59.33623123168945 90.82384490966797 64.82049560546875 88.50419616699219 C 70.11915588378906 86.26304626464844 74.87847900390625 83.05401611328125 78.96624755859375 78.96624755859375 C 83.05401611328125 74.87847900390625 86.26304626464844 70.11915588378906 88.50419616699219 64.82049560546875 C 90.82384490966797 59.33623123168945 92 53.50878524780273 92 47.5 C 92 41.49121475219727 90.82384490966797 35.66376876831055 88.50419616699219 30.17950439453125 C 86.26304626464844 24.88084411621094 83.05401611328125 20.12152099609375 78.96624755859375 16.03375244140625 C 74.87847900390625 11.94598388671875 70.11915588378906 8.736953735351562 64.82049560546875 6.495796203613281 C 59.33623123168945 4.176155090332031 53.50878524780273 3 47.5 3 M 47.5 0 C 73.7335205078125 0 95 21.2664794921875 95 47.5 C 95 73.7335205078125 73.7335205078125 95 47.5 95 C 21.2664794921875 95 0 73.7335205078125 0 47.5 C 0 21.2664794921875 21.2664794921875 0 47.5 0 Z" stroke="none" fill="#6f6e88"/>
                    </g>
                  </g>
                </g>
              </g>
            </g>
          </g>
        </g>
      </g>
      <g id="equality_7408172" transform="translate(1227.262 1074.035)">
        <g id="Group_1204222" data-name="Group 1204222" transform="translate(7.5 60.5)">
          <path id="Path_1046199" data-name="Path 1046199" d="M462.074,146.345H458.5V139.5h3.574a3.423,3.423,0,0,1,3.422,3.422h0A3.423,3.423,0,0,1,462.074,146.345Z" transform="translate(-389.899 -127.483)" fill="#a4766e"/>
          <path id="Path_1046200" data-name="Path 1046200" d="M301.922,146.345H305.5V139.5h-3.575a3.422,3.422,0,0,0-3.422,3.422h0A3.422,3.422,0,0,0,301.922,146.345Z" transform="translate(-254.237 -127.483)" fill="#a4766e"/>
          <path id="Path_1046201" data-name="Path 1046201" d="M344.691,87.727h0A10.191,10.191,0,0,1,334.5,77.536V70.691A10.191,10.191,0,0,1,344.691,60.5h0a10.191,10.191,0,0,1,10.191,10.191v6.845A10.191,10.191,0,0,1,344.691,87.727Z" transform="translate(-284.761 -60.5)" fill="#bd8580"/>
          <path id="Path_1046202" data-name="Path 1046202" d="M398.973,70.691v6.845A10.2,10.2,0,0,1,386.5,87.47a10.2,10.2,0,0,0,7.91-9.934V70.691a10.192,10.192,0,0,0-7.91-9.934,10.192,10.192,0,0,1,12.473,9.934Z" transform="translate(-328.851 -60.5)" fill="#a4766e"/>
          <path id="Path_1046203" data-name="Path 1046203" d="M171.075,146.345H167.5V139.5h3.575a3.423,3.423,0,0,1,3.422,3.422h0A3.423,3.423,0,0,1,171.075,146.345Z" transform="translate(-143.163 -127.483)" fill="#ffb09e"/>
          <path id="Path_1046204" data-name="Path 1046204" d="M10.922,146.345H14.5V139.5H10.922A3.423,3.423,0,0,0,7.5,142.922h0A3.423,3.423,0,0,0,10.922,146.345Z" transform="translate(-7.5 -127.483)" fill="#ffb09e"/>
          <path id="Path_1046205" data-name="Path 1046205" d="M53.691,87.727h0A10.191,10.191,0,0,1,43.5,77.536V70.691A10.191,10.191,0,0,1,53.691,60.5h0A10.191,10.191,0,0,1,63.882,70.691v6.845A10.191,10.191,0,0,1,53.691,87.727Z" transform="translate(-38.024 -60.5)" fill="#ffcebf"/>
          <path id="Path_1046206" data-name="Path 1046206" d="M107.973,70.691v6.845A10.2,10.2,0,0,1,95.5,87.47a10.2,10.2,0,0,0,7.91-9.934V70.691a10.192,10.192,0,0,0-7.91-9.934,10.192,10.192,0,0,1,12.473,9.934Z" transform="translate(-82.114 -60.5)" fill="#ffb09e"/>
          <path id="Path_1046207" data-name="Path 1046207" d="M96.253,274.063H28.261a.761.761,0,0,1-.761-.761v-3.042a.761.761,0,0,1,.761-.761H96.253a.761.761,0,0,1,.761.761V273.3A.761.761,0,0,1,96.253,274.063Z" transform="translate(-24.458 -237.709)" fill="#f5f0f3"/>
          <path id="Path_1046208" data-name="Path 1046208" d="M456.611,270.257V273.3a.761.761,0,0,1-.76.761l-4.243,0a.761.761,0,0,0,.76-.761v-3.042a.762.762,0,0,0-.7-.758h4.177A.762.762,0,0,1,456.611,270.257Z" transform="translate(-384.056 -237.705)" fill="#e4dfe3"/>
          <path id="Path_1046209" data-name="Path 1046209" d="M202.425,260.339H179l4.04-18.447a3.042,3.042,0,0,1,2.972-2.391h9.4a3.042,3.042,0,0,1,2.972,2.391Z" transform="translate(-152.913 -212.273)" fill="#9ff497"/>
          <path id="Path_1046210" data-name="Path 1046210" d="M268.484,260.339h-4.563l-4.04-18.448a3.041,3.041,0,0,0-2.971-2.391h4.563a3.042,3.042,0,0,1,2.971,2.391Z" transform="translate(-218.973 -212.273)" fill="#6ce79a"/>
          <path id="Path_1046211" data-name="Path 1046211" d="M243.282,274.063h0A2.282,2.282,0,0,1,241,271.782h0a2.282,2.282,0,0,1,2.282-2.282h0a2.282,2.282,0,0,1,2.282,2.282h0A2.282,2.282,0,0,1,243.282,274.063Z" transform="translate(-205.483 -237.709)" fill="#6ce79a"/>
          <path id="Path_1046212" data-name="Path 1046212" d="M191.858,376.5H167.521A1.521,1.521,0,0,0,166,378.021v3.042h27.379v-3.042A1.521,1.521,0,0,0,191.858,376.5Z" transform="translate(-141.891 -328.434)" fill="#f5f0f3"/>
          <path id="Path_1046213" data-name="Path 1046213" d="M312.084,378.021v3.042h-4.563v-3.042A1.522,1.522,0,0,0,306,376.5h4.563A1.522,1.522,0,0,1,312.084,378.021Z" transform="translate(-260.596 -328.434)" fill="#e4dfe3"/>
          <path id="Path_1046214" data-name="Path 1046214" d="M177.247,413.345H146.521A1.521,1.521,0,0,1,145,411.824v-3.8a1.521,1.521,0,0,1,1.521-1.521h30.726a1.521,1.521,0,0,1,1.521,1.521v3.8A1.521,1.521,0,0,1,177.247,413.345Z" transform="translate(-124.085 -353.871)" fill="#806d7a"/>
          <path id="Path_1046215" data-name="Path 1046215" d="M333.084,408.021v3.8a1.522,1.522,0,0,1-1.521,1.521H327a1.522,1.522,0,0,0,1.521-1.521v-3.8A1.522,1.522,0,0,0,327,406.5h4.563A1.522,1.522,0,0,1,333.084,408.021Z" transform="translate(-278.401 -353.871)" fill="#6c5e69"/>
        </g>
        <g id="Group_1204223" data-name="Group 1204223" transform="translate(7.5 60.5)">
          <path id="Path_1046216" data-name="Path 1046216" d="M171.52,376.5h-4A1.521,1.521,0,0,0,166,378.021v2.862" transform="translate(-141.891 -328.434)" fill="none" stroke="#000" stroke-linecap="round" stroke-linejoin="round" stroke-miterlimit="10" stroke-width="1"/>
          <path id="Path_1046217" data-name="Path 1046217" d="M253.824,380.86v-2.839A1.521,1.521,0,0,0,252.3,376.5H237.288" transform="translate(-202.335 -328.434)" fill="none" stroke="#000" stroke-linecap="round" stroke-linejoin="round" stroke-miterlimit="10" stroke-width="1"/>
          <path id="Path_1046218" data-name="Path 1046218" d="M169.771,413.345h-23.25A1.521,1.521,0,0,1,145,411.824v-3.8a1.521,1.521,0,0,1,1.521-1.521h30.726a1.521,1.521,0,0,1,1.521,1.521v3.8a1.521,1.521,0,0,1-1.521,1.521h-2.153" transform="translate(-124.085 -353.871)" fill="none" stroke="#000" stroke-linecap="round" stroke-linejoin="round" stroke-miterlimit="10" stroke-width="1"/>
          <path id="Path_1046219" data-name="Path 1046219" d="M12.845,139.5H10.922A3.423,3.423,0,0,0,7.5,142.922h0a3.423,3.423,0,0,0,3.422,3.422h2.053" transform="translate(-7.5 -127.483)" fill="none" stroke="#000" stroke-linecap="round" stroke-linejoin="round" stroke-miterlimit="10" stroke-width="1"/>
          <path id="Path_1046220" data-name="Path 1046220" d="M344.691,87.727h0A10.191,10.191,0,0,1,334.5,77.536V70.691A10.191,10.191,0,0,1,344.691,60.5h0a10.191,10.191,0,0,1,10.191,10.191v6.845A10.191,10.191,0,0,1,344.691,87.727Z" transform="translate(-284.761 -60.5)" fill="none" stroke="#000" stroke-linecap="round" stroke-linejoin="round" stroke-miterlimit="10" stroke-width="1"/>
          <path id="Path_1046221" data-name="Path 1046221" d="M468.735,139.5h1.818a3.422,3.422,0,0,1,3.422,3.422h0a3.422,3.422,0,0,1-3.422,3.422H468.5" transform="translate(-398.378 -127.483)" fill="none" stroke="#000" stroke-linecap="round" stroke-linejoin="round" stroke-miterlimit="10" stroke-width="1"/>
          <path id="Path_1046222" data-name="Path 1046222" d="M303.818,139.5h-1.9a3.422,3.422,0,0,0-3.422,3.422h0a3.422,3.422,0,0,0,3.422,3.422h2.053" transform="translate(-254.237 -127.483)" fill="none" stroke="#000" stroke-linecap="round" stroke-linejoin="round" stroke-miterlimit="10" stroke-width="1"/>
          <line id="Line_1246" data-name="Line 1246" y2="1.521" transform="translate(64.418 14.298)" fill="none" stroke="#000" stroke-linecap="round" stroke-linejoin="round" stroke-miterlimit="10" stroke-width="1"/>
          <line id="Line_1247" data-name="Line 1247" y2="1.521" transform="translate(55.443 14.298)" fill="none" stroke="#000" stroke-linecap="round" stroke-linejoin="round" stroke-miterlimit="10" stroke-width="1"/>
          <path id="Path_1046223" data-name="Path 1046223" d="M387.094,192.559a4.034,4.034,0,0,1-3.153,1.512h0a4.035,4.035,0,0,1-3.153-1.512" transform="translate(-324.009 -172.472)" fill="none" stroke="#000" stroke-linecap="round" stroke-linejoin="round" stroke-miterlimit="10" stroke-width="1"/>
          <path id="Path_1046224" data-name="Path 1046224" d="M53.691,87.727h0A10.191,10.191,0,0,1,43.5,77.536V70.691A10.191,10.191,0,0,1,53.691,60.5h0A10.191,10.191,0,0,1,63.882,70.691v6.845A10.191,10.191,0,0,1,53.691,87.727Z" transform="translate(-38.024 -60.5)" fill="none" stroke="#000" stroke-linecap="round" stroke-linejoin="round" stroke-miterlimit="10" stroke-width="1"/>
          <path id="Path_1046225" data-name="Path 1046225" d="M177.731,139.5h1.822a3.423,3.423,0,0,1,3.422,3.422h0a3.423,3.423,0,0,1-3.422,3.422H177.5" transform="translate(-151.642 -127.483)" fill="none" stroke="#000" stroke-linecap="round" stroke-linejoin="round" stroke-miterlimit="10" stroke-width="1"/>
          <line id="Line_1248" data-name="Line 1248" y2="1.521" transform="translate(20.154 14.298)" fill="none" stroke="#000" stroke-linecap="round" stroke-linejoin="round" stroke-miterlimit="10" stroke-width="1"/>
          <line id="Line_1249" data-name="Line 1249" y2="1.521" transform="translate(11.18 14.298)" fill="none" stroke="#000" stroke-linecap="round" stroke-linejoin="round" stroke-miterlimit="10" stroke-width="1"/>
          <path id="Path_1046226" data-name="Path 1046226" d="M96.094,192.559a4.035,4.035,0,0,1-3.153,1.512h0a4.035,4.035,0,0,1-3.153-1.512" transform="translate(-77.272 -172.472)" fill="none" stroke="#000" stroke-linecap="round" stroke-linejoin="round" stroke-miterlimit="10" stroke-width="1"/>
          <path id="Path_1046227" data-name="Path 1046227" d="M313.357,269.5h25.272a.761.761,0,0,1,.761.761V273.3a.761.761,0,0,1-.761.761H314.682" transform="translate(-266.834 -237.709)" fill="none" stroke="#000" stroke-linecap="round" stroke-linejoin="round" stroke-miterlimit="10" stroke-width="1"/>
          <path id="Path_1046228" data-name="Path 1046228" d="M52.635,274.063H28.261a.761.761,0,0,1-.761-.761v-3.042a.761.761,0,0,1,.761-.761h25.56" transform="translate(-24.458 -237.709)" fill="none" stroke="#000" stroke-linecap="round" stroke-linejoin="round" stroke-miterlimit="10" stroke-width="1"/>
          <path id="Path_1046229" data-name="Path 1046229" d="M179,260.339l4.04-18.447a3.042,3.042,0,0,1,2.972-2.391h9.4a3.042,3.042,0,0,1,2.972,2.391l4.04,18.447" transform="translate(-152.913 -212.273)" fill="none" stroke="#000" stroke-linecap="round" stroke-linejoin="round" stroke-miterlimit="10" stroke-width="1"/>
          <path id="Path_1046230" data-name="Path 1046230" d="M243.282,274.063h0A2.282,2.282,0,0,1,241,271.782h0a2.282,2.282,0,0,1,2.282-2.282h0a2.282,2.282,0,0,1,2.282,2.282h0A2.282,2.282,0,0,1,243.282,274.063Z" transform="translate(-205.483 -237.709)" fill="none" stroke="#000" stroke-linecap="round" stroke-linejoin="round" stroke-miterlimit="10" stroke-width="1"/>
        </g>
      </g>
    </g>
  </g>
</svg>
