<svg xmlns="http://www.w3.org/2000/svg" xmlns:xlink="http://www.w3.org/1999/xlink" width="118" height="118" viewBox="0 0 118 118">
  <defs>
    <filter id="Path_982547" x="0" y="0" width="118" height="118" filterUnits="userSpaceOnUse">
      <feOffset dy="3" input="SourceAlpha"/>
      <feGaussianBlur stdDeviation="3" result="blur"/>
      <feFlood flood-opacity="0.161"/>
      <feComposite operator="in" in2="blur"/>
      <feComposite in="SourceGraphic"/>
    </filter>
  </defs>
  <g id="Group_1203503" data-name="Group 1203503" transform="translate(-834.5 -1050)">
    <g id="Group_1202885" data-name="Group 1202885">
      <g id="Group_1178316" data-name="Group 1178316" transform="translate(630 -3861.545)">
        <g id="Group_1173988" data-name="Group 1173988" transform="translate(213.5 4917.545)">
          <g id="Group_1172010" data-name="Group 1172010">
            <g id="Group_1171046" data-name="Group 1171046">
              <g id="Group_1148525" data-name="Group 1148525">
                <g transform="matrix(1, 0, 0, 1, -9, -6)" filter="url(#Path_982547)">
                  <g id="Path_982547-2" data-name="Path 982547" transform="translate(9 6)" fill="#f7fbfc">
                    <path d="M 50 98.5 C 43.45188522338867 98.5 37.10042953491211 97.21787261962891 31.12207221984863 94.68923950195312 C 25.34691429138184 92.24655914306641 20.15997123718262 88.74931335449219 15.70532894134521 84.29468536376953 C 11.2506856918335 79.84004211425781 7.753442764282227 74.65309906005859 5.310757160186768 68.8779296875 C 2.782128572463989 62.89957046508789 1.5 56.54811477661133 1.5 50 C 1.5 43.45188522338867 2.782128572463989 37.10042953491211 5.310757160186768 31.12207221984863 C 7.753442764282227 25.34691429138184 11.2506856918335 20.15997123718262 15.70532894134521 15.70532894134521 C 20.15997123718262 11.2506856918335 25.34691429138184 7.753442764282227 31.12207221984863 5.310757160186768 C 37.10042953491211 2.782128572463989 43.45188522338867 1.5 50 1.5 C 56.54811477661133 1.5 62.89957046508789 2.782128572463989 68.8779296875 5.310757160186768 C 74.65309906005859 7.753442764282227 79.84004211425781 11.2506856918335 84.29468536376953 15.70532894134521 C 88.74931335449219 20.15997123718262 92.24655914306641 25.34691429138184 94.68923950195312 31.12207221984863 C 97.21787261962891 37.10042953491211 98.5 43.45188522338867 98.5 50 C 98.5 56.54811477661133 97.21787261962891 62.89957046508789 94.68923950195312 68.8779296875 C 92.24655914306641 74.65309906005859 88.74931335449219 79.84004211425781 84.29468536376953 84.29468536376953 C 79.84004211425781 88.74931335449219 74.65309906005859 92.24655914306641 68.8779296875 94.68923950195312 C 62.89957046508789 97.21787261962891 56.54811477661133 98.5 50 98.5 Z" stroke="none"/>
                    <path d="M 50 3 C 43.65372467041016 3 37.49886322021484 4.242263793945312 31.70639801025391 6.6922607421875 C 26.11003112792969 9.059326171875 21.08335113525391 12.44861602783203 16.76598358154297 16.76598358154297 C 12.44861602783203 21.08335113525391 9.059326171875 26.11003112792969 6.6922607421875 31.70639801025391 C 4.242263793945312 37.49886322021484 3 43.65372467041016 3 50 C 3 56.34627532958984 4.242263793945312 62.50113677978516 6.6922607421875 68.29360198974609 C 9.059326171875 73.88996887207031 12.44861602783203 78.91666412353516 16.76598358154297 83.23401641845703 C 21.08335113525391 87.55138397216797 26.11003112792969 90.940673828125 31.70639801025391 93.3077392578125 C 37.49886322021484 95.75773620605469 43.65372467041016 97 50 97 C 56.34627532958984 97 62.50113677978516 95.75773620605469 68.29360198974609 93.3077392578125 C 73.88996887207031 90.940673828125 78.91666412353516 87.55138397216797 83.23401641845703 83.23401641845703 C 87.55138397216797 78.91666412353516 90.940673828125 73.88996887207031 93.3077392578125 68.29360198974609 C 95.75773620605469 62.50113677978516 97 56.34627532958984 97 50 C 97 43.65372467041016 95.75773620605469 37.49886322021484 93.3077392578125 31.70639801025391 C 90.940673828125 26.11003112792969 87.55138397216797 21.08335113525391 83.23401641845703 16.76598358154297 C 78.91666412353516 12.44861602783203 73.88996887207031 9.059326171875 68.29360198974609 6.6922607421875 C 62.50113677978516 4.242263793945312 56.34627532958984 3 50 3 M 50 0 C 77.61424255371094 0 100 22.38577270507812 100 50 C 100 77.61424255371094 77.61424255371094 100 50 100 C 22.38577270507812 100 0 77.61424255371094 0 50 C 0 22.38577270507812 22.38577270507812 0 50 0 Z" stroke="none" fill="#62797e"/>
                  </g>
                </g>
              </g>
            </g>
          </g>
        </g>
      </g>
      <g id="mental_7690696" transform="translate(861.5 1073.997)">
        <path id="Path_1042558" data-name="Path 1042558" d="M52,5.9c-2.037-4.322-9-3.808-9,1.553C43,12.582,50.086,17.714,52,19c1.914-1.286,9-6.419,9-11.551C61,2.088,54.037,1.574,52,5.9Z" fill="#f62929"/>
        <path id="Path_1042559" data-name="Path 1042559" d="M18,52H17V47H12V46a2,2,0,0,0-2-2h0a2,2,0,0,0-2,2v1H3v5H4a2,2,0,0,1,2,2H6a2,2,0,0,1-2,2H3v5H8V60a2,2,0,0,1,2-2h0a2,2,0,0,1,2,2v1h5V56h1a2,2,0,0,0,2-2h0A2,2,0,0,0,18,52Z" fill="#4b99f7"/>
        <circle id="Ellipse_12569" data-name="Ellipse 12569" cx="16" cy="16" r="16" transform="translate(16 16)" fill="#dae6f2"/>
        <path id="Path_1042560" data-name="Path 1042560" d="M26.667,22.007c-2.3,0-4.167,1.6-4.167,3.571a3.072,3.072,0,0,0,.172.961A3.63,3.63,0,0,0,20,29.864a3.319,3.319,0,0,0,1.2,2.5,3.319,3.319,0,0,0-1.2,2.5,3.608,3.608,0,0,0,2.534,3.286c-.009.1-.034.188-.034.286,0,1.972,1.865,3.571,4.167,3.571A4.4,4.4,0,0,0,30,40.559v-17.1A4.4,4.4,0,0,0,26.667,22.007Z" fill="#fdc93d"/>
        <path id="Path_1042561" data-name="Path 1042561" d="M42.214,33.452a8.206,8.206,0,0,0,0-2.919l1.7-1.045a10.146,10.146,0,0,0-2.5-4.623l-.987.606a1.156,1.156,0,0,1-1.3-.034,7.406,7.406,0,0,0-1.118-.685,1.307,1.307,0,0,1-.678-1.183V22.36a8.857,8.857,0,0,0-2.627-.367q-.4.005-.789.048v6.336a3.122,3.122,0,0,1,.909-.135,3.592,3.592,0,0,1,3.409,3.75,3.592,3.592,0,0,1-3.409,3.75,3.122,3.122,0,0,1-.909-.135v6.336a8.629,8.629,0,0,0,1.029.048,8.865,8.865,0,0,0,2.386-.371V40.415a1.307,1.307,0,0,1,.678-1.183,7.4,7.4,0,0,0,1.118-.685,1.157,1.157,0,0,1,1.3-.034l.982.6A10.144,10.144,0,0,0,43.917,34.5Z" fill="#7483a6"/>
        <path id="Path_1042562" data-name="Path 1042562" d="M21.516,38.791a4.961,4.961,0,0,0,5.151,4.217,5.381,5.381,0,0,0,4.088-1.792A1,1,0,0,0,31,40.559v-17.1a1,1,0,0,0-.245-.656,5.386,5.386,0,0,0-4.088-1.792c-2.849,0-5.167,2.051-5.167,4.571a3.619,3.619,0,0,0,.02.369A4.512,4.512,0,0,0,19,29.865a4.168,4.168,0,0,0,.84,2.5,4.165,4.165,0,0,0-.84,2.5,4.478,4.478,0,0,0,2.516,3.926Zm.338-7.179A2.327,2.327,0,0,1,21,29.865a2.606,2.606,0,0,1,1.913-2.346,1.038,1.038,0,0,1,.939.964h2a3.026,3.026,0,0,0-2.35-2.891v-.013a2.92,2.92,0,0,1,3.167-2.571A3.514,3.514,0,0,1,29,23.862V29.3a4.087,4.087,0,0,0-3,2.416l-.04.1,1.863.728.04-.1A1.977,1.977,0,0,1,29,31.395v8.759a3.458,3.458,0,0,1-2.333.854,3.081,3.081,0,0,1-3.078-2.013,3.006,3.006,0,0,0,2-2.787h-2a1.022,1.022,0,0,1-.84.946A2.58,2.58,0,0,1,21,34.865a2.323,2.323,0,0,1,.854-1.747,1,1,0,0,0,0-1.507Z"/>
        <path id="Path_1042563" data-name="Path 1042563" d="M34.826,34.743a2.124,2.124,0,0,1-.618-.091,1,1,0,0,0-1.291.957v6.336a1,1,0,0,0,.9.995,9.719,9.719,0,0,0,1.016.054h.132a9.9,9.9,0,0,0,2.653-.412,1,1,0,0,0,.719-.959V40.415a.343.343,0,0,1,.122-.287,8.444,8.444,0,0,0,1.271-.778.171.171,0,0,1,.181.016l.982.6a1,1,0,0,0,1.246-.161,11.157,11.157,0,0,0,2.755-5.074,1,1,0,0,0-.448-1.088l-1.146-.7a8.9,8.9,0,0,0,0-1.9l1.146-.7a1,1,0,0,0,.448-1.088,11.151,11.151,0,0,0-2.749-5.078,1,1,0,0,0-1.246-.161l-.987.606a.173.173,0,0,1-.182.015,8.376,8.376,0,0,0-1.269-.777.344.344,0,0,1-.123-.288V22.36a1,1,0,0,0-.718-.959,10.234,10.234,0,0,0-2.922-.407q-.447.006-.884.054a1,1,0,0,0-.892.994v6.335a1,1,0,0,0,1.291.957,2.124,2.124,0,0,1,.618-.091,2.774,2.774,0,0,1,0,5.5Zm.091-7.5v-4.25a7.789,7.789,0,0,1,1.415.149v.428a2.313,2.313,0,0,0,1.233,2.079,6.367,6.367,0,0,1,.966.592,2.151,2.151,0,0,0,2.421.083l.267-.164a9.147,9.147,0,0,1,1.529,2.871l-1.058.65a1,1,0,0,0-.462,1.024,7.186,7.186,0,0,1,0,2.574A1,1,0,0,0,41.69,34.3l1.059.649a9.17,9.17,0,0,1-1.535,2.869l-.262-.161a2.15,2.15,0,0,0-2.42.083,6.435,6.435,0,0,1-.968.593,2.311,2.311,0,0,0-1.232,2.078v.424a7.588,7.588,0,0,1-1.4.153h-.016v-4.25a4.771,4.771,0,0,0,0-9.5Z"/>
        <path id="Path_1042564" data-name="Path 1042564" d="M15,32c0,.356.012.709.032,1.059l2-.118Q17,32.474,17,32t.028-.941l-2-.118C15.012,31.291,15,31.644,15,32Z"/>
        <path id="Path_1042565" data-name="Path 1042565" d="M15.3,35.186a17,17,0,0,0,33.4,0l-1.965-.372a15,15,0,0,1-29.473,0Z"/>
        <path id="Path_1042566" data-name="Path 1042566" d="M49,32c0-.356-.012-.709-.032-1.059l-2,.118Q47,31.526,47,32t-.028.941l2,.118C48.988,32.709,49,32.356,49,32Z"/>
        <path id="Path_1042567" data-name="Path 1042567" d="M32,15A17,17,0,0,0,15.3,28.813l1.965.373a15,15,0,0,1,29.473,0l1.965-.372A17,17,0,0,0,32,15Z"/>
        <path id="Path_1042568" data-name="Path 1042568" d="M12,62h5a1,1,0,0,0,1-1V57a3,3,0,0,0,0-6V47a1,1,0,0,0-1-1H13a3,3,0,0,0-6,0H3a1,1,0,0,0-1,1v5a1,1,0,0,0,1,1H4a1,1,0,0,1,0,2H3a1,1,0,0,0-1,1v5a1,1,0,0,0,1,1H8a1,1,0,0,0,1-1V60a1,1,0,0,1,2,0v1a1,1,0,0,0,1,1Zm-2-5a3,3,0,0,0-3,3H4V57a3,3,0,1,0,0-6V48H8a1,1,0,0,0,1-1V46a1,1,0,0,1,2,0v1a1,1,0,0,0,1,1h4v4a1,1,0,0,0,1,1h1a1,1,0,0,1,0,2H17a1,1,0,0,0-1,1v4H13a3,3,0,0,0-3-3Z"/>
        <path id="Path_1042569" data-name="Path 1042569" d="M51.442,19.83a1,1,0,0,0,1.115,0C54.772,18.342,62,13.052,62,7.449a5.141,5.141,0,0,0-4.082-5.307A6.2,6.2,0,0,0,52,4.078a6.194,6.194,0,0,0-5.918-1.936A5.141,5.141,0,0,0,42,7.449C42,13.052,49.228,18.342,51.442,19.83ZM46.519,4.094A3.935,3.935,0,0,1,47.374,4,4.073,4.073,0,0,1,51.1,6.322a1,1,0,0,0,1.809,0,4.107,4.107,0,0,1,4.577-2.229A3.145,3.145,0,0,1,60,7.449c0,4.279-5.826,8.8-8,10.336-2.174-1.538-8-6.057-8-10.336A3.145,3.145,0,0,1,46.519,4.094Z"/>
        <path id="Path_1042570" data-name="Path 1042570" d="M5.412,43.6A29.021,29.021,0,0,1,40.7,4.328l.6-1.908A31.017,31.017,0,0,0,3.58,44.4Z"/>
        <path id="Path_1042571" data-name="Path 1042571" d="M59.424,17.533l-1.768.935A29.013,29.013,0,0,1,20.4,58.587l-.8,1.833A31.012,31.012,0,0,0,59.424,17.533Z"/>
      </g>
    </g>
  </g>
</svg>
