<svg xmlns="http://www.w3.org/2000/svg" xmlns:xlink="http://www.w3.org/1999/xlink" width="118" height="118" viewBox="0 0 118 118">
  <defs>
    <filter id="Path_982547" x="0" y="0" width="118" height="118" filterUnits="userSpaceOnUse">
      <feOffset dy="3" input="SourceAlpha"/>
      <feGaussianBlur stdDeviation="3" result="blur"/>
      <feFlood flood-opacity="0.161"/>
      <feComposite operator="in" in2="blur"/>
      <feComposite in="SourceGraphic"/>
    </filter>
  </defs>
  <g id="Group_1203533" data-name="Group 1203533" transform="translate(-426.326 -461.718)">
    <g id="Group_1203043" data-name="Group 1203043">
      <g id="Group_1202586" data-name="Group 1202586" transform="translate(435.326 467.718)">
        <g id="Group_1178325" data-name="Group 1178325">
          <g id="Group_1177679" data-name="Group 1177679">
            <g id="Group_1172010" data-name="Group 1172010">
              <g id="Group_1171046" data-name="Group 1171046">
                <g id="Group_1148525" data-name="Group 1148525">
                  <g transform="matrix(1, 0, 0, 1, -9, -6)" filter="url(#Path_982547)">
                    <g id="Path_982547-2" data-name="Path 982547" transform="translate(9 6)" fill="#f4f4fd">
                      <path d="M 50 98.5 C 43.45188522338867 98.5 37.10042953491211 97.21787261962891 31.12207221984863 94.68923950195312 C 25.34691429138184 92.24655914306641 20.15997123718262 88.74931335449219 15.70532894134521 84.29468536376953 C 11.2506856918335 79.84004211425781 7.753442764282227 74.65309906005859 5.310757160186768 68.8779296875 C 2.782128572463989 62.89957046508789 1.5 56.54811477661133 1.5 50 C 1.5 43.45188522338867 2.782128572463989 37.10042953491211 5.310757160186768 31.12207221984863 C 7.753442764282227 25.34691429138184 11.2506856918335 20.15997123718262 15.70532894134521 15.70532894134521 C 20.15997123718262 11.2506856918335 25.34691429138184 7.753442764282227 31.12207221984863 5.310757160186768 C 37.10042953491211 2.782128572463989 43.45188522338867 1.5 50 1.5 C 56.54811477661133 1.5 62.89957046508789 2.782128572463989 68.8779296875 5.310757160186768 C 74.65309906005859 7.753442764282227 79.84004211425781 11.2506856918335 84.29468536376953 15.70532894134521 C 88.74931335449219 20.15997123718262 92.24655914306641 25.34691429138184 94.68923950195312 31.12207221984863 C 97.21787261962891 37.10042953491211 98.5 43.45188522338867 98.5 50 C 98.5 56.54811477661133 97.21787261962891 62.89957046508789 94.68923950195312 68.8779296875 C 92.24655914306641 74.65309906005859 88.74931335449219 79.84004211425781 84.29468536376953 84.29468536376953 C 79.84004211425781 88.74931335449219 74.65309906005859 92.24655914306641 68.8779296875 94.68923950195312 C 62.89957046508789 97.21787261962891 56.54811477661133 98.5 50 98.5 Z" stroke="none"/>
                      <path d="M 50 3 C 43.65372467041016 3 37.49886322021484 4.242263793945312 31.70639801025391 6.6922607421875 C 26.11003112792969 9.059326171875 21.08335113525391 12.44861602783203 16.76598358154297 16.76598358154297 C 12.44861602783203 21.08335113525391 9.059326171875 26.11003112792969 6.6922607421875 31.70639801025391 C 4.242263793945312 37.49886322021484 3 43.65372467041016 3 50 C 3 56.34627532958984 4.242263793945312 62.50113677978516 6.6922607421875 68.29360198974609 C 9.059326171875 73.88996887207031 12.44861602783203 78.91666412353516 16.76598358154297 83.23401641845703 C 21.08335113525391 87.55138397216797 26.11003112792969 90.940673828125 31.70639801025391 93.3077392578125 C 37.49886322021484 95.75773620605469 43.65372467041016 97 50 97 C 56.34627532958984 97 62.50113677978516 95.75773620605469 68.29360198974609 93.3077392578125 C 73.88996887207031 90.940673828125 78.91666412353516 87.55138397216797 83.23401641845703 83.23401641845703 C 87.55138397216797 78.91666412353516 90.940673828125 73.88996887207031 93.3077392578125 68.29360198974609 C 95.75773620605469 62.50113677978516 97 56.34627532958984 97 50 C 97 43.65372467041016 95.75773620605469 37.49886322021484 93.3077392578125 31.70639801025391 C 90.940673828125 26.11003112792969 87.55138397216797 21.08335113525391 83.23401641845703 16.76598358154297 C 78.91666412353516 12.44861602783203 73.88996887207031 9.059326171875 68.29360198974609 6.6922607421875 C 62.50113677978516 4.242263793945312 56.34627532958984 3 50 3 M 50 0 C 77.61424255371094 0 100 22.38577270507812 100 50 C 100 77.61424255371094 77.61424255371094 100 50 100 C 22.38577270507812 100 0 77.61424255371094 0 50 C 0 22.38577270507812 22.38577270507812 0 50 0 Z" stroke="none" fill="#6f6e88"/>
                    </g>
                  </g>
                </g>
              </g>
            </g>
          </g>
        </g>
      </g>
      <g id="exam_1127687_1_" data-name="exam_1127687 (1)" transform="translate(454.875 489.548)">
        <path id="Path_1043545" data-name="Path 1043545" d="M13.205,330.668H28.431a2.538,2.538,0,0,1,2.537,2.537v15.226a2.537,2.537,0,0,1-2.537,2.537H13.205a2.537,2.537,0,0,1-2.537-2.537V333.205A2.537,2.537,0,0,1,13.205,330.668Zm0,0" transform="translate(-9.399 -291.335)" fill="#d0d7df"/>
        <path id="Path_1043546" data-name="Path 1043546" d="M231.613,448v2.537a3.806,3.806,0,1,1-7.613,0V448Zm0,0" transform="translate(-197.355 -394.71)" fill="#a5b1c2"/>
        <path id="Path_1043547" data-name="Path 1043547" d="M227.806,117.332l3.806,6.344H224Zm0,0" transform="translate(-197.355 -103.375)" fill="#a5b1c2"/>
        <path id="Path_1043548" data-name="Path 1043548" d="M227.807,275.549a2.545,2.545,0,0,0-2.537-2.537v-1.269s5.075,0,5.075-5.075a4.306,4.306,0,0,0,1.269,2.944v18.626H224v-5.075h1.269a2.537,2.537,0,1,0,0-5.075,2.557,2.557,0,0,0,2.537-2.538Zm0,0" transform="translate(-197.355 -234.947)" fill="#f1f2f2"/>
        <path id="Path_1043549" data-name="Path 1043549" d="M227.806,175.743a2.545,2.545,0,0,0-2.537,2.538H224v-7.613h7.613v5.075Zm0,0" transform="translate(-197.355 -150.367)" fill="#f1f2f2"/>
        <path id="Path_1043550" data-name="Path 1043550" d="M178.281,234.668v5.075h-5.075a2.537,2.537,0,0,1,0-5.075Zm0,0" transform="translate(-150.367 -206.754)" fill="#ffd8c5"/>
        <path id="Path_1043551" data-name="Path 1043551" d="M178.281,281.139v1.269h-5.075a2.538,2.538,0,0,1,0-5.075h5.075Zm0,0" transform="translate(-150.367 -244.343)" fill="#ffd8c5"/>
        <path id="Path_1043552" data-name="Path 1043552" d="M178.281,362.668a2.537,2.537,0,0,1,0,5.075h-5.075a2.537,2.537,0,0,1,0-5.075Zm0,0" transform="translate(-150.367 -319.528)" fill="#ffd8c5"/>
        <path id="Path_1043553" data-name="Path 1043553" d="M178.281,320a2.538,2.538,0,0,1,0,5.075h-5.075a2.538,2.538,0,0,1,0-5.075Zm0,0" transform="translate(-150.367 -281.936)" fill="#ffd8c5"/>
        <path id="Path_1043554" data-name="Path 1043554" d="M294.344,301.158v1.269l-2.537,2.537H288V291.414a3.623,3.623,0,0,0,2.538.863h3.806Zm0,0" transform="translate(-253.742 -256.75)" fill="#ffd8c5"/>
        <path id="Path_1043555" data-name="Path 1043555" d="M239.743,219.676c0,5.075-5.075,5.075-5.075,5.075V215.87a2.545,2.545,0,0,1,2.537-2.538h5.075l5.075,5.075v5.075h-3.806a3.623,3.623,0,0,1-2.537-.863A4.306,4.306,0,0,1,239.743,219.676Zm0,0" transform="translate(-206.754 -187.956)" fill="#ffd8c5"/>
        <path id="Path_1043556" data-name="Path 1043556" d="M389.075,53.332a2.538,2.538,0,0,1,0,5.075H384V53.332Zm0,0" transform="translate(-338.323 -46.988)" fill="#45aaf2"/>
        <path id="Path_1043557" data-name="Path 1043557" d="M389.075,96a2.538,2.538,0,0,1,0,5.075H384V96Zm0,0" transform="translate(-338.323 -84.581)" fill="#45aaf2"/>
        <path id="Path_1043558" data-name="Path 1043558" d="M313.376,13.205V28.431a2.545,2.545,0,0,1-2.537,2.537H295.613a2.545,2.545,0,0,1-2.537-2.537V20.818H288l5.075-5.075V13.205a2.545,2.545,0,0,1,2.537-2.537h15.226A2.545,2.545,0,0,1,313.376,13.205Zm-6.344,5.075a2.545,2.545,0,0,0-2.537-2.538h-5.075V25.894h5.075a2.538,2.538,0,0,0,0-5.075,2.556,2.556,0,0,0,2.537-2.537Zm0,0" transform="translate(-253.742 -9.399)" fill="#45aaf2"/>
        <path id="Path_1043559" data-name="Path 1043559" d="M426.668,245.332h8.881v15.226h-8.881Zm0,0" transform="translate(-375.915 -216.149)" fill="#26de81"/>
        <path id="Path_1043560" data-name="Path 1043560" d="M348.945,224a2.545,2.545,0,0,1,2.538,2.537v15.226a2.545,2.545,0,0,1-2.538,2.538H343.87a2.545,2.545,0,0,1-2.538-2.538V226.537A2.545,2.545,0,0,1,343.87,224Zm0,0" transform="translate(-300.73 -197.355)" fill="#778ca3"/>
        <path id="Path_1043561" data-name="Path 1043561" d="M24.625,30.969v5.075l-5.075-5.075H13.205a2.545,2.545,0,0,1-2.537-2.537V13.205a2.545,2.545,0,0,1,2.537-2.537H28.431a2.545,2.545,0,0,1,2.537,2.537V28.431a2.545,2.545,0,0,1-2.537,2.537Zm-7.613-8.881h7.613V19.549a3.806,3.806,0,1,0-7.613,0Zm0,0" transform="translate(-9.399 -9.399)" fill="#fed049"/>
        <path id="Path_1043562" data-name="Path 1043562" d="M71.613,59.676H64V57.139a3.806,3.806,0,1,1,7.613,0Zm0,0" transform="translate(-56.387 -46.988)" fill="#fed049"/>
        <g id="Group_1203042" data-name="Group 1203042">
          <path id="Path_1043563" data-name="Path 1043563" d="M200.6,122.207h-7.846a3.807,3.807,0,0,0-3.573-2.538h-5.075a3.807,3.807,0,0,0-3.5,2.317l-3.214-3.214a1.268,1.268,0,0,0-.9-.372v-3.806a1.233,1.233,0,0,0-.2-.642l.018-.012-3.806-6.344a1.318,1.318,0,0,0-2.175,0l-3.806,6.344.018.012a1.232,1.232,0,0,0-.2.642v6.344h-2.537A3.807,3.807,0,0,0,160,124.745a3.7,3.7,0,0,0,.992,2.537A3.778,3.778,0,0,0,160,129.82a3.71,3.71,0,0,0,1,2.537,3.713,3.713,0,0,0-1,2.537,3.786,3.786,0,0,0,.993,2.538A3.719,3.719,0,0,0,160,139.97a3.807,3.807,0,0,0,3.806,3.806h2.537v6.344a5.075,5.075,0,0,0,10.151,0v-6.344h2.537a1.269,1.269,0,0,0,.9-.372l1.776-1.776a3.768,3.768,0,0,0,2.4.879h5.075a3.806,3.806,0,0,0,3.573-2.537H200.6a1.269,1.269,0,0,0,1.269-1.269V123.476a1.269,1.269,0,0,0-1.269-1.269Zm-20.3,3.063v3.281h-2.538a2.438,2.438,0,0,1-1.7-.547,3.045,3.045,0,0,1-.837-2v-2.528h-2.537v2.538a3.411,3.411,0,0,1-2.538,3.612v-7.419a1.269,1.269,0,0,1,1.269-1.269h4.55Zm-17.764,9.625a1.242,1.242,0,0,1,.388-.9,1.214,1.214,0,0,1,.881-.365h5.075a1.268,1.268,0,0,1,1.269,1.269,1.242,1.242,0,0,1-.388.9,1.216,1.216,0,0,1-.881.365h-5.075A1.269,1.269,0,0,1,162.537,134.895Zm.364-4.194a1.226,1.226,0,0,1-.364-.881,1.269,1.269,0,0,1,1.269-1.269h3.806v2.537h-3.806a1.241,1.241,0,0,1-.9-.388Zm8.518-12.3a3.78,3.78,0,0,0-2.537.99v-3.528h5.075V118.4Zm0-7.684,1.566,2.609h-3.132Zm-7.613,12.759h3.806v2.538h-3.806a1.243,1.243,0,0,1-.9-.388,1.226,1.226,0,0,1-.364-.881,1.269,1.269,0,0,1,1.269-1.269Zm-1.269,16.495a1.242,1.242,0,0,1,.388-.9,1.214,1.214,0,0,1,.881-.366h5.075a1.269,1.269,0,0,1,1.269,1.269,1.241,1.241,0,0,1-.388.9,1.214,1.214,0,0,1-.881.366h-5.075A1.269,1.269,0,0,1,162.537,139.97Zm9.018,2.7a3.723,3.723,0,0,0,1.133-2.7,3.779,3.779,0,0,0-.993-2.537,3.729,3.729,0,0,0,.993-2.538,3.785,3.785,0,0,0-1.453-2.968,6.058,6.058,0,0,0,2.721-1.908v16.3h-5.075v-2.537a3.709,3.709,0,0,0,2.673-1.109Zm1.657,9.246a2.537,2.537,0,0,1-4.33-1.793v-1.269h5.075v1.269A2.515,2.515,0,0,1,173.212,151.914Zm7.089-12.468-1.794,1.794h-2.012v-10.3a6.007,6.007,0,0,0,1.269.145H180.3Zm10.15-.744a1.269,1.269,0,0,1-1.269,1.269h-5.075a1.269,1.269,0,0,1-1.269-1.269V123.476a1.269,1.269,0,0,1,1.269-1.269h5.075a1.269,1.269,0,0,1,1.269,1.269Zm8.882-1.268h-6.344V124.745h6.344Zm0,0" transform="translate(-140.968 -94.293)" fill="#0b0a0a"/>
          <path id="Path_1043564" data-name="Path 1043564" d="M373.332,341.332h2.538v2.538h-2.538Zm0,0" transform="translate(-328.924 -300.73)" fill="#0b0a0a"/>
          <path id="Path_1043565" data-name="Path 1043565" d="M3.806,22.839H9.625l4.7,4.7a1.269,1.269,0,0,0,2.166-.9V22.839h2.537a3.807,3.807,0,0,0,3.806-3.806V3.806A3.807,3.807,0,0,0,19.032,0H3.806A3.807,3.807,0,0,0,0,3.806V19.032a3.807,3.807,0,0,0,3.806,3.806ZM2.537,3.806A1.269,1.269,0,0,1,3.806,2.537H19.032A1.269,1.269,0,0,1,20.3,3.806V19.032A1.269,1.269,0,0,1,19.032,20.3H15.226a1.269,1.269,0,0,0-1.269,1.269v2.012l-2.909-2.909a1.269,1.269,0,0,0-.9-.372H3.806a1.269,1.269,0,0,1-1.269-1.269Zm0,0" transform="translate(0 0)" fill="#0b0a0a"/>
          <path id="Path_1043566" data-name="Path 1043566" d="M301.443,0H286.217a3.807,3.807,0,0,0-3.806,3.806V5.819l-4.7,4.7a1.269,1.269,0,0,0,.9,2.166h3.806v6.344a3.807,3.807,0,0,0,3.806,3.806h15.226a3.807,3.807,0,0,0,3.806-3.806V3.806A3.807,3.807,0,0,0,301.443,0Zm1.269,19.032a1.269,1.269,0,0,1-1.269,1.269H286.217a1.269,1.269,0,0,1-1.269-1.269V11.419a1.269,1.269,0,0,0-1.268-1.269h-2.012l2.909-2.909a1.269,1.269,0,0,0,.372-.9V3.806a1.269,1.269,0,0,1,1.269-1.269h15.226a1.269,1.269,0,0,1,1.269,1.269Zm0,0" transform="translate(-244.346)" fill="#0b0a0a"/>
          <path id="Path_1043567" data-name="Path 1043567" d="M20.3,339.032a1.269,1.269,0,0,1-1.269,1.269H3.806a1.269,1.269,0,0,1-1.269-1.269V323.806a1.269,1.269,0,0,1,1.269-1.269H16.495V320H3.806A3.807,3.807,0,0,0,0,323.806v15.226a3.807,3.807,0,0,0,3.806,3.806H19.032a3.807,3.807,0,0,0,3.806-3.806v-5.075H20.3Zm0,0" transform="translate(0 -281.936)" fill="#0b0a0a"/>
          <path id="Path_1043568" data-name="Path 1043568" d="M55.87,51.549h5.075v3.806h2.538V47.743a5.075,5.075,0,0,0-10.151,0v7.613H55.87Zm2.537-6.344a2.537,2.537,0,0,1,2.537,2.537v1.269H55.87V47.743a2.537,2.537,0,0,1,2.537-2.537Zm0,0" transform="translate(-46.988 -37.592)" fill="#0b0a0a"/>
          <path id="Path_1043569" data-name="Path 1043569" d="M379.676,42.668H374.6a1.269,1.269,0,0,0-1.269,1.269V54.087a1.269,1.269,0,0,0,1.269,1.269h5.075a3.828,3.828,0,0,0,3.806-3.806,3.779,3.779,0,0,0-.993-2.537,3.728,3.728,0,0,0,.993-2.537,3.806,3.806,0,0,0-3.806-3.806Zm0,2.537a1.269,1.269,0,0,1,1.269,1.269,1.241,1.241,0,0,1-.388.9,1.214,1.214,0,0,1-.881.365H375.87V45.205Zm.881,7.248a1.216,1.216,0,0,1-.881.365H375.87V50.281h3.806a1.268,1.268,0,0,1,1.269,1.269,1.242,1.242,0,0,1-.388.9Zm0,0" transform="translate(-328.924 -37.593)" fill="#0b0a0a"/>
          <path id="Path_1043570" data-name="Path 1043570" d="M57.138,365.205h2.538a1.269,1.269,0,0,1,1.269,1.269h2.538a3.806,3.806,0,0,0-3.806-3.806H57.138a3.806,3.806,0,0,0-3.806,3.806v5.075a3.806,3.806,0,0,0,3.806,3.806h2.538a3.806,3.806,0,0,0,3.806-3.806H60.945a1.269,1.269,0,0,1-1.269,1.269H57.138a1.269,1.269,0,0,1-1.269-1.269v-5.075a1.269,1.269,0,0,1,1.269-1.269Zm0,0" transform="translate(-46.988 -319.528)" fill="#0b0a0a"/>
        </g>
      </g>
    </g>
  </g>
</svg>
