<svg xmlns="http://www.w3.org/2000/svg" xmlns:xlink="http://www.w3.org/1999/xlink" width="118" height="118" viewBox="0 0 118 118">
  <defs>
    <filter id="Path_982547" x="0" y="0" width="118" height="118" filterUnits="userSpaceOnUse">
      <feOffset dy="3" input="SourceAlpha"/>
      <feGaussianBlur stdDeviation="3" result="blur"/>
      <feFlood flood-opacity="0.161"/>
      <feComposite operator="in" in2="blur"/>
      <feComposite in="SourceGraphic"/>
    </filter>
  </defs>
  <g id="Group_1203522" data-name="Group 1203522" transform="translate(-426.652 -3976.515)">
    <g id="Group_1202991" data-name="Group 1202991">
      <g id="Group_1202526" data-name="Group 1202526" transform="translate(435.652 3982.515)">
        <g id="Group_1178325" data-name="Group 1178325">
          <g id="Group_1177679" data-name="Group 1177679">
            <g id="Group_1172010" data-name="Group 1172010">
              <g id="Group_1171046" data-name="Group 1171046">
                <g id="Group_1148525" data-name="Group 1148525">
                  <g transform="matrix(1, 0, 0, 1, -9, -6)" filter="url(#Path_982547)">
                    <g id="Path_982547-2" data-name="Path 982547" transform="translate(9 6)" fill="#f4f4fd">
                      <path d="M 50 98.5 C 43.45188522338867 98.5 37.10042953491211 97.21787261962891 31.12207221984863 94.68923950195312 C 25.34691429138184 92.24655914306641 20.15997123718262 88.74931335449219 15.70532894134521 84.29468536376953 C 11.2506856918335 79.84004211425781 7.753442764282227 74.65309906005859 5.310757160186768 68.8779296875 C 2.782128572463989 62.89957046508789 1.5 56.54811477661133 1.5 50 C 1.5 43.45188522338867 2.782128572463989 37.10042953491211 5.310757160186768 31.12207221984863 C 7.753442764282227 25.34691429138184 11.2506856918335 20.15997123718262 15.70532894134521 15.70532894134521 C 20.15997123718262 11.2506856918335 25.34691429138184 7.753442764282227 31.12207221984863 5.310757160186768 C 37.10042953491211 2.782128572463989 43.45188522338867 1.5 50 1.5 C 56.54811477661133 1.5 62.89957046508789 2.782128572463989 68.8779296875 5.310757160186768 C 74.65309906005859 7.753442764282227 79.84004211425781 11.2506856918335 84.29468536376953 15.70532894134521 C 88.74931335449219 20.15997123718262 92.24655914306641 25.34691429138184 94.68923950195312 31.12207221984863 C 97.21787261962891 37.10042953491211 98.5 43.45188522338867 98.5 50 C 98.5 56.54811477661133 97.21787261962891 62.89957046508789 94.68923950195312 68.8779296875 C 92.24655914306641 74.65309906005859 88.74931335449219 79.84004211425781 84.29468536376953 84.29468536376953 C 79.84004211425781 88.74931335449219 74.65309906005859 92.24655914306641 68.8779296875 94.68923950195312 C 62.89957046508789 97.21787261962891 56.54811477661133 98.5 50 98.5 Z" stroke="none"/>
                      <path d="M 50 3 C 43.65372467041016 3 37.49886322021484 4.242263793945312 31.70639801025391 6.6922607421875 C 26.11003112792969 9.059326171875 21.08335113525391 12.44861602783203 16.76598358154297 16.76598358154297 C 12.44861602783203 21.08335113525391 9.059326171875 26.11003112792969 6.6922607421875 31.70639801025391 C 4.242263793945312 37.49886322021484 3 43.65372467041016 3 50 C 3 56.34627532958984 4.242263793945312 62.50113677978516 6.6922607421875 68.29360198974609 C 9.059326171875 73.88996887207031 12.44861602783203 78.91666412353516 16.76598358154297 83.23401641845703 C 21.08335113525391 87.55138397216797 26.11003112792969 90.940673828125 31.70639801025391 93.3077392578125 C 37.49886322021484 95.75773620605469 43.65372467041016 97 50 97 C 56.34627532958984 97 62.50113677978516 95.75773620605469 68.29360198974609 93.3077392578125 C 73.88996887207031 90.940673828125 78.91666412353516 87.55138397216797 83.23401641845703 83.23401641845703 C 87.55138397216797 78.91666412353516 90.940673828125 73.88996887207031 93.3077392578125 68.29360198974609 C 95.75773620605469 62.50113677978516 97 56.34627532958984 97 50 C 97 43.65372467041016 95.75773620605469 37.49886322021484 93.3077392578125 31.70639801025391 C 90.940673828125 26.11003112792969 87.55138397216797 21.08335113525391 83.23401641845703 16.76598358154297 C 78.91666412353516 12.44861602783203 73.88996887207031 9.059326171875 68.29360198974609 6.6922607421875 C 62.50113677978516 4.242263793945312 56.34627532958984 3 50 3 M 50 0 C 77.61424255371094 0 100 22.38577270507812 100 50 C 100 77.61424255371094 77.61424255371094 100 50 100 C 22.38577270507812 100 0 77.61424255371094 0 50 C 0 22.38577270507812 22.38577270507812 0 50 0 Z" stroke="none" fill="#6f6e88"/>
                    </g>
                  </g>
                </g>
              </g>
            </g>
          </g>
        </g>
      </g>
      <g id="ability_14751604" transform="translate(446.651 3997.691)">
        <g id="Group_1202988" data-name="Group 1202988" transform="translate(8.001 7.5)">
          <path id="Path_1043244" data-name="Path 1043244" d="M70,257.979a14.687,14.687,0,0,1-.3,2.184,1.875,1.875,0,0,1-1.828,1.455h-.675a1.88,1.88,0,0,0-1.814,1.4,27.121,27.121,0,0,1-2.74,6.608,1.881,1.881,0,0,0,.29,2.278l.478.479a1.872,1.872,0,0,1,.264,2.321,23.816,23.816,0,0,1-5.929,5.929,1.872,1.872,0,0,1-2.321-.264l-.479-.478a1.881,1.881,0,0,0-2.278-.29,27.122,27.122,0,0,1-6.608,2.74,1.881,1.881,0,0,0-1.4,1.814v.675a1.874,1.874,0,0,1-1.333,1.8c-.04.012-.081.022-.123.032a23.86,23.86,0,0,1-8.386,0,1.875,1.875,0,0,1-1.455-1.828v-.675a1.881,1.881,0,0,0-1.4-1.814,27.122,27.122,0,0,1-6.608-2.74,1.881,1.881,0,0,0-2.278.29l-.479.478a1.872,1.872,0,0,1-2.321.264,23.816,23.816,0,0,1-5.929-5.929,1.873,1.873,0,0,1,.264-2.321l.478-.479a1.881,1.881,0,0,0,.29-2.278,27.122,27.122,0,0,1-2.74-6.608,1.88,1.88,0,0,0-1.814-1.4h-.675a1.875,1.875,0,0,1-1.828-1.455,14.687,14.687,0,0,1-.3-2.184,1.876,1.876,0,0,1,1.871-2.009H68.125A1.876,1.876,0,0,1,70,257.979Z" transform="translate(-8.001 -224.909)" fill="#687daa"/>
          <path id="Path_1043245" data-name="Path 1043245" d="M43.317,286.63c-.04.013-.081.023-.123.033a23.86,23.86,0,0,1-8.386,0,1.875,1.875,0,0,1-1.455-1.828v-.675a1.881,1.881,0,0,0-1.4-1.814,27.12,27.12,0,0,1-6.608-2.74,1.881,1.881,0,0,0-2.278.29l-.479.478a1.872,1.872,0,0,1-2.321.264,23.817,23.817,0,0,1-5.929-5.929,1.873,1.873,0,0,1,.264-2.321l.478-.479a1.881,1.881,0,0,0,.29-2.278,27.122,27.122,0,0,1-2.74-6.608,1.88,1.88,0,0,0-1.814-1.4h-.675a1.875,1.875,0,0,1-1.828-1.455,14.687,14.687,0,0,1-.3-2.184,1.876,1.876,0,0,1,1.871-2.009H30.8a53.527,53.527,0,0,1,7.608,21.636S38.39,283.607,43.317,286.63Z" transform="translate(-8.001 -224.909)" fill="#4a66a0"/>
          <path id="Path_1043246" data-name="Path 1043246" d="M159.53,192.981H130.178a22.846,22.846,0,0,1-.844-2.868l1.3-4.008-1.771-2.6h0a9.862,9.862,0,0,1,1.27-3.887l.969-.448.194-1.039q.2-.2.43-.4c2.8-2.388,6.728-2.99,10.521-3.189,4.217-.223,8.269.054,10.422-1.073a2.9,2.9,0,0,1,3.7.925C159.016,177.967,162.7,184.882,159.53,192.981Z" transform="translate(-113.751 -152.44)" fill="#db9e82"/>
          <path id="Path_1043247" data-name="Path 1043247" d="M137.137,202.758h-7.729s-4.075-10.453,1.545-15.248c2.8-2.388,6.728-2.99,10.521-3.189C140.007,186.635,135.8,194.184,137.137,202.758Z" transform="translate(-112.981 -162.216)" fill="#c8866a"/>
          <circle id="Ellipse_12590" data-name="Ellipse 12590" cx="2.824" cy="2.824" r="2.824" transform="translate(43.236 37.65)" fill="#ffcbbe"/>
          <circle id="Ellipse_12591" data-name="Ellipse 12591" cx="2.824" cy="2.824" r="2.824" transform="translate(13.116 37.65)" fill="#ffbbae"/>
          <path id="Path_1043248" data-name="Path 1043248" d="M208.718,276.207A14.12,14.12,0,0,1,194.6,290.326c-.2,0-.394,0-.589-.014l-8.181-3.8.851-15.15,1.2-.863a1.57,1.57,0,0,1,.316.075,22.672,22.672,0,0,0,12.8,0,1.55,1.55,0,0,1,1.893.76,6.456,6.456,0,0,0,4.593,3.054,1.554,1.554,0,0,1,1.228,1.485Q208.718,276.033,208.718,276.207Z" transform="translate(-163.599 -237.615)" fill="#ffddcf"/>
          <path id="Path_1043249" data-name="Path 1043249" d="M156.57,290.307a14.117,14.117,0,0,1-13.53-14.1q0-.173,0-.33a1.554,1.554,0,0,1,1.228-1.485,6.456,6.456,0,0,0,4.593-3.054,1.549,1.549,0,0,1,1.576-.835A21.929,21.929,0,0,0,156.57,290.307Z" transform="translate(-126.159 -237.61)" fill="#ffcbbe"/>
          <path id="Path_1043250" data-name="Path 1043250" d="M210.8,9.375v11.31a1.876,1.876,0,0,1-1.875,1.875h-5.139l-1.1-.218-.358.218h-4.718a1.876,1.876,0,0,1-1.875-1.875V9.375A1.876,1.876,0,0,1,197.615,7.5h11.311A1.876,1.876,0,0,1,210.8,9.375Z" transform="translate(-172.271 -7.5)" fill="#a29cde"/>
          <path id="Path_1043251" data-name="Path 1043251" d="M203.787,22.56h-6.172a1.876,1.876,0,0,1-1.875-1.875V9.375A1.876,1.876,0,0,1,197.615,7.5h6.172a3.744,3.744,0,0,0-1.8,3.2V19.36A3.744,3.744,0,0,0,203.787,22.56Z" transform="translate(-172.271 -7.5)" fill="#827cd2"/>
          <path id="Path_1043252" data-name="Path 1043252" d="M383.98,15.029a7.531,7.531,0,0,1-6.638,7.478l-1-.216-.83.211a7.531,7.531,0,0,1,.938-15c.14,0,.279,0,.416.013A7.529,7.529,0,0,1,383.98,15.029Z" transform="translate(-323.801 -7.5)" fill="#80e0b7"/>
          <path id="Path_1043253" data-name="Path 1043253" d="M377.342,22.509A7.53,7.53,0,1,1,376.451,7.5c.14,0,.279,0,.416.013C375.751,9.249,371.854,16.273,377.342,22.509Z" transform="translate(-323.801 -7.501)" fill="#36d49b"/>
          <path id="Path_1043254" data-name="Path 1043254" d="M35.841,22.561h-4.8l-1.173-.346-.7.346h-4.8c-1.4,0-2.258-1.821-1.515-3.225L28.585,8.491a1.633,1.633,0,0,1,2.7-.463,2.089,2.089,0,0,1,.33.463l5.74,10.845C38.1,20.74,37.243,22.561,35.841,22.561Z" transform="translate(-20.748 -7.501)" fill="#ff938a"/>
          <path id="Path_1043255" data-name="Path 1043255" d="M31.037,22.561H24.359c-1.4,0-2.258-1.821-1.515-3.225L28.585,8.491a1.633,1.633,0,0,1,2.7-.463C29.967,10.193,26.546,16.932,31.037,22.561Z" transform="translate(-20.748 -7.501)" fill="#fb695b"/>
        </g>
        <g id="Group_1202990" data-name="Group 1202990" transform="translate(8.001 7.5)">
          <path id="Path_1043256" data-name="Path 1043256" d="M377.492,129.911v2.745a1.872,1.872,0,0,1-.55,1.326l-6.832,6.832" transform="translate(-324.842 -114.608)" fill="none" stroke="#000" stroke-linecap="round" stroke-linejoin="round" stroke-miterlimit="10" stroke-width="1"/>
          <path id="Path_1043257" data-name="Path 1043257" d="M82.8,129.911v2.745a1.872,1.872,0,0,0,.55,1.326l6.909,6.909" transform="translate(-73.449 -114.608)" fill="none" stroke="#000" stroke-linecap="round" stroke-linejoin="round" stroke-miterlimit="10" stroke-width="1"/>
          <line id="Line_1137" data-name="Line 1137" y2="6.545" transform="translate(31 15.303)" fill="none" stroke="#000" stroke-linecap="round" stroke-linejoin="round" stroke-miterlimit="10" stroke-width="1"/>
          <path id="Path_1043258" data-name="Path 1043258" d="M12.978,264.227c-.128-.4-.244-.8-.353-1.2a1.88,1.88,0,0,0-1.814-1.4h-.675a1.875,1.875,0,0,1-1.828-1.455,14.687,14.687,0,0,1-.3-2.184,1.876,1.876,0,0,1,1.871-2.009H22.915" transform="translate(-8.001 -224.909)" fill="none" stroke="#000" stroke-linecap="round" stroke-linejoin="round" stroke-miterlimit="10" stroke-width="1"/>
          <path id="Path_1043259" data-name="Path 1043259" d="M97.23,255.971h13.215a1.876,1.876,0,0,1,1.871,2.009,14.686,14.686,0,0,1-.3,2.184,1.875,1.875,0,0,1-1.828,1.455h-.675a1.88,1.88,0,0,0-1.814,1.4,27.121,27.121,0,0,1-2.74,6.608,1.881,1.881,0,0,0,.29,2.278l.478.479a1.873,1.873,0,0,1,.264,2.321,23.838,23.838,0,0,1-5.929,5.929,1.873,1.873,0,0,1-2.321-.264l-.479-.478a1.881,1.881,0,0,0-2.278-.29,27.123,27.123,0,0,1-6.608,2.74,1.881,1.881,0,0,0-1.4,1.814v.675a1.875,1.875,0,0,1-1.455,1.828,23.86,23.86,0,0,1-8.386,0,1.875,1.875,0,0,1-1.455-1.828v-.675a1.881,1.881,0,0,0-1.4-1.814,27.123,27.123,0,0,1-6.608-2.74,1.881,1.881,0,0,0-2.278.29l-.479.478a1.872,1.872,0,0,1-2.321.264,23.839,23.839,0,0,1-5.929-5.929,1.873,1.873,0,0,1,.264-2.321l.478-.479a1.881,1.881,0,0,0,.29-2.278q-.383-.658-.726-1.34" transform="translate(-50.321 -224.909)" fill="none" stroke="#000" stroke-linecap="round" stroke-linejoin="round" stroke-miterlimit="10" stroke-width="1"/>
          <path id="Path_1043260" data-name="Path 1043260" d="M128.508,189.871c-.763-3.47-1.224-9.01,2.444-12.137,5.913-5.043,16.854-2.121,20.943-4.262a2.9,2.9,0,0,1,3.7.925c2.31,3.109,5.4,8.756,4.067,15.513" transform="translate(-112.98 -152.44)" fill="none" stroke="#000" stroke-linecap="round" stroke-linejoin="round" stroke-miterlimit="10" stroke-width="1"/>
          <path id="Path_1043261" data-name="Path 1043261" d="M365.66,308.79a2.823,2.823,0,1,1-.61,5.139" transform="translate(-320.415 -271.019)" fill="none" stroke="#000" stroke-linecap="round" stroke-linejoin="round" stroke-miterlimit="10" stroke-width="1"/>
          <path id="Path_1043262" data-name="Path 1043262" d="M117.169,313.923a2.824,2.824,0,1,1-.61-5.14" transform="translate(-99.804 -271.012)" fill="none" stroke="#000" stroke-linecap="round" stroke-linejoin="round" stroke-miterlimit="10" stroke-width="1"/>
          <path id="Path_1043263" data-name="Path 1043263" d="M165.946,287.256a14.091,14.091,0,0,0,5.325-11.378,1.554,1.554,0,0,0-1.228-1.485,6.456,6.456,0,0,1-4.593-3.054,1.55,1.55,0,0,0-1.893-.76,22.593,22.593,0,0,1-12.8,0,1.55,1.55,0,0,0-1.893.76,6.456,6.456,0,0,1-4.593,3.054,1.554,1.554,0,0,0-1.228,1.485,14.126,14.126,0,0,0,19.1,13.544" transform="translate(-126.156 -237.615)" fill="none" stroke="#000" stroke-linecap="round" stroke-linejoin="round" stroke-miterlimit="10" stroke-width="1"/>
          <path id="Path_1043264" data-name="Path 1043264" d="M210.8,15.405v5.28a1.876,1.876,0,0,1-1.875,1.875H197.615a1.876,1.876,0,0,1-1.875-1.875V9.376A1.876,1.876,0,0,1,197.615,7.5h11.311A1.876,1.876,0,0,1,210.8,9.376V11.03" transform="translate(-172.271 -7.501)" fill="none" stroke="#000" stroke-linecap="round" stroke-linejoin="round" stroke-miterlimit="10" stroke-width="1"/>
          <circle id="Ellipse_12592" data-name="Ellipse 12592" cx="7.53" cy="7.53" r="7.53" transform="translate(45.119 0)" fill="none" stroke="#000" stroke-linecap="round" stroke-linejoin="round" stroke-miterlimit="10" stroke-width="1"/>
          <path id="Path_1043265" data-name="Path 1043265" d="M22.843,19.335,28.584,8.49a1.653,1.653,0,0,1,3.029,0l5.741,10.844c.743,1.4-.112,3.225-1.514,3.225H24.357C22.954,22.56,22.1,20.739,22.843,19.335Z" transform="translate(-20.747 -7.5)" fill="none" stroke="#000" stroke-linecap="round" stroke-linejoin="round" stroke-miterlimit="10" stroke-width="1"/>
          <g id="Group_1202989" data-name="Group 1202989" transform="translate(21.588 39.33)">
            <path id="Path_1043266" data-name="Path 1043266" d="M184.135,323.835a1.721,1.721,0,1,0-3.442,0" transform="translate(-180.693 -322.114)" fill="none" stroke="#000" stroke-linecap="round" stroke-linejoin="round" stroke-miterlimit="10" stroke-width="1"/>
            <path id="Path_1043267" data-name="Path 1043267" d="M303.738,323.835a1.721,1.721,0,1,1,3.442,0" transform="translate(-288.356 -322.114)" fill="none" stroke="#000" stroke-linecap="round" stroke-linejoin="round" stroke-miterlimit="10" stroke-width="1"/>
            <path id="Path_1043268" data-name="Path 1043268" d="M241.379,351.968a2.419,2.419,0,0,0,3.651,0" transform="translate(-233.793 -348.236)" fill="none" stroke="#000" stroke-linecap="round" stroke-linejoin="round" stroke-miterlimit="10" stroke-width="1"/>
          </g>
        </g>
      </g>
    </g>
  </g>
</svg>
