<svg xmlns="http://www.w3.org/2000/svg" xmlns:xlink="http://www.w3.org/1999/xlink" width="118" height="118" viewBox="0 0 118 118">
  <defs>
    <filter id="Path_982547" x="0" y="0" width="118" height="118" filterUnits="userSpaceOnUse">
      <feOffset dy="3" input="SourceAlpha"/>
      <feGaussianBlur stdDeviation="3" result="blur"/>
      <feFlood flood-opacity="0.161"/>
      <feComposite operator="in" in2="blur"/>
      <feComposite in="SourceGraphic"/>
    </filter>
  </defs>
  <g id="Group_1203502" data-name="Group 1203502" transform="translate(-204.5 -1050)">
    <g id="Group_1202884" data-name="Group 1202884">
      <g id="Group_1178314" data-name="Group 1178314" transform="translate(0 -3861.545)">
        <g id="Group_1173988" data-name="Group 1173988" transform="translate(213.5 4917.545)">
          <g id="Group_1172010" data-name="Group 1172010">
            <g id="Group_1171046" data-name="Group 1171046">
              <g id="Group_1148525" data-name="Group 1148525">
                <g transform="matrix(1, 0, 0, 1, -9, -6)" filter="url(#Path_982547)">
                  <g id="Path_982547-2" data-name="Path 982547" transform="translate(9 6)" fill="#f7fbfc">
                    <path d="M 50 98.5 C 43.45188522338867 98.5 37.10042953491211 97.21787261962891 31.12207221984863 94.68923950195312 C 25.34691429138184 92.24655914306641 20.15997123718262 88.74931335449219 15.70532894134521 84.29468536376953 C 11.2506856918335 79.84004211425781 7.753442764282227 74.65309906005859 5.310757160186768 68.8779296875 C 2.782128572463989 62.89957046508789 1.5 56.54811477661133 1.5 50 C 1.5 43.45188522338867 2.782128572463989 37.10042953491211 5.310757160186768 31.12207221984863 C 7.753442764282227 25.34691429138184 11.2506856918335 20.15997123718262 15.70532894134521 15.70532894134521 C 20.15997123718262 11.2506856918335 25.34691429138184 7.753442764282227 31.12207221984863 5.310757160186768 C 37.10042953491211 2.782128572463989 43.45188522338867 1.5 50 1.5 C 56.54811477661133 1.5 62.89957046508789 2.782128572463989 68.8779296875 5.310757160186768 C 74.65309906005859 7.753442764282227 79.84004211425781 11.2506856918335 84.29468536376953 15.70532894134521 C 88.74931335449219 20.15997123718262 92.24655914306641 25.34691429138184 94.68923950195312 31.12207221984863 C 97.21787261962891 37.10042953491211 98.5 43.45188522338867 98.5 50 C 98.5 56.54811477661133 97.21787261962891 62.89957046508789 94.68923950195312 68.8779296875 C 92.24655914306641 74.65309906005859 88.74931335449219 79.84004211425781 84.29468536376953 84.29468536376953 C 79.84004211425781 88.74931335449219 74.65309906005859 92.24655914306641 68.8779296875 94.68923950195312 C 62.89957046508789 97.21787261962891 56.54811477661133 98.5 50 98.5 Z" stroke="none"/>
                    <path d="M 50 3 C 43.65372467041016 3 37.49886322021484 4.242263793945312 31.70639801025391 6.6922607421875 C 26.11003112792969 9.059326171875 21.08335113525391 12.44861602783203 16.76598358154297 16.76598358154297 C 12.44861602783203 21.08335113525391 9.059326171875 26.11003112792969 6.6922607421875 31.70639801025391 C 4.242263793945312 37.49886322021484 3 43.65372467041016 3 50 C 3 56.34627532958984 4.242263793945312 62.50113677978516 6.6922607421875 68.29360198974609 C 9.059326171875 73.88996887207031 12.44861602783203 78.91666412353516 16.76598358154297 83.23401641845703 C 21.08335113525391 87.55138397216797 26.11003112792969 90.940673828125 31.70639801025391 93.3077392578125 C 37.49886322021484 95.75773620605469 43.65372467041016 97 50 97 C 56.34627532958984 97 62.50113677978516 95.75773620605469 68.29360198974609 93.3077392578125 C 73.88996887207031 90.940673828125 78.91666412353516 87.55138397216797 83.23401641845703 83.23401641845703 C 87.55138397216797 78.91666412353516 90.940673828125 73.88996887207031 93.3077392578125 68.29360198974609 C 95.75773620605469 62.50113677978516 97 56.34627532958984 97 50 C 97 43.65372467041016 95.75773620605469 37.49886322021484 93.3077392578125 31.70639801025391 C 90.940673828125 26.11003112792969 87.55138397216797 21.08335113525391 83.23401641845703 16.76598358154297 C 78.91666412353516 12.44861602783203 73.88996887207031 9.059326171875 68.29360198974609 6.6922607421875 C 62.50113677978516 4.242263793945312 56.34627532958984 3 50 3 M 50 0 C 77.61424255371094 0 100 22.38577270507812 100 50 C 100 77.61424255371094 77.61424255371094 100 50 100 C 22.38577270507812 100 0 77.61424255371094 0 50 C 0 22.38577270507812 22.38577270507812 0 50 0 Z" stroke="none" fill="#62797e"/>
                  </g>
                </g>
              </g>
            </g>
          </g>
        </g>
      </g>
      <g id="scrum_7179235" transform="translate(225.053 1055.722)">
        <path id="Path_1042529" data-name="Path 1042529" d="M161.289,304.562h0a11.829,11.829,0,0,0-11.829,11.829v7.466h23.659v-7.466A11.829,11.829,0,0,0,161.289,304.562Z" transform="translate(-124.281 -249.737)" fill="#685e68"/>
        <path id="Path_1042530" data-name="Path 1042530" d="M163.524,304.773a11.832,11.832,0,0,0-9.6,11.618v7.466H149.46V316.39a11.835,11.835,0,0,1,14.064-11.618Z" transform="translate(-124.281 -249.736)" fill="#554e56"/>
        <path id="Path_1042531" data-name="Path 1042531" d="M152.013,325.872a11.843,11.843,0,0,1,5.337-7.36" transform="translate(-126.516 -261.949)" fill="none" stroke="#000" stroke-linecap="round" stroke-linejoin="round" stroke-miterlimit="10" stroke-width="1.5"/>
        <path id="Path_1042532" data-name="Path 1042532" d="M330.526,359.966a11.71,11.71,0,0,0-.894-2.465" transform="translate(-282.015 -296.084)" fill="none" stroke="#000" stroke-linecap="round" stroke-linejoin="round" stroke-miterlimit="10" stroke-width="1.5"/>
        <path id="Path_1042533" data-name="Path 1042533" d="M296.05,320.014a11.935,11.935,0,0,0-1.788-1.352" transform="translate(-251.05 -262.081)" fill="none" stroke="#000" stroke-linecap="round" stroke-linejoin="round" stroke-miterlimit="10" stroke-width="1.5"/>
        <path id="Path_1042534" data-name="Path 1042534" d="M244.2,419.135h28.2a1.662,1.662,0,0,0,1.352-.7l2.555-3.568a1.663,1.663,0,0,0,0-1.938l-2.555-3.568a1.661,1.661,0,0,0-1.352-.694h-5.689" transform="translate(-207.218 -340.881)" fill="#af66da"/>
        <g id="Group_1202881" data-name="Group 1202881" transform="translate(7.501 19.301)">
          <path id="Path_1042535" data-name="Path 1042535" d="M224.927,48.78l-4.575,1.837a1.694,1.694,0,0,0-1.979,0l-3.91-1.837a19.035,19.035,0,0,0-19.014-19.012l-6.616-4.241a1.7,1.7,0,0,1,0-1.981l6.616-4.241A29.51,29.51,0,0,1,224.927,48.78Z" transform="translate(-165.973 -19.304)" fill="#9be69d"/>
          <path id="Path_1042536" data-name="Path 1042536" d="M282.783,122.344c0,.553-.024,1.1-.072,1.643a1.7,1.7,0,0,0-.352.2l-3.91-1.838A19.038,19.038,0,0,0,261.6,103.456a19.014,19.014,0,0,1,21.18,18.888Z" transform="translate(-229.959 -92.868)" fill="#6fd7a3"/>
          <path id="Path_1042537" data-name="Path 1042537" d="M42.464,268.74l-5.483,4.241h0A29.51,29.51,0,0,1,7.5,243.5l3.56-1.777a1.7,1.7,0,0,0,1.981,0l4.924,1.777a19.033,19.033,0,0,0,19.012,19.014h0l5.483,4.241A1.7,1.7,0,0,1,42.464,268.74Z" transform="translate(-7.503 -214.028)" fill="#8ac9fe"/>
          <path id="Path_1042538" data-name="Path 1042538" d="M37.328,272.711l-.347.269h0A29.51,29.51,0,0,1,7.5,243.5l3.56-1.777a1.686,1.686,0,0,0,.811.307q-.037.73-.037,1.47A29.522,29.522,0,0,0,37.328,272.711Z" transform="translate(-7.503 -214.026)" fill="#60b7ff"/>
          <path id="Path_1042539" data-name="Path 1042539" d="M273.685,232.407a29.51,29.51,0,0,1-29.476,29.478l3.036-4.241a1.7,1.7,0,0,0,0-1.981l-3.036-4.241a19.035,19.035,0,0,0,19.012-19.014l4.243-3.036a1.694,1.694,0,0,1,1.979,0Z" transform="translate(-214.731 -202.931)" fill="#fe76a8"/>
          <path id="Path_1042540" data-name="Path 1042540" d="M282.757,235.338a19.035,19.035,0,0,1-19.012,19.014h0a18.958,18.958,0,0,1-2.17-.124,19.037,19.037,0,0,0,16.849-18.89l4.107-2.939A18.972,18.972,0,0,1,282.757,235.338Z" transform="translate(-229.934 -205.861)" fill="#fe5694"/>
          <path id="Path_1042541" data-name="Path 1042541" d="M33.943,25.527l3.036,4.241A19.033,19.033,0,0,0,17.967,48.78l-4.241,3.038a1.7,1.7,0,0,1-1.981,0L7.5,48.78A29.51,29.51,0,0,1,36.979,19.3l-3.036,4.241A1.7,1.7,0,0,0,33.943,25.527Z" transform="translate(-7.503 -19.304)" fill="#dedbee"/>
          <path id="Path_1042542" data-name="Path 1042542" d="M36.979,19.3l-.256.358a29.5,29.5,0,0,0-24.715,32.31,1.676,1.676,0,0,1-.263-.153L7.5,48.779A29.51,29.51,0,0,1,36.979,19.3Z" transform="translate(-7.503 -19.303)" fill="#d2cfe9"/>
        </g>
        <path id="Path_1042543" data-name="Path 1042543" d="M36.98,78.255A29.511,29.511,0,1,0,14.473,67.791M49.174,34.2a19.013,19.013,0,1,1-24.313-.061h0" transform="translate(-0.003)" fill="none" stroke="#000" stroke-linecap="round" stroke-linejoin="round" stroke-miterlimit="10" stroke-width="1.5"/>
        <path id="Path_1042544" data-name="Path 1042544" d="M244.2,419.135h28.2a1.662,1.662,0,0,0,1.352-.7l2.555-3.568a1.663,1.663,0,0,0,0-1.938l-2.555-3.568a1.661,1.661,0,0,0-1.352-.694h-5.689" transform="translate(-207.218 -340.881)" fill="none" stroke="#000" stroke-linecap="round" stroke-linejoin="round" stroke-miterlimit="10" stroke-width="1.5"/>
        <path id="Path_1042545" data-name="Path 1042545" d="M36.98,419.131l3.037-4.242a1.7,1.7,0,0,0,0-1.981l-3.037-4.242H8.466a.96.96,0,0,0-.781,1.521l2.14,2.991a1.233,1.233,0,0,1,0,1.439l-2.14,2.991a.962.962,0,0,0,.781,1.523H36.979" transform="translate(-0.002 -340.877)" fill="#fef056"/>
        <path id="Path_1042546" data-name="Path 1042546" d="M15.619,419.137H36.978l3.037-4.242a1.7,1.7,0,0,0,0-1.98l-3.037-4.242H8.465a.96.96,0,0,0-.782,1.521l2.141,2.991a1.232,1.232,0,0,1,0,1.438l-2.141,2.991a.962.962,0,0,0,.782,1.523h2.8" transform="translate(0 -340.881)" fill="none" stroke="#000" stroke-linecap="round" stroke-linejoin="round" stroke-miterlimit="10" stroke-width="1.5"/>
        <path id="Path_1042547" data-name="Path 1042547" d="M396.874,232.406l4.242-3.037a1.7,1.7,0,0,1,1.981,0l4.242,3.037" transform="translate(-340.884 -183.629)" fill="none" stroke="#000" stroke-linecap="round" stroke-linejoin="round" stroke-miterlimit="10" stroke-width="1.5"/>
        <path id="Path_1042548" data-name="Path 1042548" d="M218.742,27.161l-1.172-1.636a1.7,1.7,0,0,1,0-1.981l3.037-4.242" transform="translate(-183.631 -0.001)" fill="none" stroke="#000" stroke-linecap="round" stroke-linejoin="round" stroke-miterlimit="10" stroke-width="1.5"/>
        <path id="Path_1042549" data-name="Path 1042549" d="M17.967,256l-4.242,3.037a1.7,1.7,0,0,1-1.981,0L7.5,256" transform="translate(-0.002 -207.219)" fill="none" stroke="#000" stroke-linecap="round" stroke-linejoin="round" stroke-miterlimit="10" stroke-width="1.5"/>
        <g id="Group_1202883" data-name="Group 1202883" transform="translate(24.68 27.16)">
          <path id="Path_1042550" data-name="Path 1042550" d="M170.107,99.657v-8.5a8.74,8.74,0,0,0-8.74-8.74H154.19a8.74,8.74,0,0,0-8.74,8.74v8.5" transform="translate(-145.45 -82.414)" fill="#d78878"/>
          <path id="Path_1042551" data-name="Path 1042551" d="M161.425,82.414a8.739,8.739,0,0,0-8.682,8.739v8.5H145.45v-8.5a8.74,8.74,0,0,1,8.739-8.74h7.236Z" transform="translate(-145.45 -82.413)" fill="#ca6e59"/>
          <path id="Path_1042552" data-name="Path 1042552" d="M145.452,120.342v-8.5a8.7,8.7,0,0,1,2.2-5.8" transform="translate(-145.451 -103.099)" fill="none" stroke="#000" stroke-linecap="round" stroke-linejoin="round" stroke-miterlimit="10" stroke-width="1.5"/>
          <path id="Path_1042553" data-name="Path 1042553" d="M191.963,82.923a8.686,8.686,0,0,1,2.948-.511h7.177a8.742,8.742,0,0,1,8.741,8.741v8.5" transform="translate(-186.17 -82.412)" fill="none" stroke="#000" stroke-linecap="round" stroke-linejoin="round" stroke-miterlimit="10" stroke-width="1.5"/>
          <path id="Path_1042554" data-name="Path 1042554" d="M170.106,159.312a2.494,2.494,0,0,1-2.515,2.423h-.812v3.2a8.994,8.994,0,0,1-9.032,9,9.089,9.089,0,0,1-8.974-9.136v-3.067H147.9a2.452,2.452,0,0,1,0-4.9h.875v-6.311s1.106,2.446,5.6,4.292a32.593,32.593,0,0,0,12.407,2.019h.875a2.453,2.453,0,0,1,2.452,2.48Z" transform="translate(-145.448 -142.039)" fill="#ffdfcf"/>
          <path id="Path_1042555" data-name="Path 1042555" d="M159.806,173.674a.287.287,0,0,0-.116.061,8.976,8.976,0,0,1-1.943.2,9.089,9.089,0,0,1-8.974-9.136v-3.067H147.9a2.452,2.452,0,0,1,0-4.9h.875v-6.311s1.106,2.446,5.6,4.292v11.82A7.277,7.277,0,0,0,159.806,173.674Z" transform="translate(-145.448 -142.039)" fill="#ffcebf"/>
          <path id="Path_1042556" data-name="Path 1042556" d="M166.78,156.83h.875a2.452,2.452,0,0,1,2.452,2.481,2.494,2.494,0,0,1-2.516,2.422h-.811v3.2a9,9,0,0,1-9.032,9,9.09,9.09,0,0,1-8.973-9.137v-3.068H147.9a2.452,2.452,0,0,1,0-4.9h.875V150.52S151.627,156.83,166.78,156.83Z" transform="translate(-145.449 -142.038)" fill="none" stroke="#000" stroke-linecap="round" stroke-linejoin="round" stroke-miterlimit="10" stroke-width="1.5"/>
          <g id="Group_1202882" data-name="Group 1202882" transform="translate(10.236 16.693)">
            <line id="Line_1113" data-name="Line 1113" y2="2.028" fill="none" stroke="#000" stroke-linecap="round" stroke-linejoin="round" stroke-miterlimit="10" stroke-width="1.5"/>
            <line id="Line_1114" data-name="Line 1114" y2="2.028" transform="translate(4.186)" fill="none" stroke="#000" stroke-linecap="round" stroke-linejoin="round" stroke-miterlimit="10" stroke-width="1.5"/>
          </g>
          <path id="Path_1042557" data-name="Path 1042557" d="M228.976,273.78a3.629,3.629,0,0,1-5.133,0" transform="translate(-214.08 -249.948)" fill="none" stroke="#000" stroke-linecap="round" stroke-linejoin="round" stroke-miterlimit="10" stroke-width="1.5"/>
        </g>
      </g>
    </g>
  </g>
</svg>
