<svg xmlns="http://www.w3.org/2000/svg" xmlns:xlink="http://www.w3.org/1999/xlink" width="118" height="118" viewBox="0 0 118 118">
  <defs>
    <filter id="Path_982547" x="0" y="0" width="118" height="118" filterUnits="userSpaceOnUse">
      <feOffset dy="3" input="SourceAlpha"/>
      <feGaussianBlur stdDeviation="3" result="blur"/>
      <feFlood flood-opacity="0.161"/>
      <feComposite operator="in" in2="blur"/>
      <feComposite in="SourceGraphic"/>
    </filter>
  </defs>
  <g id="Group_1203513" data-name="Group 1203513" transform="translate(-204.5 -779.623)">
    <g id="Group_1202946" data-name="Group 1202946">
      <g id="Group_1178382" data-name="Group 1178382" transform="translate(0 -4131.922)">
        <g id="Group_1173988" data-name="Group 1173988" transform="translate(213.5 4917.545)">
          <g id="Group_1172010" data-name="Group 1172010">
            <g id="Group_1171046" data-name="Group 1171046">
              <g id="Group_1148525" data-name="Group 1148525">
                <g transform="matrix(1, 0, 0, 1, -9, -6)" filter="url(#Path_982547)">
                  <g id="Path_982547-2" data-name="Path 982547" transform="translate(9 6)" fill="#f7fbfc">
                    <path d="M 50 98.5 C 43.45188522338867 98.5 37.10042953491211 97.21787261962891 31.12207221984863 94.68923950195312 C 25.34691429138184 92.24655914306641 20.15997123718262 88.74931335449219 15.70532894134521 84.29468536376953 C 11.2506856918335 79.84004211425781 7.753442764282227 74.65309906005859 5.310757160186768 68.8779296875 C 2.782128572463989 62.89957046508789 1.5 56.54811477661133 1.5 50 C 1.5 43.45188522338867 2.782128572463989 37.10042953491211 5.310757160186768 31.12207221984863 C 7.753442764282227 25.34691429138184 11.2506856918335 20.15997123718262 15.70532894134521 15.70532894134521 C 20.15997123718262 11.2506856918335 25.34691429138184 7.753442764282227 31.12207221984863 5.310757160186768 C 37.10042953491211 2.782128572463989 43.45188522338867 1.5 50 1.5 C 56.54811477661133 1.5 62.89957046508789 2.782128572463989 68.8779296875 5.310757160186768 C 74.65309906005859 7.753442764282227 79.84004211425781 11.2506856918335 84.29468536376953 15.70532894134521 C 88.74931335449219 20.15997123718262 92.24655914306641 25.34691429138184 94.68923950195312 31.12207221984863 C 97.21787261962891 37.10042953491211 98.5 43.45188522338867 98.5 50 C 98.5 56.54811477661133 97.21787261962891 62.89957046508789 94.68923950195312 68.8779296875 C 92.24655914306641 74.65309906005859 88.74931335449219 79.84004211425781 84.29468536376953 84.29468536376953 C 79.84004211425781 88.74931335449219 74.65309906005859 92.24655914306641 68.8779296875 94.68923950195312 C 62.89957046508789 97.21787261962891 56.54811477661133 98.5 50 98.5 Z" stroke="none"/>
                    <path d="M 50 3 C 43.65372467041016 3 37.49886322021484 4.242263793945312 31.70639801025391 6.6922607421875 C 26.11003112792969 9.059326171875 21.08335113525391 12.44861602783203 16.76598358154297 16.76598358154297 C 12.44861602783203 21.08335113525391 9.059326171875 26.11003112792969 6.6922607421875 31.70639801025391 C 4.242263793945312 37.49886322021484 3 43.65372467041016 3 50 C 3 56.34627532958984 4.242263793945312 62.50113677978516 6.6922607421875 68.29360198974609 C 9.059326171875 73.88996887207031 12.44861602783203 78.91666412353516 16.76598358154297 83.23401641845703 C 21.08335113525391 87.55138397216797 26.11003112792969 90.940673828125 31.70639801025391 93.3077392578125 C 37.49886322021484 95.75773620605469 43.65372467041016 97 50 97 C 56.34627532958984 97 62.50113677978516 95.75773620605469 68.29360198974609 93.3077392578125 C 73.88996887207031 90.940673828125 78.91666412353516 87.55138397216797 83.23401641845703 83.23401641845703 C 87.55138397216797 78.91666412353516 90.940673828125 73.88996887207031 93.3077392578125 68.29360198974609 C 95.75773620605469 62.50113677978516 97 56.34627532958984 97 50 C 97 43.65372467041016 95.75773620605469 37.49886322021484 93.3077392578125 31.70639801025391 C 90.940673828125 26.11003112792969 87.55138397216797 21.08335113525391 83.23401641845703 16.76598358154297 C 78.91666412353516 12.44861602783203 73.88996887207031 9.059326171875 68.29360198974609 6.6922607421875 C 62.50113677978516 4.242263793945312 56.34627532958984 3 50 3 M 50 0 C 77.61424255371094 0 100 22.38577270507812 100 50 C 100 77.61424255371094 77.61424255371094 100 50 100 C 22.38577270507812 100 0 77.61424255371094 0 50 C 0 22.38577270507812 22.38577270507812 0 50 0 Z" stroke="none" fill="#62797e"/>
                  </g>
                </g>
              </g>
            </g>
          </g>
        </g>
      </g>
      <g id="memories_9877667" transform="translate(225.539 798.998)">
        <g id="Group_1202940" data-name="Group 1202940" transform="translate(7.499 7.625)">
          <path id="Path_1042970" data-name="Path 1042970" d="M24.813,69.575V63.926h-1.74a7.874,7.874,0,0,1-7.841-7.155l-.794-8.657L9.525,47.006a2.594,2.594,0,0,1-1.78-3.629l5.914-12.654c0-12.671,10.883-22.944,24.308-22.944h0c13.425,0,24.308,10.272,24.308,22.944v4.134a31.217,31.217,0,0,1-6.92,19.506l-6.092,7.623v7.588H24.813Z" transform="translate(-7.499 -7.761)" fill="#ffe5c2"/>
          <path id="Path_1042971" data-name="Path 1042971" d="M25.161,60.24c-4.07,0-6.241-1.26-6.613-5.313L17.508,45.9,12.6,44.794c-1.616-.364-1.744-.654-1.043-2.155L16.73,30.723c0-12.185,10.063-22.149,22.773-22.9-.508-.03-1.019-.047-1.535-.047h0c-13.425,0-24.308,10.272-24.308,22.944L7.745,43.377a2.594,2.594,0,0,0,1.78,3.629l4.913,1.107.794,8.657a7.874,7.874,0,0,0,7.841,7.155h1.74v5.649h3.07V60.24Z" transform="translate(-7.5 -7.76)" fill="#fed2a4"/>
          <circle id="Ellipse_12576" data-name="Ellipse 12576" cx="14.738" cy="14.738" r="14.738" transform="translate(15.833 12.496)" fill="#71e4bf"/>
          <circle id="Ellipse_12577" data-name="Ellipse 12577" cx="7.369" cy="7.369" r="7.369" transform="translate(46.185 37.951)" fill="#fff"/>
          <circle id="Ellipse_12578" data-name="Ellipse 12578" cx="3.07" cy="3.07" r="3.07" transform="translate(51.589 24.195)" fill="#fff"/>
          <circle id="Ellipse_12579" data-name="Ellipse 12579" cx="3.07" cy="3.07" r="3.07" transform="translate(27.394 46.179)" fill="#fff"/>
          <circle id="Ellipse_12580" data-name="Ellipse 12580" cx="7.369" cy="7.369" r="7.369" transform="translate(46.185 0)" fill="#fff"/>
          <path id="Path_1042972" data-name="Path 1042972" d="M386.62,323.994a7.371,7.371,0,0,1,5.834-7.208,7.369,7.369,0,1,0,0,14.415A7.371,7.371,0,0,1,386.62,323.994Z" transform="translate(-337.365 -278.675)" fill="#e3e9ee"/>
          <path id="Path_1042973" data-name="Path 1042973" d="M386.62,14.994a7.371,7.371,0,0,1,5.834-7.208,7.369,7.369,0,1,0,0,14.415A7.371,7.371,0,0,1,386.62,14.994Z" transform="translate(-337.365 -7.625)" fill="#e3e9ee"/>
          <path id="Path_1042974" data-name="Path 1042974" d="M430.62,207.7a3.068,3.068,0,0,1,1.535-2.659,3.07,3.07,0,1,0,0,5.317A3.068,3.068,0,0,1,430.62,207.7Z" transform="translate(-375.961 -180.43)" fill="#e3e9ee"/>
          <path id="Path_1042975" data-name="Path 1042975" d="M233.62,386.7a3.068,3.068,0,0,1,1.535-2.659,3.07,3.07,0,1,0,0,5.317A3.068,3.068,0,0,1,233.62,386.7Z" transform="translate(-203.156 -337.446)" fill="#e3e9ee"/>
          <path id="Path_1042976" data-name="Path 1042976" d="M139.485,124.109a14.74,14.74,0,0,1,13.2-14.659,14.919,14.919,0,0,0-1.535-.079,14.738,14.738,0,0,0,0,29.476,14.921,14.921,0,0,0,1.535-.079A14.74,14.74,0,0,1,139.485,124.109Z" transform="translate(-120.582 -96.875)" fill="#00dba8"/>
        </g>
        <g id="Group_1202944" data-name="Group 1202944" transform="translate(7.5 7.625)">
          <path id="Path_1042977" data-name="Path 1042977" d="M16.686,104.254a21.847,21.847,0,0,0-3.026,11.1L7.746,128a2.593,2.593,0,0,0,1.78,3.628l4.913,1.108.793,8.657a7.875,7.875,0,0,0,7.842,7.155h1.74V154.2" transform="translate(-7.5 -92.386)" fill="none" stroke="#000" stroke-miterlimit="10" stroke-width="1"/>
          <path id="Path_1042978" data-name="Path 1042978" d="M440.37,127.534a21.768,21.768,0,0,1,1.613,8.236V137" transform="translate(-387.206 -112.807)" fill="none" stroke="#000" stroke-miterlimit="10" stroke-width="1"/>
          <path id="Path_1042979" data-name="Path 1042979" d="M347.55,407.838v-2.86l4.941-6.184" transform="translate(-305.786 -350.752)" fill="none" stroke="#000" stroke-miterlimit="10" stroke-width="1"/>
          <line id="Line_1118" data-name="Line 1118" y1="2.885" transform="translate(41.764 58.928)" fill="none" stroke="#000" stroke-miterlimit="10" stroke-width="1"/>
          <path id="Path_1042980" data-name="Path 1042980" d="M437.22,262.27a30.845,30.845,0,0,0,1.828-7.656" transform="translate(-384.443 -224.28)" fill="none" stroke="#000" stroke-miterlimit="10" stroke-width="1"/>
          <path id="Path_1042981" data-name="Path 1042981" d="M92.1,17.79A24.71,24.71,0,0,1,112.178,7.784,25.063,25.063,0,0,1,128.1,13.393" transform="translate(-81.71 -7.765)" fill="none" stroke="#000" stroke-miterlimit="10" stroke-width="1"/>
          <line id="Line_1119" data-name="Line 1119" x2="12.282" transform="translate(17.313 56.165)" fill="none" stroke="#000" stroke-miterlimit="10" stroke-width="1"/>
          <circle id="Ellipse_12581" data-name="Ellipse 12581" cx="14.738" cy="14.738" r="14.738" transform="translate(15.833 12.496)" fill="none" stroke="#000" stroke-miterlimit="10" stroke-width="1"/>
          <circle id="Ellipse_12582" data-name="Ellipse 12582" cx="7.369" cy="7.369" r="7.369" transform="translate(46.185 37.95)" fill="none" stroke="#000" stroke-miterlimit="10" stroke-width="1"/>
          <circle id="Ellipse_12583" data-name="Ellipse 12583" cx="3.07" cy="3.07" r="3.07" transform="translate(51.589 24.195)" fill="none" stroke="#000" stroke-miterlimit="10" stroke-width="1"/>
          <circle id="Ellipse_12584" data-name="Ellipse 12584" cx="3.07" cy="3.07" r="3.07" transform="translate(27.394 46.179)" fill="none" stroke="#000" stroke-miterlimit="10" stroke-width="1"/>
          <circle id="Ellipse_12585" data-name="Ellipse 12585" cx="7.369" cy="7.369" r="7.369" transform="translate(46.185 0)" fill="none" stroke="#000" stroke-miterlimit="10" stroke-width="1"/>
          <g id="Group_1202941" data-name="Group 1202941" transform="translate(20.752 18.637)">
            <path id="Path_1042982" data-name="Path 1042982" d="M181.417,166.464a3.912,3.912,0,0,0,3.912,3.912,4.89,4.89,0,0,0,4.892-4.891,6.114,6.114,0,0,0-6.114-6.114,7.642,7.642,0,0,0-7.642,7.643,9.552,9.552,0,0,0,9.551,9.551,10.963,10.963,0,0,0,9.951-6.741,11.154,11.154,0,0,0,.628-1.856" transform="translate(-176.465 -159.371)" fill="none" stroke="#000" stroke-miterlimit="10" stroke-width="1"/>
          </g>
          <line id="Line_1120" data-name="Line 1120" y1="4.207" x2="0.106" transform="translate(30.465 41.972)" fill="none" stroke="#000" stroke-miterlimit="10" stroke-width="1"/>
          <line id="Line_1121" data-name="Line 1121" x1="6.284" y2="5.407" transform="translate(41.434 11.868)" fill="none" stroke="#000" stroke-miterlimit="10" stroke-width="1"/>
          <line id="Line_1122" data-name="Line 1122" x1="6.288" transform="translate(45.301 27.234)" fill="none" stroke="#000" stroke-miterlimit="10" stroke-width="1"/>
          <line id="Line_1123" data-name="Line 1123" x1="5.937" y1="4.114" transform="translate(41.438 37.189)" fill="none" stroke="#000" stroke-miterlimit="10" stroke-width="1"/>
          <g id="Group_1202942" data-name="Group 1202942" transform="translate(49.87 3.684)">
            <line id="Line_1124" data-name="Line 1124" x2="7.369" transform="translate(0 3.685)" fill="none" stroke="#000" stroke-miterlimit="10" stroke-width="1"/>
            <line id="Line_1125" data-name="Line 1125" x2="3.685" transform="translate(1.842)" fill="none" stroke="#000" stroke-miterlimit="10" stroke-width="1"/>
            <line id="Line_1126" data-name="Line 1126" x2="3.685" transform="translate(1.842 7.369)" fill="none" stroke="#000" stroke-miterlimit="10" stroke-width="1"/>
          </g>
          <g id="Group_1202943" data-name="Group 1202943" transform="translate(49.87 41.635)">
            <line id="Line_1127" data-name="Line 1127" x2="7.369" transform="translate(0 3.685)" fill="none" stroke="#000" stroke-miterlimit="10" stroke-width="1"/>
            <line id="Line_1128" data-name="Line 1128" x2="3.685" transform="translate(1.842 0)" fill="none" stroke="#000" stroke-miterlimit="10" stroke-width="1"/>
            <line id="Line_1129" data-name="Line 1129" x2="3.685" transform="translate(1.842 7.369)" fill="none" stroke="#000" stroke-miterlimit="10" stroke-width="1"/>
          </g>
        </g>
        <g id="Group_1202945" data-name="Group 1202945" transform="translate(35.195 14.49)">
          <line id="Line_1130" data-name="Line 1130" x2="1.842" fill="none" stroke="#fff" stroke-miterlimit="10" stroke-width="1"/>
          <line id="Line_1131" data-name="Line 1131" x2="1.842" transform="translate(3.685)" fill="none" stroke="#fff" stroke-miterlimit="10" stroke-width="1"/>
        </g>
      </g>
    </g>
  </g>
</svg>
