<svg xmlns="http://www.w3.org/2000/svg" xmlns:xlink="http://www.w3.org/1999/xlink" width="108" height="108" viewBox="0 0 108 108">
  <defs>
    <filter id="Path_904820" x="0" y="0" width="108" height="108" filterUnits="userSpaceOnUse">
      <feOffset dy="3" input="SourceAlpha"/>
      <feGaussianBlur stdDeviation="3" result="blur"/>
      <feFlood flood-opacity="0.161"/>
      <feComposite operator="in" in2="blur"/>
      <feComposite in="SourceGraphic"/>
    </filter>
  </defs>
  <g id="Group_1203500" data-name="Group 1203500" transform="translate(-196.477 -471.124)">
    <g id="Group_1202880" data-name="Group 1202880">
      <g id="Group_1177315" data-name="Group 1177315" transform="translate(205.477 477.124)">
        <g id="Group_1173585" data-name="Group 1173585" transform="translate(0 0)">
          <g id="Group_1173428" data-name="Group 1173428">
            <g id="Group_1171958" data-name="Group 1171958">
              <g id="Group_1167341" data-name="Group 1167341">
                <g id="Group_1166792" data-name="Group 1166792">
                  <g transform="matrix(1, 0, 0, 1, -9, -6)" filter="url(#Path_904820)">
                    <g id="Path_904820-2" data-name="Path 904820" transform="translate(9 6)" fill="#fff6f9">
                      <path d="M 44.99999618530273 88.49999237060547 C 39.12687301635742 88.49999237060547 33.43022155761719 87.35006713867188 28.06829643249512 85.08216857910156 C 22.88852119445801 82.89130401611328 18.23629570007324 79.75457763671875 14.24084663391113 75.75914001464844 C 10.24540901184082 71.76369476318359 7.108683586120605 67.11146545410156 4.917821407318115 61.93169403076172 C 2.649921178817749 56.56976699829102 1.499996185302734 50.87311553955078 1.499996185302734 44.99999237060547 C 1.499996185302734 39.12686920166016 2.649921178817749 33.43021774291992 4.917821407318115 28.06829261779785 C 7.108683586120605 22.88851737976074 10.24540901184082 18.23630523681641 14.24084663391113 14.24085521697998 C 18.23629570007324 10.24540519714355 22.88852119445801 7.108692169189453 28.06829643249512 4.917829990386963 C 33.43022155761719 2.649929761886597 39.12687301635742 1.500004887580872 44.99999618530273 1.500004887580872 C 50.87311935424805 1.500004887580872 56.56977081298828 2.649929761886597 61.93169784545898 4.917829990386963 C 67.11147308349609 7.108692169189453 71.76369476318359 10.24540519714355 75.75914764404297 14.24085521697998 C 79.75458526611328 18.23630523681641 82.89131164550781 22.88851737976074 85.08216857910156 28.06829261779785 C 87.35007476806641 33.43021774291992 88.5 39.12686920166016 88.5 44.99999237060547 C 88.5 50.87311553955078 87.35007476806641 56.56976699829102 85.08216857910156 61.93169403076172 C 82.89131164550781 67.11146545410156 79.75458526611328 71.76369476318359 75.75914764404297 75.75914001464844 C 71.76369476318359 79.75457763671875 67.11147308349609 82.89130401611328 61.93169784545898 85.08216857910156 C 56.56977081298828 87.35006713867188 50.87311935424805 88.49999237060547 44.99999618530273 88.49999237060547 Z" stroke="none"/>
                      <path d="M 44.99999618530273 2.999992370605469 C 39.32870864868164 2.999992370605469 33.82865142822266 4.11004638671875 28.65262603759766 6.299331665039062 C 23.65165710449219 8.414566040039062 19.15968322753906 11.44333648681641 15.301513671875 15.30150604248047 C 11.44333648681641 19.15967559814453 8.414566040039062 23.65164947509766 6.299339294433594 28.65262222290039 C 4.110054016113281 33.82864761352539 2.999992370605469 39.32870483398438 2.999992370605469 44.99999237060547 C 2.999992370605469 50.67127990722656 4.110054016113281 56.17132186889648 6.299339294433594 61.34736633300781 C 8.414566040039062 66.34833526611328 11.44333648681641 70.84029388427734 15.301513671875 74.69846343994141 C 19.15968322753906 78.55663299560547 23.65165710449219 81.58540344238281 28.65262603759766 83.70063781738281 C 33.82865142822266 85.88992309570312 39.32870864868164 86.99997711181641 44.99999618530273 86.99997711181641 C 50.67128372192383 86.99997711181641 56.17134094238281 85.88992309570312 61.34736633300781 83.70063781738281 C 66.34834289550781 81.58540344238281 70.84030914306641 78.55663299560547 74.69847869873047 74.69846343994141 C 78.55665588378906 70.84029388427734 81.58542633056641 66.34833526611328 83.70065307617188 61.34736633300781 C 85.88993835449219 56.17132186889648 87 50.67127990722656 87 44.99999237060547 C 87 39.32870483398438 85.88993835449219 33.82864761352539 83.70065307617188 28.65262222290039 C 81.58542633056641 23.65164947509766 78.55665588378906 19.15967559814453 74.69847869873047 15.30150604248047 C 70.84030914306641 11.44333648681641 66.34834289550781 8.414566040039062 61.34736633300781 6.299331665039062 C 56.17134094238281 4.11004638671875 50.67128372192383 2.999992370605469 44.99999618530273 2.999992370605469 M 44.99999618530273 -7.62939453125e-06 C 69.85281372070312 -7.62939453125e-06 90 20.14717864990234 90 44.99999237060547 C 90 69.85279083251953 69.85281372070312 89.99997711181641 44.99999618530273 89.99997711181641 C 20.14717864990234 89.99997711181641 -7.62939453125e-06 69.85279083251953 -7.62939453125e-06 44.99999237060547 C -7.62939453125e-06 20.14717864990234 20.14717864990234 -7.62939453125e-06 44.99999618530273 -7.62939453125e-06 Z" stroke="none" fill="#8b5e6f"/>
                    </g>
                  </g>
                </g>
              </g>
            </g>
          </g>
        </g>
      </g>
      <g id="positive-thinking_7096053" transform="translate(191.223 485.046)">
        <g id="Group_1202876" data-name="Group 1202876" transform="translate(32.724 7.5)">
          <g id="Group_1202873" data-name="Group 1202873" transform="translate(0 0)">
            <g id="Group_1202871" data-name="Group 1202871">
              <path id="Path_1042516" data-name="Path 1042516" d="M79.283,65.069a39.547,39.547,0,0,1-2.371-11.347,8.957,8.957,0,0,1,2.1-6.452C87.794,37,87.809,24.162,80.123,16c-3.575-3.8-6.582-6.389-10.964-7.477-.319-.079-.807-.324-1.127-.392A34.037,34.037,0,0,0,53.6,8.444,20.854,20.854,0,0,0,40.565,17.1c-1.358,2.022-2.153,3.914-2.42,8.08-.134,2.09-.991,2.553-1.322,4.207a3.517,3.517,0,0,0,.513,2.488,2.717,2.717,0,0,1,.294,2.078c-.087.336-.194.7-.327,1.084a16.248,16.248,0,0,1-3.177,5.631,2.079,2.079,0,0,0-.52,1.378h0a2.086,2.086,0,0,0,.914,1.726h0a3.574,3.574,0,0,0,1.492.58l2,.291a.118.118,0,0,1,.1.084,2.6,2.6,0,0,1-.443,2.572,1.1,1.1,0,0,0-.12,1.683,3.131,3.131,0,0,0,.741.681.119.119,0,0,1,0,.2,1.337,1.337,0,0,0,.223,2.393,6.64,6.64,0,0,1,.822.412,1.529,1.529,0,0,1,.02,1.846,3.206,3.206,0,0,0-.6,2.765c.7,2.567,3.576,3.211,6.251,2.765,2.164-.361,3.847-1.563,5.409-.361,1.108.853,2.411,2.3,2.626,6.518a.477.477,0,0,0,.475.453H77.242l1.593-.948A.475.475,0,0,0,79.283,65.069Z" transform="translate(-33.606 -7.501)" fill="#f4aa73"/>
            </g>
            <g id="Group_1202872" data-name="Group 1202872" transform="translate(34.425 0.634)">
              <path id="Path_1042517" data-name="Path 1042517" d="M335.51,70.707a.475.475,0,0,1-.448.638h-3.01a61.35,61.35,0,0,1-3.367-14.027,9.111,9.111,0,0,1,2.169-6.531c8.712-10.254,8.754-23.7,1.088-31.841a24.417,24.417,0,0,0-9.1-6.122,24.732,24.732,0,0,1,13.147,7.312c7.666,8.139,7.625,21.587-1.088,31.841a9.11,9.11,0,0,0-2.169,6.531A45.773,45.773,0,0,0,335.51,70.707Z" transform="translate(-322.841 -12.825)" fill="#ea9f6c"/>
            </g>
          </g>
          <path id="Path_1042518" data-name="Path 1042518" d="M167.448,62.742c0-2.3-1.445-3.852-3.314-4.912a.238.238,0,0,1-.122-.207c-.012-4.322-2.9-7.841-7.294-7.825a13.5,13.5,0,0,1-1.572-.174,7.983,7.983,0,0,0-.8.2.239.239,0,0,1-.264-.088,6.654,6.654,0,0,0-11.531,1.379.24.24,0,0,1-.275.144A7.319,7.319,0,0,0,134.6,62.487a.239.239,0,0,1-.008.279,6.165,6.165,0,0,0,3.551,9.715.238.238,0,0,1,.179.173,8.653,8.653,0,0,0,7.931,6.471s.346-.267.5-.267a8.328,8.328,0,0,0,7.624-4.382,6.322,6.322,0,0,0,9.426-5.151,6.214,6.214,0,0,0-.045-.747.239.239,0,0,1,.137-.247A6.166,6.166,0,0,0,167.448,62.742Z" transform="translate(-121.483 -42.299)" fill="#f2fbff"/>
          <g id="Group_1202875" data-name="Group 1202875" transform="translate(20.043 11.962)">
            <g id="Group_1202874" data-name="Group 1202874">
              <path id="Path_1042519" data-name="Path 1042519" d="M218.047,116.332c0,4.6-3.114,7.943-7.715,7.943a8.23,8.23,0,0,1-7.811-5.038,7.876,7.876,0,0,1-.521-2.9,8.331,8.331,0,0,1,14.81-5.238s.177.345.285.5C218.049,112.947,218.047,114.549,218.047,116.332Z" transform="translate(-202 -108)" fill="#bbf39b"/>
              <path id="Path_1042520" data-name="Path 1042520" d="M222.519,139.227a8.333,8.333,0,0,1-16.142,2.9,8.333,8.333,0,0,0,14.289-8.143A8.291,8.291,0,0,1,222.519,139.227Z" transform="translate(-205.856 -130.896)" fill="#9ae59c"/>
            </g>
          </g>
          <circle id="Ellipse_12567" data-name="Ellipse 12567" cx="1.785" cy="1.785" r="1.785" transform="translate(36.408 40.587)" fill="#f2fbff"/>
          <path id="Path_1042521" data-name="Path 1042521" d="M262.756,81.3a6.164,6.164,0,0,1-3.558,5.588.238.238,0,0,0-.137.248,6.165,6.165,0,0,1-9.855,5.654,8.646,8.646,0,0,1-7.675,4.661c-.149,0-.3,0-.444-.012a5.351,5.351,0,0,1,5.314-6.3.488.488,0,0,0,.313-.108,6.112,6.112,0,0,1,3.984-1.309,5.933,5.933,0,0,1,3.592,1.4.59.59,0,0,0,.9-.148,6.178,6.178,0,0,0,.78-3.832.238.238,0,0,1,.137-.248,6.168,6.168,0,0,0,.427-10.956.239.239,0,0,1-.121-.207,8.025,8.025,0,0,0-6.428-7.786,7.9,7.9,0,0,1,1.539-.15,8.008,8.008,0,0,1,7.984,7.936.239.239,0,0,0,.121.207A6.164,6.164,0,0,1,262.756,81.3Z" transform="translate(-216.318 -60.614)" fill="#dfeef4"/>
          <path id="Path_1042522" data-name="Path 1042522" d="M268.216,272a3.566,3.566,0,0,0-3.1,1.55.118.118,0,0,1-.138.044,2.976,2.976,0,1,0,1.01,4.991.118.118,0,0,1,.145-.013A3.571,3.571,0,1,0,268.216,272Z" transform="translate(-233.935 -240.518)" fill="#f2fbff"/>
        </g>
        <g id="Group_1202879" data-name="Group 1202879" transform="translate(32.605 7.5)">
          <path id="Path_1042523" data-name="Path 1042523" d="M33.887,278.316c-.263.353-.519.663-.762.937a2.079,2.079,0,0,0-.52,1.378h0a2.086,2.086,0,0,0,.914,1.726h0a3.574,3.574,0,0,0,1.492.58l2.072.3s.6,1.751-.421,2.645a1.1,1.1,0,0,0-.12,1.683,3.253,3.253,0,0,0,.9.781,1.347,1.347,0,0,0,.06,2.49,6.636,6.636,0,0,1,.822.412,1.529,1.529,0,0,1,.02,1.846,3.206,3.206,0,0,0-.6,2.765c.7,2.567,3.576,3.211,6.251,2.765,2.164-.361,3.847-1.563,5.409-.361,1.147.883,2.5,2.406,2.645,6.972" transform="translate(-32.605 -246.083)" fill="none" stroke="#000" stroke-linecap="round" stroke-linejoin="round" stroke-miterlimit="10" stroke-width="1"/>
          <path id="Path_1042524" data-name="Path 1042524" d="M103.317,66.654A46.414,46.414,0,0,1,100.3,53.817a9.111,9.111,0,0,1,2.169-6.53c8.713-10.253,8.754-23.7,1.088-31.84-7.813-8.294-18.752-9.015-27.578-7A20.854,20.854,0,0,0,62.944,17.1c-1.358,2.022-2.153,3.914-2.42,8.08-.134,2.09-.991,2.553-1.322,4.207a3.518,3.518,0,0,0,.513,2.487,2.719,2.719,0,0,1,.294,2.08c-.087.335-.194.7-.326,1.083s-.269.742-.409,1.085" transform="translate(-55.985 -7.5)" fill="none" stroke="#000" stroke-linecap="round" stroke-linejoin="round" stroke-miterlimit="10" stroke-width="1"/>
          <g id="Group_1202878" data-name="Group 1202878" transform="translate(20.162 11.962)">
            <path id="Path_1042525" data-name="Path 1042525" d="M203.5,111.563a8.332,8.332,0,1,1-1.5,4.769,8.431,8.431,0,0,1,.048-.9" transform="translate(-202 -108)" fill="none" stroke="#000" stroke-linecap="round" stroke-linejoin="round" stroke-miterlimit="10" stroke-width="1"/>
            <g id="Group_1202877" data-name="Group 1202877" transform="translate(5.554 5.277)">
              <line id="Line_1111" data-name="Line 1111" y2="2.222" fill="none" stroke="#000" stroke-linecap="round" stroke-linejoin="round" stroke-miterlimit="10" stroke-width="1"/>
              <line id="Line_1112" data-name="Line 1112" y2="2.222" transform="translate(5.554)" fill="none" stroke="#000" stroke-linecap="round" stroke-linejoin="round" stroke-miterlimit="10" stroke-width="1"/>
            </g>
            <path id="Path_1042526" data-name="Path 1042526" d="M257.784,201.669a3.141,3.141,0,0,1-4.441,0" transform="translate(-247.232 -190.52)" fill="none" stroke="#000" stroke-linecap="round" stroke-linejoin="round" stroke-miterlimit="10" stroke-width="1"/>
          </g>
          <path id="Path_1042527" data-name="Path 1042527" d="M160.678,50.542a7.992,7.992,0,0,0-6.5-.664,6.654,6.654,0,0,0-11.706,1.43,7.319,7.319,0,0,0-7.774,11.32,6.165,6.165,0,0,0,3.589,9.882,8.659,8.659,0,0,0,10.331,6.411M158.8,75.7a6.17,6.17,0,0,0,5.4-7.049,6.167,6.167,0,0,0,.466-11.1c0-.03,0-.06,0-.091a7.949,7.949,0,0,0-1.077-4.008" transform="translate(-121.364 -42.299)" fill="none" stroke="#000" stroke-linecap="round" stroke-linejoin="round" stroke-miterlimit="10" stroke-width="1"/>
          <circle id="Ellipse_12568" data-name="Ellipse 12568" cx="1.785" cy="1.785" r="1.785" transform="translate(36.527 40.587)" fill="none" stroke="#000" stroke-linecap="round" stroke-linejoin="round" stroke-miterlimit="10" stroke-width="1"/>
          <path id="Path_1042528" data-name="Path 1042528" d="M270.178,278.447a3.571,3.571,0,1,0-5.112-4.818,2.976,2.976,0,1,0,.991,4.895" transform="translate(-233.816 -240.519)" fill="none" stroke="#000" stroke-linecap="round" stroke-linejoin="round" stroke-miterlimit="10" stroke-width="1"/>
        </g>
      </g>
    </g>
  </g>
</svg>
