<svg xmlns="http://www.w3.org/2000/svg" xmlns:xlink="http://www.w3.org/1999/xlink" width="113" height="113" viewBox="0 0 113 113">
  <defs>
    <filter id="Path_982547" x="0" y="0" width="113" height="113" filterUnits="userSpaceOnUse">
      <feOffset dy="3" input="SourceAlpha"/>
      <feGaussianBlur stdDeviation="3" result="blur"/>
      <feFlood flood-opacity="0.161"/>
      <feComposite operator="in" in2="blur"/>
      <feComposite in="SourceGraphic"/>
    </filter>
  </defs>
  <g id="Group_1204661" data-name="Group 1204661" transform="translate(-901.56 -1115.772)">
    <g id="Group_1204221" data-name="Group 1204221">
      <g id="Group_1203974" data-name="Group 1203974" transform="translate(0 -38.675)">
        <g id="Group_1203494" data-name="Group 1203494" transform="translate(0 -984.148)">
          <g id="Group_1202591" data-name="Group 1202591" transform="translate(910.561 2144.596)">
            <g id="Group_1172010" data-name="Group 1172010" transform="translate(0)">
              <g id="Group_1171046" data-name="Group 1171046">
                <g id="Group_1148525" data-name="Group 1148525">
                  <g transform="matrix(1, 0, 0, 1, -9, -6)" filter="url(#Path_982547)">
                    <g id="Path_982547-2" data-name="Path 982547" transform="translate(9 6)" fill="#f4f4fd">
                      <path d="M 47.5 93.5 C 41.28937149047852 93.5 35.26533508300781 92.28397369384766 29.59518623352051 89.88570404052734 C 24.11771965026855 87.56893157958984 19.19813346862793 84.25196075439453 14.97309303283691 80.02691650390625 C 10.74804019927979 75.80186462402344 7.431066513061523 70.88229370117188 5.114293098449707 65.40481567382812 C 2.716026782989502 59.73468017578125 1.5 53.71062850952148 1.5 47.5 C 1.5 41.28937149047852 2.716026782989502 35.26533508300781 5.114293098449707 29.59518623352051 C 7.431066513061523 24.11771965026855 10.74804019927979 19.19813346862793 14.97309303283691 14.97309303283691 C 19.19813346862793 10.74804019927979 24.11771965026855 7.431066513061523 29.59518623352051 5.114293098449707 C 35.26533508300781 2.716026782989502 41.28937149047852 1.5 47.5 1.5 C 53.71062850952148 1.5 59.73468017578125 2.716026782989502 65.40481567382812 5.114293098449707 C 70.88229370117188 7.431066513061523 75.80186462402344 10.74804019927979 80.02691650390625 14.97309303283691 C 84.25196075439453 19.19813346862793 87.56893157958984 24.11771965026855 89.88570404052734 29.59518623352051 C 92.28397369384766 35.26533508300781 93.5 41.28937149047852 93.5 47.5 C 93.5 53.71062850952148 92.28397369384766 59.73468017578125 89.88570404052734 65.40481567382812 C 87.56893157958984 70.88229370117188 84.25196075439453 75.80186462402344 80.02691650390625 80.02691650390625 C 75.80186462402344 84.25196075439453 70.88229370117188 87.56893157958984 65.40481567382812 89.88570404052734 C 59.73468017578125 92.28397369384766 53.71062850952148 93.5 47.5 93.5 Z" stroke="none"/>
                      <path d="M 47.5 3 C 41.49121475219727 3 35.66376876831055 4.176155090332031 30.17950439453125 6.495796203613281 C 24.88084411621094 8.736953735351562 20.12152099609375 11.94598388671875 16.03375244140625 16.03375244140625 C 11.94598388671875 20.12152099609375 8.736953735351562 24.88084411621094 6.495796203613281 30.17950439453125 C 4.176155090332031 35.66376876831055 3 41.49121475219727 3 47.5 C 3 53.50878524780273 4.176155090332031 59.33623123168945 6.495796203613281 64.82049560546875 C 8.736953735351562 70.11915588378906 11.94598388671875 74.87847900390625 16.03375244140625 78.96624755859375 C 20.12152099609375 83.05401611328125 24.88084411621094 86.26304626464844 30.17950439453125 88.50419616699219 C 35.66376876831055 90.82384490966797 41.49121475219727 92 47.5 92 C 53.50878524780273 92 59.33623123168945 90.82384490966797 64.82049560546875 88.50419616699219 C 70.11915588378906 86.26304626464844 74.87847900390625 83.05401611328125 78.96624755859375 78.96624755859375 C 83.05401611328125 74.87847900390625 86.26304626464844 70.11915588378906 88.50419616699219 64.82049560546875 C 90.82384490966797 59.33623123168945 92 53.50878524780273 92 47.5 C 92 41.49121475219727 90.82384490966797 35.66376876831055 88.50419616699219 30.17950439453125 C 86.26304626464844 24.88084411621094 83.05401611328125 20.12152099609375 78.96624755859375 16.03375244140625 C 74.87847900390625 11.94598388671875 70.11915588378906 8.736953735351562 64.82049560546875 6.495796203613281 C 59.33623123168945 4.176155090332031 53.50878524780273 3 47.5 3 M 47.5 0 C 73.7335205078125 0 95 21.2664794921875 95 47.5 C 95 73.7335205078125 73.7335205078125 95 47.5 95 C 21.2664794921875 95 0 73.7335205078125 0 47.5 C 0 21.2664794921875 21.2664794921875 0 47.5 0 Z" stroke="none" fill="#6f6e88"/>
                    </g>
                  </g>
                </g>
              </g>
            </g>
          </g>
        </g>
      </g>
      <g id="friendship_10303223" transform="translate(918.895 1130.285)">
        <g id="Group_1204212" data-name="Group 1204212" transform="translate(7.667 7.498)">
          <path id="Path_1046148" data-name="Path 1046148" d="M34.422,173.808a7.089,7.089,0,0,0-3.326-.919h0c-3.31,0-7.156,3.071-7.156,6.381v2.774a1.875,1.875,0,0,0,1.875,1.875h8.607Z" transform="translate(-21.906 -152.214)" fill="#767676"/>
          <path id="Path_1046149" data-name="Path 1046149" d="M27.065,182.043v-2.774c0-2.8,2.745-5.422,5.592-6.169a6.178,6.178,0,0,0-1.561-.212c-3.31,0-7.156,3.071-7.156,6.381v2.774a1.875,1.875,0,0,0,1.875,1.875H28.94A1.875,1.875,0,0,1,27.065,182.043Z" transform="translate(-21.906 -152.213)" fill="#616161"/>
          <g id="Group_1204205" data-name="Group 1204205" transform="translate(20.709 22.338)">
            <path id="Path_1046150" data-name="Path 1046150" d="M189.08,207.043a8.28,8.28,0,0,0,4.9-7.683V186.19h-3.559v14.295H176.888V186.19h-3.559v13.17a8.28,8.28,0,0,0,4.9,7.683Z" transform="translate(-173.329 -186.19)" fill="#eb975d"/>
          </g>
          <g id="Group_1204206" data-name="Group 1204206" transform="translate(20.709 22.338)">
            <path id="Path_1046151" data-name="Path 1046151" d="M180.329,200.485h-3.442V186.19h-3.559v13.17a8.28,8.28,0,0,0,4.9,7.683h2.1Z" transform="translate(-173.329 -186.19)" fill="#b25e1e"/>
          </g>
          <path id="Path_1046152" data-name="Path 1046152" d="M203.8,249.461a1.943,1.943,0,0,1-2.005-1.875v-2.449c0-3.072,3.022-5.911,6.75-5.911h0c3.728,0,6.75,2.839,6.75,5.911v2.449a1.943,1.943,0,0,1-2.005,1.875Z" transform="translate(-177.53 -210.257)" fill="#767676"/>
          <path id="Path_1046153" data-name="Path 1046153" d="M204.922,247.586v-2.449c0-2.629,2.213-5.085,5.188-5.74a7.258,7.258,0,0,0-1.563-.171h0c-3.728,0-6.75,2.839-6.75,5.911v2.449a1.943,1.943,0,0,0,2.005,1.875h3.125A1.943,1.943,0,0,1,204.922,247.586Z" transform="translate(-177.53 -210.257)" fill="#616161"/>
          <path id="Path_1046154" data-name="Path 1046154" d="M388.822,184.24a1.938,1.938,0,0,0,1.938-1.938v-3.278a6.483,6.483,0,0,0-6.523-6.136h0a6.483,6.483,0,0,0-6.523,6.136V182.3a1.938,1.938,0,0,0,1.938,1.938Z" transform="translate(-331.455 -152.213)" fill="#767676"/>
          <g id="Group_1204207" data-name="Group 1204207" transform="translate(45.974 11.976)">
            <path id="Path_1046155" data-name="Path 1046155" d="M379.561,122.3c0,4.978-1.928,6.212-1.928,6.212a9.665,9.665,0,0,1-2.2-6.213c0-5.207.059-19,.059-19h3.588v17.881a1.674,1.674,0,0,0,.479,1.124Z" transform="translate(-375.437 -103.3)" fill="#ffb680"/>
          </g>
          <path id="Path_1046156" data-name="Path 1046156" d="M456.807,263.7a10.615,10.615,0,0,1,4.482,7.929c.214,3,.535,10.916-2.778,11.692H455.38V263.7Z" transform="translate(-399.413 -231.671)" fill="#ffdaaa"/>
          <path id="Path_1046157" data-name="Path 1046157" d="M378.814,401.461c-.151,3.285,1.254,10.45,1.254,13.731h10.245c0-3.281,1.4-10.446,1.254-13.731Z" transform="translate(-332.408 -352.213)" fill="#cdd9dd"/>
          <g id="Group_1204208" data-name="Group 1204208" transform="translate(0 40.896)">
            <path id="Path_1046158" data-name="Path 1046158" d="M12.336,347.462H10.821c-1.375.569-2.519-.962-2.708-1.684-.679-2.585-.454-8.042-.145-11.128h4.368S12.337,347.42,12.336,347.462Z" transform="translate(-7.67 -334.65)" fill="#ffb680"/>
          </g>
          <path id="Path_1046159" data-name="Path 1046159" d="M111.246,111.3a3.449,3.449,0,0,0-3.449,3.45v10.2h3.449Z" transform="translate(-95.28 -98.324)" fill="#ffdaaa"/>
          <path id="Path_1046160" data-name="Path 1046160" d="M50.532,469.859s-.922,4.749-.922,5.18H41.032c0-1.157-.643-5.18-.643-5.18Z" transform="translate(-36.299 -412.061)" fill="#ffdaaa"/>
          <path id="Path_1046161" data-name="Path 1046161" d="M25.724,220.506H22.275v2.947l-5.6,1.971a10.233,10.233,0,0,0-6.393,7.63c-.071.4-.149.991-.223,1.72a3.777,3.777,0,0,0,3.046.644l.666-.136a8.822,8.822,0,0,1,.285,1.614c0,2.035-.831,3.491-1.078,10.563-.041,1.226-.068,2.621-.068,4.218H24.988c0-10.8-1.145-12.392-1.145-14.781,0-1.251,1.119-3.28-.2-5.394,1.079-2.313,2.081-2.938,2.081-11Z" transform="translate(-9.759 -193.878)" fill="#fee95d"/>
          <path id="Path_1046162" data-name="Path 1046162" d="M223.481,326.089c0-2.273-2.9-4.984-2.9-4.984h-5.13s-2.9,2.455-2.9,4.984c0,.638.75,2.623.75,3.376h9.314C222.588,328.71,223.481,327.329,223.481,326.089Z" transform="translate(-186.931 -281.902)" fill="#fff"/>
          <path id="Path_1046163" data-name="Path 1046163" d="M201.917,387.981c0,2.436-2.375,8.675-2.375,15.416h14.19c0-6.75-2.436-12.825-2.5-15.416Z" transform="translate(-175.557 -340.418)" fill="#ff905b"/>
          <path id="Path_1046164" data-name="Path 1046164" d="M131.8,7.5a12.187,12.187,0,0,0-7.256,2.342A12.186,12.186,0,0,0,117.292,7.5c-6.349,0-11.495,4.669-11.495,10.428,0,11.307,18.931,19.574,18.931,19.574S143.3,27.437,143.3,17.926C143.3,12.167,138.153,7.5,131.8,7.5Z" transform="translate(-93.53 -7.498)" fill="#fbb9d7"/>
          <path id="Path_1046165" data-name="Path 1046165" d="M108.922,17.566c0-5.092,4.317-9.3,9.919-9.974a12.756,12.756,0,0,0-1.55-.095c-6.348,0-11.495,4.669-11.495,10.428,0,11.307,18.931,19.574,18.931,19.574s.922-.5,2.352-1.38C123.529,34.481,108.922,27.157,108.922,17.566Z" transform="translate(-93.53 -7.498)" fill="#f696c3"/>
          <g id="Group_1204209" data-name="Group 1204209" transform="translate(49.618 25.365)">
            <path id="Path_1046166" data-name="Path 1046166" d="M406.681,212.054h3.29a.949.949,0,0,1,.949.949v1.9c0,1.747-3.163,2.594-3.163,2.594s-3.163-.847-3.163-2.594v-4.492h0C404.594,211.562,405.529,212.054,406.681,212.054Z" transform="translate(-404.594 -210.409)" fill="#ffdaaa"/>
          </g>
          <path id="Path_1046167" data-name="Path 1046167" d="M382.588,255.321c0,4.978-1.928,6.212-1.928,6.212-1.968,2.241-.633,3.821-.633,5.1,0,1.87-1.051,5.2-1.131,6.96h12.752c-.08-1.76-1.131-5.09-1.131-6.96,0-1.274,1.335-2.854-.633-5.1v-5.165a7.853,7.853,0,0,0-1.928-1.048,3.185,3.185,0,0,1-5.369,0Z" transform="translate(-332.491 -224.34)" fill="#a8e1f8"/>
          <path id="Path_1046168" data-name="Path 1046168" d="M40.39,469.859s.643,4.023.643,5.18h2.18c0-1.157-.643-5.18-.643-5.18Z" transform="translate(-36.3 -412.061)" fill="#ffb680"/>
          <path id="Path_1046169" data-name="Path 1046169" d="M12.91,284.827h2.754c.009-1.5.032-3.276.063-4.218.246-7.072,1.078-8.528,1.078-10.563,0-.489-.508-2.69.183-3.939,0,0-1.8-1.061-3.014-1.923a13.7,13.7,0,0,1,3.216-5.792l-.518.182a10.233,10.233,0,0,0-6.393,7.63c-.071.4-.149.991-.223,1.72a3.777,3.777,0,0,0,3.046.644l.666-.136a8.824,8.824,0,0,1,.285,1.614c0,2.035-.831,3.491-1.078,10.563C12.936,281.836,12.91,283.231,12.91,284.827Z" transform="translate(-9.759 -227.028)" fill="#e9ca1c"/>
          <path id="Path_1046170" data-name="Path 1046170" d="M218.572,321.106h-3.125s-2.9,2.455-2.9,4.984c0,.638.75,2.622.75,3.376h3.125c0-.754-.75-2.738-.75-3.376C215.667,323.561,218.572,321.106,218.572,321.106Z" transform="translate(-186.931 -281.903)" fill="#e3e9ee"/>
          <path id="Path_1046171" data-name="Path 1046171" d="M201.917,387.981c0,2.436-2.375,8.675-2.375,15.416h3.125c0-6.74,2.375-12.979,2.375-15.416Z" transform="translate(-175.557 -340.418)" fill="#fe7732"/>
          <g id="Group_1204210" data-name="Group 1204210" transform="translate(27.777 34.879)">
            <path id="Path_1046172" data-name="Path 1046172" d="M235.727,286.511a.625.625,0,0,1,.625.625v2.292c0,1.79-3.241,2.658-3.241,2.658s-3.241-.868-3.241-2.658v-2.292a.625.625,0,0,1,.625-.625Z" transform="translate(-229.87 -286.511)" fill="#eb975d"/>
          </g>
          <path id="Path_1046173" data-name="Path 1046173" d="M383.787,261.543s1.57-1.007,1.876-4.864c-.237.082-.39.123-.39.123a6.505,6.505,0,0,1-2.684-1.47c0,4.978-1.928,6.212-1.928,6.212-1.968,2.241-.633,3.821-.633,5.1,0,1.87-1.051,5.2-1.131,6.96h3.125c.08-1.76,1.131-5.09,1.131-6.96C383.154,265.364,381.819,263.784,383.787,261.543Z" transform="translate(-332.492 -224.35)" fill="#75d2f5"/>
          <path id="Path_1046174" data-name="Path 1046174" d="M381.939,401.461h-3.125c-.151,3.285,1.254,10.45,1.254,13.731h3.125C383.193,411.911,381.789,404.746,381.939,401.461Z" transform="translate(-332.408 -352.213)" fill="#acbfc7"/>
          <g id="Group_1204211" data-name="Group 1204211" transform="translate(5.841 26.842)">
            <path id="Path_1046175" data-name="Path 1046175" d="M61.093,222.222v3.014c0,1.85-3.349,2.746-3.349,2.746s-3.349-.9-3.349-2.746v-2.389a.625.625,0,0,1,.625-.625h6.073Z" transform="translate(-54.395 -222.222)" fill="#ffdaaa"/>
          </g>
        </g>
        <g id="Group_1204219" data-name="Group 1204219" transform="translate(7.667 7.498)">
          <path id="Path_1046176" data-name="Path 1046176" d="M468.5,283.32c3.313-.776,2.992-8.7,2.778-11.692A10.614,10.614,0,0,0,466.8,263.7" transform="translate(-409.404 -231.672)" fill="none" stroke="#000" stroke-miterlimit="10" stroke-width="1.5"/>
          <path id="Path_1046177" data-name="Path 1046177" d="M404.607,173.7a6.587,6.587,0,0,1,3.161-.811,6.483,6.483,0,0,1,6.523,6.137V182.3a1.938,1.938,0,0,1-1.938,1.938" transform="translate(-354.987 -152.215)" fill="none" stroke="#000" stroke-miterlimit="10" stroke-width="1.5"/>
          <g id="Group_1204213" data-name="Group 1204213" transform="translate(24.268 29.145)">
            <path id="Path_1046178" data-name="Path 1046178" d="M269.007,240.74c2.7.6,5.1,2.962,5.1,5.722v2.45a1.944,1.944,0,0,1-2.005,1.875h-2.165" transform="translate(-260.605 -240.729)" fill="none" stroke="#000" stroke-miterlimit="10" stroke-width="1.5"/>
            <path id="Path_1046179" data-name="Path 1046179" d="M206.944,240.65c-2.954.669-5.147,3.116-5.147,5.733v2.45a1.944,1.944,0,0,0,2.005,1.875h2.163" transform="translate(-201.797 -240.65)" fill="none" stroke="#000" stroke-miterlimit="10" stroke-width="1.5"/>
          </g>
          <g id="Group_1204214" data-name="Group 1204214" transform="translate(49.619 27.01)">
            <path id="Path_1046180" data-name="Path 1046180" d="M404.593,223.566h5.377a.949.949,0,0,1,.949.949v1.9c0,1.747-3.163,2.594-3.163,2.594s-3.163-.847-3.163-2.594v-2.847Z" transform="translate(-404.593 -223.566)" fill="none" stroke="#000" stroke-miterlimit="10" stroke-width="1.5"/>
          </g>
          <path id="Path_1046181" data-name="Path 1046181" d="M471.441,463.88a55.618,55.618,0,0,0-.564,5.928" transform="translate(-412.972 -406.829)" fill="none" stroke="#000" stroke-miterlimit="10" stroke-width="1.5"/>
          <path id="Path_1046182" data-name="Path 1046182" d="M451.377,255.32a7.854,7.854,0,0,1,1.928,1.048v5.165c1.968,2.241.632,3.821.632,5.1,0,1.87,1.051,5.2,1.131,6.96a41.059,41.059,0,0,1-.451,5.928" transform="translate(-395.91 -224.341)" fill="none" stroke="#000" stroke-miterlimit="10" stroke-width="1.5"/>
          <path id="Path_1046183" data-name="Path 1046183" d="M382.506,255.325c0,4.979-1.927,6.213-1.927,6.213-1.967,2.241-.632,3.821-.632,5.095,0,1.87-1.051,5.2-1.132,6.961-.151,3.285,1.254,10.45,1.254,13.731" transform="translate(-332.408 -224.345)" fill="none" stroke="#000" stroke-miterlimit="10" stroke-width="1.5"/>
          <line id="Line_1237" data-name="Line 1237" y2="10.34" transform="translate(52.887 52.639)" fill="none" stroke="#000" stroke-miterlimit="10" stroke-width="1.5"/>
          <line id="Line_1238" data-name="Line 1238" x2="12.751" transform="translate(46.403 49.248)" fill="none" stroke="#000" stroke-miterlimit="10" stroke-width="1.5"/>
          <path id="Path_1046184" data-name="Path 1046184" d="M34.422,173.808a7.089,7.089,0,0,0-3.326-.919h0c-3.31,0-7.156,3.071-7.156,6.381v2.774a1.875,1.875,0,0,0,1.875,1.875h3" transform="translate(-21.906 -152.214)" fill="none" stroke="#000" stroke-miterlimit="10" stroke-width="1.5"/>
          <g id="Group_1204215" data-name="Group 1204215" transform="translate(5.841 26.842)">
            <path id="Path_1046185" data-name="Path 1046185" d="M61.093,222.222v3.014c0,1.85-3.349,2.746-3.349,2.746s-3.349-.9-3.349-2.746v-2.389a.625.625,0,0,1,.625-.625h6.073Z" transform="translate(-54.395 -222.222)" fill="none" stroke="#000" stroke-miterlimit="10" stroke-width="1.5"/>
          </g>
          <g id="Group_1204216" data-name="Group 1204216" transform="translate(27.777 34.878)">
            <path id="Path_1046186" data-name="Path 1046186" d="M235.727,286.511a.625.625,0,0,1,.625.625v2.292c0,1.79-3.241,2.658-3.241,2.658s-3.241-.868-3.241-2.658v-2.292a.625.625,0,0,1,.625-.625Z" transform="translate(-229.87 -286.511)" fill="none" stroke="#000" stroke-miterlimit="10" stroke-width="1.5"/>
          </g>
          <path id="Path_1046187" data-name="Path 1046187" d="M9.319,333.985a3.6,3.6,0,0,0,3.139.727" transform="translate(-9.112 -293.172)" fill="none" stroke="#000" stroke-miterlimit="10" stroke-width="1.5"/>
          <g id="Group_1204217" data-name="Group 1204217" transform="translate(0 31.546)">
            <path id="Path_1046188" data-name="Path 1046188" d="M14.581,259.855a10.233,10.233,0,0,0-6.393,7.629c-.375,2.075-.917,9.653-.078,12.849.189.72,1.332,2.252,2.708,1.683" transform="translate(-7.667 -259.855)" fill="none" stroke="#000" stroke-miterlimit="10" stroke-width="1.5"/>
          </g>
          <path id="Path_1046189" data-name="Path 1046189" d="M40.39,469.859s.643,4.023.643,5.18" transform="translate(-36.299 -412.061)" fill="none" stroke="#000" stroke-miterlimit="10" stroke-width="1.5"/>
          <path id="Path_1046190" data-name="Path 1046190" d="M115.075,469.859s-.922,4.749-.922,5.18" transform="translate(-100.841 -412.061)" fill="none" stroke="#000" stroke-miterlimit="10" stroke-width="1.5"/>
          <line id="Line_1239" data-name="Line 1239" y2="5.18" transform="translate(9.162 57.798)" fill="none" stroke="#000" stroke-miterlimit="10" stroke-width="1.5"/>
          <g id="Group_1204218" data-name="Group 1204218" transform="translate(3.152 12.976)">
            <path id="Path_1046191" data-name="Path 1046191" d="M45.7,161.3v7.4c0,8.059-1,8.683-2.082,11,1.319,2.113.2,4.142.2,5.394,0,2.388,1.145,3.979,1.145,14.78H32.881c0-1.6.025-2.991.067-4.218.246-7.072,1.077-8.527,1.077-10.563,0-1.348-1.245-3.022.591-5.394" transform="translate(-32.881 -155.05)" fill="none" stroke="#000" stroke-miterlimit="10" stroke-width="1.5"/>
            <path id="Path_1046192" data-name="Path 1046192" d="M111.243,124.952h-3.45V111.3" transform="translate(-98.428 -111.3)" fill="none" stroke="#000" stroke-miterlimit="10" stroke-width="1.5"/>
          </g>
          <line id="Line_1240" data-name="Line 1240" y2="8.669" transform="translate(24.268 26.338)" fill="none" stroke="#000" stroke-miterlimit="10" stroke-width="1.5"/>
          <path id="Path_1046193" data-name="Path 1046193" d="M178.231,215.793a8.28,8.28,0,0,1-4.9-7.683V196.19" transform="translate(-152.62 -172.602)" fill="none" stroke="#000" stroke-miterlimit="10" stroke-width="1.5"/>
          <line id="Line_1241" data-name="Line 1241" y2="8.669" transform="translate(37.803 26.338)" fill="none" stroke="#000" stroke-miterlimit="10" stroke-width="1.5"/>
          <path id="Path_1046194" data-name="Path 1046194" d="M299.329,215.793a8.28,8.28,0,0,0,4.9-7.683V196.19" transform="translate(-262.869 -172.602)" fill="none" stroke="#000" stroke-miterlimit="10" stroke-width="1.5"/>
          <path id="Path_1046195" data-name="Path 1046195" d="M199.542,344.882c0-6.74,2.375-12.979,2.375-15.416,0-.754-.75-2.738-.75-3.376,0-2.528,2.9-4.984,2.9-4.984" transform="translate(-175.556 -281.903)" fill="none" stroke="#000" stroke-miterlimit="10" stroke-width="1.5"/>
          <path id="Path_1046196" data-name="Path 1046196" d="M276.815,321.106s2.9,2.711,2.9,4.984c0,1.24-.894,2.621-.875,3.376.064,2.591,2.5,8.665,2.5,15.416" transform="translate(-243.17 -281.903)" fill="none" stroke="#000" stroke-miterlimit="10" stroke-width="1.5"/>
          <path id="Path_1046197" data-name="Path 1046197" d="M375.5,155.731s-.059,7.243-.059,12.45a9.664,9.664,0,0,0,2.2,6.213" transform="translate(-329.463 -137.201)" fill="none" stroke="#000" stroke-miterlimit="10" stroke-width="1.5"/>
          <line id="Line_1242" data-name="Line 1242" y1="15.034" transform="translate(49.621 11.976)" fill="none" stroke="#000" stroke-miterlimit="10" stroke-width="1.5"/>
          <line id="Line_1243" data-name="Line 1243" x2="9.314" transform="translate(26.361 47.563)" fill="none" stroke="#000" stroke-miterlimit="10" stroke-width="1.5"/>
          <path id="Path_1046198" data-name="Path 1046198" d="M110.28,9.665a12.426,12.426,0,0,1,14.268.176A12.181,12.181,0,0,1,131.8,7.5c6.348,0,11.494,4.669,11.494,10.428,0,9.511-18.571,19.574-18.571,19.574S105.8,29.235,105.8,17.928a9.868,9.868,0,0,1,2.941-6.967" transform="translate(-93.53 -7.5)" fill="none" stroke="#000" stroke-miterlimit="10" stroke-width="1.5"/>
        </g>
        <g id="Group_1204220" data-name="Group 1204220" transform="translate(35.872 21.884)">
          <line id="Line_1244" data-name="Line 1244" x2="1.875" fill="none" stroke="#fff" stroke-miterlimit="10" stroke-width="1.5"/>
          <line id="Line_1245" data-name="Line 1245" x2="1.875" transform="translate(3.75)" fill="none" stroke="#fff" stroke-miterlimit="10" stroke-width="1.5"/>
        </g>
      </g>
    </g>
  </g>
</svg>
