<svg xmlns="http://www.w3.org/2000/svg" xmlns:xlink="http://www.w3.org/1999/xlink" width="113" height="113" viewBox="0 0 113 113">
  <defs>
    <filter id="Path_982547" x="0" y="0" width="113" height="113" filterUnits="userSpaceOnUse">
      <feOffset dy="3" input="SourceAlpha"/>
      <feGaussianBlur stdDeviation="3" result="blur"/>
      <feFlood flood-opacity="0.161"/>
      <feComposite operator="in" in2="blur"/>
      <feComposite in="SourceGraphic"/>
    </filter>
  </defs>
  <g id="Group_1204659" data-name="Group 1204659" transform="translate(-272 -1115.772)">
    <g id="Group_1204196" data-name="Group 1204196">
      <g id="Group_1203976" data-name="Group 1203976" transform="translate(0 -38.675)">
        <g id="Group_1203496" data-name="Group 1203496" transform="translate(0 -984.148)">
          <g id="Group_1202589" data-name="Group 1202589" transform="translate(281 2144.596)">
            <g id="Group_1172010" data-name="Group 1172010" transform="translate(0)">
              <g id="Group_1171046" data-name="Group 1171046">
                <g id="Group_1148525" data-name="Group 1148525">
                  <g transform="matrix(1, 0, 0, 1, -9, -6)" filter="url(#Path_982547)">
                    <g id="Path_982547-2" data-name="Path 982547" transform="translate(9 6)" fill="#f4f4fd">
                      <path d="M 47.5 93.5 C 41.28937149047852 93.5 35.26533508300781 92.28397369384766 29.59518623352051 89.88570404052734 C 24.11771965026855 87.56893157958984 19.19813346862793 84.25196075439453 14.97309303283691 80.02691650390625 C 10.74804019927979 75.80186462402344 7.431066513061523 70.88229370117188 5.114293098449707 65.40481567382812 C 2.716026782989502 59.73468017578125 1.5 53.71062850952148 1.5 47.5 C 1.5 41.28937149047852 2.716026782989502 35.26533508300781 5.114293098449707 29.59518623352051 C 7.431066513061523 24.11771965026855 10.74804019927979 19.19813346862793 14.97309303283691 14.97309303283691 C 19.19813346862793 10.74804019927979 24.11771965026855 7.431066513061523 29.59518623352051 5.114293098449707 C 35.26533508300781 2.716026782989502 41.28937149047852 1.5 47.5 1.5 C 53.71062850952148 1.5 59.73468017578125 2.716026782989502 65.40481567382812 5.114293098449707 C 70.88229370117188 7.431066513061523 75.80186462402344 10.74804019927979 80.02691650390625 14.97309303283691 C 84.25196075439453 19.19813346862793 87.56893157958984 24.11771965026855 89.88570404052734 29.59518623352051 C 92.28397369384766 35.26533508300781 93.5 41.28937149047852 93.5 47.5 C 93.5 53.71062850952148 92.28397369384766 59.73468017578125 89.88570404052734 65.40481567382812 C 87.56893157958984 70.88229370117188 84.25196075439453 75.80186462402344 80.02691650390625 80.02691650390625 C 75.80186462402344 84.25196075439453 70.88229370117188 87.56893157958984 65.40481567382812 89.88570404052734 C 59.73468017578125 92.28397369384766 53.71062850952148 93.5 47.5 93.5 Z" stroke="none"/>
                      <path d="M 47.5 3 C 41.49121475219727 3 35.66376876831055 4.176155090332031 30.17950439453125 6.495796203613281 C 24.88084411621094 8.736953735351562 20.12152099609375 11.94598388671875 16.03375244140625 16.03375244140625 C 11.94598388671875 20.12152099609375 8.736953735351562 24.88084411621094 6.495796203613281 30.17950439453125 C 4.176155090332031 35.66376876831055 3 41.49121475219727 3 47.5 C 3 53.50878524780273 4.176155090332031 59.33623123168945 6.495796203613281 64.82049560546875 C 8.736953735351562 70.11915588378906 11.94598388671875 74.87847900390625 16.03375244140625 78.96624755859375 C 20.12152099609375 83.05401611328125 24.88084411621094 86.26304626464844 30.17950439453125 88.50419616699219 C 35.66376876831055 90.82384490966797 41.49121475219727 92 47.5 92 C 53.50878524780273 92 59.33623123168945 90.82384490966797 64.82049560546875 88.50419616699219 C 70.11915588378906 86.26304626464844 74.87847900390625 83.05401611328125 78.96624755859375 78.96624755859375 C 83.05401611328125 74.87847900390625 86.26304626464844 70.11915588378906 88.50419616699219 64.82049560546875 C 90.82384490966797 59.33623123168945 92 53.50878524780273 92 47.5 C 92 41.49121475219727 90.82384490966797 35.66376876831055 88.50419616699219 30.17950439453125 C 86.26304626464844 24.88084411621094 83.05401611328125 20.12152099609375 78.96624755859375 16.03375244140625 C 74.87847900390625 11.94598388671875 70.11915588378906 8.736953735351562 64.82049560546875 6.495796203613281 C 59.33623123168945 4.176155090332031 53.50878524780273 3 47.5 3 M 47.5 0 C 73.7335205078125 0 95 21.2664794921875 95 47.5 C 95 73.7335205078125 73.7335205078125 95 47.5 95 C 21.2664794921875 95 0 73.7335205078125 0 47.5 C 0 21.2664794921875 21.2664794921875 0 47.5 0 Z" stroke="none" fill="#6f6e88"/>
                    </g>
                  </g>
                </g>
              </g>
            </g>
          </g>
        </g>
      </g>
      <g id="emotional-intelligence_12819964" transform="translate(253.627 1111.478)">
        <g id="Group_1204195" data-name="Group 1204195" transform="translate(47.225 27.533)">
          <path id="Path_1046121" data-name="Path 1046121" d="M80.206,30.97c17.926.242,30.3,14.456,22.377,28.831A45.909,45.909,0,0,0,95.415,78.87V86.2H73.254a2.456,2.456,0,0,1-2.178-1.21l-.78-1.358a2.441,2.441,0,0,0-2.178-1.21l-5.406-.013a4.431,4.431,0,0,1-4.572-4.249c0-9.427.457-6.751-6.226-9.588-1.358-.578-1.587-1.8-.538-3.106l5.971-7.41V48.4c0-8.4,4.949-17.67,22.861-17.428Z" transform="translate(-50.718 -30.965)" fill="#eaa377" fill-rule="evenodd"/>
          <path id="Path_1046122" data-name="Path 1046122" d="M149.432,30.973c17.926.242,30.3,14.456,22.377,28.831a45.909,45.909,0,0,0-7.168,19.069v1.21c-18.934-5.594-33.942-23.426-33.942-40.8,0-.807.04-1.587.094-2.353,3.429-3.6,9.252-6.078,18.638-5.957Z" transform="translate(-119.944 -30.968)" fill="#f3c7ad" fill-rule="evenodd"/>
          <path id="Path_1046123" data-name="Path 1046123" d="M181.89,430.3h25.08a1.994,1.994,0,0,1,1.99,1.99v2.837a1.994,1.994,0,0,1-1.99,1.99H181.89a2,2,0,0,1-1.99-1.99V432.29a2,2,0,0,1,1.99-1.99Z" transform="translate(-162.528 -376.599)" fill="#cd6632" fill-rule="evenodd"/>
          <path id="Path_1046124" data-name="Path 1046124" d="M149.094,71.4h2.663a1.412,1.412,0,0,1,1.412,1.412v1.035a1.382,1.382,0,0,0,1.049,1.358,14.771,14.771,0,0,1,3.523,1.466,1.4,1.4,0,0,0,1.708-.229l.726-.726a1.42,1.42,0,0,1,2,0l1.883,1.883a1.42,1.42,0,0,1,0,2l-.726.726a1.4,1.4,0,0,0-.229,1.708,14.545,14.545,0,0,1,1.466,3.523,1.382,1.382,0,0,0,1.358,1.049h1.035a1.412,1.412,0,0,1,1.412,1.412v2.663a1.412,1.412,0,0,1-1.412,1.412h-1.049a1.382,1.382,0,0,0-1.358,1.049,14.545,14.545,0,0,1-1.466,3.523,1.4,1.4,0,0,0,.229,1.708l.726.726a1.42,1.42,0,0,1,0,2l-1.883,1.883a1.42,1.42,0,0,1-2,0l-.726-.726a1.4,1.4,0,0,0-1.708-.229,14,14,0,0,1-3.523,1.452,1.382,1.382,0,0,0-1.049,1.358v1.035a1.412,1.412,0,0,1-1.412,1.412h-2.663a1.412,1.412,0,0,1-1.412-1.412v-1.035a1.382,1.382,0,0,0-1.049-1.358,15.066,15.066,0,0,1-3.523-1.452,1.386,1.386,0,0,0-1.708.229l-.726.726a1.42,1.42,0,0,1-2,0l-1.883-1.883a1.42,1.42,0,0,1,0-2l.726-.726a1.4,1.4,0,0,0,.229-1.708,14,14,0,0,1-1.452-3.523,1.4,1.4,0,0,0-1.358-1.049h-1.009a1.412,1.412,0,0,1-1.412-1.412V88.021a1.412,1.412,0,0,1,1.412-1.412h1.035a1.382,1.382,0,0,0,1.358-1.049,15.307,15.307,0,0,1,1.452-3.523,1.386,1.386,0,0,0-.229-1.708L136.8,79.6a1.42,1.42,0,0,1,0-2l1.883-1.883a1.42,1.42,0,0,1,2,0l.726.726a1.4,1.4,0,0,0,1.708.229,14.545,14.545,0,0,1,3.523-1.466,1.4,1.4,0,0,0,1.049-1.358V72.812A1.4,1.4,0,0,1,149.094,71.4Z" transform="translate(-121.502 -65.963)" fill="#208380" fill-rule="evenodd"/>
          <path id="Path_1046125" data-name="Path 1046125" d="M197.224,126.1A10.624,10.624,0,1,1,186.6,136.724,10.629,10.629,0,0,1,197.224,126.1Z" transform="translate(-168.327 -113.307)" fill="#e6e6e6" fill-rule="evenodd"/>
          <path id="Path_1046126" data-name="Path 1046126" d="M217.273,148.919a10.624,10.624,0,0,1-17.885,11.067,10.473,10.473,0,0,1-.888-4.263,10.617,10.617,0,0,1,18.773-6.8Z" transform="translate(-178.627 -129.752)" fill="#fff" fill-rule="evenodd"/>
          <path id="Path_1046127" data-name="Path 1046127" d="M219.853,164.013l.013-.013a4.108,4.108,0,0,1,5.809,5.809l-5.809,5.809-.013-.013-6.078-6.078a4.108,4.108,0,1,1,6.078-5.513Z" transform="translate(-190.809 -144.833)" fill="#f04843" fill-rule="evenodd"/>
        </g>
        <path id="Path_1046128" data-name="Path 1046128" d="M75.892,47.091l-.269-.282a3.575,3.575,0,0,0-5.056,5.056l5.7,5.7L81.7,52.133a3.571,3.571,0,1,0-5.056-5.043A.52.52,0,0,1,75.892,47.091Zm.417-1.13a4.649,4.649,0,0,1,7.531,3.644A4.7,4.7,0,0,1,82.482,52.9l-5.809,5.809a.52.52,0,0,1-.753,0l-6.092-6.078a4.651,4.651,0,0,1,6.482-6.67Zm-.188-6.172A11.161,11.161,0,1,1,64.946,50.95,11.168,11.168,0,0,1,76.121,39.789Zm7.141,4.034a10.089,10.089,0,1,0,0,14.268A10.089,10.089,0,0,0,83.262,43.823Zm-8.445-11.39h2.663a1.951,1.951,0,0,1,1.95,1.95v1.035a.864.864,0,0,0,.645.847,14.713,14.713,0,0,1,3.644,1.52.876.876,0,0,0,1.062-.134c.672-.672,1.13-1.3,2.111-1.3a1.934,1.934,0,0,1,1.372.565l1.883,1.883a1.964,1.964,0,0,1,0,2.757l-.726.726a.838.838,0,0,0-.134,1.062,15.473,15.473,0,0,1,1.52,3.644.864.864,0,0,0,.847.645c.955,0,1.721-.121,2.407.578a1.974,1.974,0,0,1,.578,1.385v2.663a1.951,1.951,0,0,1-1.95,1.95H91.639a.864.864,0,0,0-.847.645,15.276,15.276,0,0,1-.632,1.869,15.534,15.534,0,0,1-.874,1.775.876.876,0,0,0,.134,1.062l.767.767a1.925,1.925,0,0,1,.538,1.345,1.945,1.945,0,0,1-.578,1.385l-1.883,1.883a1.94,1.94,0,0,1-2.757,0l-.726-.726a.855.855,0,0,0-1.062-.134,15.712,15.712,0,0,1-3.644,1.52.864.864,0,0,0-.645.847c0,.955.121,1.721-.578,2.407a1.974,1.974,0,0,1-1.385.578H74.8a1.951,1.951,0,0,1-1.95-1.95V66.441a.864.864,0,0,0-.645-.847,14.539,14.539,0,0,1-1.869-.632,16.714,16.714,0,0,1-1.775-.874.876.876,0,0,0-1.062.134c-.672.672-1.13,1.3-2.111,1.3A1.945,1.945,0,0,1,64,64.949l-1.883-1.883a1.94,1.94,0,0,1,0-2.757l.726-.726a.855.855,0,0,0,.134-1.062,15.473,15.473,0,0,1-1.52-3.644.864.864,0,0,0-.847-.645c-.955,0-1.721.121-2.407-.578a1.974,1.974,0,0,1-.578-1.385V49.605a1.951,1.951,0,0,1,1.95-1.95h1.035a.864.864,0,0,0,.847-.645,14.928,14.928,0,0,1,1.52-3.644.876.876,0,0,0-.134-1.062c-.672-.672-1.3-1.13-1.3-2.111a1.934,1.934,0,0,1,.565-1.372l1.883-1.883a1.942,1.942,0,0,1,1.385-.565c1.466,0,1.8,1.452,2.609,1.56a.816.816,0,0,0,.551-.121,15.474,15.474,0,0,1,3.644-1.52.864.864,0,0,0,.645-.847V34.41a2.018,2.018,0,0,1,1.99-1.977Zm2.663,1.076H74.817a.872.872,0,0,0-.874.874v1.035A1.942,1.942,0,0,1,72.49,37.3,14.115,14.115,0,0,0,69.1,38.713a1.935,1.935,0,0,1-2.353-.309l-.726-.726a.854.854,0,0,0-.619-.256.832.832,0,0,0-.619.256L62.9,39.56a.854.854,0,0,0-.255.619c0,.874,1.372,1.143,1.546,2.474a2.019,2.019,0,0,1-.242,1.237,13.552,13.552,0,0,0-1.4,3.389,1.93,1.93,0,0,1-1.883,1.439H59.634a.872.872,0,0,0-.874.874v2.663a.872.872,0,0,0,.874.874H60.67a1.942,1.942,0,0,1,1.883,1.452,14.64,14.64,0,0,0,1.4,3.389,1.935,1.935,0,0,1-.309,2.353l-.726.726a.885.885,0,0,0,0,1.237L64.8,64.169a.887.887,0,0,0,.619.256c.874,0,1.143-1.372,2.474-1.546a1.96,1.96,0,0,1,1.224.242,13.519,13.519,0,0,0,1.654.82,14.619,14.619,0,0,0,1.735.592,1.942,1.942,0,0,1,1.452,1.883V67.45a.872.872,0,0,0,.874.874h2.663a.872.872,0,0,0,.874-.874V66.415a1.945,1.945,0,0,1,1.439-1.883,14.4,14.4,0,0,0,3.389-1.4,1.935,1.935,0,0,1,2.353.309l.726.726a.885.885,0,0,0,1.237,0l1.883-1.883a.877.877,0,0,0,0-1.237l-.726-.726a1.933,1.933,0,0,1-.309-2.353,13.521,13.521,0,0,0,.82-1.654,14.621,14.621,0,0,0,.592-1.735,1.942,1.942,0,0,1,1.883-1.452h1.035a.872.872,0,0,0,.874-.874V49.592a.872.872,0,0,0-.874-.874H91.639a1.945,1.945,0,0,1-1.883-1.439,13.892,13.892,0,0,0-1.412-3.389,1.935,1.935,0,0,1,.309-2.353l.726-.726a.885.885,0,0,0,0-1.237L87.5,37.691a.885.885,0,0,0-1.237,0l-.726.726a1.935,1.935,0,0,1-2.353.309,13.892,13.892,0,0,0-3.389-1.412,1.93,1.93,0,0,1-1.439-1.883V34.4A.875.875,0,0,0,77.479,33.509ZM67.716,80.7H91.384V75.371a43.683,43.683,0,0,1,2.434-9.749,52.37,52.37,0,0,1,4.8-9.534,17.933,17.933,0,0,0,2.367-8.458c.094-6.939-4.33-12.708-10.395-16.043a29.707,29.707,0,0,0-14.577-3.51c-8.418,0-13.8,2.165-17.092,5.339A15.512,15.512,0,0,0,54.39,44.67v9.951a.516.516,0,0,1-.121.336L48.3,62.367c-.686.847-.861,1.8.323,2.286,1.4.592,2.474.941,3.308,1.21,1.385.444,2.165.7,2.663,1.479.605.914.592,2.38.578,5.715v1.681A3.9,3.9,0,0,0,59.2,78.45H64.61a3,3,0,0,1,2.649,1.493Zm24.743.121a2.549,2.549,0,0,1,1.748,2.407v2.837A2.534,2.534,0,0,1,91.68,88.59H66.587a2.534,2.534,0,0,1-2.528-2.528V83.224A2.538,2.538,0,0,1,66.466,80.7a1.986,1.986,0,0,0-.834-.928,2.118,2.118,0,0,0-1.009-.256L59.217,79.5a4.988,4.988,0,0,1-5.11-4.8l.013-1.681c.013-3.12.013-4.478-.417-5.137-.3-.457-.941-.659-2.1-1.035-.659-.215-2.232-.726-3.429-1.264-1.815-.82-1.883-2.488-.713-3.927l5.85-7.262V44.63a16.561,16.561,0,0,1,4.855-12.009C61.651,29.3,67.286,27,76.013,27a30.939,30.939,0,0,1,15.1,3.644c6.414,3.537,11.054,9.642,10.946,17a19.042,19.042,0,0,1-2.515,8.983l-.013.027a50.728,50.728,0,0,0-4.72,9.333,41.978,41.978,0,0,0-2.367,9.454v5.379Zm-.793.955H66.587a1.464,1.464,0,0,0-1.452,1.452v2.837a1.464,1.464,0,0,0,1.452,1.452h25.08a1.455,1.455,0,0,0,1.452-1.452V83.224A1.438,1.438,0,0,0,91.666,81.772Z" transform="translate(0)"/>
      </g>
    </g>
  </g>
</svg>
