<svg xmlns="http://www.w3.org/2000/svg" xmlns:xlink="http://www.w3.org/1999/xlink" width="108" height="108" viewBox="0 0 108 108">
  <defs>
    <filter id="Path_904820" x="0" y="0" width="108" height="108" filterUnits="userSpaceOnUse">
      <feOffset dy="3" input="SourceAlpha"/>
      <feGaussianBlur stdDeviation="3" result="blur"/>
      <feFlood flood-opacity="0.161"/>
      <feComposite operator="in" in2="blur"/>
      <feComposite in="SourceGraphic"/>
    </filter>
    <clipPath id="clip-path">
      <path id="path4209" d="M0-682.665H56.178v56.178H0Z" transform="translate(0 682.665)"/>
    </clipPath>
  </defs>
  <g id="Group_1203536" data-name="Group 1203536" transform="translate(-623.327 -923.525)">
    <g id="Group_1202587" data-name="Group 1202587" transform="translate(632.327 929.525)">
      <g id="Group_1173585" data-name="Group 1173585" transform="translate(0 0)">
        <g id="Group_1173428" data-name="Group 1173428" transform="translate(0)">
          <g id="Group_1171958" data-name="Group 1171958">
            <g id="Group_1167341" data-name="Group 1167341">
              <g id="Group_1166792" data-name="Group 1166792">
                <g transform="matrix(1, 0, 0, 1, -9, -6)" filter="url(#Path_904820)">
                  <g id="Path_904820-2" data-name="Path 904820" transform="translate(9 6)" fill="#f9f9fe">
                    <path d="M 45 88.49999237060547 C 39.12687683105469 88.49999237060547 33.43022537231445 87.35006713867188 28.06830024719238 85.08216857910156 C 22.88852500915527 82.89130401611328 18.23629951477051 79.75457763671875 14.2408504486084 75.75914001464844 C 10.24541282653809 71.76369476318359 7.108687400817871 67.11146545410156 4.917825222015381 61.93169403076172 C 2.649924993515015 56.56976699829102 1.5 50.87311553955078 1.5 44.99999237060547 C 1.5 39.12686920166016 2.649924993515015 33.43021774291992 4.917825222015381 28.06829261779785 C 7.108687400817871 22.88851737976074 10.24541282653809 18.23630523681641 14.2408504486084 14.24085521697998 C 18.23629951477051 10.24540519714355 22.88852500915527 7.108692169189453 28.06830024719238 4.917829990386963 C 33.43022537231445 2.649929761886597 39.12687683105469 1.500004887580872 45 1.500004887580872 C 50.87312316894531 1.500004887580872 56.56977462768555 2.649929761886597 61.93170166015625 4.917829990386963 C 67.11147308349609 7.108692169189453 71.76370239257812 10.24540519714355 75.75914764404297 14.24085521697998 C 79.75458526611328 18.23630523681641 82.89131164550781 22.88851737976074 85.08217620849609 28.06829261779785 C 87.35007476806641 33.43021774291992 88.5 39.12686920166016 88.5 44.99999237060547 C 88.5 50.87311553955078 87.35007476806641 56.56976699829102 85.08217620849609 61.93169403076172 C 82.89131164550781 67.11146545410156 79.75458526611328 71.76369476318359 75.75914764404297 75.75914001464844 C 71.76370239257812 79.75457763671875 67.11147308349609 82.89130401611328 61.93170166015625 85.08216857910156 C 56.56977462768555 87.35006713867188 50.87312316894531 88.49999237060547 45 88.49999237060547 Z" stroke="none"/>
                    <path d="M 45 2.999992370605469 C 39.32871246337891 2.999992370605469 33.82865524291992 4.11004638671875 28.65262985229492 6.299331665039062 C 23.65165710449219 8.414566040039062 19.15968322753906 11.44333648681641 15.301513671875 15.30150604248047 C 11.44334411621094 19.15967559814453 8.414573669433594 23.65164947509766 6.299339294433594 28.65262222290039 C 4.110054016113281 33.82864761352539 3 39.32870483398438 3 44.99999237060547 C 3 50.67127990722656 4.110054016113281 56.17132186889648 6.299339294433594 61.34736633300781 C 8.414573669433594 66.34833526611328 11.44334411621094 70.84029388427734 15.301513671875 74.69846343994141 C 19.15968322753906 78.55663299560547 23.65165710449219 81.58540344238281 28.65262985229492 83.70063781738281 C 33.82865524291992 85.88992309570312 39.32871246337891 86.99997711181641 45 86.99997711181641 C 50.67128753662109 86.99997711181641 56.17134475708008 85.88992309570312 61.34737396240234 83.70063781738281 C 66.34834289550781 81.58540344238281 70.84031677246094 78.55663299560547 74.698486328125 74.69846343994141 C 78.55665588378906 70.84029388427734 81.58542633056641 66.34833526611328 83.70066070556641 61.34736633300781 C 85.88994598388672 56.17132186889648 87 50.67127990722656 87 44.99999237060547 C 87 39.32870483398438 85.88994598388672 33.82864761352539 83.70066070556641 28.65262222290039 C 81.58542633056641 23.65164947509766 78.55665588378906 19.15967559814453 74.698486328125 15.30150604248047 C 70.84031677246094 11.44333648681641 66.34834289550781 8.414566040039062 61.34737396240234 6.299331665039062 C 56.17134475708008 4.11004638671875 50.67128753662109 2.999992370605469 45 2.999992370605469 M 45 -7.62939453125e-06 C 69.85281372070312 -7.62939453125e-06 90 20.14717864990234 90 44.99999237060547 C 90 69.85279083251953 69.85281372070312 89.99997711181641 45 89.99997711181641 C 20.14718627929688 89.99997711181641 0 69.85279083251953 0 44.99999237060547 C 0 20.14717864990234 20.14718627929688 -7.62939453125e-06 45 -7.62939453125e-06 Z" stroke="none" fill="#6f6e88"/>
                  </g>
                </g>
              </g>
            </g>
          </g>
        </g>
      </g>
      <g id="g4203" transform="translate(16.911 696.384)">
        <g id="g4205" transform="translate(0 -682.665)">
          <g id="g4207" transform="translate(0 0)" clip-path="url(#clip-path)">
            <g id="g4213" transform="translate(11.662 36.689)">
              <path id="path4215" d="M-468.881-208.161c0-2.486-1.561-10.965-4.638-13.346-1.327-1.027-5.664-2.374-8.847-3.387a10.871,10.871,0,0,1-3.843-1.933l-17.054.361a12.872,12.872,0,0,1-3.37,1.572c-.995.317-2.1.666-3.2,1.028l-1.1,7.48,1.1,7.128,4.663,1.1Z" transform="translate(510.925 226.827)" fill="#ffd064"/>
            </g>
            <g id="g4217" transform="translate(18.123 36.689)">
              <path id="path4219" d="M-28.9-113.918l2.03-3.647a1.805,1.805,0,0,1,1.608-.927l6.708.113,2.485,4.389a.439.439,0,0,0,.791-.057,19.375,19.375,0,0,0,1.409-6.383,5.3,5.3,0,0,0-1.256-3.7H-29.815a4.634,4.634,0,0,1-.473.361,4.828,4.828,0,0,0-1.2,3.343,16.366,16.366,0,0,0,1.814,6.492.439.439,0,0,0,.777.019" transform="translate(31.491 124.133)" fill="#ebb044"/>
            </g>
            <g id="g4221" transform="translate(2.47 39.65)">
              <path id="path4223" d="M0-175.141H5.171l5.118-1.1v-14.608a24.766,24.766,0,0,0-5.651,2.359C1.561-186.106,0-177.627,0-175.141" transform="translate(0 190.846)" fill="#ebb044"/>
            </g>
            <g id="g4225" transform="translate(19.497 34.57)">
              <path id="path4227" d="M-172.094,0s1.752,1.077,1.752,4.141a20.912,20.912,0,0,1-1.756,7.224l-2.929-5.174-7.79-.132-2.954,5.306a20.912,20.912,0,0,1-1.756-7.224c0-3.065,1.752-4.141,1.752-4.141Z" transform="translate(187.526 0)" fill="#fff0af"/>
            </g>
            <g id="g4229" transform="translate(21.249 30.213)">
              <path id="path4231" d="M-76.276,0c-4.475,0-6.84,1.088-6.84,4.422a6.936,6.936,0,0,0,3,6.01l3.84,9.719,3.84-9.719a6.936,6.936,0,0,0,3-6.01C-69.436,1.089-71.8,0-76.276,0" transform="translate(83.116)" fill="#c7865b"/>
            </g>
            <g id="g4233" transform="translate(10.839 37.631)">
              <path id="path4235" d="M-38.646-11.085l-.722-.994-1.82.994a2.464,2.464,0,0,0-.923,1.925c0,1.364,1.1,8.568,1.1,8.568h3.292V-9.159a2.464,2.464,0,0,0-.923-1.925" transform="translate(42.112 12.079)" fill="#edf6ff"/>
            </g>
            <g id="g4237" transform="translate(10.291 36.498)">
              <path id="path4239" d="M-28.652-23.711l.722-.994-.823-1.132L-30.3-23.711a2.464,2.464,0,0,0-.923,1.925v8.568h1.646v-8.568a2.464,2.464,0,0,1,.923-1.925" transform="translate(31.221 25.837)" fill="#cde2ff"/>
            </g>
            <g id="g4241" transform="translate(11.812 32.888)">
              <path id="path4243" d="M-33.572,0h-2.938l-.072,4.64,3.074-.549.414-3.555A.481.481,0,0,0-33.572,0" transform="translate(36.583)" fill="#94ccd4"/>
            </g>
            <g id="g4245" transform="translate(10.216 32.888)">
              <path id="path4247" d="M-23.373-40.884l-.427-3.666h-1.188a.481.481,0,0,0-.477.536l.557,4.776a.481.481,0,0,0,.478.425h3.013a.481.481,0,0,0,.477-.425l.142-1.221h-2.1a.481.481,0,0,1-.478-.425" transform="translate(25.469 44.551)" fill="#61aab8"/>
            </g>
            <g id="g4249" transform="translate(8.739 45.111)">
              <path id="path4251" d="M-96.84-27.163a2.323,2.323,0,0,0-1.85-2.272,9.585,9.585,0,0,0-5.284.552c-.617.3-1.55.915-1.55,1.579l.549,7.948h8.135Z" transform="translate(105.524 29.599)" fill="#d8ab8c"/>
            </g>
            <g id="g4253" transform="translate(7.642 45.827)">
              <path id="path4255" d="M-29.521,0a13.54,13.54,0,0,0-1.4.617,2.311,2.311,0,0,0-1.252,2.059V9.527h1.646V1.579a1.765,1.765,0,0,1,1-1.579" transform="translate(32.168)" fill="#c7865b"/>
            </g>
            <g id="g4257" transform="translate(12.404 17.04)">
              <path id="path4259" d="M-308.99-91.547c2.123,0,3.662-2.261,3.662-5.015,0-2.361-1.254-3.194-2.072-3.194a1.48,1.48,0,0,0-1.48,1.48h-24.267a1.48,1.48,0,0,0-1.48-1.48c-.817,0-2.071.833-2.071,3.194,0,2.754,1.539,5.015,3.662,5.015Z" transform="translate(336.698 99.756)" fill="#c7865b"/>
            </g>
            <g id="g4261" transform="translate(16.504 1.372)">
              <path id="path4263" d="M-264.5-247.18v-6.5c0-9.854-5.816-15.416-12.134-15.669a11.574,11.574,0,0,0-10.488,7.258s-1.1,13.52-1.1,14.907c0,7.122,6.772,13.66,11.585,13.66,6.313,0,12.134-6.538,12.134-13.66" transform="translate(288.223 269.345)" fill="#d8ab8c"/>
            </g>
            <g id="g4265" transform="translate(15.955 8.63)">
              <path id="path4267" d="M-18.354-166.239v-14.907a22.829,22.829,0,0,0-1.646,8.9v6c0,7.122,5.82,13.66,12.133,13.66-4.813,0-10.488-6.538-10.488-13.66" transform="translate(20 181.146)" fill="#c7865b"/>
            </g>
            <g id="g4269" transform="translate(24.412 19.501)">
              <path id="path4271" d="M-37.841-75.719c1.737-.686,2-1.421,1.6-2.675l-1.005-3.118a1.494,1.494,0,0,0-2.818,0l-1.005,3.118c-.4,1.254-.137,1.989,1.6,2.675a2.19,2.19,0,0,0,1.628,0" transform="translate(41.235 82.509)" fill="#c7865b"/>
            </g>
            <g id="g4273" transform="translate(25.51 18.404)">
              <path id="path4275" d="M-37.841-75.719c1.737-.686,2-1.421,1.6-2.675l-1.005-3.118a1.494,1.494,0,0,0-2.818,0l-1.005,3.118c-.4,1.254-.137,1.989,1.6,2.675a2.19,2.19,0,0,0,1.628,0" transform="translate(41.235 82.509)" fill="#e0bba4"/>
            </g>
            <g id="g4277" transform="translate(30.653 15.19)">
              <path id="path4279" d="M-49.4,0a8.944,8.944,0,0,0-3.729.675,3.456,3.456,0,0,0-.685,2.207c.445,2.952,2.322,4.575,5.511,4.575a5.844,5.844,0,0,0,3.482-1.243,4.8,4.8,0,0,0,.56-2.328C-44.262,1.117-46.213,0-49.4,0" transform="translate(53.832)" fill="#edf6ff"/>
            </g>
            <g id="g4281" transform="translate(17.053 15.19)">
              <path id="path4283" d="M-45.08,0a7.572,7.572,0,0,0-3.185.57,3.345,3.345,0,0,0-.858,2.219c0,2.77,1.951,4.668,5.14,4.668A5.452,5.452,0,0,0-40.3,6.179a6.206,6.206,0,0,0,.731-2.2C-39.124,1.028-41.891,0-45.08,0" transform="translate(49.123 0)" fill="#edf6ff"/>
            </g>
            <g id="g4285" transform="translate(29.525 15.865)">
              <path id="path4287" d="M-18.88-18.5a3.255,3.255,0,0,1,.136-1.659,2.9,2.9,0,0,0-1.782,3.3c.445,2.952,2.322,4.575,5.511,4.575a4.916,4.916,0,0,0,4.58-2.34,5.947,5.947,0,0,1-2.934.694c-3.189,0-5.066-1.623-5.511-4.575" transform="translate(20.573 20.156)" fill="#cde2ff"/>
            </g>
            <g id="g4289" transform="translate(15.955 15.76)">
              <path id="path4291" d="M-18.354-18.632a4.212,4.212,0,0,1,.309-1.671A3.339,3.339,0,0,0-20-16.986c0,2.77,1.951,4.668,5.14,4.668,2.277,0,3.884-.828,4.78-2.376a6.238,6.238,0,0,1-3.134.73c-3.189,0-5.14-1.9-5.14-4.668" transform="translate(20 20.303)" fill="#cde2ff"/>
            </g>
            <g id="g4293" transform="translate(17.276 0.823)">
              <path id="path4295" d="M-120.582,0a16.724,16.724,0,0,0-10.152,3.061c-1.408,1.521-.314,2.967.945,2.318a12.805,12.805,0,0,1,5.947-1.973c4.014,0,8.916,4.127,10.58,4.127.68,0,1.522-1.169,1.522-1.169,0,5.58,3.291,3.945,3.292,10.345V6.364c0-3.1-5.432-6.364-12.133-6.364" transform="translate(131.394)" fill="#94ccd4"/>
            </g>
            <g id="g4297" transform="translate(15.955 3.571)">
              <path id="path4299" d="M-221.839-47.244c-1.664,0-7.006-4.236-11.019-4.236a11.134,11.134,0,0,0-5.8,1.86c-.767.515-1.932,0-1.091-1.547a4.515,4.515,0,0,0-1.981,3.3v10.346c0-7.62,3.292-4.766,3.292-10.346a8.33,8.33,0,0,1,5.582-1.97c4.014,0,8.5,3.827,10.163,3.827.889,0,1.939-1.858,1.939-1.858a1.423,1.423,0,0,1-1.083.621" transform="translate(241.731 51.48)" fill="#61aab8"/>
            </g>
            <g id="g4301" transform="translate(2.471 0.823)">
              <path id="path4303" d="M-421-186.343c0-6.4-3.292-4.766-3.292-10.346,0,0-1.05,1.858-1.939,1.858-1.664,0-6.15-3.828-10.163-3.828a8.33,8.33,0,0,0-5.582,1.97c0,5.58-3.292,2.726-3.292,10.346m-3.2,14.388v.968m2.063,0h-4.127a.481.481,0,0,0-.477.536l.557,4.776a.481.481,0,0,0,.478.425h3.013a.481.481,0,0,0,.477-.425l.557-4.776A.481.481,0,0,0-446.4-170.988Zm-3.609,5.736a2.464,2.464,0,0,0-.923,1.925v5.057m4.938-.621v-4.436a2.464,2.464,0,0,0-.923-1.925m3.078,9.824-6.449.981m0,3.731,6.449-.981m.04,3.176v-7.807a2.323,2.323,0,0,0-1.85-2.272,10.452,10.452,0,0,0-6.679,1.169,2.31,2.31,0,0,0-1.252,2.059v6.851m20.447-4.992v4.992m3.907-14.592,2.929,5.174a20.912,20.912,0,0,0,1.756-7.224,4.85,4.85,0,0,0-1.7-4.109m18.731,20.752c0-2.486-1.561-10.965-4.638-13.346m-2.867-1.381c-1.826-.7-4.1-1.409-5.981-2.007a11.193,11.193,0,0,1-3.819-1.912m-15.2-2.1a4.854,4.854,0,0,0-1.7,4.107,20.912,20.912,0,0,0,1.756,7.224l2.954-5.306m14.55-27.891a6.7,6.7,0,0,0-3.673-.842,7.6,7.6,0,0,0-4.415,1.082m-5.158,0a7.6,7.6,0,0,0-4.415-1.082,6.7,6.7,0,0,0-3.673.842m9.184,6.43c.445-2.952-2.322-3.98-5.511-3.98s-5.14,1.117-5.14,3.887,1.951,4.668,5.14,4.668S-435.066-181.755-434.621-184.706Zm2.3,6.024c1.737-.686,2-1.421,1.6-2.675l-1.005-3.118a1.494,1.494,0,0,0-2.818,0l-1.005,3.118c-.4,1.254-.137,1.989,1.6,2.675A2.19,2.19,0,0,0-432.324-178.682Zm6.18-1.449c3.189,0,5.14-1.9,5.14-4.668s-1.951-3.887-5.14-3.887-5.956,1.028-5.511,3.98S-429.333-180.132-426.144-180.132Zm5.029,1.505c2.123,0,3.662-2.261,3.662-5.015,0-2.361-1.254-3.194-2.072-3.194a1.48,1.48,0,0,0-1.48,1.48m-24.267,0a1.48,1.48,0,0,0-1.48-1.48c-.817,0-2.072.833-2.072,3.194,0,2.754,1.539,5.015,3.662,5.015m17.251-6.734v1.661m-10.457-1.661v1.661m-3.08,16.528a11.149,11.149,0,0,1-3.824,1.916l-1.232.392m-4.471,1.51a13.845,13.845,0,0,0-3.145,1.485c-3.077,2.381-4.638,10.86-4.638,13.346m20.971-26.579a8.232,8.232,0,0,0,9.294,0m-11.487,5.863a7.138,7.138,0,0,0,3,5.915l1.13,2.886m1.109,2.831,1.6,4.092,3.84-9.719a6.991,6.991,0,0,0,3-6.01m-12.743-32.922a19.621,19.621,0,0,1,5.9-.889c6.7,0,12.134,3.264,12.134,6.364v16.35c0,7.122-5.82,13.66-12.134,13.66s-12.133-6.538-12.133-13.66v-16.35c0-1.355,1.039-2.742,2.769-3.874" transform="translate(458.756 203.053)" fill="none" stroke="#000" stroke-linecap="round" stroke-linejoin="round" stroke-miterlimit="10" stroke-width="1"/>
            </g>
          </g>
        </g>
      </g>
    </g>
  </g>
</svg>
