<svg xmlns="http://www.w3.org/2000/svg" xmlns:xlink="http://www.w3.org/1999/xlink" width="113" height="113" viewBox="0 0 113 113">
  <defs>
    <filter id="Path_982547" x="0" y="0" width="113" height="113" filterUnits="userSpaceOnUse">
      <feOffset dy="3" input="SourceAlpha"/>
      <feGaussianBlur stdDeviation="3" result="blur"/>
      <feFlood flood-opacity="0.161"/>
      <feComposite operator="in" in2="blur"/>
      <feComposite in="SourceGraphic"/>
    </filter>
  </defs>
  <g id="Group_1203550" data-name="Group 1203550" transform="translate(-744.148 -4232.648)">
    <g id="Group_1203110" data-name="Group 1203110">
      <g id="Group_1202633" data-name="Group 1202633" transform="translate(753.148 4238.648)">
        <g id="Group_1172010" data-name="Group 1172010">
          <g id="Group_1171046" data-name="Group 1171046">
            <g id="Group_1148525" data-name="Group 1148525">
              <g transform="matrix(1, 0, 0, 1, -9, -6)" filter="url(#Path_982547)">
                <g id="Path_982547-2" data-name="Path 982547" transform="translate(9 6)" fill="#f7fbfc">
                  <path d="M 47.5 93.5 C 41.28937149047852 93.5 35.26533508300781 92.28397369384766 29.59518623352051 89.88570404052734 C 24.11771965026855 87.56893157958984 19.19813346862793 84.25196075439453 14.97309303283691 80.02691650390625 C 10.74804019927979 75.80186462402344 7.431066513061523 70.88229370117188 5.114293098449707 65.40481567382812 C 2.716026782989502 59.73468017578125 1.5 53.71062850952148 1.5 47.5 C 1.5 41.28937149047852 2.716026782989502 35.26533508300781 5.114293098449707 29.59518623352051 C 7.431066513061523 24.11771965026855 10.74804019927979 19.19813346862793 14.97309303283691 14.97309303283691 C 19.19813346862793 10.74804019927979 24.11771965026855 7.431066513061523 29.59518623352051 5.114293098449707 C 35.26533508300781 2.716026782989502 41.28937149047852 1.5 47.5 1.5 C 53.71062850952148 1.5 59.73468017578125 2.716026782989502 65.40481567382812 5.114293098449707 C 70.88229370117188 7.431066513061523 75.80186462402344 10.74804019927979 80.02691650390625 14.97309303283691 C 84.25196075439453 19.19813346862793 87.56893157958984 24.11771965026855 89.88570404052734 29.59518623352051 C 92.28397369384766 35.26533508300781 93.5 41.28937149047852 93.5 47.5 C 93.5 53.71062850952148 92.28397369384766 59.73468017578125 89.88570404052734 65.40481567382812 C 87.56893157958984 70.88229370117188 84.25196075439453 75.80186462402344 80.02691650390625 80.02691650390625 C 75.80186462402344 84.25196075439453 70.88229370117188 87.56893157958984 65.40481567382812 89.88570404052734 C 59.73468017578125 92.28397369384766 53.71062850952148 93.5 47.5 93.5 Z" stroke="none"/>
                  <path d="M 47.5 3 C 41.49121475219727 3 35.66376876831055 4.176155090332031 30.17950439453125 6.495796203613281 C 24.88084411621094 8.736953735351562 20.12152099609375 11.94598388671875 16.03375244140625 16.03375244140625 C 11.94598388671875 20.12152099609375 8.736953735351562 24.88084411621094 6.495796203613281 30.17950439453125 C 4.176155090332031 35.66376876831055 3 41.49121475219727 3 47.5 C 3 53.50878524780273 4.176155090332031 59.33623123168945 6.495796203613281 64.82049560546875 C 8.736953735351562 70.11915588378906 11.94598388671875 74.87847900390625 16.03375244140625 78.96624755859375 C 20.12152099609375 83.05401611328125 24.88084411621094 86.26304626464844 30.17950439453125 88.50419616699219 C 35.66376876831055 90.82384490966797 41.49121475219727 92 47.5 92 C 53.50878524780273 92 59.33623123168945 90.82384490966797 64.82049560546875 88.50419616699219 C 70.11915588378906 86.26304626464844 74.87847900390625 83.05401611328125 78.96624755859375 78.96624755859375 C 83.05401611328125 74.87847900390625 86.26304626464844 70.11915588378906 88.50419616699219 64.82049560546875 C 90.82384490966797 59.33623123168945 92 53.50878524780273 92 47.5 C 92 41.49121475219727 90.82384490966797 35.66376876831055 88.50419616699219 30.17950439453125 C 86.26304626464844 24.88084411621094 83.05401611328125 20.12152099609375 78.96624755859375 16.03375244140625 C 74.87847900390625 11.94598388671875 70.11915588378906 8.736953735351562 64.82049560546875 6.495796203613281 C 59.33623123168945 4.176155090332031 53.50878524780273 3 47.5 3 M 47.5 0 C 73.7335205078125 0 95 21.2664794921875 95 47.5 C 95 73.7335205078125 73.7335205078125 95 47.5 95 C 21.2664794921875 95 0 73.7335205078125 0 47.5 C 0 21.2664794921875 21.2664794921875 0 47.5 0 Z" stroke="none" fill="#62797e"/>
                </g>
              </g>
            </g>
          </g>
        </g>
      </g>
      <g id="initiative_2464153" transform="translate(770.793 4254.148)">
        <g id="Group_1203108" data-name="Group 1203108">
          <g id="Group_1203098" data-name="Group 1203098">
            <path id="Path_1043707" data-name="Path 1043707" d="M28,8V23H25a5.022,5.022,0,0,1-3.54-1.46,1.538,1.538,0,0,1-.12-.13A11.886,11.886,0,0,1,15.39,23H15a5.029,5.029,0,0,1-2.88-.91l1.14,10.25a12.961,12.961,0,0,0,6.59,9.91q.495.27,1.02.51L20,48l-4.11.69v-.01l-.29-.89a3,3,0,0,0-2.48-2.02l-.64-.08a6.261,6.261,0,0,1-4.82-9.01L9,34l-.63-.54A18.262,18.262,0,0,1,2,19.62,17.607,17.607,0,0,1,19.61,2H28Z" fill="#656d78"/>
          </g>
          <g id="Group_1203099" data-name="Group 1203099">
            <path id="Path_1043708" data-name="Path 1043708" d="M28,56v6H2v-.35a12.639,12.639,0,0,1,.78-4.36,12.418,12.418,0,0,1,2.25-3.82,12.554,12.554,0,0,1,7.48-4.22l3.38-.56L20,48v9l8-5Z" fill="#4fc1e9"/>
          </g>
          <g id="Group_1203100" data-name="Group 1203100">
            <path id="Path_1043709" data-name="Path 1043709" d="M28,52l-8,5V48Z" fill="#3bafda"/>
          </g>
          <g id="Group_1203101" data-name="Group 1203101">
            <path id="Path_1043710" data-name="Path 1043710" d="M28,48v4l-8-4,.87-5.24A13.8,13.8,0,0,0,26.6,44H28Z" fill="#f0d0b4"/>
          </g>
          <g id="Group_1203102" data-name="Group 1203102">
            <path id="Path_1043711" data-name="Path 1043711" d="M28,38v6H26.6a13.8,13.8,0,0,1-5.73-1.24q-.525-.24-1.02-.51a12.961,12.961,0,0,1-6.59-9.91L12.12,22.09A5.029,5.029,0,0,0,15,23h.39a11.886,11.886,0,0,0,5.95-1.59,1.538,1.538,0,0,0,.12.13A5.022,5.022,0,0,0,25,23h3V38Z" fill="#f0d0b4"/>
          </g>
          <g id="Group_1203103" data-name="Group 1203103">
            <path id="Path_1043712" data-name="Path 1043712" d="M28,56h9a7.178,7.178,0,0,1-7,6H28Z" fill="#aab2bd"/>
          </g>
          <g id="Group_1203104" data-name="Group 1203104">
            <path id="Path_1043713" data-name="Path 1043713" d="M39,52v3a1,1,0,0,1-1,1H28V52Z" fill="#ccd1d9"/>
          </g>
          <g id="Group_1203105" data-name="Group 1203105">
            <path id="Path_1043714" data-name="Path 1043714" d="M39,49v3H28V48H38A1,1,0,0,1,39,49Z" fill="#ccd1d9"/>
          </g>
          <g id="Group_1203106" data-name="Group 1203106">
            <path id="Path_1043715" data-name="Path 1043715" d="M28.54,2H28V48h9a14.352,14.352,0,0,1,1.36-6c2.37-5.27,7.19-9.61,8.96-16A18.145,18.145,0,0,0,48,21.03C48.02,10.56,39.01,2,28.54,2Z" fill="#ffeaa7"/>
          </g>
          <g id="Group_1203107" data-name="Group 1203107">
            <path id="Path_1043716" data-name="Path 1043716" d="M31,32.95V34H28V26.92A6.634,6.634,0,0,0,29,27a6,6,0,0,0,0-12,6.634,6.634,0,0,0-1,.08V8h3V9.05a2.911,2.911,0,0,0,1.8,2.7c.01,0,.03.01.04.01a2.907,2.907,0,0,0,3.19-.62l.75-.75,2.83,2.83-.75.75a2.907,2.907,0,0,0-.62,3.19c0,.01.01.03.01.04a2.911,2.911,0,0,0,2.7,1.8H42v4H40.95a2.911,2.911,0,0,0-2.7,1.8c0,.01-.01.03-.01.04a2.907,2.907,0,0,0,.62,3.19l.75.75-2.83,2.83-.75-.75a2.907,2.907,0,0,0-3.19-.62c-.01,0-.03.01-.04.01A2.911,2.911,0,0,0,31,32.95Z" fill="#fcd770"/>
          </g>
        </g>
        <g id="Group_1203109" data-name="Group 1203109">
          <path id="Path_1043717" data-name="Path 1043717" d="M15.879,28.293a5.828,5.828,0,0,0,8.242,0l.586-.586-1.414-1.414-.586.586a3.923,3.923,0,0,1-5.414,0l-.586-.586-1.414,1.414Z"/>
          <path id="Path_1043718" data-name="Path 1043718" d="M51,17h2v2H51Z"/>
          <path id="Path_1043719" data-name="Path 1043719" d="M55,17h2v2H55Z"/>
          <path id="Path_1043720" data-name="Path 1043720" d="M59,17h2v2H59Z"/>
          <path id="Path_1043721" data-name="Path 1043721" d="M58.707,21.293l-1.414,1.414L59.586,25H48.591A19.766,19.766,0,0,0,49,21.032,19.257,19.257,0,0,0,46.167,11H59.585l-2.293,2.293,1.414,1.414L63.414,10,58.707,5.293,57.293,6.707,59.586,9H44.792A20.521,20.521,0,0,0,28.544,1H19.612A18.616,18.616,0,0,0,1,19.616a19.208,19.208,0,0,0,6.715,14.6l.042.036-.99,1.98a7.255,7.255,0,0,0,5.588,10.446l.645.081A2,2,0,0,1,14.542,47.9l-2.2.367A13.576,13.576,0,0,0,1,61.651V63H30.012A8.168,8.168,0,0,0,37.8,57H38a2,2,0,0,0,2-2V49a2,2,0,0,0-1.934-1.993A13.517,13.517,0,0,1,39.038,43H59.586l-2.293,2.293,1.414,1.414L63.414,42l-4.707-4.707-1.414,1.414L59.586,41H39.994a52.527,52.527,0,0,1,2.954-4.637A35.572,35.572,0,0,0,48.07,27H59.586l-2.293,2.293,1.414,1.414L63.414,26ZM32.451,12.686a3.906,3.906,0,0,0,4.287-.84l.042-.042L38.2,13.22l-.042.042A3.96,3.96,0,0,0,40.945,20H41v2h-.055a3.96,3.96,0,0,0-2.791,6.738l.042.042L36.78,30.2l-.042-.042A3.959,3.959,0,0,0,30,32.945V33H29V28a7,7,0,1,0,0-14V9h1v.055a3.914,3.914,0,0,0,2.451,3.631ZM38,49v2H29V49ZM21.163,22.608A5.974,5.974,0,0,0,25,24h2V37h-.171a5.791,5.791,0,0,1-4.122-1.707l-1.414,1.414A7.777,7.777,0,0,0,26.829,39H27v4h-.4a12.917,12.917,0,0,1-6.259-1.622,11.991,11.991,0,0,1-6.085-9.144l-.942-8.48A5.948,5.948,0,0,0,15,24h.4a12.9,12.9,0,0,0,5.768-1.392ZM29,16a5,5,0,0,1,0,10ZM26.6,45H27v5.382l-5.892-2.946.548-3.289A14.918,14.918,0,0,0,26.6,45ZM21,49.618,25.958,52.1,21,55.195Zm-4.453-2.14a4.021,4.021,0,0,0-3.3-2.7l-.645-.081a5.257,5.257,0,0,1-4.049-7.567l1.688-3.377L9.016,32.7A17.206,17.206,0,0,1,3,19.616,16.614,16.614,0,0,1,19.612,3H27V22H25a4,4,0,0,1,0-8V12a5.988,5.988,0,0,0-5.165,9.038,10.914,10.914,0,0,1-4.44.962H15a4,4,0,1,1,0-8V12a6,6,0,0,0-3.826,10.618l1.093,9.837a14,14,0,0,0,7.1,10.671c.13.072.264.136.4.2l-.634,3.8-2.557.426ZM5.786,54.119a11.591,11.591,0,0,1,6.885-3.884L19,49.181v9.624l8-5V61H3.019A11.578,11.578,0,0,1,5.786,54.119ZM30,61H29V57h6.693A6.16,6.16,0,0,1,30,61Zm-1-6V53h9v2ZM41.3,35.228C38.868,38.756,36.36,42.4,36.037,47H33V42.162a3.385,3.385,0,0,1,2.316-3.214l-.633-1.9A5.379,5.379,0,0,0,31,42.162V47H29V35h3V32.945a1.96,1.96,0,0,1,3.325-1.377l1.456,1.456,4.244-4.244L39.57,27.324a1.934,1.934,0,0,1-.393-2.141A1.906,1.906,0,0,1,40.945,24H43V18H40.945a1.96,1.96,0,0,1-1.377-3.325l1.455-1.456L36.78,8.976l-1.457,1.456a1.931,1.931,0,0,1-2.141.392A1.908,1.908,0,0,1,32,9.055V7H29V3.023a18.8,18.8,0,0,1,12.726,5.5A17.6,17.6,0,0,1,47,21.028c-.009,5.948-2.9,10.143-5.7,14.2Z"/>
          <path id="Path_1043722" data-name="Path 1043722" d="M51,33h2v2H51Z"/>
          <path id="Path_1043723" data-name="Path 1043723" d="M55,33h2v2H55Z"/>
          <path id="Path_1043724" data-name="Path 1043724" d="M59,33h2v2H59Z"/>
        </g>
      </g>
    </g>
  </g>
</svg>
