<svg xmlns="http://www.w3.org/2000/svg" xmlns:xlink="http://www.w3.org/1999/xlink" width="118" height="118" viewBox="0 0 118 118">
  <defs>
    <filter id="Path_982547" x="0" y="0" width="118" height="118" filterUnits="userSpaceOnUse">
      <feOffset dy="3" input="SourceAlpha"/>
      <feGaussianBlur stdDeviation="3" result="blur"/>
      <feFlood flood-opacity="0.161"/>
      <feComposite operator="in" in2="blur"/>
      <feComposite in="SourceGraphic"/>
    </filter>
  </defs>
  <g id="Group_1203523" data-name="Group 1203523" transform="translate(-1056.233 -3976.515)">
    <g id="Group_1203007" data-name="Group 1203007">
      <g id="Group_1202525" data-name="Group 1202525" transform="translate(1065.233 3982.515)">
        <g id="Group_1178325" data-name="Group 1178325">
          <g id="Group_1177679" data-name="Group 1177679">
            <g id="Group_1172010" data-name="Group 1172010">
              <g id="Group_1171046" data-name="Group 1171046">
                <g id="Group_1148525" data-name="Group 1148525">
                  <g transform="matrix(1, 0, 0, 1, -9, -6)" filter="url(#Path_982547)">
                    <g id="Path_982547-2" data-name="Path 982547" transform="translate(9 6)" fill="#f4f4fd">
                      <path d="M 50 98.5 C 43.45188522338867 98.5 37.10042953491211 97.21787261962891 31.12207221984863 94.68923950195312 C 25.34691429138184 92.24655914306641 20.15997123718262 88.74931335449219 15.70532894134521 84.29468536376953 C 11.2506856918335 79.84004211425781 7.753442764282227 74.65309906005859 5.310757160186768 68.8779296875 C 2.782128572463989 62.89957046508789 1.5 56.54811477661133 1.5 50 C 1.5 43.45188522338867 2.782128572463989 37.10042953491211 5.310757160186768 31.12207221984863 C 7.753442764282227 25.34691429138184 11.2506856918335 20.15997123718262 15.70532894134521 15.70532894134521 C 20.15997123718262 11.2506856918335 25.34691429138184 7.753442764282227 31.12207221984863 5.310757160186768 C 37.10042953491211 2.782128572463989 43.45188522338867 1.5 50 1.5 C 56.54811477661133 1.5 62.89957046508789 2.782128572463989 68.8779296875 5.310757160186768 C 74.65309906005859 7.753442764282227 79.84004211425781 11.2506856918335 84.29468536376953 15.70532894134521 C 88.74931335449219 20.15997123718262 92.24655914306641 25.34691429138184 94.68923950195312 31.12207221984863 C 97.21787261962891 37.10042953491211 98.5 43.45188522338867 98.5 50 C 98.5 56.54811477661133 97.21787261962891 62.89957046508789 94.68923950195312 68.8779296875 C 92.24655914306641 74.65309906005859 88.74931335449219 79.84004211425781 84.29468536376953 84.29468536376953 C 79.84004211425781 88.74931335449219 74.65309906005859 92.24655914306641 68.8779296875 94.68923950195312 C 62.89957046508789 97.21787261962891 56.54811477661133 98.5 50 98.5 Z" stroke="none"/>
                      <path d="M 50 3 C 43.65372467041016 3 37.49886322021484 4.242263793945312 31.70639801025391 6.6922607421875 C 26.11003112792969 9.059326171875 21.08335113525391 12.44861602783203 16.76598358154297 16.76598358154297 C 12.44861602783203 21.08335113525391 9.059326171875 26.11003112792969 6.6922607421875 31.70639801025391 C 4.242263793945312 37.49886322021484 3 43.65372467041016 3 50 C 3 56.34627532958984 4.242263793945312 62.50113677978516 6.6922607421875 68.29360198974609 C 9.059326171875 73.88996887207031 12.44861602783203 78.91666412353516 16.76598358154297 83.23401641845703 C 21.08335113525391 87.55138397216797 26.11003112792969 90.940673828125 31.70639801025391 93.3077392578125 C 37.49886322021484 95.75773620605469 43.65372467041016 97 50 97 C 56.34627532958984 97 62.50113677978516 95.75773620605469 68.29360198974609 93.3077392578125 C 73.88996887207031 90.940673828125 78.91666412353516 87.55138397216797 83.23401641845703 83.23401641845703 C 87.55138397216797 78.91666412353516 90.940673828125 73.88996887207031 93.3077392578125 68.29360198974609 C 95.75773620605469 62.50113677978516 97 56.34627532958984 97 50 C 97 43.65372467041016 95.75773620605469 37.49886322021484 93.3077392578125 31.70639801025391 C 90.940673828125 26.11003112792969 87.55138397216797 21.08335113525391 83.23401641845703 16.76598358154297 C 78.91666412353516 12.44861602783203 73.88996887207031 9.059326171875 68.29360198974609 6.6922607421875 C 62.50113677978516 4.242263793945312 56.34627532958984 3 50 3 M 50 0 C 77.61424255371094 0 100 22.38577270507812 100 50 C 100 77.61424255371094 77.61424255371094 100 50 100 C 22.38577270507812 100 0 77.61424255371094 0 50 C 0 22.38577270507812 22.38577270507812 0 50 0 Z" stroke="none" fill="#6f6e88"/>
                    </g>
                  </g>
                </g>
              </g>
            </g>
          </g>
        </g>
      </g>
      <g id="parental_5443218" transform="translate(1084.586 3996.348)">
        <g id="Group_1203005" data-name="Group 1203005" transform="translate(1.14 1.14)">
          <g id="Group_1202992" data-name="Group 1202992" transform="translate(6.837 56.978)">
            <path id="Path_1043269" data-name="Path 1043269" d="M7,51H29.791V62.4H7V51Z" transform="translate(-7 -51)" fill="#d3a06c"/>
          </g>
          <g id="Group_1202993" data-name="Group 1202993" transform="translate(0 29.628)">
            <path id="Path_1043270" data-name="Path 1043270" d="M30.594,37.256a3.222,3.222,0,0,1,.034.467V54.349H7.837V52.07H1v-14.5a10.26,10.26,0,0,1,9.4-10.222L14.675,27l4.558,4.558L23.791,27a49.334,49.334,0,0,1,15.543,2.518l1.618.547a4.742,4.742,0,0,0,.684,1.721,7.167,7.167,0,0,0-3.806,2.5,7.082,7.082,0,0,0-1.493,3.931l-5.709-.957Z" transform="translate(-1 -27)" fill="#b4dd7f"/>
          </g>
          <g id="Group_1202994" data-name="Group 1202994" transform="translate(2.279)">
            <path id="Path_1043271" data-name="Path 1043271" d="M28.07,12.4l-.957-.194a15.793,15.793,0,0,1-5.652-2.325,5.507,5.507,0,0,1-7.532-.228L12.116,7.837,10.51,9.444a2.286,2.286,0,0,0-.672,1.618v3.612H8.7a3.414,3.414,0,0,0-3.419,3.419l-.672-.672a5.5,5.5,0,0,1,0-7.772l.672-.672V7.837A4.552,4.552,0,0,1,9.837,3.279l.228-.228a7.01,7.01,0,0,1,8.091-1.31l.8.4.8-.4a7.01,7.01,0,0,1,8.091,1.31l.228.228a4.557,4.557,0,0,1,4.558,4.558v1.14l.672.672a5.5,5.5,0,0,1,0,7.772l-.672.672a3.414,3.414,0,0,0-3.419-3.419H28.07Z" transform="translate(-3 -1)" fill="#656d78"/>
          </g>
          <g id="Group_1202995" data-name="Group 1202995" transform="translate(35.326 34.414)">
            <path id="Path_1043272" data-name="Path 1043272" d="M49.093,41.228a20.217,20.217,0,0,1-5.493-.752A20.681,20.681,0,0,1,38.507,38.3l-.809-.49-1.276,1.276a3.435,3.435,0,0,0-1,2.416v.866H33.14a2.22,2.22,0,0,0-.285.023l-.638-2.6A6.72,6.72,0,0,1,32,38.071c0-.148,0-.3.011-.444A7.082,7.082,0,0,1,33.5,33.7a7.167,7.167,0,0,1,3.806-2.5,4.538,4.538,0,0,0,3.806,2.051H43.4a4.587,4.587,0,0,0,3.225-1.333A4.448,4.448,0,0,0,47.2,31.2a7.105,7.105,0,0,1,5.31,6.871,6.72,6.72,0,0,1-.217,1.721l-.638,2.575v.023a2.221,2.221,0,0,0-.285-.023H49.093Z" transform="translate(-32 -31.2)" fill="#b27946"/>
          </g>
          <g id="Group_1202996" data-name="Group 1202996" transform="translate(34.187 59.257)">
            <path id="Path_1043273" data-name="Path 1043273" d="M48.093,62.116H31V59.837A6.843,6.843,0,0,1,37.837,53h1.14l.125.239a3.678,3.678,0,0,0,6.587,0L45.814,53h1.14a6.843,6.843,0,0,1,6.837,6.837v2.279Z" transform="translate(-31 -53)" fill="#75b1f2"/>
          </g>
          <g id="Group_1202997" data-name="Group 1202997" transform="translate(52.419 45.582)">
            <path id="Path_1043274" data-name="Path 1043274" d="M49.564,41.023a2.277,2.277,0,0,1,1.994,2.256,2.3,2.3,0,0,1-2.279,2.279H47V41h2.279A2.219,2.219,0,0,1,49.564,41.023Z" transform="translate(-47 -41)" fill="#f0d0b4"/>
          </g>
          <g id="Group_1202998" data-name="Group 1202998" transform="translate(38.745 41.024)">
            <path id="Path_1043275" data-name="Path 1043275" d="M48.675,41.558v5a7.712,7.712,0,0,1-3.419,6.393v2.279l-.125.239a3.678,3.678,0,0,1-6.587,0l-.125-.239V52.954l-.034-.023A7.593,7.593,0,0,1,35,46.606V40.692a3.435,3.435,0,0,1,1-2.416L37.279,37l.809.49a20.681,20.681,0,0,0,5.094,2.177,20.218,20.218,0,0,0,5.493.752Z" transform="translate(-35 -37)" fill="#f0d0b4"/>
          </g>
          <g id="Group_1202999" data-name="Group 1202999" transform="translate(34.187 45.582)">
            <path id="Path_1043276" data-name="Path 1043276" d="M35.558,41v4.558H33.279A2.3,2.3,0,0,1,31,43.279a2.277,2.277,0,0,1,1.994-2.256A2.22,2.22,0,0,1,33.279,41Z" transform="translate(-31 -41)" fill="#f0d0b4"/>
          </g>
          <g id="Group_1203000" data-name="Group 1203000" transform="translate(0 54.698)">
            <path id="Path_1043277" data-name="Path 1043277" d="M7.837,51.279v4.558A6.843,6.843,0,0,1,1,49H7.837Z" transform="translate(-1 -49)" fill="#f0d0b4"/>
          </g>
          <g id="Group_1203001" data-name="Group 1203001" transform="translate(39.884 29.628)">
            <path id="Path_1043278" data-name="Path 1043278" d="M45.116,27A2.286,2.286,0,0,1,47.4,29.279a4.51,4.51,0,0,1-.752,2.507,4.448,4.448,0,0,1-.581.718,4.587,4.587,0,0,1-3.225,1.333H40.558a4.538,4.538,0,0,1-3.806-2.051,4.742,4.742,0,0,1-.684-1.721A4.39,4.39,0,0,1,36,29.279,2.3,2.3,0,0,1,38.279,27Z" transform="translate(-36 -27)" fill="#f0d0b4"/>
          </g>
          <g id="Group_1203002" data-name="Group 1203002" transform="translate(27.326 13.675)">
            <path id="Path_1043279" data-name="Path 1043279" d="M24.991,19.837H24.98c.011-.182.023-.353.023-.536V13h1.14a3.419,3.419,0,0,1,0,6.837Z" transform="translate(-24.98 -13)" fill="#f0d0b4"/>
          </g>
          <g id="Group_1203003" data-name="Group 1203003" transform="translate(9.116 6.837)">
            <path id="Path_1043280" data-name="Path 1043280" d="M27.233,13.837v6.3c0,.182-.011.353-.023.536a8.239,8.239,0,0,1-4.535,6.837v2.279l-4.558,4.558-4.558-4.558V27.512a8.239,8.239,0,0,1-4.535-6.837C9.011,20.492,9,20.321,9,20.139V10.225a2.286,2.286,0,0,1,.672-1.618L11.279,7l1.812,1.812a5.507,5.507,0,0,0,7.532.228,15.793,15.793,0,0,0,5.652,2.325l.957.194Z" transform="translate(-9 -7)" fill="#f0d0b4"/>
          </g>
          <g id="Group_1203004" data-name="Group 1203004" transform="translate(4.558 13.675)">
            <path id="Path_1043281" data-name="Path 1043281" d="M9.558,19.3c0,.182.011.353.023.536H8.419a3.419,3.419,0,1,1,0-6.837h1.14Z" transform="translate(-5 -13)" fill="#f0d0b4"/>
          </g>
        </g>
        <g id="Group_1203006" data-name="Group 1203006" transform="translate(0 0)">
          <circle id="Ellipse_12594" data-name="Ellipse 12594" cx="0.967" cy="0.967" r="0.967" transform="translate(23.202 13.614)"/>
          <circle id="Ellipse_12598" data-name="Ellipse 12598" cx="0.967" cy="0.967" r="0.967" transform="translate(47.873 47.614)"/>
          <circle id="Ellipse_12599" data-name="Ellipse 12599" cx="0.967" cy="0.967" r="0.967" transform="translate(43.637 47.614)"/>
          <circle id="Ellipse_12597" data-name="Ellipse 12597" cx="0.967" cy="0.967" r="0.967" transform="translate(14.202 13.614)"/>
          <path id="Path_1043282" data-name="Path 1043282" d="M15.264,18.794l-.12-.24-2.039,1.02.12.24a4.828,4.828,0,0,0,8.636,0l.12-.24-2.039-1.02-.12.242a2.548,2.548,0,0,1-4.558,0Z" transform="translate(1.829 2.589)"/>
          <path id="Path_1043283" data-name="Path 1043283" d="M18.959,16.582l-1.395-.7.827-2.482-2.163-.72-1.452,4.355,3.163,1.583Z" transform="translate(2.062 1.77)"/>
          <path id="Path_1043284" data-name="Path 1043284" d="M38.627,48.238a3.89,3.89,0,0,0,5.5,0l.334-.334-1.611-1.611-.334.334a1.669,1.669,0,0,1-2.279,0l-.334-.334L38.293,47.9Z" transform="translate(5.344 6.46)"/>
          <path id="Path_1043285" data-name="Path 1043285" d="M51.28,59.257V58.7a8.787,8.787,0,0,0,3.379-6.281h1.179a3.407,3.407,0,0,0,1.635-6.4l.4-1.59a8.242,8.242,0,0,0-4.647-9.53,5.636,5.636,0,0,0,.335-1.851,3.423,3.423,0,0,0-3.419-3.419H43.3a3.419,3.419,0,0,0-3.318,2.631l-.15-.05a50.192,50.192,0,0,0-14.765-2.567v-.477a9.3,9.3,0,0,0,4.392-6.372h.168a4.548,4.548,0,0,0,4.5-4.033l.387-.387a6.643,6.643,0,0,0,0-9.393l-.334-.334V7.977A5.7,5.7,0,0,0,28.981,2.3,8.094,8.094,0,0,0,23.306,0a8.184,8.184,0,0,0-3.644.86l-.289.145L19.083.86A8.184,8.184,0,0,0,15.439,0,8.094,8.094,0,0,0,9.764,2.3,5.7,5.7,0,0,0,4.558,7.977v.668l-.334.334a6.641,6.641,0,0,0,0,9.392l.387.387a4.548,4.548,0,0,0,4.5,4.033h.166a9.305,9.305,0,0,0,4.392,6.372v.556l-3.226.269A11.463,11.463,0,0,0,0,41.344V55.838a7.982,7.982,0,0,0,6.837,7.886v6.928h25.07V42.368l3.451.575a8.347,8.347,0,0,0,.214,1.484l.4,1.59a3.407,3.407,0,0,0,1.635,6.4h1.177A8.721,8.721,0,0,0,42.163,58.7v.555a7.986,7.986,0,0,0-7.977,7.977v3.419h25.07V67.233A7.986,7.986,0,0,0,51.28,59.257Zm4.558-9.116H54.7V47.861h1.14a1.14,1.14,0,1,1,0,2.279ZM43.3,31.907H50.14a1.141,1.141,0,0,1,1.14,1.14,3.423,3.423,0,0,1-3.419,3.419H45.582a3.423,3.423,0,0,1-3.419-3.419A1.141,1.141,0,0,1,43.3,31.907Zm-13.675-11.4V15.954a2.279,2.279,0,0,1,0,4.558ZM5.836,10.59l1-1V7.977a3.423,3.423,0,0,1,3.419-3.419h.472l.56-.56a5.833,5.833,0,0,1,4.151-1.72,5.9,5.9,0,0,1,2.626.62l1.308.654L20.681,2.9a5.9,5.9,0,0,1,2.626-.62A5.835,5.835,0,0,1,27.457,4l.56.56h.472a3.423,3.423,0,0,1,3.419,3.419V9.588l1,1a4.33,4.33,0,0,1,.632,5.344,4.541,4.541,0,0,0-3.913-2.26v-2.01a5.233,5.233,0,0,0-2.909-4.706L25.7,9a2.96,2.96,0,0,1,1.6,2.132,14.774,14.774,0,0,1-7.123-3.958L18.566,8.783c.4.4.832.777,1.271,1.137a4.476,4.476,0,0,1-4.689-.941L12.535,6.366,10.118,8.783a3.394,3.394,0,0,0-1,2.418v2.474A4.541,4.541,0,0,0,5.2,15.934a4.33,4.33,0,0,1,.632-5.344Zm1,7.643a2.281,2.281,0,0,1,2.279-2.279v4.558a2.281,2.281,0,0,1-2.279-2.279ZM11.4,21.114V11.2a1.134,1.134,0,0,1,.334-.807l.806-.806,1,1a6.588,6.588,0,0,0,8.393.8,17.057,17.057,0,0,0,5.379,2.075l.041.009v7.644a7.069,7.069,0,0,1-3.928,6.356l-.63.315V30.3l-3.419,3.419L15.954,30.3V27.785l-.63-.315A7.07,7.07,0,0,1,11.4,21.114ZM10.638,32.26l3.743-.312,4.991,4.99,5.021-5.021a47.912,47.912,0,0,1,14.721,2.455l1.051.35c.018.059.035.119.055.177a8.227,8.227,0,0,0-4.679,5.766l-3.877-.646a4.985,4.985,0,0,0-1.228-2.079L28.824,39.55a2.776,2.776,0,0,1,.8,1.945V56.978H9.116V41.5a2.772,2.772,0,0,1,.806-1.945L8.311,37.939A4.994,4.994,0,0,0,6.837,41.5V54.7H2.279V41.344a9.17,9.17,0,0,1,8.359-9.084ZM2.394,56.978H6.837v4.443a5.715,5.715,0,0,1-4.443-4.443Zm18.118,11.4V63.38l1.649-.825-1.02-2.039-1.769.885-1.77-.884-1.02,2.039,1.65.824v4.994H9.116V59.257H29.628v9.116ZM36.466,49a1.141,1.141,0,0,1,1.14-1.14h1.14V50.14h-1.14A1.141,1.141,0,0,1,36.466,49Zm2.306-3.419H38.21l-.427-1.708A5.943,5.943,0,0,1,41.4,36.89a5.667,5.667,0,0,0,4.18,1.855h2.279a5.667,5.667,0,0,0,4.18-1.855,5.951,5.951,0,0,1,3.8,5.539,6.01,6.01,0,0,1-.178,1.446l-.427,1.707H54.7v-.871a5.233,5.233,0,0,0-2.909-4.706l-1.02,2.039A2.963,2.963,0,0,1,52.4,44.408a19.446,19.446,0,0,1-8.843-2.734l-1.575-.946-1.906,1.906A4.509,4.509,0,0,0,38.772,45.582Zm2.252,6.19V45.859a2.266,2.266,0,0,1,.668-1.612l.648-.648.049.03a21.717,21.717,0,0,0,10.03,3.063v5.038a6.523,6.523,0,0,1-2.912,5.439l-.507.34v2.62a2.548,2.548,0,0,1-4.558,0v-2.01l-.035-.634-.507-.338a6.442,6.442,0,0,1-2.876-5.373Zm15.954,16.6H53.559v-.668a2.772,2.772,0,0,1,.806-1.945l-1.611-1.611a4.994,4.994,0,0,0-1.473,3.557v.668H42.163v-.668a4.994,4.994,0,0,0-1.473-3.557L39.079,65.76a2.772,2.772,0,0,1,.806,1.945v.668H36.466v-1.14a5.7,5.7,0,0,1,5.7-5.7h.469a4.807,4.807,0,0,0,8.177,0h.469a5.7,5.7,0,0,1,5.7,5.7Z" transform="translate(0 0)"/>
        </g>
      </g>
    </g>
  </g>
</svg>
