<svg xmlns="http://www.w3.org/2000/svg" xmlns:xlink="http://www.w3.org/1999/xlink" width="118" height="118" viewBox="0 0 118 118">
  <defs>
    <filter id="Path_982547" x="0" y="0" width="118" height="118" filterUnits="userSpaceOnUse">
      <feOffset dy="3" input="SourceAlpha"/>
      <feGaussianBlur stdDeviation="3" result="blur"/>
      <feFlood flood-opacity="0.161"/>
      <feComposite operator="in" in2="blur"/>
      <feComposite in="SourceGraphic"/>
    </filter>
  </defs>
  <g id="Group_1203507" data-name="Group 1203507" transform="translate(-204.5 -2872.395)">
    <g id="Group_1202902" data-name="Group 1202902">
      <g id="Group_1178321" data-name="Group 1178321" transform="translate(0 -2039.15)">
        <g id="Group_1173988" data-name="Group 1173988" transform="translate(213.5 4917.545)">
          <g id="Group_1172010" data-name="Group 1172010">
            <g id="Group_1171046" data-name="Group 1171046">
              <g id="Group_1148525" data-name="Group 1148525">
                <g transform="matrix(1, 0, 0, 1, -9, -6)" filter="url(#Path_982547)">
                  <g id="Path_982547-2" data-name="Path 982547" transform="translate(9 6)" fill="#e8f5f7">
                    <path d="M 50 98.5 C 43.45188522338867 98.5 37.10042953491211 97.21787261962891 31.12207221984863 94.68923950195312 C 25.34691429138184 92.24655914306641 20.15997123718262 88.74931335449219 15.70532894134521 84.29468536376953 C 11.2506856918335 79.84004211425781 7.753442764282227 74.65309906005859 5.310757160186768 68.8779296875 C 2.782128572463989 62.89957046508789 1.5 56.54811477661133 1.5 50 C 1.5 43.45188522338867 2.782128572463989 37.10042953491211 5.310757160186768 31.12207221984863 C 7.753442764282227 25.34691429138184 11.2506856918335 20.15997123718262 15.70532894134521 15.70532894134521 C 20.15997123718262 11.2506856918335 25.34691429138184 7.753442764282227 31.12207221984863 5.310757160186768 C 37.10042953491211 2.782128572463989 43.45188522338867 1.5 50 1.5 C 56.54811477661133 1.5 62.89957046508789 2.782128572463989 68.8779296875 5.310757160186768 C 74.65309906005859 7.753442764282227 79.84004211425781 11.2506856918335 84.29468536376953 15.70532894134521 C 88.74931335449219 20.15997123718262 92.24655914306641 25.34691429138184 94.68923950195312 31.12207221984863 C 97.21787261962891 37.10042953491211 98.5 43.45188522338867 98.5 50 C 98.5 56.54811477661133 97.21787261962891 62.89957046508789 94.68923950195312 68.8779296875 C 92.24655914306641 74.65309906005859 88.74931335449219 79.84004211425781 84.29468536376953 84.29468536376953 C 79.84004211425781 88.74931335449219 74.65309906005859 92.24655914306641 68.8779296875 94.68923950195312 C 62.89957046508789 97.21787261962891 56.54811477661133 98.5 50 98.5 Z" stroke="none"/>
                    <path d="M 50 3 C 43.65372467041016 3 37.49886322021484 4.242263793945312 31.70639801025391 6.6922607421875 C 26.11003112792969 9.059326171875 21.08335113525391 12.44861602783203 16.76598358154297 16.76598358154297 C 12.44861602783203 21.08335113525391 9.059326171875 26.11003112792969 6.6922607421875 31.70639801025391 C 4.242263793945312 37.49886322021484 3 43.65372467041016 3 50 C 3 56.34627532958984 4.242263793945312 62.50113677978516 6.6922607421875 68.29360198974609 C 9.059326171875 73.88996887207031 12.44861602783203 78.91666412353516 16.76598358154297 83.23401641845703 C 21.08335113525391 87.55138397216797 26.11003112792969 90.940673828125 31.70639801025391 93.3077392578125 C 37.49886322021484 95.75773620605469 43.65372467041016 97 50 97 C 56.34627532958984 97 62.50113677978516 95.75773620605469 68.29360198974609 93.3077392578125 C 73.88996887207031 90.940673828125 78.91666412353516 87.55138397216797 83.23401641845703 83.23401641845703 C 87.55138397216797 78.91666412353516 90.940673828125 73.88996887207031 93.3077392578125 68.29360198974609 C 95.75773620605469 62.50113677978516 97 56.34627532958984 97 50 C 97 43.65372467041016 95.75773620605469 37.49886322021484 93.3077392578125 31.70639801025391 C 90.940673828125 26.11003112792969 87.55138397216797 21.08335113525391 83.23401641845703 16.76598358154297 C 78.91666412353516 12.44861602783203 73.88996887207031 9.059326171875 68.29360198974609 6.6922607421875 C 62.50113677978516 4.242263793945312 56.34627532958984 3 50 3 M 50 0 C 77.61424255371094 0 100 22.38577270507812 100 50 C 100 77.61424255371094 77.61424255371094 100 50 100 C 22.38577270507812 100 0 77.61424255371094 0 50 C 0 22.38577270507812 22.38577270507812 0 50 0 Z" stroke="none" fill="#62797e"/>
                  </g>
                </g>
              </g>
            </g>
          </g>
        </g>
      </g>
      <g id="talent_14596494" transform="translate(213.912 2892.997)">
        <g id="Group_1202901" data-name="Group 1202901" transform="translate(17.9 1.463)">
          <g id="Group_1202886" data-name="Group 1202886" transform="translate(18.998 11.748)">
            <path id="Path_1042572" data-name="Path 1042572" d="M188.363,109.842H163.091v-4.284c0-12.883,21.1-14.61,21.1-8.866V98.1H185.3a3.069,3.069,0,0,1,3.06,3.06Z" transform="translate(-163.091 -93.564)" fill="#4a4d71" fill-rule="evenodd"/>
          </g>
          <g id="Group_1202887" data-name="Group 1202887" transform="translate(27.122 11.747)">
            <path id="Path_1042573" data-name="Path 1042573" d="M239.717,109.833h-1.568v-8.14a3.067,3.067,0,0,0-3.06-3.06h-1.1V97.227c0-3.029-5.868-3.979-11.415-2.314,5.949-2.376,12.98-1.549,12.98,1.769v1.406h1.109a3.069,3.069,0,0,1,3.06,3.06v8.684Z" transform="translate(-222.569 -93.553)" fill="#434675" fill-rule="evenodd"/>
          </g>
          <g id="Group_1202888" data-name="Group 1202888" transform="translate(0 25.219)">
            <path id="Path_1042574" data-name="Path 1042574" d="M25.07,198.244l15.275,14.8,4.914-5.072-15.279-14.8a3.53,3.53,0,0,0-4.91,5.072Z" transform="translate(-24 -192.183)" fill="#ffbfa8" fill-rule="evenodd"/>
          </g>
          <g id="Group_1202889" data-name="Group 1202889" transform="translate(42.119 25.219)">
            <path id="Path_1042575" data-name="Path 1042575" d="M352.552,198.244l-15.275,14.8-4.914-5.072,15.278-14.8a3.53,3.53,0,0,1,4.91,5.072Z" transform="translate(-332.364 -192.183)" fill="#ffbfa8" fill-rule="evenodd"/>
          </g>
          <g id="Group_1202890" data-name="Group 1202890" transform="translate(11.712 36.483)">
            <path id="Path_1042576" data-name="Path 1042576" d="M109.75,281.061l7.614,7.379v17.6h24.724v-17.6l7.614-7.379-6.212-6.409-6.517,6.312H122.479l-6.517-6.312Z" transform="translate(-109.75 -274.652)" fill="#df646e" fill-rule="evenodd"/>
          </g>
          <g id="Group_1202891" data-name="Group 1202891" transform="translate(26.794 35.154)">
            <path id="Path_1042577" data-name="Path 1042577" d="M229.954,264.923h-9.789v7.943a4.894,4.894,0,1,0,9.789,0v-7.943Z" transform="translate(-220.165 -264.923)" fill="#ffbfa8" fill-rule="evenodd"/>
          </g>
          <g id="Group_1202892" data-name="Group 1202892" transform="translate(26.794 35.154)">
            <path id="Path_1042578" data-name="Path 1042578" d="M229.954,264.923h-9.789V272.6a12.516,12.516,0,0,0,9.789,0v-7.676Z" transform="translate(-220.165 -264.923)" fill="#fcac8f" fill-rule="evenodd"/>
          </g>
          <g id="Group_1202893" data-name="Group 1202893" transform="translate(18.013 20.031)">
            <path id="Path_1042579" data-name="Path 1042579" d="M158.236,165.778c.931,5.9,5.644,10.4,11.319,10.4s10.384-4.493,11.319-10.4a2.836,2.836,0,0,0,2.357-2.874,2.805,2.805,0,0,0-2.7-2.9,2.567,2.567,0,0,0-1.568.537l-1.028-4.164a2.858,2.858,0,0,0-3.195-2.148l-5.621.827-5.072.147a4.01,4.01,0,0,0-3.894,4.006v1.333a2.547,2.547,0,0,0-1.565-.537,2.805,2.805,0,0,0-2.7,2.9A2.836,2.836,0,0,0,158.236,165.778Z" transform="translate(-155.88 -154.201)" fill="#ffbfa8" fill-rule="evenodd"/>
          </g>
          <g id="Group_1202894" data-name="Group 1202894" transform="translate(2.928 4.968)">
            <path id="Path_1042580" data-name="Path 1042580" d="M53.462,43.922l1.889,5.845,6.142-.012-4.976,3.6L58.427,59.2l-4.964-3.62L48.5,59.2l1.908-5.841-4.976-3.6,6.142.012Z" transform="translate(-45.435 -43.922)" fill="#ffd54f" fill-rule="evenodd"/>
          </g>
          <g id="Group_1202895" data-name="Group 1202895" transform="translate(44.39 4.968)">
            <path id="Path_1042581" data-name="Path 1042581" d="M357.025,43.922l1.885,5.845,6.142-.012-4.976,3.6,1.908,5.841-4.96-3.62-4.964,3.62,1.908-5.841-4.976-3.6,6.142.012Z" transform="translate(-348.994 -43.922)" fill="#ffd54f" fill-rule="evenodd"/>
          </g>
          <g id="Group_1202896" data-name="Group 1202896" transform="translate(10.955 4.968)">
            <path id="Path_1042582" data-name="Path 1042582" d="M104.206,43.922l1.889,5.845,6.142-.012-4.976,3.6L109.17,59.2l-4.964-3.62Z" transform="translate(-104.206 -43.922)" fill="#ffc328" fill-rule="evenodd"/>
          </g>
          <g id="Group_1202897" data-name="Group 1202897" transform="translate(52.422 4.968)">
            <path id="Path_1042583" data-name="Path 1042583" d="M407.794,43.922l1.885,5.845,6.142-.012-4.976,3.6,1.908,5.841-4.96-3.62Z" transform="translate(-407.794 -43.922)" fill="#ffc328" fill-rule="evenodd"/>
          </g>
          <g id="Group_1202898" data-name="Group 1202898" transform="translate(23.472)">
            <path id="Path_1042584" data-name="Path 1042584" d="M204.059,7.55l1.931,5.98,6.285-.012L207.184,17.2l1.951,5.972-5.076-3.7-5.076,3.7,1.951-5.972-5.092-3.685,6.285.012Z" transform="translate(-195.842 -7.55)" fill="#ffd54f" fill-rule="evenodd"/>
          </g>
          <g id="Group_1202899" data-name="Group 1202899" transform="translate(31.688)">
            <path id="Path_1042585" data-name="Path 1042585" d="M256,7.55l1.931,5.98,6.285-.012L259.125,17.2l1.951,5.972L256,19.475Z" transform="translate(-256 -7.55)" fill="#ffc328" fill-rule="evenodd"/>
          </g>
          <g id="Group_1202900" data-name="Group 1202900" transform="translate(42.354 41.347)">
            <path id="Path_1042586" data-name="Path 1042586" d="M334.089,336.785h1.7v-17.6l7.614-7.378-1.5-1.545-7.811,7.564Z" transform="translate(-334.089 -310.261)" fill="#d82f3c" fill-rule="evenodd"/>
          </g>
        </g>
        <path id="Path_1042587" data-name="Path 1042587" d="M82.241,30.279a4.485,4.485,0,0,0-7.6-3.294L64.027,37.269a.954.954,0,0,0-1.333-.006l-6.241,6.045H55.441v-.463a13.349,13.349,0,0,0,6.3-9,3.853,3.853,0,0,0,2.485-3.65,3.942,3.942,0,0,0-1.1-2.747V20.8a4.019,4.019,0,0,0-4.015-4.015h-.151v-.452a3.284,3.284,0,0,0-1.505-2.725.955.955,0,1,0-1.108,1.555,1.365,1.365,0,0,1,.7,1.17v1.407a.954.954,0,0,0,.954.954h1.105A2.108,2.108,0,0,1,61.218,20.8v5.608a3.49,3.49,0,0,0-1.576.06l-.748-3.03a3.8,3.8,0,0,0-4.26-2.86l-5.571.815-5.014.145a4.938,4.938,0,0,0-4.821,4.86,3.527,3.527,0,0,0-.612-.053,3.477,3.477,0,0,0-.765.085V25.2a9.734,9.734,0,0,1,4.589-8.21.955.955,0,0,0-1.071-1.58,11.5,11.5,0,0,0-5.427,9.79v2.367a3.949,3.949,0,0,0-.985,2.626,3.854,3.854,0,0,0,2.482,3.649,13.346,13.346,0,0,0,6.3,9v.461H42.724l-6.237-6.045a.954.954,0,0,0-1.333.006L24.538,26.984a4.482,4.482,0,0,0-7.6,3.294,4.445,4.445,0,0,0,1.359,3.146L28.91,43.71a.953.953,0,0,0,.034,1.335l7.326,7.1v17.2a.954.954,0,0,0,.954.954H61.956a.954.954,0,0,0,.954-.954v-17.2l7.326-7.1a.953.953,0,0,0,.034-1.335L80.882,33.426a4.449,4.449,0,0,0,1.36-3.147ZM45.648,43.732a11.6,11.6,0,0,0,7.883,0v.833a3.942,3.942,0,1,1-7.883,0ZM39.21,32.923a.955.955,0,0,0-.814-.8A1.885,1.885,0,0,1,36.865,30.2a1.857,1.857,0,0,1,1.751-1.944,1.614,1.614,0,0,1,.986.338.954.954,0,0,0,1.534-.759V26.5A3.04,3.04,0,0,1,44.1,23.446l5.07-.147a.967.967,0,0,0,.111-.01l5.628-.823a1.9,1.9,0,0,1,2.13,1.429l1.028,4.166a.954.954,0,0,0,1.5.532,1.637,1.637,0,0,1,.993-.34A1.857,1.857,0,0,1,62.315,30.2a1.886,1.886,0,0,1-1.536,1.929.954.954,0,0,0-.814.8A11.457,11.457,0,0,1,54.114,41.4a.92.92,0,0,0-.1.049,9.725,9.725,0,0,1-8.845,0,.968.968,0,0,0-.111-.056,11.458,11.458,0,0,1-5.85-8.472ZM18.843,30.248a2.573,2.573,0,0,1,4.366-1.893L33.823,38.639l-3.586,3.7L19.621,32.053A2.549,2.549,0,0,1,18.843,30.248ZM61.291,51.055a.954.954,0,0,0-.29.686V68.387H38.179V51.74a.955.955,0,0,0-.29-.686l-6.931-6.716,4.885-5.04,5.83,5.65a.954.954,0,0,0,.664.269h1.44a5.85,5.85,0,0,0,11.626,0h1.436a.955.955,0,0,0,.664-.269l5.834-5.65,4.885,5.04Zm18.262-19L68.943,42.339l-3.586-3.7L75.967,28.355a2.576,2.576,0,0,1,3.587,3.7ZM47.648,36.236a2.262,2.262,0,0,0,3.88,0A.954.954,0,0,1,53,37.451a4.418,4.418,0,0,1-3.41,1.792,4.48,4.48,0,0,1-3.414-1.792.955.955,0,1,1,1.472-1.215Zm-3.039-5.71a.789.789,0,0,0-.788.788.954.954,0,1,1-1.909,0,2.7,2.7,0,0,1,5.4,0,.954.954,0,1,1-1.909,0,.791.791,0,0,0-.792-.788Zm7.261.788a2.7,2.7,0,0,1,5.395,0,.954.954,0,1,1-1.909,0,.788.788,0,0,0-1.576,0,.955.955,0,0,1-1.909,0ZM20.261,13.032l4.413,3.193L22.981,21.4a.954.954,0,0,0,1.47,1.068l4.4-3.21,4.4,3.211A.954.954,0,0,0,34.723,21.4l-1.7-5.177,4.416-3.193a.954.954,0,0,0-.559-1.728h0l-5.448.01L29.759,6.13a.954.954,0,0,0-.908-.661h0a.954.954,0,0,0-.908.661L26.27,11.315l-5.448-.01h0a.954.954,0,0,0-.56,1.728Zm6.7.193h0a.954.954,0,0,0,.908-.661l.978-3.033.98,3.034a.954.954,0,0,0,.908.661h0l3.186-.006-2.584,1.868A.954.954,0,0,0,31,16.158l.992,3.028-2.575-1.878a.954.954,0,0,0-1.125,0l-2.573,1.878.99-3.028a.954.954,0,0,0-.348-1.07l-2.582-1.868Zm34.773-.193,4.413,3.193L64.457,21.4a.954.954,0,0,0,1.47,1.068l4.4-3.21,4.4,3.211A.954.954,0,0,0,76.2,21.4l-1.693-5.177,4.413-3.193a.954.954,0,0,0-.559-1.728h0l-5.448.01L71.234,6.13a.954.954,0,0,0-.908-.661h0a.954.954,0,0,0-.908.661l-1.672,5.184L62.3,11.3h0a.954.954,0,0,0-.559,1.728Zm6.7.193h0a.954.954,0,0,0,.908-.661l.978-3.033.98,3.034a.954.954,0,0,0,.908.661h0l3.187-.006-2.582,1.868a.955.955,0,0,0-.348,1.07l.991,3.03-2.578-1.879a.954.954,0,0,0-1.125,0L67.19,19.185l.99-3.028a.954.954,0,0,0-.348-1.07l-2.582-1.868ZM40.811,8.2l4.529,3.278L43.6,16.789a.954.954,0,0,0,1.47,1.068l4.519-3.3,4.515,3.3a.954.954,0,0,0,1.47-1.068l-1.739-5.312L58.365,8.2a.954.954,0,0,0-.56-1.728h0l-5.587.01L50.5,1.161a.955.955,0,0,0-1.817,0l-1.718,5.32-5.591-.01h0a.954.954,0,0,0-.56,1.728Zm6.845.193h0a.955.955,0,0,0,.908-.661L49.59,4.56l1.024,3.17a.955.955,0,0,0,.908.661h0l3.328-.006-2.7,1.953a.955.955,0,0,0-.347,1.07L52.84,14.57l-2.687-1.961a.955.955,0,0,0-1.125,0l-2.692,1.963,1.035-3.164a.955.955,0,0,0-.347-1.07l-2.7-1.953Z"/>
      </g>
    </g>
  </g>
</svg>
