<svg xmlns="http://www.w3.org/2000/svg" xmlns:xlink="http://www.w3.org/1999/xlink" width="113" height="113" viewBox="0 0 113 113">
  <defs>
    <filter id="Path_982547" x="0" y="0" width="113" height="113" filterUnits="userSpaceOnUse">
      <feOffset dy="3" input="SourceAlpha"/>
      <feGaussianBlur stdDeviation="3" result="blur"/>
      <feFlood flood-opacity="0.161"/>
      <feComposite operator="in" in2="blur"/>
      <feComposite in="SourceGraphic"/>
    </filter>
  </defs>
  <g id="Group_1203540" data-name="Group 1203540" transform="translate(-901.56 -2138.596)">
    <g id="Group_1203081" data-name="Group 1203081">
      <g id="Group_1202591" data-name="Group 1202591" transform="translate(910.561 2144.596)">
        <g id="Group_1172010" data-name="Group 1172010" transform="translate(0)">
          <g id="Group_1171046" data-name="Group 1171046">
            <g id="Group_1148525" data-name="Group 1148525">
              <g transform="matrix(1, 0, 0, 1, -9, -6)" filter="url(#Path_982547)">
                <g id="Path_982547-2" data-name="Path 982547" transform="translate(9 6)" fill="#f4f4fd">
                  <path d="M 47.5 93.5 C 41.28937149047852 93.5 35.26533508300781 92.28397369384766 29.59518623352051 89.88570404052734 C 24.11771965026855 87.56893157958984 19.19813346862793 84.25196075439453 14.97309303283691 80.02691650390625 C 10.74804019927979 75.80186462402344 7.431066513061523 70.88229370117188 5.114293098449707 65.40481567382812 C 2.716026782989502 59.73468017578125 1.5 53.71062850952148 1.5 47.5 C 1.5 41.28937149047852 2.716026782989502 35.26533508300781 5.114293098449707 29.59518623352051 C 7.431066513061523 24.11771965026855 10.74804019927979 19.19813346862793 14.97309303283691 14.97309303283691 C 19.19813346862793 10.74804019927979 24.11771965026855 7.431066513061523 29.59518623352051 5.114293098449707 C 35.26533508300781 2.716026782989502 41.28937149047852 1.5 47.5 1.5 C 53.71062850952148 1.5 59.73468017578125 2.716026782989502 65.40481567382812 5.114293098449707 C 70.88229370117188 7.431066513061523 75.80186462402344 10.74804019927979 80.02691650390625 14.97309303283691 C 84.25196075439453 19.19813346862793 87.56893157958984 24.11771965026855 89.88570404052734 29.59518623352051 C 92.28397369384766 35.26533508300781 93.5 41.28937149047852 93.5 47.5 C 93.5 53.71062850952148 92.28397369384766 59.73468017578125 89.88570404052734 65.40481567382812 C 87.56893157958984 70.88229370117188 84.25196075439453 75.80186462402344 80.02691650390625 80.02691650390625 C 75.80186462402344 84.25196075439453 70.88229370117188 87.56893157958984 65.40481567382812 89.88570404052734 C 59.73468017578125 92.28397369384766 53.71062850952148 93.5 47.5 93.5 Z" stroke="none"/>
                  <path d="M 47.5 3 C 41.49121475219727 3 35.66376876831055 4.176155090332031 30.17950439453125 6.495796203613281 C 24.88084411621094 8.736953735351562 20.12152099609375 11.94598388671875 16.03375244140625 16.03375244140625 C 11.94598388671875 20.12152099609375 8.736953735351562 24.88084411621094 6.495796203613281 30.17950439453125 C 4.176155090332031 35.66376876831055 3 41.49121475219727 3 47.5 C 3 53.50878524780273 4.176155090332031 59.33623123168945 6.495796203613281 64.82049560546875 C 8.736953735351562 70.11915588378906 11.94598388671875 74.87847900390625 16.03375244140625 78.96624755859375 C 20.12152099609375 83.05401611328125 24.88084411621094 86.26304626464844 30.17950439453125 88.50419616699219 C 35.66376876831055 90.82384490966797 41.49121475219727 92 47.5 92 C 53.50878524780273 92 59.33623123168945 90.82384490966797 64.82049560546875 88.50419616699219 C 70.11915588378906 86.26304626464844 74.87847900390625 83.05401611328125 78.96624755859375 78.96624755859375 C 83.05401611328125 74.87847900390625 86.26304626464844 70.11915588378906 88.50419616699219 64.82049560546875 C 90.82384490966797 59.33623123168945 92 53.50878524780273 92 47.5 C 92 41.49121475219727 90.82384490966797 35.66376876831055 88.50419616699219 30.17950439453125 C 86.26304626464844 24.88084411621094 83.05401611328125 20.12152099609375 78.96624755859375 16.03375244140625 C 74.87847900390625 11.94598388671875 70.11915588378906 8.736953735351562 64.82049560546875 6.495796203613281 C 59.33623123168945 4.176155090332031 53.50878524780273 3 47.5 3 M 47.5 0 C 73.7335205078125 0 95 21.2664794921875 95 47.5 C 95 73.7335205078125 73.7335205078125 95 47.5 95 C 21.2664794921875 95 0 73.7335205078125 0 47.5 C 0 21.2664794921875 21.2664794921875 0 47.5 0 Z" stroke="none" fill="#6f6e88"/>
                </g>
              </g>
            </g>
          </g>
        </g>
      </g>
      <g id="knowledge-transfer_8157712" transform="translate(924.973 2160.048)">
        <g id="Group_1203070" data-name="Group 1203070" transform="translate(0.4 13.841)">
          <g id="Group_1203048" data-name="Group 1203048" transform="translate(1.887 2.075)">
            <path id="Path_1043607" data-name="Path 1043607" d="M23.663,9a5.407,5.407,0,0,0-5.471,5.094,5.957,5.957,0,0,0-3.585-1.321,5.676,5.676,0,0,0-5.66,5.66V20.32A5.656,5.656,0,0,0,6.494,31.075,5.493,5.493,0,0,0,5.362,41.829c0,.377-.189.943-.189,1.321A9.663,9.663,0,0,0,14.8,52.772a10.282,10.282,0,0,0,4.151-.943,5.66,5.66,0,0,0,10.188-3.4V14.471A5.358,5.358,0,0,0,23.663,9Z" transform="translate(-1.4 -9)" fill="#f58570"/>
          </g>
          <g id="Group_1203049" data-name="Group 1203049" transform="translate(1.887 2.075)">
            <path id="Path_1043608" data-name="Path 1043608" d="M5.551,41.829c0,.377-.189.943-.189,1.321a9.538,9.538,0,0,0,7.924,9.434,9.305,9.305,0,0,1-3.962-7.736,3.211,3.211,0,0,1,.189-1.321,5.667,5.667,0,0,1-3.962-5.283,5.407,5.407,0,0,1,5.094-5.471A5.656,5.656,0,0,1,13.1,22.018V20.132a5.676,5.676,0,0,1,5.66-5.66,5.424,5.424,0,0,1,3.4,1.321A5.538,5.538,0,0,1,27.625,10.7,5.138,5.138,0,0,0,23.663,9a5.407,5.407,0,0,0-5.471,5.094,5.957,5.957,0,0,0-3.585-1.321,5.676,5.676,0,0,0-5.66,5.66V20.32A5.656,5.656,0,0,0,6.494,31.075,5.538,5.538,0,0,0,1.4,36.546a6.114,6.114,0,0,0,4.151,5.283Z" transform="translate(-1.4 -9)" fill="#f1594c"/>
          </g>
          <g id="Group_1203050" data-name="Group 1203050" transform="translate(9.056 32.64)">
            <path id="Path_1043609" data-name="Path 1043609" d="M5.389,25.577a1.134,1.134,0,0,0,.189.755c-.189-.377-.189-.755-.377-1.132A.584.584,0,0,1,5.389,25.577Z" transform="translate(-5.2 -25.2)" fill="#f1594c"/>
          </g>
          <g id="Group_1203051" data-name="Group 1203051" transform="translate(0 0.189)">
            <path id="Path_1043610" data-name="Path 1043610" d="M24.55,56.866a7.543,7.543,0,0,1-4.905-1.887,12.165,12.165,0,0,1-3.773.566A11.555,11.555,0,0,1,4.362,44.036v-.189A7.4,7.4,0,0,1,.4,37.244a7.289,7.289,0,0,1,3.4-6.226,7.559,7.559,0,0,1-1.509-4.339,7.474,7.474,0,0,1,5.66-7.17V19.32a7.569,7.569,0,0,1,7.547-7.547,9.47,9.47,0,0,1,2.264.377A7.436,7.436,0,0,1,24.55,8,7.569,7.569,0,0,1,32.1,15.547V49.319a7.569,7.569,0,0,1-7.547,7.547ZM20.022,50.64a1.716,1.716,0,0,1,1.509.755A3.939,3.939,0,0,0,24.55,52.9a3.785,3.785,0,0,0,3.773-3.773V15.358a3.785,3.785,0,0,0-3.773-3.773,3.547,3.547,0,0,0-3.585,3.4,1.643,1.643,0,0,1-1.132,1.509,2.233,2.233,0,0,1-1.887-.189,6.27,6.27,0,0,0-2.453-.755A3.785,3.785,0,0,0,11.72,19.32v1.887a1.783,1.783,0,0,1-1.887,1.887A3.785,3.785,0,0,0,6.06,26.867a3.89,3.89,0,0,0,2.075,3.4,2.167,2.167,0,0,1,1.132,2.075,1.814,1.814,0,0,1-1.7,1.509,3.679,3.679,0,0,0-3.4,3.585,3.857,3.857,0,0,0,2.641,3.585,1.738,1.738,0,0,1,1.321,2.075c0,.566-.189.755-.189,1.132a7.77,7.77,0,0,0,7.736,7.736,7.4,7.4,0,0,0,3.4-.755A1.724,1.724,0,0,1,20.022,50.64Z" transform="translate(-0.4 -8)" fill="#010101"/>
          </g>
          <g id="Group_1203052" data-name="Group 1203052" transform="translate(8.44 12.206)">
            <path id="Path_1043611" data-name="Path 1043611" d="M12.282,21.031a1.254,1.254,0,0,1-.943-.755,5.013,5.013,0,0,0-2.264-3.585,4.78,4.78,0,0,0-3.019-.377.895.895,0,0,1-.566-1.7,5.977,5.977,0,0,1,4.339.377A7.331,7.331,0,0,1,13.036,19.9c.189.566-.189.943-.755,1.132h0Z" transform="translate(-4.873 -14.369)" fill="#010101"/>
          </g>
          <g id="Group_1203053" data-name="Group 1203053" transform="translate(5.094 29.339)">
            <path id="Path_1043612" data-name="Path 1043612" d="M4.043,29.959H3.855A1.035,1.035,0,0,1,3.1,28.827a6.648,6.648,0,0,1,7.736-5.283.831.831,0,0,1,.755,1.132.831.831,0,0,1-1.132.755A4.956,4.956,0,0,0,4.8,29.393C4.987,29.77,4.609,29.959,4.043,29.959Z" transform="translate(-3.1 -23.45)" fill="#010101"/>
          </g>
          <g id="Group_1203054" data-name="Group 1203054" transform="translate(11.838 24.857)">
            <path id="Path_1043613" data-name="Path 1043613" d="M7.666,27.537c-.377,0-.943-.377-.943-.755a5.06,5.06,0,0,1,4.151-5.66,5.06,5.06,0,0,1,5.66,4.151.962.962,0,1,1-1.887.377,4.5,4.5,0,0,0-1.132-2.075,2.861,2.861,0,0,0-2.453-.566,3.113,3.113,0,0,0-2.641,3.4.831.831,0,0,1-.755,1.132Z" transform="translate(-6.675 -21.075)" fill="#010101"/>
          </g>
          <g id="Group_1203055" data-name="Group 1203055" transform="translate(14.976 34.306)">
            <path id="Path_1043614" data-name="Path 1043614" d="M9.587,33.473a1.038,1.038,0,0,1-.943-.566,5.106,5.106,0,0,1,2.83-6.415,4.854,4.854,0,0,1,6.415,2.641c.189.566,0,.943-.566,1.321-.566.189-.943,0-1.321-.566a3.145,3.145,0,0,0-3.962-1.7,3.7,3.7,0,0,0-1.7,1.7,2.406,2.406,0,0,0,0,2.264c.189.566,0,.943-.566,1.321H9.587Z" transform="translate(-8.338 -26.083)" fill="#010101"/>
          </g>
          <g id="Group_1203056" data-name="Group 1203056" transform="translate(22.216 31.295)">
            <path id="Path_1043615" data-name="Path 1043615" d="M13.543,31.87A1.038,1.038,0,0,1,12.6,31.3a4.4,4.4,0,0,1,0-3.773,5.152,5.152,0,0,1,2.641-2.641,5.078,5.078,0,0,1,4.905.566.943.943,0,1,1-1.132,1.509A3.469,3.469,0,0,0,16,26.587a3.7,3.7,0,0,0-1.7,1.7,2.406,2.406,0,0,0,0,2.264c.189.566,0,.943-.566,1.321h-.189Z" transform="translate(-12.175 -24.487)" fill="#010101"/>
          </g>
          <g id="Group_1203057" data-name="Group 1203057" transform="translate(23.702 22.755)">
            <path id="Path_1043616" data-name="Path 1043616" d="M13.977,24.374H13.6a.841.841,0,0,1-.566-1.132,4.59,4.59,0,0,1,2.453-2.83,5.175,5.175,0,0,1,3.773-.189.895.895,0,0,1-.566,1.7,3.155,3.155,0,0,0-2.264.189,2.678,2.678,0,0,0-1.509,1.7,1.038,1.038,0,0,1-.943.566Z" transform="translate(-12.962 -19.961)" fill="#010101"/>
          </g>
          <g id="Group_1203058" data-name="Group 1203058" transform="translate(17.916 9.992)">
            <path id="Path_1043617" data-name="Path 1043617" d="M14.432,22.449A2.393,2.393,0,0,1,13.3,22.26a6.168,6.168,0,0,1-2.83-2.075,4.7,4.7,0,0,1-.377-3.585,6.168,6.168,0,0,1,2.075-2.83,4.325,4.325,0,0,1,3.4-.377.791.791,0,0,1,.566,1.132A.791.791,0,0,1,15,15.09a2.6,2.6,0,0,0-2.075.189,3.011,3.011,0,0,0-1.321,1.7,2.6,2.6,0,0,0,.189,2.075,3.011,3.011,0,0,0,1.7,1.321,2.869,2.869,0,0,0,3.4-1.887c.943-2.83,4.339-3.4,4.528-3.4a.962.962,0,0,1,.377,1.887s-2.453.377-3.019,2.075A4.59,4.59,0,0,1,14.432,22.449Z" transform="translate(-9.896 -13.196)" fill="#010101"/>
          </g>
          <g id="Group_1203059" data-name="Group 1203059" transform="translate(55.092 32.64)">
            <path id="Path_1043618" data-name="Path 1043618" d="M29.789,25.577a1.134,1.134,0,0,1-.189.755c.189-.377.189-.755.377-1.132A.584.584,0,0,0,29.789,25.577Z" transform="translate(-29.6 -25.2)" fill="#f1594c"/>
          </g>
          <g id="Group_1203060" data-name="Group 1203060" transform="translate(34.895 2.075)">
            <path id="Path_1043619" data-name="Path 1043619" d="M24.376,9a5.407,5.407,0,0,1,5.471,5.094,5.538,5.538,0,0,1,3.585-1.321,5.676,5.676,0,0,1,5.66,5.66V20.32a5.656,5.656,0,0,1,2.453,10.754,5.493,5.493,0,0,1,1.132,10.754c0,.377.189.943.189,1.321a9.663,9.663,0,0,1-9.622,9.622,10.282,10.282,0,0,1-4.151-.943,5.66,5.66,0,0,1-10.188-3.4V14.471A5.358,5.358,0,0,1,24.376,9Z" transform="translate(-18.895 -9)" fill="#f58570"/>
          </g>
          <g id="Group_1203061" data-name="Group 1203061" transform="translate(36.414 2.075)">
            <path id="Path_1043620" data-name="Path 1043620" d="M41.775,41.829c0,.377.189.943.189,1.321a9.538,9.538,0,0,1-7.924,9.434A9.305,9.305,0,0,0,38,44.848a3.211,3.211,0,0,0-.189-1.321,5.667,5.667,0,0,0,3.962-5.283,5.407,5.407,0,0,0-5.094-5.471,5.656,5.656,0,0,0-2.453-10.754V20.132a5.676,5.676,0,0,0-5.66-5.66,5.424,5.424,0,0,0-3.4,1.321A5.538,5.538,0,0,0,19.7,10.7,5.138,5.138,0,0,1,23.662,9a5.407,5.407,0,0,1,5.471,5.094,5.957,5.957,0,0,1,3.585-1.321,5.676,5.676,0,0,1,5.66,5.66V20.32a5.656,5.656,0,0,1,2.453,10.754,5.538,5.538,0,0,1,5.094,5.471,6.114,6.114,0,0,1-4.151,5.283Z" transform="translate(-19.7 -9)" fill="#f1594c"/>
          </g>
          <g id="Group_1203062" data-name="Group 1203062" transform="translate(32.829)">
            <path id="Path_1043621" data-name="Path 1043621" d="M25.347,56.955A7.569,7.569,0,0,1,17.8,49.408V15.447A7.569,7.569,0,0,1,25.347,7.9a7.648,7.648,0,0,1,6.792,4.151,9.47,9.47,0,0,1,2.264-.377A7.569,7.569,0,0,1,41.95,19.22v.189a7.474,7.474,0,0,1,5.66,7.17A6.727,6.727,0,0,1,46.1,30.918a7.289,7.289,0,0,1,3.4,6.226,7.4,7.4,0,0,1-3.962,6.6v.189A11.555,11.555,0,0,1,34.026,55.445a13.073,13.073,0,0,1-3.773-.566,6.851,6.851,0,0,1-4.905,2.075Zm0-45.093a3.785,3.785,0,0,0-3.773,3.773V49.408a3.785,3.785,0,0,0,3.773,3.773,3.939,3.939,0,0,0,3.019-1.509,1.8,1.8,0,0,1,2.264-.566,7.4,7.4,0,0,0,3.4.755,7.77,7.77,0,0,0,7.736-7.736v-.943a2.049,2.049,0,0,1,1.321-2.264,3.857,3.857,0,0,0,2.641-3.585,3.547,3.547,0,0,0-3.4-3.585,1.814,1.814,0,0,1-1.7-1.509,2.034,2.034,0,0,1,1.132-2.075,3.564,3.564,0,0,0,2.075-3.4,3.785,3.785,0,0,0-3.773-3.773,1.783,1.783,0,0,1-1.887-1.887V19.22A3.785,3.785,0,0,0,34.4,15.447a3.19,3.19,0,0,0-2.264.755,1.736,1.736,0,0,1-1.887.189,1.874,1.874,0,0,1-1.132-1.509,4.063,4.063,0,0,0-3.773-3.019Z" transform="translate(-17.8 -7.9)" fill="#010101"/>
          </g>
          <g id="Group_1203063" data-name="Group 1203063" transform="translate(47.734 12.143)">
            <path id="Path_1043622" data-name="Path 1043622" d="M26.643,21.06h-.189a1.035,1.035,0,0,1-.755-1.132,7.815,7.815,0,0,1,3.207-4.905c2.075-1.132,4.339-.566,4.339-.377a.895.895,0,0,1-.566,1.7,4.79,4.79,0,0,0-3.019.377A5.013,5.013,0,0,0,27.4,20.305a.691.691,0,0,1-.755.755Z" transform="translate(-25.7 -14.336)" fill="#010101"/>
          </g>
          <g id="Group_1203064" data-name="Group 1203064" transform="translate(50.753 29.15)">
            <path id="Path_1043623" data-name="Path 1043623" d="M35.036,30.048a1.254,1.254,0,0,1-.943-.755c-.189-.377-1.132-4.528-5.66-3.962a1.274,1.274,0,0,1-1.132-.755,1.274,1.274,0,0,1,.755-1.132c5.094-.755,7.17,3.207,7.736,5.283.189.566-.189.943-.755,1.132Z" transform="translate(-27.3 -23.35)" fill="#010101"/>
          </g>
          <g id="Group_1203065" data-name="Group 1203065" transform="translate(42.779 24.857)">
            <path id="Path_1043624" data-name="Path 1043624" d="M31.991,27.537a1.057,1.057,0,0,1-.943-1.132,3.007,3.007,0,0,0-2.641-3.4,2.48,2.48,0,0,0-2.264.566,2.875,2.875,0,0,0-1.132,2.075.831.831,0,0,1-1.132.755.831.831,0,0,1-.755-1.132,4.963,4.963,0,0,1,9.811,1.509.863.863,0,0,1-.943.755Z" transform="translate(-23.074 -21.075)" fill="#010101"/>
          </g>
          <g id="Group_1203066" data-name="Group 1203066" transform="translate(39.739 34.291)">
            <path id="Path_1043625" data-name="Path 1043625" d="M30.023,33.48h-.377a.975.975,0,0,1-.566-1.321,2.406,2.406,0,0,0,0-2.264,3.7,3.7,0,0,0-1.7-1.7,2.406,2.406,0,0,0-2.264,0,3.7,3.7,0,0,0-1.7,1.7,1.016,1.016,0,1,1-1.887-.755A5.152,5.152,0,0,1,24.175,26.5a4.4,4.4,0,0,1,3.773,0,5.961,5.961,0,0,1,2.641,2.641,4.4,4.4,0,0,1,0,3.773.5.5,0,0,1-.566.566Z" transform="translate(-21.462 -26.075)" fill="#010101"/>
          </g>
          <g id="Group_1203067" data-name="Group 1203067" transform="translate(33.755 31.244)">
            <path id="Path_1043626" data-name="Path 1043626" d="M25.478,31.894H25.1a.975.975,0,0,1-.566-1.321,2.406,2.406,0,0,0,0-2.264,3.7,3.7,0,0,0-1.7-1.7,3.469,3.469,0,0,0-3.019.377.943.943,0,0,1-1.132-1.509,4.6,4.6,0,0,1,4.905-.566,5.961,5.961,0,0,1,2.641,2.641,4.4,4.4,0,0,1,0,3.773c0,.377-.377.566-.755.566Z" transform="translate(-18.291 -24.46)" fill="#010101"/>
          </g>
          <g id="Group_1203068" data-name="Group 1203068" transform="translate(33.89 22.755)">
            <path id="Path_1043627" data-name="Path 1043627" d="M24.282,24.374a1.038,1.038,0,0,1-.943-.566,2.678,2.678,0,0,0-1.509-1.7,3.155,3.155,0,0,0-2.264-.189.791.791,0,0,1-1.132-.566A.791.791,0,0,1,19,20.224a5.175,5.175,0,0,1,3.773.189,4.59,4.59,0,0,1,2.453,2.83.791.791,0,0,1-.566,1.132h-.377Z" transform="translate(-18.363 -19.961)" fill="#010101"/>
          </g>
          <g id="Group_1203069" data-name="Group 1203069" transform="translate(33.912 10.181)">
            <path id="Path_1043628" data-name="Path 1043628" d="M26.536,22.36A4.647,4.647,0,0,1,22.2,19.152c-.566-1.7-3.019-2.075-3.019-2.075a.831.831,0,0,1-.755-1.132.831.831,0,0,1,1.132-.755c.189,0,3.585.566,4.528,3.4a2.782,2.782,0,0,0,3.4,1.887,2.4,2.4,0,0,0,1.7-1.321,2.6,2.6,0,0,0,.189-2.075,2.4,2.4,0,0,0-1.321-1.7,2.6,2.6,0,0,0-2.075-.189.895.895,0,0,1-.566-1.7,4.239,4.239,0,0,1,3.4.377,3.627,3.627,0,0,1,2.075,2.83,4.239,4.239,0,0,1-.377,3.4,3.627,3.627,0,0,1-2.83,2.075,2.393,2.393,0,0,1-1.132.189Z" transform="translate(-18.374 -13.296)" fill="#010101"/>
          </g>
        </g>
        <g id="Group_1203071" data-name="Group 1203071" transform="translate(20.777 2.143)">
          <circle id="Ellipse_12606" data-name="Ellipse 12606" cx="11.886" cy="11.886" r="11.886" fill="#c0d0d6"/>
        </g>
        <g id="Group_1203072" data-name="Group 1203072" transform="translate(20.777 1.955)">
          <path id="Path_1043629" data-name="Path 1043629" d="M32.709,6.694a11.349,11.349,0,0,0-7.17-2.453A11.837,11.837,0,0,0,13.653,16.128a11.065,11.065,0,0,0,2.264,6.981A12.252,12.252,0,0,1,11.2,13.486,11.8,11.8,0,0,1,32.709,6.694Z" transform="translate(-11.2 -1.6)" fill="#849da9"/>
        </g>
        <g id="Group_1203073" data-name="Group 1203073" transform="translate(19.833 1.2)">
          <path id="Path_1043630" data-name="Path 1043630" d="M23.53,26.859a12.83,12.83,0,1,1,12.83-12.83A12.843,12.843,0,0,1,23.53,26.859Zm0-23.961A10.943,10.943,0,1,0,34.473,13.841,11.074,11.074,0,0,0,23.53,2.9Z" transform="translate(-10.7 -1.2)" fill="#010101"/>
        </g>
        <g id="Group_1203080" data-name="Group 1203080" transform="translate(26.625 6.786)">
          <g id="Group_1203076" data-name="Group 1203076" transform="translate(0 0)">
            <g id="Group_1203074" data-name="Group 1203074" transform="translate(0 2.338)">
              <path id="Path_1043631" data-name="Path 1043631" d="M25.243,7.287h-10a.891.891,0,0,1-.943-.943.891.891,0,0,1,.943-.943h10a.891.891,0,0,1,.943.943A.891.891,0,0,1,25.243,7.287Z" transform="translate(-14.3 -5.4)" fill="#010101"/>
            </g>
            <g id="Group_1203075" data-name="Group 1203075" transform="translate(6.491)">
              <path id="Path_1043632" data-name="Path 1043632" d="M17.853,10.272a1,1,0,0,1,.377-1.321l2.453-1.509L18.23,5.933a1.167,1.167,0,0,1-.377-1.321,1.167,1.167,0,0,1,1.321-.377L22.947,6.5a1.43,1.43,0,0,1,.377.755.98.98,0,0,1-.377.755l-3.773,2.264c-.566.566-1.132.377-1.321,0Z" transform="translate(-17.74 -4.161)" fill="#010101"/>
            </g>
          </g>
          <g id="Group_1203079" data-name="Group 1203079" transform="translate(0 7.924)">
            <g id="Group_1203077" data-name="Group 1203077" transform="translate(0 2.338)">
              <path id="Path_1043633" data-name="Path 1043633" d="M25.243,11.487h-10a.891.891,0,0,1-.943-.943.891.891,0,0,1,.943-.943h10a.891.891,0,0,1,.943.943A.891.891,0,0,1,25.243,11.487Z" transform="translate(-14.3 -9.6)" fill="#010101"/>
            </g>
            <g id="Group_1203078" data-name="Group 1203078" transform="translate(6.491)">
              <path id="Path_1043634" data-name="Path 1043634" d="M17.853,14.472a1,1,0,0,1,.377-1.321l2.453-1.509L18.23,10.133a1.167,1.167,0,0,1-.377-1.321,1.167,1.167,0,0,1,1.321-.377L22.947,10.7a1.43,1.43,0,0,1,.377.755.98.98,0,0,1-.377.755l-3.773,2.264c-.566.566-1.132.377-1.321,0Z" transform="translate(-17.74 -8.361)" fill="#010101"/>
            </g>
          </g>
        </g>
      </g>
    </g>
  </g>
</svg>
