<svg xmlns="http://www.w3.org/2000/svg" xmlns:xlink="http://www.w3.org/1999/xlink" width="118" height="118" viewBox="0 0 118 118">
  <defs>
    <filter id="Path_982547" x="0" y="0" width="118" height="118" filterUnits="userSpaceOnUse">
      <feOffset dy="3" input="SourceAlpha"/>
      <feGaussianBlur stdDeviation="3" result="blur"/>
      <feFlood flood-opacity="0.161"/>
      <feComposite operator="in" in2="blur"/>
      <feComposite in="SourceGraphic"/>
    </filter>
  </defs>
  <g id="Group_1203514" data-name="Group 1203514" transform="translate(-834.5 -779.623)">
    <g id="Group_1202947" data-name="Group 1202947">
      <g id="Group_1178381" data-name="Group 1178381" transform="translate(630 -4131.922)">
        <g id="Group_1173988" data-name="Group 1173988" transform="translate(213.5 4917.545)">
          <g id="Group_1172010" data-name="Group 1172010">
            <g id="Group_1171046" data-name="Group 1171046">
              <g id="Group_1148525" data-name="Group 1148525">
                <g transform="matrix(1, 0, 0, 1, -9, -6)" filter="url(#Path_982547)">
                  <g id="Path_982547-2" data-name="Path 982547" transform="translate(9 6)" fill="#f7fbfc">
                    <path d="M 50 98.5 C 43.45188522338867 98.5 37.10042953491211 97.21787261962891 31.12207221984863 94.68923950195312 C 25.34691429138184 92.24655914306641 20.15997123718262 88.74931335449219 15.70532894134521 84.29468536376953 C 11.2506856918335 79.84004211425781 7.753442764282227 74.65309906005859 5.310757160186768 68.8779296875 C 2.782128572463989 62.89957046508789 1.5 56.54811477661133 1.5 50 C 1.5 43.45188522338867 2.782128572463989 37.10042953491211 5.310757160186768 31.12207221984863 C 7.753442764282227 25.34691429138184 11.2506856918335 20.15997123718262 15.70532894134521 15.70532894134521 C 20.15997123718262 11.2506856918335 25.34691429138184 7.753442764282227 31.12207221984863 5.310757160186768 C 37.10042953491211 2.782128572463989 43.45188522338867 1.5 50 1.5 C 56.54811477661133 1.5 62.89957046508789 2.782128572463989 68.8779296875 5.310757160186768 C 74.65309906005859 7.753442764282227 79.84004211425781 11.2506856918335 84.29468536376953 15.70532894134521 C 88.74931335449219 20.15997123718262 92.24655914306641 25.34691429138184 94.68923950195312 31.12207221984863 C 97.21787261962891 37.10042953491211 98.5 43.45188522338867 98.5 50 C 98.5 56.54811477661133 97.21787261962891 62.89957046508789 94.68923950195312 68.8779296875 C 92.24655914306641 74.65309906005859 88.74931335449219 79.84004211425781 84.29468536376953 84.29468536376953 C 79.84004211425781 88.74931335449219 74.65309906005859 92.24655914306641 68.8779296875 94.68923950195312 C 62.89957046508789 97.21787261962891 56.54811477661133 98.5 50 98.5 Z" stroke="none"/>
                    <path d="M 50 3 C 43.65372467041016 3 37.49886322021484 4.242263793945312 31.70639801025391 6.6922607421875 C 26.11003112792969 9.059326171875 21.08335113525391 12.44861602783203 16.76598358154297 16.76598358154297 C 12.44861602783203 21.08335113525391 9.059326171875 26.11003112792969 6.6922607421875 31.70639801025391 C 4.242263793945312 37.49886322021484 3 43.65372467041016 3 50 C 3 56.34627532958984 4.242263793945312 62.50113677978516 6.6922607421875 68.29360198974609 C 9.059326171875 73.88996887207031 12.44861602783203 78.91666412353516 16.76598358154297 83.23401641845703 C 21.08335113525391 87.55138397216797 26.11003112792969 90.940673828125 31.70639801025391 93.3077392578125 C 37.49886322021484 95.75773620605469 43.65372467041016 97 50 97 C 56.34627532958984 97 62.50113677978516 95.75773620605469 68.29360198974609 93.3077392578125 C 73.88996887207031 90.940673828125 78.91666412353516 87.55138397216797 83.23401641845703 83.23401641845703 C 87.55138397216797 78.91666412353516 90.940673828125 73.88996887207031 93.3077392578125 68.29360198974609 C 95.75773620605469 62.50113677978516 97 56.34627532958984 97 50 C 97 43.65372467041016 95.75773620605469 37.49886322021484 93.3077392578125 31.70639801025391 C 90.940673828125 26.11003112792969 87.55138397216797 21.08335113525391 83.23401641845703 16.76598358154297 C 78.91666412353516 12.44861602783203 73.88996887207031 9.059326171875 68.29360198974609 6.6922607421875 C 62.50113677978516 4.242263793945312 56.34627532958984 3 50 3 M 50 0 C 77.61424255371094 0 100 22.38577270507812 100 50 C 100 77.61424255371094 77.61424255371094 100 50 100 C 22.38577270507812 100 0 77.61424255371094 0 50 C 0 22.38577270507812 22.38577270507812 0 50 0 Z" stroke="none" fill="#62797e"/>
                  </g>
                </g>
              </g>
            </g>
          </g>
        </g>
      </g>
      <g id="reason_2106612" transform="translate(850.548 803.368)">
        <path id="Path_1042983" data-name="Path 1042983" d="M71.447,152.3a6.787,6.787,0,0,1-13.568.3,5.432,5.432,0,0,1-4.352-5.323c0-.116,0-.23.012-.344a8.139,8.139,0,0,1-6.957-9.43,8.145,8.145,0,0,1,0-13.577,8.139,8.139,0,0,1,7-9.435,5.431,5.431,0,0,1,4.847-4.657,6.788,6.788,0,0,1,13.021,2.689V152.3Z" transform="translate(-28.495 -91.586)" fill="#fc8086"/>
        <path id="Path_1042984" data-name="Path 1042984" d="M124.283,258.747a5.439,5.439,0,0,0,4.056,3.555,6.787,6.787,0,0,0,13.568-.3V232.384c0,14.391-7.859,26.087-17.625,26.363Z" transform="translate(-98.956 -201.29)" fill="#fa4954"/>
        <path id="Path_1042985" data-name="Path 1042985" d="M256,152.3a6.787,6.787,0,0,0,13.568.3,5.432,5.432,0,0,0,4.352-5.323c0-.116,0-.23-.012-.344a8.139,8.139,0,0,0,6.957-9.43,8.145,8.145,0,0,0,0-13.577,8.139,8.139,0,0,0-7-9.435,5.432,5.432,0,0,0-4.847-4.657A6.788,6.788,0,0,0,256,112.522V152.3Z" transform="translate(-213.047 -91.586)" fill="#fc8086"/>
        <path id="Path_1042986" data-name="Path 1042986" d="M284.509,255.116a8.116,8.116,0,0,0-2.391-5.763A23.62,23.62,0,0,1,258.5,272.47a23.881,23.881,0,0,1-2.5-.132V276.7a6.787,6.787,0,0,0,13.568.3,5.432,5.432,0,0,0,4.352-5.323c0-.116,0-.23-.012-.344a8.139,8.139,0,0,0,6.957-9.43A8.136,8.136,0,0,0,284.509,255.116Z" transform="translate(-213.048 -215.988)" fill="#fa4954"/>
        <circle id="Ellipse_12586" data-name="Ellipse 12586" cx="9.503" cy="9.503" r="9.503" transform="translate(11.049 8.174)" fill="#97e4f9"/>
        <path id="Path_1042987" data-name="Path 1042987" d="M44.278,74.534A9.5,9.5,0,0,1,31.013,87.8,9.5,9.5,0,1,0,44.278,74.534Z" transform="translate(-18.166 -64.561)" fill="#0acefa"/>
        <circle id="Ellipse_12587" data-name="Ellipse 12587" cx="9.503" cy="9.503" r="9.503" transform="translate(55.849 8.174)" fill="#6df3bf"/>
        <path id="Path_1042988" data-name="Path 1042988" d="M379.092,74.534A9.5,9.5,0,0,1,365.827,87.8a9.5,9.5,0,1,0,13.265-13.265Z" transform="translate(-308.179 -64.561)" fill="#05e29a"/>
        <circle id="Ellipse_12588" data-name="Ellipse 12588" cx="9.503" cy="9.503" r="9.503" transform="translate(33.449 0.707)" fill="#fba65c"/>
        <path id="Path_1042989" data-name="Path 1042989" d="M211.685,18.732A9.5,9.5,0,0,1,198.42,32a9.5,9.5,0,1,0,13.265-13.265Z" transform="translate(-163.172 -16.226)" fill="#fb9538"/>
        <path id="Path_1042990" data-name="Path 1042990" d="M65.607,101.333a1.008,1.008,0,0,0,1.008-1.008V91.093a1.008,1.008,0,1,0-2.016,0v.385a1.3,1.3,0,0,1-1.3,1.3,1.008,1.008,0,1,0,0,2.016,3.3,3.3,0,0,0,1.3-.266v5.8A1.008,1.008,0,0,0,65.607,101.333Z" transform="translate(-45.259 -78.031)"/>
        <path id="Path_1042991" data-name="Path 1042991" d="M75.864,17.677a10.485,10.485,0,0,0-1.6-5.572,1.008,1.008,0,1,0-1.708,1.07,8.488,8.488,0,1,1-3.069-2.92,1.008,1.008,0,1,0,.983-1.76,10.512,10.512,0,0,0-15.355,6.8,7.769,7.769,0,0,0-2.279-1.512A10.512,10.512,0,0,0,45.584.032a1.008,1.008,0,0,0-.5,1.952,8.5,8.5,0,1,1-4.256,0,1.008,1.008,0,0,0-.5-1.952A10.512,10.512,0,0,0,33.066,13.78a7.77,7.77,0,0,0-2.279,1.512A10.512,10.512,0,0,0,15.432,8.5a1.008,1.008,0,1,0,.983,1.76,8.494,8.494,0,1,1-3.069,2.92,1.008,1.008,0,0,0-1.708-1.07,10.512,10.512,0,0,0,5.917,15.645,9.173,9.173,0,0,0-.59,3.232c0,.294.015.592.044.889l-.15.118a9.283,9.283,0,0,0-3.423,7.138,9.138,9.138,0,0,0,3.573,7.255c-.028.294-.044.591-.044.89h0a9.178,9.178,0,0,0,7.079,8.913,6.461,6.461,0,0,0,4.4,5.618A7.793,7.793,0,0,0,42.952,64.54,7.793,7.793,0,0,0,57.46,61.805a6.461,6.461,0,0,0,4.4-5.618,9.178,9.178,0,0,0,7.079-8.913h0c0-.3-.016-.6-.044-.89a9.138,9.138,0,0,0,3.573-7.255,9.283,9.283,0,0,0-3.423-7.138l-.15-.118c.029-.3.044-.6.044-.889a9.173,9.173,0,0,0-.59-3.232,10.528,10.528,0,0,0,7.514-10.073Zm-39.7,48.816a5.764,5.764,0,0,1-5.652-4.574,6.477,6.477,0,0,0,5.32-6.374,1.008,1.008,0,1,0-2.016,0A4.451,4.451,0,0,1,29.485,60a4.433,4.433,0,0,1-3.4-3.708,9.148,9.148,0,0,0,3.858-1.357,1.008,1.008,0,1,0-1.077-1.7,7.139,7.139,0,0,1-3.747,1.1,7.15,7.15,0,0,1-6.136-7.063h0a7.1,7.1,0,0,1,3.377-6.068,1.008,1.008,0,0,0-1.064-1.712,9.118,9.118,0,0,0-3.782,4.646,7.12,7.12,0,0,1-2.06-5.011,7.247,7.247,0,0,1,2.674-5.57c.151-.121.314-.241.484-.355l.038-.024a7.132,7.132,0,0,1,8.819.737,1.008,1.008,0,1,0,1.378-1.471,9.153,9.153,0,0,0-9.854-1.733,7.136,7.136,0,0,1,.584-2.57c.322.03.649.047.979.047a10.527,10.527,0,0,0,10.392-8.933,4.428,4.428,0,0,1,3.94,4.4,1.008,1.008,0,1,0,2.016,0,6.448,6.448,0,0,0-5.248-6.326A5.76,5.76,0,0,1,33.934,15.6a10.524,10.524,0,0,0,8.01,5.069v8.252a2.932,2.932,0,0,1-2.929,2.929,1.008,1.008,0,0,0,0,2.016,4.918,4.918,0,0,0,2.929-.964v6.037a7.145,7.145,0,0,1-4.092,1.783,1.008,1.008,0,0,0,.091,2.012q.046,0,.094,0a9.154,9.154,0,0,0,3.907-1.294v4.787a2.932,2.932,0,0,1-2.929,2.929,1.008,1.008,0,1,0,0,2.016,4.918,4.918,0,0,0,2.929-.964V60.713a5.786,5.786,0,0,1-5.78,5.78ZM66.915,30.711a9.153,9.153,0,0,0-9.854,1.733,1.008,1.008,0,1,0,1.378,1.471,7.132,7.132,0,0,1,8.819-.737l.038.024c.169.114.333.234.484.355a7.247,7.247,0,0,1,2.674,5.57,7.12,7.12,0,0,1-2.06,5.011,9.119,9.119,0,0,0-3.782-4.646,1.008,1.008,0,0,0-1.064,1.712,7.1,7.1,0,0,1,3.377,6.068h0a7.15,7.15,0,0,1-6.136,7.063,7.141,7.141,0,0,1-3.747-1.1,1.008,1.008,0,0,0-1.077,1.7,9.151,9.151,0,0,0,3.858,1.357A4.433,4.433,0,0,1,56.419,60a4.451,4.451,0,0,1-4.331-4.457,1.008,1.008,0,0,0-2.016,0,6.477,6.477,0,0,0,5.32,6.374A5.78,5.78,0,0,1,43.96,60.713V50.206a4.918,4.918,0,0,0,2.929.964,1.008,1.008,0,0,0,0-2.016,2.932,2.932,0,0,1-2.929-2.929V41.438a9.152,9.152,0,0,0,3.907,1.294c.031,0,.063,0,.094,0a1.008,1.008,0,0,0,.091-2.012,7.144,7.144,0,0,1-4.092-1.783V32.9a4.918,4.918,0,0,0,2.929.964,1.008,1.008,0,0,0,0-2.016,2.932,2.932,0,0,1-2.929-2.929V20.672A10.524,10.524,0,0,0,51.97,15.6a5.759,5.759,0,0,1,2.282,1.721A6.448,6.448,0,0,0,49,23.651a1.008,1.008,0,1,0,2.016,0,4.428,4.428,0,0,1,3.94-4.4,10.527,10.527,0,0,0,10.392,8.933c.33,0,.656-.017.979-.047a7.133,7.133,0,0,1,.584,2.57Z" transform="translate(0 0)"/>
        <path id="Path_1042992" data-name="Path 1042992" d="M404.25,92.1a1.008,1.008,0,0,0,0-2.016h-4.616a1.008,1.008,0,0,0-1.008,1.008v3.258a2.368,2.368,0,0,0,2.366,2.366h1.9a.35.35,0,0,1,.35.35v1.9a.35.35,0,0,1-.35.35h-3.258a1.008,1.008,0,0,0,0,2.016h3.258a2.368,2.368,0,0,0,2.366-2.366v-1.9a2.368,2.368,0,0,0-2.366-2.366h-1.9a.35.35,0,0,1-.35-.35V92.1Z" transform="translate(-336.589 -78.031)"/>
        <path id="Path_1042993" data-name="Path 1042993" d="M231.219,36.638a1.008,1.008,0,0,0,2.016,0,.339.339,0,0,1,.338-.338H235.5a.339.339,0,0,1,.338.338v1.923a.339.339,0,0,1-.338.338H234.15a1.008,1.008,0,1,0,0,2.016H235.5a.339.339,0,0,1,.338.338v1.923a.339.339,0,0,1-.338.338h-1.923a.339.339,0,0,1-.338-.338,1.008,1.008,0,0,0-2.016,0,2.357,2.357,0,0,0,2.354,2.354H235.5a2.357,2.357,0,0,0,2.354-2.354V41.254a2.339,2.339,0,0,0-.426-1.346,2.339,2.339,0,0,0,.426-1.346V36.638a2.357,2.357,0,0,0-2.354-2.354h-1.923A2.357,2.357,0,0,0,231.219,36.638Z" transform="translate(-191.583 -29.697)"/>
      </g>
    </g>
  </g>
</svg>
