<svg xmlns="http://www.w3.org/2000/svg" xmlns:xlink="http://www.w3.org/1999/xlink" width="108" height="108" viewBox="0 0 108 108">
  <defs>
    <filter id="Path_904820" x="0" y="0" width="108" height="108" filterUnits="userSpaceOnUse">
      <feOffset dy="3" input="SourceAlpha"/>
      <feGaussianBlur stdDeviation="3" result="blur"/>
      <feFlood flood-opacity="0.161"/>
      <feComposite operator="in" in2="blur"/>
      <feComposite in="SourceGraphic"/>
    </filter>
  </defs>
  <g id="Group_1203512" data-name="Group 1203512" transform="translate(-619.477 -462)">
    <g id="Group_1202939" data-name="Group 1202939">
      <g id="Group_1177315" data-name="Group 1177315" transform="translate(628.477 468)">
        <g id="Group_1173585" data-name="Group 1173585" transform="translate(0 0)">
          <g id="Group_1173428" data-name="Group 1173428" transform="translate(0)">
            <g id="Group_1171958" data-name="Group 1171958">
              <g id="Group_1167341" data-name="Group 1167341">
                <g id="Group_1166792" data-name="Group 1166792">
                  <g transform="matrix(1, 0, 0, 1, -9, -6)" filter="url(#Path_904820)">
                    <g id="Path_904820-2" data-name="Path 904820" transform="translate(9 6)" fill="#fff6f9">
                      <path d="M 45 88.49999237060547 C 39.12687683105469 88.49999237060547 33.43022537231445 87.35006713867188 28.06830024719238 85.08216857910156 C 22.88852500915527 82.89130401611328 18.23629951477051 79.75457763671875 14.2408504486084 75.75914001464844 C 10.24541282653809 71.76369476318359 7.108687400817871 67.11146545410156 4.917825222015381 61.93169403076172 C 2.649924993515015 56.56976699829102 1.5 50.87311553955078 1.5 44.99999237060547 C 1.5 39.12686920166016 2.649924993515015 33.43021774291992 4.917825222015381 28.06829261779785 C 7.108687400817871 22.88851737976074 10.24541282653809 18.23630523681641 14.2408504486084 14.24085521697998 C 18.23629951477051 10.24540519714355 22.88852500915527 7.108692169189453 28.06830024719238 4.917829990386963 C 33.43022537231445 2.649929761886597 39.12687683105469 1.500004887580872 45 1.500004887580872 C 50.87312316894531 1.500004887580872 56.56977462768555 2.649929761886597 61.93170166015625 4.917829990386963 C 67.11147308349609 7.108692169189453 71.76370239257812 10.24540519714355 75.75914764404297 14.24085521697998 C 79.75458526611328 18.23630523681641 82.89131164550781 22.88851737976074 85.08217620849609 28.06829261779785 C 87.35007476806641 33.43021774291992 88.5 39.12686920166016 88.5 44.99999237060547 C 88.5 50.87311553955078 87.35007476806641 56.56976699829102 85.08217620849609 61.93169403076172 C 82.89131164550781 67.11146545410156 79.75458526611328 71.76369476318359 75.75914764404297 75.75914001464844 C 71.76370239257812 79.75457763671875 67.11147308349609 82.89130401611328 61.93170166015625 85.08216857910156 C 56.56977462768555 87.35006713867188 50.87312316894531 88.49999237060547 45 88.49999237060547 Z" stroke="none"/>
                      <path d="M 45 2.999992370605469 C 39.32871246337891 2.999992370605469 33.82865524291992 4.11004638671875 28.65262985229492 6.299331665039062 C 23.65165710449219 8.414566040039062 19.15968322753906 11.44333648681641 15.301513671875 15.30150604248047 C 11.44334411621094 19.15967559814453 8.414573669433594 23.65164947509766 6.299339294433594 28.65262222290039 C 4.110054016113281 33.82864761352539 3 39.32870483398438 3 44.99999237060547 C 3 50.67127990722656 4.110054016113281 56.17132186889648 6.299339294433594 61.34736633300781 C 8.414573669433594 66.34833526611328 11.44334411621094 70.84029388427734 15.301513671875 74.69846343994141 C 19.15968322753906 78.55663299560547 23.65165710449219 81.58540344238281 28.65262985229492 83.70063781738281 C 33.82865524291992 85.88992309570312 39.32871246337891 86.99997711181641 45 86.99997711181641 C 50.67128753662109 86.99997711181641 56.17134475708008 85.88992309570312 61.34737396240234 83.70063781738281 C 66.34834289550781 81.58540344238281 70.84031677246094 78.55663299560547 74.698486328125 74.69846343994141 C 78.55665588378906 70.84029388427734 81.58542633056641 66.34833526611328 83.70066070556641 61.34736633300781 C 85.88994598388672 56.17132186889648 87 50.67127990722656 87 44.99999237060547 C 87 39.32870483398438 85.88994598388672 33.82864761352539 83.70066070556641 28.65262222290039 C 81.58542633056641 23.65164947509766 78.55665588378906 19.15967559814453 74.698486328125 15.30150604248047 C 70.84031677246094 11.44333648681641 66.34834289550781 8.414566040039062 61.34737396240234 6.299331665039062 C 56.17134475708008 4.11004638671875 50.67128753662109 2.999992370605469 45 2.999992370605469 M 45 -7.62939453125e-06 C 69.85281372070312 -7.62939453125e-06 90 20.14717864990234 90 44.99999237060547 C 90 69.85279083251953 69.85281372070312 89.99997711181641 45 89.99997711181641 C 20.14718627929688 89.99997711181641 0 69.85279083251953 0 44.99999237060547 C 0 20.14717864990234 20.14718627929688 -7.62939453125e-06 45 -7.62939453125e-06 Z" stroke="none" fill="#8b5e6f"/>
                    </g>
                  </g>
                </g>
              </g>
            </g>
          </g>
        </g>
      </g>
      <g id="man_3770496" transform="translate(611.112 480.319)">
        <g id="Group_1203491" data-name="Group 1203491" transform="translate(36.768 0.899)">
          <path id="Path_1044055" data-name="Path 1044055" d="M90.875,382.887h5.216l-.321-1.852-.894-.847.582-.95-.469-2.708a9.014,9.014,0,0,0-.237-1.014c-.124-.421-1.041-.516-1.223-.909-.09-.2.575-.7.472-.889a8.983,8.983,0,0,0-3.126-3.291c-.31-.193-.683.458-1.018.3-.269-.124-.5-1.061-.78-1.158q-.156-.054-.314-.1L78.43,366.327H62.945L52.5,369.478q-.167.051-.332.107c-.279.1-.785,1.454-1.05,1.575-.333.153-.42-.924-.728-.733a8.981,8.981,0,0,0-3.14,3.291c-.12.216.594.667.492.894-.165.365-1.131.515-1.247.9a9.031,9.031,0,0,0-.241,1.028l-.467,2.694.708.9-1.02.894-.078.448a1.2,1.2,0,0,0,1.181,1.4h3.792l.9-.924.9.924h3.719l.9-.924.9.924H61.7l6.674-1.75,11.167,1.75h4.017l.934-1.108.864,1.108h3.719l.864-1.108Z" transform="translate(-45.026 -323.323)" fill="#ffd064"/>
          <path id="Path_1044056" data-name="Path 1044056" d="M182.246,380.312l-.676-14.736h17.841v16.65H182.881Z" transform="translate(-164.893 -322.662)" fill="#e3a76f"/>
          <path id="Path_1044057" data-name="Path 1044057" d="M185.1,365.58l-1.336,11.436a2.558,2.558,0,0,1-.882,1.665v3.549h-1.311V365.58Z" transform="translate(-164.894 -322.665)" fill="#d6995c"/>
          <path id="Path_1044058" data-name="Path 1044058" d="M65.6,366.33l-4.942,2.157-10.139,3.058a6.783,6.783,0,0,0-4.744,5.369l-.913,5.974H42.774c-.743,0-.109-.67.018-1.4l.078-.448,1.02-.866-.708-.932.467-2.694a9.02,9.02,0,0,1,.24-1.027c.078-.264,1.065-.678,1.167-.932.14-.351-.594-.538-.413-.866a8.978,8.978,0,0,1,3.14-3.291c.254-.157.609.711.88.579.32-.155.558-1.3.9-1.421q.164-.057.332-.107l10.443-3.151Z" transform="translate(-42.419 -323.325)" fill="#ffc250"/>
          <path id="Path_1044059" data-name="Path 1044059" d="M210.566,309.128l2.243,3.321.409,3.7a5.073,5.073,0,0,1-1.057,3.764c-1.075,1.339-3.047,2.74-6.59,2.74a8.345,8.345,0,0,1-5.928-2.029c-.251-.233-.248-1.105-.439-1.343-.848-1.055.251-3.958.408-5.3l-.908-4.855Z" transform="translate(-179.974 -272.979)" fill="#f2d1a5"/>
          <path id="Path_1044060" data-name="Path 1044060" d="M206.82,312.451l-.367-3.321H192.714l-.369,3.322h0l-.411,3.7a5.082,5.082,0,0,0,1.057,3.767,6.68,6.68,0,0,0,.663.71l.577-6.045a.717.717,0,0,1,.979-.6,11.558,11.558,0,0,0,4.371.9,13.1,13.1,0,0,0,7.239-2.434Z" transform="translate(-173.984 -272.981)" fill="#f2bb88"/>
          <path id="Path_1044061" data-name="Path 1044061" d="M95.07,175.955a5.127,5.127,0,0,1-5.119-5.135,3.717,3.717,0,0,1,3.711-3.723H126.04a3.717,3.717,0,0,1,3.711,3.723,5.127,5.127,0,0,1-5.119,5.135Z" transform="translate(-84.254 -147.97)" fill="#f2bb88"/>
          <path id="Path_1044062" data-name="Path 1044062" d="M128.065,26.041c0-11.184,5.67-18.541,15.333-18.541s15.333,7.357,15.333,18.541c0,6.513-.126,9.238-2.777,12.92-3.656,5.078-8.21,8.526-12.556,8.526s-8.9-3.449-12.556-8.526C128.191,35.279,128.065,32.554,128.065,26.041Z" transform="translate(-117.801 -7.5)" fill="#f2d1a5"/>
          <path id="Path_1044063" data-name="Path 1044063" d="M159.114,24.054l-6.287-3.389a1.782,1.782,0,0,1-.943-1.64l.079-2.571a25.593,25.593,0,0,0-8.181-1.4,24.694,24.694,0,0,0-8.06,1.4l.082,2.7a1.807,1.807,0,0,1-.966,1.649l-6.267,3.287c.63-10.074,6.186-16.58,15.272-16.58S158.475,13.994,159.114,24.054Z" transform="translate(-118.246 -7.5)" fill="#f2bb88"/>
          <path id="Path_1044064" data-name="Path 1044064" d="M160,22.48l-5.518-2.975a.477.477,0,0,1-.252-.436l.083-2.661a1.2,1.2,0,0,0-.813-1.173,25.608,25.608,0,0,0-17.265,0,1.2,1.2,0,0,0-.8,1.169l.084,2.783a.48.48,0,0,1-.258.441l-5.517,2.893C130.827,13.338,136.267,7.5,144.873,7.5S158.9,13.322,160,22.48Z" transform="translate(-119.276 -7.5)" fill="#855b47"/>
          <path id="Path_1044065" data-name="Path 1044065" d="M146.071,7.54c-7.494.493-12.363,5.644-13.736,13.617l-2.595,1.36C130.827,13.338,136.267,7.5,144.873,7.5,145.279,7.5,145.679,7.513,146.071,7.54Z" transform="translate(-119.276 -7.5)" fill="#7a5341"/>
          <g id="Group_1203486" data-name="Group 1203486" transform="translate(14.511 17.737)">
            <path id="Path_1044066" data-name="Path 1044066" d="M163.5,155.5h9.108a.24.24,0,0,1,.24.24v2.037a5.66,5.66,0,0,1-.883,2.762,1.2,1.2,0,0,1-.838.561,16.509,16.509,0,0,1-5.8.065,1.2,1.2,0,0,1-.88-.745A14.311,14.311,0,0,1,163.5,155.5Z" transform="translate(-163.501 -155.5)" fill="#fcf7ed"/>
            <path id="Path_1044067" data-name="Path 1044067" d="M279.849,155.5h-9.108a.24.24,0,0,0-.24.24v2.037a5.66,5.66,0,0,0,.883,2.762,1.2,1.2,0,0,0,.838.561,16.509,16.509,0,0,0,5.8.065,1.2,1.2,0,0,0,.88-.745A14.315,14.315,0,0,0,279.849,155.5Z" transform="translate(-257.677 -155.5)" fill="#fcf7ed"/>
          </g>
          <path id="Path_1044068" data-name="Path 1044068" d="M218.418,262.487h8.392a.373.373,0,0,1,.4.458c-.02.059-.044.123-.073.191-.439,1.035-4.52,2.6-4.52,2.6s-3.97-1.413-4.47-2.469a2.983,2.983,0,0,1-.131-.321A.373.373,0,0,1,218.418,262.487Z" transform="translate(-196.957 -231.928)" fill="#fcf7ed"/>
          <path id="Path_1044069" data-name="Path 1044069" d="M227.632,267.38a4.946,4.946,0,0,1-9.1,0,7.865,7.865,0,0,0,9.1,0Z" transform="translate(-197.425 -236.234)" fill="#f7e5c1"/>
          <g id="Group_1203487" data-name="Group 1203487" transform="translate(32.147 40.568)">
            <path id="Path_1044070" data-name="Path 1044070" d="M313.024,360.393a.9.9,0,0,1-.893-.795L310.66,347a.9.9,0,0,1,1.239-.934q.308.129.6.262c4.977,2.246,7.3,5.563,7.3,10.4a.9.9,0,0,1-.516.813l-5.881,2.767A.9.9,0,0,1,313.024,360.393Zm5.881-3.666h0Z" transform="translate(-310.654 -346)" fill="#ffd064"/>
          </g>
          <g id="Group_1203488" data-name="Group 1203488" transform="translate(9.897 39.855)">
            <path id="Path_1044071" data-name="Path 1044071" d="M131.781,355.155a.9.9,0,0,1-.383-.086l-5.881-2.767a.9.9,0,0,1-.516-.813c0-3.668,1.386-8.619,7.989-11.37a.9.9,0,0,1,1.238.934l-1.555,13.308A.9.9,0,0,1,131.781,355.155Z" transform="translate(-125.001 -340.05)" fill="#ffd064"/>
          </g>
          <g id="Group_1203489" data-name="Group 1203489" transform="translate(32.147 40.568)">
            <path id="Path_1044072" data-name="Path 1044072" d="M314.311,359.879l-.908.428a.9.9,0,0,1-1.275-.71L310.656,347a.9.9,0,0,1,1.239-.934c.2.085.407.173.6.261l.235.109,1.558,13.329A1.112,1.112,0,0,0,314.311,359.879Z" transform="translate(-310.65 -346)" fill="#ffc250"/>
          </g>
          <g id="Group_1203490" data-name="Group 1203490" transform="translate(9.897 39.855)">
            <path id="Path_1044073" data-name="Path 1044073" d="M134.229,341.053l-.014.127c-6.085,2.933-7.766,7.644-7.988,11.457l-.709-.334a.9.9,0,0,1-.517-.814c0-3.669,1.387-8.619,7.989-11.37a.9.9,0,0,1,1.239.934Z" transform="translate(-125.001 -340.05)" fill="#ffc250"/>
          </g>
        </g>
        <g id="Group_1203492" data-name="Group 1203492" transform="translate(35.998 0)">
          <path id="Path_1044074" data-name="Path 1044074" d="M88.718,60.309c-.358-1.694-1.016-7-1.73-8.509a9.81,9.81,0,0,0-6.222-5.614c-.015,0-5.9-1.8-5.94-1.806a15.281,15.281,0,0,0-4.179-2.635l-.364-3.135a28.015,28.015,0,0,0,5.368-5.726,15.015,15.015,0,0,0,1.763-3.109,6.034,6.034,0,0,0,5.75-6.027,4.621,4.621,0,0,0-4.57-4.621C78.542,13.51,77.078,8.771,74.353,5.41A14.852,14.852,0,0,0,62.365,0a16.445,16.445,0,0,0-6.618,1.3.9.9,0,1,0,.719,1.648,14.662,14.662,0,0,1,5.9-1.154c7.38,0,12.443,4.645,13.959,12.433l-3.7-1.994.075-2.4A2.11,2.11,0,0,0,71.28,7.782,31.75,31.75,0,0,0,68.169,6.9a.9.9,0,0,0-.4,1.753,29.973,29.973,0,0,1,2.934.827.3.3,0,0,1,.2.293l-.083,2.661a1.371,1.371,0,0,0,.723,1.256l5.1,2.754q.065.632.1,1.288H64.343A1.14,1.14,0,0,0,63.2,18.876v.06H61.526v-.06a1.14,1.14,0,0,0-1.139-1.139H47.977q.036-.653.1-1.283l5.086-2.634a1.386,1.386,0,0,0,.744-1.266l-.084-2.783a.3.3,0,0,1,.2-.292,24.782,24.782,0,0,1,9.646-1.409.9.9,0,1,0,.1-1.795,26.546,26.546,0,0,0-10.334,1.5,2.085,2.085,0,0,0-1.41,2.046l.076,2.519L48.39,14.268a16.087,16.087,0,0,1,4.72-9.144.9.9,0,1,0-1.21-1.33c-3.715,3.379-5.7,8.677-5.765,15.334a4.621,4.621,0,0,0-4.571,4.621,6.034,6.034,0,0,0,5.744,6.027,14.62,14.62,0,0,0,1.506,2.734A.9.9,0,1,0,50.3,31.492c-2.264-3.3-2.365-5.9-2.366-11.957h2.482a15.638,15.638,0,0,0,.978,4.342,2.087,2.087,0,0,0,1.539,1.3,13.087,13.087,0,0,0,2.623.245,22.446,22.446,0,0,0,3.493-.3,2.091,2.091,0,0,0,1.467-.984,6.474,6.474,0,0,0,1.013-3.227v-.18H63.2v.18a6.473,6.473,0,0,0,1.013,3.227,2.091,2.091,0,0,0,1.467.984,22.446,22.446,0,0,0,3.493.3,13.087,13.087,0,0,0,2.622-.245,2.087,2.087,0,0,0,1.539-1.3,15.646,15.646,0,0,0,.978-4.342H76.8c0,6.446-.139,8.871-2.607,12.3-3.73,5.181-8.041,8.153-11.827,8.153-2.985,0-6.363-1.882-9.511-5.3a.9.9,0,0,0-1.322,1.218,24.943,24.943,0,0,0,2.916,2.721l-.281,2.408a13.448,13.448,0,0,0-4.885,3.56l-5.3,1.6a9.806,9.806,0,0,0-6.221,5.567c-.7,1.366-1.418,6.986-1.75,8.549a.9.9,0,1,0,1.771.307l.348-2.006h3.983v1.852a.9.9,0,0,0,1.8,0V58.61h3.718v1.852a.9.9,0,0,0,1.8,0V58.61h3.119v1.852a.9.9,0,0,0,1.8,0v-5.45l.767-6.567c1.137,1.394,3.312,3.031,7.254,3.031a.9.9,0,1,0,0-1.8c-2.627,0-4.608-.809-5.889-2.4a4.194,4.194,0,0,1-.865-3.1l.51-4.373a11.855,11.855,0,0,0,6.244,1.981,11.95,11.95,0,0,0,6.244-2l.511,4.393a4.193,4.193,0,0,1-.865,3.1,5.92,5.92,0,0,1-2.06,1.626.9.9,0,1,0,.783,1.618,7.709,7.709,0,0,0,2.642-2.075l.767,6.568v5.45a.9.9,0,0,0,1.8,0V58.61H75.3v1.852a.9.9,0,1,0,1.8,0V58.61h3.718v1.852a.9.9,0,0,0,1.8,0V58.61H86.6l.348,2.006a.9.9,0,1,0,1.771-.307ZM43.363,23.749a2.821,2.821,0,0,1,2.774-2.823,31.013,31.013,0,0,0,.567,6.966A4.239,4.239,0,0,1,43.363,23.749Zm16.365-2.835a4.81,4.81,0,0,1-.754,2.3.3.3,0,0,1-.21.138,15.55,15.55,0,0,1-5.475.072.3.3,0,0,1-.22-.185,13.831,13.831,0,0,1-.855-3.7h3.428v1.8a.9.9,0,1,0,1.8,0v-1.8h2.288Zm21.638,2.836a4.239,4.239,0,0,1-3.347,4.144,30.946,30.946,0,0,0,.573-6.967A2.821,2.821,0,0,1,81.366,23.749Zm-9.707-.514a.3.3,0,0,1-.22.185,15.544,15.544,0,0,1-5.475-.072.3.3,0,0,1-.209-.138,4.81,4.81,0,0,1-.754-2.3V19.535h2.288v1.8a.9.9,0,0,0,1.8,0v-1.8h3.428A13.829,13.829,0,0,1,71.659,23.235ZM53.919,43.16,52.7,53.615l-4.222-1.987a9.573,9.573,0,0,1,1.964-5.611.9.9,0,0,0,.14-.175,11.033,11.033,0,0,1,3.34-2.682ZM44.5,47.915l3.284-.991a11.961,11.961,0,0,0-1.093,4.371H43.911V48.119C44.1,48.044,44.3,47.975,44.5,47.915Zm-2.389,1.177v2.2H40.032A7.992,7.992,0,0,1,42.114,49.091Zm-3.671,7.721.44-2.54a8.243,8.243,0,0,1,.3-1.181h2.934v3.721Zm5.469,0V53.092h3.452l.266.125v3.6H43.911Zm5.516,0V54.063l3.119,1.468v1.282ZM84.7,51.294H82.616V49.079A8,8,0,0,1,84.7,51.294Zm-3.885-3.189v3.189H78.037A10.351,10.351,0,0,0,76.8,46.86l3.44,1.046Q80.536,48,80.819,48.105Zm-4.564,3.523-4.222,1.987-1.14-9.76C74.41,45.672,76.094,48.126,76.255,51.629Zm-4.07,5.184V55.531L75.3,54.063v2.749Zm4.917,0v-3.6l.266-.125h3.452v3.721H77.1Zm5.516,0V53.092h2.936a8.249,8.249,0,0,1,.292,1.167l.443,2.554H82.616Z" transform="translate(-35.998 0)"/>
          <path id="Path_1044075" data-name="Path 1044075" d="M175.2,119.184a.9.9,0,1,0,.75,1.634,6.859,6.859,0,0,1,5.341,0,.9.9,0,0,0,.75-1.634A8.657,8.657,0,0,0,175.2,119.184Z" transform="translate(-158.052 -104.28)"/>
          <path id="Path_1044076" data-name="Path 1044076" d="M271.755,120.376a.9.9,0,0,0,1.192.442,6.858,6.858,0,0,1,5.341,0,.9.9,0,1,0,.75-1.634,8.657,8.657,0,0,0-6.841,0A.9.9,0,0,0,271.755,120.376Z" transform="translate(-243.428 -104.28)"/>
          <path id="Path_1044077" data-name="Path 1044077" d="M236.78,223.239a4.835,4.835,0,0,0,2.2-.528.9.9,0,0,0-.818-1.6,3.044,3.044,0,0,1-2.764,0,.9.9,0,1,0-.818,1.6A4.835,4.835,0,0,0,236.78,223.239Z" transform="translate(-210.349 -194.524)"/>
          <path id="Path_1044078" data-name="Path 1044078" d="M210.726,255.532a1.2,1.2,0,0,0-.166,1.1,5.835,5.835,0,0,0,10.9,0,1.2,1.2,0,0,0-.166-1.1,1.334,1.334,0,0,0-1.086-.546h-8.393a1.335,1.335,0,0,0-1.086.546Zm8.643,1.252a4.041,4.041,0,0,1-6.721,0Z" transform="translate(-189.582 -224.427)"/>
        </g>
      </g>
    </g>
  </g>
</svg>
