<svg xmlns="http://www.w3.org/2000/svg" xmlns:xlink="http://www.w3.org/1999/xlink" width="113" height="113" viewBox="0 0 113 113">
  <defs>
    <filter id="Path_982547" x="0" y="0" width="113" height="113" filterUnits="userSpaceOnUse">
      <feOffset dy="3" input="SourceAlpha"/>
      <feGaussianBlur stdDeviation="3" result="blur"/>
      <feFlood flood-opacity="0.161"/>
      <feComposite operator="in" in2="blur"/>
      <feComposite in="SourceGraphic"/>
    </filter>
  </defs>
  <g id="Group_1203549" data-name="Group 1203549" transform="translate(-324.648 -4232.648)">
    <g id="Group_1203097" data-name="Group 1203097">
      <g id="Group_1202632" data-name="Group 1202632" transform="translate(333.648 4238.648)">
        <g id="Group_1172010" data-name="Group 1172010">
          <g id="Group_1171046" data-name="Group 1171046">
            <g id="Group_1148525" data-name="Group 1148525">
              <g transform="matrix(1, 0, 0, 1, -9, -6)" filter="url(#Path_982547)">
                <g id="Path_982547-2" data-name="Path 982547" transform="translate(9 6)" fill="#f7fbfc">
                  <path d="M 47.5 93.5 C 41.28937149047852 93.5 35.26533508300781 92.28397369384766 29.59518623352051 89.88570404052734 C 24.11771965026855 87.56893157958984 19.19813346862793 84.25196075439453 14.97309303283691 80.02691650390625 C 10.74804019927979 75.80186462402344 7.431066513061523 70.88229370117188 5.114293098449707 65.40481567382812 C 2.716026782989502 59.73468017578125 1.5 53.71062850952148 1.5 47.5 C 1.5 41.28937149047852 2.716026782989502 35.26533508300781 5.114293098449707 29.59518623352051 C 7.431066513061523 24.11771965026855 10.74804019927979 19.19813346862793 14.97309303283691 14.97309303283691 C 19.19813346862793 10.74804019927979 24.11771965026855 7.431066513061523 29.59518623352051 5.114293098449707 C 35.26533508300781 2.716026782989502 41.28937149047852 1.5 47.5 1.5 C 53.71062850952148 1.5 59.73468017578125 2.716026782989502 65.40481567382812 5.114293098449707 C 70.88229370117188 7.431066513061523 75.80186462402344 10.74804019927979 80.02691650390625 14.97309303283691 C 84.25196075439453 19.19813346862793 87.56893157958984 24.11771965026855 89.88570404052734 29.59518623352051 C 92.28397369384766 35.26533508300781 93.5 41.28937149047852 93.5 47.5 C 93.5 53.71062850952148 92.28397369384766 59.73468017578125 89.88570404052734 65.40481567382812 C 87.56893157958984 70.88229370117188 84.25196075439453 75.80186462402344 80.02691650390625 80.02691650390625 C 75.80186462402344 84.25196075439453 70.88229370117188 87.56893157958984 65.40481567382812 89.88570404052734 C 59.73468017578125 92.28397369384766 53.71062850952148 93.5 47.5 93.5 Z" stroke="none"/>
                  <path d="M 47.5 3 C 41.49121475219727 3 35.66376876831055 4.176155090332031 30.17950439453125 6.495796203613281 C 24.88084411621094 8.736953735351562 20.12152099609375 11.94598388671875 16.03375244140625 16.03375244140625 C 11.94598388671875 20.12152099609375 8.736953735351562 24.88084411621094 6.495796203613281 30.17950439453125 C 4.176155090332031 35.66376876831055 3 41.49121475219727 3 47.5 C 3 53.50878524780273 4.176155090332031 59.33623123168945 6.495796203613281 64.82049560546875 C 8.736953735351562 70.11915588378906 11.94598388671875 74.87847900390625 16.03375244140625 78.96624755859375 C 20.12152099609375 83.05401611328125 24.88084411621094 86.26304626464844 30.17950439453125 88.50419616699219 C 35.66376876831055 90.82384490966797 41.49121475219727 92 47.5 92 C 53.50878524780273 92 59.33623123168945 90.82384490966797 64.82049560546875 88.50419616699219 C 70.11915588378906 86.26304626464844 74.87847900390625 83.05401611328125 78.96624755859375 78.96624755859375 C 83.05401611328125 74.87847900390625 86.26304626464844 70.11915588378906 88.50419616699219 64.82049560546875 C 90.82384490966797 59.33623123168945 92 53.50878524780273 92 47.5 C 92 41.49121475219727 90.82384490966797 35.66376876831055 88.50419616699219 30.17950439453125 C 86.26304626464844 24.88084411621094 83.05401611328125 20.12152099609375 78.96624755859375 16.03375244140625 C 74.87847900390625 11.94598388671875 70.11915588378906 8.736953735351562 64.82049560546875 6.495796203613281 C 59.33623123168945 4.176155090332031 53.50878524780273 3 47.5 3 M 47.5 0 C 73.7335205078125 0 95 21.2664794921875 95 47.5 C 95 73.7335205078125 73.7335205078125 95 47.5 95 C 21.2664794921875 95 0 73.7335205078125 0 47.5 C 0 21.2664794921875 21.2664794921875 0 47.5 0 Z" stroke="none" fill="#62797e"/>
                </g>
              </g>
            </g>
          </g>
        </g>
      </g>
      <g id="debate_7208133" transform="translate(344.661 4251.661)">
        <g id="Group_1203085" data-name="Group 1203085" transform="translate(45.443 58.758)">
          <path id="Path_1043652" data-name="Path 1043652" d="M332.772,446.921h18.854l-1.178,6.717h-16.5Z" transform="translate(-332.772 -446.921)" fill="#bc7c63"/>
          <path id="Path_1043653" data-name="Path 1043653" d="M455.17,446.921l-1.178,6.717h3.535l1.178-6.717Z" transform="translate(-439.852 -446.921)" fill="#aa6a51"/>
        </g>
        <g id="Group_1203086" data-name="Group 1203086" transform="translate(8.678 58.758)">
          <path id="Path_1043654" data-name="Path 1043654" d="M17.6,446.921H36.456l-1.178,6.717H18.78Z" transform="translate(-17.602 -446.921)" fill="#bc7c63"/>
          <path id="Path_1043655" data-name="Path 1043655" d="M140,446.921l-1.178,6.717h3.535l1.178-6.717Z" transform="translate(-124.682 -446.921)" fill="#aa6a51"/>
        </g>
        <path id="Path_1043656" data-name="Path 1043656" d="M8.444,414.6H27.769a.943.943,0,0,1,.943.943v1.885a.943.943,0,0,1-.943.943H8.444a.943.943,0,0,1-.943-.943v-1.885A.943.943,0,0,1,8.444,414.6Z" transform="translate(-0.001 -359.609)" fill="#d1a08f"/>
        <path id="Path_1043657" data-name="Path 1043657" d="M154.478,414.6h-3.535a.943.943,0,0,1,.943.943v1.885a.943.943,0,0,1-.943.943h3.535a.943.943,0,0,0,.943-.943v-1.885A.942.942,0,0,0,154.478,414.6Z" transform="translate(-126.711 -359.609)" fill="#c68d7a"/>
        <path id="Path_1043658" data-name="Path 1043658" d="M323.614,414.6h19.325a.943.943,0,0,1,.943.943v1.885a.943.943,0,0,1-.943.943H323.614a.943.943,0,0,1-.943-.943v-1.885A.943.943,0,0,1,323.614,414.6Z" transform="translate(-278.407 -359.609)" fill="#d1a08f"/>
        <path id="Path_1043659" data-name="Path 1043659" d="M469.649,414.6h-3.535a.943.943,0,0,1,.943.943v1.885a.943.943,0,0,1-.943.943h3.535a.943.943,0,0,0,.943-.943v-1.885A.943.943,0,0,0,469.649,414.6Z" transform="translate(-405.117 -359.609)" fill="#c68d7a"/>
        <g id="Group_1203087" data-name="Group 1203087" transform="translate(39.551 7.5)">
          <path id="Path_1043660" data-name="Path 1043660" d="M284.149,7.5H306.3a1.885,1.885,0,0,1,1.885,1.885v9.191a1.885,1.885,0,0,1-1.885,1.885h-1.178v1.523a.833.833,0,0,1-.833.833h0a.834.834,0,0,1-.589-.244l-2.113-2.113H284.149a1.885,1.885,0,0,1-1.885-1.885V9.385A1.885,1.885,0,0,1,284.149,7.5Z" transform="translate(-282.264 -7.5)" fill="#fee97d"/>
          <path id="Path_1043661" data-name="Path 1043661" d="M282.264,59.162v5.05a1.885,1.885,0,0,0,1.885,1.885h6.638A12.9,12.9,0,0,0,282.264,59.162Z" transform="translate(-282.264 -53.136)" fill="#fedf30"/>
        </g>
        <g id="Group_1203088" data-name="Group 1203088" transform="translate(7.5 7.5)">
          <path id="Path_1043662" data-name="Path 1043662" d="M31.538,7.5H9.385A1.885,1.885,0,0,0,7.5,9.385v9.191a1.885,1.885,0,0,0,1.885,1.885h1.178v1.523a.833.833,0,0,0,.833.833h0a.834.834,0,0,0,.589-.244L14.1,20.462h17.44a1.885,1.885,0,0,0,1.885-1.885V9.385A1.886,1.886,0,0,0,31.538,7.5Z" transform="translate(-7.5 -7.5)" fill="#9be69d"/>
          <path id="Path_1043663" data-name="Path 1043663" d="M165.189,59.162v5.05A1.885,1.885,0,0,1,163.3,66.1h-6.638A12.9,12.9,0,0,1,165.189,59.162Z" transform="translate(-139.265 -53.136)" fill="#6fd7a3"/>
        </g>
        <g id="Group_1203091" data-name="Group 1203091" transform="translate(8.678 24.567)">
          <g id="Group_1203090" data-name="Group 1203090" transform="translate(0)">
            <path id="Path_1043664" data-name="Path 1043664" d="M36.456,339.5H17.6v-6.382a3.535,3.535,0,0,1,3.535-3.535H32.92a3.535,3.535,0,0,1,3.535,3.535Z" transform="translate(-17.602 -309.078)" fill="#b3dafe"/>
            <path id="Path_1043665" data-name="Path 1043665" d="M131.077,329.58H128.72c1.952,0,2.357,1.583,2.357,3.535V339.5h3.535v-6.382A3.535,3.535,0,0,0,131.077,329.58Z" transform="translate(-115.758 -309.077)" fill="#8ac9fe"/>
            <g id="Group_1203089" data-name="Group 1203089" transform="translate(1.414)">
              <path id="Path_1043666" data-name="Path 1043666" d="M84.137,308.265h0a1.885,1.885,0,0,1-1.885-1.885v-3.064h3.771v3.064A1.885,1.885,0,0,1,84.137,308.265Z" transform="translate(-76.125 -285.877)" fill="#f6a96c"/>
              <path id="Path_1043667" data-name="Path 1043667" d="M55.988,216.442v6.363a4.949,4.949,0,0,0,4.949,4.949h0a4.949,4.949,0,0,0,4.949-4.949v-6.363Z" transform="translate(-52.924 -209.136)" fill="#fed2a4"/>
              <path id="Path_1043668" data-name="Path 1043668" d="M86.444,216.442v6.363a4.95,4.95,0,0,1-3.181,4.623,4.935,4.935,0,0,0,1.767.326h0a4.949,4.949,0,0,0,4.949-4.949v-6.363Z" transform="translate(-77.018 -209.136)" fill="#ffbd86"/>
              <path id="Path_1043669" data-name="Path 1043669" d="M46.66,153.812h0a6.834,6.834,0,0,0-6.834,6.834v4.713l1.885-1.885h0a6.585,6.585,0,0,0,3.9-1.178v1.178a4.808,4.808,0,0,0,3.716-2.357,3.573,3.573,0,0,0,2.279,2.357l1.885,1.885v-4.713A6.835,6.835,0,0,0,46.66,153.812Z" transform="translate(-38.648 -153.812)" fill="#978ecb"/>
              <path id="Path_1043670" data-name="Path 1043670" d="M85.03,153.812h0a6.84,6.84,0,0,0-1.767.232,6.836,6.836,0,0,1,5.067,6.6v1.677a3.293,3.293,0,0,0,1.65,1.151l1.885,1.885v-4.713A6.835,6.835,0,0,0,85.03,153.812Z" transform="translate(-77.018 -153.812)" fill="#8379c1"/>
              <path id="Path_1043671" data-name="Path 1043671" d="M142.019,240.417h-1.178v-3.771h1.178a1.885,1.885,0,0,1,1.885,1.885h0A1.885,1.885,0,0,1,142.019,240.417Z" transform="translate(-127.879 -226.984)" fill="#f6a96c"/>
              <path id="Path_1043672" data-name="Path 1043672" d="M31.608,240.417h1.178v-3.771H31.608a1.885,1.885,0,0,0-1.885,1.885h0A1.886,1.886,0,0,0,31.608,240.417Z" transform="translate(-29.723 -226.984)" fill="#f6a96c"/>
            </g>
          </g>
        </g>
        <g id="Group_1203092" data-name="Group 1203092" transform="translate(45.443 24.567)">
          <path id="Path_1043673" data-name="Path 1043673" d="M352.316,252.808a7.466,7.466,0,0,0,1.884,4.563,1.179,1.179,0,0,1-.241,1.732,14.835,14.835,0,0,1-16.954,0,1.179,1.179,0,0,1-.241-1.732,7.466,7.466,0,0,0,1.884-4.563l1.885,1.885h9.9Z" transform="translate(-336.055 -241.26)" fill="#0067c5"/>
          <path id="Path_1043674" data-name="Path 1043674" d="M351.626,339.5H332.772v-6.382a3.535,3.535,0,0,1,3.535-3.535H348.09a3.535,3.535,0,0,1,3.535,3.535Z" transform="translate(-332.772 -309.078)" fill="#d9b1ee"/>
          <path id="Path_1043675" data-name="Path 1043675" d="M437.323,329.58h-3.535a3.535,3.535,0,0,1,3.535,3.535V339.5h3.535v-6.382A3.535,3.535,0,0,0,437.323,329.58Z" transform="translate(-422.005 -309.077)" fill="#cb97e7"/>
          <path id="Path_1043676" data-name="Path 1043676" d="M377.992,306.38h0v-3.064h-3.771v3.064h-3.064a4.949,4.949,0,0,0,9.9,0Z" transform="translate(-366.68 -285.876)" fill="#f6a96c"/>
          <path id="Path_1043677" data-name="Path 1043677" d="M371.158,216.442v6.363a4.949,4.949,0,0,0,4.949,4.949h0a4.949,4.949,0,0,0,4.949-4.949v-6.363Z" transform="translate(-366.68 -209.136)" fill="#fed2a4"/>
          <path id="Path_1043678" data-name="Path 1043678" d="M401.615,216.442v6.363a4.95,4.95,0,0,1-3.181,4.623,4.935,4.935,0,0,0,1.767.326h0a4.949,4.949,0,0,0,4.949-4.949v-6.363Z" transform="translate(-390.774 -209.136)" fill="#ffbd86"/>
          <path id="Path_1043679" data-name="Path 1043679" d="M356.88,163.474a2.941,2.941,0,0,0,2.176-1.178v1.178c2.7-.307,2.773-2.357,2.773-2.357s.075,2.05,2.773,2.357V162.3a2.941,2.941,0,0,0,2.176,1.178l1.885,1.885v-4.713a6.834,6.834,0,0,0-6.834-6.834h0A6.834,6.834,0,0,0,355,160.646v4.713Z" transform="translate(-352.403 -153.812)" fill="#4f66d0"/>
          <path id="Path_1043680" data-name="Path 1043680" d="M400.2,153.812h0a6.841,6.841,0,0,0-1.768.232,6.836,6.836,0,0,1,5.067,6.6v2.192a3.216,3.216,0,0,0,1.65.636l1.885,1.885v-4.713A6.834,6.834,0,0,0,400.2,153.812Z" transform="translate(-390.774 -153.812)" fill="#314dc9"/>
          <path id="Path_1043681" data-name="Path 1043681" d="M457.189,240.417h-1.178v-3.771h1.178a1.885,1.885,0,0,1,1.885,1.885h0A1.885,1.885,0,0,1,457.189,240.417Z" transform="translate(-441.635 -226.984)" fill="#f6a96c"/>
          <path id="Path_1043682" data-name="Path 1043682" d="M346.778,240.417h1.178v-3.771h-1.178a1.885,1.885,0,0,0-1.885,1.885h0A1.886,1.886,0,0,0,346.778,240.417Z" transform="translate(-343.479 -226.984)" fill="#f6a96c"/>
        </g>
        <g id="Group_1203093" data-name="Group 1203093" transform="translate(27.414 16.927)">
          <circle id="Ellipse_12607" data-name="Ellipse 12607" cx="9.073" cy="9.073" r="9.073" transform="translate(0 0)" fill="#fe93d3"/>
          <path id="Path_1043683" data-name="Path 1043683" d="M201.37,99.046a9.072,9.072,0,0,1-12.419,12.419A9.073,9.073,0,1,0,201.37,99.046Z" transform="translate(-187.699 -97.794)" fill="#fe73c5"/>
        </g>
        <line id="Line_1146" data-name="Line 1146" x1="1.178" y1="6.717" transform="translate(45.443 58.758)" fill="none" stroke="#000" stroke-linecap="round" stroke-linejoin="round" stroke-miterlimit="10" stroke-width="1"/>
        <line id="Line_1147" data-name="Line 1147" x1="1.178" y2="6.717" transform="translate(63.118 58.758)" fill="none" stroke="#000" stroke-linecap="round" stroke-linejoin="round" stroke-miterlimit="10" stroke-width="1"/>
        <line id="Line_1148" data-name="Line 1148" x1="1.178" y1="6.717" transform="translate(8.678 58.758)" fill="none" stroke="#000" stroke-linecap="round" stroke-linejoin="round" stroke-miterlimit="10" stroke-width="1"/>
        <line id="Line_1149" data-name="Line 1149" x1="1.178" y2="6.717" transform="translate(26.354 58.758)" fill="none" stroke="#000" stroke-linecap="round" stroke-linejoin="round" stroke-miterlimit="10" stroke-width="1"/>
        <line id="Line_1150" data-name="Line 1150" x1="12.726" transform="translate(49.213 11.035)" fill="none" stroke="#000" stroke-linecap="round" stroke-linejoin="round" stroke-miterlimit="10" stroke-width="1"/>
        <line id="Line_1151" data-name="Line 1151" x1="2.357" transform="translate(43.086 11.035)" fill="none" stroke="#000" stroke-linecap="round" stroke-linejoin="round" stroke-miterlimit="10" stroke-width="1"/>
        <line id="Line_1152" data-name="Line 1152" x1="12.49" transform="translate(43.086 14.57)" fill="none" stroke="#000" stroke-linecap="round" stroke-linejoin="round" stroke-miterlimit="10" stroke-width="1"/>
        <path id="Path_1043684" data-name="Path 1043684" d="M282.26,17.457V9.385A1.885,1.885,0,0,1,284.146,7.5h9.506" transform="translate(-242.71 0)" fill="none" stroke="#000" stroke-linecap="round" stroke-linejoin="round" stroke-miterlimit="10" stroke-width="1"/>
        <path id="Path_1043685" data-name="Path 1043685" d="M328.961,7.5h8.564a1.884,1.884,0,0,1,1.885,1.885v9.192a1.884,1.884,0,0,1-1.885,1.885h-1.178v1.523a.834.834,0,0,1-1.423.589l-2.112-2.113h-15.2" transform="translate(-273.936)" fill="none" stroke="#000" stroke-linecap="round" stroke-linejoin="round" stroke-miterlimit="10" stroke-width="1"/>
        <line id="Line_1153" data-name="Line 1153" x1="12.726" transform="translate(17.162 11.035)" fill="none" stroke="#000" stroke-linecap="round" stroke-linejoin="round" stroke-miterlimit="10" stroke-width="1"/>
        <line id="Line_1154" data-name="Line 1154" x1="2.357" transform="translate(11.035 11.035)" fill="none" stroke="#000" stroke-linecap="round" stroke-linejoin="round" stroke-miterlimit="10" stroke-width="1"/>
        <line id="Line_1155" data-name="Line 1155" x1="12.49" transform="translate(11.035 14.57)" fill="none" stroke="#000" stroke-linecap="round" stroke-linejoin="round" stroke-miterlimit="10" stroke-width="1"/>
        <path id="Path_1043686" data-name="Path 1043686" d="M33.424,17.457V9.385A1.885,1.885,0,0,0,31.538,7.5H9.385A1.885,1.885,0,0,0,7.5,9.385v9.191a1.885,1.885,0,0,0,1.885,1.885h1.178v1.524a.833.833,0,0,0,1.422.589L14.1,20.462H29.3" fill="none" stroke="#000" stroke-linecap="round" stroke-linejoin="round" stroke-miterlimit="10" stroke-width="1"/>
        <path id="Path_1043687" data-name="Path 1043687" d="M28.914,329.58h4.006a3.535,3.535,0,0,1,3.535,3.535V339.5H17.6v-6.382a3.535,3.535,0,0,1,3.535-3.535h4.006" transform="translate(-8.924 -284.51)" fill="none" stroke="#000" stroke-linecap="round" stroke-linejoin="round" stroke-miterlimit="10" stroke-width="1"/>
        <path id="Path_1043688" data-name="Path 1043688" d="M86.022,310.37v2.241a1.885,1.885,0,0,1-1.885,1.885h0a1.885,1.885,0,0,1-1.885-1.885V310.37" transform="translate(-66.031 -267.54)" fill="none" stroke="#000" stroke-linecap="round" stroke-linejoin="round" stroke-miterlimit="10" stroke-width="1"/>
        <path id="Path_1043689" data-name="Path 1043689" d="M55.988,236.645v4.006a4.949,4.949,0,0,0,4.949,4.949h0a4.949,4.949,0,0,0,4.949-4.949v-4.006" transform="translate(-42.832 -202.415)" fill="none" stroke="#000" stroke-linecap="round" stroke-linejoin="round" stroke-miterlimit="10" stroke-width="1"/>
        <path id="Path_1043690" data-name="Path 1043690" d="M53.495,163.474v-2.828a6.834,6.834,0,0,0-6.834-6.834h0a6.834,6.834,0,0,0-6.834,6.834v2.828" transform="translate(-28.555 -129.245)" fill="none" stroke="#000" stroke-linecap="round" stroke-linejoin="round" stroke-miterlimit="10" stroke-width="1"/>
        <path id="Path_1043691" data-name="Path 1043691" d="M55.988,218.8h0a6.585,6.585,0,0,0,3.9-1.178V218.8a4.808,4.808,0,0,0,3.716-2.357,3.573,3.573,0,0,0,2.279,2.357" transform="translate(-42.832 -184.569)" fill="none" stroke="#000" stroke-linecap="round" stroke-linejoin="round" stroke-miterlimit="10" stroke-width="1"/>
        <path id="Path_1043692" data-name="Path 1043692" d="M142.019,240.417h-1.178v-3.771h1.178a1.885,1.885,0,0,1,1.885,1.885h0A1.885,1.885,0,0,1,142.019,240.417Z" transform="translate(-117.787 -202.416)" fill="none" stroke="#000" stroke-linecap="round" stroke-linejoin="round" stroke-miterlimit="10" stroke-width="1"/>
        <path id="Path_1043693" data-name="Path 1043693" d="M31.608,240.417h1.178v-3.771H31.608a1.885,1.885,0,0,0-1.885,1.885h0A1.886,1.886,0,0,0,31.608,240.417Z" transform="translate(-19.631 -202.416)" fill="none" stroke="#000" stroke-linecap="round" stroke-linejoin="round" stroke-miterlimit="10" stroke-width="1"/>
        <line id="Line_1156" data-name="Line 1156" y1="2.357" transform="translate(12.213 52.631)" fill="none" stroke="#000" stroke-linecap="round" stroke-linejoin="round" stroke-miterlimit="10" stroke-width="1"/>
        <line id="Line_1157" data-name="Line 1157" y1="2.357" transform="translate(23.997 52.631)" fill="none" stroke="#000" stroke-linecap="round" stroke-linejoin="round" stroke-miterlimit="10" stroke-width="1"/>
        <path id="Path_1043694" data-name="Path 1043694" d="M338.4,266.758a8.593,8.593,0,0,1-1.637,2.935,1.179,1.179,0,0,0,.242,1.732,15.718,15.718,0,0,0,6.592,2.535" transform="translate(-290.615 -229.016)" fill="none" stroke="#000" stroke-linecap="round" stroke-linejoin="round" stroke-miterlimit="10" stroke-width="1"/>
        <path id="Path_1043695" data-name="Path 1043695" d="M434.944,266.758a8.593,8.593,0,0,0,1.637,2.935,1.18,1.18,0,0,1-.242,1.732,15.718,15.718,0,0,1-6.592,2.535" transform="translate(-372.993 -229.016)" fill="none" stroke="#000" stroke-linecap="round" stroke-linejoin="round" stroke-miterlimit="10" stroke-width="1"/>
        <path id="Path_1043696" data-name="Path 1043696" d="M377.992,311.236v2.14h3.064a4.949,4.949,0,1,1-9.9,0h3.064v-2.14" transform="translate(-321.238 -268.305)" fill="none" stroke="#000" stroke-linecap="round" stroke-linejoin="round" stroke-miterlimit="10" stroke-width="1"/>
        <path id="Path_1043697" data-name="Path 1043697" d="M347.148,329.58h.943a3.535,3.535,0,0,1,3.535,3.535V339.5H332.772v-6.382a3.535,3.535,0,0,1,3.535-3.535h.943" transform="translate(-287.329 -284.51)" fill="none" stroke="#000" stroke-linecap="round" stroke-linejoin="round" stroke-miterlimit="10" stroke-width="1"/>
        <path id="Path_1043698" data-name="Path 1043698" d="M371.158,236.645v4.006a4.949,4.949,0,0,0,4.949,4.949h0a4.949,4.949,0,0,0,4.949-4.949v-4.006" transform="translate(-321.238 -202.415)" fill="none" stroke="#000" stroke-linecap="round" stroke-linejoin="round" stroke-miterlimit="10" stroke-width="1"/>
        <path id="Path_1043699" data-name="Path 1043699" d="M368.665,163.474v-2.828a6.834,6.834,0,0,0-6.834-6.834h0A6.834,6.834,0,0,0,355,160.646v2.828" transform="translate(-306.961 -129.245)" fill="none" stroke="#000" stroke-linecap="round" stroke-linejoin="round" stroke-miterlimit="10" stroke-width="1"/>
        <path id="Path_1043700" data-name="Path 1043700" d="M381.058,218.8a2.941,2.941,0,0,1-2.176-1.178V218.8c-2.7-.307-2.773-2.357-2.773-2.357s-.075,2.05-2.773,2.357V217.62a2.941,2.941,0,0,1-2.176,1.178" transform="translate(-321.239 -184.569)" fill="none" stroke="#000" stroke-linecap="round" stroke-linejoin="round" stroke-miterlimit="10" stroke-width="1"/>
        <path id="Path_1043701" data-name="Path 1043701" d="M457.189,240.417h-1.178v-3.771h1.178a1.885,1.885,0,0,1,1.885,1.885h0A1.885,1.885,0,0,1,457.189,240.417Z" transform="translate(-396.193 -202.416)" fill="none" stroke="#000" stroke-linecap="round" stroke-linejoin="round" stroke-miterlimit="10" stroke-width="1"/>
        <path id="Path_1043702" data-name="Path 1043702" d="M346.778,240.417h1.178v-3.771h-1.178a1.885,1.885,0,0,0-1.885,1.885h0A1.886,1.886,0,0,0,346.778,240.417Z" transform="translate(-298.036 -202.416)" fill="none" stroke="#000" stroke-linecap="round" stroke-linejoin="round" stroke-miterlimit="10" stroke-width="1"/>
        <line id="Line_1158" data-name="Line 1158" y1="2.357" transform="translate(50.156 52.631)" fill="none" stroke="#000" stroke-linecap="round" stroke-linejoin="round" stroke-miterlimit="10" stroke-width="1"/>
        <line id="Line_1159" data-name="Line 1159" y1="2.357" transform="translate(59.583 52.631)" fill="none" stroke="#000" stroke-linecap="round" stroke-linejoin="round" stroke-miterlimit="10" stroke-width="1"/>
        <g id="Group_1203096" data-name="Group 1203096" transform="translate(30.978 23.408)">
          <g id="Group_1203094" data-name="Group 1203094" transform="translate(6.894 0)">
            <path id="Path_1043703" data-name="Path 1043703" d="M271.79,144.538a2.977,2.977,0,0,0-2.483-.553c-1.208.447-1.449,1.867-.514,2.376a14.23,14.23,0,0,0,1.847.749c2.338.863,1.331,3.125-.551,3.125a3,3,0,0,1-2.213-.941" transform="translate(-267.876 -143.872)" fill="none" stroke="#000" stroke-linecap="round" stroke-linejoin="round" stroke-miterlimit="10" stroke-width="1"/>
          </g>
          <g id="Group_1203095" data-name="Group 1203095">
            <path id="Path_1043704" data-name="Path 1043704" d="M208.774,143.872l2.262,6.363,2.262-6.351" transform="translate(-208.774 -143.872)" fill="none" stroke="#000" stroke-linecap="round" stroke-linejoin="round" stroke-miterlimit="10" stroke-width="1"/>
          </g>
        </g>
        <circle id="Ellipse_12608" data-name="Ellipse 12608" cx="9.073" cy="9.073" r="9.073" transform="translate(27.414 16.927)" fill="none" stroke="#000" stroke-linecap="round" stroke-linejoin="round" stroke-miterlimit="10" stroke-width="1"/>
        <path id="Path_1043705" data-name="Path 1043705" d="M15.433,418.37H27.768a.943.943,0,0,0,.943-.942v-1.885a.942.942,0,0,0-.943-.943H8.443a.942.942,0,0,0-.943.943v1.885a.943.943,0,0,0,.943.942h2.908" transform="translate(0 -359.612)" fill="none" stroke="#000" stroke-linecap="round" stroke-linejoin="round" stroke-miterlimit="10" stroke-width="1"/>
        <path id="Path_1043706" data-name="Path 1043706" d="M340.03,418.37h2.908a.943.943,0,0,0,.943-.942v-1.885a.942.942,0,0,0-.943-.943H323.613a.942.942,0,0,0-.943.943v1.885a.943.943,0,0,0,.943.942h12.334" transform="translate(-278.406 -359.612)" fill="none" stroke="#000" stroke-linecap="round" stroke-linejoin="round" stroke-miterlimit="10" stroke-width="1"/>
      </g>
    </g>
  </g>
</svg>
