<svg xmlns="http://www.w3.org/2000/svg" xmlns:xlink="http://www.w3.org/1999/xlink" width="113" height="113" viewBox="0 0 113 113">
  <defs>
    <filter id="Path_982547" x="0" y="0" width="113" height="113" filterUnits="userSpaceOnUse">
      <feOffset dy="3" input="SourceAlpha"/>
      <feGaussianBlur stdDeviation="3" result="blur"/>
      <feFlood flood-opacity="0.161"/>
      <feComposite operator="in" in2="blur"/>
      <feComposite in="SourceGraphic"/>
    </filter>
  </defs>
  <g id="Group_1203538" data-name="Group 1203538" transform="translate(-272 -2138.596)">
    <g id="Group_1203047" data-name="Group 1203047">
      <g id="Group_1202589" data-name="Group 1202589" transform="translate(281 2144.596)">
        <g id="Group_1172010" data-name="Group 1172010" transform="translate(0)">
          <g id="Group_1171046" data-name="Group 1171046">
            <g id="Group_1148525" data-name="Group 1148525">
              <g transform="matrix(1, 0, 0, 1, -9, -6)" filter="url(#Path_982547)">
                <g id="Path_982547-2" data-name="Path 982547" transform="translate(9 6)" fill="#f4f4fd">
                  <path d="M 47.5 93.5 C 41.28937149047852 93.5 35.26533508300781 92.28397369384766 29.59518623352051 89.88570404052734 C 24.11771965026855 87.56893157958984 19.19813346862793 84.25196075439453 14.97309303283691 80.02691650390625 C 10.74804019927979 75.80186462402344 7.431066513061523 70.88229370117188 5.114293098449707 65.40481567382812 C 2.716026782989502 59.73468017578125 1.5 53.71062850952148 1.5 47.5 C 1.5 41.28937149047852 2.716026782989502 35.26533508300781 5.114293098449707 29.59518623352051 C 7.431066513061523 24.11771965026855 10.74804019927979 19.19813346862793 14.97309303283691 14.97309303283691 C 19.19813346862793 10.74804019927979 24.11771965026855 7.431066513061523 29.59518623352051 5.114293098449707 C 35.26533508300781 2.716026782989502 41.28937149047852 1.5 47.5 1.5 C 53.71062850952148 1.5 59.73468017578125 2.716026782989502 65.40481567382812 5.114293098449707 C 70.88229370117188 7.431066513061523 75.80186462402344 10.74804019927979 80.02691650390625 14.97309303283691 C 84.25196075439453 19.19813346862793 87.56893157958984 24.11771965026855 89.88570404052734 29.59518623352051 C 92.28397369384766 35.26533508300781 93.5 41.28937149047852 93.5 47.5 C 93.5 53.71062850952148 92.28397369384766 59.73468017578125 89.88570404052734 65.40481567382812 C 87.56893157958984 70.88229370117188 84.25196075439453 75.80186462402344 80.02691650390625 80.02691650390625 C 75.80186462402344 84.25196075439453 70.88229370117188 87.56893157958984 65.40481567382812 89.88570404052734 C 59.73468017578125 92.28397369384766 53.71062850952148 93.5 47.5 93.5 Z" stroke="none"/>
                  <path d="M 47.5 3 C 41.49121475219727 3 35.66376876831055 4.176155090332031 30.17950439453125 6.495796203613281 C 24.88084411621094 8.736953735351562 20.12152099609375 11.94598388671875 16.03375244140625 16.03375244140625 C 11.94598388671875 20.12152099609375 8.736953735351562 24.88084411621094 6.495796203613281 30.17950439453125 C 4.176155090332031 35.66376876831055 3 41.49121475219727 3 47.5 C 3 53.50878524780273 4.176155090332031 59.33623123168945 6.495796203613281 64.82049560546875 C 8.736953735351562 70.11915588378906 11.94598388671875 74.87847900390625 16.03375244140625 78.96624755859375 C 20.12152099609375 83.05401611328125 24.88084411621094 86.26304626464844 30.17950439453125 88.50419616699219 C 35.66376876831055 90.82384490966797 41.49121475219727 92 47.5 92 C 53.50878524780273 92 59.33623123168945 90.82384490966797 64.82049560546875 88.50419616699219 C 70.11915588378906 86.26304626464844 74.87847900390625 83.05401611328125 78.96624755859375 78.96624755859375 C 83.05401611328125 74.87847900390625 86.26304626464844 70.11915588378906 88.50419616699219 64.82049560546875 C 90.82384490966797 59.33623123168945 92 53.50878524780273 92 47.5 C 92 41.49121475219727 90.82384490966797 35.66376876831055 88.50419616699219 30.17950439453125 C 86.26304626464844 24.88084411621094 83.05401611328125 20.12152099609375 78.96624755859375 16.03375244140625 C 74.87847900390625 11.94598388671875 70.11915588378906 8.736953735351562 64.82049560546875 6.495796203613281 C 59.33623123168945 4.176155090332031 53.50878524780273 3 47.5 3 M 47.5 0 C 73.7335205078125 0 95 21.2664794921875 95 47.5 C 95 73.7335205078125 73.7335205078125 95 47.5 95 C 21.2664794921875 95 0 73.7335205078125 0 47.5 C 0 21.2664794921875 21.2664794921875 0 47.5 0 Z" stroke="none" fill="#6f6e88"/>
                </g>
              </g>
            </g>
          </g>
        </g>
      </g>
      <g id="decision_6193699" transform="translate(296.347 2162.204)">
        <g id="Group_1203045" data-name="Group 1203045" transform="translate(-1.691 -4.23)">
          <path id="Path_1043584" data-name="Path 1043584" d="M60.44,86.842a9.271,9.271,0,0,1-3.8-.809v6.315a3.8,3.8,0,1,0,7.593,0V86.034A9.273,9.273,0,0,1,60.44,86.842Z" transform="translate(-26.538 -39.45)" fill="#fdbdb1"/>
          <path id="Path_1043585" data-name="Path 1043585" d="M61.119,50.68h0v1.387A2.077,2.077,0,0,0,63.2,54.144H64.58V52.068a9.313,9.313,0,1,0-18.625,0v2.077h5.68a14.719,14.719,0,0,0,9.482-3.462Z" transform="translate(-21.366 -18.507)" fill="#97de3d"/>
          <path id="Path_1043586" data-name="Path 1043586" d="M62.477,61.573h-2.72A2.077,2.077,0,0,1,57.681,59.5V58.112A14.72,14.72,0,0,1,48.2,61.573H41.182a2.332,2.332,0,1,0,0,4.663h1.6a9.313,9.313,0,0,0,18.09,0h1.6a2.332,2.332,0,1,0,0-4.663Z" transform="translate(-17.928 -25.939)" fill="#ffdbca"/>
          <path id="Path_1043587" data-name="Path 1043587" d="M81.51,69.392H79.92a.9.9,0,1,1,0-1.806h1.59a.9.9,0,0,1,0,1.806Z" transform="translate(-37.365 -30.523)" fill="#fdbdb1"/>
          <path id="Path_1043588" data-name="Path 1043588" d="M44.9,69.392h-1.59a.9.9,0,0,1,0-1.806H44.9a.9.9,0,1,1,0,1.806Z" transform="translate(-19.647 -30.523)" fill="#fdbdb1"/>
          <path id="Path_1043589" data-name="Path 1043589" d="M60.09,76.306a4.175,4.175,0,0,1-4.17-4.17.9.9,0,1,1,1.806,0,2.364,2.364,0,1,0,4.727,0,.9.9,0,1,1,1.806,0A4.175,4.175,0,0,1,60.09,76.306Z" transform="translate(-26.188 -32.288)" fill="#fdbdb1"/>
          <path id="Path_1043590" data-name="Path 1043590" d="M65.136,104.19v7.029H28.66V104.19a9,9,0,0,1,9-9H43.1v1.59a3.8,3.8,0,1,0,7.6,0V95.19h5.439a9,9,0,0,1,9,9Z" transform="translate(-12.996 -43.882)" fill="#ff641a"/>
          <circle id="Ellipse_12603" data-name="Ellipse 12603" cx="8.455" cy="8.455" r="8.455" transform="translate(22.363 8.404) rotate(-29.801)" fill="#474f54"/>
          <path id="Path_1043591" data-name="Path 1043591" d="M64.213,11.076a2.454,2.454,0,0,0-2.451-2.451H58.278a.9.9,0,0,0-.9.9v8a.9.9,0,0,0,.9.9h3.484a2.454,2.454,0,0,0,2.451-2.451v-.906a2.429,2.429,0,0,0-.568-1.548,2.426,2.426,0,0,0,.568-1.548Zm-5.032-.645h2.58a.646.646,0,0,1,.645.645v.906a.646.646,0,0,1-.645.645h-2.58Zm3.225,5.554a.646.646,0,0,1-.645.645h-2.58v-2.2h2.58a.646.646,0,0,1,.645.645Z" transform="translate(-26.892 -1.991)" fill="#97de3d"/>
          <circle id="Ellipse_12604" data-name="Ellipse 12604" cx="8.455" cy="8.455" r="8.455" transform="translate(47.456 29.764) rotate(-77.216)" fill="#6aa9ff"/>
          <path id="Path_1043592" data-name="Path 1043592" d="M109.177,41.4h-2.967a2.971,2.971,0,0,1-2.967-2.967V34.553a2.971,2.971,0,0,1,2.967-2.967h2.967a.9.9,0,0,1,0,1.806h-2.967a1.163,1.163,0,0,0-1.161,1.161V38.43a1.163,1.163,0,0,0,1.161,1.161h2.967a.9.9,0,0,1,0,1.806Z" transform="translate(-49.088 -13.102)" fill="#fff5f5"/>
          <circle id="Ellipse_12605" data-name="Ellipse 12605" cx="8.455" cy="8.455" r="8.455" transform="matrix(0.971, -0.239, 0.239, 0.971, 0, 17.201)" fill="#fed843"/>
          <path id="Path_1043593" data-name="Path 1043593" d="M15.379,31.586h-.9a2.971,2.971,0,0,0-2.967,2.967v5.941a.9.9,0,0,0,1.806,0V38.251H16.54v2.243a.9.9,0,0,0,1.806,0V34.553A2.971,2.971,0,0,0,15.379,31.586Zm-2.064,4.858V34.553a1.163,1.163,0,0,1,1.161-1.161h.9a1.163,1.163,0,0,1,1.161,1.161v1.891Z" transform="translate(-4.696 -13.102)" fill="#ff641a"/>
          <path id="Path_1043594" data-name="Path 1043594" d="M88.5,112.573v6.621H86.69v-6.621a.9.9,0,0,1,1.806,0Z" transform="translate(-41.078 -51.857)" fill="#f03800"/>
          <path id="Path_1043595" data-name="Path 1043595" d="M39.616,112.573v6.621H37.81v-6.621a.9.9,0,0,1,1.806,0Z" transform="translate(-17.424 -51.857)" fill="#f03800"/>
        </g>
        <g id="Group_1203046" data-name="Group 1203046" transform="translate(-0.819 -2.051)">
          <path id="Path_1043596" data-name="Path 1043596" d="M79.92,69.392h1.59a.9.9,0,0,0,0-1.806H79.92a.9.9,0,1,0,0,1.806Z" transform="translate(-38.237 -32.702)"/>
          <path id="Path_1043597" data-name="Path 1043597" d="M44.9,67.586h-1.59a.9.9,0,0,0,0,1.806H44.9a.9.9,0,1,0,0-1.806Z" transform="translate(-20.519 -32.702)"/>
          <path id="Path_1043598" data-name="Path 1043598" d="M60.09,76.306a4.175,4.175,0,0,0,4.169-4.17.9.9,0,1,0-1.806,0,2.364,2.364,0,1,1-4.727,0,.9.9,0,1,0-1.806,0A4.175,4.175,0,0,0,60.09,76.306Z" transform="translate(-27.06 -34.467)"/>
          <path id="Path_1043599" data-name="Path 1043599" d="M55.291,68.278H50.752V65.031a10.179,10.179,0,0,0,5.029-5.959H56.7a3.235,3.235,0,1,0,0-6.469h-.429V51.434a10.218,10.218,0,0,0-20.432,0v1.174h-.432a3.235,3.235,0,1,0,0,6.469h.919a10.179,10.179,0,0,0,5.029,5.958v3.247H36.815a9.913,9.913,0,0,0-9.9,9.9v7.029a.9.9,0,0,0,.9.9H36.8a.9.9,0,1,0,0-1.806H34.345V78.591a.9.9,0,0,0-1.806,0v5.717H28.719V78.182a8.105,8.105,0,0,1,8.1-8.1h4.537v.687a4.7,4.7,0,0,0,9.4,0v-.687h4.539a8.105,8.105,0,0,1,8.1,8.1v6.127H59.567V78.591a.9.9,0,0,0-1.806,0v5.717H48.774a.9.9,0,0,0,0,1.806H64.289a.9.9,0,0,0,.9-.9V78.182a9.913,9.913,0,0,0-9.9-9.9ZM46.053,43.022a8.419,8.419,0,0,1,8.412,8.412v1.174h-.482a1.175,1.175,0,0,1-1.176-1.174V50.046a.9.9,0,0,0-1.485-.691,13.839,13.839,0,0,1-8.9,3.251H37.643V51.434A8.419,8.419,0,0,1,46.053,43.022ZM37.885,57.956a.9.9,0,0,0-.877-.689h-1.6a1.428,1.428,0,1,1,0-2.857h7.016a15.65,15.65,0,0,0,8.607-2.584,2.984,2.984,0,0,0,2.954,2.584H56.7a1.428,1.428,0,1,1,0,2.857H55.1a.9.9,0,0,0-.877.689,8.379,8.379,0,0,1-4.71,5.667,8.543,8.543,0,0,1-6.915,0A8.379,8.379,0,0,1,37.885,57.956ZM48.946,70.771a2.893,2.893,0,1,1-5.786,0V65.752a10.406,10.406,0,0,0,5.786,0Z" transform="translate(-13.023 -20.051)"/>
          <path id="Path_1043600" data-name="Path 1043600" d="M56.9,124.5H54.338a.9.9,0,1,0,0,1.806H56.9a.9.9,0,1,0,0-1.806Z" transform="translate(-25.858 -60.244)"/>
          <path id="Path_1043601" data-name="Path 1043601" d="M55.225,18.711a9.334,9.334,0,0,0,9.221-7.756.9.9,0,1,0-1.78-.31,7.55,7.55,0,1,1-.483-4.235.9.9,0,1,0,1.663-.7,9.359,9.359,0,1,0-8.622,13Z" transform="translate(-22.196 0.009)"/>
          <path id="Path_1043602" data-name="Path 1043602" d="M64.213,11.076a2.454,2.454,0,0,0-2.451-2.451H58.278a.9.9,0,0,0-.9.9v8a.9.9,0,0,0,.9.9h3.484a2.454,2.454,0,0,0,2.451-2.451v-.906a2.429,2.429,0,0,0-.568-1.548,2.426,2.426,0,0,0,.568-1.548Zm-5.032-.645h2.58a.646.646,0,0,1,.645.645v.906a.646.646,0,0,1-.645.645h-2.58Zm3.225,5.554a.646.646,0,0,1-.645.645h-2.58v-2.2h2.58a.646.646,0,0,1,.645.645Z" transform="translate(-27.764 -4.169)"/>
          <path id="Path_1043603" data-name="Path 1043603" d="M101.091,22.958a9.359,9.359,0,1,0,9.358,9.358A9.359,9.359,0,0,0,101.091,22.958Zm0,16.91a7.552,7.552,0,1,1,7.552-7.552A7.552,7.552,0,0,1,101.091,39.868Z" transform="translate(-44.39 -11.105)"/>
          <path id="Path_1043604" data-name="Path 1043604" d="M106.209,33.392h2.967a.9.9,0,0,0,0-1.806h-2.967a2.971,2.971,0,0,0-2.967,2.967V38.43a2.971,2.971,0,0,0,2.967,2.967h2.967a.9.9,0,0,0,0-1.806h-2.967a1.163,1.163,0,0,1-1.161-1.161V34.553A1.163,1.163,0,0,1,106.209,33.392Z" transform="translate(-49.96 -15.281)"/>
          <path id="Path_1043605" data-name="Path 1043605" d="M18.716,32.316a9.359,9.359,0,1,0-9.358,9.358A9.359,9.359,0,0,0,18.716,32.316ZM9.358,39.868a7.552,7.552,0,1,1,7.552-7.552A7.552,7.552,0,0,1,9.358,39.868Z" transform="translate(0.001 -11.105)"/>
          <path id="Path_1043606" data-name="Path 1043606" d="M15.379,31.586h-.9a2.971,2.971,0,0,0-2.967,2.967v5.941a.9.9,0,0,0,1.806,0V38.251H16.54v2.243a.9.9,0,0,0,1.806,0V34.553A2.971,2.971,0,0,0,15.379,31.586Zm-2.064,4.858V34.553a1.163,1.163,0,0,1,1.161-1.161h.9a1.163,1.163,0,0,1,1.161,1.161v1.891Z" transform="translate(-5.568 -15.281)"/>
        </g>
      </g>
    </g>
  </g>
</svg>
