<svg xmlns="http://www.w3.org/2000/svg" width="35.378" height="36.056" viewBox="0 0 35.378 36.056">
  <g id="Group_1203543" data-name="Group 1203543" transform="translate(-295.366 -5658.187)">
    <g id="artificial-intelligence_900961" transform="translate(290.553 5658.187)">
      <g id="Group_1202599" data-name="Group 1202599" transform="translate(8.568 16.547)">
        <g id="Group_1202598" data-name="Group 1202598">
          <path id="Path_1042048" data-name="Path 1042048" d="M62.463,237.238H60.948A1.749,1.749,0,0,1,59.2,235.5a.528.528,0,0,0-1.056,0,2.807,2.807,0,0,0,2.809,2.8h1.515a.528.528,0,1,0,0-1.056Z" transform="translate(-58.139 -234.968)"/>
        </g>
      </g>
      <g id="Group_1202601" data-name="Group 1202601" transform="translate(10.641 22.725)">
        <g id="Group_1202600" data-name="Group 1202600">
          <path id="Path_1042049" data-name="Path 1042049" d="M94.781,322.708H90.269a2.7,2.7,0,0,0-2.7,2.692.528.528,0,1,0,1.056,0,1.643,1.643,0,0,1,1.646-1.636h4.512a.528.528,0,1,0,0-1.056Z" transform="translate(-87.566 -322.708)"/>
        </g>
      </g>
      <g id="Group_1202603" data-name="Group 1202603" transform="translate(19.44 22.725)">
        <g id="Group_1202602" data-name="Group 1202602">
          <path id="Path_1042050" data-name="Path 1042050" d="M215.237,322.708h-2.191a.528.528,0,1,0,0,1.056h2.191a.528.528,0,1,0,0-1.056Z" transform="translate(-212.518 -322.708)"/>
        </g>
      </g>
      <g id="Group_1202605" data-name="Group 1202605" transform="translate(14.634 12.463)">
        <g id="Group_1202604" data-name="Group 1202604">
          <path id="Path_1042051" data-name="Path 1042051" d="M148.081,176.977a.528.528,0,0,0-.528.528,2.75,2.75,0,0,1-2.755,2.739.528.528,0,1,0,0,1.056,3.808,3.808,0,0,0,3.811-3.8A.528.528,0,0,0,148.081,176.977Z" transform="translate(-144.27 -176.977)"/>
        </g>
      </g>
      <g id="Group_1202607" data-name="Group 1202607" transform="translate(15.033 4.474)">
        <g id="Group_1202606" data-name="Group 1202606">
          <path id="Path_1042052" data-name="Path 1042052" d="M152.377,63.533a2.294,2.294,0,0,0-2.437,2.133.528.528,0,0,0,.493.561h.035a.528.528,0,0,0,.527-.494,1.237,1.237,0,0,1,1.315-1.148.528.528,0,0,0,.068-1.054Z" transform="translate(-149.939 -63.528)"/>
        </g>
      </g>
      <g id="Group_1202609" data-name="Group 1202609" transform="translate(15.167 25.077)">
        <g id="Group_1202608" data-name="Group 1202608">
          <path id="Path_1042053" data-name="Path 1042053" d="M152.372,356.1a.528.528,0,0,0,0,1.056,1.571,1.571,0,1,1,0,3.143.528.528,0,1,0,0,1.056,2.628,2.628,0,1,0,0-5.255Z" transform="translate(-151.844 -356.104)"/>
        </g>
      </g>
      <g id="Group_1202611" data-name="Group 1202611" transform="translate(20.572 12.64)">
        <g id="Group_1202610" data-name="Group 1202610">
          <path id="Path_1042054" data-name="Path 1042054" d="M229.128,179.493a.528.528,0,0,0,0,1.056,1.262,1.262,0,1,1,0,2.524.528.528,0,0,0,0,1.056,2.318,2.318,0,1,0,0-4.636Z" transform="translate(-228.6 -179.493)"/>
        </g>
      </g>
      <g id="Group_1202613" data-name="Group 1202613" transform="translate(11.268 9.282)">
        <g id="Group_1202612" data-name="Group 1202612">
          <path id="Path_1042055" data-name="Path 1042055" d="M97.009,131.807a.528.528,0,1,0,0,1.056,2.17,2.17,0,1,1,0,4.339.528.528,0,1,0,0,1.056,3.226,3.226,0,1,0,0-6.452Z" transform="translate(-96.481 -131.807)"/>
        </g>
      </g>
      <g id="Group_1202615" data-name="Group 1202615" transform="translate(34.825 9.258)">
        <g id="Group_1202614" data-name="Group 1202614">
          <path id="Path_1042056" data-name="Path 1042056" d="M432.8,131.467a1.794,1.794,0,1,0,1.8,1.794A1.8,1.8,0,0,0,432.8,131.467Zm0,2.532a.738.738,0,1,1,.744-.738A.742.742,0,0,1,432.8,134Z" transform="translate(-430.996 -131.467)"/>
        </g>
      </g>
      <g id="Group_1202617" data-name="Group 1202617" transform="translate(36.59 22.775)">
        <g id="Group_1202616" data-name="Group 1202616">
          <path id="Path_1042057" data-name="Path 1042057" d="M457.856,323.418a1.794,1.794,0,1,0,1.8,1.794A1.8,1.8,0,0,0,457.856,323.418Zm0,2.532a.738.738,0,1,1,.744-.738A.742.742,0,0,1,457.856,325.95Z" transform="translate(-456.056 -323.418)"/>
        </g>
      </g>
      <g id="Group_1202619" data-name="Group 1202619" transform="translate(34.509 15.477)">
        <g id="Group_1202618" data-name="Group 1202618">
          <path id="Path_1042058" data-name="Path 1042058" d="M429.272,220.748a1.794,1.794,0,0,0-.844.21l-1.03-1.024a.528.528,0,0,0-.745.749l1.027,1.022a1.778,1.778,0,0,0-.209.838,1.8,1.8,0,1,0,1.8-1.794Zm0,2.532a.738.738,0,1,1,.744-.738A.742.742,0,0,1,429.272,223.28Z" transform="translate(-426.498 -219.78)"/>
        </g>
      </g>
      <g id="Group_1202621" data-name="Group 1202621" transform="translate(34.292 28.289)">
        <g id="Group_1202620" data-name="Group 1202620">
          <path id="Path_1042059" data-name="Path 1042059" d="M425.22,401.706a1.794,1.794,0,1,0,1.8,1.794A1.8,1.8,0,0,0,425.22,401.706Zm0,2.532a.738.738,0,1,1,.744-.738A.742.742,0,0,1,425.22,404.238Z" transform="translate(-423.42 -401.706)"/>
        </g>
      </g>
      <g id="Group_1202623" data-name="Group 1202623" transform="translate(4.813)">
        <g id="Group_1202622" data-name="Group 1202622">
          <path id="Path_1042060" data-name="Path 1042060" d="M29.912,9.926a1.494,1.494,0,0,0,.974-.4l2.04-2.03a1.8,1.8,0,1,0-.83-.664L30.142,8.774a.5.5,0,0,1-.229.095H25.553v-3.5h1.226a1.794,1.794,0,1,0,0-1.056H25.553v-.08a4.258,4.258,0,0,0-8.124-1.764c-.106-.007-.211-.011-.315-.011a4.483,4.483,0,0,0-4.486,4.362A4.489,4.489,0,0,0,7.5,11.245a4.4,4.4,0,0,0,.282,1.562A6.068,6.068,0,0,0,5.772,21.3,6.117,6.117,0,0,0,7.8,23.259a4.452,4.452,0,0,0,.819,4.555.528.528,0,1,0,.791-.7,3.4,3.4,0,0,1-.853-2.251,3.354,3.354,0,0,1,.392-1.582,3.423,3.423,0,0,1,1.4-1.416.528.528,0,1,0-.5-.929A4.481,4.481,0,0,0,8.3,22.325a5.014,5.014,0,0,1,.329-8.776,5.179,5.179,0,0,1,2.3-.549.528.528,0,1,0,0-1.056,6.1,6.1,0,0,0-2.179.4,3.357,3.357,0,0,1-.184-1.1A3.434,3.434,0,0,1,13.037,8a.528.528,0,0,0,.683-.579,3.409,3.409,0,0,1,3.395-3.9,3.492,3.492,0,0,1,.565.047,3.422,3.422,0,0,1,2.866,3.364.528.528,0,0,0,1.056,0,4.476,4.476,0,0,0-3.094-4.245A3.2,3.2,0,0,1,24.5,4.237V4.3H23.481a.528.528,0,1,0,0,1.056H24.5V8.869H20.225a1.749,1.749,0,0,1-1.753-1.742.528.528,0,0,0-1.056,0,2.807,2.807,0,0,0,2.809,2.8H24.5v8.891H15.929a.528.528,0,1,0,0,1.056H24.5v7.252H22.864a2.7,2.7,0,0,0-2.7,2.692.528.528,0,1,0,1.056,0,1.643,1.643,0,0,1,1.646-1.636H24.5v3.638c0,.083,0,.165-.01.246H23.481a.528.528,0,1,0,0,1.056h.734a3.206,3.206,0,0,1-5.7.267,4.473,4.473,0,0,0,1.72-1.036.528.528,0,0,0-.733-.76,3.416,3.416,0,0,1-1.816.914,3.484,3.484,0,0,1-.573.048,3.425,3.425,0,0,1-3.43-3.411c0-.048,0-.1.005-.147a4.483,4.483,0,0,0,1.184-.709.528.528,0,0,0,.067-.744.534.534,0,0,0-.744-.067,3.516,3.516,0,0,1-2.495.786.528.528,0,1,0-.087,1.053,4.57,4.57,0,0,0,1.016-.03,4.483,4.483,0,0,0,4.485,4.326c.107,0,.215,0,.323-.012a4.258,4.258,0,0,0,8.116-1.781V30.652h2.8a.5.5,0,0,1,.229.095L29.841,32a1.779,1.779,0,0,0-.269.942A1.8,1.8,0,1,0,30.639,31.3L29.327,30a1.494,1.494,0,0,0-.974-.4h-2.8V26.772h4.591a1.794,1.794,0,1,0,0-1.056H25.553V22.178h5.494a1.794,1.794,0,1,0,0-1.056H25.553V17.277h1.308a1.794,1.794,0,1,0,0-1.056H25.553V13.173h5.755a.5.5,0,0,1,.229.095l1.085,1.08a.528.528,0,0,0,.745-.749l-1.085-1.08a1.494,1.494,0,0,0-.974-.4H25.553V9.926Zm3.676-4.838a.738.738,0,1,1-.744.738A.742.742,0,0,1,33.589,5.087ZM28.5,4.107a.738.738,0,1,1-.744.738A.742.742,0,0,1,28.5,4.107Zm2.873,28.1a.738.738,0,1,1-.744.738A.742.742,0,0,1,31.373,32.2Zm.492-6.7a.738.738,0,1,1-.744.738A.742.742,0,0,1,31.865,25.506Zm.9-4.594a.738.738,0,1,1-.744.738A.742.742,0,0,1,32.768,20.912Zm-4.186-4.9a.738.738,0,1,1-.744.738A.742.742,0,0,1,28.582,16.011Z" transform="translate(-4.813)"/>
        </g>
      </g>
    </g>
  </g>
</svg>
