<svg xmlns="http://www.w3.org/2000/svg" xmlns:xlink="http://www.w3.org/1999/xlink" width="113" height="113" viewBox="0 0 113 113">
  <defs>
    <filter id="Path_982547" x="0" y="0" width="113" height="113" filterUnits="userSpaceOnUse">
      <feOffset dy="3" input="SourceAlpha"/>
      <feGaussianBlur stdDeviation="3" result="blur"/>
      <feFlood flood-opacity="0.161"/>
      <feComposite operator="in" in2="blur"/>
      <feComposite in="SourceGraphic"/>
    </filter>
  </defs>
  <g id="Group_1203569" data-name="Group 1203569" transform="translate(-1164.648 -4568.692)">
    <g id="Group_1203482" data-name="Group 1203482">
      <g id="Group_1202849" data-name="Group 1202849" transform="translate(1173.648 4574.692)">
        <g id="Group_1172010" data-name="Group 1172010">
          <g id="Group_1171046" data-name="Group 1171046">
            <g id="Group_1148525" data-name="Group 1148525">
              <g transform="matrix(1, 0, 0, 1, -9, -6)" filter="url(#Path_982547)">
                <g id="Path_982547-2" data-name="Path 982547" transform="translate(9 6)" fill="#f4f4fd">
                  <path d="M 47.5 93.5 C 41.28937149047852 93.5 35.26533508300781 92.28397369384766 29.59518623352051 89.88570404052734 C 24.11771965026855 87.56893157958984 19.19813346862793 84.25196075439453 14.97309303283691 80.02691650390625 C 10.74804019927979 75.80186462402344 7.431066513061523 70.88229370117188 5.114293098449707 65.40481567382812 C 2.716026782989502 59.73468017578125 1.5 53.71062850952148 1.5 47.5 C 1.5 41.28937149047852 2.716026782989502 35.26533508300781 5.114293098449707 29.59518623352051 C 7.431066513061523 24.11771965026855 10.74804019927979 19.19813346862793 14.97309303283691 14.97309303283691 C 19.19813346862793 10.74804019927979 24.11771965026855 7.431066513061523 29.59518623352051 5.114293098449707 C 35.26533508300781 2.716026782989502 41.28937149047852 1.5 47.5 1.5 C 53.71062850952148 1.5 59.73468017578125 2.716026782989502 65.40481567382812 5.114293098449707 C 70.88229370117188 7.431066513061523 75.80186462402344 10.74804019927979 80.02691650390625 14.97309303283691 C 84.25196075439453 19.19813346862793 87.56893157958984 24.11771965026855 89.88570404052734 29.59518623352051 C 92.28397369384766 35.26533508300781 93.5 41.28937149047852 93.5 47.5 C 93.5 53.71062850952148 92.28397369384766 59.73468017578125 89.88570404052734 65.40481567382812 C 87.56893157958984 70.88229370117188 84.25196075439453 75.80186462402344 80.02691650390625 80.02691650390625 C 75.80186462402344 84.25196075439453 70.88229370117188 87.56893157958984 65.40481567382812 89.88570404052734 C 59.73468017578125 92.28397369384766 53.71062850952148 93.5 47.5 93.5 Z" stroke="none"/>
                  <path d="M 47.5 3 C 41.49121475219727 3 35.66376876831055 4.176155090332031 30.17950439453125 6.495796203613281 C 24.88084411621094 8.736953735351562 20.12152099609375 11.94598388671875 16.03375244140625 16.03375244140625 C 11.94598388671875 20.12152099609375 8.736953735351562 24.88084411621094 6.495796203613281 30.17950439453125 C 4.176155090332031 35.66376876831055 3 41.49121475219727 3 47.5 C 3 53.50878524780273 4.176155090332031 59.33623123168945 6.495796203613281 64.82049560546875 C 8.736953735351562 70.11915588378906 11.94598388671875 74.87847900390625 16.03375244140625 78.96624755859375 C 20.12152099609375 83.05401611328125 24.88084411621094 86.26304626464844 30.17950439453125 88.50419616699219 C 35.66376876831055 90.82384490966797 41.49121475219727 92 47.5 92 C 53.50878524780273 92 59.33623123168945 90.82384490966797 64.82049560546875 88.50419616699219 C 70.11915588378906 86.26304626464844 74.87847900390625 83.05401611328125 78.96624755859375 78.96624755859375 C 83.05401611328125 74.87847900390625 86.26304626464844 70.11915588378906 88.50419616699219 64.82049560546875 C 90.82384490966797 59.33623123168945 92 53.50878524780273 92 47.5 C 92 41.49121475219727 90.82384490966797 35.66376876831055 88.50419616699219 30.17950439453125 C 86.26304626464844 24.88084411621094 83.05401611328125 20.12152099609375 78.96624755859375 16.03375244140625 C 74.87847900390625 11.94598388671875 70.11915588378906 8.736953735351562 64.82049560546875 6.495796203613281 C 59.33623123168945 4.176155090332031 53.50878524780273 3 47.5 3 M 47.5 0 C 73.7335205078125 0 95 21.2664794921875 95 47.5 C 95 73.7335205078125 73.7335205078125 95 47.5 95 C 21.2664794921875 95 0 73.7335205078125 0 47.5 C 0 21.2664794921875 21.2664794921875 0 47.5 0 Z" stroke="none" fill="#6f6e88"/>
                </g>
              </g>
            </g>
          </g>
        </g>
      </g>
      <g id="book_1032649" transform="translate(1190.448 4590.663)">
        <path id="Path_1044020" data-name="Path 1044020" d="M16.571,147.865H12.46V187.31H39.587v-8.884" transform="translate(-8.886 -131.395)" fill="#a15443"/>
        <path id="Path_1044021" data-name="Path 1044021" d="M256,178.427h0v8.884h27.127V147.865h-4.111" transform="translate(-225.299 -131.395)" fill="#ba7052"/>
        <g id="Group_1203481" data-name="Group 1203481" transform="translate(7.685 13.495)">
          <path id="Path_1044022" data-name="Path 1044022" d="M49.365,402.417V407.8H95.4v-5.386" transform="translate(-49.365 -371.089)" fill="#e2c8ba"/>
          <path id="Path_1044023" data-name="Path 1044023" d="M256.007,141.185v13.507a7.063,7.063,0,0,1,5.154-2.209h17.861V121.156h-13.4" transform="translate(-232.99 -121.155)" fill="#e2c8ba"/>
        </g>
        <path id="Path_1044024" data-name="Path 1044024" d="M62.764,121.156h-13.4v31.327H67.228a7.063,7.063,0,0,1,5.154,2.209V141.186" transform="translate(-41.68 -107.661)" fill="#fff2e9"/>
        <path id="Path_1044025" data-name="Path 1044025" d="M185.3,69.027a10.132,10.132,0,1,0-13.591,9.555v2.431h6.917V78.582A10.175,10.175,0,0,0,185.3,69.027Z" transform="translate(-144.467 -52.335)" fill="#f6dc84"/>
        <rect id="Rectangle_417027" data-name="Rectangle 417027" width="6.917" height="4.847" transform="translate(27.242 28.677)" fill="#26937e"/>
        <path id="Path_1044026" data-name="Path 1044026" d="M57.827,58.806h-3v-1.86a1.116,1.116,0,0,0-1.115-1.115H41.088a11.246,11.246,0,0,0-20.774,0H7.686a1.116,1.116,0,0,0-1.115,1.115v1.86h-3A1.114,1.114,0,0,0,2.46,59.92V99.365a1.114,1.114,0,0,0,1.114,1.114H57.827a1.114,1.114,0,0,0,1.114-1.114V59.92A1.114,1.114,0,0,0,57.827,58.806ZM8.8,89.387H25.547a5.916,5.916,0,0,1,4.04,1.56v1.6H8.8Zm23.016,1.561a5.916,5.916,0,0,1,4.041-1.561H52.6v3.159H31.814ZM30.7,51.124a9.037,9.037,0,0,1,3.08,17.525,1.114,1.114,0,0,0-.736,1.048v1.317H28.356V69.7a1.114,1.114,0,0,0-.736-1.048A9.037,9.037,0,0,1,30.7,51.124ZM28.356,75.861v-2.62h4.689v2.62ZM8.8,58.059h10.85a11.3,11.3,0,0,0,6.48,12.39v6.526a1.114,1.114,0,0,0,1.114,1.114h2.345v6.3a1.114,1.114,0,1,0,2.228,0v-6.3h2.344a1.114,1.114,0,0,0,1.114-1.114V70.449a11.3,11.3,0,0,0,6.48-12.39H52.6v29.1H35.856A8.254,8.254,0,0,0,30.7,88.97a8.254,8.254,0,0,0-5.154-1.811H8.8ZM4.688,61.034H6.571V93.659a1.114,1.114,0,0,0,1.114,1.114h21.9v3.478H4.688ZM56.714,98.251h-24.9V94.773h21.9a1.114,1.114,0,0,0,1.114-1.114V61.033h1.883Z" transform="translate(0 -43.45)"/>
        <path id="Path_1044027" data-name="Path 1044027" d="M247.114,4.463A1.114,1.114,0,0,1,246,3.349V1.114a1.114,1.114,0,0,1,2.228,0V3.349A1.114,1.114,0,0,1,247.114,4.463Z" transform="translate(-216.413)"/>
        <path id="Path_1044028" data-name="Path 1044028" d="M149.724,44.8a1.11,1.11,0,0,1-.788-.326l-1.58-1.581a1.114,1.114,0,0,1,1.575-1.575l1.58,1.58a1.114,1.114,0,0,1-.788,1.9Z" transform="translate(-128.466 -36.429)"/>
        <path id="Path_1044029" data-name="Path 1044029" d="M331.9,44.8a1.114,1.114,0,0,1-.788-1.9l1.581-1.581a1.114,1.114,0,1,1,1.575,1.575l-1.58,1.581A1.111,1.111,0,0,1,331.9,44.8Z" transform="translate(-291.751 -36.429)"/>
        <path id="Path_1044030" data-name="Path 1044030" d="M85.814,334.585h-14.2a1.114,1.114,0,0,1,0-2.228h14.2a1.114,1.114,0,0,1,0,2.228Z" transform="translate(-60.464 -295.337)"/>
        <path id="Path_1044031" data-name="Path 1044031" d="M300.9,334.585H286.7a1.114,1.114,0,1,1,0-2.228h14.2a1.114,1.114,0,1,1,0,2.228Z" transform="translate(-251.593 -295.337)"/>
        <path id="Path_1044032" data-name="Path 1044032" d="M247.114,197.549A1.114,1.114,0,0,1,246,196.435a1.11,1.11,0,0,1,.022-.218,1.092,1.092,0,0,1,.063-.208,1.13,1.13,0,0,1,.1-.192,1.066,1.066,0,0,1,.138-.169,1.11,1.11,0,0,1,1.213-.242,1.1,1.1,0,0,1,.193.1,1.138,1.138,0,0,1,.169.139,1.066,1.066,0,0,1,.138.169,1.13,1.13,0,0,1,.1.192,1.092,1.092,0,0,1,.063.208,1.108,1.108,0,0,1,.022.218,1.1,1.1,0,0,1-.022.217,1.046,1.046,0,0,1-.063.208,1.1,1.1,0,0,1-.1.193,1.083,1.083,0,0,1-.307.307,1.1,1.1,0,0,1-.193.1,1.125,1.125,0,0,1-.208.063A1.1,1.1,0,0,1,247.114,197.549Z" transform="translate(-216.413 -173.566)"/>
        <path id="Path_1044033" data-name="Path 1044033" d="M247.114,96.912A1.114,1.114,0,0,1,246,95.8V87.41a1.114,1.114,0,0,1,2.228,0V95.8A1.114,1.114,0,0,1,247.114,96.912Z" transform="translate(-216.413 -76.684)"/>
      </g>
    </g>
  </g>
</svg>
