<svg xmlns="http://www.w3.org/2000/svg" xmlns:xlink="http://www.w3.org/1999/xlink" width="113" height="113" viewBox="0 0 113 113">
  <defs>
    <filter id="Path_982547" x="0" y="0" width="113" height="113" filterUnits="userSpaceOnUse">
      <feOffset dy="3" input="SourceAlpha"/>
      <feGaussianBlur stdDeviation="3" result="blur"/>
      <feFlood flood-opacity="0.161"/>
      <feComposite operator="in" in2="blur"/>
      <feComposite in="SourceGraphic"/>
    </filter>
  </defs>
  <g id="Group_1204676" data-name="Group 1204676" transform="translate(-1216.56 -3560)">
    <g id="Group_1204492" data-name="Group 1204492">
      <g id="Group_1203995" data-name="Group 1203995" transform="translate(0 1619.125)">
        <g id="Group_1203500" data-name="Group 1203500" transform="translate(0 -197.72)">
          <g id="Group_1202592" data-name="Group 1202592" transform="translate(1225.561 2144.596)">
            <g id="Group_1172010" data-name="Group 1172010" transform="translate(0)">
              <g id="Group_1171046" data-name="Group 1171046">
                <g id="Group_1148525" data-name="Group 1148525">
                  <g transform="matrix(1, 0, 0, 1, -9, -6)" filter="url(#Path_982547)">
                    <g id="Path_982547-2" data-name="Path 982547" transform="translate(9 6)" fill="#fff6f9">
                      <path d="M 47.5 93.5 C 41.28937149047852 93.5 35.26533508300781 92.28397369384766 29.59518623352051 89.88570404052734 C 24.11771965026855 87.56893157958984 19.19813346862793 84.25196075439453 14.97309303283691 80.02691650390625 C 10.74804019927979 75.80186462402344 7.431066513061523 70.88229370117188 5.114293098449707 65.40481567382812 C 2.716026782989502 59.73468017578125 1.5 53.71062850952148 1.5 47.5 C 1.5 41.28937149047852 2.716026782989502 35.26533508300781 5.114293098449707 29.59518623352051 C 7.431066513061523 24.11771965026855 10.74804019927979 19.19813346862793 14.97309303283691 14.97309303283691 C 19.19813346862793 10.74804019927979 24.11771965026855 7.431066513061523 29.59518623352051 5.114293098449707 C 35.26533508300781 2.716026782989502 41.28937149047852 1.5 47.5 1.5 C 53.71062850952148 1.5 59.73468017578125 2.716026782989502 65.40481567382812 5.114293098449707 C 70.88229370117188 7.431066513061523 75.80186462402344 10.74804019927979 80.02691650390625 14.97309303283691 C 84.25196075439453 19.19813346862793 87.56893157958984 24.11771965026855 89.88570404052734 29.59518623352051 C 92.28397369384766 35.26533508300781 93.5 41.28937149047852 93.5 47.5 C 93.5 53.71062850952148 92.28397369384766 59.73468017578125 89.88570404052734 65.40481567382812 C 87.56893157958984 70.88229370117188 84.25196075439453 75.80186462402344 80.02691650390625 80.02691650390625 C 75.80186462402344 84.25196075439453 70.88229370117188 87.56893157958984 65.40481567382812 89.88570404052734 C 59.73468017578125 92.28397369384766 53.71062850952148 93.5 47.5 93.5 Z" stroke="none"/>
                      <path d="M 47.5 3 C 41.49121475219727 3 35.66376876831055 4.176155090332031 30.17950439453125 6.495796203613281 C 24.88084411621094 8.736953735351562 20.12152099609375 11.94598388671875 16.03375244140625 16.03375244140625 C 11.94598388671875 20.12152099609375 8.736953735351562 24.88084411621094 6.495796203613281 30.17950439453125 C 4.176155090332031 35.66376876831055 3 41.49121475219727 3 47.5 C 3 53.50878524780273 4.176155090332031 59.33623123168945 6.495796203613281 64.82049560546875 C 8.736953735351562 70.11915588378906 11.94598388671875 74.87847900390625 16.03375244140625 78.96624755859375 C 20.12152099609375 83.05401611328125 24.88084411621094 86.26304626464844 30.17950439453125 88.50419616699219 C 35.66376876831055 90.82384490966797 41.49121475219727 92 47.5 92 C 53.50878524780273 92 59.33623123168945 90.82384490966797 64.82049560546875 88.50419616699219 C 70.11915588378906 86.26304626464844 74.87847900390625 83.05401611328125 78.96624755859375 78.96624755859375 C 83.05401611328125 74.87847900390625 86.26304626464844 70.11915588378906 88.50419616699219 64.82049560546875 C 90.82384490966797 59.33623123168945 92 53.50878524780273 92 47.5 C 92 41.49121475219727 90.82384490966797 35.66376876831055 88.50419616699219 30.17950439453125 C 86.26304626464844 24.88084411621094 83.05401611328125 20.12152099609375 78.96624755859375 16.03375244140625 C 74.87847900390625 11.94598388671875 70.11915588378906 8.736953735351562 64.82049560546875 6.495796203613281 C 59.33623123168945 4.176155090332031 53.50878524780273 3 47.5 3 M 47.5 0 C 73.7335205078125 0 95 21.2664794921875 95 47.5 C 95 73.7335205078125 73.7335205078125 95 47.5 95 C 21.2664794921875 95 0 73.7335205078125 0 47.5 C 0 21.2664794921875 21.2664794921875 0 47.5 0 Z" stroke="none" fill="#8b5e6f"/>
                    </g>
                  </g>
                </g>
              </g>
            </g>
          </g>
        </g>
      </g>
      <g id="Filled_outline" data-name="Filled outline" transform="translate(1235.785 3577)">
        <path id="Path_1046963" data-name="Path 1046963" d="M61.908,29.032a2.436,2.436,0,0,0-1.953,2.442v5.744l-4.7,4.7-1.174-1.174a3.187,3.187,0,0,0-4.7,0l-7.043,5.869A5.791,5.791,0,0,0,40,51.3v9.391H50.564V57.172L58.781,51.3,64.65,39.565V31.348a2.348,2.348,0,0,0-2.742-2.316Z" transform="translate(6.605 3.824)" fill="#ffd782"/>
        <path id="Path_1046964" data-name="Path 1046964" d="M5.742,29.032A2.436,2.436,0,0,1,7.7,31.474v5.744l4.7,4.7,1.174-1.174a3.187,3.187,0,0,1,4.7,0L25.3,46.608a5.79,5.79,0,0,1,2.348,4.7v9.391H17.086V57.172L8.869,51.3,3,39.565V31.348a2.348,2.348,0,0,1,2.742-2.316Z" transform="translate(0.174 3.824)" fill="#ffd782"/>
        <rect id="Rectangle_417398" data-name="Rectangle 417398" width="9" height="9" rx="4" transform="translate(50.215 8.346)" fill="#ffd782"/>
        <rect id="Rectangle_417399" data-name="Rectangle 417399" width="10" height="9" rx="4" transform="translate(32.215 14.346)" fill="#ffd782"/>
        <path id="Path_1046965" data-name="Path 1046965" d="M41,20H55.086V38.781H41Z" transform="translate(6.779 2.26)" fill="#50b4f8"/>
        <rect id="Rectangle_417400" data-name="Rectangle 417400" width="9" height="9" rx="4" transform="translate(16.215 8.346)" fill="#ffd782"/>
        <path id="Path_1046966" data-name="Path 1046966" d="M26.086,38.781H12L14.348,20h9.391Z" transform="translate(1.738 2.26)" fill="#f98c96"/>
        <path id="Path_1046967" data-name="Path 1046967" d="M28,25h9.391v9.391H28Z" transform="translate(4.52 3.129)" fill="#8ec13f"/>
        <path id="Path_1046968" data-name="Path 1046968" d="M28,33h4.7v9.391a2.348,2.348,0,1,1-4.7,0Z" transform="translate(4.52 4.52)" fill="#f9bb4b"/>
        <g id="Group_1204491" data-name="Group 1204491" transform="translate(8.708 22.26)">
          <path id="Path_1046969" data-name="Path 1046969" d="M32,33v9.391a2.348,2.348,0,1,0,4.7,0V33Z" transform="translate(-3.493 -17.74)" fill="#ffd782"/>
          <path id="Path_1046970" data-name="Path 1046970" d="M36,25.869,41.869,20v5.869L36,31.738Z" transform="translate(-2.798 -20)" fill="#ffd782"/>
          <path id="Path_1046971" data-name="Path 1046971" d="M29.043,25.869,22,20l.821,6.413,6.222,5.326Z" transform="translate(-5.231 -20)" fill="#ffd782"/>
          <path id="Path_1046972" data-name="Path 1046972" d="M15.093,20,8.6,26.319a2.523,2.523,0,0,0-.614,3.045v.008a2.524,2.524,0,0,0,3.921.77L14.164,27.4Z" transform="translate(-7.714 -20)" fill="#ffd782"/>
          <path id="Path_1046973" data-name="Path 1046973" d="M53,20l4.7,4.7a2.49,2.49,0,1,1-3.521,3.521L53,27.043Z" transform="translate(0.158 -20)" fill="#ffd782"/>
        </g>
        <path id="Path_1046974" data-name="Path 1046974" d="M42.174,45.391,48.043,40.5V36H41V46.615A9.038,9.038,0,0,1,42.174,45.391Z" transform="translate(6.779 5.041)" fill="#f9bb4b"/>
        <path id="Path_1046975" data-name="Path 1046975" d="M22.7,45.391V36H18v5.478Z" transform="translate(2.781 5.041)" fill="#f9bb4b"/>
        <path id="Path_1046976" data-name="Path 1046976" d="M42,12.869A5.869,5.869,0,1,0,47.869,7,5.869,5.869,0,0,0,42,12.869Zm9.391,0a3.521,3.521,0,1,1-3.521-3.521,3.521,3.521,0,0,1,3.521,3.521Z" transform="translate(6.953)"/>
        <path id="Path_1046977" data-name="Path 1046977" d="M27,17.869A5.869,5.869,0,1,0,32.869,12,5.869,5.869,0,0,0,27,17.869Zm9.391,0a3.521,3.521,0,1,1-3.521-3.521A3.521,3.521,0,0,1,36.391,17.869Z" transform="translate(4.346 0.869)"/>
        <path id="Path_1046978" data-name="Path 1046978" d="M13,12.869A5.869,5.869,0,1,0,18.869,7,5.869,5.869,0,0,0,13,12.869Zm9.391,0a3.521,3.521,0,1,1-3.521-3.521A3.521,3.521,0,0,1,22.391,12.869Z" transform="translate(1.912)"/>
        <path id="Path_1046979" data-name="Path 1046979" d="M68.321,29.611a3.62,3.62,0,0,0-2.935,3.6v5.258l-3.521,3.521-.344-.344a4.5,4.5,0,0,0-3.178-1.376,4.36,4.36,0,0,0-2.348.7v-.846h5.869a1.174,1.174,0,0,0,1.174-1.174v-9.13a3.614,3.614,0,0,0,4.351-.607,3.667,3.667,0,0,0,0-5.179l-4.7-4.7a1.167,1.167,0,0,0-.83-.344H47.779a1.167,1.167,0,0,0-.831.345l-5.524,5.524h-8.48l-6.72-5.593A1.166,1.166,0,0,0,25.477,19H16.086a1.156,1.156,0,0,0-.812.339L8.826,25.6a3.7,3.7,0,0,0,1.7,6.444,3.768,3.768,0,0,0,.721.07,3.66,3.66,0,0,0,2.265-.8l-.939,7.493a1.174,1.174,0,0,0,1.167,1.319h5.869v1.8l-.344-.286a4.461,4.461,0,0,0-6.355,0l-.344.344L9.043,38.469V33.212a3.62,3.62,0,0,0-2.935-3.6A3.521,3.521,0,0,0,2,33.086V41.3a1.174,1.174,0,0,0,.117.525L7.987,53.566a1.174,1.174,0,0,0,.369.43l7.731,5.519v2.917a1.174,1.174,0,0,0,1.174,1.174H27.824A1.174,1.174,0,0,0,29,62.432V53.041a6.735,6.735,0,0,0-2.348-5.2V40.129h1.174a1.174,1.174,0,0,0,1.164-1.319l-1.174-9.377,3.531,3.02V44.824a3.506,3.506,0,0,0,5.869,2.606,3.506,3.506,0,0,0,5.869-2.606V32.4l3.521-3.521V49.184a6.44,6.44,0,0,0-1.174,3.857v9.391a1.174,1.174,0,0,0,1.174,1.174H57.17a1.174,1.174,0,0,0,1.174-1.174V59.515L66.069,54a1.174,1.174,0,0,0,.369-.43L72.306,41.83a1.174,1.174,0,0,0,.123-.527V33.086a3.521,3.521,0,0,0-4.108-3.475Zm-5.282-6.6L65.731,25.7a1.315,1.315,0,0,1,0,1.862,1.344,1.344,0,0,1-1.859,0l-.832-.83Zm-49,4.092-1.973,2.391a1.352,1.352,0,0,1-2.04-.47,1.376,1.376,0,0,1,.384-1.687l4.1-3.991Zm1.031,10.682,2.054-16.434H24.44l2.054,16.434ZM24.3,40.129V45.84l-2.348-1.954V40.129ZM26.65,61.258H18.434V58.91a1.174,1.174,0,0,0-.492-.954l-7.982-5.7L4.348,41.026v-7.94A1.174,1.174,0,0,1,5.727,31.93,1.271,1.271,0,0,1,6.7,33.212v5.744a1.174,1.174,0,0,0,.344.83L17.6,50.349l1.66-1.66L14.224,43.65l.344-.344a2.026,2.026,0,0,1,3.114.073l7.023,5.853a4.606,4.606,0,0,1,1.945,3.809Zm4.7-31.9-3.962-3.391-.373-2.991,4.335,3.613Zm4.7,15.462a1.174,1.174,0,0,1-2.348,0V36.607h2.348Zm4.7,0a1.174,1.174,0,0,1-2.348,0V36.607h2.348Zm0-10.564H33.693V27.217h7.043Zm5.869-8.7-3.521,3.521v-2.55l3.521-3.521Zm2.348-4.209H60.691V37.781H48.953Zm0,18.781h4.7V42.9l-4.7,3.916Zm21.129.9-5.614,11.23-7.982,5.7A1.174,1.174,0,0,0,56,58.91v2.348H47.779V53.041a4.145,4.145,0,0,1,.91-2.735c0-.006.012-.007.015-.013a7.727,7.727,0,0,1,1.011-1.056L56.826,43.3a2.041,2.041,0,0,1,3.036,0l.344.344-5.039,5.039,1.66,1.66L67.39,39.783a1.174,1.174,0,0,0,.344-.828V33.212A1.271,1.271,0,0,1,68.7,31.93a1.174,1.174,0,0,1,1.379,1.156Z" transform="translate(0 2.086)"/>
      </g>
    </g>
  </g>
</svg>
