<svg xmlns="http://www.w3.org/2000/svg" xmlns:xlink="http://www.w3.org/1999/xlink" width="118" height="118" viewBox="0 0 118 118">
  <defs>
    <filter id="Path_982547" x="0" y="0" width="118" height="118" filterUnits="userSpaceOnUse">
      <feOffset dy="3" input="SourceAlpha"/>
      <feGaussianBlur stdDeviation="3" result="blur"/>
      <feFlood flood-opacity="0.161"/>
      <feComposite operator="in" in2="blur"/>
      <feComposite in="SourceGraphic"/>
    </filter>
  </defs>
  <g id="Group_1204653" data-name="Group 1204653" transform="translate(-204.5 -7675.47)">
    <g id="Group_1204126" data-name="Group 1204126">
      <g id="Group_1203969" data-name="Group 1203969" transform="translate(0 2993.639)">
        <g id="Group_1203665" data-name="Group 1203665" transform="translate(213.5 4687.832)">
          <g id="Group_1178314" data-name="Group 1178314">
            <g id="Group_1173988" data-name="Group 1173988">
              <g id="Group_1172010" data-name="Group 1172010">
                <g id="Group_1171046" data-name="Group 1171046">
                  <g id="Group_1148525" data-name="Group 1148525">
                    <g transform="matrix(1, 0, 0, 1, -9, -6)" filter="url(#Path_982547)">
                      <g id="Path_982547-2" data-name="Path 982547" transform="translate(9 6)" fill="#e8f5f7">
                        <path d="M 50 98.5 C 43.45188522338867 98.5 37.10042953491211 97.21787261962891 31.12207221984863 94.68923950195312 C 25.34691429138184 92.24655914306641 20.15997123718262 88.74931335449219 15.70532894134521 84.29468536376953 C 11.2506856918335 79.84004211425781 7.753442764282227 74.65309906005859 5.310757160186768 68.8779296875 C 2.782128572463989 62.89957046508789 1.5 56.54811477661133 1.5 50 C 1.5 43.45188522338867 2.782128572463989 37.10042953491211 5.310757160186768 31.12207221984863 C 7.753442764282227 25.34691429138184 11.2506856918335 20.15997123718262 15.70532894134521 15.70532894134521 C 20.15997123718262 11.2506856918335 25.34691429138184 7.753442764282227 31.12207221984863 5.310757160186768 C 37.10042953491211 2.782128572463989 43.45188522338867 1.5 50 1.5 C 56.54811477661133 1.5 62.89957046508789 2.782128572463989 68.8779296875 5.310757160186768 C 74.65309906005859 7.753442764282227 79.84004211425781 11.2506856918335 84.29468536376953 15.70532894134521 C 88.74931335449219 20.15997123718262 92.24655914306641 25.34691429138184 94.68923950195312 31.12207221984863 C 97.21787261962891 37.10042953491211 98.5 43.45188522338867 98.5 50 C 98.5 56.54811477661133 97.21787261962891 62.89957046508789 94.68923950195312 68.8779296875 C 92.24655914306641 74.65309906005859 88.74931335449219 79.84004211425781 84.29468536376953 84.29468536376953 C 79.84004211425781 88.74931335449219 74.65309906005859 92.24655914306641 68.8779296875 94.68923950195312 C 62.89957046508789 97.21787261962891 56.54811477661133 98.5 50 98.5 Z" stroke="none"/>
                        <path d="M 50 3 C 43.65372467041016 3 37.49886322021484 4.242263793945312 31.70639801025391 6.6922607421875 C 26.11003112792969 9.059326171875 21.08335113525391 12.44861602783203 16.76598358154297 16.76598358154297 C 12.44861602783203 21.08335113525391 9.059326171875 26.11003112792969 6.6922607421875 31.70639801025391 C 4.242263793945312 37.49886322021484 3 43.65372467041016 3 50 C 3 56.34627532958984 4.242263793945312 62.50113677978516 6.6922607421875 68.29360198974609 C 9.059326171875 73.88996887207031 12.44861602783203 78.91666412353516 16.76598358154297 83.23401641845703 C 21.08335113525391 87.55138397216797 26.11003112792969 90.940673828125 31.70639801025391 93.3077392578125 C 37.49886322021484 95.75773620605469 43.65372467041016 97 50 97 C 56.34627532958984 97 62.50113677978516 95.75773620605469 68.29360198974609 93.3077392578125 C 73.88996887207031 90.940673828125 78.91666412353516 87.55138397216797 83.23401641845703 83.23401641845703 C 87.55138397216797 78.91666412353516 90.940673828125 73.88996887207031 93.3077392578125 68.29360198974609 C 95.75773620605469 62.50113677978516 97 56.34627532958984 97 50 C 97 43.65372467041016 95.75773620605469 37.49886322021484 93.3077392578125 31.70639801025391 C 90.940673828125 26.11003112792969 87.55138397216797 21.08335113525391 83.23401641845703 16.76598358154297 C 78.91666412353516 12.44861602783203 73.88996887207031 9.059326171875 68.29360198974609 6.6922607421875 C 62.50113677978516 4.242263793945312 56.34627532958984 3 50 3 M 50 0 C 77.61424255371094 0 100 22.38577270507812 100 50 C 100 77.61424255371094 77.61424255371094 100 50 100 C 22.38577270507812 100 0 77.61424255371094 0 50 C 0 22.38577270507812 22.38577270507812 0 50 0 Z" stroke="none" fill="#62797e"/>
                      </g>
                    </g>
                  </g>
                </g>
              </g>
            </g>
          </g>
        </g>
      </g>
      <g id="earthquake_17070506" transform="translate(224.19 7691.66)">
        <path id="Path_1045735" data-name="Path 1045735" d="M39.31,2.39A36.92,36.92,0,1,0,76.23,39.31,36.957,36.957,0,0,0,39.31,2.39Zm0,71.346A34.477,34.477,0,0,1,5.794,47.128H28.948l3.529,5.137L29.709,62.5a1.236,1.236,0,0,0,.623,1.434,1.381,1.381,0,0,0,.574.137,1.272,1.272,0,0,0,.973-.461L40.27,53.325a1.2,1.2,0,0,0,.287-.786V46.816H72.9A34.476,34.476,0,0,1,39.31,73.736ZM12.8,32.228a1.251,1.251,0,0,0-1.247,1.247v3.317A5.763,5.763,0,0,1,9.983,32.6c0-2.506,1.322-4.713,2.818-4.713S15.619,30.1,15.619,32.6a5.763,5.763,0,0,1-1.571,4.189V33.475A1.251,1.251,0,0,0,12.8,32.228Zm12.469,0a1.251,1.251,0,0,0-1.247,1.247v3.317A5.763,5.763,0,0,1,22.452,32.6c0-2.506,1.322-4.713,2.818-4.713S28.088,30.1,28.088,32.6a5.763,5.763,0,0,1-1.571,4.189V33.475A1.251,1.251,0,0,0,25.27,32.228Zm23.5,5.1H44.809a1.243,1.243,0,0,0-1.247,1.247v5.748H40.831V33.662l5.96-3.329,5.96,3.329V44.322H50.021V38.574A1.243,1.243,0,0,0,48.774,37.327Zm-1.247,2.494v4.5H46.056v-4.5ZM65.17,32.228a1.251,1.251,0,0,0-1.247,1.247v3.317A5.763,5.763,0,0,1,62.352,32.6c0-2.506,1.322-4.713,2.818-4.713S67.988,30.1,67.988,32.6a5.763,5.763,0,0,1-1.571,4.189V33.475A1.251,1.251,0,0,0,65.17,32.228Zm1.247,12.095V39.634c2.357-.748,4.065-3.566,4.065-7.032,0-4.04-2.332-7.207-5.312-7.207s-5.312,3.167-5.312,7.207c0,3.466,1.708,6.284,4.065,7.032v4.688H55.245V35.058l1.521.848a1.378,1.378,0,0,0,.611.15,1.227,1.227,0,0,0,1.085-.636,1.246,1.246,0,0,0-.474-1.7L47.4,27.814a1.254,1.254,0,0,0-1.222,0l-10.586,5.91a1.25,1.25,0,0,0,1.222,2.182l1.521-.848V44.8a1.194,1.194,0,0,0-.274.773V52.09L33.637,57.5l1.4-5.137a1.222,1.222,0,0,0-.175-1.035l-4.227-6.147a1.207,1.207,0,0,0-1.022-.549H26.517v-5c2.357-.748,4.065-3.566,4.065-7.032,0-4.04-2.332-7.207-5.312-7.207s-5.312,3.167-5.312,7.207c0,3.466,1.708,6.284,4.065,7.032v5H14.048v-5c2.357-.748,4.065-3.566,4.065-7.032,0-4.04-2.332-7.207-5.312-7.207S7.49,28.562,7.49,32.6c0,3.466,1.708,6.284,4.065,7.032v5H5.3a34.088,34.088,0,0,1-.411-5.324,34.426,34.426,0,1,1,68.852,0,33.29,33.29,0,0,1-.374,5.012Z"/>
        <path id="Path_1045736" data-name="Path 1045736" d="M37.41,32.41h1.471v4.5H37.41Z" transform="translate(8.646 7.411)" fill="#b3b3b3"/>
        <path id="Path_1045737" data-name="Path 1045737" d="M45.14,28.129V38.79H42.409V33.042a1.243,1.243,0,0,0-1.247-1.247H37.2a1.243,1.243,0,0,0-1.247,1.247V38.79H33.22V28.129L39.18,24.8Z" transform="translate(7.611 5.532)" fill="#b3b3b3"/>
        <path id="Path_1045738" data-name="Path 1045738" d="M72.227,38.02a34.415,34.415,0,0,1-67.107.312H28.274L31.8,43.469,29.035,53.706a1.236,1.236,0,0,0,.623,1.434,1.381,1.381,0,0,0,.574.137,1.272,1.272,0,0,0,.973-.461L39.6,44.529a1.2,1.2,0,0,0,.287-.786V38.02Z" transform="translate(0.674 8.796)" fill="#c69c6d"/>
        <path id="Path_1045739" data-name="Path 1045739" d="M73.242,38.816a33.29,33.29,0,0,1-.374,5.012H65.923V39.14c2.357-.748,4.065-3.566,4.065-7.032,0-4.04-2.332-7.207-5.312-7.207s-5.312,3.167-5.312,7.207c0,3.466,1.708,6.284,4.065,7.032v4.688H54.751V34.564l1.521.848a1.378,1.378,0,0,0,.611.15,1.227,1.227,0,0,0,1.085-.636,1.246,1.246,0,0,0-.474-1.7L46.908,27.32a1.254,1.254,0,0,0-1.222,0L35.1,33.23a1.25,1.25,0,0,0,1.222,2.182l1.521-.848V44.3a1.194,1.194,0,0,0-.274.773V51.6l-4.426,5.411,1.4-5.137a1.222,1.222,0,0,0-.175-1.035l-4.227-6.147a1.207,1.207,0,0,0-1.022-.549H26.023v-5c2.357-.748,4.065-3.566,4.065-7.032,0-4.04-2.332-7.207-5.312-7.207s-5.312,3.167-5.312,7.207c0,3.466,1.708,6.284,4.065,7.032v5H13.555v-5c2.357-.748,4.065-3.566,4.065-7.032,0-4.04-2.332-7.207-5.312-7.207S7,28.068,7,32.108c0,3.466,1.708,6.284,4.065,7.032v5H4.8a34.088,34.088,0,0,1-.411-5.324,34.426,34.426,0,1,1,68.852,0Z" transform="translate(0.494 0.494)" fill="#a0d7f9"/>
        <g id="Group_1204125" data-name="Group 1204125" transform="translate(9.983 27.889)">
          <path id="Path_1045740" data-name="Path 1045740" d="M54.545,31.743V28.426a1.247,1.247,0,0,0-2.494,0v3.317a5.763,5.763,0,0,1-1.571-4.189c0-2.506,1.322-4.713,2.818-4.713s2.818,2.207,2.818,4.713A5.763,5.763,0,0,1,54.545,31.743Z" transform="translate(1.889 -22.84)" fill="#006837"/>
          <path id="Path_1045741" data-name="Path 1045741" d="M22.545,31.743V28.426a1.247,1.247,0,0,0-2.494,0v3.317a5.763,5.763,0,0,1-1.571-4.189c0-2.506,1.322-4.713,2.818-4.713s2.818,2.207,2.818,4.713A5.763,5.763,0,0,1,22.545,31.743Z" transform="translate(-6.011 -22.84)" fill="#006837"/>
          <path id="Path_1045742" data-name="Path 1045742" d="M12.545,31.743V28.426a1.247,1.247,0,0,0-2.494,0v3.317A5.763,5.763,0,0,1,8.48,27.553c0-2.506,1.322-4.713,2.818-4.713s2.818,2.207,2.818,4.713A5.763,5.763,0,0,1,12.545,31.743Z" transform="translate(-8.48 -22.84)" fill="#006837"/>
        </g>
      </g>
    </g>
  </g>
</svg>
