<svg xmlns="http://www.w3.org/2000/svg" xmlns:xlink="http://www.w3.org/1999/xlink" width="108" height="108" viewBox="0 0 108 108">
  <defs>
    <filter id="Path_904820" x="0" y="0" width="108" height="108" filterUnits="userSpaceOnUse">
      <feOffset dy="3" input="SourceAlpha"/>
      <feGaussianBlur stdDeviation="3" result="blur"/>
      <feFlood flood-opacity="0.161"/>
      <feComposite operator="in" in2="blur"/>
      <feComposite in="SourceGraphic"/>
    </filter>
  </defs>
  <g id="Group_1204633" data-name="Group 1204633" transform="translate(-211 -2543)">
    <g id="Group_1204485" data-name="Group 1204485">
      <g id="Group_1202880" data-name="Group 1202880" transform="translate(14.523 2071.876)">
        <g id="Group_1177315" data-name="Group 1177315" transform="translate(205.477 477.124)">
          <g id="Group_1173585" data-name="Group 1173585" transform="translate(0 0)">
            <g id="Group_1173428" data-name="Group 1173428">
              <g id="Group_1171958" data-name="Group 1171958">
                <g id="Group_1167341" data-name="Group 1167341">
                  <g id="Group_1166792" data-name="Group 1166792">
                    <g transform="matrix(1, 0, 0, 1, -9, -6)" filter="url(#Path_904820)">
                      <g id="Path_904820-2" data-name="Path 904820" transform="translate(9 6)" fill="#e8f5f7">
                        <path d="M 44.99999618530273 88.49999237060547 C 39.12687301635742 88.49999237060547 33.43022155761719 87.35006713867188 28.06829643249512 85.08216857910156 C 22.88852119445801 82.89130401611328 18.23629570007324 79.75457763671875 14.24084663391113 75.75914001464844 C 10.24540901184082 71.76369476318359 7.108683586120605 67.11146545410156 4.917821407318115 61.93169403076172 C 2.649921178817749 56.56976699829102 1.499996185302734 50.87311553955078 1.499996185302734 44.99999237060547 C 1.499996185302734 39.12686920166016 2.649921178817749 33.43021774291992 4.917821407318115 28.06829261779785 C 7.108683586120605 22.88851737976074 10.24540901184082 18.23630523681641 14.24084663391113 14.24085521697998 C 18.23629570007324 10.24540519714355 22.88852119445801 7.108692169189453 28.06829643249512 4.917829990386963 C 33.43022155761719 2.649929761886597 39.12687301635742 1.500004887580872 44.99999618530273 1.500004887580872 C 50.87311935424805 1.500004887580872 56.56977081298828 2.649929761886597 61.93169784545898 4.917829990386963 C 67.11147308349609 7.108692169189453 71.76369476318359 10.24540519714355 75.75914764404297 14.24085521697998 C 79.75458526611328 18.23630523681641 82.89131164550781 22.88851737976074 85.08216857910156 28.06829261779785 C 87.35007476806641 33.43021774291992 88.5 39.12686920166016 88.5 44.99999237060547 C 88.5 50.87311553955078 87.35007476806641 56.56976699829102 85.08216857910156 61.93169403076172 C 82.89131164550781 67.11146545410156 79.75458526611328 71.76369476318359 75.75914764404297 75.75914001464844 C 71.76369476318359 79.75457763671875 67.11147308349609 82.89130401611328 61.93169784545898 85.08216857910156 C 56.56977081298828 87.35006713867188 50.87311935424805 88.49999237060547 44.99999618530273 88.49999237060547 Z" stroke="none"/>
                        <path d="M 44.99999618530273 2.999992370605469 C 39.32870864868164 2.999992370605469 33.82865142822266 4.11004638671875 28.65262603759766 6.299331665039062 C 23.65165710449219 8.414566040039062 19.15968322753906 11.44333648681641 15.301513671875 15.30150604248047 C 11.44333648681641 19.15967559814453 8.414566040039062 23.65164947509766 6.299339294433594 28.65262222290039 C 4.110054016113281 33.82864761352539 2.999992370605469 39.32870483398438 2.999992370605469 44.99999237060547 C 2.999992370605469 50.67127990722656 4.110054016113281 56.17132186889648 6.299339294433594 61.34736633300781 C 8.414566040039062 66.34833526611328 11.44333648681641 70.84029388427734 15.301513671875 74.69846343994141 C 19.15968322753906 78.55663299560547 23.65165710449219 81.58540344238281 28.65262603759766 83.70063781738281 C 33.82865142822266 85.88992309570312 39.32870864868164 86.99997711181641 44.99999618530273 86.99997711181641 C 50.67128372192383 86.99997711181641 56.17134094238281 85.88992309570312 61.34736633300781 83.70063781738281 C 66.34834289550781 81.58540344238281 70.84030914306641 78.55663299560547 74.69847869873047 74.69846343994141 C 78.55665588378906 70.84029388427734 81.58542633056641 66.34833526611328 83.70065307617188 61.34736633300781 C 85.88993835449219 56.17132186889648 87 50.67127990722656 87 44.99999237060547 C 87 39.32870483398438 85.88993835449219 33.82864761352539 83.70065307617188 28.65262222290039 C 81.58542633056641 23.65164947509766 78.55665588378906 19.15967559814453 74.69847869873047 15.30150604248047 C 70.84030914306641 11.44333648681641 66.34834289550781 8.414566040039062 61.34736633300781 6.299331665039062 C 56.17134094238281 4.11004638671875 50.67128372192383 2.999992370605469 44.99999618530273 2.999992370605469 M 44.99999618530273 -7.62939453125e-06 C 69.85281372070312 -7.62939453125e-06 90 20.14717864990234 90 44.99999237060547 C 90 69.85279083251953 69.85281372070312 89.99997711181641 44.99999618530273 89.99997711181641 C 20.14717864990234 89.99997711181641 -7.62939453125e-06 69.85279083251953 -7.62939453125e-06 44.99999237060547 C -7.62939453125e-06 20.14717864990234 20.14717864990234 -7.62939453125e-06 44.99999618530273 -7.62939453125e-06 Z" stroke="none" fill="#62797e"/>
                      </g>
                    </g>
                  </g>
                </g>
              </g>
            </g>
          </g>
        </g>
      </g>
      <g id="pediatrics_8123655" transform="translate(229.828 2550.017)">
        <g id="Group_1204480" data-name="Group 1204480" transform="translate(36.268 19.827)">
          <path id="Path_1046876" data-name="Path 1046876" d="M268.251,65.822a1.434,1.434,0,0,1-1.8,0c-8.143-6.562-12.065-9.153-13.5-13.591a8.043,8.043,0,0,1,14.183-7.168.261.261,0,0,0,.427,0A8.043,8.043,0,0,1,281.75,52.23C280.292,56.745,276.142,59.47,268.251,65.822Z" transform="translate(-252.565 -41.716)" fill="#fe76a8"/>
          <path id="Path_1046877" data-name="Path 1046877" d="M379.64,42.114a8,8,0,0,0-4.042-.234,6.267,6.267,0,0,1,.778.234c3.652,1.365,5.657,5.9,4.478,10.123-1.25,4.48-4.791,7.2-11.507,13.447l.18.145a1.434,1.434,0,0,0,1.8,0c7.891-6.352,12.041-9.077,13.5-13.592A8.042,8.042,0,0,0,379.64,42.114Z" transform="translate(-355.638 -41.723)" fill="#fe5694"/>
          <g id="Group_1204479" data-name="Group 1204479" transform="translate(10.07 7.494)">
            <path id="Path_1046878" data-name="Path 1046878" d="M347.452,108.613h-2.4a.331.331,0,0,1-.331-.331v-2.4a.331.331,0,0,0-.331-.331h-2.647a.331.331,0,0,0-.331.331v2.4a.331.331,0,0,1-.331.331h-2.4a.331.331,0,0,0-.331.331v2.647a.331.331,0,0,0,.331.331h2.4a.331.331,0,0,1,.331.331v2.4a.331.331,0,0,0,.331.331h2.647a.331.331,0,0,0,.331-.331v-2.4a.331.331,0,0,1,.331-.331h2.4a.331.331,0,0,0,.331-.331v-2.647A.331.331,0,0,0,347.452,108.613Z" transform="translate(-338.348 -105.55)" fill="#e5eef9"/>
          </g>
        </g>
        <path id="Path_1046879" data-name="Path 1046879" d="M48.412,277.3c-2.765,1.218-7.093,1.626-11.826.926-.226-.281-.451-.546-.672-.793H24.431c-.221.247-.446.512-.672.793-4.734.7-9.061.292-11.826-.926-4.263-1.878-6.333,7.293,6.976,8.27a.4.4,0,0,1,.345.543c-.227.581-.433,1.169-.619,1.76H41.71c-.185-.591-.392-1.179-.619-1.76a.4.4,0,0,1,.345-.543C54.744,284.589,52.674,275.418,48.412,277.3Z" transform="translate(-1.059 -229.59)" fill="#62dbfb"/>
        <path id="Path_1046880" data-name="Path 1046880" d="M263.035,277.254c.939,1.389-1.351,5.284-9.891,6.291a1.61,1.61,0,0,0-1.319,2.18c.277.714.567,1.481.8,2.157H256.2c-.185-.591-.392-1.179-.619-1.76a.4.4,0,0,1,.345-.543C269.09,284.612,267.2,275.627,263.035,277.254Z" transform="translate(-215.546 -229.603)" fill="#01d0fb"/>
        <ellipse id="Ellipse_12746" data-name="Ellipse 12746" cx="3.532" cy="4.083" rx="3.532" ry="4.083" transform="translate(25.837 46.372)" fill="#ffb09e"/>
        <path id="Path_1046881" data-name="Path 1046881" d="M17.3,365.822a1.221,1.221,0,0,1-.571.737c-3.295,1.9-5.094,4.3-5.629,6.158a.745.745,0,0,1-.766.545,5.745,5.745,0,0,0-1.779.19,1.392,1.392,0,0,0-.77,2.191l1.8,2.378a3.624,3.624,0,0,0,3.458,1.393l7.57-1.2a1.226,1.226,0,0,1,.72.1,16.668,16.668,0,0,0,7.161,1.328h1.248a16.667,16.667,0,0,0,7.161-1.328,1.227,1.227,0,0,1,.72-.1l7.57,1.2a3.624,3.624,0,0,0,3.458-1.393l1.8-2.378a1.392,1.392,0,0,0-.77-2.191,5.745,5.745,0,0,0-1.779-.19.745.745,0,0,1-.766-.545c-.534-1.862-2.334-4.255-5.629-6.158a1.221,1.221,0,0,1-.57-.737c-.138-.512-.3-1.024-.47-1.532H17.767C17.594,364.8,17.435,365.309,17.3,365.822Z" transform="translate(0 -306.594)" fill="#ffcebf"/>
        <path id="Path_1046882" data-name="Path 1046882" d="M270.521,373.452a5.745,5.745,0,0,0-1.779-.19.755.755,0,0,1-.771-.555c-.538-1.862-2.339-4.251-5.632-6.152a1.212,1.212,0,0,1-.565-.733c-.138-.512-.3-1.024-.47-1.533h-3.588c.18.492.343.96.47,1.358a1.8,1.8,0,0,0,.777,1,13.394,13.394,0,0,1,5.266,5.827,3.465,3.465,0,0,0,2.171,1.946c2.23.665,1.412,2.182.908,2.848l-1.587,2.1.31.049a3.624,3.624,0,0,0,3.458-1.393l1.8-2.378A1.392,1.392,0,0,0,270.521,373.452Z" transform="translate(-220.845 -306.594)" fill="#ffb09e"/>
        <g id="Group_1204481" data-name="Group 1204481" transform="translate(13.049 36.269)">
          <path id="Path_1046883" data-name="Path 1046883" d="M60.755,183.935l1.546,1.528-1.546,3.181c-2.13,1.452-5.513-.353-5.938-3.356C54.353,182.007,58.375,180.013,60.755,183.935Z" transform="translate(-54.78 -181.771)" fill="#ffb09e"/>
          <path id="Path_1046884" data-name="Path 1046884" d="M265.945,183.935l-1.546,1.528,1.546,3.181c2.13,1.452,5.513-.353,5.938-3.356C272.347,182.007,268.325,180.013,265.945,183.935Z" transform="translate(-239.791 -181.771)" fill="#ffb09e"/>
        </g>
        <path id="Path_1046885" data-name="Path 1046885" d="M108.635,77.778a12.733,12.733,0,0,0-25.462,0,10.837,10.837,0,0,0,1.381,5.288,1.437,1.437,0,0,1,.035,1.338,5.6,5.6,0,0,0-.669,2.417c0,4.374,5.366,6.552,11.985,6.552s11.985-2.247,11.985-6.552a5.6,5.6,0,0,0-.669-2.417,1.436,1.436,0,0,1,.035-1.338A10.836,10.836,0,0,0,108.635,77.778Z" transform="translate(-66.791 -42.686)" fill="#ffcebf"/>
        <path id="Path_1046886" data-name="Path 1046886" d="M167.638,233.79a.543.543,0,0,0-.533.454,3.3,3.3,0,0,0-.049.567,2.891,2.891,0,1,0,5.768,0,3.3,3.3,0,0,0-.049-.567.543.543,0,0,0-.533-.454Z" transform="translate(-140.826 -191.415)" fill="#fe76a8"/>
        <path id="Path_1046887" data-name="Path 1046887" d="M149.376,26.1c-1.823,1.643-4.165,2.8-6.527,2.079a.324.324,0,0,0-.415.378c1.161,5.063-5.121,1.308-8.382-3.261a1.265,1.265,0,0,1-.167-1.16c.445-1.235,1.752-2.1,3.961-2.327,4.173-.434,6.007-3.136,9.061-4.777,1.562-.84.81,2.909.414,4.55a.323.323,0,0,0,.347.4c2.371-.228,5.064-3.212,5.165-1.338C152.887,21.674,151.479,24.211,149.376,26.1Z" transform="translate(-111.485 0)" fill="#017297"/>
        <path id="Path_1046888" data-name="Path 1046888" d="M189.613,20.646c-.1-1.873-2.793,1.11-5.165,1.338a.323.323,0,0,1-.347-.4c.4-1.641,1.149-5.39-.414-4.55a17.547,17.547,0,0,0-2.09,1.358c.944,4.908-.346,7.692-3.293,6.968-3.344-.822-3.155,2.188-2.257,4.842,2.157,1.261,3.812,1.172,3.167-1.642a.324.324,0,0,1,.415-.379c2.362.723,4.7-.436,6.527-2.079C188.26,24.211,189.669,21.674,189.613,20.646Z" transform="translate(-148.266)" fill="#025f80"/>
        <path id="Path_1046889" data-name="Path 1046889" d="M113.141,366.258a1.2,1.2,0,0,1-.223-.438c-.138-.512-.3-1.024-.468-1.532h-22.7c-.173.509-.33,1.02-.468,1.532a1.2,1.2,0,0,1-.223.438c2.832,2.093,5.286,7.744,4.062,11.984a1.217,1.217,0,0,1,.193.072,16.668,16.668,0,0,0,7.161,1.328h1.248a16.668,16.668,0,0,0,7.161-1.328,1.217,1.217,0,0,1,.193-.072C107.855,374,110.309,368.351,113.141,366.258Z" transform="translate(-71.987 -306.593)" fill="#e5eef9"/>
        <path id="Path_1046890" data-name="Path 1046890" d="M258.963,366.646a13.961,13.961,0,0,1,1.542,1.085A8.206,8.206,0,0,1,262,366.259a1.2,1.2,0,0,1-.223-.438c-.138-.512-.3-1.024-.468-1.532h-3.589c.179.49.342.956.468,1.352A1.814,1.814,0,0,0,258.963,366.646Z" transform="translate(-220.843 -306.594)" fill="#d0dff1"/>
        <g id="Group_1204484" data-name="Group 1204484" transform="translate(7.499 16.916)">
          <path id="Path_1046891" data-name="Path 1046891" d="M347.451,108.614h-2.4a.331.331,0,0,1-.331-.331v-2.4a.331.331,0,0,0-.331-.331H341.74a.331.331,0,0,0-.331.331v2.4a.331.331,0,0,1-.331.331h-2.4a.331.331,0,0,0-.331.331v2.647a.331.331,0,0,0,.331.331h2.4a.331.331,0,0,1,.331.331v2.4a.331.331,0,0,0,.331.331h2.647a.331.331,0,0,0,.331-.331v-2.4a.331.331,0,0,1,.331-.331h2.4a.331.331,0,0,0,.331-.331v-2.647A.331.331,0,0,0,347.451,108.614Z" transform="translate(-299.507 -95.146)" fill="none" stroke="#000" stroke-linecap="round" stroke-linejoin="round" stroke-miterlimit="10" stroke-width="1"/>
          <path id="Path_1046892" data-name="Path 1046892" d="M295.559,42.3c.171-.069.348-.133.526-.19a8.042,8.042,0,0,1,9,2.956.261.261,0,0,0,.427,0A8.043,8.043,0,0,1,319.7,52.231a14.222,14.222,0,0,1-4.319,6.092" transform="translate(-261.743 -38.806)" fill="none" stroke="#000" stroke-linecap="round" stroke-linejoin="round" stroke-miterlimit="10" stroke-width="1"/>
          <path id="Path_1046893" data-name="Path 1046893" d="M327.979,206.694c1.463,1.174,3.134,2.49,5.036,4.022a1.434,1.434,0,0,0,1.8,0c2.34-1.883,4.351-3.448,6.06-4.834" transform="translate(-290.357 -183.699)" fill="none" stroke="#000" stroke-linecap="round" stroke-linejoin="round" stroke-miterlimit="10" stroke-width="1"/>
          <path id="Path_1046894" data-name="Path 1046894" d="M170.78,302.3c0,.013,0,.025,0,.038a3.566,3.566,0,1,1-7.062.039" transform="translate(-145.38 -268.8)" fill="none" stroke="#000" stroke-linecap="round" stroke-linejoin="round" stroke-miterlimit="10" stroke-width="1"/>
          <path id="Path_1046895" data-name="Path 1046895" d="M15.653,291.014a16.805,16.805,0,0,1,2.132-1.453,1.216,1.216,0,0,0,.571-.737,26.312,26.312,0,0,1,.9-2.708.4.4,0,0,0-.344-.542C5.6,284.595,7.67,275.424,11.932,277.3a20.753,20.753,0,0,0,9.465,1.187" transform="translate(-8.557 -246.511)" fill="none" stroke="#000" stroke-linecap="round" stroke-linejoin="round" stroke-miterlimit="10" stroke-width="1"/>
          <path id="Path_1046896" data-name="Path 1046896" d="M37.846,278.486a20.814,20.814,0,0,0,9.508-1.184c4.263-1.878,6.333,7.292-6.975,8.27a.4.4,0,0,0-.345.542,26.027,26.027,0,0,1,.9,2.708,1.22,1.22,0,0,0,.571.737c3.3,1.9,5.094,4.3,5.629,6.158a.744.744,0,0,0,.765.545,5.738,5.738,0,0,1,1.78.19,1.392,1.392,0,0,1,.77,2.191l-1.8,2.378a3.623,3.623,0,0,1-3.458,1.392l-7.57-1.2a1.216,1.216,0,0,0-.72.1,16.681,16.681,0,0,1-7.161,1.328H28.491a16.673,16.673,0,0,1-7.161-1.328,1.22,1.22,0,0,0-.721-.1l-7.57,1.2a3.624,3.624,0,0,1-3.458-1.392l-1.8-2.378a1.393,1.393,0,0,1,.77-2.191,5.741,5.741,0,0,1,1.78-.19.746.746,0,0,0,.767-.545,6.959,6.959,0,0,1,.768-1.693" transform="translate(-7.5 -246.511)" fill="none" stroke="#000" stroke-linecap="round" stroke-linejoin="round" stroke-miterlimit="10" stroke-width="1"/>
          <g id="Group_1204482" data-name="Group 1204482" transform="translate(5.55 19.353)">
            <path id="Path_1046897" data-name="Path 1046897" d="M58.89,189.152a4.533,4.533,0,0,1-4.077-3.865,2.885,2.885,0,0,1,3.368-3.449" transform="translate(-54.776 -181.77)" fill="none" stroke="#000" stroke-linecap="round" stroke-linejoin="round" stroke-miterlimit="10" stroke-width="1"/>
            <path id="Path_1046898" data-name="Path 1046898" d="M294.128,181.838a2.885,2.885,0,0,1,3.368,3.449,4.531,4.531,0,0,1-4.077,3.865" transform="translate(-265.404 -181.77)" fill="none" stroke="#000" stroke-linecap="round" stroke-linejoin="round" stroke-miterlimit="10" stroke-width="1"/>
          </g>
          <path id="Path_1046899" data-name="Path 1046899" d="M104.623,84.138a12.506,12.506,0,0,1,4.009,8.938,10.836,10.836,0,0,1-1.381,5.289,1.433,1.433,0,0,0-.035,1.337,5.611,5.611,0,0,1,.669,2.417c0,4.3-5.366,6.552-11.985,6.552s-11.985-2.178-11.985-6.552a5.611,5.611,0,0,1,.669-2.417,1.434,1.434,0,0,0-.035-1.337,10.849,10.849,0,0,1-1.381-5.289,12.766,12.766,0,0,1,5.947-10.464" transform="translate(-74.286 -74.9)" fill="none" stroke="#000" stroke-linecap="round" stroke-linejoin="round" stroke-miterlimit="10" stroke-width="1"/>
          <g id="Group_1204483" data-name="Group 1204483" transform="translate(15.249 18.779)">
            <line id="Line_1273" data-name="Line 1273" y2="0.516" transform="translate(1.289 3.093)" fill="none" stroke="#000" stroke-linecap="round" stroke-linejoin="round" stroke-miterlimit="10" stroke-width="1"/>
            <line id="Line_1274" data-name="Line 1274" y2="0.516" transform="translate(11.441 3.093)" fill="none" stroke="#000" stroke-linecap="round" stroke-linejoin="round" stroke-miterlimit="10" stroke-width="1"/>
            <path id="Path_1046900" data-name="Path 1046900" d="M137.4,177.271a2.33,2.33,0,0,1,2.578,0" transform="translate(-137.4 -176.882)" fill="none" stroke="#000" stroke-linecap="round" stroke-linejoin="round" stroke-miterlimit="10" stroke-width="1"/>
            <path id="Path_1046901" data-name="Path 1046901" d="M223.88,177.271a2.33,2.33,0,0,1,2.578,0" transform="translate(-213.728 -176.882)" fill="none" stroke="#000" stroke-linecap="round" stroke-linejoin="round" stroke-miterlimit="10" stroke-width="1"/>
          </g>
          <path id="Path_1046902" data-name="Path 1046902" d="M167.637,233.792a.543.543,0,0,0-.533.454,3.3,3.3,0,0,0-.049.567,2.891,2.891,0,1,0,5.768,0,3.3,3.3,0,0,0-.049-.567.543.543,0,0,0-.533-.454Z" transform="translate(-148.324 -208.332)" fill="none" stroke="#000" stroke-linecap="round" stroke-linejoin="round" stroke-miterlimit="10" stroke-width="1"/>
          <path id="Path_1046903" data-name="Path 1046903" d="M149.375,26.106c-1.823,1.643-4.165,2.8-6.527,2.079a.324.324,0,0,0-.415.378c1.161,5.063-5.121,1.308-8.382-3.261a1.265,1.265,0,0,1-.167-1.16c.445-1.235,1.752-2.1,3.961-2.327,4.173-.434,6.007-3.136,9.061-4.777,1.562-.84.81,2.909.414,4.55a.323.323,0,0,0,.347.4c2.371-.228,5.064-3.212,5.165-1.338C152.886,21.675,151.478,24.212,149.375,26.106Z" transform="translate(-118.983 -16.917)" fill="none" stroke="#000" stroke-linecap="round" stroke-linejoin="round" stroke-miterlimit="10" stroke-width="1"/>
          <path id="Path_1046904" data-name="Path 1046904" d="M257.156,393.057c-1.225-4.24,1.23-9.891,4.062-11.984" transform="translate(-227.563 -338.324)" fill="none" stroke="#000" stroke-linecap="round" stroke-linejoin="round" stroke-miterlimit="10" stroke-width="1"/>
          <path id="Path_1046905" data-name="Path 1046905" d="M89.06,381.074c2.832,2.093,5.286,7.744,4.062,11.984" transform="translate(-79.485 -338.324)" fill="none" stroke="#000" stroke-linecap="round" stroke-linejoin="round" stroke-miterlimit="10" stroke-width="1"/>
          <line id="Line_1275" data-name="Line 1275" x1="22.697" transform="translate(10.266 40.779)" fill="none" stroke="#000" stroke-linecap="round" stroke-linejoin="round" stroke-miterlimit="10" stroke-width="1"/>
        </g>
      </g>
    </g>
  </g>
</svg>
