<svg xmlns="http://www.w3.org/2000/svg" xmlns:xlink="http://www.w3.org/1999/xlink" width="108" height="108" viewBox="0 0 108 108">
  <defs>
    <filter id="Path_982547" x="0" y="0" width="108" height="108" filterUnits="userSpaceOnUse">
      <feOffset dy="3" input="SourceAlpha"/>
      <feGaussianBlur stdDeviation="3" result="blur"/>
      <feFlood flood-opacity="0.161"/>
      <feComposite operator="in" in2="blur"/>
      <feComposite in="SourceGraphic"/>
    </filter>
  </defs>
  <g id="Group_1204644" data-name="Group 1204644" transform="translate(-197.01 -4472)">
    <g id="Group_1204082" data-name="Group 1204082">
      <g id="Group_1203964" data-name="Group 1203964" transform="translate(7 2516.532)">
        <g id="Group_1203625" data-name="Group 1203625" transform="translate(-14.49 905.468)">
          <g id="Group_1178314" data-name="Group 1178314" transform="translate(213.5 1056)">
            <g id="Group_1173988" data-name="Group 1173988">
              <g id="Group_1172010" data-name="Group 1172010">
                <g id="Group_1171046" data-name="Group 1171046">
                  <g id="Group_1148525" data-name="Group 1148525">
                    <g transform="matrix(1, 0, 0, 1, -9, -6)" filter="url(#Path_982547)">
                      <g id="Path_982547-2" data-name="Path 982547" transform="translate(9 6)" fill="#f7fbfc">
                        <path d="M 45 88.5 C 39.12687683105469 88.5 33.43022537231445 87.35007476806641 28.06830024719238 85.08217620849609 C 22.88852500915527 82.89131164550781 18.23629951477051 79.75458526611328 14.2408504486084 75.75914764404297 C 10.24541282653809 71.76370239257812 7.108687400817871 67.11147308349609 4.917825222015381 61.93170166015625 C 2.649924993515015 56.56977462768555 1.5 50.87312316894531 1.5 45 C 1.5 39.12687683105469 2.649924993515015 33.43022537231445 4.917825222015381 28.06830024719238 C 7.108687400817871 22.88852500915527 10.24541282653809 18.23629951477051 14.2408504486084 14.2408504486084 C 18.23629951477051 10.24541282653809 22.88852500915527 7.108687400817871 28.06830024719238 4.917825222015381 C 33.43022537231445 2.649924993515015 39.12687683105469 1.5 45 1.5 C 50.87312316894531 1.5 56.56977462768555 2.649924993515015 61.93170166015625 4.917825222015381 C 67.11147308349609 7.108687400817871 71.76370239257812 10.24541282653809 75.75914764404297 14.2408504486084 C 79.75458526611328 18.23629951477051 82.89131164550781 22.88852500915527 85.08217620849609 28.06830024719238 C 87.35007476806641 33.43022537231445 88.5 39.12687683105469 88.5 45 C 88.5 50.87312316894531 87.35007476806641 56.56977462768555 85.08217620849609 61.93170166015625 C 82.89131164550781 67.11147308349609 79.75458526611328 71.76370239257812 75.75914764404297 75.75914764404297 C 71.76370239257812 79.75458526611328 67.11147308349609 82.89131164550781 61.93170166015625 85.08217620849609 C 56.56977462768555 87.35007476806641 50.87312316894531 88.5 45 88.5 Z" stroke="none"/>
                        <path d="M 45 3 C 39.32871246337891 3 33.82865524291992 4.110054016113281 28.65262985229492 6.299339294433594 C 23.65165710449219 8.414573669433594 19.15968322753906 11.44334411621094 15.301513671875 15.301513671875 C 11.44334411621094 19.15968322753906 8.414573669433594 23.65165710449219 6.299339294433594 28.65262985229492 C 4.110054016113281 33.82865524291992 3 39.32871246337891 3 45 C 3 50.67128753662109 4.110054016113281 56.17134475708008 6.299339294433594 61.34737396240234 C 8.414573669433594 66.34834289550781 11.44334411621094 70.84031677246094 15.301513671875 74.698486328125 C 19.15968322753906 78.55665588378906 23.65165710449219 81.58542633056641 28.65262985229492 83.70066070556641 C 33.82865524291992 85.88994598388672 39.32871246337891 87 45 87 C 50.67128753662109 87 56.17134475708008 85.88994598388672 61.34737396240234 83.70066070556641 C 66.34834289550781 81.58542633056641 70.84031677246094 78.55665588378906 74.698486328125 74.698486328125 C 78.55665588378906 70.84031677246094 81.58542633056641 66.34834289550781 83.70066070556641 61.34737396240234 C 85.88994598388672 56.17134475708008 87 50.67128753662109 87 45 C 87 39.32871246337891 85.88994598388672 33.82865524291992 83.70066070556641 28.65262985229492 C 81.58542633056641 23.65165710449219 78.55665588378906 19.15968322753906 74.698486328125 15.301513671875 C 70.84031677246094 11.44334411621094 66.34834289550781 8.414573669433594 61.34737396240234 6.299339294433594 C 56.17134475708008 4.110054016113281 50.67128753662109 3 45 3 M 45 0 C 69.85281372070312 0 90 20.14718627929688 90 45 C 90 69.85281372070312 69.85281372070312 90 45 90 C 20.14718627929688 90 0 69.85281372070312 0 45 C 0 20.14718627929688 20.14718627929688 0 45 0 Z" stroke="none" fill="#62797e"/>
                      </g>
                    </g>
                  </g>
                </g>
              </g>
            </g>
          </g>
        </g>
      </g>
      <g id="shaking_16891895" transform="translate(211.795 4482.026)">
        <g id="Group_1204081" data-name="Group 1204081" transform="translate(12.339 17.439)">
          <path id="Path_1045483" data-name="Path 1045483" d="M98.919,115.288h2.9v-10.5a.619.619,0,0,0-.62-.62H99.539a.619.619,0,0,0-.62.62Z" transform="translate(-91.383 -101.695)" fill="#d5a889" fill-rule="evenodd"/>
          <path id="Path_1045484" data-name="Path 1045484" d="M87.184,117.861v18.714a1.511,1.511,0,0,0,1.51,1.51h19.48a1.511,1.511,0,0,0,1.51-1.51V117.861l-11.25-9.121Z" transform="translate(-81.102 -105.7)" fill="#f4f6f8" fill-rule="evenodd"/>
          <path id="Path_1045485" data-name="Path 1045485" d="M182.794,221.7V236.18h-7.768V221.7a1,1,0,0,1,1-.994H181.8A1,1,0,0,1,182.794,221.7Z" transform="translate(-158.06 -203.795)" fill="#e4e8eb" fill-rule="evenodd"/>
          <path id="Path_1045486" data-name="Path 1045486" d="M115.08,236.767h-3.09a.715.715,0,0,0-.712.713v5.511a.713.713,0,0,0,.712.712h3.09a.712.712,0,0,0,.712-.712V237.48A.714.714,0,0,0,115.08,236.767Z" transform="translate(-102.211 -217.864)" fill="#a4d4ff" fill-rule="evenodd"/>
          <path id="Path_1045487" data-name="Path 1045487" d="M79.992,97.445a.62.62,0,0,0-.091-.872L65.147,84.611a1.8,1.8,0,0,0-2.288.015L48.123,96.573a.619.619,0,0,0-.091.872l1.486,1.832a.62.62,0,0,0,.871.091L64.012,88.322,77.635,99.368a.62.62,0,0,0,.871-.091Z" transform="translate(-46.68 -84.209)" fill="#f76c82"/>
          <path id="Path_1045488" data-name="Path 1045488" d="M75.954,350.125H71.8c-.479,0-.554.167-.554.646s.075.158.554.158H90.916v11.832H38.1V343.067H75.954Z" transform="translate(-38.101 -310.992)" fill="#d5a889" fill-rule="evenodd"/>
          <path id="Path_1045489" data-name="Path 1045489" d="M376.027,254.177h-6.213a2.188,2.188,0,0,0,1.574-2.236v-19.13h3.064v19.13A2.188,2.188,0,0,0,376.027,254.177Z" transform="translate(-328.711 -214.398)" fill="#a48a78" fill-rule="evenodd"/>
          <path id="Path_1045490" data-name="Path 1045490" d="M330.17,164.024H330.1a2.462,2.462,0,0,1-2.461-2.461,2.508,2.508,0,0,1,.014-.26h-.014a2.212,2.212,0,0,1,0-4.425h0c0-.026,0-.053,0-.079a2.462,2.462,0,0,1,3.461-2.249,2.968,2.968,0,0,1,5.866,0,2.462,2.462,0,0,1,3.461,2.249c0,.027,0,.053,0,.079h0a2.212,2.212,0,0,1,0,4.425h-.014a2.508,2.508,0,0,1,.014.26,2.462,2.462,0,0,1-2.461,2.461H337.9a2.154,2.154,0,0,1-3.866,1.308,2.154,2.154,0,0,1-3.866-1.308Z" transform="translate(-289.828 -143.631)" fill="#c6ea94" fill-rule="evenodd"/>
        </g>
        <path id="Path_1045491" data-name="Path 1045491" d="M33.855,10.376,35,9.843a.867.867,0,0,1,1.234.793l-.017,2.318,1.411-.489a.867.867,0,0,1,1.151.815l.011,2.146,1.953-.206a.868.868,0,0,1,.958.838l.056,1.978,1.9-.257a.867.867,0,0,1,.984.846l.031,2.034,1.7-.35a.867.867,0,0,1,1.041.9L47.3,23.118l.4-.074a.868.868,0,0,1,.778.248l.7.719a.867.867,0,0,1-1.243,1.21l-.377-.388-1.029.189a.867.867,0,0,1-1.023-.9l.1-1.886-1.618.334a.867.867,0,0,1-1.043-.836l-.033-2.1-1.885.255a.867.867,0,0,1-.983-.835l-.056-2.006-1.975.209a.868.868,0,0,1-.959-.858L37.048,14.5l-1.426.494a.867.867,0,0,1-1.151-.826L34.487,12l-1.139.531a.867.867,0,0,1-1.234-.79l0-.966-1.33-1.282a.867.867,0,1,1,1.2-1.249l1.6,1.54A.867.867,0,0,1,33.855,10.376Zm5.9,53.829H50.418a.867.867,0,1,1,0,1.735H39.755l1.069.74a.867.867,0,0,1-.988,1.426l-3.349-2.321a.867.867,0,0,1,0-1.426l3.349-2.321a.867.867,0,1,1,.988,1.426Zm28.454-9.526a.867.867,0,0,1-1.735,0V51.835a.867.867,0,0,1,.353-.7l.419-.309-1.09-.915a.867.867,0,0,1,.058-1.374L67.26,47.8l-1.1-1.066a.867.867,0,0,1,.056-1.3l1.122-.912-1.065-1.057a.867.867,0,0,1,.045-1.272l1.127-.972L66.253,40.1a.867.867,0,0,1,.193-1.4l.93-.489L66.1,37.03a.867.867,0,0,1,.267-1.442l.773-.309-.387-.36a.867.867,0,0,1-.277-.635V31.528a.867.867,0,0,1,1.735,0v2.378l1.113,1.034a.867.867,0,0,1-.268,1.441l-.769.308,1.172,1.084a.867.867,0,0,1-.186,1.4l-.944.5,1.007.955a.867.867,0,0,1-.03,1.286L68.16,42.9l1.084,1.077a.867.867,0,0,1-.064,1.289l-1.112.9,1.152,1.116a.867.867,0,0,1-.1,1.333l-.981.691,1.071.9a.867.867,0,0,1-.043,1.363l-.953.7ZM10.973,47.532a.867.867,0,0,1-1.735,0V45.17a.867.867,0,0,1,.353-.7l.2-.146-.762-.64a.867.867,0,0,1,.058-1.374l.724-.509-.787-.762a.867.867,0,0,1,.056-1.3l.8-.654-.768-.763a.868.868,0,0,1,.045-1.272l.813-.7L9.1,35.529a.867.867,0,0,1,.193-1.4l.588-.309-.909-.84A.867.867,0,0,1,9.24,31.54l.426-.171-.151-.141a.867.867,0,0,1-.277-.635V28.3a.867.867,0,1,1,1.735,0v1.911l.877.815a.867.867,0,0,1-.268,1.441l-.423.169.8.742a.867.867,0,0,1-.186,1.4l-.6.316.688.652a.867.867,0,0,1-.03,1.286l-.83.716.788.782a.867.867,0,0,1-.064,1.289l-.8.646.838.811a.867.867,0,0,1-.1,1.332l-.659.464.743.624a.868.868,0,0,1-.043,1.363l-.732.539Zm38.474,2.9H13.334v7.714a.867.867,0,0,1-1.735,0V49.562a.867.867,0,0,1,.867-.867h5.175a2.371,2.371,0,0,1-.088-.643V32.232L16.113,33.4a.867.867,0,0,1-1.22-.127l-2.266-2.794a.867.867,0,0,1,.127-1.22l6.253-5.069V19.65a.867.867,0,0,1,.867-.867h2.9a.867.867,0,0,1,.867.867v.777l4.319-3.5a2.669,2.669,0,0,1,3.386-.021h0L46.588,29.258a.868.868,0,0,1,.127,1.22l-2.266,2.794a.867.867,0,0,1-1.22.127l-1.44-1.168V48.052a2.376,2.376,0,0,1-.088.643h8.614a.867.867,0,0,1,.867.867v6.527H53.29a1.35,1.35,0,0,0,.859-1.347c0-.007,0-.014,0-.022V40.514a3.03,3.03,0,0,1-2.229-2.149,3.334,3.334,0,0,1-2.6-2.762,3.081,3.081,0,0,1,.034-5.942,3.331,3.331,0,0,1,3.776-2.6,3.659,3.659,0,0,1,6.828,0,3.331,3.331,0,0,1,3.776,2.6,3.081,3.081,0,0,1,.034,5.942,3.334,3.334,0,0,1-2.6,2.762,3.03,3.03,0,0,1-2.229,2.149V54.72c0,.007,0,.015,0,.022a1.35,1.35,0,0,0,.859,1.347h5.348a.867.867,0,0,1,.867.867v4.979a.867.867,0,0,1-1.735,0V57.824H46.041a.867.867,0,0,1,0-1.735h3.406Zm-30.159-19.6V48.052a.643.643,0,0,0,.643.643h8.507V35.085A1.868,1.868,0,0,1,30.3,33.224h5.776a1.868,1.868,0,0,1,1.863,1.861v13.61h1.47a.643.643,0,0,0,.643-.643V30.825L29.671,22.407Zm5.92,4.388a1.583,1.583,0,0,1,1.579,1.581v5.511a1.58,1.58,0,0,1-1.579,1.579h-3.09a1.583,1.583,0,0,1-1.579-1.579V36.794a1.586,1.586,0,0,1,1.579-1.581Zm-2.934,1.735v5.2h2.778v-5.2Zm33.61,3.458c0,2.941,0,14.3,0,14.3a3.307,3.307,0,0,1-.249,1.381h1.827a3.305,3.305,0,0,1-.249-1.379v-14.3a3.014,3.014,0,0,1-.665-.345,3.018,3.018,0,0,1-.665.345ZM44.821,30.059,30.26,18.254a.933.933,0,0,0-1.184.006l-.011.009L14.521,30.059l1.173,1.447,13.431-10.89a.868.868,0,0,1,1.093,0l13.431,10.89ZM30.173,48.695h6.033V35.085a.128.128,0,0,0-.128-.127H30.3a.128.128,0,0,0-.128.127Zm.319-8.068a.867.867,0,1,1,1.735,0v1.719a.867.867,0,1,1-1.735,0Zm-9.75-17.845,1.17-.948V20.518h-1.17Zm42.2,8.51h0a.867.867,0,0,1-.867-.895c0-.017,0-.034,0-.052a1.594,1.594,0,0,0-2.24-1.457.867.867,0,0,1-1.165-.488c-.419-1.116-1.175-1.952-2.121-1.952s-1.7.836-2.121,1.952a.867.867,0,0,1-1.165.488,1.594,1.594,0,0,0-2.24,1.457c0,.017,0,.034,0,.052a.867.867,0,0,1-.867.895h0a1.345,1.345,0,0,0,0,2.69h.008a.867.867,0,0,1,.868.958A1.595,1.595,0,0,0,52.616,36.7h.043a.867.867,0,0,1,.89.867h0a1.287,1.287,0,0,0,2.31.781.867.867,0,0,1,1.378,0,1.287,1.287,0,0,0,2.31-.781h0a.867.867,0,0,1,.89-.867h.043a1.6,1.6,0,0,0,1.594-1.594,1.631,1.631,0,0,0-.009-.169.867.867,0,0,1,.868-.958h.008a1.345,1.345,0,0,0,0-2.69ZM24.892,10.376a.867.867,0,0,1,.265-.6l1.6-1.54a.867.867,0,0,1,1.2,1.249l-1.33,1.282,0,.966a.867.867,0,0,1-1.234.79L24.26,12l.016,2.173a.867.867,0,0,1-1.151.826L21.7,14.5l-.009,1.893a.867.867,0,0,1-.958.858l-1.975-.209L18.7,19.05a.868.868,0,0,1-.983.835l-1.885-.255-.033,2.1a.867.867,0,0,1-1.043.836l-1.618-.334.1,1.886a.867.867,0,0,1-1.023.9l-1.029-.189-.378.388a.867.867,0,0,1-1.243-1.21l.7-.719a.868.868,0,0,1,.778-.248l.4.074-.106-1.911a.867.867,0,0,1,1.041-.9l1.7.35.031-2.034a.867.867,0,0,1,.983-.846l1.9.257.056-1.978a.867.867,0,0,1,.958-.838l1.953.206.011-2.146a.867.867,0,0,1,1.151-.815l1.411.489-.017-2.318a.867.867,0,0,1,1.234-.793ZM29.067,58.41,28,57.67a.867.867,0,1,1,.988-1.426l3.349,2.321a.867.867,0,0,1,0,1.426l-3.349,2.321A.867.867,0,1,1,28,60.885l1.069-.74H18.4a.867.867,0,1,1,0-1.735Z" fill-rule="evenodd"/>
      </g>
    </g>
  </g>
</svg>
