<svg xmlns="http://www.w3.org/2000/svg" xmlns:xlink="http://www.w3.org/1999/xlink" width="108" height="108" viewBox="0 0 108 108">
  <defs>
    <filter id="Path_904820" x="0" y="0" width="108" height="108" filterUnits="userSpaceOnUse">
      <feOffset dy="3" input="SourceAlpha"/>
      <feGaussianBlur stdDeviation="3" result="blur"/>
      <feFlood flood-opacity="0.161"/>
      <feComposite operator="in" in2="blur"/>
      <feComposite in="SourceGraphic"/>
    </filter>
  </defs>
  <g id="Group_1204671" data-name="Group 1204671" transform="translate(-630.813 -2796.432)">
    <g id="Group_1203990" data-name="Group 1203990" transform="translate(639.813 2802.432)">
      <g id="Group_1202880" data-name="Group 1202880" transform="translate(0 0)">
        <g id="Group_1177315" data-name="Group 1177315" transform="translate(0)">
          <g id="Group_1173585" data-name="Group 1173585">
            <g id="Group_1173428" data-name="Group 1173428">
              <g id="Group_1171958" data-name="Group 1171958">
                <g id="Group_1167341" data-name="Group 1167341">
                  <g id="Group_1166792" data-name="Group 1166792">
                    <g transform="matrix(1, 0, 0, 1, -9, -6)" filter="url(#Path_904820)">
                      <g id="Path_904820-2" data-name="Path 904820" transform="translate(9 6)" fill="#fff9f4">
                        <path d="M 44.99999618530273 88.49999237060547 C 39.12687301635742 88.49999237060547 33.43022155761719 87.35006713867188 28.06829643249512 85.08216857910156 C 22.88852119445801 82.89130401611328 18.23629570007324 79.75457763671875 14.24084663391113 75.75914001464844 C 10.24540901184082 71.76369476318359 7.108683586120605 67.11146545410156 4.917821407318115 61.93169403076172 C 2.649921178817749 56.56976699829102 1.499996185302734 50.87311553955078 1.499996185302734 44.99999237060547 C 1.499996185302734 39.12686920166016 2.649921178817749 33.43021774291992 4.917821407318115 28.06829261779785 C 7.108683586120605 22.88851737976074 10.24540901184082 18.23630523681641 14.24084663391113 14.24085521697998 C 18.23629570007324 10.24540519714355 22.88852119445801 7.108692169189453 28.06829643249512 4.917829990386963 C 33.43022155761719 2.649929761886597 39.12687301635742 1.500004887580872 44.99999618530273 1.500004887580872 C 50.87311935424805 1.500004887580872 56.56977081298828 2.649929761886597 61.93169784545898 4.917829990386963 C 67.11147308349609 7.108692169189453 71.76369476318359 10.24540519714355 75.75914764404297 14.24085521697998 C 79.75458526611328 18.23630523681641 82.89131164550781 22.88851737976074 85.08216857910156 28.06829261779785 C 87.35007476806641 33.43021774291992 88.5 39.12686920166016 88.5 44.99999237060547 C 88.5 50.87311553955078 87.35007476806641 56.56976699829102 85.08216857910156 61.93169403076172 C 82.89131164550781 67.11146545410156 79.75458526611328 71.76369476318359 75.75914764404297 75.75914001464844 C 71.76369476318359 79.75457763671875 67.11147308349609 82.89130401611328 61.93169784545898 85.08216857910156 C 56.56977081298828 87.35006713867188 50.87311935424805 88.49999237060547 44.99999618530273 88.49999237060547 Z" stroke="none"/>
                        <path d="M 44.99999618530273 2.999992370605469 C 39.32870864868164 2.999992370605469 33.82865142822266 4.11004638671875 28.65262603759766 6.299331665039062 C 23.65165710449219 8.414566040039062 19.15968322753906 11.44333648681641 15.301513671875 15.30150604248047 C 11.44333648681641 19.15967559814453 8.414566040039062 23.65164947509766 6.299339294433594 28.65262222290039 C 4.110054016113281 33.82864761352539 2.999992370605469 39.32870483398438 2.999992370605469 44.99999237060547 C 2.999992370605469 50.67127990722656 4.110054016113281 56.17132186889648 6.299339294433594 61.34736633300781 C 8.414566040039062 66.34833526611328 11.44333648681641 70.84029388427734 15.301513671875 74.69846343994141 C 19.15968322753906 78.55663299560547 23.65165710449219 81.58540344238281 28.65262603759766 83.70063781738281 C 33.82865142822266 85.88992309570312 39.32870864868164 86.99997711181641 44.99999618530273 86.99997711181641 C 50.67128372192383 86.99997711181641 56.17134094238281 85.88992309570312 61.34736633300781 83.70063781738281 C 66.34834289550781 81.58540344238281 70.84030914306641 78.55663299560547 74.69847869873047 74.69846343994141 C 78.55665588378906 70.84029388427734 81.58542633056641 66.34833526611328 83.70065307617188 61.34736633300781 C 85.88993835449219 56.17132186889648 87 50.67127990722656 87 44.99999237060547 C 87 39.32870483398438 85.88993835449219 33.82864761352539 83.70065307617188 28.65262222290039 C 81.58542633056641 23.65164947509766 78.55665588378906 19.15967559814453 74.69847869873047 15.30150604248047 C 70.84030914306641 11.44333648681641 66.34834289550781 8.414566040039062 61.34736633300781 6.299331665039062 C 56.17134094238281 4.11004638671875 50.67128372192383 2.999992370605469 44.99999618530273 2.999992370605469 M 44.99999618530273 -7.62939453125e-06 C 69.85281372070312 -7.62939453125e-06 90 20.14717864990234 90 44.99999237060547 C 90 69.85279083251953 69.85281372070312 89.99997711181641 44.99999618530273 89.99997711181641 C 20.14717864990234 89.99997711181641 -7.62939453125e-06 69.85279083251953 -7.62939453125e-06 44.99999237060547 C -7.62939453125e-06 20.14717864990234 20.14717864990234 -7.62939453125e-06 44.99999618530273 -7.62939453125e-06 Z" stroke="none" fill="#8b7157"/>
                      </g>
                    </g>
                  </g>
                </g>
              </g>
            </g>
          </g>
        </g>
      </g>
      <g id="Filled_outline" data-name="Filled outline" transform="translate(15.556 13.88)">
        <path id="Path_1044722" data-name="Path 1044722" d="M177.518,269.592H152V251.926A3.926,3.926,0,0,1,155.926,248h17.666a3.926,3.926,0,0,1,3.926,3.926Z" transform="translate(-135.315 -219.538)" fill="#395d7b"/>
        <path id="Path_1044723" data-name="Path 1044723" d="M208,248h11.777v10.8H208Z" transform="translate(-184.445 -219.538)" fill="#fdb683"/>
        <path id="Path_1044724" data-name="Path 1044724" d="M177.518,305.518H152V280h6.87l.019.1a5.986,5.986,0,0,0,11.739,0l.019-.1h6.87Z" transform="translate(-135.315 -247.612)" fill="#fff"/>
        <path id="Path_1044725" data-name="Path 1044725" d="M177.518,305.518H152V280h6.87l.019.1a5.986,5.986,0,0,0,11.739,0l.019-.1h6.87Z" transform="translate(-135.315 -247.612)" fill="#de5540"/>
        <path id="Path_1044726" data-name="Path 1044726" d="M152,280h5.889v25.518H152Z" transform="translate(-135.315 -247.612)" fill="#426887"/>
        <path id="Path_1044727" data-name="Path 1044727" d="M39.7,287.852V280a7.852,7.852,0,0,0-6.281,3.141l-7.95,10.6a7.361,7.361,0,0,0,5.889,11.777h5.4v-7.852H31.852Z" transform="translate(-23.019 -247.612)" fill="#de5540"/>
        <path id="Path_1044728" data-name="Path 1044728" d="M5.889,25.518H0V0H5.889Z" transform="translate(36.314 32.388)" fill="#426887"/>
        <path id="Path_1044729" data-name="Path 1044729" d="M135.852,410.8H128v-7.852l.361-1.082A2.723,2.723,0,0,1,130.944,400v2.944h4.907a1.963,1.963,0,0,1,1.963,1.963v3.926A1.963,1.963,0,0,1,135.852,410.8Z" transform="translate(-114.26 -352.89)" fill="#fdc8a2"/>
        <path id="Path_1044730" data-name="Path 1044730" d="M305.963,410.8h7.852v-7.852l-.361-1.082A2.723,2.723,0,0,0,310.87,400v2.944h-4.907A1.963,1.963,0,0,0,304,404.907v3.926A1.963,1.963,0,0,0,305.963,410.8Z" transform="translate(-268.668 -352.89)" fill="#fdc8a2"/>
        <path id="Path_1044731" data-name="Path 1044731" d="M360,287.852V280a7.852,7.852,0,0,1,6.281,3.141l7.95,10.6a7.361,7.361,0,0,1-5.889,11.777h-5.4v-7.852h4.907Z" transform="translate(-317.797 -247.612)" fill="#de5540"/>
        <path id="Path_1044732" data-name="Path 1044732" d="M173.889,56H183.7a5.889,5.889,0,0,1,5.889,5.889v10.8a10.8,10.8,0,0,1-21.592,0v-10.8A5.889,5.889,0,0,1,173.889,56Z" transform="translate(-149.352 -51.093)" fill="#fdc8a2"/>
        <path id="Path_1044733" data-name="Path 1044733" d="M168,60.759l.832-.333a11.544,11.544,0,0,0,6.038-5.556V48h-.981A5.889,5.889,0,0,0,168,53.889Z" transform="translate(-149.352 -44.074)" fill="#784533"/>
        <path id="Path_1044734" data-name="Path 1044734" d="M294.87,53.889v6.87a12.337,12.337,0,0,1-6.87-6.87V48h.981A5.889,5.889,0,0,1,294.87,53.889Z" transform="translate(-254.63 -44.074)" fill="#784533"/>
        <g id="Group_1203778" data-name="Group 1203778" transform="translate(16.685 0.981)">
          <path id="Path_1044735" data-name="Path 1044735" d="M168.685,26.944v5.889a23.364,23.364,0,0,1-12.966,3.926H152V33.815a9.876,9.876,0,0,1,.1-1.383A9.816,9.816,0,0,1,161.815,24H164.6a4.306,4.306,0,0,1,4.085,2.945Z" transform="translate(-152 -24)" fill="#844e3a"/>
        </g>
        <path id="Path_1044736" data-name="Path 1044736" d="M138.944,152h.981v5.889h-.981a2.944,2.944,0,0,1,0-5.889Z" transform="translate(-121.278 -135.315)" fill="#fdb683"/>
        <path id="Path_1044737" data-name="Path 1044737" d="M.981,5.889H0V0H.981a2.944,2.944,0,0,1,0,5.889Z" transform="translate(40.24 16.685)" fill="#fdb683"/>
        <path id="Path_1044738" data-name="Path 1044738" d="M49.208,55.36l.87,1.76A10.515,10.515,0,0,1,45.443,58.2a10.387,10.387,0,0,1-4.332-.939l.813-1.787a8.44,8.44,0,0,0,3.519.763,8.54,8.54,0,0,0,3.765-.88Zm3.105-20.712ZM73.685,62.231a8.342,8.342,0,0,1-7.14,12.656h-42.2A8.342,8.342,0,0,1,17.668,61.54l5.7-7.6,1.57,1.178-5.7,7.6a6.379,6.379,0,0,0,5.1,10.207h4.417V67.036H24.833a.981.981,0,0,1-.766-1.595L31.7,55.9V49.441a6.908,6.908,0,0,0-4.515,2.677l-1.266,1.688-1.57-1.178,1.266-1.688a8.882,8.882,0,0,1,6.174-3.486,4.911,4.911,0,0,1,3.553-3.808,11.7,11.7,0,0,1-1.514-4.091h-.165a3.926,3.926,0,1,1,0-7.852v-.981h-.981a.981.981,0,0,1-.981-.981V26.8a10.778,10.778,0,0,1,3.852-8.267l1.264,1.5A8.879,8.879,0,0,0,35.587,21.3a37.438,37.438,0,0,0,6.961-2.147.957.957,0,0,1,.1-.037l.308.951.39.88A38.921,38.921,0,0,1,34.3,23.511a8.806,8.806,0,0,0-.513,1.836c.252-.022.5-.046.748-.075.847-.1,1.7-.237,2.537-.417A26.754,26.754,0,0,0,43.283,22.7a17.493,17.493,0,0,0,2.277-1.317l1.159,1.585a25.938,25.938,0,0,1-9.237,3.808c-.9.193-1.816.344-2.724.447-.358.042-.724.076-1.093.1v1.433H36.4a22.319,22.319,0,0,0,11.985-3.477V20.1a3.32,3.32,0,0,0-3.1-2.133H42.5a8.827,8.827,0,0,0-4.416,1.181l-.983-1.7A10.793,10.793,0,0,1,42.5,16h2.785a5.279,5.279,0,0,1,4.739,2.944h.327a6.878,6.878,0,0,1,6.87,6.87V31.7a3.926,3.926,0,0,1,0,7.852h-.165a11.7,11.7,0,0,1-1.515,4.092,4.922,4.922,0,0,1,3.552,3.806,8.882,8.882,0,0,1,6.175,3.487l7.287,9.716-1.57,1.178L63.7,52.118a6.908,6.908,0,0,0-4.515-2.677V55.9l7.637,9.546a.981.981,0,0,1-.766,1.595H62.128v5.889h4.417A6.379,6.379,0,0,0,72,63.246ZM57.221,37.592a1.963,1.963,0,0,0,0-3.926ZM33.666,33.666a1.963,1.963,0,1,0,0,3.926ZM54.276,45.444h-.063a11.876,11.876,0,0,1-1.9,1.709v.254h4.738a2.949,2.949,0,0,0-2.776-1.963Zm-.981,3.926v15.7h3.926v-15.7ZM50.351,25.621a11.413,11.413,0,0,0,4.907,5.507V29.062a19.417,19.417,0,0,0-4.471-4.395l1.09-1.633a21.432,21.432,0,0,1,3.381,2.933v-.153a4.913,4.913,0,0,0-4.907-4.907Zm-14.722,5.6a10.573,10.573,0,0,0,.943-.5l-.169,0h-.774Zm0,6.373a9.815,9.815,0,1,0,19.629,0V33.331a13.391,13.391,0,0,1-6.316-6.085,24.25,24.25,0,0,1-8.846,3.2,12.605,12.605,0,0,1-4.252,2.822l-.215.086Zm9.815,11.777a11.708,11.708,0,0,1-4.9-1.071,5,5,0,0,0,9.81,0,11.706,11.706,0,0,1-4.905,1.071Zm-11.777,15.7h3.926v-15.7H33.666ZM31.7,62.263V59.038l-4.828,6.035h2.158l.137-.411A3.7,3.7,0,0,1,31.7,62.263Zm6.87,5.754a.983.983,0,0,0-.981-.981H32.684a.981.981,0,0,1-.981-.981V64.393a1.74,1.74,0,0,0-.671.889l-.31.931v6.711h6.87a.983.983,0,0,0,.981-.981Zm0-20.865a11.876,11.876,0,0,1-1.9-1.709H36.61a2.947,2.947,0,0,0-2.777,1.962h4.74Zm12.759,3.877a6.961,6.961,0,0,1-11.777,0v14.8a2.937,2.937,0,0,1,.981,2.192v3.926a2.931,2.931,0,0,1-.169.981H50.519a2.931,2.931,0,0,1-.169-.981V68.017a2.937,2.937,0,0,1,.981-2.192Zm8.833,15.185-.31-.931a1.74,1.74,0,0,0-.671-.889v1.66a.981.981,0,0,1-.981.981H53.295a.983.983,0,0,0-.981.981v3.926a.983.983,0,0,0,.981.981h6.87Zm1.689-1.141h2.158l-4.828-6.035v3.226a3.7,3.7,0,0,1,2.533,2.4Z" transform="translate(-16 -16)"/>
      </g>
    </g>
  </g>
</svg>
