<svg xmlns="http://www.w3.org/2000/svg" xmlns:xlink="http://www.w3.org/1999/xlink" width="108" height="108" viewBox="0 0 108 108">
  <defs>
    <filter id="Path_904820" x="0" y="0" width="108" height="108" filterUnits="userSpaceOnUse">
      <feOffset dy="3" input="SourceAlpha"/>
      <feGaussianBlur stdDeviation="3" result="blur"/>
      <feFlood flood-opacity="0.161"/>
      <feComposite operator="in" in2="blur"/>
      <feComposite in="SourceGraphic"/>
    </filter>
  </defs>
  <g id="Group_1204684" data-name="Group 1204684" transform="translate(-631 -5840.933)">
    <g id="Group_1204620" data-name="Group 1204620">
      <g id="Group_1204006" data-name="Group 1204006" transform="translate(640 5846.933)">
        <g id="Group_1177315" data-name="Group 1177315" transform="translate(0 0)">
          <g id="Group_1173585" data-name="Group 1173585">
            <g id="Group_1173428" data-name="Group 1173428">
              <g id="Group_1171958" data-name="Group 1171958">
                <g id="Group_1167341" data-name="Group 1167341">
                  <g id="Group_1166792" data-name="Group 1166792">
                    <g transform="matrix(1, 0, 0, 1, -9, -6)" filter="url(#Path_904820)">
                      <g id="Path_904820-2" data-name="Path 904820" transform="translate(9 6)" fill="#fff9f4">
                        <path d="M 44.9999885559082 88.49999237060547 C 39.12686538696289 88.49999237060547 33.43021392822266 87.35006713867188 28.06828880310059 85.08216857910156 C 22.88851356506348 82.89130401611328 18.23628807067871 79.75457763671875 14.2408390045166 75.75914001464844 C 10.24540138244629 71.76369476318359 7.108675956726074 67.11146545410156 4.917813777923584 61.93169403076172 C 2.649913549423218 56.56976699829102 1.499988555908203 50.87311553955078 1.499988555908203 44.99999237060547 C 1.499988555908203 39.12686920166016 2.649913549423218 33.43021774291992 4.917813777923584 28.06829261779785 C 7.108675956726074 22.88851737976074 10.24540138244629 18.23630523681641 14.2408390045166 14.24085521697998 C 18.23628807067871 10.24540519714355 22.88851356506348 7.108692169189453 28.06828880310059 4.917829990386963 C 33.43021392822266 2.649929761886597 39.12686538696289 1.500004887580872 44.9999885559082 1.500004887580872 C 50.87311172485352 1.500004887580872 56.56976318359375 2.649929761886597 61.93169021606445 4.917829990386963 C 67.11146545410156 7.108692169189453 71.76368713378906 10.24540519714355 75.75914001464844 14.24085521697998 C 79.75457763671875 18.23630523681641 82.89130401611328 22.88851737976074 85.08216094970703 28.06829261779785 C 87.35006713867188 33.43021774291992 88.49998474121094 39.12686920166016 88.49998474121094 44.99999237060547 C 88.49998474121094 50.87311553955078 87.35006713867188 56.56976699829102 85.08216094970703 61.93169403076172 C 82.89130401611328 67.11146545410156 79.75457763671875 71.76369476318359 75.75914001464844 75.75914001464844 C 71.76368713378906 79.75457763671875 67.11146545410156 82.89130401611328 61.93169021606445 85.08216857910156 C 56.56976318359375 87.35006713867188 50.87311172485352 88.49999237060547 44.9999885559082 88.49999237060547 Z" stroke="none"/>
                        <path d="M 44.9999885559082 2.999992370605469 C 39.32870101928711 2.999992370605469 33.82864379882812 4.11004638671875 28.65261840820312 6.299331665039062 C 23.65164947509766 8.414566040039062 19.15967559814453 11.44333648681641 15.30150604248047 15.30150604248047 C 11.44332885742188 19.15967559814453 8.414558410644531 23.65164947509766 6.299331665039062 28.65262222290039 C 4.11004638671875 33.82864761352539 2.999992370605469 39.32870483398438 2.999992370605469 44.99999237060547 C 2.999992370605469 50.67127990722656 4.11004638671875 56.17132186889648 6.299331665039062 61.34736633300781 C 8.414558410644531 66.34833526611328 11.44332885742188 70.84029388427734 15.30150604248047 74.69846343994141 C 19.15967559814453 78.55663299560547 23.65164947509766 81.58540344238281 28.65261840820312 83.70063781738281 C 33.82864379882812 85.88992309570312 39.32870101928711 86.99997711181641 44.9999885559082 86.99997711181641 C 50.6712760925293 86.99997711181641 56.17133331298828 85.88992309570312 61.34735870361328 83.70063781738281 C 66.34832763671875 81.58540344238281 70.84030151367188 78.55663299560547 74.69847106933594 74.69846343994141 C 78.55664825439453 70.84029388427734 81.58541870117188 66.34833526611328 83.70064544677734 61.34736633300781 C 85.88993072509766 56.17132186889648 86.99998474121094 50.67127990722656 86.99998474121094 44.99999237060547 C 86.99998474121094 39.32870483398438 85.88993072509766 33.82864761352539 83.70064544677734 28.65262222290039 C 81.58541870117188 23.65164947509766 78.55664825439453 19.15967559814453 74.69847106933594 15.30150604248047 C 70.84030151367188 11.44333648681641 66.34832763671875 8.414566040039062 61.34735870361328 6.299331665039062 C 56.17133331298828 4.11004638671875 50.6712760925293 2.999992370605469 44.9999885559082 2.999992370605469 M 44.9999885559082 -7.62939453125e-06 C 69.85279846191406 -7.62939453125e-06 89.99998474121094 20.14717864990234 89.99998474121094 44.99999237060547 C 89.99998474121094 69.85279083251953 69.85279846191406 89.99997711181641 44.9999885559082 89.99997711181641 C 20.14717102050781 89.99997711181641 -7.62939453125e-06 69.85279083251953 -7.62939453125e-06 44.99999237060547 C -7.62939453125e-06 20.14717864990234 20.14717102050781 -7.62939453125e-06 44.9999885559082 -7.62939453125e-06 Z" stroke="none" fill="#8b7157"/>
                      </g>
                    </g>
                  </g>
                </g>
              </g>
            </g>
          </g>
        </g>
      </g>
      <g id="abc_8973448_1_" data-name="abc_8973448 (1)" transform="translate(649.76 5855.26)">
        <g id="Group_1204618" data-name="Group 1204618" transform="translate(7.5 7.5)">
          <g id="Group_1204611" data-name="Group 1204611" transform="translate(23.275 27.74)">
            <path id="Path_1047301" data-name="Path 1047301" d="M330.344,256h-4.371L316,258.233v23.275l9.973,2.233h4.371a6.7,6.7,0,0,0,6.7-6.7V262.7A6.7,6.7,0,0,0,330.344,256Z" transform="translate(-304.837 -256)" fill="#30cd9c"/>
            <path id="Path_1047302" data-name="Path 1047302" d="M233.862,277.72a8.121,8.121,0,0,1,0-15.7,7.269,7.269,0,0,1,3.274-6.02h-9.973a6.7,6.7,0,0,0-6.7,6.7L216,270.19l4.465,6.852a6.7,6.7,0,0,0,6.7,6.7h9.973A7.269,7.269,0,0,1,233.862,277.72Z" transform="translate(-216 -256)" fill="#0caf7b"/>
          </g>
          <g id="Group_1204612" data-name="Group 1204612" transform="translate(13.87)">
            <path id="Path_1047303" data-name="Path 1047303" d="M206.094,7.5h-4.371L191.75,9.733V33.007l9.973,2.233h4.371a6.7,6.7,0,0,0,6.7-6.7V14.2A6.7,6.7,0,0,0,206.094,7.5Z" transform="translate(-185.052 -7.5)" fill="#ffce71"/>
            <path id="Path_1047304" data-name="Path 1047304" d="M149.208,28.113V17.09h-4.062V13.577A7.269,7.269,0,0,1,148.421,7.5h-9.973a6.7,6.7,0,0,0-6.7,6.7V28.542a6.7,6.7,0,0,0,6.7,6.7h9.973a7.269,7.269,0,0,1-3.275-6.077v-1.05h4.062Z" transform="translate(-131.75 -7.5)" fill="#ffb357"/>
          </g>
          <g id="Group_1204613" data-name="Group 1204613" transform="translate(0 27.74)">
            <path id="Path_1047305" data-name="Path 1047305" d="M81.844,256H77.473L67.5,258.233v23.275l9.973,2.233h4.371a6.7,6.7,0,0,0,6.7-6.7V262.7A6.7,6.7,0,0,0,81.844,256Z" transform="translate(-60.802 -256)" fill="#ff8e9e"/>
            <path id="Path_1047306" data-name="Path 1047306" d="M22,277.133a3.277,3.277,0,1,0,0-6.554H20.9v-2.793h.219a2.6,2.6,0,0,0,0-5.2H20.9v-.509A7.269,7.269,0,0,1,24.171,256H14.2a6.7,6.7,0,0,0-6.7,6.7v14.344a6.7,6.7,0,0,0,6.7,6.7h9.973a7.269,7.269,0,0,1-3.275-6.077v-.527Z" transform="translate(-7.5 -256)" fill="#ea5b70"/>
          </g>
          <g id="Group_1204614" data-name="Group 1204614" transform="translate(6.609 31.088)">
            <path id="Path_1047307" data-name="Path 1047307" d="M94.787,295.218A6,6,0,0,0,89.72,286H88.9l-4.063,1.9,2.172,2.407H89.72a1.7,1.7,0,0,1,0,3.4H84.859v4.311c.317,0,5.711,0,5.711,0a2.352,2.352,0,0,1,0,4.7c-.654,0-2.227.006-3.558.011l-2.3,2.175,4.14,2.123,1.713,0a6.655,6.655,0,0,0,4.218-11.8Z" transform="translate(-82.706 -286)" fill="#ffdbe0"/>
            <path id="Path_1047308" data-name="Path 1047308" d="M71.014,303.4v-5.384a3.049,3.049,0,0,1,0-4.311v-4.045A4.488,4.488,0,0,1,72.9,286H68.862a2.153,2.153,0,0,0-2.153,2.153v16.737a2.153,2.153,0,0,0,2.153,2.153s2.252-.01,4-.016A4.487,4.487,0,0,1,71.014,303.4Z" transform="translate(-66.709 -285.999)" fill="#ffb5c0"/>
          </g>
          <g id="Group_1204615" data-name="Group 1204615" transform="translate(18.98 3.349)">
            <path id="Path_1047309" data-name="Path 1047309" d="M224.2,92.421l-5.1-13.506h-3.5v2.911l2.362,6.259H210.5v4.305h9.087l.585,1.551a2.153,2.153,0,0,0,4.028-1.52Z" transform="translate(-206.822 -74.292)" fill="#fff1d4"/>
            <path id="Path_1047310" data-name="Path 1047310" d="M188.654,39.068a2.528,2.528,0,0,0-2.341-1.568h0a2.523,2.523,0,0,0-2.341,1.574c-.006.016-6.3,16.549-6.3,16.549a2.153,2.153,0,0,0,4.023,1.532l4.873-12.8a3.473,3.473,0,0,1,3.245-2.237Z" transform="translate(-177.524 -37.5)" fill="#fce3a0"/>
          </g>
          <g id="Group_1204617" data-name="Group 1204617" transform="translate(32.637 31.089)">
            <g id="Group_1204616" data-name="Group 1204616" transform="translate(7.292)">
              <path id="Path_1047311" data-name="Path 1047311" d="M371.9,291.366a2.153,2.153,0,1,0,2.41-3.567,10.47,10.47,0,0,0-5.884-1.8l-3.229,2.153,3.229,2.153A6.181,6.181,0,0,1,371.9,291.366Z" transform="translate(-365.193 -286)" fill="#b0ebd8"/>
              <path id="Path_1047312" data-name="Path 1047312" d="M375.078,415.273a2.153,2.153,0,0,0-3.033.266,4.511,4.511,0,0,1-3.623,1.593l-3.229,2.153,3.229,2.153a8.8,8.8,0,0,0,6.921-3.131A2.153,2.153,0,0,0,375.078,415.273Z" transform="translate(-365.193 -400.395)" fill="#b0ebd8"/>
            </g>
            <path id="Path_1047313" data-name="Path 1047313" d="M310.39,290.305a3.044,3.044,0,0,1,0-4.305,10.521,10.521,0,0,0,0,21.042,3.044,3.044,0,0,1,0-4.305,6.216,6.216,0,0,1,0-12.431Z" transform="translate(-299.869 -286)" fill="#70dcba"/>
          </g>
        </g>
        <g id="Group_1204619" data-name="Group 1204619" transform="translate(7.5 7.5)">
          <path id="Path_1047314" data-name="Path 1047314" d="M35.24,262.7a6.7,6.7,0,0,0-6.7-6.7H14.2a6.7,6.7,0,0,0-6.7,6.7v14.344a6.7,6.7,0,0,0,6.7,6.7H28.542a6.7,6.7,0,0,0,6.7-6.7" transform="translate(-7.5 -228.26)" fill="none" stroke="#000" stroke-linejoin="round" stroke-miterlimit="10" stroke-width="1"/>
          <path id="Path_1047315" data-name="Path 1047315" d="M262.7,283.74h14.344a6.7,6.7,0,0,0,6.7-6.7V262.7a6.7,6.7,0,0,0-6.7-6.7H262.7a6.7,6.7,0,0,0-6.7,6.7v14.344A6.7,6.7,0,0,0,262.7,283.74Z" transform="translate(-228.26 -228.26)" fill="none" stroke="#000" stroke-linecap="round" stroke-linejoin="round" stroke-miterlimit="10" stroke-width="1" stroke-dasharray="230 30 1000 0 1000 0"/>
          <path id="Path_1047316" data-name="Path 1047316" d="M152.792,7.5H138.448a6.7,6.7,0,0,0-6.7,6.7V28.542a6.7,6.7,0,0,0,6.7,6.7h14.344a6.7,6.7,0,0,0,6.7-6.7V14.2A6.7,6.7,0,0,0,152.792,7.5Z" transform="translate(-117.88 -7.5)" fill="none" stroke="#000" stroke-linecap="round" stroke-linejoin="round" stroke-miterlimit="10" stroke-width="1" stroke-dasharray="230 30 1000 0 1000 0"/>
          <path id="Path_1047317" data-name="Path 1047317" d="M317.046,300.878a2.153,2.153,0,0,0-3.033.266,4.441,4.441,0,0,1-3.623,1.593,6.216,6.216,0,1,1,3.474-11.371,2.153,2.153,0,1,0,2.41-3.567,10.521,10.521,0,1,0-5.884,19.244,8.739,8.739,0,0,0,6.921-3.131A2.153,2.153,0,0,0,317.046,300.878Z" transform="translate(-267.232 -254.911)" fill="none" stroke="#000" stroke-linecap="round" stroke-linejoin="round" stroke-miterlimit="10" stroke-width="1"/>
          <path id="Path_1047318" data-name="Path 1047318" d="M78.79,295.218A6,6,0,0,0,73.723,286H68.862a2.153,2.153,0,0,0-2.153,2.153v16.737a2.153,2.153,0,0,0,2.153,2.153s4.5-.02,5.711-.02a6.655,6.655,0,0,0,4.218-11.8Zm-5.067-4.912a1.7,1.7,0,0,1,0,3.4H71.014v-3.4h2.709Zm.849,12.412c-.654,0-2.227.006-3.558.011v-4.712l3.558,0a2.352,2.352,0,0,1,0,4.7Z" transform="translate(-60.1 -254.911)" fill="none" stroke="#000" stroke-linecap="round" stroke-linejoin="round" stroke-miterlimit="10" stroke-width="1"/>
          <path id="Path_1047319" data-name="Path 1047319" d="M194.905,55.629s-6.243-16.541-6.251-16.561a2.523,2.523,0,0,0-2.341-1.569h0a2.523,2.523,0,0,0-2.341,1.574c-.006.016-6.3,16.549-6.3,16.549a2.153,2.153,0,1,0,4.023,1.532l.593-1.557h8.01l.585,1.551a2.153,2.153,0,1,0,4.028-1.52Zm-10.984-4.336,2.384-6.259,2.362,6.259Z" transform="translate(-158.544 -34.151)" fill="none" stroke="#000" stroke-linecap="round" stroke-linejoin="round" stroke-miterlimit="10" stroke-width="1"/>
        </g>
      </g>
    </g>
  </g>
</svg>
