<svg xmlns="http://www.w3.org/2000/svg" xmlns:xlink="http://www.w3.org/1999/xlink" width="113" height="113" viewBox="0 0 113 113">
  <defs>
    <filter id="Path_982547" x="0" y="0" width="113" height="113" filterUnits="userSpaceOnUse">
      <feOffset dy="3" input="SourceAlpha"/>
      <feGaussianBlur stdDeviation="3" result="blur"/>
      <feFlood flood-opacity="0.161"/>
      <feComposite operator="in" in2="blur"/>
      <feComposite in="SourceGraphic"/>
    </filter>
  </defs>
  <g id="Group_1204640" data-name="Group 1204640" transform="translate(-586.06 -3840.336)">
    <g id="Group_1204078" data-name="Group 1204078">
      <g id="Group_1203959" data-name="Group 1203959" transform="translate(0 1899.461)">
        <g id="Group_1203497" data-name="Group 1203497" transform="translate(595.061 1946.875)">
          <g id="Group_1172010" data-name="Group 1172010" transform="translate(0)">
            <g id="Group_1171046" data-name="Group 1171046">
              <g id="Group_1148525" data-name="Group 1148525">
                <g transform="matrix(1, 0, 0, 1, -9, -6)" filter="url(#Path_982547)">
                  <g id="Path_982547-2" data-name="Path 982547" transform="translate(9 6)" fill="#ffeef4">
                    <path d="M 47.5 93.5 C 41.28937149047852 93.5 35.26533508300781 92.28397369384766 29.59518623352051 89.88570404052734 C 24.11771965026855 87.56893157958984 19.19813346862793 84.25196075439453 14.97309303283691 80.02691650390625 C 10.74804019927979 75.80186462402344 7.431066513061523 70.88229370117188 5.114293098449707 65.40481567382812 C 2.716026782989502 59.73468017578125 1.5 53.71062850952148 1.5 47.5 C 1.5 41.28937149047852 2.716026782989502 35.26533508300781 5.114293098449707 29.59518623352051 C 7.431066513061523 24.11771965026855 10.74804019927979 19.19813346862793 14.97309303283691 14.97309303283691 C 19.19813346862793 10.74804019927979 24.11771965026855 7.431066513061523 29.59518623352051 5.114293098449707 C 35.26533508300781 2.716026782989502 41.28937149047852 1.5 47.5 1.5 C 53.71062850952148 1.5 59.73468017578125 2.716026782989502 65.40481567382812 5.114293098449707 C 70.88229370117188 7.431066513061523 75.80186462402344 10.74804019927979 80.02691650390625 14.97309303283691 C 84.25196075439453 19.19813346862793 87.56893157958984 24.11771965026855 89.88570404052734 29.59518623352051 C 92.28397369384766 35.26533508300781 93.5 41.28937149047852 93.5 47.5 C 93.5 53.71062850952148 92.28397369384766 59.73468017578125 89.88570404052734 65.40481567382812 C 87.56893157958984 70.88229370117188 84.25196075439453 75.80186462402344 80.02691650390625 80.02691650390625 C 75.80186462402344 84.25196075439453 70.88229370117188 87.56893157958984 65.40481567382812 89.88570404052734 C 59.73468017578125 92.28397369384766 53.71062850952148 93.5 47.5 93.5 Z" stroke="none"/>
                    <path d="M 47.5 3 C 41.49121475219727 3 35.66376876831055 4.176155090332031 30.17950439453125 6.495796203613281 C 24.88084411621094 8.736953735351562 20.12152099609375 11.94598388671875 16.03375244140625 16.03375244140625 C 11.94598388671875 20.12152099609375 8.736953735351562 24.88084411621094 6.495796203613281 30.17950439453125 C 4.176155090332031 35.66376876831055 3 41.49121475219727 3 47.5 C 3 53.50878524780273 4.176155090332031 59.33623123168945 6.495796203613281 64.82049560546875 C 8.736953735351562 70.11915588378906 11.94598388671875 74.87847900390625 16.03375244140625 78.96624755859375 C 20.12152099609375 83.05401611328125 24.88084411621094 86.26304626464844 30.17950439453125 88.50419616699219 C 35.66376876831055 90.82384490966797 41.49121475219727 92 47.5 92 C 53.50878524780273 92 59.33623123168945 90.82384490966797 64.82049560546875 88.50419616699219 C 70.11915588378906 86.26304626464844 74.87847900390625 83.05401611328125 78.96624755859375 78.96624755859375 C 83.05401611328125 74.87847900390625 86.26304626464844 70.11915588378906 88.50419616699219 64.82049560546875 C 90.82384490966797 59.33623123168945 92 53.50878524780273 92 47.5 C 92 41.49121475219727 90.82384490966797 35.66376876831055 88.50419616699219 30.17950439453125 C 86.26304626464844 24.88084411621094 83.05401611328125 20.12152099609375 78.96624755859375 16.03375244140625 C 74.87847900390625 11.94598388671875 70.11915588378906 8.736953735351562 64.82049560546875 6.495796203613281 C 59.33623123168945 4.176155090332031 53.50878524780273 3 47.5 3 M 47.5 0 C 73.7335205078125 0 95 21.2664794921875 95 47.5 C 95 73.7335205078125 73.7335205078125 95 47.5 95 C 21.2664794921875 95 0 73.7335205078125 0 47.5 C 0 21.2664794921875 21.2664794921875 0 47.5 0 Z" stroke="none" fill="#8b5e6f"/>
                  </g>
                </g>
              </g>
            </g>
          </g>
        </g>
      </g>
      <g id="spread_8432934" transform="translate(609.871 3863.449)">
        <g id="Lineal_Color" data-name="Lineal Color" transform="translate(2.576 4.57)">
          <circle id="Ellipse_12740" data-name="Ellipse 12740" cx="25.812" cy="25.812" r="25.812" transform="translate(4.302)" fill="#f2f2f2"/>
          <g id="Group_1204077" data-name="Group 1204077" transform="translate(0 4.302)">
            <path id="Path_1045447" data-name="Path 1045447" d="M25.906,12.3A4.3,4.3,0,0,0,21.6,8H17.3a4.3,4.3,0,0,0,0,8.6h4.3a4.3,4.3,0,0,0,4.3-4.3Zm0,25.812a4.3,4.3,0,0,0-4.3-4.3H17.3a4.3,4.3,0,0,0,0,8.6h4.3a4.3,4.3,0,0,0,4.3-4.3Z" transform="translate(10.661 -3.698)" fill="#76fc4a" fill-rule="evenodd"/>
            <path id="Path_1045448" data-name="Path 1045448" d="M51.473,6a4.3,4.3,0,1,1-4.3,4.3,4.3,4.3,0,0,1,4.3-4.3ZM12.755,6a4.3,4.3,0,1,1-4.3,4.3,4.3,4.3,0,0,1,4.3-4.3ZM45.02,33.963h-4.3V27.51a8.605,8.605,0,0,1,8.6-8.6h4.3a8.605,8.605,0,0,1,8.6,8.6v6.455h-4.3V49.02H45.02Zm-38.718,0H2V27.51a8.605,8.605,0,0,1,8.6-8.6h4.3a8.605,8.605,0,0,1,8.6,8.6v6.455h-4.3V49.02H6.3Z" transform="translate(-2 -6)" fill="#fe4040" fill-rule="evenodd"/>
          </g>
        </g>
        <g id="Outline" transform="translate(1.5 3.505)">
          <path id="Path_1045449" data-name="Path 1045449" d="M29.388,17.793a1.076,1.076,0,0,0-.394-1.469l-1.047-.6a4.934,4.934,0,0,0,0-3.38L29,11.733a1.075,1.075,0,0,0-1.078-1.861l-1.045.6a5.355,5.355,0,0,0-2.446-1.567l.406-.885a1.076,1.076,0,1,0-1.956-.9l-.7,1.524H19.207l-.858-1.587a1.076,1.076,0,1,0-1.893,1.023l.46.85a5.356,5.356,0,0,0-2.355,1.539l-1.045-.6a1.075,1.075,0,1,0-1.078,1.861l1.048.606a4.933,4.933,0,0,0,0,3.38l-1.048.6a1.076,1.076,0,1,0,1.075,1.863l1.047-.6a5.357,5.357,0,0,0,2.354,1.537l-.46.849a1.075,1.075,0,1,0,1.891,1.025l.86-1.588h2.972l.7,1.524a1.076,1.076,0,1,0,1.956-.9l-.406-.885a5.354,5.354,0,0,0,2.445-1.566l1.046.6a1.076,1.076,0,0,0,1.469-.394Zm-6.52-.538h-4.3a3.227,3.227,0,0,1,0-6.453h4.3a3.227,3.227,0,1,1,0,6.453Z" transform="translate(10.472 -0.058)"/>
          <path id="Path_1045450" data-name="Path 1045450" d="M19.878,9.5h-4.3a1.076,1.076,0,0,0,0,2.151h4.3a1.076,1.076,0,0,0,0-2.151Z" transform="translate(13.463 3.395)"/>
          <path id="Path_1045451" data-name="Path 1045451" d="M29.387,22.263a1.07,1.07,0,0,0-1.469-.392l-1.045.6a5.355,5.355,0,0,0-2.446-1.567l.406-.885a1.076,1.076,0,0,0-1.956-.9l-.7,1.524H19.207l-.858-1.587a1.076,1.076,0,1,0-1.893,1.023l.46.85a5.356,5.356,0,0,0-2.355,1.539l-1.045-.6a1.075,1.075,0,1,0-1.078,1.861l1.048.606a4.933,4.933,0,0,0,0,3.38l-1.048.6a1.076,1.076,0,1,0,1.076,1.863l1.047-.6a5.357,5.357,0,0,0,2.354,1.537l-.46.849a1.075,1.075,0,1,0,1.891,1.025l.86-1.588h2.972l.7,1.524a1.076,1.076,0,1,0,1.956-.9l-.406-.885a5.354,5.354,0,0,0,2.445-1.566l1.046.6a1.076,1.076,0,0,0,1.075-1.863l-1.047-.6a4.934,4.934,0,0,0,0-3.38L29,23.733a1.075,1.075,0,0,0,.392-1.469Zm-6.519,6.992h-4.3a3.227,3.227,0,0,1,0-6.453h4.3a3.227,3.227,0,1,1,0,6.453Z" transform="translate(10.472 13.754)"/>
          <path id="Path_1045452" data-name="Path 1045452" d="M19.878,21.5h-4.3a1.076,1.076,0,0,0,0,2.151h4.3a1.076,1.076,0,0,0,0-2.151Z" transform="translate(13.463 17.207)"/>
          <path id="Path_1045453" data-name="Path 1045453" d="M29.424,26.878a24.955,24.955,0,0,1-16.49,0,1.075,1.075,0,1,0-.718,2.027,26.963,26.963,0,0,0,17.926,0,1.075,1.075,0,1,0-.718-2.027Z" transform="translate(10.01 23.326)"/>
          <path id="Path_1045454" data-name="Path 1045454" d="M12.025,7.891a24.871,24.871,0,0,1,20.611,0,1.075,1.075,0,0,0,.9-1.954,27.022,27.022,0,0,0-22.409,0,1.075,1.075,0,0,0,.9,1.954Z" transform="translate(8.859 -3.505)"/>
          <path id="Path_1045455" data-name="Path 1045455" d="M40.326,14.336A9.616,9.616,0,0,0,33.481,11.5h-4.3a9.682,9.682,0,0,0-9.68,9.68v6.453a1.075,1.075,0,0,0,1.076,1.076H23.8V42.69a1.075,1.075,0,0,0,1.075,1.076H37.784a1.075,1.075,0,0,0,1.076-1.076V28.708h3.227a1.075,1.075,0,0,0,1.076-1.076V21.18A9.615,9.615,0,0,0,40.326,14.336Zm.684,12.221H38.859V21.18a1.076,1.076,0,1,0-2.151,0V41.614h-4.3V29.784a1.075,1.075,0,1,0-2.151,0V41.614h-4.3V21.18a1.076,1.076,0,1,0-2.151,0v5.378H21.651V21.18a7.53,7.53,0,0,1,7.529-7.529h4.3a7.529,7.529,0,0,1,7.529,7.528Z" transform="translate(19.218 5.697)"/>
          <path id="Path_1045456" data-name="Path 1045456" d="M25.161,27.633V21.18a9.68,9.68,0,0,0-9.679-9.68h-4.3A9.682,9.682,0,0,0,1.5,21.18v6.453a1.075,1.075,0,0,0,1.076,1.076H5.8v3.227a1.076,1.076,0,1,0,2.151,0V21.18a1.076,1.076,0,0,0-2.151,0v5.378H3.651V21.18a7.53,7.53,0,0,1,7.529-7.529h4.3a7.529,7.529,0,0,1,7.529,7.528v5.378H20.859V21.18a1.076,1.076,0,0,0-2.151,0V41.614h-4.3V29.784a1.076,1.076,0,1,0-2.151,0V41.614h-4.3V40.539a1.076,1.076,0,0,0-2.151,0V42.69a1.075,1.075,0,0,0,1.076,1.076H19.784a1.075,1.075,0,0,0,1.075-1.076V28.708h3.227a1.075,1.075,0,0,0,1.076-1.076Z" transform="translate(-1.5 5.697)"/>
          <circle id="Ellipse_12741" data-name="Ellipse 12741" cx="1.076" cy="1.076" r="1.076" transform="translate(4.302 40.858)"/>
          <path id="Path_1045457" data-name="Path 1045457" d="M9.878,16.255A5.378,5.378,0,1,0,4.5,10.878a5.378,5.378,0,0,0,5.378,5.378Zm0-8.6a3.227,3.227,0,1,1-3.227,3.227A3.227,3.227,0,0,1,9.878,7.651Z" transform="translate(1.953 -1.209)"/>
          <path id="Path_1045458" data-name="Path 1045458" d="M27.878,16.255A5.378,5.378,0,1,0,22.5,10.878,5.378,5.378,0,0,0,27.878,16.255Zm0-8.6a3.227,3.227,0,1,1-3.227,3.227,3.227,3.227,0,0,1,3.227-3.227Z" transform="translate(22.671 -1.209)"/>
        </g>
      </g>
    </g>
  </g>
</svg>
