<svg xmlns="http://www.w3.org/2000/svg" xmlns:xlink="http://www.w3.org/1999/xlink" width="113" height="113" viewBox="0 0 113 113">
  <defs>
    <filter id="Path_982547" x="0" y="0" width="113" height="113" filterUnits="userSpaceOnUse">
      <feOffset dy="3" input="SourceAlpha"/>
      <feGaussianBlur stdDeviation="3" result="blur"/>
      <feFlood flood-opacity="0.161"/>
      <feComposite operator="in" in2="blur"/>
      <feComposite in="SourceGraphic"/>
    </filter>
  </defs>
  <g id="Group_1204675" data-name="Group 1204675" transform="translate(-901.56 -3560.272)">
    <g id="Group_1204490" data-name="Group 1204490">
      <g id="Group_1203994" data-name="Group 1203994" transform="translate(0 1619.397)">
        <g id="Group_1203499" data-name="Group 1203499" transform="translate(0 -197.72)">
          <g id="Group_1202591" data-name="Group 1202591" transform="translate(910.561 2144.596)">
            <g id="Group_1172010" data-name="Group 1172010" transform="translate(0)">
              <g id="Group_1171046" data-name="Group 1171046">
                <g id="Group_1148525" data-name="Group 1148525">
                  <g transform="matrix(1, 0, 0, 1, -9, -6)" filter="url(#Path_982547)">
                    <g id="Path_982547-2" data-name="Path 982547" transform="translate(9 6)" fill="#fff6f9">
                      <path d="M 47.5 93.5 C 41.28937149047852 93.5 35.26533508300781 92.28397369384766 29.59518623352051 89.88570404052734 C 24.11771965026855 87.56893157958984 19.19813346862793 84.25196075439453 14.97309303283691 80.02691650390625 C 10.74804019927979 75.80186462402344 7.431066513061523 70.88229370117188 5.114293098449707 65.40481567382812 C 2.716026782989502 59.73468017578125 1.5 53.71062850952148 1.5 47.5 C 1.5 41.28937149047852 2.716026782989502 35.26533508300781 5.114293098449707 29.59518623352051 C 7.431066513061523 24.11771965026855 10.74804019927979 19.19813346862793 14.97309303283691 14.97309303283691 C 19.19813346862793 10.74804019927979 24.11771965026855 7.431066513061523 29.59518623352051 5.114293098449707 C 35.26533508300781 2.716026782989502 41.28937149047852 1.5 47.5 1.5 C 53.71062850952148 1.5 59.73468017578125 2.716026782989502 65.40481567382812 5.114293098449707 C 70.88229370117188 7.431066513061523 75.80186462402344 10.74804019927979 80.02691650390625 14.97309303283691 C 84.25196075439453 19.19813346862793 87.56893157958984 24.11771965026855 89.88570404052734 29.59518623352051 C 92.28397369384766 35.26533508300781 93.5 41.28937149047852 93.5 47.5 C 93.5 53.71062850952148 92.28397369384766 59.73468017578125 89.88570404052734 65.40481567382812 C 87.56893157958984 70.88229370117188 84.25196075439453 75.80186462402344 80.02691650390625 80.02691650390625 C 75.80186462402344 84.25196075439453 70.88229370117188 87.56893157958984 65.40481567382812 89.88570404052734 C 59.73468017578125 92.28397369384766 53.71062850952148 93.5 47.5 93.5 Z" stroke="none"/>
                      <path d="M 47.5 3 C 41.49121475219727 3 35.66376876831055 4.176155090332031 30.17950439453125 6.495796203613281 C 24.88084411621094 8.736953735351562 20.12152099609375 11.94598388671875 16.03375244140625 16.03375244140625 C 11.94598388671875 20.12152099609375 8.736953735351562 24.88084411621094 6.495796203613281 30.17950439453125 C 4.176155090332031 35.66376876831055 3 41.49121475219727 3 47.5 C 3 53.50878524780273 4.176155090332031 59.33623123168945 6.495796203613281 64.82049560546875 C 8.736953735351562 70.11915588378906 11.94598388671875 74.87847900390625 16.03375244140625 78.96624755859375 C 20.12152099609375 83.05401611328125 24.88084411621094 86.26304626464844 30.17950439453125 88.50419616699219 C 35.66376876831055 90.82384490966797 41.49121475219727 92 47.5 92 C 53.50878524780273 92 59.33623123168945 90.82384490966797 64.82049560546875 88.50419616699219 C 70.11915588378906 86.26304626464844 74.87847900390625 83.05401611328125 78.96624755859375 78.96624755859375 C 83.05401611328125 74.87847900390625 86.26304626464844 70.11915588378906 88.50419616699219 64.82049560546875 C 90.82384490966797 59.33623123168945 92 53.50878524780273 92 47.5 C 92 41.49121475219727 90.82384490966797 35.66376876831055 88.50419616699219 30.17950439453125 C 86.26304626464844 24.88084411621094 83.05401611328125 20.12152099609375 78.96624755859375 16.03375244140625 C 74.87847900390625 11.94598388671875 70.11915588378906 8.736953735351562 64.82049560546875 6.495796203613281 C 59.33623123168945 4.176155090332031 53.50878524780273 3 47.5 3 M 47.5 0 C 73.7335205078125 0 95 21.2664794921875 95 47.5 C 95 73.7335205078125 73.7335205078125 95 47.5 95 C 21.2664794921875 95 0 73.7335205078125 0 47.5 C 0 21.2664794921875 21.2664794921875 0 47.5 0 Z" stroke="none" fill="#8b5e6f"/>
                    </g>
                  </g>
                </g>
              </g>
            </g>
          </g>
        </g>
      </g>
      <g id="gender-equality_12608736" transform="translate(899.046 3573.436)">
        <g id="Group_1204488" data-name="Group 1204488" transform="translate(30 7.5)">
          <path id="Path_1046930" data-name="Path 1046930" d="M77.817,296.3v2.828a6.061,6.061,0,1,0,12.123,0V296.3H83.582a1.927,1.927,0,0,1-1.922-1.922,1.927,1.927,0,0,1-1.922,1.922Z" transform="translate(-71.691 -257.629)" fill="#eb975d" fill-rule="evenodd"/>
          <path id="Path_1046931" data-name="Path 1046931" d="M103.6,373.875a6,6,0,0,1-2.854-.719l-.309,3.091c0,1.376,1.416,2.492,3.163,2.492s3.163-1.115,3.163-2.492l-.309-3.09A6.007,6.007,0,0,1,103.6,373.875Z" transform="translate(-91.416 -326.31)" fill="#b25e1e" fill-rule="evenodd"/>
          <path id="Path_1046932" data-name="Path 1046932" d="M42.187,399.772c-1.747,0-3.163-1.116-3.163-2.492l-4.416,1.92c-2.2.955-4.608,2.832-4.608,5.445v6.372H54.375v-6.372c0-2.613-2.412-4.489-4.608-5.445l-4.416-1.92C45.351,398.656,43.934,399.772,42.187,399.772Z" transform="translate(-30 -347.343)" fill="#fff" fill-rule="evenodd"/>
          <path id="Path_1046933" data-name="Path 1046933" d="M57.425,235.811h6.358v2.828a6.078,6.078,0,0,1-3.208,5.343l.309,3.09,4.416,1.92a10.553,10.553,0,0,1,2.326,1.374V234.9a9.9,9.9,0,1,0-19.81,0v15.461a10.558,10.558,0,0,1,2.326-1.374l4.416-1.92.309-3.09a6.078,6.078,0,0,1-3.208-5.343v-2.828h1.922a1.927,1.927,0,0,0,1.922-1.922A1.928,1.928,0,0,0,57.425,235.811Z" transform="translate(-45.534 -197.135)" fill="#a1c5e4" fill-rule="evenodd"/>
          <path id="Path_1046934" data-name="Path 1046934" d="M143.5,21.913A14.413,14.413,0,1,0,157.913,7.5,14.415,14.415,0,0,0,143.5,21.913Zm20.659,5.765H151.667V23.835h12.491v3.843Zm0-7.687H151.667V16.148h12.491Z" transform="translate(-128.959 -7.5)" fill="#fff" fill-rule="evenodd"/>
          <path id="Path_1046935" data-name="Path 1046935" d="M207.249,86.53H219.74V82.687H207.249V86.53Zm0-7.687H219.74V75H207.249Z" transform="translate(-184.541 -66.352)" fill="#fe8" fill-rule="evenodd"/>
          <path id="Path_1046936" data-name="Path 1046936" d="M303.573,301.882a1.52,1.52,0,0,0-1.515,1.515v1.922a1.52,1.52,0,0,0,1.515,1.515h2.441a6.033,6.033,0,0,1-.113-1.164v-3.789h-2.328Zm14.451,0v3.788a6.025,6.025,0,0,1-.113,1.164h2.441a1.52,1.52,0,0,0,1.515-1.515V303.4a1.52,1.52,0,0,0-1.515-1.515h-2.328Z" transform="translate(-267.203 -264.167)" fill="#ffdfb9" fill-rule="evenodd"/>
          <path id="Path_1046937" data-name="Path 1046937" d="M327.509,234.85h7.873v-2.273a7.577,7.577,0,1,0-15.154,0v2.273h3.437a1.927,1.927,0,0,0,1.922-1.922A1.928,1.928,0,0,0,327.509,234.85Z" transform="translate(-283.045 -197.135)" fill="#eb975d" fill-rule="evenodd"/>
          <path id="Path_1046938" data-name="Path 1046938" d="M344.179,292.593V288.8h-6.358a1.927,1.927,0,0,1-1.922-1.922,1.927,1.927,0,0,1-1.922,1.922h-1.922v3.788a6.062,6.062,0,0,0,12.123,0Z" transform="translate(-293.358 -251.09)" fill="#fdf1e0" fill-rule="evenodd"/>
          <rect id="Rectangle_417396" data-name="Rectangle 417396" width="2.883" height="3.843" transform="translate(22.708 8.648)" fill="#ffe000"/>
          <rect id="Rectangle_417397" data-name="Rectangle 417397" width="2.883" height="3.843" transform="translate(22.708 16.335)" fill="#ffe000"/>
          <path id="Path_1046939" data-name="Path 1046939" d="M143.5,21.913a14.415,14.415,0,0,0,14.413,14.413q.73,0,1.441-.072a14.414,14.414,0,0,1,0-28.683q-.711-.071-1.441-.072A14.415,14.415,0,0,0,143.5,21.913Z" transform="translate(-128.959 -7.5)" fill="#abe6fc" fill-rule="evenodd"/>
          <path id="Path_1046940" data-name="Path 1046940" d="M59.163,225.106a9.9,9.9,0,0,0-11.346,9.8v15.461a10.561,10.561,0,0,1,2.326-1.374l.557-.242V234.9A9.941,9.941,0,0,1,59.163,225.106Z" transform="translate(-45.534 -197.135)" fill="#4d94c9" fill-rule="evenodd"/>
          <path id="Path_1046941" data-name="Path 1046941" d="M77.817,307.619v2.828a6.079,6.079,0,0,0,6.062,6.061,6.014,6.014,0,0,0,1.441-.175,6.084,6.084,0,0,1-4.62-5.886V307.36a1.907,1.907,0,0,1-.961.259H77.817Z" transform="translate(-71.691 -268.943)" fill="#b25e1e" fill-rule="evenodd"/>
          <path id="Path_1046942" data-name="Path 1046942" d="M33.339,417.344C31.575,418.4,30,420.027,30,422.138v6.372h2.883v-9.255A4.28,4.28,0,0,1,33.339,417.344Z" transform="translate(-30 -364.837)" fill="#abe6fc" fill-rule="evenodd"/>
          <path id="Path_1046943" data-name="Path 1046943" d="M281.348,399.2c-2.386.852-4.608,2.911-4.608,5.445v6.372h26.3v-6.372c0-2.535-2.222-4.593-4.608-5.445l-5.377-1.92c0,1.376-1.416,2.492-3.163,2.492s-3.163-1.116-3.163-2.492Z" transform="translate(-245.129 -347.344)" fill="#fe8" fill-rule="evenodd"/>
          <path id="Path_1046944" data-name="Path 1046944" d="M280.1,416.7a5.9,5.9,0,0,0-3.357,4.876v6.372h2.883v-9.255A4.518,4.518,0,0,1,280.1,416.7Z" transform="translate(-245.129 -364.276)" fill="#ffe000" fill-rule="evenodd"/>
          <path id="Path_1046945" data-name="Path 1046945" d="M357.844,373.875a6,6,0,0,1-2.854-.719l-.309,3.091c0,1.376,1.416,2.492,3.163,2.492s3.163-1.115,3.163-2.492l-.309-3.09A6.007,6.007,0,0,1,357.844,373.875Z" transform="translate(-313.084 -326.31)" fill="#ffdfb9" fill-rule="evenodd"/>
          <path id="Path_1046946" data-name="Path 1046946" d="M332.057,300.119v3.789a6.079,6.079,0,0,0,6.061,6.061,6.014,6.014,0,0,0,1.441-.175,6.084,6.084,0,0,1-4.62-5.886V299.86a1.906,1.906,0,0,1-.961.259h-1.922Z" transform="translate(-293.359 -262.404)" fill="#ffdfb9" fill-rule="evenodd"/>
          <path id="Path_1046947" data-name="Path 1046947" d="M329.247,225.139a7.574,7.574,0,0,0-9.018,7.438v2.273h2.883v-2.273A7.606,7.606,0,0,1,329.247,225.139Z" transform="translate(-283.046 -197.135)" fill="#b25e1e" fill-rule="evenodd"/>
          <path id="Path_1046948" data-name="Path 1046948" d="M373.8,251.3v-1.922m3.843,3.843V251.3" transform="translate(-329.758 -218.394)" fill="none" stroke="#fff" stroke-miterlimit="22.926" stroke-width="1" fill-rule="evenodd"/>
          <path id="Path_1046949" data-name="Path 1046949" d="M119.564,251.3v-1.922m3.843,3.843V251.3" transform="translate(-108.09 -218.394)" fill="none" stroke="#fff" stroke-miterlimit="22.926" stroke-width="1" fill-rule="evenodd"/>
        </g>
        <g id="Group_1204489" data-name="Group 1204489" transform="translate(30 7.5)">
          <path id="Path_1046950" data-name="Path 1046950" d="M354.989,373.156l-.309,3.091m6.326,0-.309-3.091" transform="translate(-313.084 -326.31)" fill="none" stroke="#000" stroke-miterlimit="22.926" stroke-width="1" fill-rule="evenodd"/>
          <path id="Path_1046951" data-name="Path 1046951" d="M344.18,301.883v3.788a6.061,6.061,0,1,1-12.123,0v-3.788" transform="translate(-293.359 -264.168)" fill="none" stroke="#000" stroke-miterlimit="22.926" stroke-width="1" fill-rule="evenodd"/>
          <path id="Path_1046952" data-name="Path 1046952" d="M306.014,293.757h-2.441a1.52,1.52,0,0,1-1.515-1.515V290.32a1.52,1.52,0,0,1,1.515-1.515h4.25a1.927,1.927,0,0,0,1.922-1.922,1.927,1.927,0,0,0,1.922,1.922h8.686a1.52,1.52,0,0,1,1.515,1.515v1.922a1.52,1.52,0,0,1-1.515,1.515h-2.441" transform="translate(-267.203 -251.09)" fill="none" stroke="#000" stroke-miterlimit="22.926" stroke-width="1" fill-rule="evenodd"/>
          <path id="Path_1046953" data-name="Path 1046953" d="M335.382,234.85v-2.273a7.577,7.577,0,1,0-15.154,0v2.273" transform="translate(-283.045 -197.135)" fill="none" stroke="#000" stroke-miterlimit="22.926" stroke-width="1" fill-rule="evenodd"/>
          <path id="Path_1046954" data-name="Path 1046954" d="M286.725,397.28l-5.377,1.92c-2.386.852-4.608,2.911-4.608,5.444v6.372h19.571m1.922,0h4.8v-6.372c0-2.535-2.222-4.593-4.608-5.445l-5.377-1.92" transform="translate(-245.129 -347.343)" fill="none" stroke="#000" stroke-miterlimit="22.926" stroke-width="1" fill-rule="evenodd"/>
          <path id="Path_1046955" data-name="Path 1046955" d="M361.005,397.28c0,1.376-1.416,2.492-3.163,2.492s-3.163-1.116-3.163-2.492" transform="translate(-313.083 -347.343)" fill="none" stroke="#000" stroke-miterlimit="22.926" stroke-width="1" fill-rule="evenodd"/>
          <path id="Path_1046956" data-name="Path 1046956" d="M100.749,373.156l-.309,3.091m6.326,0-.309-3.091" transform="translate(-91.416 -326.31)" fill="none" stroke="#000" stroke-miterlimit="22.926" stroke-width="1" fill-rule="evenodd"/>
          <path id="Path_1046957" data-name="Path 1046957" d="M89.94,296.3v2.828a6.061,6.061,0,1,1-12.123,0V296.3h1.922a1.927,1.927,0,0,0,1.922-1.922,1.927,1.927,0,0,0,1.922,1.922Z" transform="translate(-71.691 -257.629)" fill="none" stroke="#000" stroke-miterlimit="22.926" stroke-width="1" fill-rule="evenodd"/>
          <path id="Path_1046958" data-name="Path 1046958" d="M39.024,397.28l-4.416,1.92C32.285,400.21,30,402.111,30,404.644v6.372H54.375v-6.372c0-2.535-2.285-4.434-4.608-5.445l-4.416-1.92" transform="translate(-30 -347.343)" fill="none" stroke="#000" stroke-miterlimit="22.926" stroke-width="1" fill-rule="evenodd"/>
          <path id="Path_1046959" data-name="Path 1046959" d="M106.765,397.28c0,1.376-1.416,2.492-3.163,2.492s-3.163-1.116-3.163-2.492" transform="translate(-91.415 -347.343)" fill="none" stroke="#000" stroke-miterlimit="22.926" stroke-width="1" fill-rule="evenodd"/>
          <path id="Path_1046960" data-name="Path 1046960" d="M47.817,250.366V234.9a9.9,9.9,0,1,1,19.81,0v15.461" transform="translate(-45.534 -197.135)" fill="none" stroke="#000" stroke-miterlimit="22.926" stroke-width="1" fill-rule="evenodd"/>
          <path id="Path_1046961" data-name="Path 1046961" d="M207.249,75H219.74v3.843H207.249V75Zm0,7.687H219.74V86.53H207.249Z" transform="translate(-184.541 -66.352)" fill="none" stroke="#000" stroke-miterlimit="22.926" stroke-width="1" fill-rule="evenodd"/>
          <path id="Path_1046962" data-name="Path 1046962" d="M148.448,11.045a14.416,14.416,0,1,1-1.4,1.4" transform="translate(-128.959 -7.5)" fill="none" stroke="#000" stroke-miterlimit="22.926" stroke-width="1" fill-rule="evenodd"/>
        </g>
      </g>
    </g>
  </g>
</svg>
