<svg xmlns="http://www.w3.org/2000/svg" xmlns:xlink="http://www.w3.org/1999/xlink" width="113" height="113" viewBox="0 0 113 113">
  <defs>
    <filter id="Path_982547" x="0" y="0" width="113" height="113" filterUnits="userSpaceOnUse">
      <feOffset dy="3" input="SourceAlpha"/>
      <feGaussianBlur stdDeviation="3" result="blur"/>
      <feFlood flood-opacity="0.161"/>
      <feComposite operator="in" in2="blur"/>
      <feComposite in="SourceGraphic"/>
    </filter>
  </defs>
  <g id="Group_1204642" data-name="Group 1204642" transform="translate(-1217 -3840.336)">
    <g id="Group_1204080" data-name="Group 1204080">
      <g id="Group_1203961" data-name="Group 1203961" transform="translate(0.44 1899.461)">
        <g id="Group_1203500" data-name="Group 1203500" transform="translate(0 -197.72)">
          <g id="Group_1202592" data-name="Group 1202592" transform="translate(1225.561 2144.596)">
            <g id="Group_1172010" data-name="Group 1172010" transform="translate(0)">
              <g id="Group_1171046" data-name="Group 1171046">
                <g id="Group_1148525" data-name="Group 1148525">
                  <g transform="matrix(1, 0, 0, 1, -9, -6)" filter="url(#Path_982547)">
                    <g id="Path_982547-2" data-name="Path 982547" transform="translate(9 6)" fill="#ffeef4">
                      <path d="M 47.5 93.5 C 41.28937149047852 93.5 35.26533508300781 92.28397369384766 29.59518623352051 89.88570404052734 C 24.11771965026855 87.56893157958984 19.19813346862793 84.25196075439453 14.97309303283691 80.02691650390625 C 10.74804019927979 75.80186462402344 7.431066513061523 70.88229370117188 5.114293098449707 65.40481567382812 C 2.716026782989502 59.73468017578125 1.5 53.71062850952148 1.5 47.5 C 1.5 41.28937149047852 2.716026782989502 35.26533508300781 5.114293098449707 29.59518623352051 C 7.431066513061523 24.11771965026855 10.74804019927979 19.19813346862793 14.97309303283691 14.97309303283691 C 19.19813346862793 10.74804019927979 24.11771965026855 7.431066513061523 29.59518623352051 5.114293098449707 C 35.26533508300781 2.716026782989502 41.28937149047852 1.5 47.5 1.5 C 53.71062850952148 1.5 59.73468017578125 2.716026782989502 65.40481567382812 5.114293098449707 C 70.88229370117188 7.431066513061523 75.80186462402344 10.74804019927979 80.02691650390625 14.97309303283691 C 84.25196075439453 19.19813346862793 87.56893157958984 24.11771965026855 89.88570404052734 29.59518623352051 C 92.28397369384766 35.26533508300781 93.5 41.28937149047852 93.5 47.5 C 93.5 53.71062850952148 92.28397369384766 59.73468017578125 89.88570404052734 65.40481567382812 C 87.56893157958984 70.88229370117188 84.25196075439453 75.80186462402344 80.02691650390625 80.02691650390625 C 75.80186462402344 84.25196075439453 70.88229370117188 87.56893157958984 65.40481567382812 89.88570404052734 C 59.73468017578125 92.28397369384766 53.71062850952148 93.5 47.5 93.5 Z" stroke="none"/>
                      <path d="M 47.5 3 C 41.49121475219727 3 35.66376876831055 4.176155090332031 30.17950439453125 6.495796203613281 C 24.88084411621094 8.736953735351562 20.12152099609375 11.94598388671875 16.03375244140625 16.03375244140625 C 11.94598388671875 20.12152099609375 8.736953735351562 24.88084411621094 6.495796203613281 30.17950439453125 C 4.176155090332031 35.66376876831055 3 41.49121475219727 3 47.5 C 3 53.50878524780273 4.176155090332031 59.33623123168945 6.495796203613281 64.82049560546875 C 8.736953735351562 70.11915588378906 11.94598388671875 74.87847900390625 16.03375244140625 78.96624755859375 C 20.12152099609375 83.05401611328125 24.88084411621094 86.26304626464844 30.17950439453125 88.50419616699219 C 35.66376876831055 90.82384490966797 41.49121475219727 92 47.5 92 C 53.50878524780273 92 59.33623123168945 90.82384490966797 64.82049560546875 88.50419616699219 C 70.11915588378906 86.26304626464844 74.87847900390625 83.05401611328125 78.96624755859375 78.96624755859375 C 83.05401611328125 74.87847900390625 86.26304626464844 70.11915588378906 88.50419616699219 64.82049560546875 C 90.82384490966797 59.33623123168945 92 53.50878524780273 92 47.5 C 92 41.49121475219727 90.82384490966797 35.66376876831055 88.50419616699219 30.17950439453125 C 86.26304626464844 24.88084411621094 83.05401611328125 20.12152099609375 78.96624755859375 16.03375244140625 C 74.87847900390625 11.94598388671875 70.11915588378906 8.736953735351562 64.82049560546875 6.495796203613281 C 59.33623123168945 4.176155090332031 53.50878524780273 3 47.5 3 M 47.5 0 C 73.7335205078125 0 95 21.2664794921875 95 47.5 C 95 73.7335205078125 73.7335205078125 95 47.5 95 C 21.2664794921875 95 0 73.7335205078125 0 47.5 C 0 21.2664794921875 21.2664794921875 0 47.5 0 Z" stroke="none" fill="#8b5e6f"/>
                    </g>
                  </g>
                </g>
              </g>
            </g>
          </g>
        </g>
      </g>
      <g id="pnemonia-virus-shield-protection" transform="translate(1242 3862)">
        <path id="Path_1045477" data-name="Path 1045477" d="M61,30V54H47a8,8,0,0,1-8-8V8A22,22,0,0,1,61,30Z" fill="#ff9811"/>
        <path id="Path_1045478" data-name="Path 1045478" d="M25,8V46a8,8,0,0,1-8,8H3V30A22,22,0,0,1,25,8Z" fill="#ff9811"/>
        <path id="Path_1045479" data-name="Path 1045479" d="M16.39,24.42a1.726,1.726,0,0,1-.45.05,1.935,1.935,0,0,1-.44-3.82L30,17.25V3h4V17.25l14.5,3.4a1.937,1.937,0,1,1-.89,3.77L32,20.62Z" fill="#c0ab91"/>
        <path id="Path_1045480" data-name="Path 1045480" d="M50,29v4.68a28,28,0,0,1-11.609,22.7L32,61l-7.19-5.59A28.006,28.006,0,0,1,14,33.31V29l18-5Z" fill="#46f8ff"/>
        <circle id="Ellipse_12742" data-name="Ellipse 12742" cx="5" cy="5" r="5" transform="translate(27 35)" fill="#d80027"/>
        <path id="Path_1045481" data-name="Path 1045481" d="M39,7a1,1,0,0,0-1,1v9.16l-3-.7V3a1,1,0,0,0-1-1H30a1,1,0,0,0-1,1V16.46l-3,.7V8a1,1,0,0,0-1-1A23.029,23.029,0,0,0,2,30V54a1,1,0,0,0,1,1H17a8.972,8.972,0,0,0,4.48-1.2,29.888,29.888,0,0,0,2.72,2.4l7.19,5.59a1,1,0,0,0,1.2.02l6.39-4.62a28.8,28.8,0,0,0,3.78-3.27A8.935,8.935,0,0,0,47,55H61a1,1,0,0,0,1-1V30A23.029,23.029,0,0,0,39,7ZM30.23,18.22a1,1,0,0,0,.77-.97V4h2V17.25a1,1,0,0,0,.77.97l14.51,3.4a.943.943,0,0,1,.72.92.914.914,0,0,1-.36.73.96.96,0,0,1-.8.18l-15.6-3.8a1.291,1.291,0,0,0-.48,0l-15.6,3.8a.96.96,0,0,1-.8-.18.914.914,0,0,1-.36-.73.943.943,0,0,1,.72-.92ZM38,23.11v1.52l-5.73-1.59a.991.991,0,0,0-.54,0L26,24.63V23.11l6-1.46ZM17,53H4V30A21.034,21.034,0,0,1,24,9.02v8.61l-8.73,2.05a2.931,2.931,0,0,0-1.15,5.16,2.889,2.889,0,0,0,1.81.63,2.787,2.787,0,0,0,.7-.08L24,23.6v1.58L13.73,28.04A1,1,0,0,0,13,29v4.31a28.733,28.733,0,0,0,7.07,18.96A6.871,6.871,0,0,1,17,53Zm20.81,2.57-5.79,4.18-6.6-5.13A26.83,26.83,0,0,1,15,33.31V29.76l17-4.72,17,4.72v3.92A27.057,27.057,0,0,1,37.81,55.57ZM60,53H47a6.958,6.958,0,0,1-2.85-.62A29.073,29.073,0,0,0,51,33.68V29a1,1,0,0,0-.73-.96L40,25.18V23.6l7.37,1.79a2.935,2.935,0,1,0,1.36-5.71L40,17.63V9.02A21.034,21.034,0,0,1,60,30Z"/>
        <path id="Path_1045482" data-name="Path 1045482" d="M41,38a1,1,0,0,0-1,1H37.91a5.964,5.964,0,0,0-1.025-2.471l1.479-1.479a1,1,0,1,0,1.414-1.414l-1.414-1.414a1,1,0,1,0-1.414,1.414l-1.479,1.479A5.964,5.964,0,0,0,33,34.09V32a1,1,0,0,0,0-2H31a1,1,0,0,0,0,2v2.09a5.964,5.964,0,0,0-2.471,1.025L27.05,33.636a1,1,0,1,0-1.414-1.414l-1.414,1.414a1,1,0,1,0,1.414,1.414l1.479,1.479A5.964,5.964,0,0,0,26.09,39H24a1,1,0,0,0-2,0v2a1,1,0,0,0,2,0h2.09a5.964,5.964,0,0,0,1.025,2.471L25.636,44.95a1,1,0,1,0-1.414,1.414l1.414,1.414a1,1,0,1,0,1.414-1.414l1.479-1.479A5.964,5.964,0,0,0,31,45.91V48a1,1,0,0,0,0,2h2a1,1,0,0,0,0-2V45.91a5.964,5.964,0,0,0,2.471-1.025l1.479,1.479a1,1,0,1,0,1.414,1.414l1.414-1.414a1,1,0,1,0-1.414-1.414l-1.479-1.479A5.964,5.964,0,0,0,37.91,41H40a1,1,0,0,0,2,0V39A1,1,0,0,0,41,38Zm-9,6a4,4,0,1,1,4-4A4,4,0,0,1,32,44Z"/>
      </g>
    </g>
  </g>
</svg>
