<svg xmlns="http://www.w3.org/2000/svg" xmlns:xlink="http://www.w3.org/1999/xlink" width="118" height="118" viewBox="0 0 118 118">
  <defs>
    <filter id="Path_982547" x="0" y="0" width="118" height="118" filterUnits="userSpaceOnUse">
      <feOffset dy="3" input="SourceAlpha"/>
      <feGaussianBlur stdDeviation="3" result="blur"/>
      <feFlood flood-opacity="0.161"/>
      <feComposite operator="in" in2="blur"/>
      <feComposite in="SourceGraphic"/>
    </filter>
  </defs>
  <g id="Group_1204655" data-name="Group 1204655" transform="translate(-204.5 -7888.47)">
    <g id="Group_1204152" data-name="Group 1204152">
      <g id="Group_1203970" data-name="Group 1203970" transform="translate(0 3206.639)">
        <g id="Group_1203665" data-name="Group 1203665" transform="translate(213.5 4687.832)">
          <g id="Group_1178314" data-name="Group 1178314">
            <g id="Group_1173988" data-name="Group 1173988">
              <g id="Group_1172010" data-name="Group 1172010">
                <g id="Group_1171046" data-name="Group 1171046">
                  <g id="Group_1148525" data-name="Group 1148525">
                    <g transform="matrix(1, 0, 0, 1, -9, -6)" filter="url(#Path_982547)">
                      <g id="Path_982547-2" data-name="Path 982547" transform="translate(9 6)" fill="#f4f4fd">
                        <path d="M 50 98.5 C 43.45188522338867 98.5 37.10042953491211 97.21787261962891 31.12207221984863 94.68923950195312 C 25.34691429138184 92.24655914306641 20.15997123718262 88.74931335449219 15.70532894134521 84.29468536376953 C 11.2506856918335 79.84004211425781 7.753442764282227 74.65309906005859 5.310757160186768 68.8779296875 C 2.782128572463989 62.89957046508789 1.5 56.54811477661133 1.5 50 C 1.5 43.45188522338867 2.782128572463989 37.10042953491211 5.310757160186768 31.12207221984863 C 7.753442764282227 25.34691429138184 11.2506856918335 20.15997123718262 15.70532894134521 15.70532894134521 C 20.15997123718262 11.2506856918335 25.34691429138184 7.753442764282227 31.12207221984863 5.310757160186768 C 37.10042953491211 2.782128572463989 43.45188522338867 1.5 50 1.5 C 56.54811477661133 1.5 62.89957046508789 2.782128572463989 68.8779296875 5.310757160186768 C 74.65309906005859 7.753442764282227 79.84004211425781 11.2506856918335 84.29468536376953 15.70532894134521 C 88.74931335449219 20.15997123718262 92.24655914306641 25.34691429138184 94.68923950195312 31.12207221984863 C 97.21787261962891 37.10042953491211 98.5 43.45188522338867 98.5 50 C 98.5 56.54811477661133 97.21787261962891 62.89957046508789 94.68923950195312 68.8779296875 C 92.24655914306641 74.65309906005859 88.74931335449219 79.84004211425781 84.29468536376953 84.29468536376953 C 79.84004211425781 88.74931335449219 74.65309906005859 92.24655914306641 68.8779296875 94.68923950195312 C 62.89957046508789 97.21787261962891 56.54811477661133 98.5 50 98.5 Z" stroke="none"/>
                        <path d="M 50 3 C 43.65372467041016 3 37.49886322021484 4.242263793945312 31.70639801025391 6.6922607421875 C 26.11003112792969 9.059326171875 21.08335113525391 12.44861602783203 16.76598358154297 16.76598358154297 C 12.44861602783203 21.08335113525391 9.059326171875 26.11003112792969 6.6922607421875 31.70639801025391 C 4.242263793945312 37.49886322021484 3 43.65372467041016 3 50 C 3 56.34627532958984 4.242263793945312 62.50113677978516 6.6922607421875 68.29360198974609 C 9.059326171875 73.88996887207031 12.44861602783203 78.91666412353516 16.76598358154297 83.23401641845703 C 21.08335113525391 87.55138397216797 26.11003112792969 90.940673828125 31.70639801025391 93.3077392578125 C 37.49886322021484 95.75773620605469 43.65372467041016 97 50 97 C 56.34627532958984 97 62.50113677978516 95.75773620605469 68.29360198974609 93.3077392578125 C 73.88996887207031 90.940673828125 78.91666412353516 87.55138397216797 83.23401641845703 83.23401641845703 C 87.55138397216797 78.91666412353516 90.940673828125 73.88996887207031 93.3077392578125 68.29360198974609 C 95.75773620605469 62.50113677978516 97 56.34627532958984 97 50 C 97 43.65372467041016 95.75773620605469 37.49886322021484 93.3077392578125 31.70639801025391 C 90.940673828125 26.11003112792969 87.55138397216797 21.08335113525391 83.23401641845703 16.76598358154297 C 78.91666412353516 12.44861602783203 73.88996887207031 9.059326171875 68.29360198974609 6.6922607421875 C 62.50113677978516 4.242263793945312 56.34627532958984 3 50 3 M 50 0 C 77.61424255371094 0 100 22.38577270507812 100 50 C 100 77.61424255371094 77.61424255371094 100 50 100 C 22.38577270507812 100 0 77.61424255371094 0 50 C 0 22.38577270507812 22.38577270507812 0 50 0 Z" stroke="none" fill="#6f6e88"/>
                      </g>
                    </g>
                  </g>
                </g>
              </g>
            </g>
          </g>
        </g>
      </g>
      <g id="patient-care_17958342" transform="translate(233.179 7915.482)">
        <g id="Group_1204151" data-name="Group 1204151" transform="translate(1.35 3.237)">
          <g id="Group_1204138" data-name="Group 1204138" transform="translate(23.835 27.681)">
            <path id="Path_1045804" data-name="Path 1045804" d="M228.332,246.831l-4.611.58-7.945,3.057a3.814,3.814,0,0,0-2.5,3.14L212,264.334h28.33l3.057-10.725a3.816,3.816,0,0,0-2.5-3.14l-7.948-3.057Z" transform="translate(-212.003 -246.831)" fill="#ec5a6e" fill-rule="evenodd"/>
          </g>
          <g id="Group_1204139" data-name="Group 1204139" transform="translate(35.553 23.004)">
            <path id="Path_1045805" data-name="Path 1045805" d="M312.4,206.762h9.221v5.257l-4.611,4.1-4.611-4.1Z" transform="translate(-312.401 -206.762)" fill="#ffaa7b" fill-rule="evenodd"/>
          </g>
          <g id="Group_1204140" data-name="Group 1204140" transform="translate(29.907 1.408)">
            <path id="Path_1045806" data-name="Path 1045806" d="M264.025,38h20.514V29.865a8.156,8.156,0,0,0-8.133-8.133h-4.245a8.157,8.157,0,0,0-8.136,8.133Z" transform="translate(-264.025 -21.732)" fill="#945230" fill-rule="evenodd"/>
          </g>
          <g id="Group_1204141" data-name="Group 1204141" transform="translate(23.835 32.473)">
            <path id="Path_1045807" data-name="Path 1045807" d="M233.1,297.3l1.718-5.706a4.346,4.346,0,0,1,5.4-2.9c.109.036.218.073.326.115a4.385,4.385,0,0,1,2-.927,3.751,3.751,0,0,1,.854,1.985L240.333,300.6H212l.561-4.726a21.668,21.668,0,0,1,2.972-1.233c3.46-1.016,6.55.175,9.37,2.15h6.157A4.31,4.31,0,0,1,233.1,297.3Z" transform="translate(-212.003 -287.889)" fill="#d62f45" fill-rule="evenodd"/>
          </g>
          <g id="Group_1204142" data-name="Group 1204142" transform="translate(45.596 34.615)">
            <path id="Path_1045808" data-name="Path 1045808" d="M398.445,316.541l2.5-8.3a2.824,2.824,0,0,1,3.509-1.88,2.77,2.77,0,0,1,1.072.6c-.046.082-.086.165-.125.251-.768,1.738.983,7.183.251,9.291-.175.5-4.221-.729-4.71-.531l-2.408.97A2.784,2.784,0,0,0,398.445,316.541Z" transform="translate(-398.445 -306.243)" fill="#ffaa7b" fill-rule="evenodd"/>
          </g>
          <g id="Group_1204143" data-name="Group 1204143" transform="translate(13.75 33.912)">
            <path id="Path_1045809" data-name="Path 1045809" d="M169.545,304.177c-5.89,13.331-4.532,10.531-17.338,17.935-9.531,3.654-15.725-2.2-26.615,0l.122-13.694,8.69.389c3.229.145,6.157-5.128,13.687.393h6.646a2.826,2.826,0,0,1,2.79,2.431l2.536-1.022a1.712,1.712,0,0,0,.953-.923c.825-1.88,3.1-7.157,3.377-7.783a2.816,2.816,0,1,1,5.151,2.276Z" transform="translate(-125.592 -300.224)" fill="#ffc7ab" fill-rule="evenodd"/>
          </g>
          <g id="Group_1204144" data-name="Group 1204144" transform="translate(9.192 40.408)">
            <path id="Path_1045810" data-name="Path 1045810" d="M86.54,355.876h9.238V372.97H86.54Z" transform="translate(-86.54 -355.876)" fill="#6ba7ff" fill-rule="evenodd"/>
          </g>
          <g id="Group_1204145" data-name="Group 1204145" transform="translate(0 0)">
            <path id="Path_1045811" data-name="Path 1045811" d="M29.673,32.572v8.469L19.06,32.572H7.787V9.667h27.1v22.9Z" transform="translate(-7.787 -9.667)" fill="#8dcafc" fill-rule="evenodd"/>
          </g>
          <g id="Group_1204146" data-name="Group 1204146" transform="translate(3.641 6.527)">
            <path id="Path_1045812" data-name="Path 1045812" d="M41.645,65.588h4.535v2.658h2.658v4.535H46.179v2.662H41.645V72.781H38.983V68.246h2.662Z" transform="translate(-38.983 -65.588)" fill="#eaf6ff" fill-rule="evenodd"/>
          </g>
          <g id="Group_1204147" data-name="Group 1204147" transform="translate(23.152)">
            <path id="Path_1045813" data-name="Path 1045813" d="M206.154,9.667H210.1v22.9h-3.948Z" transform="translate(-206.154 -9.667)" fill="#62a7e0" fill-rule="evenodd"/>
          </g>
          <g id="Group_1204148" data-name="Group 1204148" transform="translate(39.827 1.408)">
            <path id="Path_1045814" data-name="Path 1045814" d="M357.156,38h2.46V29.865a8.156,8.156,0,0,0-8.133-8.133h-2.46a8.154,8.154,0,0,1,8.133,8.133Z" transform="translate(-349.023 -21.732)" fill="#7a3e20" fill-rule="evenodd"/>
          </g>
          <g id="Group_1204149" data-name="Group 1204149" transform="translate(29.788 14.337)">
            <path id="Path_1045815" data-name="Path 1045815" d="M266.085,132.5h14.6a3.077,3.077,0,1,1,0,6.154h-14.6a3.077,3.077,0,0,1,0-6.154Z" transform="translate(-263.008 -132.501)" fill="#ffaa7b" fill-rule="evenodd"/>
          </g>
          <g id="Group_1204150" data-name="Group 1204150" transform="translate(32.367 9.441)">
            <path id="Path_1045816" data-name="Path 1045816" d="M285.6,93.173h6.524a2.073,2.073,0,0,0,1.448-.564l1.959-1.791a.991.991,0,0,1,1.659.729v.963a.662.662,0,0,0,.66.663H300.2a.494.494,0,0,1,.495.495v5.557a7.8,7.8,0,0,1-15.593,0V93.668A.494.494,0,0,1,285.6,93.173Z" transform="translate(-285.103 -90.556)" fill="#ffc7ab" fill-rule="evenodd"/>
          </g>
        </g>
        <path id="Path_1045817" data-name="Path 1045817" d="M33.5,24.466a8.66,8.66,0,0,0,2.6,3.557v2.915L28.663,33.8a4.642,4.642,0,0,0-3.023,3.809l-.518,4.375a.816.816,0,0,0,.714.906.827.827,0,0,0,.1.006.816.816,0,0,0,.809-.72L27.26,37.8a3,3,0,0,1,1.989-2.479l7.491-2.883,4.245,3.771a.816.816,0,0,0,1.083,0l4.245-3.771L53.8,35.319l.019.007c.064.023.134.054.2.084a.816.816,0,1,0,.684-1.481c-.093-.043-.2-.093-.325-.136l-7.423-2.856V28.023a8.66,8.66,0,0,0,2.6-3.557,3.885,3.885,0,0,0,3.177-3.829,3.8,3.8,0,0,0-.122-.951v-6.93a8.97,8.97,0,0,0-8.958-8.961H39.4a8.97,8.97,0,0,0-8.958,8.961v6.923a3.932,3.932,0,0,0-.119.958A3.884,3.884,0,0,0,33.5,24.466Zm11.83,6.665-3.8,3.376-3.8-3.376V29.07a8.6,8.6,0,0,0,7.6,0Zm3.19-9.8a6.966,6.966,0,0,1-.319,2.089c0,.01-.007.02-.01.031a7.015,7.015,0,0,1-2.457,3.461.821.821,0,0,0-.128.093,6.967,6.967,0,0,1-8.153,0,.809.809,0,0,0-.127-.092,7.017,7.017,0,0,1-2.457-3.461c0-.01-.007-.021-.01-.031a6.967,6.967,0,0,1-.319-2.089V16.09h6.211a2.866,2.866,0,0,0,2-.778l1.964-1.793a.161.161,0,0,1,.191-.032.158.158,0,0,1,.1.159v.964A1.479,1.479,0,0,0,46.48,16.09h2.037Zm1.546,1.2a8.641,8.641,0,0,0,.085-1.2V18.8a2.246,2.246,0,0,1-.085,3.731Zm-17.99-9.775A7.337,7.337,0,0,1,39.4,5.425h4.253a7.337,7.337,0,0,1,7.327,7.33v4.639a3.883,3.883,0,0,0-.832-.424v-1.2a1.312,1.312,0,0,0-1.311-1.311h-2.2v-.812a1.808,1.808,0,0,0-3.026-1.332l-1.967,1.8a1.251,1.251,0,0,1-.894.349H34.216a1.312,1.312,0,0,0-1.311,1.311v1.2a3.891,3.891,0,0,0-.832.415V12.755Zm.832,6.044v2.534a8.64,8.64,0,0,0,.085,1.195,2.248,2.248,0,0,1-.085-3.729ZM57.977,36.648a3.641,3.641,0,0,0-4.1.821,3.615,3.615,0,0,0-5.186,2.156l-2,6.637a3.63,3.63,0,0,0-2.428-.937H37.871c-5.537-3.956-8.894-2.372-11.353-1.211a5.991,5.991,0,0,1-2.578.819l-3.358-.15V43.658a.816.816,0,0,0-.816-.816H10.515a.816.816,0,0,0-.816.816V60.772a.816.816,0,0,0,.816.816h9.252a.816.816,0,0,0,.816-.816V59.38a44.58,44.58,0,0,1,7.4.9,39.557,39.557,0,0,0,7.1.845,18.934,18.934,0,0,0,6.935-1.292.827.827,0,0,0,.116-.055c2.161-1.249,3.944-2.222,5.377-3,7.313-3.988,7.4-4.192,12.109-14.845l.214-.485a3.644,3.644,0,0,0-1.856-4.793ZM18.951,59.957H11.33V44.474h7.621ZM50.249,40.1a1.989,1.989,0,0,1,2.776-1.231c-.208.478-.57,1.316-1,2.309-.778,1.8-1.746,4.035-2.221,5.118a.9.9,0,0,1-.515.5l-1.2.485Zm8.092.685-.214.484c-2.309,5.228-3.469,7.852-4.869,9.574-1.368,1.683-3.093,2.623-6.529,4.5-1.428.779-3.2,1.747-5.356,2.99-4.835,1.835-8.851,1.11-13.1.342a45.65,45.65,0,0,0-7.689-.923V46.416l3.285.147a7.173,7.173,0,0,0,3.347-.974c2.356-1.112,5.026-2.372,9.911,1.21a.815.815,0,0,0,.482.158h6.653a2.01,2.01,0,0,1,1.643.861c.021.03.041.061.06.092l.023.039c.021.035.04.071.059.107l.016.033c.018.037.035.074.051.113l.014.038c.015.037.029.075.041.113.006.02.011.04.017.06.013.046.025.092.035.139s.016.079.022.12a1.975,1.975,0,0,1,.022.288,2.007,2.007,0,0,1-2,2H31.77a.816.816,0,1,0,0,1.631H44.261a3.64,3.64,0,0,0,3.631-3.477l2.006-.809a2.548,2.548,0,0,0,1.4-1.353c.479-1.092,1.448-3.331,2.227-5.131.557-1.287,1.038-2.4,1.153-2.66a2,2,0,0,1,3.666,1.619Zm-41.153-21.4A.816.816,0,0,1,18,18.57h7.268a.816.816,0,0,1,0,1.631H18a.816.816,0,0,1-.816-.816Zm0,3.147A.816.816,0,0,1,18,21.717h7.268a.816.816,0,0,1,0,1.631H18a.816.816,0,0,1-.816-.816ZM12.978,19.6V17.754h1.849a.816.816,0,0,0,.816-.816V12.4a.816.816,0,0,0-.816-.816H12.978V9.737a.816.816,0,0,0-.816-.816H7.626a.816.816,0,0,0-.816.816v1.846H4.961a.816.816,0,0,0-.816.816v4.54a.816.816,0,0,0,.816.816H6.81V19.6a.816.816,0,0,0,.816.816h4.537a.816.816,0,0,0,.816-.816Zm-1.631-2.665v1.849H8.441V16.939a.816.816,0,0,0-.816-.816H5.777V13.214H7.626a.816.816,0,0,0,.816-.816V10.553h2.906V12.4a.816.816,0,0,0,.816.816h1.849v2.909H12.162a.815.815,0,0,0-.816.815ZM22.719,35.252a.816.816,0,0,0,1.324-.637V26.95h4.4a.816.816,0,0,0,.816-.816V3.2a.816.816,0,0,0-.816-.816H1.316A.816.816,0,0,0,.5,3.2V26.135a.816.816,0,0,0,.816.816h11ZM2.131,4.018h25.5v21.3h-4.4a.816.816,0,0,0-.816.816V32.92L13.11,25.5a.816.816,0,0,0-.509-.178H2.131ZM17.188,9.952A.816.816,0,0,1,18,9.136h7.268a.816.816,0,1,1,0,1.631H18a.816.816,0,0,1-.816-.816Zm0-3.147A.816.816,0,0,1,18,5.99h7.268a.816.816,0,1,1,0,1.631H18a.816.816,0,0,1-.816-.816Zm0,6.29A.816.816,0,0,1,18,12.28h7.268a.816.816,0,1,1,0,1.631H18a.816.816,0,0,1-.816-.816Zm0,3.147A.816.816,0,0,1,18,15.426h7.268a.816.816,0,1,1,0,1.631H18a.816.816,0,0,1-.816-.816Z" transform="translate(0)"/>
      </g>
    </g>
  </g>
</svg>
