<svg xmlns="http://www.w3.org/2000/svg" xmlns:xlink="http://www.w3.org/1999/xlink" width="108" height="108" viewBox="0 0 108 108">
  <defs>
    <filter id="Path_904820" x="0" y="0" width="108" height="108" filterUnits="userSpaceOnUse">
      <feOffset dy="3" input="SourceAlpha"/>
      <feGaussianBlur stdDeviation="3" result="blur"/>
      <feFlood flood-opacity="0.161"/>
      <feComposite operator="in" in2="blur"/>
      <feComposite in="SourceGraphic"/>
    </filter>
  </defs>
  <g id="Group_1204625" data-name="Group 1204625" transform="translate(-220.238 -482.145)">
    <g id="Group_1204012" data-name="Group 1204012">
      <g id="Group_1202880" data-name="Group 1202880" transform="translate(23.762 11.021)">
        <g id="Group_1177315" data-name="Group 1177315" transform="translate(205.477 477.124)">
          <g id="Group_1173585" data-name="Group 1173585" transform="translate(0 0)">
            <g id="Group_1173428" data-name="Group 1173428">
              <g id="Group_1171958" data-name="Group 1171958">
                <g id="Group_1167341" data-name="Group 1167341">
                  <g id="Group_1166792" data-name="Group 1166792">
                    <g transform="matrix(1, 0, 0, 1, -9, -6)" filter="url(#Path_904820)">
                      <g id="Path_904820-2" data-name="Path 904820" transform="translate(9 6)" fill="#fff6f9">
                        <path d="M 44.99999618530273 88.49999237060547 C 39.12687301635742 88.49999237060547 33.43022155761719 87.35006713867188 28.06829643249512 85.08216857910156 C 22.88852119445801 82.89130401611328 18.23629570007324 79.75457763671875 14.24084663391113 75.75914001464844 C 10.24540901184082 71.76369476318359 7.108683586120605 67.11146545410156 4.917821407318115 61.93169403076172 C 2.649921178817749 56.56976699829102 1.499996185302734 50.87311553955078 1.499996185302734 44.99999237060547 C 1.499996185302734 39.12686920166016 2.649921178817749 33.43021774291992 4.917821407318115 28.06829261779785 C 7.108683586120605 22.88851737976074 10.24540901184082 18.23630523681641 14.24084663391113 14.24085521697998 C 18.23629570007324 10.24540519714355 22.88852119445801 7.108692169189453 28.06829643249512 4.917829990386963 C 33.43022155761719 2.649929761886597 39.12687301635742 1.500004887580872 44.99999618530273 1.500004887580872 C 50.87311935424805 1.500004887580872 56.56977081298828 2.649929761886597 61.93169784545898 4.917829990386963 C 67.11147308349609 7.108692169189453 71.76369476318359 10.24540519714355 75.75914764404297 14.24085521697998 C 79.75458526611328 18.23630523681641 82.89131164550781 22.88851737976074 85.08216857910156 28.06829261779785 C 87.35007476806641 33.43021774291992 88.5 39.12686920166016 88.5 44.99999237060547 C 88.5 50.87311553955078 87.35007476806641 56.56976699829102 85.08216857910156 61.93169403076172 C 82.89131164550781 67.11146545410156 79.75458526611328 71.76369476318359 75.75914764404297 75.75914001464844 C 71.76369476318359 79.75457763671875 67.11147308349609 82.89130401611328 61.93169784545898 85.08216857910156 C 56.56977081298828 87.35006713867188 50.87311935424805 88.49999237060547 44.99999618530273 88.49999237060547 Z" stroke="none"/>
                        <path d="M 44.99999618530273 2.999992370605469 C 39.32870864868164 2.999992370605469 33.82865142822266 4.11004638671875 28.65262603759766 6.299331665039062 C 23.65165710449219 8.414566040039062 19.15968322753906 11.44333648681641 15.301513671875 15.30150604248047 C 11.44333648681641 19.15967559814453 8.414566040039062 23.65164947509766 6.299339294433594 28.65262222290039 C 4.110054016113281 33.82864761352539 2.999992370605469 39.32870483398438 2.999992370605469 44.99999237060547 C 2.999992370605469 50.67127990722656 4.110054016113281 56.17132186889648 6.299339294433594 61.34736633300781 C 8.414566040039062 66.34833526611328 11.44333648681641 70.84029388427734 15.301513671875 74.69846343994141 C 19.15968322753906 78.55663299560547 23.65165710449219 81.58540344238281 28.65262603759766 83.70063781738281 C 33.82865142822266 85.88992309570312 39.32870864868164 86.99997711181641 44.99999618530273 86.99997711181641 C 50.67128372192383 86.99997711181641 56.17134094238281 85.88992309570312 61.34736633300781 83.70063781738281 C 66.34834289550781 81.58540344238281 70.84030914306641 78.55663299560547 74.69847869873047 74.69846343994141 C 78.55665588378906 70.84029388427734 81.58542633056641 66.34833526611328 83.70065307617188 61.34736633300781 C 85.88993835449219 56.17132186889648 87 50.67127990722656 87 44.99999237060547 C 87 39.32870483398438 85.88993835449219 33.82864761352539 83.70065307617188 28.65262222290039 C 81.58542633056641 23.65164947509766 78.55665588378906 19.15967559814453 74.69847869873047 15.30150604248047 C 70.84030914306641 11.44333648681641 66.34834289550781 8.414566040039062 61.34736633300781 6.299331665039062 C 56.17134094238281 4.11004638671875 50.67128372192383 2.999992370605469 44.99999618530273 2.999992370605469 M 44.99999618530273 -7.62939453125e-06 C 69.85281372070312 -7.62939453125e-06 90 20.14717864990234 90 44.99999237060547 C 90 69.85279083251953 69.85281372070312 89.99997711181641 44.99999618530273 89.99997711181641 C 20.14717864990234 89.99997711181641 -7.62939453125e-06 69.85279083251953 -7.62939453125e-06 44.99999237060547 C -7.62939453125e-06 20.14717864990234 20.14717864990234 -7.62939453125e-06 44.99999618530273 -7.62939453125e-06 Z" stroke="none" fill="#8b5e6f"/>
                      </g>
                    </g>
                  </g>
                </g>
              </g>
            </g>
          </g>
        </g>
      </g>
      <g id="children_547464" transform="translate(245.719 504.732)">
        <path id="Path_1045226" data-name="Path 1045226" d="M71.383,17.974c0-.029,0-.058,0-.087-.005-.121-.012-.242-.021-.363v-.008c-.009-.119-.021-.238-.034-.356,0-.025-.006-.05-.009-.075-.014-.121-.03-.242-.049-.362v0c-.019-.12-.04-.239-.062-.358l-.011-.058a10.177,10.177,0,0,0-2.263-4.722,10.533,10.533,0,0,0-18.2,4c-.613,2.263-.256,3.824-.366,5.87H71.39V18.34C71.39,18.218,71.387,18.1,71.383,17.974Z" transform="translate(-44.659 -6.967)" fill="#996123"/>
        <path id="Path_1045227" data-name="Path 1045227" d="M61.923,7.776a10.525,10.525,0,0,0-11.2,7.706c-.613,2.263-.256,3.825-.366,5.87h2.1V18.239A10.508,10.508,0,0,1,61.923,7.776Z" transform="translate(-44.659 -6.865)" fill="#8e551c"/>
        <path id="Path_1045228" data-name="Path 1045228" d="M38.151,256.745c-1.959-17.347-1.848-16.858-2.024-17.706a4.811,4.811,0,0,0-2.266-3.166l-.04-.01a6.841,6.841,0,0,0-1.623-.694l-5.648-1.406a.728.728,0,0,1-.311-.668v-3.073a8.43,8.43,0,0,1-6.708.018v3.055a.728.728,0,0,1-.311.668c-4.778,1.273-5.841,1.243-7.272,2.1l-.04.01a4.811,4.811,0,0,0-2.266,3.166c-.176.849-.054.262-2.024,17.706-.188,2.173.958,3.741,3.058,3.741H35.094C37.19,260.486,38.34,258.926,38.151,256.745Z" transform="translate(-6.648 -204.492)" fill="#eab883"/>
        <path id="Path_1045229" data-name="Path 1045229" d="M10.368,296.95c-.011-.642-.046.179,1.909-18.581a4.872,4.872,0,0,1,2.108-3.8,8.18,8.18,0,0,0-2.439.9l-.04.01a4.811,4.811,0,0,0-2.266,3.166c-.176.849-.054.262-2.024,17.706-.188,2.178.962,3.741,3.058,3.741h2.774A2.965,2.965,0,0,1,10.368,296.95Z" transform="translate(-6.646 -244.097)" fill="#d8a373"/>
        <path id="Path_1045230" data-name="Path 1045230" d="M44.22,272.15a4.811,4.811,0,0,0-2.266-3.166l-.04-.01a6.84,6.84,0,0,0-1.623-.694l-4.072-1.014a6.378,6.378,0,0,1-10.482,0c-3.306.9-4.332.891-5.7,1.708l-.04.01a4.811,4.811,0,0,0-2.266,3.166c-.17.821-.125.88-1.033,8.855H22.67L22,293.6H39.95l-.666-12.592h5.969C44.332,272.926,44.391,272.977,44.22,272.15Z" transform="translate(-14.741 -237.603)" fill="#7ebc7e"/>
        <path id="Path_1045231" data-name="Path 1045231" d="M16.7,287.5h2.712l.959-9.129a4.872,4.872,0,0,1,2.108-3.8,7.987,7.987,0,0,0-2.439.9l-.04.01a5.678,5.678,0,0,0-1.313,1.143C17.5,278.07,17.682,278.924,16.7,287.5Z" transform="translate(-14.74 -244.096)" fill="#5eaa5e"/>
        <g id="Group_1204008" data-name="Group 1204008" transform="translate(5.178 13.011)">
          <path id="Path_1045232" data-name="Path 1045232" d="M222.728,119.423A2.547,2.547,0,0,1,220,121.617v-4.388A2.547,2.547,0,0,1,222.728,119.423Z" transform="translate(-200.651 -117.229)" fill="#eab883"/>
          <path id="Path_1045233" data-name="Path 1045233" d="M45.692,119.423a2.547,2.547,0,0,0,2.731,2.194v-4.388A2.547,2.547,0,0,0,45.692,119.423Z" transform="translate(-45.692 -117.229)" fill="#eab883"/>
        </g>
        <g id="Group_1204009" data-name="Group 1204009" transform="translate(5.174 14.262)">
          <path id="Path_1045234" data-name="Path 1045234" d="M220,129.749v1.887c1.911,0,3.364-1.656,2.456-3.137A2.9,2.9,0,0,1,220,129.749Z" transform="translate(-200.647 -128.498)" fill="#d8a373"/>
          <path id="Path_1045235" data-name="Path 1045235" d="M45.94,128.5c-.916,1.493.562,3.137,2.456,3.137v-1.887A2.9,2.9,0,0,1,45.94,128.5Z" transform="translate(-45.661 -128.497)" fill="#d8a373"/>
        </g>
        <path id="Path_1045236" data-name="Path 1045236" d="M87.966,268l-2.942-.732a6.378,6.378,0,0,1-10.482,0L71.6,268A9.355,9.355,0,0,0,87.966,268Z" transform="translate(-63.547 -237.603)" fill="#9ad89a"/>
        <path id="Path_1045237" data-name="Path 1045237" d="M74.627,267.384c-.028-.039-.056-.077-.084-.117L71.6,268a9.355,9.355,0,0,0,11.97,4.025A9.34,9.34,0,0,1,74.627,267.384Z" transform="translate(-63.548 -237.603)" fill="#91ce91"/>
        <path id="Path_1045238" data-name="Path 1045238" d="M100.394,236.313l1.357-.408a1.514,1.514,0,0,0,1.078-1.45V230.85a8.261,8.261,0,0,1-2.834-.671v3.055a.728.728,0,0,1-.311.668l-1.576.392A6.409,6.409,0,0,0,100.394,236.313Z" transform="translate(-87.114 -204.632)" fill="#d8a373"/>
        <path id="Path_1045239" data-name="Path 1045239" d="M85.693,83.864c-.074-.018-.157-.041-.247-.07h0a5.807,5.807,0,0,1-3.267-3.1.587.587,0,0,0-1.049.018c-1.01,2.125-5.07,5.07-11.285,3.37a.443.443,0,0,0-.56.43c.021,5.07-.049,5.264.07,6.188a8.421,8.421,0,0,0,15.512,3.331c1.7-2.741,1.18-4.9,1.255-9.518A.67.67,0,0,0,85.693,83.864Z" transform="translate(-61.485 -71.462)" fill="#f7cf9c"/>
        <path id="Path_1045240" data-name="Path 1045240" d="M72.235,120.8c-.022-.108-.051-.227-.094-.555-.1-.787-.07-6.173-.07-6.189a14.456,14.456,0,0,1-2.213-.429.443.443,0,0,0-.56.43v5.094a8.411,8.411,0,0,0,9.805,8.3C78.893,127.417,72.918,124.231,72.235,120.8Z" transform="translate(-61.5 -101)" fill="#eab883"/>
        <path id="Path_1045241" data-name="Path 1045241" d="M453.65,168.488c-1.164-3.61-2.851-5.709-3.834-6.471a2.027,2.027,0,0,1-1.744,1.45,8.929,8.929,0,0,1,1.356,6.216.953.953,0,0,0,1.143.992l2.05-.425A1.371,1.371,0,0,0,453.65,168.488Z" transform="translate(-398.236 -144.035)" fill="#996123"/>
        <circle id="Ellipse_12732" data-name="Ellipse 12732" cx="2.02" cy="2.02" r="2.02" transform="translate(47.731 15.513)" fill="#d83d3d"/>
        <path id="Path_1045242" data-name="Path 1045242" d="M430.688,140.208a2.02,2.02,0,1,0,2.374,2.547A2.019,2.019,0,0,1,430.688,140.208Z" transform="translate(-381.374 -124.646)" fill="#b72c2c"/>
        <path id="Path_1045243" data-name="Path 1045243" d="M234.262,168.488c1.164-3.61,2.851-5.709,3.834-6.471a2.027,2.027,0,0,0,1.743,1.45,8.929,8.929,0,0,0-1.356,6.216.953.953,0,0,1-1.143.992l-2.05-.425A1.371,1.371,0,0,1,234.262,168.488Z" transform="translate(-208.096 -144.035)" fill="#8e551c"/>
        <circle id="Ellipse_12733" data-name="Ellipse 12733" cx="2.02" cy="2.02" r="2.02" transform="translate(29.807 15.513)" fill="#d83d3d"/>
        <path id="Path_1045244" data-name="Path 1045244" d="M271.253,140.589a2.019,2.019,0,1,0-1.786,3.21A2.019,2.019,0,0,1,271.253,140.589Z" transform="translate(-237.801 -124.254)" fill="#b72c2c"/>
        <path id="Path_1045245" data-name="Path 1045245" d="M257.533,239.888a4.957,4.957,0,0,0-2.4-4l-.04-.01c-1.425-.854-2.461-.819-7.272-2.1a.728.728,0,0,1-.311-.668v-3.057a8.418,8.418,0,0,1-6.709-.014v3.071a.728.728,0,0,1-.311.668c-4.778,1.273-5.841,1.243-7.272,2.1l-.04.01a4.927,4.927,0,0,0-2.4,4l-1.888,16.87c-.189,2.187.97,3.741,3.058,3.741h24.418a2.966,2.966,0,0,0,3.079-3.14C259.453,256.7,259.506,257.677,257.533,239.888Z" transform="translate(-203.36 -204.505)" fill="#efd0a3"/>
        <path id="Path_1045246" data-name="Path 1045246" d="M231.662,295.857c1.956-18.313,1.835-17.791,2.024-18.7a4.8,4.8,0,0,1,2.219-3.136,9.04,9.04,0,0,0-2.686.959l-.04.01a4.927,4.927,0,0,0-2.4,4l-1.888,16.87c-.189,2.187.97,3.741,3.058,3.741h2.774C232.621,299.6,231.474,298.035,231.662,295.857Z" transform="translate(-203.361 -243.604)" fill="#e2bf91"/>
        <path id="Path_1045247" data-name="Path 1045247" d="M285.389,10.287A11.052,11.052,0,0,0,267.3,18.8v2.915h22.077v-1.3C289.256,19.8,290.221,14.324,285.389,10.287Z" transform="translate(-237.522 -6.872)" fill="#996123"/>
        <path id="Path_1045248" data-name="Path 1045248" d="M269.915,18.785a11.059,11.059,0,0,1,9.728-10.993,11.056,11.056,0,0,0-12.348,10.993V21.7h2.62C269.915,20.607,269.915,19.855,269.915,18.785Z" transform="translate(-237.522 -6.856)" fill="#8e551c"/>
        <g id="Group_1204010" data-name="Group 1204010" transform="translate(29.773 12.649)">
          <path id="Path_1045249" data-name="Path 1045249" d="M267.3,116.157a2.435,2.435,0,0,0,2.62,2.194v-4.388A2.436,2.436,0,0,0,267.3,116.157Z" transform="translate(-267.295 -113.963)" fill="#efd0a3"/>
          <path id="Path_1045250" data-name="Path 1045250" d="M445.219,116.157a2.436,2.436,0,0,1-2.62,2.194v-4.388A2.436,2.436,0,0,1,445.219,116.157Z" transform="translate(-423.143 -113.963)" fill="#efd0a3"/>
        </g>
        <g id="Group_1204011" data-name="Group 1204011" transform="translate(29.771 13.915)">
          <path id="Path_1045251" data-name="Path 1045251" d="M267.524,125.366c-.806,1.443.448,3.122,2.374,3.122v-1.857A2.693,2.693,0,0,1,267.524,125.366Z" transform="translate(-267.276 -125.366)" fill="#e2bf91"/>
          <path id="Path_1045252" data-name="Path 1045252" d="M442.6,126.631v1.857c1.938,0,3.176-1.687,2.374-3.122A2.693,2.693,0,0,1,442.6,126.631Z" transform="translate(-423.14 -125.366)" fill="#e2bf91"/>
        </g>
        <path id="Path_1045253" data-name="Path 1045253" d="M269.115,276.288c-.515-4.47-.5-4.753-.664-5.553a4.812,4.812,0,0,0-2.266-3.166l-.04-.01c-1.406-.842-2.505-.836-6.367-1.875a5.264,5.264,0,0,1-1.375,4.27,4.554,4.554,0,0,1-7.731-3.261v-1.018c-3.959,1.065-5.005,1.048-6.4,1.883l-.04.01c-2.91,1.777-2.233,4.3-2.93,8.718l5.739,1.3-.772,14.6h17.911l-.772-14.6Z" transform="translate(-214.414 -236.188)" fill="#f9b938"/>
        <path id="Path_1045254" data-name="Path 1045254" d="M241.373,283.078l-.07.627,2.635.6c.667-6.138.622-6.272.8-7.147a4.8,4.8,0,0,1,2.219-3.136,9.039,9.039,0,0,0-2.686.959l-.04.01C241.338,276.755,241.975,279.36,241.373,283.078Z" transform="translate(-214.415 -243.605)" fill="#eaa224"/>
        <path id="Path_1045255" data-name="Path 1045255" d="M302.638,265.676l-2.882.717a7.437,7.437,0,1,0,14.871.008l-2.882-.717a5.264,5.264,0,0,1-1.375,4.27,4.554,4.554,0,0,1-7.731-3.261C302.638,266.66,302.638,265.628,302.638,265.676Z" transform="translate(-266.38 -236.188)" fill="#fcd249"/>
        <path id="Path_1045256" data-name="Path 1045256" d="M302.861,268.1a4.523,4.523,0,0,1-.223-1.408v-1.018l-2.882.717a7.438,7.438,0,0,0,8.905,7.441A7.459,7.459,0,0,1,302.861,268.1Z" transform="translate(-266.38 -236.187)" fill="#f2c136"/>
        <path id="Path_1045257" data-name="Path 1045257" d="M325.724,235.011a4.515,4.515,0,0,0,.422,1.912l2.206-.73a1.91,1.91,0,0,0,1.31-1.813v-3.665a8.3,8.3,0,0,1-2.755-.679v3.071a.728.728,0,0,1-.311.668l-.872.217C325.724,234.031,325.724,235.023,325.724,235.011Z" transform="translate(-289.466 -204.505)" fill="#e2bf91"/>
        <path id="Path_1045258" data-name="Path 1045258" d="M298.734,86.158c-1.889,3.142-5.9,2.659-7.324,2.371a.43.43,0,0,0-.515.423h0c0,5.955,0,5.567.007,5.833,0,.012,0,.025,0,.037s0,.041,0,.062c0,.081.009.161.016.241,0,.033.005.066.008.1.01.106.021.211.034.315v.008a8.427,8.427,0,0,0,14.465,4.69,9.134,9.134,0,0,0,2.3-7.014v-4.27h0a.43.43,0,0,0-.515-.423c-1.424.288-5.434.771-7.324-2.371A.677.677,0,0,0,298.734,86.158Z" transform="translate(-258.503 -76.303)" fill="#fce3bb"/>
        <path id="Path_1045259" data-name="Path 1045259" d="M295.776,121.579a9.131,9.131,0,0,1-2.107-6.8v-4.27a.425.425,0,0,1,.06-.215,10.683,10.683,0,0,1-2.318-.208.43.43,0,0,0-.515.423c0,5.943,0,5.567.007,5.833,0,.012,0,.025,0,.037s0,.041,0,.062q.006.121.016.241c0,.033.005.066.008.1.01.106.021.211.034.315v.008a8.415,8.415,0,0,0,9.735,7.209A8.53,8.53,0,0,1,295.776,121.579Z" transform="translate(-258.503 -97.86)" fill="#efd0a3"/>
        <path id="Path_1045260" data-name="Path 1045260" d="M55,35.281a5.734,5.734,0,0,0-2.374-4.317c-1.256-.986-2.969-1.257-7.645-2.421V26.408l.039-.02h0c.084-.04.32-.168.447-.245l.014-.008h0A9.251,9.251,0,0,0,49.7,20.711a8.292,8.292,0,0,1,.662,4.888,1.785,1.785,0,0,0,2.143,1.855l2.05-.425A2.2,2.2,0,0,0,56.207,24.2a15.027,15.027,0,0,0-3.613-6.424,2.836,2.836,0,0,0-.3-1.539,2.734,2.734,0,0,0,.374-1.118.827.827,0,0,0,.048-.275c-.148-1.557.644-5.415-1.824-9.248h0a.835.835,0,0,0-1.514.484c0,.307.1.363.392.882a10.2,10.2,0,0,1,1.283,5.311,3.74,3.74,0,0,0-1.269-.418,1.255,1.255,0,0,0-1.231-.445c-4.227.854-5.916-1.1-6.446-1.985a1.5,1.5,0,0,0-1.293-.732h0a1.5,1.5,0,0,0-1.293.732h0c-.53.881-2.218,2.838-6.446,1.985a1.256,1.256,0,0,0-1.231.445,3.737,3.737,0,0,0-1.269.418v-.346A10.246,10.246,0,0,1,47.062,3.82a.832.832,0,0,0,1.022-1.314,11.92,11.92,0,0,0-19.163,8.9c-.019.451-.008.515-.011,3.435a.828.828,0,0,0,.048.276,2.726,2.726,0,0,0,.351,1.078,2.835,2.835,0,0,0-.32,1.577A15.026,15.026,0,0,0,25.375,24.2h0a2.2,2.2,0,0,0,1.651,2.831,17.74,17.74,0,0,0,2.417.463,1.767,1.767,0,0,0,1.159-.434,1.982,1.982,0,0,0,.588-1.887,7.589,7.589,0,0,1,.719-4.511A9.1,9.1,0,0,0,35.8,25.923a8.56,8.56,0,0,0,.812.469v2.152c-5.282,1.315-6.549,1.422-8.094,2.781-1.534-1.346-2.747-1.45-8.091-2.781V26.39a9.024,9.024,0,0,0,1.121-.678,9.238,9.238,0,0,0,3.923-7.57c2.276-.5,3.333-2.8,2.1-4.536.023-3.622-.005-6.592-2.876-9.782A11.361,11.361,0,0,0,4.871,11.373V13.6s0,0,0,.006a2.74,2.74,0,0,0-.524,1.6,3.139,3.139,0,0,0,2.62,2.937A9,9,0,0,0,7.243,20.4a9.266,9.266,0,0,0,4.809,6.012v2.134c-4.866,1.211-6.39,1.437-7.645,2.421a5.55,5.55,0,0,0-2.226,3.414C2.032,35.1.144,52.169.143,52.181c-.228,2.636,1.281,4.645,3.887,4.645h7.279a.832.832,0,0,0,0-1.664H8.177L9,39.555a.832.832,0,0,0-1.662-.088l-.164,3.1H2.892c.776-6.734.769-7.421,1.01-8.218.775-2.559,3.682-2.954,3.755-3a10.181,10.181,0,0,0,17.16,0,6.531,6.531,0,0,1,1.929.733.849.849,0,0,0,.113.056,7.177,7.177,0,0,1,.581.45,5.9,5.9,0,0,0-.85,2.7l-.815,7.28h-.442l-.164-3.1a.832.832,0,0,0-1.662.088l.825,15.606H15.192a.832.832,0,0,0,0,1.664H35.477a.832.832,0,0,0,0-1.664H32.734l.825-15.606a.832.832,0,1,0-1.662-.088l-.048.9-4.05-.916c.589-3.883.032-5.892,2.488-7.367a7.709,7.709,0,0,1,2.307-.827,8.351,8.351,0,0,0,4.042,6.233h0l.012.007a8.321,8.321,0,0,0,2.042.85,8.289,8.289,0,0,0,6.578-1.027h0l.012-.007a8.263,8.263,0,0,0,3.75-6.048,7.689,7.689,0,0,1,2.276.82c2.476,1.487,1.867,3.441,2.488,7.368l-4.018.914-.048-.9a.832.832,0,0,0-.83-.788h-.045a.832.832,0,0,0-.787.875l.825,15.606H39.36a.832.832,0,0,0,0,1.664H53.006a3.789,3.789,0,0,0,3.911-3.973C56.927,52.137,56.97,53.037,55,35.281ZM51.885,19.429a15.25,15.25,0,0,1,2.738,5.28.529.529,0,0,1-.048.433.535.535,0,0,1-.357.258l-2.05.425a.121.121,0,0,1-.144-.129c.007-.127.017-.262.028-.4a9.329,9.329,0,0,0-.849-5.3A2.819,2.819,0,0,0,51.885,19.429Zm-1.822-5.786a1.231,1.231,0,0,1,0,2.4Zm0,4.137a3.977,3.977,0,0,0,.877-.307,1.2,1.2,0,0,1-.893,1.208C50.049,18.658,50.061,17.889,50.063,17.781ZM29.414,25.825l-2.05-.425a.539.539,0,0,1-.4-.691h0a15.247,15.247,0,0,1,2.738-5.28,2.828,2.828,0,0,0,.682.562C28.721,23.14,29.972,25.94,29.414,25.825Zm2.148-12.182v2.4A1.231,1.231,0,0,1,31.562,13.643Zm-.918,3.81a3.982,3.982,0,0,0,.918.327c.009.851.006.74.016.911C31.571,18.691,30.607,18.044,30.644,17.454ZM7.054,44.234,6.476,55.161c-1.964-.106-3.164.3-4.045-.589a2.445,2.445,0,0,1-.649-1.733c-.01-.587.024-.412.924-8.605H7.054ZM25.468,16.4v-2.4A1.231,1.231,0,0,1,25.468,16.4Zm-18.5,0a1.232,1.232,0,0,1,0-2.4Zm.317-4.192a3.809,3.809,0,0,0-.749.177c0-.773-.011-1.251.028-1.764A9.677,9.677,0,0,1,16.5,1.695l.09,0a9.685,9.685,0,0,1,9.3,9.257c.016.972.007.1.01,1.435a3.787,3.787,0,0,0-.665-.165,1.53,1.53,0,0,0-.7-.587c-.11-.048-.139-.039-.335-.1a5.026,5.026,0,0,1-2.773-2.684,1.419,1.419,0,0,0-2.539.046c-.789,1.659-4.348,4.557-10.314,2.925A1.267,1.267,0,0,0,7.284,12.213Zm3.249,10.959c-2.334-2.718-1.9-4.831-1.9-9.618a12.264,12.264,0,0,0,7.639-.41,8.2,8.2,0,0,0,3.906-3.122A6.5,6.5,0,0,0,23.8,13.155c0,.919,0,4.187,0,4.25a7.878,7.878,0,0,1-2.239,6.125,7.714,7.714,0,0,1-5.708,2.2c-.124-.006-.249-.015-.373-.027s-.248-.027-.371-.045A7.594,7.594,0,0,1,10.533,23.172ZM19.7,30.079l.253.063a5.536,5.536,0,0,1-7.433,0l.253-.063a.844.844,0,0,0,.142-.049,1.523,1.523,0,0,0,.8-1.426V27.056a9.285,9.285,0,0,0,5.044-.011V28.6A1.458,1.458,0,0,0,19.7,30.079Zm-10.321.845,1.285-.32a7.209,7.209,0,0,0,11.145,0l1.285.32A8.521,8.521,0,0,1,9.381,30.924Zm16.1,14.326-.054-1.016h.167Zm6.284-3.195-.693,13.107c-2.46-.014-3.528.215-4.275-.823a2.925,2.925,0,0,1-.435-2l1.255-11.218Zm13.25-15.661-.028-.057v-.026l.039.077Zm-9.956-3.305c-2.286-2.661-1.828-5.16-1.828-9.961,1.72.265,5.562.449,7.586-2.632,2.024,3.081,5.867,2.9,7.586,2.632V18.15A7.6,7.6,0,0,1,35.054,23.089Zm8.483,9.951a3.744,3.744,0,0,1-.851.681,3.607,3.607,0,0,1-1.829.505H40.8a3.635,3.635,0,0,1-2.362-.86l0,0a3.445,3.445,0,0,1-.442-.434,3.682,3.682,0,0,1-.839-1.743,5.169,5.169,0,0,1-.064-1.054,2.342,2.342,0,0,0,.383-.11,1.523,1.523,0,0,0,.8-1.426V27.046a9.29,9.29,0,0,0,5.044.009V28.6a1.458,1.458,0,0,0,.942,1.476l.273.068a3.867,3.867,0,0,1-1,2.893Zm.077,3.3a6.6,6.6,0,0,1-9.386-5.486l1.2-.3a5.393,5.393,0,0,0,9.9,2.889,5.485,5.485,0,0,0,.87-2.881l1.2.3A6.632,6.632,0,0,1,43.615,36.338ZM54.6,54.573c-.882.894-2.081.482-4.046.589l-.693-13.107,4.115-.936c1.36,12.321,1.256,10.865,1.272,11.756A2.46,2.46,0,0,1,54.6,54.573Z" transform="translate(0 0)"/>
      </g>
    </g>
  </g>
</svg>
