<svg xmlns="http://www.w3.org/2000/svg" xmlns:xlink="http://www.w3.org/1999/xlink" width="113" height="113" viewBox="0 0 113 113">
  <defs>
    <filter id="Path_982547" x="0" y="0" width="113" height="113" filterUnits="userSpaceOnUse">
      <feOffset dy="3" input="SourceAlpha"/>
      <feGaussianBlur stdDeviation="3" result="blur"/>
      <feFlood flood-opacity="0.161"/>
      <feComposite operator="in" in2="blur"/>
      <feComposite in="SourceGraphic"/>
    </filter>
  </defs>
  <g id="Group_1204674" data-name="Group 1204674" transform="translate(-586.06 -3560.272)">
    <g id="Group_1204487" data-name="Group 1204487">
      <g id="Group_1203993" data-name="Group 1203993" transform="translate(0 1619.397)">
        <g id="Group_1203497" data-name="Group 1203497" transform="translate(595.061 1946.875)">
          <g id="Group_1172010" data-name="Group 1172010" transform="translate(0)">
            <g id="Group_1171046" data-name="Group 1171046">
              <g id="Group_1148525" data-name="Group 1148525">
                <g transform="matrix(1, 0, 0, 1, -9, -6)" filter="url(#Path_982547)">
                  <g id="Path_982547-2" data-name="Path 982547" transform="translate(9 6)" fill="#fff6f9">
                    <path d="M 47.5 93.5 C 41.28937149047852 93.5 35.26533508300781 92.28397369384766 29.59518623352051 89.88570404052734 C 24.11771965026855 87.56893157958984 19.19813346862793 84.25196075439453 14.97309303283691 80.02691650390625 C 10.74804019927979 75.80186462402344 7.431066513061523 70.88229370117188 5.114293098449707 65.40481567382812 C 2.716026782989502 59.73468017578125 1.5 53.71062850952148 1.5 47.5 C 1.5 41.28937149047852 2.716026782989502 35.26533508300781 5.114293098449707 29.59518623352051 C 7.431066513061523 24.11771965026855 10.74804019927979 19.19813346862793 14.97309303283691 14.97309303283691 C 19.19813346862793 10.74804019927979 24.11771965026855 7.431066513061523 29.59518623352051 5.114293098449707 C 35.26533508300781 2.716026782989502 41.28937149047852 1.5 47.5 1.5 C 53.71062850952148 1.5 59.73468017578125 2.716026782989502 65.40481567382812 5.114293098449707 C 70.88229370117188 7.431066513061523 75.80186462402344 10.74804019927979 80.02691650390625 14.97309303283691 C 84.25196075439453 19.19813346862793 87.56893157958984 24.11771965026855 89.88570404052734 29.59518623352051 C 92.28397369384766 35.26533508300781 93.5 41.28937149047852 93.5 47.5 C 93.5 53.71062850952148 92.28397369384766 59.73468017578125 89.88570404052734 65.40481567382812 C 87.56893157958984 70.88229370117188 84.25196075439453 75.80186462402344 80.02691650390625 80.02691650390625 C 75.80186462402344 84.25196075439453 70.88229370117188 87.56893157958984 65.40481567382812 89.88570404052734 C 59.73468017578125 92.28397369384766 53.71062850952148 93.5 47.5 93.5 Z" stroke="none"/>
                    <path d="M 47.5 3 C 41.49121475219727 3 35.66376876831055 4.176155090332031 30.17950439453125 6.495796203613281 C 24.88084411621094 8.736953735351562 20.12152099609375 11.94598388671875 16.03375244140625 16.03375244140625 C 11.94598388671875 20.12152099609375 8.736953735351562 24.88084411621094 6.495796203613281 30.17950439453125 C 4.176155090332031 35.66376876831055 3 41.49121475219727 3 47.5 C 3 53.50878524780273 4.176155090332031 59.33623123168945 6.495796203613281 64.82049560546875 C 8.736953735351562 70.11915588378906 11.94598388671875 74.87847900390625 16.03375244140625 78.96624755859375 C 20.12152099609375 83.05401611328125 24.88084411621094 86.26304626464844 30.17950439453125 88.50419616699219 C 35.66376876831055 90.82384490966797 41.49121475219727 92 47.5 92 C 53.50878524780273 92 59.33623123168945 90.82384490966797 64.82049560546875 88.50419616699219 C 70.11915588378906 86.26304626464844 74.87847900390625 83.05401611328125 78.96624755859375 78.96624755859375 C 83.05401611328125 74.87847900390625 86.26304626464844 70.11915588378906 88.50419616699219 64.82049560546875 C 90.82384490966797 59.33623123168945 92 53.50878524780273 92 47.5 C 92 41.49121475219727 90.82384490966797 35.66376876831055 88.50419616699219 30.17950439453125 C 86.26304626464844 24.88084411621094 83.05401611328125 20.12152099609375 78.96624755859375 16.03375244140625 C 74.87847900390625 11.94598388671875 70.11915588378906 8.736953735351562 64.82049560546875 6.495796203613281 C 59.33623123168945 4.176155090332031 53.50878524780273 3 47.5 3 M 47.5 0 C 73.7335205078125 0 95 21.2664794921875 95 47.5 C 95 73.7335205078125 73.7335205078125 95 47.5 95 C 21.2664794921875 95 0 73.7335205078125 0 47.5 C 0 21.2664794921875 21.2664794921875 0 47.5 0 Z" stroke="none" fill="#8b5e6f"/>
                  </g>
                </g>
              </g>
            </g>
          </g>
        </g>
      </g>
      <g id="shoulder_10164445" transform="translate(611.518 3582.687)">
        <path id="Path_1046906" data-name="Path 1046906" d="M1478.829,2152.21a.539.539,0,0,1,.539-.539h2.469a8.091,8.091,0,0,0-5.973-6.3,9.282,9.282,0,0,0-1.917,4.658c-.029,4.438,2.723,6.241,2.751,6.259a.539.539,0,0,1,.25.455v11.611h3.641a1.4,1.4,0,0,0,1.4-1.4V2153.2c0-.152-.005-.3-.014-.454h-2.6A.539.539,0,0,1,1478.829,2152.21Z" transform="translate(-1447.769 -2107.265)" fill="#ffd5ca"/>
        <path id="Path_1046907" data-name="Path 1046907" d="M82.718,2155.139v-15.684a8.662,8.662,0,0,0-2.238-5.8A3.911,3.911,0,0,1,77.524,2135h-.514a3.928,3.928,0,0,1-3.831-3.087H68.765a8.077,8.077,0,0,0-8.068,8.068v13.758a1.4,1.4,0,0,0,1.4,1.4h3.641v-11.611a.539.539,0,0,1,1.078,0v11.611Zm-5.991-18.649a.539.539,0,1,1,1.078,0v7.039a.539.539,0,1,1-1.078,0Z" transform="translate(-59.62 -2094.048)" fill="#a7f277"/>
        <path id="Path_1046908" data-name="Path 1046908" d="M89.883,150.81a3.656,3.656,0,0,1,3.065-1.668h.058v-.184a2.012,2.012,0,0,1,2.01-2.01h2.407a2.661,2.661,0,0,0,2.658-2.658.539.539,0,1,1,1.078,0,2.661,2.661,0,0,0,2.658,2.658h.554c.143-.081.285-.159.43-.249a12.235,12.235,0,0,0,2.871-2.508c1.872-2.245,2.119-4.209,2.841-4.14.534.051.447,1.13,1.451,2.478,1.069,1.436,3.524,3.246,5.131,1.483a2.362,2.362,0,0,0-.689-3.6c-.915-.538-1.449-.015-2.085-.514-.958-.751-.112-2.223-1.088-3.234a3.436,3.436,0,0,0-2.72-.665c-1.615.2-2.122,1.265-2.841.967-.84-.348-.258-1.856-1.36-2.841a4.776,4.776,0,0,0-3.264-.725c-.17,0-.324.01-.47.02a3.655,3.655,0,0,0-.561.935.539.539,0,0,1-.828.221,3.6,3.6,0,0,0-2.216-.759,3.638,3.638,0,0,0-3.634,3.634.564.564,0,0,1-.165.4q-.163.157-.32.319a.538.538,0,0,1-.442.162,3.564,3.564,0,0,0-1.621.21,3.625,3.625,0,0,0-1.278,6.008.539.539,0,0,1-.123.863,3.852,3.852,0,0,0-1.507,5.393Z" transform="translate(-87.747 -131.026)" fill="#ffce65"/>
        <path id="Path_1046909" data-name="Path 1046909" d="M150.253,1085.987h.3a12.432,12.432,0,0,1-.235-2.243h-1.153a.539.539,0,1,1,0-1.078h1.149v-2.244h-.058a2.583,2.583,0,0,0-2.58,2.58v.405A2.583,2.583,0,0,0,150.253,1085.987Z" transform="translate(-145.051 -1061.229)" fill="#ffebe3"/>
        <path id="Path_1046910" data-name="Path 1046910" d="M1684.348,1083.006a2.583,2.583,0,0,0-2.58-2.58h-.058v2.244h1.149a.539.539,0,1,1,0,1.078h-1.153a12.413,12.413,0,0,1-.235,2.243h.3a2.583,2.583,0,0,0,2.58-2.58Z" transform="translate(-1651.607 -1061.233)" fill="#ffd5ca"/>
        <path id="Path_1046911" data-name="Path 1046911" d="M821.785,1939.518h.515a2.848,2.848,0,0,0,2.844-2.845v-2.661a12.44,12.44,0,0,1-6.2-.018v2.679A2.848,2.848,0,0,0,821.785,1939.518Z" transform="translate(-804.396 -1899.64)" fill="#ffd5ca"/>
        <path id="Path_1046912" data-name="Path 1046912" d="M365.559,818.434a12,12,0,0,0,11.965-11.965v-2.744a5.044,5.044,0,0,1-4.136-2.757,5.041,5.041,0,0,1-4.5,2.77h-2.259a3.738,3.738,0,0,1-3.2-1.8,3.738,3.738,0,0,1-3.2,1.8h-2.407a.933.933,0,0,0-.932.932v4.4a11.309,11.309,0,0,0,3.484,8.168A11.829,11.829,0,0,0,365.559,818.434Z" transform="translate(-350.563 -786.739)" fill="#ffebe3"/>
        <path id="Path_1046913" data-name="Path 1046913" d="M1176.767,2155.14h5V2143.8a8.558,8.558,0,0,1-3-6.995,9.643,9.643,0,0,1,1.818-4.852c-.254-.024-.511-.038-.771-.038H1175.4a3.911,3.911,0,0,1-.874,1.734,8.66,8.66,0,0,1,2.238,5.8Z" transform="translate(-1153.669 -2094.049)" fill="#6cd827"/>
        <path id="Path_1046914" data-name="Path 1046914" d="M2564.787,2320.968a13.374,13.374,0,0,0,5.545,4.194h.158v-7.555h-7.534A15.726,15.726,0,0,0,2564.787,2320.968Z" transform="translate(-2517.436 -2276.439)" fill="#fff"/>
        <path id="Path_1046915" data-name="Path 1046915" d="M3050.619,2324.521v-6.261a.648.648,0,0,0-.646-.646h-2.166v7.555h2.166A.648.648,0,0,0,3050.619,2324.521Z" transform="translate(-2993.675 -2276.445)" fill="#fff"/>
        <path id="Path_1046916" data-name="Path 1046916" d="M3266.83,2470.62h3.137v2.119h-3.137Z" transform="translate(-3208.807 -2426.735)" fill="#e6e6e6"/>
        <path id="Path_1046917" data-name="Path 1046917" d="M2958.479,1132.9l.5.5q.462-.684.89-1.41h-1A2.627,2.627,0,0,1,2958.479,1132.9Z" transform="translate(-2905.934 -1111.874)" fill="#a9f7f1"/>
        <path id="Path_1046918" data-name="Path 1046918" d="M2128.174,153.467a36.37,36.37,0,0,0,6.16-6.453l-.628-.628a2.637,2.637,0,0,1-.915.381v1.689a.539.539,0,0,1-1.078,0v-1.689a2.636,2.636,0,0,1-.915-.381l-1.2,1.2a.539.539,0,0,1-.762-.762l1.2-1.2a2.639,2.639,0,0,1-.381-.915h-1.689a.539.539,0,1,1,0-1.078h1.689a2.64,2.64,0,0,1,.381-.915l-1.2-1.2a.539.539,0,0,1,.762-.762l1.2,1.2a2.631,2.631,0,0,1,.915-.381v-1.689a.539.539,0,0,1,1.078,0v1.689a2.64,2.64,0,0,1,.915.381l1.2-1.2a.539.539,0,0,1,.762.762l-1.2,1.2a2.635,2.635,0,0,1,.381.915h1.6a17.341,17.341,0,0,0,1.818-5.4l.119-8.073-.429-.022a12.539,12.539,0,0,1-6.782-2.406l-1.2-.878-1.2.878a12.542,12.542,0,0,1-6.782,2.406l-2.422.123.14,9.473C2120.608,145.734,2125.363,150.887,2128.174,153.467Zm-1.517-14.553v-1.576a2.522,2.522,0,0,1-.833-.347l-1.116,1.116a.539.539,0,0,1-.762-.762l1.116-1.116a2.517,2.517,0,0,1-.347-.833h-1.576a.539.539,0,1,1,0-1.078h1.576a2.516,2.516,0,0,1,.347-.833l-1.116-1.116a.539.539,0,1,1,.762-.762l1.116,1.116a2.523,2.523,0,0,1,.833-.347V130.8a.539.539,0,0,1,1.078,0v1.576a2.528,2.528,0,0,1,.833.347l1.115-1.116a.539.539,0,0,1,.762.762l-1.116,1.116a2.532,2.532,0,0,1,.347.833h1.576a.539.539,0,1,1,0,1.078h-1.576a2.532,2.532,0,0,1-.347.833l1.116,1.116a.539.539,0,0,1-.762.762l-1.115-1.116a2.528,2.528,0,0,1-.833.347v1.576a.539.539,0,0,1-1.078,0Z" transform="translate(-2081.922 -124.599)" fill="#a9f7f1"/>
        <path id="Path_1046919" data-name="Path 1046919" d="M2612.377,326.425h.092a.539.539,0,0,1,0,1.078h-.686c-.284.484-.582.954-.89,1.41l.7.7a.539.539,0,1,1-.762.762l-.568-.568a36.378,36.378,0,0,1-6.16,6.453c.8.737,1.448,1.265,1.8,1.541,1.578-1.244,9.107-7.562,10.265-15.274l.14-9.473-1.993-.1-.12,8.073A17.347,17.347,0,0,1,2612.377,326.425Z" transform="translate(-2557.852 -307.395)" fill="#62e2e8"/>
        <path id="Path_1046920" data-name="Path 1046920" d="M2470.524,497.388a1.449,1.449,0,0,0-.344-.931.521.521,0,0,1-.112-.075.527.527,0,0,1-.075-.112,1.445,1.445,0,0,0-.778-.329.538.538,0,0,1-.153.025.532.532,0,0,1-.152-.025,1.445,1.445,0,0,0-.778.329.527.527,0,0,1-.075.112.51.51,0,0,1-.112.075,1.449,1.449,0,0,0-.329.778.489.489,0,0,1,0,.305,1.458,1.458,0,0,0,2.908-.153Z" transform="translate(-2423.789 -487.13)" fill="#f9879a"/>
        <path id="Path_1046921" data-name="Path 1046921" d="M2749.043,1015.409a1.559,1.559,0,0,0-.372-1,.532.532,0,0,1-.119-.079.525.525,0,0,1-.079-.119,1.559,1.559,0,0,0-.847-.356.487.487,0,0,1-.316,0,1.56,1.56,0,0,0-.847.357.516.516,0,0,1-.079.119.532.532,0,0,1-.119.079,1.558,1.558,0,0,0-.356.847.493.493,0,0,1,0,.315,1.571,1.571,0,0,0,3.134-.158Z" transform="translate(-2697.139 -995.84)" fill="#f9879a"/>
        <path id="Path_1046922" data-name="Path 1046922" d="M560.9,972.882a11.357,11.357,0,0,0,11.344-11.344v-4.4a.933.933,0,0,0-.932-.932h-.771q-.182,0-.361-.013v2.744A12,12,0,0,1,558.214,970.9a11.829,11.829,0,0,1-5.175-1.194A11.3,11.3,0,0,0,560.9,972.882Z" transform="translate(-543.217 -939.205)" fill="#ffd5ca"/>
        <path id="Path_1046923" data-name="Path 1046923" d="M838.84,62.714c1.1.985.52,2.493,1.36,2.841.718.3,1.226-.771,2.841-.967a3.436,3.436,0,0,1,2.72.665c.975,1.01.13,2.482,1.088,3.234.636.5,1.17-.024,2.085.514a2.362,2.362,0,0,1,.689,3.6c-1.607,1.763-4.062-.047-5.131-1.483-1-1.348-.917-2.427-1.451-2.478-.721-.069-.969,1.895-2.841,4.14a12.238,12.238,0,0,1-2.871,2.508c-.144.09-.287.169-.43.249H838.6a3.962,3.962,0,0,0,3.958-3.957.539.539,0,1,1,1.078,0,3.962,3.962,0,0,0,3.957,3.957h.771a2.012,2.012,0,0,1,2.01,2.01v.184h.058a3.65,3.65,0,0,1,2.8,1.306,3.849,3.849,0,0,0-1.428-4.87.539.539,0,0,1-.247-.413.625.625,0,0,1,.178-.489,3.623,3.623,0,0,0-2.838-6.33.539.539,0,0,1-.454-.162q-.166-.173-.34-.339a.539.539,0,0,1-.166-.389s0-.009,0-.013a3.638,3.638,0,0,0-3.634-3.624,3.6,3.6,0,0,0-2.216.759.539.539,0,0,1-.828-.221,3.634,3.634,0,0,0-6.157-.935c.146-.01.3-.018.47-.02A4.776,4.776,0,0,1,838.84,62.714Z" transform="translate(-820.274 -59.613)" fill="#ffac52"/>
        <path id="Path_1046924" data-name="Path 1046924" d="M2244.606,2320.968a15.7,15.7,0,0,1-1.83-3.361h-2.063a.647.647,0,0,0-.647.646v1.692a.539.539,0,0,1-.539.539h-2.137a.4.4,0,0,0-.4.4v.993a.4.4,0,0,0,.4.4h2.137a.539.539,0,0,1,.539.539v1.691a.648.648,0,0,0,.647.647h9.439A13.383,13.383,0,0,1,2244.606,2320.968Z" transform="translate(-2197.255 -2276.44)" fill="#a9f7f1"/>
        <g id="Group_1204486" data-name="Group 1204486" transform="translate(-0.001 0.003)">
          <path id="Path_1046925" data-name="Path 1046925" d="M963.764,2367.086a.539.539,0,0,0,.539-.539v-7.039a.539.539,0,0,0-1.078,0v7.039A.539.539,0,0,0,963.764,2367.086Z" transform="translate(-946.117 -2317.07)" fill="#1d144f"/>
          <path id="Path_1046926" data-name="Path 1046926" d="M61.7,40.3a.539.539,0,0,0-.539.539v1.963H58.023v-.993A1.727,1.727,0,0,0,56.3,40.089H54.133V35.912a.539.539,0,1,0-1.078,0v4.177h-9.6a1.727,1.727,0,0,0-1.725,1.725v1.153h-1.6a1.481,1.481,0,0,0-1.477,1.439H35.163a9.159,9.159,0,0,0-9.016-7.615H21.826V34.042A12.474,12.474,0,0,0,29.6,25.836h.564a3.662,3.662,0,0,0,3.658-3.658v-.405a3.631,3.631,0,0,0-.232-1.27,4.925,4.925,0,0,0-.969-6.49,4.707,4.707,0,0,0-3.552-7.8c-.1,0-.2,0-.3.011L28.738,6.2a4.718,4.718,0,0,0-4.706-4.482,4.651,4.651,0,0,0-2.335.622,4.712,4.712,0,0,0-8.135,0,4.651,4.651,0,0,0-2.335-.622A4.718,4.718,0,0,0,6.521,6.205l-.011.011a4.644,4.644,0,0,0-1.844.293,4.7,4.7,0,0,0-2.1,7.284,4.926,4.926,0,0,0-.921,7.149,3.644,3.644,0,0,0-.1.83v.405A3.662,3.662,0,0,0,5.2,25.836h.564a12.476,12.476,0,0,0,7.7,8.182v2.773H9.145A9.157,9.157,0,0,0,0,45.937V59.695a2.476,2.476,0,0,0,2.474,2.474H32.82a2.476,2.476,0,0,0,2.474-2.474V45.937c0-.152,0-.3-.011-.453h3.375a1.481,1.481,0,0,0,1.477,1.439h1.6v1.153A1.727,1.727,0,0,0,43.457,49.8h9.6v4.177a.539.539,0,1,0,1.078,0V49.8H56.3a1.727,1.727,0,0,0,1.725-1.725v-.993H61.16v1.963a.539.539,0,1,0,1.078,0v-8.2A.539.539,0,0,0,61.7,40.3Zm-8.644,8.417h-9.6a.648.648,0,0,1-.647-.647V46.384a.539.539,0,0,0-.539-.539H40.134a.4.4,0,0,1-.4-.4v-.993a.4.4,0,0,1,.4-.4h2.137a.539.539,0,0,0,.539-.539V41.814a.647.647,0,0,1,.647-.647h9.6v7.555Zm1.078-7.555H56.3a.647.647,0,0,1,.647.647v6.261a.648.648,0,0,1-.647.647H54.133Zm3.89,2.718h3.137V46H58.023ZM34.215,45.937V59.695a1.4,1.4,0,0,1-1.4,1.4H29.179V49.48a.539.539,0,0,0-.249-.455c-.028-.018-2.78-1.822-2.751-6.259a9.284,9.284,0,0,1,1.917-4.658,8.092,8.092,0,0,1,5.973,6.3H31.6a.539.539,0,1,0,0,1.078h2.6C34.21,45.634,34.215,45.785,34.215,45.937Zm-27.563,3a.539.539,0,0,0-.539.539V61.09H2.472a1.4,1.4,0,0,1-1.4-1.4V45.937a8.077,8.077,0,0,1,8.068-8.068h4.413a3.928,3.928,0,0,0,3.831,3.087H17.9a3.938,3.938,0,0,0,3.831-3.087h4.413c.26,0,.517.014.771.038A9.644,9.644,0,0,0,25.1,42.759a8.559,8.559,0,0,0,3,6.995V61.09H7.191V49.48a.539.539,0,0,0-.539-.539ZM3.643,14.39a.539.539,0,0,0,.123-.863A3.625,3.625,0,0,1,5.044,7.519a3.563,3.563,0,0,1,1.621-.21.538.538,0,0,0,.442-.162q.157-.163.32-.319a.564.564,0,0,0,.165-.4,3.638,3.638,0,0,1,3.634-3.634,3.6,3.6,0,0,1,2.216.759.539.539,0,0,0,.828-.221,3.633,3.633,0,0,1,6.718,0,.539.539,0,0,0,.828.221,3.6,3.6,0,0,1,2.216-.759,3.638,3.638,0,0,1,3.634,3.624s0,.009,0,.013a.539.539,0,0,0,.166.389q.173.166.34.339a.539.539,0,0,0,.454.162,3.628,3.628,0,0,1,2.838,6.33.625.625,0,0,0-.178.489.539.539,0,0,0,.247.413,3.849,3.849,0,0,1,1.428,4.87,3.65,3.65,0,0,0-2.8-1.306H30.1v-.184a2.012,2.012,0,0,0-2.01-2.01h-.771a3.962,3.962,0,0,1-3.957-3.957.539.539,0,1,0-1.078,0,3.962,3.962,0,0,1-3.957,3.957H16.07a2.661,2.661,0,0,1-2.658-2.658.539.539,0,1,0-1.078,0,2.661,2.661,0,0,1-2.658,2.658H7.27a2.012,2.012,0,0,0-2.01,2.01v.184H5.2a3.656,3.656,0,0,0-3.065,1.668A3.851,3.851,0,0,1,3.643,14.39ZM30.161,24.758h-.3a12.432,12.432,0,0,0,.235-2.243h1.153a.539.539,0,0,0,0-1.078H30.1V19.193h.058a2.583,2.583,0,0,1,2.58,2.58v.405a2.583,2.583,0,0,1-2.58,2.58ZM6.338,22.334v-4.4A.933.933,0,0,1,7.27,17H9.676a3.738,3.738,0,0,0,3.2-1.8,3.737,3.737,0,0,0,3.2,1.8h2.259a5.041,5.041,0,0,0,4.5-2.77,5.044,5.044,0,0,0,4.136,2.757q.179.013.361.013h.771a.933.933,0,0,1,.932.932v4.4a11.344,11.344,0,0,1-22.688,0Zm-3.716-.561a2.583,2.583,0,0,1,2.58-2.58H5.26v2.244H4.111a.539.539,0,1,0,0,1.078H5.264A12.431,12.431,0,0,0,5.5,24.758H5.2a2.583,2.583,0,0,1-2.58-2.58v-.405Zm15.06,12.983a12.4,12.4,0,0,0,3.066-.384v2.661A2.848,2.848,0,0,1,17.9,39.878h-.514a2.848,2.848,0,0,1-2.845-2.845V34.354a12.4,12.4,0,0,0,3.137.4Z" transform="translate(0.001 -0.003)" fill="#212429"/>
          <path id="Path_1046927" data-name="Path 1046927" d="M2077.964,62.325a11.464,11.464,0,0,1-6.2-2.2l-1.519-1.11a.539.539,0,0,0-.636,0l-1.519,1.11a11.464,11.464,0,0,1-6.2,2.2l-2.941.149a.539.539,0,0,0-.512.546l.148,10.029a.57.57,0,0,0,.006.071c.691,4.684,3.645,8.857,6,11.532,1.766,2.005,4.821,4.834,5.314,4.834h.009c.528,0,3.583-2.829,5.348-4.834,2.356-2.676,5.31-6.848,6-11.532a.57.57,0,0,0,.006-.071l.148-10.029a.539.539,0,0,0-.512-.546Zm-18.443,1.2,2.423-.123A12.543,12.543,0,0,0,2068.727,61l1.2-.878,1.2.878a12.54,12.54,0,0,0,6.782,2.406l.429.022,1.994.1-.14,9.473c-1.158,7.712-8.687,14.03-10.265,15.274-.351-.276-1-.8-1.8-1.541-2.811-2.58-7.565-7.733-8.466-13.733Z" transform="translate(-2021.875 -57.865)" fill="#212429"/>
          <path id="Path_1046928" data-name="Path 1046928" d="M2295.42,327.266V325.69a2.524,2.524,0,0,0,.833-.347l1.116,1.116a.539.539,0,0,0,.762-.762l-1.116-1.116a2.517,2.517,0,0,0,.347-.833h1.576a.539.539,0,1,0,0-1.078h-1.576a2.516,2.516,0,0,0-.347-.833l1.116-1.116a.539.539,0,0,0-.762-.762l-1.116,1.116a2.525,2.525,0,0,0-.833-.347v-1.576a.539.539,0,0,0-1.078,0v1.576a2.522,2.522,0,0,0-.833.347l-1.116-1.116a.539.539,0,0,0-.762.762l1.116,1.116a2.521,2.521,0,0,0-.347.833h-1.576a.539.539,0,1,0,0,1.078h1.576a2.521,2.521,0,0,0,.347.833l-1.116,1.116a.539.539,0,1,0,.762.762l1.116-1.116a2.521,2.521,0,0,0,.833.347v1.576a.539.539,0,0,0,1.078,0Zm-.539-2.6a1.459,1.459,0,0,1-1.447-1.309.484.484,0,0,0,0-.305,1.447,1.447,0,0,1,.329-.778.341.341,0,0,0,.187-.187,1.445,1.445,0,0,1,.778-.329.486.486,0,0,0,.305,0,1.446,1.446,0,0,1,.778.329.34.34,0,0,0,.187.187,1.448,1.448,0,0,1,.344.931A1.463,1.463,0,0,1,2294.881,324.671Z" transform="translate(-2249.606 -312.954)" fill="#212429"/>
          <path id="Path_1046929" data-name="Path 1046929" d="M2569.836,838.329a.539.539,0,0,0,.381-.92l-.7-.7-.5-.495a2.632,2.632,0,0,0,.382-.915h1.689a.539.539,0,1,0,0-1.078H2569.4a2.64,2.64,0,0,0-.381-.915l1.2-1.2a.539.539,0,0,0-.762-.762l-1.2,1.2a2.636,2.636,0,0,0-.915-.381v-1.689a.539.539,0,0,0-1.078,0v1.689a2.636,2.636,0,0,0-.915.381l-1.2-1.2a.539.539,0,0,0-.762.762l1.2,1.2a2.634,2.634,0,0,0-.381.915h-1.689a.539.539,0,1,0,0,1.078h1.689a2.634,2.634,0,0,0,.381.915l-1.2,1.2a.539.539,0,0,0,.762.762l1.2-1.2a2.635,2.635,0,0,0,.915.381v1.689a.539.539,0,1,0,1.078,0v-1.689a2.635,2.635,0,0,0,.915-.381l.628.628.568.568A.537.537,0,0,0,2569.836,838.329Zm-3.031-2a1.572,1.572,0,0,1-1.559-1.417.493.493,0,0,0,0-.315,1.557,1.557,0,0,1,.357-.847.363.363,0,0,0,.2-.2,1.556,1.556,0,0,1,.847-.357.489.489,0,0,0,.316,0,1.558,1.558,0,0,1,.847.356.361.361,0,0,0,.2.2,1.561,1.561,0,0,1,.372,1A1.577,1.577,0,0,1,2566.805,836.334Z" transform="translate(-2516.474 -815.192)" fill="#212429"/>
        </g>
      </g>
    </g>
  </g>
</svg>
