<svg xmlns="http://www.w3.org/2000/svg" xmlns:xlink="http://www.w3.org/1999/xlink" width="113" height="113" viewBox="0 0 113 113">
  <defs>
    <filter id="Path_982547" x="0" y="0" width="113" height="113" filterUnits="userSpaceOnUse">
      <feOffset dy="3" input="SourceAlpha"/>
      <feGaussianBlur stdDeviation="3" result="blur"/>
      <feFlood flood-opacity="0.161"/>
      <feComposite operator="in" in2="blur"/>
      <feComposite in="SourceGraphic"/>
    </filter>
  </defs>
  <g id="Group_1204673" data-name="Group 1204673" transform="translate(-272 -3560.272)">
    <g id="Group_1203992" data-name="Group 1203992" transform="translate(0 1619.397)">
      <g id="Group_1203498" data-name="Group 1203498" transform="translate(0 -197.72)">
        <g id="Group_1202589" data-name="Group 1202589" transform="translate(281 2144.596)">
          <g id="Group_1172010" data-name="Group 1172010" transform="translate(0)">
            <g id="Group_1171046" data-name="Group 1171046">
              <g id="Group_1148525" data-name="Group 1148525">
                <g transform="matrix(1, 0, 0, 1, -9, -6)" filter="url(#Path_982547)">
                  <g id="Path_982547-2" data-name="Path 982547" transform="translate(9 6)" fill="#fff6f9">
                    <path d="M 47.5 93.5 C 41.28937149047852 93.5 35.26533508300781 92.28397369384766 29.59518623352051 89.88570404052734 C 24.11771965026855 87.56893157958984 19.19813346862793 84.25196075439453 14.97309303283691 80.02691650390625 C 10.74804019927979 75.80186462402344 7.431066513061523 70.88229370117188 5.114293098449707 65.40481567382812 C 2.716026782989502 59.73468017578125 1.5 53.71062850952148 1.5 47.5 C 1.5 41.28937149047852 2.716026782989502 35.26533508300781 5.114293098449707 29.59518623352051 C 7.431066513061523 24.11771965026855 10.74804019927979 19.19813346862793 14.97309303283691 14.97309303283691 C 19.19813346862793 10.74804019927979 24.11771965026855 7.431066513061523 29.59518623352051 5.114293098449707 C 35.26533508300781 2.716026782989502 41.28937149047852 1.5 47.5 1.5 C 53.71062850952148 1.5 59.73468017578125 2.716026782989502 65.40481567382812 5.114293098449707 C 70.88229370117188 7.431066513061523 75.80186462402344 10.74804019927979 80.02691650390625 14.97309303283691 C 84.25196075439453 19.19813346862793 87.56893157958984 24.11771965026855 89.88570404052734 29.59518623352051 C 92.28397369384766 35.26533508300781 93.5 41.28937149047852 93.5 47.5 C 93.5 53.71062850952148 92.28397369384766 59.73468017578125 89.88570404052734 65.40481567382812 C 87.56893157958984 70.88229370117188 84.25196075439453 75.80186462402344 80.02691650390625 80.02691650390625 C 75.80186462402344 84.25196075439453 70.88229370117188 87.56893157958984 65.40481567382812 89.88570404052734 C 59.73468017578125 92.28397369384766 53.71062850952148 93.5 47.5 93.5 Z" stroke="none"/>
                    <path d="M 47.5 3 C 41.49121475219727 3 35.66376876831055 4.176155090332031 30.17950439453125 6.495796203613281 C 24.88084411621094 8.736953735351562 20.12152099609375 11.94598388671875 16.03375244140625 16.03375244140625 C 11.94598388671875 20.12152099609375 8.736953735351562 24.88084411621094 6.495796203613281 30.17950439453125 C 4.176155090332031 35.66376876831055 3 41.49121475219727 3 47.5 C 3 53.50878524780273 4.176155090332031 59.33623123168945 6.495796203613281 64.82049560546875 C 8.736953735351562 70.11915588378906 11.94598388671875 74.87847900390625 16.03375244140625 78.96624755859375 C 20.12152099609375 83.05401611328125 24.88084411621094 86.26304626464844 30.17950439453125 88.50419616699219 C 35.66376876831055 90.82384490966797 41.49121475219727 92 47.5 92 C 53.50878524780273 92 59.33623123168945 90.82384490966797 64.82049560546875 88.50419616699219 C 70.11915588378906 86.26304626464844 74.87847900390625 83.05401611328125 78.96624755859375 78.96624755859375 C 83.05401611328125 74.87847900390625 86.26304626464844 70.11915588378906 88.50419616699219 64.82049560546875 C 90.82384490966797 59.33623123168945 92 53.50878524780273 92 47.5 C 92 41.49121475219727 90.82384490966797 35.66376876831055 88.50419616699219 30.17950439453125 C 86.26304626464844 24.88084411621094 83.05401611328125 20.12152099609375 78.96624755859375 16.03375244140625 C 74.87847900390625 11.94598388671875 70.11915588378906 8.736953735351562 64.82049560546875 6.495796203613281 C 59.33623123168945 4.176155090332031 53.50878524780273 3 47.5 3 M 47.5 0 C 73.7335205078125 0 95 21.2664794921875 95 47.5 C 95 73.7335205078125 73.7335205078125 95 47.5 95 C 21.2664794921875 95 0 73.7335205078125 0 47.5 C 0 21.2664794921875 21.2664794921875 0 47.5 0 Z" stroke="none" fill="#8b5e6f"/>
                  </g>
                </g>
              </g>
            </g>
          </g>
        </g>
      </g>
      <g id="equality_7408172" transform="translate(285.401 1910.369)">
        <g id="Group_1204222" data-name="Group 1204222" transform="translate(7.5 60.5)">
          <path id="Path_1046199" data-name="Path 1046199" d="M461.866,145.946H458.5V139.5h3.366a3.223,3.223,0,0,1,3.223,3.223h0A3.223,3.223,0,0,1,461.866,145.946Z" transform="translate(-393.892 -128.183)" fill="#a4766e"/>
          <path id="Path_1046200" data-name="Path 1046200" d="M301.723,145.946h3.367V139.5h-3.367a3.223,3.223,0,0,0-3.223,3.223h0A3.223,3.223,0,0,0,301.723,145.946Z" transform="translate(-256.813 -128.183)" fill="#a4766e"/>
          <path id="Path_1046201" data-name="Path 1046201" d="M344.1,86.143h0a9.6,9.6,0,0,1-9.6-9.6V70.1a9.6,9.6,0,0,1,9.6-9.6h0a9.6,9.6,0,0,1,9.6,9.6v6.446A9.6,9.6,0,0,1,344.1,86.143Z" transform="translate(-287.656 -60.5)" fill="#bd8580"/>
          <path id="Path_1046202" data-name="Path 1046202" d="M398.247,70.1v6.446A9.6,9.6,0,0,1,386.5,85.9a9.6,9.6,0,0,0,7.449-9.356V70.1a9.6,9.6,0,0,0-7.449-9.356A9.6,9.6,0,0,1,398.247,70.1Z" transform="translate(-332.206 -60.5)" fill="#a4766e"/>
          <path id="Path_1046203" data-name="Path 1046203" d="M170.866,145.946H167.5V139.5h3.366a3.223,3.223,0,0,1,3.223,3.223h0A3.223,3.223,0,0,1,170.866,145.946Z" transform="translate(-144.579 -128.183)" fill="#ffb09e"/>
          <path id="Path_1046204" data-name="Path 1046204" d="M10.723,145.946H14.09V139.5H10.723A3.223,3.223,0,0,0,7.5,142.723h0A3.223,3.223,0,0,0,10.723,145.946Z" transform="translate(-7.5 -128.183)" fill="#ffb09e"/>
          <path id="Path_1046205" data-name="Path 1046205" d="M53.1,86.143h0a9.6,9.6,0,0,1-9.6-9.6V70.1a9.6,9.6,0,0,1,9.6-9.6h0a9.6,9.6,0,0,1,9.6,9.6v6.446A9.6,9.6,0,0,1,53.1,86.143Z" transform="translate(-38.343 -60.5)" fill="#ffcebf"/>
          <path id="Path_1046206" data-name="Path 1046206" d="M107.247,70.1v6.446A9.6,9.6,0,0,1,95.5,85.9a9.6,9.6,0,0,0,7.449-9.356V70.1A9.6,9.6,0,0,0,95.5,60.742,9.6,9.6,0,0,1,107.247,70.1Z" transform="translate(-82.894 -60.5)" fill="#ffb09e"/>
          <path id="Path_1046207" data-name="Path 1046207" d="M92.251,273.8H28.216a.716.716,0,0,1-.716-.716v-2.865a.716.716,0,0,1,.716-.716H92.251a.716.716,0,0,1,.716.716v2.865A.716.716,0,0,1,92.251,273.8Z" transform="translate(-24.635 -239.56)" fill="#f5f0f3"/>
          <path id="Path_1046208" data-name="Path 1046208" d="M456.32,270.212v2.865a.717.717,0,0,1-.716.716l-4,0a.716.716,0,0,0,.716-.716V270.21a.717.717,0,0,0-.655-.714H455.6A.718.718,0,0,1,456.32,270.212Z" transform="translate(-387.987 -239.555)" fill="#e4dfe3"/>
          <path id="Path_1046209" data-name="Path 1046209" d="M201.061,259.126H179l3.8-17.374a2.865,2.865,0,0,1,2.8-2.252h8.855a2.865,2.865,0,0,1,2.8,2.252Z" transform="translate(-154.432 -213.857)" fill="#9ff497"/>
          <path id="Path_1046210" data-name="Path 1046210" d="M267.81,259.126h-4.3l-3.8-17.374a2.864,2.864,0,0,0-2.8-2.252h4.3a2.865,2.865,0,0,1,2.8,2.252Z" transform="translate(-221.181 -213.857)" fill="#6ce79a"/>
          <path id="Path_1046211" data-name="Path 1046211" d="M243.149,273.8h0A2.149,2.149,0,0,1,241,271.649h0a2.149,2.149,0,0,1,2.149-2.149h0a2.149,2.149,0,0,1,2.149,2.149h0A2.149,2.149,0,0,1,243.149,273.8Z" transform="translate(-207.55 -239.56)" fill="#6ce79a"/>
          <path id="Path_1046212" data-name="Path 1046212" d="M190.353,376.5H167.433A1.433,1.433,0,0,0,166,377.933V380.8h25.786v-2.865A1.433,1.433,0,0,0,190.353,376.5Z" transform="translate(-143.294 -331.231)" fill="#f5f0f3"/>
          <path id="Path_1046213" data-name="Path 1046213" d="M311.73,377.933V380.8h-4.3v-2.865A1.433,1.433,0,0,0,306,376.5h4.3A1.433,1.433,0,0,1,311.73,377.933Z" transform="translate(-263.238 -331.231)" fill="#e4dfe3"/>
          <path id="Path_1046214" data-name="Path 1046214" d="M175.37,412.947H146.433A1.433,1.433,0,0,1,145,411.514v-3.581a1.432,1.432,0,0,1,1.433-1.432H175.37a1.432,1.432,0,0,1,1.433,1.432v3.581A1.433,1.433,0,0,1,175.37,412.947Z" transform="translate(-125.302 -356.934)" fill="#806d7a"/>
          <path id="Path_1046215" data-name="Path 1046215" d="M332.73,407.932v3.581a1.433,1.433,0,0,1-1.433,1.433H327a1.433,1.433,0,0,0,1.433-1.433v-3.581A1.433,1.433,0,0,0,327,406.5h4.3A1.433,1.433,0,0,1,332.73,407.932Z" transform="translate(-281.23 -356.934)" fill="#6c5e69"/>
        </g>
        <g id="Group_1204223" data-name="Group 1204223" transform="translate(7.5 60.5)">
          <path id="Path_1046216" data-name="Path 1046216" d="M171.2,376.5h-3.766A1.433,1.433,0,0,0,166,377.933v2.7" transform="translate(-143.294 -331.231)" fill="none" stroke="#000" stroke-linecap="round" stroke-linejoin="round" stroke-miterlimit="10" stroke-width="1"/>
          <path id="Path_1046217" data-name="Path 1046217" d="M252.862,380.607v-2.674a1.433,1.433,0,0,0-1.433-1.433H237.288" transform="translate(-204.37 -331.231)" fill="none" stroke="#000" stroke-linecap="round" stroke-linejoin="round" stroke-miterlimit="10" stroke-width="1"/>
          <path id="Path_1046218" data-name="Path 1046218" d="M168.329,412.947h-21.9A1.433,1.433,0,0,1,145,411.514v-3.581a1.432,1.432,0,0,1,1.433-1.432H175.37a1.432,1.432,0,0,1,1.433,1.432v3.581a1.433,1.433,0,0,1-1.433,1.433h-2.027" transform="translate(-125.302 -356.934)" fill="none" stroke="#000" stroke-linecap="round" stroke-linejoin="round" stroke-miterlimit="10" stroke-width="1"/>
          <path id="Path_1046219" data-name="Path 1046219" d="M12.534,139.5h-1.81A3.223,3.223,0,0,0,7.5,142.723h0a3.223,3.223,0,0,0,3.223,3.223h1.934" transform="translate(-7.5 -128.183)" fill="none" stroke="#000" stroke-linecap="round" stroke-linejoin="round" stroke-miterlimit="10" stroke-width="1"/>
          <path id="Path_1046220" data-name="Path 1046220" d="M344.1,86.143h0a9.6,9.6,0,0,1-9.6-9.6V70.1a9.6,9.6,0,0,1,9.6-9.6h0a9.6,9.6,0,0,1,9.6,9.6v6.446A9.6,9.6,0,0,1,344.1,86.143Z" transform="translate(-287.656 -60.5)" fill="none" stroke="#000" stroke-linecap="round" stroke-linejoin="round" stroke-miterlimit="10" stroke-width="1"/>
          <path id="Path_1046221" data-name="Path 1046221" d="M468.721,139.5h1.713a3.223,3.223,0,0,1,3.223,3.223h0a3.223,3.223,0,0,1-3.223,3.223H468.5" transform="translate(-402.459 -128.183)" fill="none" stroke="#000" stroke-linecap="round" stroke-linejoin="round" stroke-miterlimit="10" stroke-width="1"/>
          <path id="Path_1046222" data-name="Path 1046222" d="M303.508,139.5h-1.785a3.223,3.223,0,0,0-3.223,3.223h0a3.223,3.223,0,0,0,3.223,3.223h1.934" transform="translate(-256.813 -128.183)" fill="none" stroke="#000" stroke-linecap="round" stroke-linejoin="round" stroke-miterlimit="10" stroke-width="1"/>
          <line id="Line_1246" data-name="Line 1246" y2="1.433" transform="translate(60.669 13.466)" fill="none" stroke="#000" stroke-linecap="round" stroke-linejoin="round" stroke-miterlimit="10" stroke-width="1"/>
          <line id="Line_1247" data-name="Line 1247" y2="1.433" transform="translate(52.217 13.466)" fill="none" stroke="#000" stroke-linecap="round" stroke-linejoin="round" stroke-miterlimit="10" stroke-width="1"/>
          <path id="Path_1046223" data-name="Path 1046223" d="M386.727,192.559a3.8,3.8,0,0,1-2.969,1.424h0a3.8,3.8,0,0,1-2.969-1.424" transform="translate(-327.313 -173.641)" fill="none" stroke="#000" stroke-linecap="round" stroke-linejoin="round" stroke-miterlimit="10" stroke-width="1"/>
          <path id="Path_1046224" data-name="Path 1046224" d="M53.1,86.143h0a9.6,9.6,0,0,1-9.6-9.6V70.1a9.6,9.6,0,0,1,9.6-9.6h0a9.6,9.6,0,0,1,9.6,9.6v6.446A9.6,9.6,0,0,1,53.1,86.143Z" transform="translate(-38.343 -60.5)" fill="none" stroke="#000" stroke-linecap="round" stroke-linejoin="round" stroke-miterlimit="10" stroke-width="1"/>
          <path id="Path_1046225" data-name="Path 1046225" d="M177.718,139.5h1.716a3.223,3.223,0,0,1,3.223,3.223h0a3.223,3.223,0,0,1-3.223,3.223H177.5" transform="translate(-153.147 -128.183)" fill="none" stroke="#000" stroke-linecap="round" stroke-linejoin="round" stroke-miterlimit="10" stroke-width="1"/>
          <line id="Line_1248" data-name="Line 1248" y2="1.433" transform="translate(18.981 13.466)" fill="none" stroke="#000" stroke-linecap="round" stroke-linejoin="round" stroke-miterlimit="10" stroke-width="1"/>
          <line id="Line_1249" data-name="Line 1249" y2="1.433" transform="translate(10.529 13.466)" fill="none" stroke="#000" stroke-linecap="round" stroke-linejoin="round" stroke-miterlimit="10" stroke-width="1"/>
          <path id="Path_1046226" data-name="Path 1046226" d="M95.727,192.559a3.8,3.8,0,0,1-2.969,1.424h0a3.8,3.8,0,0,1-2.969-1.424" transform="translate(-78.001 -173.641)" fill="none" stroke="#000" stroke-linecap="round" stroke-linejoin="round" stroke-miterlimit="10" stroke-width="1"/>
          <path id="Path_1046227" data-name="Path 1046227" d="M313.357,269.5h23.8a.716.716,0,0,1,.716.716v2.865a.716.716,0,0,1-.716.716H314.605" transform="translate(-269.541 -239.56)" fill="none" stroke="#000" stroke-linecap="round" stroke-linejoin="round" stroke-miterlimit="10" stroke-width="1"/>
          <path id="Path_1046228" data-name="Path 1046228" d="M51.172,273.8H28.216a.716.716,0,0,1-.716-.716v-2.865a.716.716,0,0,1,.716-.716H52.289" transform="translate(-24.635 -239.56)" fill="none" stroke="#000" stroke-linecap="round" stroke-linejoin="round" stroke-miterlimit="10" stroke-width="1"/>
          <path id="Path_1046229" data-name="Path 1046229" d="M179,259.126l3.8-17.374a2.865,2.865,0,0,1,2.8-2.252h8.855a2.865,2.865,0,0,1,2.8,2.252l3.8,17.374" transform="translate(-154.432 -213.857)" fill="none" stroke="#000" stroke-linecap="round" stroke-linejoin="round" stroke-miterlimit="10" stroke-width="1"/>
          <path id="Path_1046230" data-name="Path 1046230" d="M243.149,273.8h0A2.149,2.149,0,0,1,241,271.649h0a2.149,2.149,0,0,1,2.149-2.149h0a2.149,2.149,0,0,1,2.149,2.149h0A2.149,2.149,0,0,1,243.149,273.8Z" transform="translate(-207.55 -239.56)" fill="none" stroke="#000" stroke-linecap="round" stroke-linejoin="round" stroke-miterlimit="10" stroke-width="1"/>
        </g>
      </g>
    </g>
  </g>
</svg>
