<svg xmlns="http://www.w3.org/2000/svg" xmlns:xlink="http://www.w3.org/1999/xlink" width="108" height="108" viewBox="0 0 108 108">
  <defs>
    <filter id="Path_982547" x="0" y="0" width="108" height="108" filterUnits="userSpaceOnUse">
      <feOffset dy="3" input="SourceAlpha"/>
      <feGaussianBlur stdDeviation="3" result="blur"/>
      <feFlood flood-opacity="0.161"/>
      <feComposite operator="in" in2="blur"/>
      <feComposite in="SourceGraphic"/>
    </filter>
  </defs>
  <g id="Group_1204647" data-name="Group 1204647" transform="translate(-1037.01 -4472)">
    <g id="Group_1204646" data-name="Group 1204646">
      <g id="Group_1203966" data-name="Group 1203966" transform="translate(847 2516.532)">
        <g id="Group_1203625" data-name="Group 1203625" transform="translate(-14.49 905.468)">
          <g id="Group_1178314" data-name="Group 1178314" transform="translate(213.5 1056)">
            <g id="Group_1173988" data-name="Group 1173988">
              <g id="Group_1172010" data-name="Group 1172010">
                <g id="Group_1171046" data-name="Group 1171046">
                  <g id="Group_1148525" data-name="Group 1148525">
                    <g transform="matrix(1, 0, 0, 1, -9, -6)" filter="url(#Path_982547)">
                      <g id="Path_982547-2" data-name="Path 982547" transform="translate(9 6)" fill="#f7fbfc">
                        <path d="M 45 88.5 C 39.12687683105469 88.5 33.43022537231445 87.35007476806641 28.06830024719238 85.08217620849609 C 22.88852500915527 82.89131164550781 18.23629951477051 79.75458526611328 14.2408504486084 75.75914764404297 C 10.24541282653809 71.76370239257812 7.108687400817871 67.11147308349609 4.917825222015381 61.93170166015625 C 2.649924993515015 56.56977462768555 1.5 50.87312316894531 1.5 45 C 1.5 39.12687683105469 2.649924993515015 33.43022537231445 4.917825222015381 28.06830024719238 C 7.108687400817871 22.88852500915527 10.24541282653809 18.23629951477051 14.2408504486084 14.2408504486084 C 18.23629951477051 10.24541282653809 22.88852500915527 7.108687400817871 28.06830024719238 4.917825222015381 C 33.43022537231445 2.649924993515015 39.12687683105469 1.5 45 1.5 C 50.87312316894531 1.5 56.56977462768555 2.649924993515015 61.93170166015625 4.917825222015381 C 67.11147308349609 7.108687400817871 71.76370239257812 10.24541282653809 75.75914764404297 14.2408504486084 C 79.75458526611328 18.23629951477051 82.89131164550781 22.88852500915527 85.08217620849609 28.06830024719238 C 87.35007476806641 33.43022537231445 88.5 39.12687683105469 88.5 45 C 88.5 50.87312316894531 87.35007476806641 56.56977462768555 85.08217620849609 61.93170166015625 C 82.89131164550781 67.11147308349609 79.75458526611328 71.76370239257812 75.75914764404297 75.75914764404297 C 71.76370239257812 79.75458526611328 67.11147308349609 82.89131164550781 61.93170166015625 85.08217620849609 C 56.56977462768555 87.35007476806641 50.87312316894531 88.5 45 88.5 Z" stroke="none"/>
                        <path d="M 45 3 C 39.32871246337891 3 33.82865524291992 4.110054016113281 28.65262985229492 6.299339294433594 C 23.65165710449219 8.414573669433594 19.15968322753906 11.44334411621094 15.301513671875 15.301513671875 C 11.44334411621094 19.15968322753906 8.414573669433594 23.65165710449219 6.299339294433594 28.65262985229492 C 4.110054016113281 33.82865524291992 3 39.32871246337891 3 45 C 3 50.67128753662109 4.110054016113281 56.17134475708008 6.299339294433594 61.34737396240234 C 8.414573669433594 66.34834289550781 11.44334411621094 70.84031677246094 15.301513671875 74.698486328125 C 19.15968322753906 78.55665588378906 23.65165710449219 81.58542633056641 28.65262985229492 83.70066070556641 C 33.82865524291992 85.88994598388672 39.32871246337891 87 45 87 C 50.67128753662109 87 56.17134475708008 85.88994598388672 61.34737396240234 83.70066070556641 C 66.34834289550781 81.58542633056641 70.84031677246094 78.55665588378906 74.698486328125 74.698486328125 C 78.55665588378906 70.84031677246094 81.58542633056641 66.34834289550781 83.70066070556641 61.34737396240234 C 85.88994598388672 56.17134475708008 87 50.67128753662109 87 45 C 87 39.32871246337891 85.88994598388672 33.82865524291992 83.70066070556641 28.65262985229492 C 81.58542633056641 23.65165710449219 78.55665588378906 19.15968322753906 74.698486328125 15.301513671875 C 70.84031677246094 11.44334411621094 66.34834289550781 8.414573669433594 61.34737396240234 6.299339294433594 C 56.17134475708008 4.110054016113281 50.67128753662109 3 45 3 M 45 0 C 69.85281372070312 0 90 20.14718627929688 90 45 C 90 69.85281372070312 69.85281372070312 90 45 90 C 20.14718627929688 90 0 69.85281372070312 0 45 C 0 20.14718627929688 20.14718627929688 0 45 0 Z" stroke="none" fill="#62797e"/>
                      </g>
                    </g>
                  </g>
                </g>
              </g>
            </g>
          </g>
        </g>
        <g id="preventive_18584945" transform="translate(170.969 1968.049)">
          <g id="Group_1204085" data-name="Group 1204085" transform="translate(48.05 15.887)">
            <g id="Group_1204083" data-name="Group 1204083" transform="translate(13.303 0)">
              <path id="Path_1045492" data-name="Path 1045492" d="M292.629,113.569l.633,2.363-5.494-3.148,3.184-5.473.665,2.482a10.876,10.876,0,0,0,0-19.343V86.269a14.72,14.72,0,0,1,1.014,27.3Z" transform="translate(-271.927 -84.231)" fill="#c6ea94" fill-rule="evenodd"/>
              <path id="Path_1045493" data-name="Path 1045493" d="M172.58,76.407a10.877,10.877,0,0,0,.315,19.517v4.132a14.72,14.72,0,0,1-1.326-27.423l-.653-2.437,5.494,3.148-3.184,5.473Z" transform="translate(-162.819 -70.197)" fill="#c6ea94" fill-rule="evenodd"/>
              <path id="Path_1045494" data-name="Path 1045494" d="M236.462,153.109V149.97a.775.775,0,0,1,.775-.775h2.372a.775.775,0,0,1,.775.775v3.139h3.139a.776.776,0,0,1,.775.775v2.372a.776.776,0,0,1-.775.775h-3.139v3.139a.775.775,0,0,1-.775.775h-2.372a.775.775,0,0,1-.775-.775v-3.139h-3.139a.775.775,0,0,1-.775-.775v-2.372a.775.775,0,0,1,.775-.775Z" transform="translate(-223.707 -139.179)" fill="#c6ea94" fill-rule="evenodd"/>
            </g>
            <g id="Group_1204084" data-name="Group 1204084" transform="translate(0 33.067)">
              <path id="Path_1045495" data-name="Path 1045495" d="M91.819,332.6c-3.316,1.624-6.667,3.182-10,4.761l4.712,11.276,6.93-3.37A4.171,4.171,0,0,1,96.55,345l7.352,2.126c2.331.672,5.214-.565,7.384-1.4l13.788-5.318c3.631-1.4,4.506-8.682-4.07-6.166l-9.839,2.885a3.127,3.127,0,0,0-2.207-2.2l-6.664-1.78C97.749,329.936,95.438,330.825,91.819,332.6Z" transform="translate(-78.782 -331.001)" fill="#efc7a4" fill-rule="evenodd"/>
              <path id="Path_1045496" data-name="Path 1045496" d="M210,364.74l-14.9-3.976a3.129,3.129,0,0,0,2.216,3.823l8.857,2.366A3.141,3.141,0,0,0,210,364.74Z" transform="translate(-177.607 -356.99)" fill="#d5a889" fill-rule="evenodd"/>
              <path id="Path_1045497" data-name="Path 1045497" d="M69.5,363.748l-3.536,1.466a1.513,1.513,0,0,1-1.97-.811q-2.99-7.175-5.982-14.351a1.5,1.5,0,0,1,.815-1.971l3.533-1.466a1.512,1.512,0,0,1,1.97.811q2.994,7.176,5.982,14.351A1.5,1.5,0,0,1,69.5,363.748Z" transform="translate(-57.892 -344.535)" fill="#e4e8eb"/>
            </g>
          </g>
          <circle id="Ellipse_12743" data-name="Ellipse 12743" cx="3.106" cy="3.106" r="3.106" transform="translate(48.904 12.973)" fill="#f76c82"/>
          <circle id="Ellipse_12744" data-name="Ellipse 12744" cx="3.106" cy="3.106" r="3.106" transform="translate(90.154 10.917)" fill="#f76c82"/>
          <path id="Path_1045498" data-name="Path 1045498" d="M89.517,14.9H88.325a.888.888,0,1,1,0-1.775h1.192a4.008,4.008,0,0,1,.525-1.265l-.844-.844a.888.888,0,1,1,1.255-1.255l.843.843a4.007,4.007,0,0,1,1.265-.525V8.889a.888.888,0,1,1,1.775,0v1.192a4,4,0,0,1,1.265.525l.844-.843A.887.887,0,1,1,97.7,11.017l-.843.844a4.008,4.008,0,0,1,.525,1.265h1.192a.888.888,0,1,1,0,1.775H97.381a4.009,4.009,0,0,1-.525,1.265l.843.844a.888.888,0,1,1-1.255,1.255L95.6,17.42a4.005,4.005,0,0,1-1.265.525v1.192a.888.888,0,1,1-1.775,0V17.945A4.008,4.008,0,0,1,91.3,17.42l-.843.844A.888.888,0,1,1,89.2,17.008l.844-.844A4.009,4.009,0,0,1,89.517,14.9Zm2.327-2.471a2.262,2.262,0,0,0-.469.7h.074a.888.888,0,0,1,0,1.775h-.074a2.261,2.261,0,0,0,.469.7l.011.011.011.011a2.262,2.262,0,0,0,.7.469v-.074a.888.888,0,1,1,1.775,0v.074a2.26,2.26,0,0,0,.7-.469l.011-.011.011-.011a2.261,2.261,0,0,0,.469-.7h-.074a.888.888,0,0,1,0-1.775h.074a2.262,2.262,0,0,0-.469-.7l-.011-.011-.011-.011a2.257,2.257,0,0,0-.7-.469v.073a.888.888,0,1,1-1.775,0v-.073a2.259,2.259,0,0,0-.7.469l-.011.011-.011.011Zm-43.3,4.536h-1.04a.888.888,0,1,1,0-1.775h1.04A3.757,3.757,0,0,1,49,14.108l-.736-.736a.887.887,0,0,1,1.255-1.255l.736.736a3.757,3.757,0,0,1,1.082-.449v-1.04a.888.888,0,0,1,1.775,0V12.4a3.756,3.756,0,0,1,1.082.449l.736-.736a.887.887,0,0,1,1.255,1.255l-.736.736A3.753,3.753,0,0,1,55.9,15.19h1.04a.888.888,0,0,1,0,1.775H55.9a3.753,3.753,0,0,1-.449,1.082l.736.736a.887.887,0,0,1-1.255,1.255l-.736-.736a3.753,3.753,0,0,1-1.082.449v1.04a.888.888,0,0,1-1.775,0v-1.04a3.754,3.754,0,0,1-1.082-.449l-.736.736a.887.887,0,0,1-1.255-1.255L49,18.047A3.757,3.757,0,0,1,48.549,16.965ZM50.8,14.671a2.011,2.011,0,0,0-.37.52.888.888,0,0,1,0,1.773,2.011,2.011,0,0,0,.37.52l.011.01.01.011a2.012,2.012,0,0,0,.52.37.888.888,0,0,1,1.773,0,2.011,2.011,0,0,0,.52-.37l.01-.011.011-.01a2.011,2.011,0,0,0,.37-.52.888.888,0,0,1,0-1.773,2.011,2.011,0,0,0-.37-.52l-.011-.01-.01-.011a2.011,2.011,0,0,0-.52-.37.888.888,0,0,1-1.773,0,2.011,2.011,0,0,0-.52.37l-.01.011ZM60.919,65.049l.337.81h0a2.33,2.33,0,0,1,0,1.83l0,0a2.333,2.333,0,0,1-1.293,1.294h0L56.437,70.45a2.4,2.4,0,0,1-3.126-1.289q-2.984-7.171-5.972-14.342a2.391,2.391,0,0,1,1.288-3.129l3.53-1.465a2.4,2.4,0,0,1,3.126,1.288h0l.283.68q2.556-1.209,5.1-2.446c2.352-1.151,4.207-1.91,6.366-1.618a11.184,11.184,0,0,1,4.859,2.158l6.5,1.741a4,4,0,0,1,2.492,1.981l9.054-2.656c4.622-1.356,6.776.025,7.536,1.716,1.115,2.479-.493,5.2-2.906,6.13L80.8,64.507c-2.328.9-5.439,2.142-7.937,1.417L65.524,63.8h0A3.3,3.3,0,0,0,63.069,64Zm-6.636-11.32L53.646,52.2a.62.62,0,0,0-.808-.333l-3.529,1.465a.6.6,0,0,0-.334.336.583.583,0,0,0,0,.468v0q2.985,7.172,5.972,14.344h0a.616.616,0,0,0,.806.331l3.525-1.461h0a.616.616,0,0,0,.334-.81l-.655-1.575,0-.012Q56.62,59.34,54.283,53.729Zm5.953,9.678,2.055-1a5.008,5.008,0,0,1,3.727-.317l7.337,2.128a6.309,6.309,0,0,0,3.277-.138,32.112,32.112,0,0,0,3.527-1.23l13.77-5.306c1.5-.578,2.619-2.206,1.927-3.745a2.007,2.007,0,0,0-1.417-1.093,7.773,7.773,0,0,0-4,.353l-9.078,2.663a3.971,3.971,0,0,1-.131,1.22,4.019,4.019,0,0,1-4.911,2.834l-8.842-2.368a.888.888,0,0,1,.459-1.715l8.842,2.368h0a2.239,2.239,0,0,0,2.736-1.579,2.214,2.214,0,0,0,.012-1.1l-.013-.04c-.007-.024-.013-.049-.018-.074a2.24,2.24,0,0,0-1.562-1.52l-6.653-1.782A.889.889,0,0,1,71,51.829a9.687,9.687,0,0,0-4.2-1.939c-1.822-.246-3.364.483-5.349,1.453q-2.589,1.266-5.2,2.492l3.986,9.573Zm22.854-17.7.442,1.65a.888.888,0,0,1-1.3,1L76.74,45.21a.888.888,0,0,1-.326-1.216L79.6,38.521a.888.888,0,0,1,1.625.217l.363,1.356a9.987,9.987,0,0,0-.965-17.2.888.888,0,0,1-.481-.789V17.924a.888.888,0,0,1,1.188-.835A15.607,15.607,0,0,1,83.09,45.708Zm-1.41-1.294a13.832,13.832,0,0,0,.235-25.163s0,2.329,0,2.329a11.763,11.763,0,0,1-.478,20.659.888.888,0,0,1-1.264-.559l-.113-.422L78.4,44.114l2.868,1.643-.081-.3A.888.888,0,0,1,81.68,44.414ZM70.544,23.45A9.988,9.988,0,0,0,71.8,40.812a.888.888,0,0,1,.508.8v4.132a.887.887,0,0,1-1.168.842,15.607,15.607,0,0,1-2.095-28.75l-.462-1.722a.887.887,0,0,1,1.3-1l5.494,3.148a.887.887,0,0,1,.326,1.216l-3.184,5.473a.887.887,0,0,1-1.624-.217Zm1.414-1.583.094.35,1.662-2.857-2.868-1.643.1.377a.888.888,0,0,1-.5,1.041,13.832,13.832,0,0,0,.078,25.322v-2.3A11.763,11.763,0,0,1,70.7,21.308a.887.887,0,0,1,1.263.56Zm1.249,7.062V26.678a1.663,1.663,0,0,1,1.663-1.663h2.372A1.663,1.663,0,0,1,78.9,26.678V28.93h2.251a1.663,1.663,0,0,1,1.663,1.663v2.372a1.663,1.663,0,0,1-1.663,1.663H78.9v2.252a1.663,1.663,0,0,1-1.663,1.663H74.87a1.663,1.663,0,0,1-1.663-1.663V34.627H70.956a1.663,1.663,0,0,1-1.663-1.663V30.592a1.663,1.663,0,0,1,1.663-1.663ZM71.068,30.7v2.147h3.027a.888.888,0,0,1,.888.888v3.027h2.147V33.739a.887.887,0,0,1,.887-.888h3.027V30.7H78.017a.887.887,0,0,1-.887-.888V26.79H74.982v3.027a.888.888,0,0,1-.888.888Zm23.51,1.074a.888.888,0,1,1,1.775,0,20.238,20.238,0,0,1-6.21,14.607.888.888,0,0,1-1.232-1.278,18.468,18.468,0,0,0,5.667-13.33Zm-37.044,0a.888.888,0,1,1-1.775,0,20.247,20.247,0,0,1,6.732-15.094A.888.888,0,0,1,63.678,18,18.476,18.476,0,0,0,57.534,31.778Z" transform="translate(0 0)" fill-rule="evenodd"/>
        </g>
      </g>
    </g>
  </g>
</svg>
