<svg xmlns="http://www.w3.org/2000/svg" xmlns:xlink="http://www.w3.org/1999/xlink" width="113" height="113" viewBox="0 0 113 113">
  <defs>
    <filter id="Path_982547" x="0" y="0" width="113" height="113" filterUnits="userSpaceOnUse">
      <feOffset dy="3" input="SourceAlpha"/>
      <feGaussianBlur stdDeviation="3" result="blur"/>
      <feFlood flood-opacity="0.161"/>
      <feComposite operator="in" in2="blur"/>
      <feComposite in="SourceGraphic"/>
    </filter>
  </defs>
  <g id="Group_1204660" data-name="Group 1204660" transform="translate(-586.06 -1115.772)">
    <g id="Group_1204204" data-name="Group 1204204">
      <g id="Group_1203973" data-name="Group 1203973" transform="translate(595.061 1121.772)">
        <g id="Group_1172010" data-name="Group 1172010" transform="translate(0)">
          <g id="Group_1171046" data-name="Group 1171046">
            <g id="Group_1148525" data-name="Group 1148525">
              <g transform="matrix(1, 0, 0, 1, -9, -6)" filter="url(#Path_982547)">
                <g id="Path_982547-2" data-name="Path 982547" transform="translate(9 6)" fill="#f4f4fd">
                  <path d="M 47.5 93.5 C 41.28937149047852 93.5 35.26533508300781 92.28397369384766 29.59518623352051 89.88570404052734 C 24.11771965026855 87.56893157958984 19.19813346862793 84.25196075439453 14.97309303283691 80.02691650390625 C 10.74804019927979 75.80186462402344 7.431066513061523 70.88229370117188 5.114293098449707 65.40481567382812 C 2.716026782989502 59.73468017578125 1.5 53.71062850952148 1.5 47.5 C 1.5 41.28937149047852 2.716026782989502 35.26533508300781 5.114293098449707 29.59518623352051 C 7.431066513061523 24.11771965026855 10.74804019927979 19.19813346862793 14.97309303283691 14.97309303283691 C 19.19813346862793 10.74804019927979 24.11771965026855 7.431066513061523 29.59518623352051 5.114293098449707 C 35.26533508300781 2.716026782989502 41.28937149047852 1.5 47.5 1.5 C 53.71062850952148 1.5 59.73468017578125 2.716026782989502 65.40481567382812 5.114293098449707 C 70.88229370117188 7.431066513061523 75.80186462402344 10.74804019927979 80.02691650390625 14.97309303283691 C 84.25196075439453 19.19813346862793 87.56893157958984 24.11771965026855 89.88570404052734 29.59518623352051 C 92.28397369384766 35.26533508300781 93.5 41.28937149047852 93.5 47.5 C 93.5 53.71062850952148 92.28397369384766 59.73468017578125 89.88570404052734 65.40481567382812 C 87.56893157958984 70.88229370117188 84.25196075439453 75.80186462402344 80.02691650390625 80.02691650390625 C 75.80186462402344 84.25196075439453 70.88229370117188 87.56893157958984 65.40481567382812 89.88570404052734 C 59.73468017578125 92.28397369384766 53.71062850952148 93.5 47.5 93.5 Z" stroke="none"/>
                  <path d="M 47.5 3 C 41.49121475219727 3 35.66376876831055 4.176155090332031 30.17950439453125 6.495796203613281 C 24.88084411621094 8.736953735351562 20.12152099609375 11.94598388671875 16.03375244140625 16.03375244140625 C 11.94598388671875 20.12152099609375 8.736953735351562 24.88084411621094 6.495796203613281 30.17950439453125 C 4.176155090332031 35.66376876831055 3 41.49121475219727 3 47.5 C 3 53.50878524780273 4.176155090332031 59.33623123168945 6.495796203613281 64.82049560546875 C 8.736953735351562 70.11915588378906 11.94598388671875 74.87847900390625 16.03375244140625 78.96624755859375 C 20.12152099609375 83.05401611328125 24.88084411621094 86.26304626464844 30.17950439453125 88.50419616699219 C 35.66376876831055 90.82384490966797 41.49121475219727 92 47.5 92 C 53.50878524780273 92 59.33623123168945 90.82384490966797 64.82049560546875 88.50419616699219 C 70.11915588378906 86.26304626464844 74.87847900390625 83.05401611328125 78.96624755859375 78.96624755859375 C 83.05401611328125 74.87847900390625 86.26304626464844 70.11915588378906 88.50419616699219 64.82049560546875 C 90.82384490966797 59.33623123168945 92 53.50878524780273 92 47.5 C 92 41.49121475219727 90.82384490966797 35.66376876831055 88.50419616699219 30.17950439453125 C 86.26304626464844 24.88084411621094 83.05401611328125 20.12152099609375 78.96624755859375 16.03375244140625 C 74.87847900390625 11.94598388671875 70.11915588378906 8.736953735351562 64.82049560546875 6.495796203613281 C 59.33623123168945 4.176155090332031 53.50878524780273 3 47.5 3 M 47.5 0 C 73.7335205078125 0 95 21.2664794921875 95 47.5 C 95 73.7335205078125 73.7335205078125 95 47.5 95 C 21.2664794921875 95 0 73.7335205078125 0 47.5 C 0 21.2664794921875 21.2664794921875 0 47.5 0 Z" stroke="none" fill="#6f6e88"/>
                </g>
              </g>
            </g>
          </g>
        </g>
      </g>
      <g id="healthcare_2449846_1_" data-name="healthcare_2449846 (1)" transform="translate(594.901 1139.236)">
        <g id="Group_1204202" data-name="Group 1204202" transform="translate(20.54 0.883)">
          <path id="Path_1046129" data-name="Path 1046129" d="M237.542,420.477h-.825" transform="translate(-211.275 -371.874)" fill="none" stroke="#000" stroke-linecap="round" stroke-linejoin="round" stroke-miterlimit="10" stroke-width="15"/>
          <g id="Group_1204198" data-name="Group 1204198" transform="translate(2.859 39.021)">
            <g id="XMLID_395_">
              <g id="Group_1204197" data-name="Group 1204197">
                <path id="Path_1046130" data-name="Path 1046130" d="M82.822,347.037l9.552-5.558a2.633,2.633,0,0,1,2.913,4.375L81.051,356.622a8.527,8.527,0,0,1-5.142,1.725h-2.83a8.521,8.521,0,0,1-3.287-.66l-10.465-4.376H51.37l-6.536.02V342.067h9.29a10.267,10.267,0,0,1,7.259-3.007h.235a10.264,10.264,0,0,1,7.258,3.007l.6.6h7.782a5.814,5.814,0,0,1,5.461,3.814A1.6,1.6,0,0,1,82.822,347.037Z" transform="translate(-44.834 -339.06)" fill="#ffe6c4"/>
              </g>
              <path id="Path_1046131" data-name="Path 1046131" d="M95.441,362.185c-.05.044-.1.087-.155.128L81.051,373.081a8.527,8.527,0,0,1-5.142,1.725h-2.83a8.521,8.521,0,0,1-3.287-.66L59.61,369.889a1.53,1.53,0,0,0-.591-.118H51.37l-6.536.02v3.944l6.536-.02h7.956l10.465,4.376a8.521,8.521,0,0,0,3.287.66h2.83a8.527,8.527,0,0,0,5.142-1.725l14.236-10.769a2.633,2.633,0,0,0,.155-4.071Z" transform="translate(-44.834 -359.463)" fill="#fed3a7"/>
            </g>
          </g>
          <path id="Path_1046132" data-name="Path 1046132" d="M36.5,357.474v-4.083h.048v-7.967a1.865,1.865,0,0,0-1.865-1.865H28.04v16.2h6.649a1.865,1.865,0,0,0,1.865-1.865v-.468Z" transform="translate(-27.157 -304.009)" fill="#d4f2f6"/>
          <path id="Path_1046133" data-name="Path 1046133" d="M34.689,425.363H28.04v4.926h6.649a1.865,1.865,0,0,0,1.865-1.865V423.5A1.865,1.865,0,0,1,34.689,425.363Z" transform="translate(-27.157 -374.54)" fill="#a7e6ef"/>
          <g id="Group_1204199" data-name="Group 1204199" transform="translate(0 36.893)">
            <path id="Path_1046134" data-name="Path 1046134" d="M21.423,342.506a.883.883,0,0,1-.883-.883v-19.76a.883.883,0,1,1,1.765,0v19.76A.883.883,0,0,1,21.423,342.506Z" transform="translate(-20.54 -320.981)" fill="#a7e6ef"/>
          </g>
          <path id="Path_1046135" data-name="Path 1046135" d="M116.81,10.983a11.893,11.893,0,0,0-16.819,0l-.3.3-.3-.3A11.893,11.893,0,0,0,82.57,27.8L97.616,42.849a2.933,2.933,0,0,0,4.147,0L116.81,27.8a11.893,11.893,0,0,0,0-16.819Z" transform="translate(-72.197 -7.5)" fill="#fd828a"/>
          <g id="Group_1204200" data-name="Group 1204200" transform="translate(6.89 0)">
            <path id="Path_1046136" data-name="Path 1046136" d="M89.865,27.8A11.9,11.9,0,0,1,94.627,8.072,11.895,11.895,0,0,0,82.57,27.8L97.616,42.851a2.933,2.933,0,0,0,4.147,0l1.573-1.573Z" transform="translate(-79.087 -7.502)" fill="#fd6773"/>
          </g>
          <circle id="Ellipse_12745" data-name="Ellipse 12745" cx="10.57" cy="10.57" r="10.57" transform="translate(16.929 7.054)" fill="#f9f7f8"/>
          <path id="Path_1046137" data-name="Path 1046137" d="M166.709,175.785q-.275-.275-.528-.564a10.583,10.583,0,0,0,8.2,8.234Z" transform="translate(-149.041 -155.482)" fill="#efedef"/>
          <g id="Group_1204201" data-name="Group 1204201" transform="translate(4.504 12.425)">
            <path id="Path_1046138" data-name="Path 1046138" d="M216.8,116.6h-3.078v-3.078a.452.452,0,0,0-.452-.452h-3.393a.452.452,0,0,0-.452.452V116.6H206.35a.452.452,0,0,0-.452.452v3.393a.452.452,0,0,0,.452.452h3.078v3.078a.452.452,0,0,0,.452.452h3.393a.452.452,0,0,0,.452-.452V120.9H216.8a.452.452,0,0,0,.452-.452v-3.393A.452.452,0,0,0,216.8,116.6Z" transform="translate(-188.588 -113.074)" fill="#fd828a"/>
            <path id="Path_1046139" data-name="Path 1046139" d="M386.214,243.546h-1.963v-1.963a.5.5,0,0,0-.5-.5h-2.584a.5.5,0,0,0-.5.5v1.963H378.7a.5.5,0,0,0-.5.5v2.584a.5.5,0,0,0,.5.5h1.963V249.1a.5.5,0,0,0,.5.5h2.584a.5.5,0,0,0,.5-.5v-1.963h1.963a.5.5,0,0,0,.5-.5v-2.584A.5.5,0,0,0,386.214,243.546Z" transform="translate(-340.61 -226.016)" fill="#fd828a"/>
            <path id="Path_1046140" data-name="Path 1046140" d="M59.316,243.546h1.963v-1.963a.5.5,0,0,1,.5-.5h2.584a.5.5,0,0,1,.5.5v1.963H66.83a.5.5,0,0,1,.5.5v2.584a.5.5,0,0,1-.5.5H64.867V249.1a.5.5,0,0,1-.5.5H61.781a.5.5,0,0,1-.5-.5v-1.963H59.316a.5.5,0,0,1-.5-.5v-2.584A.5.5,0,0,1,59.316,243.546Z" transform="translate(-58.814 -226.016)" fill="#fd828a"/>
          </g>
        </g>
        <g id="Group_1204203" data-name="Group 1204203" transform="translate(20.54 0)">
          <path id="Path_1046141" data-name="Path 1046141" d="M230.925,412.977H230.1a.883.883,0,1,0,0,1.765h.825a.883.883,0,0,0,0-1.765Z" transform="translate(-204.658 -364.374)"/>
          <path id="Path_1046142" data-name="Path 1046142" d="M74.983,325.576a3.5,3.5,0,0,0-4.488-.812l-8.574,4.989a6.725,6.725,0,0,0-6.093-3.917H48.412l-.346-.346a11.075,11.075,0,0,0-7.883-3.265h-.235a11.069,11.069,0,0,0-7.616,3.007H30.805a2.751,2.751,0,0,0-2.734-2.477H22.305v-.892a.883.883,0,0,0-1.765,0v19.76a.883.883,0,0,0,1.765,0v-.9h5.766a2.751,2.751,0,0,0,2.734-2.477h6.909l10.3,4.308a9.359,9.359,0,0,0,3.629.728h2.83a9.462,9.462,0,0,0,5.674-1.9L74.384,330.6a3.515,3.515,0,0,0,.6-5.029ZM74,328.009a1.735,1.735,0,0,1-.682,1.188L59.083,339.965a7.686,7.686,0,0,1-4.609,1.547h-2.83a7.6,7.6,0,0,1-2.948-.592l-10.464-4.376a.884.884,0,0,0-.341-.068H30.819v-4.055a.883.883,0,1,0-1.765,0v5.55a.983.983,0,0,1-.982.982H22.305V324.52h5.766a.983.983,0,0,1,.982.982v3.157a.883.883,0,0,0,1.765,0V327H32.69a.882.882,0,0,0,.624-.259,9.322,9.322,0,0,1,6.635-2.748h.235a9.321,9.321,0,0,1,6.635,2.748l.6.6a.882.882,0,0,0,.624.259h7.782a4.95,4.95,0,0,1,4.632,3.235.722.722,0,0,1-.678.971H49.943a.883.883,0,0,0,0,1.765h9.839a2.49,2.49,0,0,0,2.426-1.944l9.175-5.339A1.75,1.75,0,0,1,74,328.009Z" transform="translate(-20.54 -283.204)"/>
          <path id="Path_1046143" data-name="Path 1046143" d="M90.375,36.856a3.815,3.815,0,0,0,5.4,0l4.7-4.7A.883.883,0,0,0,99.226,30.9l-4.7,4.7a2.05,2.05,0,0,1-2.9,0L76.577,20.561A11.01,11.01,0,1,1,92.148,4.99l.3.3a.882.882,0,0,0,1.248,0l.3-.3a11.01,11.01,0,1,1,15.571,15.571l-7.646,7.646a.883.883,0,1,0,1.248,1.248l7.646-7.646A12.776,12.776,0,0,0,93.073,3.429,12.776,12.776,0,0,0,75.329,21.81Z" transform="translate(-65.579 0)"/>
          <path id="Path_1046144" data-name="Path 1046144" d="M159.584,73.556a.883.883,0,0,0-1.721.393,11.457,11.457,0,1,0-.187-4.074.883.883,0,1,0,1.75.232,9.688,9.688,0,1,1,9.6,10.972,9.578,9.578,0,0,1-6.081-2.146A9.725,9.725,0,0,1,159.584,73.556Z" transform="translate(-141.53 -52.885)"/>
          <path id="Path_1046145" data-name="Path 1046145" d="M206.657,105.575h-3.393a1.337,1.337,0,0,0-1.335,1.335v2.2h-2.2a1.336,1.336,0,0,0-1.335,1.335v3.393a1.336,1.336,0,0,0,1.335,1.335h2.2v2.2a1.337,1.337,0,0,0,1.335,1.335h3.393a1.337,1.337,0,0,0,1.335-1.335v-2.2h2.2a1.337,1.337,0,0,0,1.335-1.335V110.44a1.337,1.337,0,0,0-1.335-1.335h-2.2v-2.2a1.337,1.337,0,0,0-1.335-1.335Zm3.1,5.3V113.4h-2.648a.883.883,0,0,0-.883.883v2.648h-2.532v-2.648a.883.883,0,0,0-.883-.883h-2.648v-2.532h2.648a.883.883,0,0,0,.883-.883V107.34h2.532v2.648a.883.883,0,0,0,.883.883Z" transform="translate(-177.467 -93.15)"/>
          <path id="Path_1046146" data-name="Path 1046146" d="M377.132,233.581h-2.584a1.386,1.386,0,0,0-1.385,1.385v1.08h-1.08a1.386,1.386,0,0,0-1.385,1.385v2.584a1.386,1.386,0,0,0,1.385,1.385h1.08v1.08a1.386,1.386,0,0,0,1.385,1.385h2.584a1.386,1.386,0,0,0,1.385-1.385V241.4h1.08a1.386,1.386,0,0,0,1.385-1.385V237.43a1.386,1.386,0,0,0-1.385-1.385h-1.08v-1.08A1.386,1.386,0,0,0,377.132,233.581Zm2.084,4.23v1.823h-1.582a.883.883,0,0,0-.883.883V242.1h-1.823v-1.582a.883.883,0,0,0-.883-.883h-1.582v-1.823h1.582a.883.883,0,0,0,.883-.883v-1.582h1.823v1.582a.883.883,0,0,0,.883.883Z" transform="translate(-329.488 -206.091)"/>
          <path id="Path_1046147" data-name="Path 1046147" d="M52.7,241.4h1.08v1.08a1.386,1.386,0,0,0,1.385,1.385h2.584a1.386,1.386,0,0,0,1.385-1.385V241.4h1.08a1.386,1.386,0,0,0,1.385-1.385V237.43a1.386,1.386,0,0,0-1.385-1.385h-1.08v-1.08a1.386,1.386,0,0,0-1.385-1.385H55.163a1.386,1.386,0,0,0-1.385,1.385v1.08H52.7a1.386,1.386,0,0,0-1.385,1.385v2.584A1.386,1.386,0,0,0,52.7,241.4Zm.381-3.588h1.582a.883.883,0,0,0,.883-.883v-1.582h1.823v1.582a.883.883,0,0,0,.883.883h1.582v1.823H58.25a.883.883,0,0,0-.883.883V242.1H55.544v-1.582a.883.883,0,0,0-.883-.883H53.079Z" transform="translate(-47.692 -206.091)"/>
        </g>
      </g>
    </g>
  </g>
</svg>
